<?xml version="1.0" encoding="UTF-8"?>
<svg id="Layer_1" data-name="Layer 1" xmlns="http://www.w3.org/2000/svg" width="24" height="24" viewBox="0 0 24 24">
  <defs>
    <style>
      .cls-1 {
        fill: #eece93;
        stroke-width: 0px;
      }
    </style>
  </defs>
  <path class="cls-1" d="M20.37,11.43L11.51,3.75c-.07-.06-.15-.09-.25-.09h-2.07c-.17,0-.25.22-.12.33l8.21,7.13H3.56c-.1,0-.19.08-.19.19v1.41c0,.1.08.19.19.19h13.71l-8.21,7.12c-.13.11-.05.33.12.33h2.14s.09-.02.12-.05l8.91-7.73c.08-.07.15-.16.19-.26.04-.1.07-.2.07-.31s-.02-.21-.07-.31c-.04-.1-.11-.19-.19-.26Z"/>
</svg>