<?xml version="1.0" encoding="utf-8"?>
<!-- Generator: Adobe Illustrator 28.2.0, SVG Export Plug-In . SVG Version: 6.00 Build 0)  -->
<svg version="1.1" id="Layer_1" xmlns="http://www.w3.org/2000/svg" xmlns:xlink="http://www.w3.org/1999/xlink" x="0px" y="0px"
	 viewBox="0 0 24 24" style="enable-background:new 0 0 24 24;" xml:space="preserve" width="24" height="24">
<style type="text/css">
	.st0{fill:#024DDF;}
</style>
<path class="st0" d="M20.4,11.4l-8.9-7.7c-0.1-0.1-0.2-0.1-0.2-0.1H9.2C9,3.7,8.9,3.9,9.1,4l8.2,7.1H3.6c-0.1,0-0.2,0.1-0.2,0.2v1.4
	c0,0.1,0.1,0.2,0.2,0.2h13.7L9.1,20c-0.1,0.1-0.1,0.3,0.1,0.3h2.1c0,0,0.1,0,0.1,0l8.9-7.7c0.1-0.1,0.1-0.2,0.2-0.3
	c0-0.1,0.1-0.2,0.1-0.3s0-0.2-0.1-0.3C20.5,11.6,20.4,11.5,20.4,11.4z"/>
</svg>
