<?xml version="1.0" encoding="UTF-8"?>
<svg id="Layer_1" data-name="Layer 1" xmlns="http://www.w3.org/2000/svg" width="274" height="283" viewBox="0 0 274 283">
  <defs>
    <style>
      .cls-1 {
        fill: rgba(35, 20, 20, .83);
      }

      .cls-1, .cls-2, .cls-3 {
        stroke-width: 0px;
      }

      .cls-2 {
        fill: #eece93;
      }

      .cls-3 {
        fill: #fff;
      }
    </style>
  </defs>
  <path class="cls-1" d="M251.29,191.83c-3.42,0-6.7,1.37-9.12,3.78-2.42,2.41-3.78,5.67-3.79,9.08,0,7.1,12.91,20.48,12.91,20.48,0,0,12.91-13.41,12.91-20.48-.01-3.41-1.37-6.67-3.79-9.08-2.42-2.41-5.7-3.77-9.12-3.78ZM251.29,209.27c-1.08,0-2.13-.32-3.03-.91-.9-.6-1.6-1.44-2.01-2.43-.41-.99-.52-2.08-.32-3.13.21-1.05.73-2.02,1.49-2.78.76-.76,1.73-1.28,2.79-1.49s2.15-.11,3.15.3c.99.41,1.85,1.1,2.45,1.99.6.89.92,1.94.92,3.01,0,.71-.14,1.42-.41,2.08-.27.66-.67,1.26-1.18,1.76-.51.5-1.11.9-1.77,1.18-.66.27-1.37.41-2.08.42Z"/>
  <path class="cls-1" d="M251.29,225.57c-.05,0-.1,0-.15-.03-.05-.02-.09-.05-.12-.09-.53-.55-13.01-13.61-13.01-20.78,0-3.51,1.4-6.88,3.89-9.36,2.49-2.48,5.87-3.88,9.4-3.88s6.9,1.4,9.4,3.88c2.49,2.48,3.89,5.85,3.89,9.36,0,7.17-12.48,20.22-13.01,20.78-.04.04-.08.06-.13.08-.05.02-.1.03-.15.03ZM251.29,192.2c-3.32,0-6.51,1.32-8.85,3.66-2.35,2.34-3.67,5.51-3.67,8.82,0,6.3,10.66,17.97,12.53,19.96,1.86-1.99,12.53-13.65,12.53-19.96,0-3.31-1.33-6.48-3.67-8.82-2.35-2.34-5.53-3.65-8.85-3.65h0ZM251.29,209.64c-1.15,0-2.28-.34-3.24-.97-.96-.64-1.71-1.54-2.15-2.6-.44-1.06-.56-2.23-.34-3.35.22-1.13.78-2.16,1.59-2.97.81-.81,1.85-1.37,2.98-1.59,1.13-.23,2.3-.11,3.37.33,1.07.44,1.98,1.18,2.62,2.13.64.95.98,2.08.99,3.22,0,.76-.15,1.52-.44,2.22-.29.7-.72,1.35-1.26,1.89-.54.54-1.18.97-1.89,1.26s-1.46.45-2.23.45h0ZM251.29,198.8c-1,0-1.98.29-2.82.85-.83.55-1.48,1.34-1.87,2.26-.38.92-.49,1.94-.29,2.91.19.98.68,1.88,1.38,2.59.71.71,1.61,1.19,2.59,1.38.98.2,2,.1,2.93-.28.93-.38,1.72-1.03,2.27-1.85.56-.83.86-1.8.86-2.8,0-1.33-.54-2.61-1.49-3.55-.95-.94-2.23-1.47-3.57-1.47v-.03Z"/>
  <path class="cls-1" d="M91.51,19.41c-5.95-3.13-13.84-3.72-21.09-1.59-7.25,2.13-13.71,6.98-16.95,12.9-.19.34-.28.73-.24,1.12.03.39.18.76.43,1.06.25.3.58.53.95.64.37.11.77.11,1.15,0,.25-.07.47-.19.67-.35.2-.16.36-.36.48-.58,2.79-5.04,8.25-9.16,14.63-11.03,6.37-1.87,13.08-1.37,18.15,1.3.46.24,1,.29,1.49.14.5-.15.91-.5,1.15-.95.24-.46.29-.99.14-1.49-.15-.49-.5-.91-.96-1.15h-.02Z"/>
  <path class="cls-1" d="M87.97,26.33c-4.87-1.99-10.28-2.26-15.32-.77-5.04,1.49-9.43,4.66-12.41,8.97-.22.33-.33.73-.32,1.13.01.4.15.79.38,1.11.24.32.57.56.95.69s.79.13,1.18.02c.44-.12.82-.38,1.08-.76,2.48-3.54,6.1-6.14,10.26-7.37,4.16-1.23,8.62-1.02,12.64.6.24.1.49.16.75.16.26,0,.51-.04.75-.14.24-.09.46-.23.64-.41.18-.18.33-.39.44-.63.1-.24.16-.49.16-.74,0-.26-.04-.51-.14-.75-.09-.24-.24-.46-.41-.64-.18-.18-.39-.33-.63-.43v-.04Z"/>
  <path class="cls-1" d="M84.39,33.2c-3.09-1.29-6.54-1.46-9.74-.47-3.2.99-5.95,3.06-7.77,5.87-.29.43-.39.96-.29,1.47.1.51.4.95.83,1.24.43.28.96.39,1.46.29.51-.09.96-.38,1.26-.8,1.31-2.06,3.32-3.59,5.66-4.32,2.34-.73,4.86-.61,7.12.34.48.19,1.02.19,1.5-.01.48-.2.86-.59,1.05-1.06.19-.48.19-1.02-.01-1.49-.2-.48-.59-.85-1.07-1.05h0Z"/>
  <path class="cls-1" d="M76.77,39.28c-.89.26-1.69.77-2.29,1.48-.6.71-.97,1.58-1.08,2.5-.1.92.07,1.85.5,2.67.43.82,1.09,1.5,1.91,1.95.81.45,1.74.64,2.67.56.93-.08,1.81-.43,2.54-1.01.73-.58,1.27-1.36,1.55-2.24s.29-1.83.04-2.72c-.17-.59-.46-1.14-.85-1.63-.39-.48-.86-.88-1.41-1.18-.54-.3-1.14-.49-1.75-.55-.61-.07-1.24-.01-1.83.16Z"/>
  <path class="cls-1" d="M250.97,61.82h-34.03c-1.34,0-2.62.53-3.57,1.47-.94.94-1.48,2.22-1.48,3.55v18.12c0,1.33.53,2.61,1.48,3.55.95.94,2.23,1.47,3.57,1.47h1.06c-1.06,2.34-3.09,5.89-6.36,8.01,0,0,6.9-.48,14.09-8.01h25.23c1.34,0,2.62-.53,3.57-1.47.95-.94,1.48-2.22,1.48-3.55v-18.12c0-1.33-.53-2.6-1.47-3.55-.94-.94-2.22-1.47-3.56-1.48Z"/>
  <path class="cls-1" d="M211.65,98.37c-.08,0-.16-.02-.22-.07-.07-.05-.12-.11-.14-.19-.02-.08-.02-.17,0-.25.03-.08.08-.15.15-.19,2.91-1.88,4.83-4.92,5.97-7.31h-.47c-1.43,0-2.81-.58-3.82-1.59-1.01-1.01-1.58-2.38-1.59-3.81v-18.12c0-1.43.57-2.8,1.59-3.81,1.01-1.01,2.39-1.58,3.82-1.58h34.02c.71,0,1.42.14,2.08.41.66.27,1.26.67,1.76,1.17.5.5.9,1.1,1.18,1.75.27.66.41,1.36.41,2.07v18.11c0,1.43-.57,2.81-1.59,3.82-1.02,1.01-2.4,1.58-3.83,1.58h-25.05c-7.17,7.44-13.94,7.99-14.23,8.01h-.02ZM216.94,62.2c-1.24,0-2.42.49-3.29,1.36-.88.87-1.37,2.05-1.37,3.28v18.11c0,1.23.49,2.41,1.37,3.28.87.87,2.06,1.36,3.29,1.36h1.06c.06,0,.13.01.18.04.06.03.1.07.14.13.03.05.05.12.06.18,0,.06-.01.13-.04.19-1.17,2.74-2.94,5.19-5.16,7.18,2.41-.6,7.29-2.38,12.28-7.59.03-.04.08-.07.12-.09.05-.02.1-.03.15-.03h25.23c1.24,0,2.42-.49,3.3-1.36s1.37-2.05,1.37-3.28v-18.14c0-1.23-.49-2.41-1.37-3.28-.87-.87-2.06-1.36-3.3-1.36h-34.02Z"/>
  <path class="cls-3" d="M228.11,75.25c0-.51-.15-1.01-.44-1.44-.29-.43-.69-.76-1.16-.95-.48-.2-1-.25-1.5-.15-.5.1-.97.35-1.33.71-.36.36-.61.82-.71,1.32-.1.5-.05,1.02.15,1.49.2.47.53.88.96,1.16.43.28.93.44,1.44.44.34,0,.68-.07.99-.2s.6-.32.84-.56c.24-.24.43-.52.56-.84.13-.31.2-.65.2-.99h0Z"/>
  <path class="cls-3" d="M234.34,77.84c1.43,0,2.6-1.16,2.6-2.59s-1.16-2.59-2.6-2.59-2.6,1.16-2.6,2.59,1.16,2.59,2.6,2.59Z"/>
  <path class="cls-3" d="M245.75,75.25c0-.51-.15-1.01-.44-1.44-.29-.43-.69-.76-1.17-.95-.47-.2-1-.25-1.5-.15-.5.1-.97.35-1.33.71-.36.36-.61.82-.71,1.32-.1.5-.05,1.02.15,1.49.2.47.53.88.96,1.16.43.28.93.44,1.44.44.69,0,1.35-.27,1.84-.76s.76-1.14.76-1.83Z"/>
  <path class="cls-1" d="M16.85,173.75c7.4-.73,12.8-7.29,12.07-14.65-.73-7.37-7.31-12.75-14.71-12.03-7.4.73-12.8,7.29-12.07,14.65.73,7.37,7.31,12.75,14.71,12.03Z"/>
  <path class="cls-1" d="M15.55,174.18c-2.74,0-5.41-.81-7.69-2.32-2.28-1.51-4.05-3.67-5.1-6.19-1.05-2.52-1.32-5.29-.79-7.96.53-2.67,1.85-5.13,3.79-7.06,1.94-1.93,4.4-3.24,7.08-3.77,2.68-.53,5.47-.26,7.99.78,2.53,1.04,4.69,2.81,6.21,5.08,1.52,2.27,2.33,4.93,2.33,7.66,0,1.81-.36,3.6-1.05,5.27-.7,1.67-1.71,3.19-3,4.47-1.29,1.28-2.81,2.29-4.49,2.99-1.68.69-3.48,1.05-5.3,1.05ZM15.55,147.37c-2.59,0-5.11.76-7.26,2.2-2.15,1.43-3.83,3.47-4.82,5.85-.99,2.38-1.25,5-.74,7.53.5,2.53,1.75,4.85,3.58,6.67,1.83,1.82,4.16,3.06,6.69,3.57,2.54.5,5.17.24,7.55-.74,2.39-.99,4.43-2.66,5.87-4.8,1.44-2.14,2.2-4.66,2.2-7.24,0-3.46-1.38-6.77-3.83-9.21-2.45-2.44-5.78-3.82-9.25-3.82Z"/>
  <path class="cls-3" d="M9.48,152.05l14.51,8.35-14.51,8.35v-16.7Z"/>
  <path class="cls-1" d="M9.48,169.16c-.07,0-.13-.02-.19-.05-.06-.03-.11-.08-.14-.14-.03-.06-.05-.12-.05-.19v-16.69c0-.07.02-.13.05-.19.03-.06.08-.1.14-.14.06-.03.12-.05.19-.05s.13.02.19.05l14.51,8.34c.09.05.15.12.18.22.03.09.02.19-.03.28-.03.07-.09.12-.15.15l-14.51,8.34c-.06.04-.12.06-.19.05ZM9.86,152.74v15.38l13.37-7.69-13.37-7.69Z"/>
  <path class="cls-1" d="M47.62,261.95c-2.36.04-4.69-.58-6.71-1.79-9.63-5.75-15.3-14.29-17.7-25.09-.59-2.21-.66-4.53-.2-6.77.38-1.85,1.28-3.55,2.6-4.91s3-2.31,4.84-2.75c.68-.24,1.43-.2,2.08.1.65.3,1.16.85,1.42,1.52.9,2.49,1.66,5.02,2.28,7.59.11.56.01,1.14-.26,1.65-.28.5-.72.89-1.26,1.1-1.13.57-2.28,1.08-3.46,1.52-.15.03-.29.09-.42.18-.13.09-.23.2-.32.33-.08.13-.14.27-.17.42-.03.15-.02.3.01.46.02.12.07.24.13.34,2.18,6.1,5.76,11.6,10.44,16.08.7.68,1.2.56,1.84-.14.81-.92,1.7-1.76,2.67-2.5.49-.42,1.11-.65,1.76-.66s1.27.21,1.77.62c1.83,1.35,3.59,2.8,5.25,4.35,1.93,1.88,1.8,3.69-.14,5.56-1.71,1.73-4.03,2.74-6.47,2.81Z"/>
  <path class="cls-1" d="M47.62,262.33c-2.41.03-4.79-.61-6.85-1.84-9.37-5.59-15.38-14.12-17.88-25.33-.61-2.27-.68-4.65-.2-6.95.39-1.91,1.32-3.67,2.68-5.08,1.36-1.4,3.09-2.4,5-2.85.77-.27,1.62-.22,2.36.12.74.35,1.32.96,1.61,1.73.91,2.51,1.67,5.06,2.28,7.65.13.65.03,1.32-.28,1.9-.32.58-.83,1.03-1.44,1.27-1.11.56-2.28,1.08-3.49,1.55-.67.26-.81.56-.56,1.24,2.17,6.03,5.71,11.49,10.35,15.93.16.18.37.3.61.34.18,0,.4-.15.69-.46.82-.94,1.74-1.79,2.73-2.55.55-.47,1.26-.73,1.99-.74s1.44.24,2,.7l.69.54c1.6,1.19,3.13,2.47,4.57,3.85.44.36.81.82,1.07,1.33.26.51.42,1.07.45,1.64-.05.6-.21,1.19-.49,1.73-.28.54-.67,1.01-1.14,1.39-1.79,1.78-4.2,2.81-6.72,2.88v.03ZM31.39,220.89c-.28,0-.56.04-.84.11-1.78.43-3.4,1.35-4.67,2.65-1.27,1.31-2.14,2.95-2.51,4.73-.45,2.19-.38,4.44.2,6.6,2.45,11.01,8.38,19.37,17.52,24.85,1.96,1.18,4.21,1.78,6.5,1.74,2.34-.06,4.56-1.01,6.21-2.66.39-.32.72-.71.96-1.16.24-.45.39-.93.43-1.44-.03-.47-.16-.93-.38-1.34-.22-.42-.52-.79-.88-1.08-1.43-1.35-2.95-2.62-4.53-3.79l-.69-.54c-.43-.35-.97-.54-1.53-.53-.56,0-1.09.21-1.51.57-.95.73-1.83,1.56-2.62,2.46-.14.19-.32.36-.53.48-.21.12-.44.2-.68.23-.22,0-.45-.05-.65-.15-.2-.1-.38-.24-.52-.41-4.72-4.53-8.32-10.08-10.53-16.23-.1-.18-.16-.37-.18-.57-.02-.2,0-.4.05-.59.06-.19.15-.37.27-.53.13-.16.28-.29.46-.38.12-.06.25-.11.39-.14,1.18-.46,2.34-.97,3.43-1.52.46-.17.85-.49,1.09-.91s.33-.92.24-1.4c-.62-2.57-1.39-5.1-2.28-7.59-.17-.44-.47-.83-.86-1.09-.39-.27-.86-.4-1.34-.39Z"/>
  <path class="cls-1" d="M61.13,239.76c-.16,1.21-.25,2.43-.5,3.63-.02.23-.09.46-.2.66-.11.21-.26.39-.44.53-.18.15-.39.26-.62.32-.22.07-.46.09-.69.06-.11-.01-.22-.04-.33-.07-1-.23-1.52-1.17-1.29-2.4.71-3.77-.05-7.67-2.13-10.9-2.07-3.23-5.3-5.56-9.04-6.51-.34-.07-.68-.17-1.01-.3-.4-.15-.73-.44-.93-.82-.2-.38-.25-.81-.15-1.23.02-.21.09-.42.19-.61.1-.19.24-.36.41-.49.17-.13.36-.24.57-.3.21-.06.43-.08.64-.06h.18c1.68.36,3.31.9,4.87,1.61,3.13,1.58,5.77,3.98,7.61,6.96,1.85,2.97,2.83,6.4,2.84,9.89Z"/>
  <path class="cls-1" d="M58.88,245.37c-.22,0-.43-.03-.64-.08-1.2-.29-1.84-1.43-1.58-2.84.69-3.68-.05-7.48-2.07-10.63-2.02-3.15-5.17-5.42-8.81-6.35l-.27-.06c-.28-.05-.56-.14-.81-.26-.48-.19-.87-.54-1.1-.99-.24-.45-.3-.98-.18-1.47.05-.3.16-.6.33-.86.17-.26.38-.49.64-.66.22-.14.47-.24.74-.28.26-.04.53-.02.79.05,1.7.37,3.36.92,4.94,1.64,3.19,1.59,5.88,4.04,7.76,7.07,1.88,3.02,2.89,6.51,2.9,10.07v.05c-.05.37-.09.76-.13,1.11-.09.83-.19,1.7-.37,2.55-.04.32-.15.62-.31.89-.16.27-.38.51-.64.7-.35.23-.77.36-1.19.35ZM45.39,221.68c-.21,0-.42.05-.59.17-.17.12-.31.26-.42.44-.11.17-.18.36-.21.56-.08.33-.04.68.12.99.16.3.43.54.75.65.21.09.42.15.65.19l.29.07c3.82.98,7.13,3.36,9.25,6.68,2.12,3.31,2.9,7.31,2.18,11.17-.19,1.02.2,1.77,1,1.96.2.06.41.08.61.06.21-.02.4-.09.58-.19.18-.13.33-.3.44-.49.11-.19.19-.4.22-.61.17-.81.26-1.66.36-2.49.04-.36.08-.76.13-1.09-.02-3.42-.99-6.76-2.8-9.67-1.81-2.9-4.4-5.25-7.47-6.77-1.53-.7-3.14-1.23-4.78-1.59-.09-.01-.19-.01-.28,0v-.04Z"/>
  <path class="cls-1" d="M54.82,240.7c-.06.46-.12,1.33-.3,2.18-.03.24-.11.47-.22.68-.12.21-.28.39-.47.54-.19.15-.41.26-.64.32-.23.06-.48.08-.71.05h-.07c-.25-.05-.49-.14-.7-.29-.21-.14-.4-.32-.54-.53-.14-.21-.24-.45-.29-.7-.05-.25-.05-.51,0-.76.15-1.1.18-2.22.07-3.33-.72-4.19-3.21-6.87-7.33-8.04-1.34-.38-2.03-1.22-1.78-2.28.24-1.05,1.26-1.63,2.66-1.33,5.87,1.29,10.33,6.93,10.32,13.49Z"/>
  <path class="cls-1" d="M52.73,244.86h-.39c-.3-.05-.58-.16-.83-.32-.25-.16-.48-.37-.65-.61s-.3-.52-.36-.81c-.07-.29-.08-.59-.03-.89,0-.24.04-.48.06-.72.11-.84.11-1.68,0-2.52-.69-4.01-3.05-6.62-7.05-7.74-1.52-.43-2.34-1.48-2.05-2.72.29-1.24,1.52-1.97,3.1-1.62,6.18,1.34,10.66,7.16,10.66,13.85v.05c0,.15-.01.29-.05.43-.05.48-.12,1.13-.25,1.78-.09.51-.35.97-.74,1.31-.39.34-.89.53-1.41.54ZM43.72,227.52c-.35-.03-.7.06-.98.27s-.48.51-.55.85c-.27,1.19.97,1.68,1.52,1.83,4.3,1.21,6.85,4.02,7.62,8.34.11.9.11,1.81,0,2.72,0,.24-.05.47-.06.71-.05.2-.06.41-.02.61.03.2.11.4.22.57.11.17.26.32.43.44.17.11.36.19.57.23.19.03.38.02.57-.02.19-.05.36-.13.52-.24.15-.11.29-.26.39-.42.1-.16.17-.35.19-.54v-.06c.12-.61.19-1.24.24-1.71,0-.14,0-.29.05-.42,0-6.32-4.22-11.82-10.04-13.09-.22-.05-.44-.07-.66-.07Z"/>
  <path class="cls-1" d="M44.75,241.33c.13-1.04-.13-2.08-.73-2.94-.6-.86-1.49-1.47-2.52-1.71-1.29-.39-1.9-1.31-1.59-2.4s1.31-1.52,2.64-1.18c1.92.51,3.57,1.71,4.65,3.37,1.08,1.66,1.5,3.65,1.19,5.6-.24,1.33-.94,1.95-2.09,1.83-1.15-.12-1.68-.9-1.59-2.28,0-.1.02-.21.03-.3Z"/>
  <path class="cls-1" d="M46.58,244.3h-.3c-1.33-.14-2.03-1.11-1.93-2.67v-.32c.12-.95-.12-1.91-.67-2.7-.55-.79-1.37-1.34-2.31-1.56-1.52-.46-2.21-1.56-1.85-2.87.36-1.3,1.58-1.83,3.11-1.44,2.01.54,3.74,1.8,4.87,3.54,1.13,1.74,1.58,3.83,1.26,5.87-.23,1.39-1.01,2.15-2.18,2.15ZM41.72,233.37c-.33-.03-.65.05-.92.24-.27.19-.46.47-.54.78-.25.9.24,1.6,1.34,1.94,1.1.27,2.07.93,2.71,1.85.65.93.93,2.06.8,3.18v.3c-.11,1.73.91,1.84,1.25,1.87.59.06,1.42,0,1.68-1.52.3-1.86-.1-3.76-1.13-5.34-1.03-1.58-2.61-2.72-4.44-3.2-.25-.07-.5-.11-.75-.11Z"/>
  <path class="cls-3" d="M34.07,232.98c-.08,0-.15-.02-.22-.07-.06-.04-.11-.11-.14-.18l-.44-1.24c-.04-.09-.04-.2,0-.29.04-.09.11-.17.2-.21.05-.02.09-.03.14-.04.05,0,.1,0,.15.02.05.02.09.04.13.08.04.03.07.08.08.12v.06l.44,1.23c.03.1.03.2-.02.29-.04.09-.12.16-.22.19-.03.01-.06.02-.1.02Z"/>
  <path class="cls-3" d="M33.15,230.38c-.08,0-.16-.02-.22-.07-.06-.04-.11-.11-.14-.18l-3.05-8.56c-.02-.05-.02-.1-.02-.15,0-.05.02-.1.04-.15.02-.05.06-.09.1-.12.04-.03.09-.06.14-.07.05-.02.1-.03.15-.02.05,0,.1.02.15.04.05.02.09.06.12.1.03.04.06.09.07.14l3.05,8.56c.03.1.03.2-.01.29-.04.09-.12.16-.22.2-.06.02-.12.02-.18.01Z"/>
  <path class="cls-3" d="M54.67,258.72c-.09,0-.18-.03-.25-.09l-7.39-6.43s-.07-.07-.09-.12c-.02-.04-.04-.09-.04-.14,0-.05,0-.1.02-.15.02-.05.04-.09.07-.13.03-.04.07-.07.12-.09.05-.02.09-.04.14-.04.05,0,.1,0,.15.02.05.02.09.04.13.07l7.39,6.44c.07.07.1.16.1.26s-.04.19-.1.26c-.03.04-.07.07-.11.1-.04.02-.09.04-.14.04Z"/>
  <path class="cls-3" d="M46.48,251.59c-.09,0-.18-.03-.25-.09l-1.22-1.05s-.06-.08-.08-.12c-.02-.05-.03-.1-.03-.15s0-.1.03-.15c.02-.05.05-.09.08-.12.06-.08.15-.12.25-.13.1,0,.2.02.27.09l1.22,1.05c.07.07.11.17.11.27s-.04.2-.11.27c-.03.04-.07.08-.12.1-.05.02-.1.04-.15.04Z"/>
  <path class="cls-1" d="M103.24,278.16h1.52c.1,0,.2-.04.27-.11.07-.07.11-.17.11-.27s-.04-.2-.11-.27c-.07-.07-.17-.11-.27-.11h-1.52c-.1,0-.2.04-.27.11-.07.07-.11.17-.11.27s.04.2.11.27c.07.07.17.11.27.11Z"/>
  <path class="cls-1" d="M106.77,278.05c.07.07.17.11.27.11h1.55s.1-.01.14-.03c.04-.02.08-.05.12-.09.03-.03.06-.08.08-.12.02-.05.02-.1.02-.14,0-.1-.05-.19-.12-.26s-.17-.11-.27-.11h-1.52c-.1,0-.2.04-.27.11-.07.07-.11.17-.11.27s.04.2.11.27Z"/>
  <path class="cls-1" d="M99.43,278.12l1.52.04v-.05c.09,0,.18-.03.25-.09.07-.06.11-.14.13-.23,0-.05,0-.1-.03-.14-.02-.05-.05-.09-.08-.12-.04-.04-.08-.07-.12-.09-.05-.02-.1-.03-.15-.03l-1.52-.04c-.1,0-.2.04-.27.11-.07.07-.11.17-.11.27s.04.2.11.27c.07.07.17.11.27.11Z"/>
  <path class="cls-1" d="M110.59,277.98c.07.07.17.11.26.11h.02l1.52-.06c.05,0,.1-.01.14-.04.05-.02.09-.05.12-.09.03-.04.06-.08.08-.13.02-.05.02-.1.02-.15,0-.1-.05-.19-.13-.26-.07-.07-.17-.1-.27-.1l-1.52.06c-.1,0-.19.05-.26.12-.07.07-.1.17-.1.27,0,.1.04.19.12.26Z"/>
  <path class="cls-1" d="M95.62,277.95l1.52.08v-.05c.1,0,.2-.03.27-.09s.12-.15.13-.24c0-.05,0-.1-.02-.14s-.04-.09-.08-.12c-.03-.04-.07-.07-.12-.09-.04-.02-.09-.03-.14-.03l-1.52-.08c-.1,0-.2.03-.28.1-.08.07-.12.16-.13.26,0,.1.03.2.1.28.07.07.16.12.26.13Z"/>
  <path class="cls-1" d="M114.39,277.8c.07.07.17.11.27.11h.06c.51-.02,1.02-.05,1.52-.09.05,0,.1-.02.14-.04.04-.02.08-.05.11-.09.03-.04.06-.08.07-.13s.02-.1.02-.15c0-.1-.06-.19-.13-.26-.08-.07-.17-.1-.27-.09l-1.52.08c-.1,0-.2.04-.27.11-.07.07-.11.17-.11.27s.04.2.11.27Z"/>
  <path class="cls-1" d="M91.81,277.69l1.52.11.02-.04c.09,0,.19-.02.26-.08.07-.06.12-.14.14-.23,0-.05,0-.1-.02-.15-.02-.05-.04-.09-.07-.13s-.07-.07-.12-.09c-.04-.02-.09-.04-.14-.04l-1.52-.11c-.1,0-.2.02-.28.09-.08.07-.12.16-.13.26,0,.1.02.2.09.28.07.08.16.12.26.13Z"/>
  <path class="cls-1" d="M118.2,277.56c.07.07.17.11.27.11h.08l1.52-.11s.1-.02.14-.04c.04-.02.08-.05.11-.09.03-.04.06-.08.07-.13.01-.05.02-.1.01-.14,0-.05-.02-.1-.04-.14-.02-.04-.06-.08-.09-.12-.04-.03-.08-.06-.13-.07-.05-.02-.1-.02-.15-.02l-1.52.11c-.1,0-.2.04-.27.11-.07.07-.11.17-.11.27s.04.2.11.27Z"/>
  <path class="cls-1" d="M88.05,277.32c.5.06,1.01.11,1.52.16h.05s.1,0,.15-.02c.05-.02.09-.04.13-.08.04-.03.07-.07.09-.12.02-.04.03-.09.03-.14,0-.05,0-.1-.02-.15-.02-.05-.04-.09-.08-.13-.03-.04-.07-.07-.12-.09-.04-.02-.09-.03-.14-.04l-1.52-.16c-.05,0-.1,0-.15.01s-.09.04-.13.07c-.04.03-.07.07-.1.11-.02.04-.04.09-.04.14,0,.05,0,.1.01.15.01.05.04.09.07.13.03.04.07.07.11.1.04.02.09.04.14.04Z"/>
  <path class="cls-1" d="M121.99,277.27c.07.06.16.1.26.1h.05l1.52-.14s.1-.02.14-.04c.04-.02.08-.06.11-.09.03-.04.06-.08.07-.13s.02-.1.01-.14c0-.05-.02-.1-.04-.14s-.06-.08-.1-.11c-.04-.03-.08-.06-.13-.07-.05-.01-.1-.02-.15-.01l-1.52.14s-.1.02-.14.04c-.04.02-.08.06-.11.09-.03.04-.06.08-.07.13-.01.05-.02.1-.01.15,0,.1.05.18.12.25Z"/>
  <path class="cls-1" d="M85.74,277.05h.05l-.02-.04c.1.01.19-.02.26-.08.07-.06.12-.15.13-.24.01-.1-.02-.19-.08-.26s-.15-.12-.24-.13l-1.52-.21c-.1-.01-.2.01-.28.07-.08.06-.14.15-.15.25,0,.1.02.2.08.28.06.08.15.13.25.15l1.52.2Z"/>
  <path class="cls-1" d="M125.77,276.89c.07.06.16.1.25.1h.05l1.52-.17c.05,0,.1-.02.14-.05.04-.02.08-.06.11-.1.03-.04.05-.08.07-.13.01-.05.02-.1.01-.15,0-.05-.02-.1-.05-.14-.02-.04-.06-.08-.1-.11-.04-.03-.08-.05-.13-.07-.05-.01-.1-.02-.15-.01l-1.52.17c-.1.01-.19.06-.25.14-.06.08-.09.18-.08.28,0,.09.05.18.12.24Z"/>
  <path class="cls-3" d="M226.42,8.69l-47.41,5.36,11.98,8.89,35.43-14.25Z"/>
  <path class="cls-1" d="M190.99,23.32c-.08,0-.16-.02-.23-.07l-11.97-8.9c-.06-.04-.11-.11-.13-.18s-.03-.15,0-.22c.02-.07.06-.14.12-.19.06-.05.13-.08.21-.08l47.4-5.31c.09,0,.18.01.26.07.07.05.13.13.15.22.02.09.02.18-.03.26-.04.08-.11.14-.2.18l-35.43,14.26c-.05,0-.1-.02-.15-.04ZM180.01,14.32l11.03,8.19,32.65-13.14-43.68,4.95Z"/>
  <path class="cls-3" d="M190.99,22.94l-.09,9.64,35.52-23.89-35.43,14.25Z"/>
  <path class="cls-1" d="M190.89,32.96c-.06,0-.12-.02-.18-.05-.06-.03-.11-.08-.15-.14-.04-.06-.06-.13-.06-.19l.09-9.64c0-.07.02-.15.07-.21.04-.06.1-.11.17-.14l35.43-14.25c.09-.04.19-.04.27,0,.09.03.16.1.21.18.04.08.06.18.03.27-.02.09-.08.17-.16.22l-35.52,23.89c-.06.04-.14.06-.21.06ZM191.37,23.2l-.08,8.66,31.93-21.47-31.85,12.81Z"/>
  <path class="cls-3" d="M190.9,32.58l5.56-7.81,29.97-16.08-35.52,23.89Z"/>
  <path class="cls-1" d="M190.9,32.96c-.05,0-.1,0-.15-.03-.04-.02-.09-.05-.12-.08-.06-.06-.1-.15-.11-.24,0-.09.02-.18.07-.25l5.55-7.81s.08-.09.13-.11l29.97-16.09c.09-.05.19-.06.28-.03.1.03.18.09.23.17.05.08.06.18.04.28-.02.1-.08.18-.16.24l-35.52,23.89c-.06.05-.14.07-.21.08ZM196.71,25.04l-4.29,6.07,27.47-18.48-23.17,12.41Z"/>
  <path class="cls-3" d="M196.45,24.77l15.61,11.62,14.36-27.7-29.97,16.08Z"/>
  <path class="cls-1" d="M212.06,36.77c-.08,0-.16-.03-.23-.08l-15.61-11.62c-.05-.04-.09-.09-.12-.15-.03-.06-.04-.12-.03-.19,0-.06.02-.12.06-.18.03-.05.08-.1.14-.13l29.97-16.09c.07-.04.15-.05.23-.04.08.01.16.05.21.1.06.06.1.13.11.21.01.08,0,.16-.04.24l-14.35,27.71c-.03.05-.06.09-.11.13-.04.03-.1.06-.15.07h-.08ZM197.14,24.82l14.78,11,13.58-26.22-28.36,15.22Z"/>
  <path class="cls-1" d="M131.01,120.36c-.33,0-.66-.11-.93-.31-.27-.2-.46-.49-.54-.81-.17-.65-17.7-65.45-20.79-85.97-2.02-13.41,1.99-21.35,5.7-25.64,2.11-2.44,4.74-4.39,7.69-5.71C125.09.61,128.3-.05,131.54,0c13.53,0,20.46,12.23,22.22,18.69,1.52,5.63,4.13,15.42,4.16,15.52.08.38.01.78-.19,1.12-.21.33-.54.58-.92.67-.38.1-.79.05-1.13-.15-.34-.19-.6-.51-.71-.89,0-.1-2.61-9.86-4.15-15.5-1.54-5.64-7.59-16.44-19.28-16.44-2.79-.05-5.57.52-8.12,1.66-2.55,1.14-4.82,2.82-6.65,4.92-3.3,3.79-6.85,10.94-5,23.21,3.05,20.35,20.56,84.96,20.72,85.63.1.39.05.8-.15,1.15-.2.35-.53.6-.92.71-.13.04-.27.06-.4.05Z"/>
  <path class="cls-1" d="M45.18,193.09c-6.37,0-11.54-2.19-14.16-8.55-5.25-12.74,11.08-21.08,29.98-30.75,6.09-3.11,12.38-6.33,18.38-9.86,22.76-13.51,21.12-22.51,21.09-22.61-.08-.38-.02-.78.19-1.12.21-.33.54-.58.92-.67.38-.1.79-.05,1.13.15.34.19.6.51.71.89.3,1.12,2.18,11.38-22.48,25.98-6.09,3.61-12.43,6.83-18.55,9.99-17.57,8.98-32.75,16.74-28.56,26.9,4.66,11.33,20.6,5.95,36.02.76,9.55-3.22,18.57-6.26,24.19-4.73,5.01,1.37,6.04,4.82,6.59,6.68.08.3.18.59.3.87.26.3.4.69.38,1.08-.02.4-.2.77-.49,1.04-.29.27-.68.41-1.08.4-.4-.01-.78-.18-1.05-.47-.48-.6-.82-1.3-.97-2.06-.49-1.65-1.1-3.69-4.47-4.61-4.73-1.29-13.32,1.62-22.42,4.68-8.7,2.88-18.03,6.02-25.66,6.02Z"/>
  <path class="cls-1" d="M205.21,163.26c-.27,0-.53-.06-.76-.19-.18-.1-.33-.23-.45-.38-.12-.16-.22-.33-.27-.53-.05-.19-.07-.39-.05-.59.02-.2.08-.39.18-.56,7.95-14.25,22.28-18.46,34.94-22.16,4.42-1.21,8.76-2.65,13.01-4.34,4.85-2.04,7.61-7.05,6.3-11.38-2.25-7.4-15.62-13.25-46.41-7.43-13.8,2.6-24.37,1.52-31.43-3.33-6.09-4.15-7.15-9.54-7.2-9.77-.07-.39.03-.79.25-1.12.23-.32.58-.55.97-.62.39-.07.8,0,1.13.23.33.22.56.56.65.95.14.71,3.7,16.6,35.03,10.68,41.24-7.78,48.62,5.31,49.89,9.54,1.79,5.9-1.66,12.38-8.03,15.06-4.36,1.74-8.81,3.23-13.34,4.45-12.69,3.72-25.79,7.59-33.13,20.73-.13.23-.31.42-.54.55-.22.14-.48.21-.74.22Z"/>
  <path class="cls-1" d="M157.99,43.83c-.67,0-1.31-.22-1.84-.62-.53-.4-.91-.97-1.09-1.61l-3.11-11.38c-.11-.38-.13-.79-.08-1.18.05-.4.18-.78.38-1.12.2-.35.46-.65.78-.89.32-.24.68-.42,1.06-.53s.79-.13,1.19-.08c.4.05.78.18,1.13.38.35.2.65.46.9.78.24.32.42.68.53,1.06l3.11,11.38c.11.38.13.79.08,1.18-.05.4-.18.78-.38,1.12-.2.35-.46.65-.78.89-.32.24-.68.42-1.07.53-.26.07-.53.11-.81.11Z"/>
  <path class="cls-3" d="M201.11,161.23s3.63-6.21,7.26-3.62c3.63,2.59-4.15,7.75-1.04,8.78,3.12,1.03,9.34-1.52,11.42,5.17,2.09,6.69-4.16,9.82-10.38,8.27-6.22-1.55-11.42-7.75-7.27-18.61Z"/>
  <path class="cls-1" d="M211.49,180.6c-1.08,0-2.16-.14-3.21-.4-1.63-.37-3.15-1.08-4.48-2.09-1.33-1.01-2.42-2.29-3.2-3.75-1.87-3.55-1.8-8.14.15-13.27v-.05c.09-.16,2.23-3.79,4.98-4.36.49-.1,1-.1,1.49,0,.49.11.95.32,1.35.62,2.29,1.62.66,4.1-.5,5.92-.62.98-1.27,1.99-1.1,2.47,0,.05.08.22.46.35,1,.24,2.02.33,3.05.28,3.12,0,7.01,0,8.58,5.14,1.07,3.45-.05,5.59-1.19,6.78-.85.8-1.85,1.42-2.95,1.82-1.09.41-2.26.59-3.43.54ZM201.45,161.39c-1.87,4.91-1.93,9.27-.18,12.61.74,1.37,1.76,2.56,3.01,3.5,1.24.94,2.67,1.61,4.19,1.95,3.56.89,7.05.2,8.91-1.75,1.42-1.52,1.77-3.58,1.01-6.07-1.42-4.55-4.84-4.55-7.86-4.6-1.11.05-2.23-.05-3.31-.32-.21-.05-.41-.15-.57-.3-.16-.14-.29-.32-.37-.52-.3-.83.39-1.89,1.18-3.12,1.39-2.17,2.28-3.79.7-4.89-.31-.24-.67-.41-1.06-.5-.39-.09-.79-.09-1.17,0-2.29.52-4.28,3.69-4.47,4.01Z"/>
  <path class="cls-1" d="M216.11,179.48c-.07,0-.15-.02-.21-.06-.08-.06-.14-.14-.16-.24-.02-.1,0-.2.05-.28,4.36-6.63-2.68-11.57-2.99-11.77-.08-.06-.14-.15-.16-.24-.02-.1,0-.2.06-.29.03-.04.06-.08.11-.1.04-.03.09-.05.14-.06.05,0,.1,0,.15,0,.05.01.1.03.14.06.08.05,7.97,5.57,3.18,12.81-.03.05-.08.09-.13.12-.05.03-.11.05-.17.05Z"/>
  <path class="cls-3" d="M203.84,244.69l-75.87,11.8c-5.06.76-10.21-3.43-11.51-9.42l-39.4-182.1c-2.28-8.59,5.48-13.16,10.53-13.95l72.15-10.12c5.06-.76,10.2,3.43,11.51,9.42l44.47,181.8c1.29,6-1.82,11.08-11.87,12.57Z"/>
  <path class="cls-1" d="M126.75,256.96c-4.81,0-9.43-4.14-10.66-9.82l-39.4-182.11c-.43-1.42-.54-2.92-.33-4.39.21-1.47.74-2.88,1.55-4.12,2.38-3.61,6.67-5.43,9.63-5.89l72.15-10.13c5.24-.81,10.59,3.55,11.93,9.72l44.46,181.8c.34,1.28.41,2.62.2,3.92-.21,1.31-.7,2.56-1.43,3.66-1.95,2.81-5.63,4.63-10.95,5.42l-75.86,11.79c-.42.07-.85.12-1.28.12ZM160.96,41.18c-.39,0-.78.03-1.17.09l-72.15,10.13c-2.79.43-6.85,2.15-9.1,5.55-.75,1.16-1.25,2.47-1.44,3.84s-.08,2.76.32,4.08l39.41,182.11c1.26,5.8,6.22,9.86,11.07,9.1l75.87-11.83c5.11-.76,8.62-2.48,10.43-5.11.67-1.02,1.12-2.18,1.32-3.38.19-1.21.13-2.44-.19-3.62l-44.47-181.73c-1.15-5.33-5.45-9.23-9.91-9.23Z"/>
  <path class="cls-1" d="M209.03,242.63l-75.86,11.8c-5.06.76-10.2-3.44-11.5-9.43L82.25,62.89c-1.29-5.99,1.75-11.48,6.81-12.27l75.87-11.8c5.06-.76,10.21,3.44,11.51,9.43l39.4,182.1c1.3,5.99-1.75,11.48-6.81,12.27Z"/>
  <path class="cls-1" d="M131.95,254.88c-4.81,0-9.44-4.14-10.66-9.82L81.88,62.96c-.37-1.54-.42-3.15-.15-4.71.27-1.56.85-3.06,1.71-4.39.63-.94,1.45-1.75,2.41-2.36.96-.61,2.03-1.03,3.15-1.21l75.87-11.8c5.25-.82,10.6,3.54,11.94,9.72l39.37,182.05c.38,1.55.44,3.16.18,4.73-.26,1.57-.84,3.08-1.7,4.42-.63.94-1.45,1.75-2.41,2.36-.96.62-2.03,1.03-3.16,1.21l-75.87,11.8c-.42.06-.85.1-1.27.09ZM166.15,39.1c-.39,0-.78.03-1.17.09l-75.87,11.8c-1.02.17-2,.54-2.87,1.1-.87.56-1.61,1.29-2.19,2.15-.81,1.26-1.35,2.66-1.6,4.14-.25,1.47-.19,2.98.16,4.43l39.4,182.1c1.26,5.79,6.22,9.86,11.08,9.1l75.87-11.8c1.02-.17,2-.54,2.87-1.1.87-.56,1.61-1.29,2.18-2.15.81-1.26,1.36-2.66,1.61-4.13.25-1.47.19-2.98-.16-4.43l-39.41-182.05c-1.15-5.31-5.45-9.22-9.9-9.22v-.02Z"/>
  <path class="cls-2" d="M209.4,220.99l-85.65,13.31-35.86-165.74,85.64-13.32,35.87,165.74Z"/>
  <path class="cls-1" d="M123.75,234.68c-.09,0-.17-.03-.24-.08-.07-.05-.11-.13-.13-.21l-35.87-165.74c-.02-.1,0-.21.05-.3.03-.04.07-.08.11-.11.04-.03.09-.05.15-.05l85.64-13.31c.1-.01.19,0,.27.06.08.05.14.14.16.23l35.87,165.74c.01.05.01.1,0,.15-.01.05-.03.1-.06.14-.06.08-.15.14-.25.16l-85.65,13.32h-.06ZM88.35,68.88l35.69,165,84.89-13.2-35.69-165-84.89,13.2Z"/>
  <path class="cls-1" d="M136.58,106.62c.88,4.18.33,7.8-1.19,8.08-1.52.28-3.46-2.88-4.33-7.06-.87-4.18-.33-7.8,1.19-8.08,1.52-.28,3.46,2.84,4.33,7.06Z"/>
  <path class="cls-1" d="M155.39,103.12c.87,4.18.34,7.8-1.2,8.09-1.53.29-3.46-2.88-4.33-7.06-.87-4.18-.34-7.8,1.19-8.08,1.52-.28,3.45,2.87,4.34,7.05Z"/>
  <path class="cls-1" d="M145.77,140.19c-9,0-17.87-5.5-23.39-14.81-.15-.34-.18-.73-.06-1.09.12-.36.36-.66.69-.85.33-.19.71-.25,1.08-.17.37.08.7.29.92.59,5.68,9.57,15.16,14.68,24.19,13.01,8.78-1.62,15.48-9.48,17.06-20.03.03-.2.1-.39.2-.56.1-.17.24-.32.4-.44.16-.12.35-.21.54-.26.2-.05.4-.06.6-.03s.39.1.57.2c.17.1.33.24.45.4.12.16.21.34.26.54.05.2.06.4.03.6-1.77,11.85-9.43,20.7-19.52,22.57-1.32.23-2.66.34-4,.33Z"/>
  <path class="cls-3" d="M108.91,129.91l-3.9,7.94.68.33,3.9-7.95-.68-.33Z"/>
  <path class="cls-3" d="M141.63,63.33l-29.2,59.48.68.33,29.2-59.48-.68-.33Z"/>
  <path class="cls-3" d="M132.51,63.87l-12.22,23.31.67.35,12.22-23.31-.67-.35Z"/>
  <path class="cls-3" d="M189.84,195.86l-13.55,26.71.68.34,13.55-26.71-.68-.34Z"/>
  <path class="cls-3" d="M196.12,183.52l-4.21,8.3.68.34,4.21-8.3-.68-.34Z"/>
  <path class="cls-3" d="M140.9,52.49l-23.66,3.65c-.5.03-1-.13-1.39-.45-.39-.32-.64-.77-.71-1.27-.08-.22-.11-.45-.09-.68s.07-.45.17-.66c.1-.21.24-.39.42-.55.17-.15.37-.27.59-.35l.15-.05,23.65-3.59c.5-.03,1,.13,1.39.45.39.32.64.77.71,1.27.14.44.09.92-.12,1.33-.22.41-.59.72-1.03.86l-.07.02Z"/>
  <path class="cls-1" d="M117.02,56.56c-.44-.05-.85-.21-1.21-.46-.36-.25-.65-.59-.84-.99-.19-.39-.28-.83-.26-1.27.02-.44.16-.86.39-1.23.14-.2.32-.38.53-.51.21-.13.44-.22.69-.25l23.71-3.71c.6-.04,1.19.15,1.66.52.47.37.78.91.87,1.5.08.32.09.66.03.99-.06.33-.18.64-.36.92-.14.2-.32.38-.53.51-.21.13-.45.22-.69.25l-23.67,3.68c-.1.02-.21.04-.31.05ZM140.28,48.89h-.17l-23.69,3.69c-.29.05-.55.22-.72.46-.12.2-.21.41-.24.64-.04.23-.03.46.03.69.05.4.25.77.56,1.03.31.26.7.4,1.11.4l23.67-3.68c.14-.03.28-.08.4-.16.12-.08.23-.19.3-.31.25-.42.33-.92.21-1.39-.12-.47-.42-.88-.84-1.13-.2-.12-.42-.2-.65-.24h.02Z"/>
  <path class="cls-3" d="M171.25,234.62c-.43-1.99-2.15-3.41-3.81-3.14-1.66.27-2.7,2.09-2.28,4.09.41,2,2.15,3.41,3.81,3.14,1.66-.26,2.71-2.09,2.28-4.09Z"/>
  <path class="cls-1" d="M168.57,239.11c-1.72,0-3.37-1.46-3.81-3.47-.13-.55-.15-1.12-.05-1.68s.31-1.09.62-1.57c.23-.35.53-.64.88-.86.35-.22.74-.37,1.15-.43,1.88-.3,3.81,1.24,4.26,3.44.13.55.15,1.12.06,1.68-.1.56-.3,1.09-.61,1.56-.23.34-.53.64-.88.86-.35.22-.74.38-1.15.44-.15.02-.3.03-.46.03ZM167.81,231.82h-.37c-.31.05-.6.16-.86.33-.26.17-.49.39-.66.65-.25.39-.42.83-.49,1.29-.07.46-.06.93.05,1.38.39,1.8,1.92,3.08,3.4,2.85.31-.05.6-.16.86-.33.26-.17.49-.39.66-.65.25-.39.42-.82.5-1.28s.06-.92-.06-1.37c-.12-.74-.49-1.43-1.04-1.94-.55-.52-1.26-.84-2.01-.91h0Z"/>
  <path class="cls-3" d="M161.06,174.26l-34.97,6c-2.29.4-3.81,2.28-3.44,4.19l4.51,21.63.12.56,2.35,11.3,6.59-9.24,30.93-5.31c2.29-.4,3.81-2.28,3.43-4.18l-4.67-22.2c-.37-1.91-2.56-3.15-4.86-2.75Z"/>
  <path class="cls-1" d="M129.43,218.88l-7.16-34.35c-.09-.46-.09-.94,0-1.41.1-.46.29-.9.57-1.29.37-.52.85-.96,1.39-1.29.54-.33,1.15-.56,1.78-.65l34.98-6c2.49-.43,4.88.94,5.33,3.03l4.62,22.2c.09.46.09.94,0,1.4-.1.46-.29.9-.56,1.29-.38.52-.85.96-1.4,1.29-.55.33-1.15.56-1.79.66l-30.77,5.27-7,9.85ZM161.92,174.58c-.26,0-.51.02-.76.07l-34.98,6c-.53.08-1.04.26-1.5.54-.46.28-.86.65-1.18,1.08-.21.3-.36.64-.44,1-.08.36-.08.73,0,1.1l6.81,32.62,6.15-8.65,31.09-5.31c1.06-.17,2-.76,2.63-1.62.21-.3.37-.65.44-1.01.08-.36.08-.74.01-1.1l-4.63-22.19c-.29-1.49-1.85-2.53-3.63-2.53Z"/>
  <path class="cls-2" d="M158.55,187.26c.02-.3,0-.6-.07-.9v-.17c-.59-2.87-3.87-4.7-7.3-4.12-2.7.46-4.7,2.28-5.14,4.45-.76-.98-1.77-1.73-2.94-2.16-1.16-.43-2.43-.53-3.64-.28-3.43.59-5.73,3.39-5.14,6.25,0,0-.09,2.45,5.74,6.01,4.79,2.93,8.83,5.31,8.91,5.21.1.05,3.01-3.49,6.43-7.84,1.33-1.56,2.35-3.36,2.98-5.31.08-.26.14-.53.17-.8,0-.12,0-.23,0-.35Z"/>
  <path class="cls-1" d="M148.91,201.93c-.05,0-.1-.02-.15-.05-.71-.24-2.67-1.37-8.94-5.2-5.54-3.39-5.9-5.88-5.93-6.29-.13-.66-.12-1.35.02-2.01.14-.66.42-1.29.81-1.84.55-.75,1.24-1.39,2.03-1.87.79-.48,1.68-.81,2.6-.95,1.16-.22,2.36-.15,3.49.2,1.13.35,2.16.97,2.99,1.81.45-1.06,1.17-1.99,2.08-2.69.92-.7,2-1.16,3.15-1.32,3.63-.62,7.1,1.36,7.75,4.41v.12c.08.34.1.69.08,1.04,0,.12,0,.24-.04.36-.03.29-.09.59-.18.87-.65,1.99-1.69,3.83-3.05,5.43-4.44,5.66-5.89,7.38-6.46,7.84-.03.04-.06.07-.1.08-.04.02-.08.03-.13.02l-.05.03ZM140.72,184.33c-.41,0-.81.03-1.21.11-.82.12-1.61.4-2.32.83-.71.43-1.32,1-1.81,1.67-.33.47-.57,1.01-.69,1.57-.12.57-.13,1.15-.02,1.72v.09s.07,2.31,5.56,5.67c4.4,2.68,7.81,4.68,8.63,5.1.62-.67,3.09-3.67,6.2-7.64,1.3-1.52,2.29-3.28,2.92-5.18.07-.25.12-.5.15-.76v-.31c.02-.25,0-.51-.05-.76,0-.04,0-.08,0-.12-.56-2.72-3.64-4.44-6.85-3.88-2.47.42-4.41,2.09-4.83,4.15,0,.05-.03.1-.06.14-.03.04-.06.08-.11.1-.04.03-.09.04-.14.05-.05,0-.1,0-.15,0-.05,0-.09-.02-.13-.05-.04-.03-.07-.06-.1-.1-.58-.77-1.34-1.39-2.2-1.81-.87-.42-1.83-.62-2.79-.6Z"/>
  <path class="cls-3" d="M104.61,188.67s-2.19-6.83-6.3-5.1c-4.1,1.72,2.35,8.47-.91,8.8-3.26.33-8.78-3.54-12.28,2.57-3.5,6.11,1.91,10.48,8.32,10.32,6.41-.16,12.84-5.1,11.16-16.59Z"/>
  <path class="cls-1" d="M93.11,205.64c-3.81,0-7.15-1.52-8.63-4.01-.85-1.4-1.48-3.74.32-6.87,2.65-4.64,6.45-3.79,9.5-3.16.99.27,2.02.4,3.05.39.4-.05.49-.2.53-.24.27-.43-.14-1.52-.53-2.65-.76-2.03-1.76-4.8.8-5.89.46-.21.95-.31,1.45-.31s1,.11,1.45.31c2.55,1.17,3.85,5.17,3.91,5.31v.06c.8,5.43-.15,9.92-2.74,12.99-1.09,1.26-2.43,2.27-3.95,2.97-1.51.7-3.16,1.06-4.83,1.07l-.32.03ZM90.7,191.84c-1.9,0-3.76.7-5.24,3.29-1.28,2.23-1.39,4.35-.34,6.11,1.39,2.27,4.65,3.73,8.32,3.64,1.56,0,3.1-.35,4.52-1.01,1.42-.65,2.67-1.6,3.69-2.79,2.44-2.88,3.34-7.15,2.58-12.35-.12-.36-1.35-3.87-3.5-4.85-.36-.17-.75-.25-1.14-.25s-.78.08-1.14.25c-1.76.76-1.26,2.51-.38,4.93.5,1.37.94,2.56.46,3.31-.12.18-.29.32-.48.43s-.4.16-.62.17c-1.12.03-2.23-.11-3.31-.4-1.12-.28-2.28-.44-3.43-.48Z"/>
  <path class="cls-1" d="M90.24,195.14c-.22.82-.76,1.38-1.25,1.25-.49-.13-.68-.89-.45-1.71.23-.82.76-1.39,1.25-1.26.49.13.67.9.45,1.72Z"/>
  <path class="cls-1" d="M87.18,196.47c-.22.82-.76,1.38-1.25,1.26-.49-.12-.68-.9-.46-1.71.22-.82.76-1.38,1.26-1.25.5.13.67.86.45,1.71Z"/>
  <path class="cls-1" d="M89.1,199.8c-.22.82-.76,1.39-1.25,1.26-.49-.13-.67-.9-.45-1.71.22-.82.76-1.38,1.25-1.25.49.13.67.89.45,1.71Z"/>
  <path class="cls-1" d="M89.41,204.47c-.08,0-.15-.02-.21-.06-.06-.04-.11-.1-.14-.17-.02-.04-.03-.09-.03-.14,0-.05,0-.1.03-.14.02-.04.05-.09.08-.12.03-.03.08-.06.12-.08.64-.26,1.22-.64,1.73-1.1.08-.06.17-.09.27-.08.1,0,.19.05.25.12.07.07.1.16.1.26,0,.1-.04.19-.11.26-.57.52-1.23.95-1.95,1.24-.04.01-.09.02-.14.01Z"/>
  <path class="cls-1" d="M92.2,202.27c-.08,0-.16-.02-.23-.08-.04-.03-.07-.07-.1-.11s-.04-.09-.05-.14c0-.05,0-.1,0-.15.01-.05.03-.09.06-.13.58-.77,1.02-1.64,1.3-2.56.33-.95.46-1.95.38-2.95-.08-1-.36-1.97-.83-2.85-.05-.09-.06-.19-.04-.29.03-.1.09-.18.18-.23.09-.05.19-.06.29-.03.1.03.18.09.24.17.52.98.83,2.05.93,3.15.09,1.1-.05,2.21-.4,3.26-.3,1.01-.79,1.96-1.42,2.8-.04.05-.08.08-.14.11-.05.03-.11.04-.17.04Z"/>
</svg>