<?xml version="1.0" encoding="utf-8"?>
<!-- Generator: Adobe Illustrator 28.2.0, SVG Export Plug-In . SVG Version: 6.00 Build 0)  -->
<svg width="274" height="283" version="1.1" id="Layer_1" xmlns="http://www.w3.org/2000/svg" xmlns:xlink="http://www.w3.org/1999/xlink" x="0px" y="0px"
	 viewBox="0 0 274 283" style="enable-background:new 0 0 274 283;" xml:space="preserve">
<style type="text/css">
	.st0{fill:#231414;fill-opacity:0.83;}
	.st1{fill:#FFFFFF;}
	.st2{fill:#024DDF;}
</style>
<path class="st0" d="M251.3,191.8c-3.4,0-6.7,1.4-9.1,3.8c-2.4,2.4-3.8,5.7-3.8,9.1c0,7.1,12.9,20.5,12.9,20.5s12.9-13.4,12.9-20.5
	c0-3.4-1.4-6.7-3.8-9.1C258,193.2,254.7,191.8,251.3,191.8z M251.3,209.3c-1.1,0-2.1-0.3-3-0.9c-0.9-0.6-1.6-1.4-2-2.4
	c-0.4-1-0.5-2.1-0.3-3.1c0.2-1.1,0.7-2,1.5-2.8c0.8-0.8,1.7-1.3,2.8-1.5s2.2-0.1,3.1,0.3c1,0.4,1.8,1.1,2.4,2c0.6,0.9,0.9,1.9,0.9,3
	c0,0.7-0.1,1.4-0.4,2.1c-0.3,0.7-0.7,1.3-1.2,1.8c-0.5,0.5-1.1,0.9-1.8,1.2C252.7,209.1,252,209.3,251.3,209.3z"/>
<path class="st0" d="M251.3,225.6c-0.1,0-0.1,0-0.1,0c0,0-0.1,0-0.1-0.1c-0.5-0.6-13-13.6-13-20.8c0-3.5,1.4-6.9,3.9-9.4
	c2.5-2.5,5.9-3.9,9.4-3.9c3.5,0,6.9,1.4,9.4,3.9c2.5,2.5,3.9,5.8,3.9,9.4c0,7.2-12.5,20.2-13,20.8c0,0-0.1,0.1-0.1,0.1
	C251.4,225.6,251.3,225.6,251.3,225.6z M251.3,192.2c-3.3,0-6.5,1.3-8.9,3.7c-2.3,2.3-3.7,5.5-3.7,8.8c0,6.3,10.7,18,12.5,20
	c1.9-2,12.5-13.7,12.5-20c0-3.3-1.3-6.5-3.7-8.8C257.8,193.5,254.6,192.2,251.3,192.2L251.3,192.2z M251.3,209.6
	c-1.2,0-2.3-0.3-3.2-1c-1-0.6-1.7-1.5-2.1-2.6c-0.4-1.1-0.6-2.2-0.3-3.4c0.2-1.1,0.8-2.2,1.6-3c0.8-0.8,1.9-1.4,3-1.6
	c1.1-0.2,2.3-0.1,3.4,0.3c1.1,0.4,2,1.2,2.6,2.1c0.6,1,1,2.1,1,3.2c0,0.8-0.1,1.5-0.4,2.2c-0.3,0.7-0.7,1.3-1.3,1.9
	c-0.5,0.5-1.2,1-1.9,1.3S252.1,209.7,251.3,209.6L251.3,209.6z M251.3,198.8c-1,0-2,0.3-2.8,0.8c-0.8,0.6-1.5,1.3-1.9,2.3
	c-0.4,0.9-0.5,1.9-0.3,2.9c0.2,1,0.7,1.9,1.4,2.6c0.7,0.7,1.6,1.2,2.6,1.4c1,0.2,2,0.1,2.9-0.3c0.9-0.4,1.7-1,2.3-1.9
	c0.6-0.8,0.9-1.8,0.9-2.8c0-1.3-0.5-2.6-1.5-3.5C253.9,199.4,252.6,198.8,251.3,198.8L251.3,198.8z"/>
<path class="st0" d="M91.5,19.4c-5.9-3.1-13.8-3.7-21.1-1.6s-13.7,7-17,12.9c-0.2,0.3-0.3,0.7-0.2,1.1c0,0.4,0.2,0.8,0.4,1.1
	c0.2,0.3,0.6,0.5,1,0.6c0.4,0.1,0.8,0.1,1.1,0c0.2-0.1,0.5-0.2,0.7-0.4c0.2-0.2,0.4-0.4,0.5-0.6c2.8-5,8.3-9.2,14.6-11
	c6.4-1.9,13.1-1.4,18.2,1.3c0.5,0.2,1,0.3,1.5,0.1c0.5-0.2,0.9-0.5,1.2-1c0.2-0.5,0.3-1,0.1-1.5C92.3,20.1,92,19.6,91.5,19.4
	L91.5,19.4z"/>
<path class="st0" d="M88,26.3c-4.9-2-10.3-2.3-15.3-0.8c-5,1.5-9.4,4.7-12.4,9c-0.2,0.3-0.3,0.7-0.3,1.1c0,0.4,0.1,0.8,0.4,1.1
	c0.2,0.3,0.6,0.6,1,0.7s0.8,0.1,1.2,0c0.4-0.1,0.8-0.4,1.1-0.8c2.5-3.5,6.1-6.1,10.3-7.4c4.2-1.2,8.6-1,12.6,0.6
	c0.2,0.1,0.5,0.2,0.7,0.2c0.3,0,0.5,0,0.8-0.1c0.2-0.1,0.5-0.2,0.6-0.4c0.2-0.2,0.3-0.4,0.4-0.6c0.1-0.2,0.2-0.5,0.2-0.7
	c0-0.3,0-0.5-0.1-0.7c-0.1-0.2-0.2-0.5-0.4-0.6C88.4,26.6,88.2,26.5,88,26.3L88,26.3z"/>
<path class="st0" d="M84.4,33.2c-3.1-1.3-6.5-1.5-9.7-0.5c-3.2,1-6,3.1-7.8,5.9c-0.3,0.4-0.4,1-0.3,1.5c0.1,0.5,0.4,1,0.8,1.2
	c0.4,0.3,1,0.4,1.5,0.3c0.5-0.1,1-0.4,1.3-0.8c1.3-2.1,3.3-3.6,5.7-4.3c2.3-0.7,4.9-0.6,7.1,0.3c0.5,0.2,1,0.2,1.5,0
	c0.5-0.2,0.9-0.6,1.1-1.1c0.2-0.5,0.2-1,0-1.5C85.2,33.8,84.9,33.4,84.4,33.2L84.4,33.2z"/>
<path class="st0" d="M76.8,39.3c-0.9,0.3-1.7,0.8-2.3,1.5c-0.6,0.7-1,1.6-1.1,2.5c-0.1,0.9,0.1,1.9,0.5,2.7c0.4,0.8,1.1,1.5,1.9,1.9
	c0.8,0.4,1.7,0.6,2.7,0.6c0.9-0.1,1.8-0.4,2.5-1c0.7-0.6,1.3-1.4,1.5-2.2s0.3-1.8,0-2.7c-0.2-0.6-0.5-1.1-0.8-1.6
	c-0.4-0.5-0.9-0.9-1.4-1.2c-0.5-0.3-1.1-0.5-1.8-0.6C78,39.1,77.4,39.1,76.8,39.3z"/>
<path class="st0" d="M251,61.8h-34c-1.3,0-2.6,0.5-3.6,1.5c-0.9,0.9-1.5,2.2-1.5,3.6V85c0,1.3,0.5,2.6,1.5,3.6
	c0.9,0.9,2.2,1.5,3.6,1.5h1.1c-1.1,2.3-3.1,5.9-6.4,8c0,0,6.9-0.5,14.1-8H251c1.3,0,2.6-0.5,3.6-1.5c0.9-0.9,1.5-2.2,1.5-3.6V66.8
	c0-1.3-0.5-2.6-1.5-3.5C253.6,62.4,252.3,61.8,251,61.8z"/>
<path class="st0" d="M211.7,98.4c-0.1,0-0.2,0-0.2-0.1c-0.1,0-0.1-0.1-0.1-0.2c0-0.1,0-0.2,0-0.2c0-0.1,0.1-0.1,0.1-0.2
	c2.9-1.9,4.8-4.9,6-7.3h-0.5c-1.4,0-2.8-0.6-3.8-1.6c-1-1-1.6-2.4-1.6-3.8V66.8c0-1.4,0.6-2.8,1.6-3.8c1-1,2.4-1.6,3.8-1.6h34
	c0.7,0,1.4,0.1,2.1,0.4c0.7,0.3,1.3,0.7,1.8,1.2c0.5,0.5,0.9,1.1,1.2,1.8c0.3,0.7,0.4,1.4,0.4,2.1V85c0,1.4-0.6,2.8-1.6,3.8
	c-1,1-2.4,1.6-3.8,1.6h-25C218.7,97.8,212,98.3,211.7,98.4L211.7,98.4z M216.9,62.2c-1.2,0-2.4,0.5-3.3,1.4
	c-0.9,0.9-1.4,2.1-1.4,3.3V85c0,1.2,0.5,2.4,1.4,3.3c0.9,0.9,2.1,1.4,3.3,1.4h1.1c0.1,0,0.1,0,0.2,0c0.1,0,0.1,0.1,0.1,0.1
	c0,0.1,0.1,0.1,0.1,0.2c0,0.1,0,0.1,0,0.2c-1.2,2.7-2.9,5.2-5.2,7.2c2.4-0.6,7.3-2.4,12.3-7.6c0,0,0.1-0.1,0.1-0.1c0,0,0.1,0,0.2,0
	H251c1.2,0,2.4-0.5,3.3-1.4s1.4-2.1,1.4-3.3V66.8c0-1.2-0.5-2.4-1.4-3.3c-0.9-0.9-2.1-1.4-3.3-1.4L216.9,62.2z"/>
<path class="st1" d="M228.1,75.3c0-0.5-0.2-1-0.4-1.4c-0.3-0.4-0.7-0.8-1.2-1c-0.5-0.2-1-0.2-1.5-0.1c-0.5,0.1-1,0.3-1.3,0.7
	c-0.4,0.4-0.6,0.8-0.7,1.3c-0.1,0.5,0,1,0.1,1.5c0.2,0.5,0.5,0.9,1,1.2c0.4,0.3,0.9,0.4,1.4,0.4c0.3,0,0.7-0.1,1-0.2
	s0.6-0.3,0.8-0.6c0.2-0.2,0.4-0.5,0.6-0.8C228,75.9,228.1,75.6,228.1,75.3L228.1,75.3z"/>
<path class="st1" d="M234.3,77.8c1.4,0,2.6-1.2,2.6-2.6c0-1.4-1.2-2.6-2.6-2.6c-1.4,0-2.6,1.2-2.6,2.6
	C231.7,76.7,232.9,77.8,234.3,77.8z"/>
<path class="st1" d="M245.8,75.3c0-0.5-0.2-1-0.4-1.4c-0.3-0.4-0.7-0.8-1.2-1c-0.5-0.2-1-0.2-1.5-0.1c-0.5,0.1-1,0.3-1.3,0.7
	c-0.4,0.4-0.6,0.8-0.7,1.3c-0.1,0.5,0,1,0.1,1.5c0.2,0.5,0.5,0.9,1,1.2c0.4,0.3,0.9,0.4,1.4,0.4c0.7,0,1.4-0.3,1.8-0.8
	S245.8,75.9,245.8,75.3z"/>
<path class="st0" d="M16.8,173.7c7.4-0.7,12.8-7.3,12.1-14.7c-0.7-7.4-7.3-12.8-14.7-12c-7.4,0.7-12.8,7.3-12.1,14.7
	C2.9,169.1,9.5,174.5,16.8,173.7z"/>
<path class="st0" d="M15.5,174.2c-2.7,0-5.4-0.8-7.7-2.3c-2.3-1.5-4-3.7-5.1-6.2c-1-2.5-1.3-5.3-0.8-8c0.5-2.7,1.9-5.1,3.8-7.1
	c1.9-1.9,4.4-3.2,7.1-3.8c2.7-0.5,5.5-0.3,8,0.8c2.5,1,4.7,2.8,6.2,5.1c1.5,2.3,2.3,4.9,2.3,7.7c0,1.8-0.4,3.6-1.1,5.3
	c-0.7,1.7-1.7,3.2-3,4.5c-1.3,1.3-2.8,2.3-4.5,3C19.2,173.8,17.4,174.2,15.5,174.2z M15.5,147.4c-2.6,0-5.1,0.8-7.3,2.2
	c-2.2,1.4-3.8,3.5-4.8,5.8c-1,2.4-1.2,5-0.7,7.5c0.5,2.5,1.7,4.8,3.6,6.7c1.8,1.8,4.2,3.1,6.7,3.6c2.5,0.5,5.2,0.2,7.6-0.7
	c2.4-1,4.4-2.7,5.9-4.8c1.4-2.1,2.2-4.7,2.2-7.2c0-3.5-1.4-6.8-3.8-9.2C22.3,148.7,19,147.4,15.5,147.4z"/>
<path class="st1" d="M9.5,152l14.5,8.4l-14.5,8.4V152z"/>
<path class="st0" d="M9.5,169.2c-0.1,0-0.1,0-0.2-0.1c-0.1,0-0.1-0.1-0.1-0.1c0-0.1-0.1-0.1,0-0.2v-16.7c0-0.1,0-0.1,0-0.2
	c0-0.1,0.1-0.1,0.1-0.1c0.1,0,0.1-0.1,0.2-0.1c0.1,0,0.1,0,0.2,0.1l14.5,8.3c0.1,0,0.2,0.1,0.2,0.2c0,0.1,0,0.2,0,0.3
	c0,0.1-0.1,0.1-0.2,0.2l-14.5,8.3C9.6,169.1,9.5,169.2,9.5,169.2z M9.9,152.7v15.4l13.4-7.7L9.9,152.7z"/>
<path class="st0" d="M47.6,262c-2.4,0-4.7-0.6-6.7-1.8c-9.6-5.8-15.3-14.3-17.7-25.1c-0.6-2.2-0.7-4.5-0.2-6.8
	c0.4-1.8,1.3-3.6,2.6-4.9s3-2.3,4.8-2.8c0.7-0.2,1.4-0.2,2.1,0.1c0.7,0.3,1.2,0.8,1.4,1.5c0.9,2.5,1.7,5,2.3,7.6
	c0.1,0.6,0,1.1-0.3,1.6c-0.3,0.5-0.7,0.9-1.3,1.1c-1.1,0.6-2.3,1.1-3.5,1.5c-0.2,0-0.3,0.1-0.4,0.2c-0.1,0.1-0.2,0.2-0.3,0.3
	c-0.1,0.1-0.1,0.3-0.2,0.4c0,0.2,0,0.3,0,0.5c0,0.1,0.1,0.2,0.1,0.3c2.2,6.1,5.8,11.6,10.4,16.1c0.7,0.7,1.2,0.6,1.8-0.1
	c0.8-0.9,1.7-1.8,2.7-2.5c0.5-0.4,1.1-0.7,1.8-0.7s1.3,0.2,1.8,0.6c1.8,1.4,3.6,2.8,5.3,4.4c1.9,1.9,1.8,3.7-0.1,5.6
	C52.4,260.9,50.1,261.9,47.6,262z"/>
<path class="st0" d="M47.6,262.3c-2.4,0-4.8-0.6-6.9-1.8c-9.4-5.6-15.4-14.1-17.9-25.3c-0.6-2.3-0.7-4.6-0.2-6.9
	c0.4-1.9,1.3-3.7,2.7-5.1c1.4-1.4,3.1-2.4,5-2.9c0.8-0.3,1.6-0.2,2.4,0.1c0.7,0.3,1.3,1,1.6,1.7c0.9,2.5,1.7,5.1,2.3,7.7
	c0.1,0.6,0,1.3-0.3,1.9c-0.3,0.6-0.8,1-1.4,1.3c-1.1,0.6-2.3,1.1-3.5,1.6c-0.7,0.3-0.8,0.6-0.6,1.2c2.2,6,5.7,11.5,10.3,15.9
	c0.2,0.2,0.4,0.3,0.6,0.3c0.2,0,0.4-0.2,0.7-0.5c0.8-0.9,1.7-1.8,2.7-2.5c0.6-0.5,1.3-0.7,2-0.7s1.4,0.2,2,0.7l0.7,0.5
	c1.6,1.2,3.1,2.5,4.6,3.8c0.4,0.4,0.8,0.8,1.1,1.3c0.3,0.5,0.4,1.1,0.5,1.6c0,0.6-0.2,1.2-0.5,1.7c-0.3,0.5-0.7,1-1.1,1.4
	C52.6,261.2,50.2,262.2,47.6,262.3L47.6,262.3z M31.4,220.9c-0.3,0-0.6,0-0.8,0.1c-1.8,0.4-3.4,1.3-4.7,2.7
	c-1.3,1.3-2.1,2.9-2.5,4.7c-0.4,2.2-0.4,4.4,0.2,6.6c2.5,11,8.4,19.4,17.5,24.9c2,1.2,4.2,1.8,6.5,1.7c2.3-0.1,4.6-1,6.2-2.7
	c0.4-0.3,0.7-0.7,1-1.2c0.2-0.4,0.4-0.9,0.4-1.4c0-0.5-0.2-0.9-0.4-1.3c-0.2-0.4-0.5-0.8-0.9-1.1c-1.4-1.4-2.9-2.6-4.5-3.8l-0.7-0.5
	c-0.4-0.4-1-0.5-1.5-0.5c-0.6,0-1.1,0.2-1.5,0.6c-1,0.7-1.8,1.6-2.6,2.5c-0.1,0.2-0.3,0.4-0.5,0.5c-0.2,0.1-0.4,0.2-0.7,0.2
	c-0.2,0-0.4-0.1-0.6-0.1c-0.2-0.1-0.4-0.2-0.5-0.4c-4.7-4.5-8.3-10.1-10.5-16.2c-0.1-0.2-0.2-0.4-0.2-0.6c0-0.2,0-0.4,0.1-0.6
	c0.1-0.2,0.1-0.4,0.3-0.5c0.1-0.2,0.3-0.3,0.5-0.4c0.1-0.1,0.3-0.1,0.4-0.1c1.2-0.5,2.3-1,3.4-1.5c0.5-0.2,0.8-0.5,1.1-0.9
	s0.3-0.9,0.2-1.4c-0.6-2.6-1.4-5.1-2.3-7.6c-0.2-0.4-0.5-0.8-0.9-1.1C32.3,221,31.9,220.9,31.4,220.9z"/>
<path class="st0" d="M61.1,239.8c-0.2,1.2-0.3,2.4-0.5,3.6c0,0.2-0.1,0.5-0.2,0.7c-0.1,0.2-0.3,0.4-0.4,0.5
	c-0.2,0.1-0.4,0.3-0.6,0.3c-0.2,0.1-0.5,0.1-0.7,0.1c-0.1,0-0.2,0-0.3-0.1c-1-0.2-1.5-1.2-1.3-2.4c0.7-3.8-0.1-7.7-2.1-10.9
	c-2.1-3.2-5.3-5.6-9-6.5c-0.3-0.1-0.7-0.2-1-0.3c-0.4-0.2-0.7-0.4-0.9-0.8c-0.2-0.4-0.3-0.8-0.1-1.2c0-0.2,0.1-0.4,0.2-0.6
	c0.1-0.2,0.2-0.4,0.4-0.5c0.2-0.1,0.4-0.2,0.6-0.3c0.2-0.1,0.4-0.1,0.6-0.1h0.2c1.7,0.4,3.3,0.9,4.9,1.6c3.1,1.6,5.8,4,7.6,7
	C60.1,232.8,61.1,236.3,61.1,239.8z"/>
<path class="st0" d="M58.9,245.4c-0.2,0-0.4,0-0.6-0.1c-1.2-0.3-1.8-1.4-1.6-2.8c0.7-3.7,0-7.5-2.1-10.6c-2-3.2-5.2-5.4-8.8-6.3
	l-0.3-0.1c-0.3-0.1-0.6-0.1-0.8-0.3c-0.5-0.2-0.9-0.5-1.1-1c-0.2-0.5-0.3-1-0.2-1.5c0-0.3,0.2-0.6,0.3-0.9c0.2-0.3,0.4-0.5,0.6-0.7
	c0.2-0.1,0.5-0.2,0.7-0.3c0.3,0,0.5,0,0.8,0c1.7,0.4,3.4,0.9,4.9,1.6c3.2,1.6,5.9,4,7.8,7.1c1.9,3,2.9,6.5,2.9,10.1v0.1
	c0,0.4-0.1,0.8-0.1,1.1c-0.1,0.8-0.2,1.7-0.4,2.5c0,0.3-0.2,0.6-0.3,0.9c-0.2,0.3-0.4,0.5-0.6,0.7C59.7,245.2,59.3,245.4,58.9,245.4
	z M45.4,221.7c-0.2,0-0.4,0.1-0.6,0.2c-0.2,0.1-0.3,0.3-0.4,0.4c-0.1,0.2-0.2,0.4-0.2,0.6c-0.1,0.3,0,0.7,0.1,1
	c0.2,0.3,0.4,0.5,0.8,0.7c0.2,0.1,0.4,0.2,0.6,0.2l0.3,0.1c3.8,1,7.1,3.4,9.2,6.7c2.1,3.3,2.9,7.3,2.2,11.2c-0.2,1,0.2,1.8,1,2
	c0.2,0.1,0.4,0.1,0.6,0.1c0.2,0,0.4-0.1,0.6-0.2c0.2-0.1,0.3-0.3,0.4-0.5c0.1-0.2,0.2-0.4,0.2-0.6c0.2-0.8,0.3-1.7,0.4-2.5
	c0-0.4,0.1-0.8,0.1-1.1c0-3.4-1-6.8-2.8-9.7c-1.8-2.9-4.4-5.2-7.5-6.8c-1.5-0.7-3.1-1.2-4.8-1.6C45.6,221.7,45.5,221.7,45.4,221.7
	L45.4,221.7z"/>
<path class="st0" d="M54.8,240.7c-0.1,0.5-0.1,1.3-0.3,2.2c0,0.2-0.1,0.5-0.2,0.7c-0.1,0.2-0.3,0.4-0.5,0.5
	c-0.2,0.1-0.4,0.3-0.6,0.3c-0.2,0.1-0.5,0.1-0.7,0h-0.1c-0.3,0-0.5-0.1-0.7-0.3c-0.2-0.1-0.4-0.3-0.5-0.5c-0.1-0.2-0.2-0.4-0.3-0.7
	c0-0.2,0-0.5,0-0.8c0.2-1.1,0.2-2.2,0.1-3.3c-0.7-4.2-3.2-6.9-7.3-8c-1.3-0.4-2-1.2-1.8-2.3c0.2-1.1,1.3-1.6,2.7-1.3
	C50.4,228.5,54.8,234.1,54.8,240.7z"/>
<path class="st0" d="M52.7,244.9h-0.4c-0.3-0.1-0.6-0.2-0.8-0.3c-0.3-0.2-0.5-0.4-0.6-0.6s-0.3-0.5-0.4-0.8c-0.1-0.3-0.1-0.6,0-0.9
	c0-0.2,0-0.5,0.1-0.7c0.1-0.8,0.1-1.7,0-2.5c-0.7-4-3-6.6-7.1-7.7c-1.5-0.4-2.3-1.5-2-2.7c0.3-1.2,1.5-2,3.1-1.6
	c6.2,1.3,10.7,7.2,10.7,13.9v0c0,0.1,0,0.3-0.1,0.4c0,0.5-0.1,1.1-0.3,1.8c-0.1,0.5-0.4,1-0.7,1.3C53.7,244.7,53.3,244.9,52.7,244.9
	z M43.7,227.5c-0.3,0-0.7,0.1-1,0.3s-0.5,0.5-0.5,0.9c-0.3,1.2,1,1.7,1.5,1.8c4.3,1.2,6.9,4,7.6,8.3c0.1,0.9,0.1,1.8,0,2.7
	c0,0.2,0,0.5-0.1,0.7c0,0.2-0.1,0.4,0,0.6c0,0.2,0.1,0.4,0.2,0.6c0.1,0.2,0.3,0.3,0.4,0.4c0.2,0.1,0.4,0.2,0.6,0.2
	c0.2,0,0.4,0,0.6,0c0.2,0,0.4-0.1,0.5-0.2c0.2-0.1,0.3-0.3,0.4-0.4c0.1-0.2,0.2-0.3,0.2-0.5c0,0,0,0,0-0.1c0.1-0.6,0.2-1.2,0.2-1.7
	c0-0.1,0-0.3,0-0.4c0-6.3-4.2-11.8-10-13.1C44.2,227.5,43.9,227.5,43.7,227.5z"/>
<path class="st0" d="M44.7,241.3c0.1-1-0.1-2.1-0.7-2.9c-0.6-0.9-1.5-1.5-2.5-1.7c-1.3-0.4-1.9-1.3-1.6-2.4s1.3-1.5,2.6-1.2
	c1.9,0.5,3.6,1.7,4.7,3.4c1.1,1.7,1.5,3.7,1.2,5.6c-0.2,1.3-0.9,1.9-2.1,1.8c-1.1-0.1-1.7-0.9-1.6-2.3
	C44.7,241.5,44.7,241.4,44.7,241.3z"/>
<path class="st0" d="M46.6,244.3h-0.3c-1.3-0.1-2-1.1-1.9-2.7v-0.3c0.1-1-0.1-1.9-0.7-2.7c-0.6-0.8-1.4-1.3-2.3-1.6
	c-1.5-0.5-2.2-1.6-1.9-2.9c0.4-1.3,1.6-1.8,3.1-1.4c2,0.5,3.7,1.8,4.9,3.5c1.1,1.7,1.6,3.8,1.3,5.9
	C48.5,243.5,47.8,244.3,46.6,244.3z M41.7,233.4c-0.3,0-0.7,0.1-0.9,0.2c-0.3,0.2-0.5,0.5-0.5,0.8c-0.3,0.9,0.2,1.6,1.3,1.9
	c1.1,0.3,2.1,0.9,2.7,1.9c0.6,0.9,0.9,2.1,0.8,3.2v0.3c-0.1,1.7,0.9,1.8,1.2,1.9c0.6,0.1,1.4,0,1.7-1.5c0.3-1.9-0.1-3.8-1.1-5.3
	c-1-1.6-2.6-2.7-4.4-3.2C42.2,233.4,42,233.4,41.7,233.4z"/>
<path class="st1" d="M34.1,233c-0.1,0-0.2,0-0.2-0.1c-0.1,0-0.1-0.1-0.1-0.2l-0.4-1.2c0-0.1,0-0.2,0-0.3c0-0.1,0.1-0.2,0.2-0.2
	c0,0,0.1,0,0.1,0c0.1,0,0.1,0,0.1,0c0,0,0.1,0,0.1,0.1c0,0,0.1,0.1,0.1,0.1v0.1l0.4,1.2c0,0.1,0,0.2,0,0.3
	C34.3,232.9,34.3,232.9,34.1,233C34.1,233,34.1,233,34.1,233z"/>
<path class="st1" d="M33.2,230.4c-0.1,0-0.2,0-0.2-0.1c-0.1,0-0.1-0.1-0.1-0.2l-3-8.6c0-0.1,0-0.1,0-0.2c0-0.1,0-0.1,0-0.1
	c0,0,0.1-0.1,0.1-0.1c0,0,0.1-0.1,0.1-0.1c0,0,0.1,0,0.2,0c0.1,0,0.1,0,0.2,0c0,0,0.1,0.1,0.1,0.1c0,0,0.1,0.1,0.1,0.1l3,8.6
	c0,0.1,0,0.2,0,0.3c0,0.1-0.1,0.2-0.2,0.2C33.3,230.4,33.2,230.4,33.2,230.4z"/>
<path class="st1" d="M54.7,258.7c-0.1,0-0.2,0-0.3-0.1l-7.4-6.4c0,0-0.1-0.1-0.1-0.1c0,0,0-0.1,0-0.1c0-0.1,0-0.1,0-0.1
	c0,0,0-0.1,0.1-0.1c0,0,0.1-0.1,0.1-0.1c0,0,0.1,0,0.1,0c0.1,0,0.1,0,0.1,0c0,0,0.1,0,0.1,0.1l7.4,6.4c0.1,0.1,0.1,0.2,0.1,0.3
	c0,0.1,0,0.2-0.1,0.3c0,0-0.1,0.1-0.1,0.1C54.8,258.7,54.7,258.7,54.7,258.7z"/>
<path class="st1" d="M46.5,251.6c-0.1,0-0.2,0-0.3-0.1l-1.2-1.1c0,0-0.1-0.1-0.1-0.1c0,0,0-0.1,0-0.1c0,0,0-0.1,0-0.1
	c0,0,0-0.1,0.1-0.1c0.1-0.1,0.2-0.1,0.3-0.1c0.1,0,0.2,0,0.3,0.1l1.2,1.1c0.1,0.1,0.1,0.2,0.1,0.3c0,0.1,0,0.2-0.1,0.3
	c0,0-0.1,0.1-0.1,0.1C46.6,251.6,46.5,251.6,46.5,251.6z"/>
<path class="st0" d="M103.2,278.2h1.1h0.4c0.1,0,0.2,0,0.3-0.1c0.1-0.1,0.1-0.2,0.1-0.3c0-0.1,0-0.2-0.1-0.3
	c-0.1-0.1-0.2-0.1-0.3-0.1h-1.5c-0.1,0-0.2,0-0.3,0.1c-0.1,0.1-0.1,0.2-0.1,0.3c0,0.1,0,0.2,0.1,0.3
	C103,278.1,103.1,278.2,103.2,278.2z"/>
<path class="st0" d="M106.8,278c0.1,0.1,0.2,0.1,0.3,0.1h0h1.5c0,0,0.1,0,0.1,0c0,0,0.1,0,0.1-0.1c0,0,0.1-0.1,0.1-0.1
	c0,0,0-0.1,0-0.1c0-0.1,0-0.2-0.1-0.3s-0.2-0.1-0.3-0.1H107c-0.1,0-0.2,0-0.3,0.1c-0.1,0.1-0.1,0.2-0.1,0.3
	C106.7,277.9,106.7,278,106.8,278z"/>
<path class="st0" d="M99.4,278.1l1.5,0v0c0.1,0,0.2,0,0.2-0.1c0.1-0.1,0.1-0.1,0.1-0.2c0,0,0-0.1,0-0.1c0,0,0-0.1-0.1-0.1
	c0,0-0.1-0.1-0.1-0.1c0,0-0.1,0-0.1,0l-1.5,0c-0.1,0-0.2,0-0.3,0.1c-0.1,0.1-0.1,0.2-0.1,0.3c0,0.1,0,0.2,0.1,0.3
	C99.2,278.1,99.3,278.1,99.4,278.1z"/>
<path class="st0" d="M110.6,278c0.1,0.1,0.2,0.1,0.3,0.1h0l1.5-0.1c0.1,0,0.1,0,0.1,0c0,0,0.1-0.1,0.1-0.1c0,0,0.1-0.1,0.1-0.1
	c0,0,0-0.1,0-0.1c0-0.1-0.1-0.2-0.1-0.3c-0.1-0.1-0.2-0.1-0.3-0.1l-1.5,0.1c-0.1,0-0.2,0-0.3,0.1c-0.1,0.1-0.1,0.2-0.1,0.3
	C110.5,277.8,110.5,277.9,110.6,278z"/>
<path class="st0" d="M95.6,278l1.5,0.1l0,0c0.1,0,0.2,0,0.3-0.1s0.1-0.1,0.1-0.2c0,0,0-0.1,0-0.1s0-0.1-0.1-0.1c0,0-0.1-0.1-0.1-0.1
	c0,0-0.1,0-0.1,0l-1.5-0.1c-0.1,0-0.2,0-0.3,0.1c-0.1,0.1-0.1,0.2-0.1,0.3c0,0.1,0,0.2,0.1,0.3C95.4,277.9,95.5,277.9,95.6,278z"/>
<path class="st0" d="M114.4,277.8c0.1,0.1,0.2,0.1,0.3,0.1h0.1c0.5,0,1-0.1,1.5-0.1c0,0,0.1,0,0.1,0c0,0,0.1-0.1,0.1-0.1
	c0,0,0.1-0.1,0.1-0.1s0-0.1,0-0.1c0-0.1-0.1-0.2-0.1-0.3c-0.1-0.1-0.2-0.1-0.3-0.1l-1.5,0.1c-0.1,0-0.2,0-0.3,0.1
	c-0.1,0.1-0.1,0.2-0.1,0.3C114.3,277.6,114.3,277.7,114.4,277.8z"/>
<path class="st0" d="M91.8,277.7l1.5,0.1l0,0c0.1,0,0.2,0,0.3-0.1c0.1-0.1,0.1-0.1,0.1-0.2c0-0.1,0-0.1,0-0.1c0,0,0-0.1-0.1-0.1
	s-0.1-0.1-0.1-0.1c0,0-0.1,0-0.1,0l-1.5-0.1c-0.1,0-0.2,0-0.3,0.1c-0.1,0.1-0.1,0.2-0.1,0.3c0,0.1,0,0.2,0.1,0.3
	C91.6,277.6,91.7,277.7,91.8,277.7z"/>
<path class="st0" d="M118.2,277.6c0.1,0.1,0.2,0.1,0.3,0.1h0.1l1.5-0.1c0,0,0.1,0,0.1,0c0,0,0.1-0.1,0.1-0.1c0,0,0.1-0.1,0.1-0.1
	c0,0,0-0.1,0-0.1c0-0.1,0-0.1,0-0.1c0,0-0.1-0.1-0.1-0.1c0,0-0.1-0.1-0.1-0.1c0,0-0.1,0-0.1,0l-1.5,0.1c-0.1,0-0.2,0-0.3,0.1
	c-0.1,0.1-0.1,0.2-0.1,0.3C118.1,277.4,118.1,277.5,118.2,277.6z"/>
<path class="st0" d="M88.1,277.3c0.5,0.1,1,0.1,1.5,0.2h0c0,0,0.1,0,0.1,0c0,0,0.1,0,0.1-0.1c0,0,0.1-0.1,0.1-0.1c0,0,0-0.1,0-0.1
	c0-0.1,0-0.1,0-0.1c0,0,0-0.1-0.1-0.1c0,0-0.1-0.1-0.1-0.1c0,0-0.1,0-0.1,0l-1.5-0.2c-0.1,0-0.1,0-0.1,0s-0.1,0-0.1,0.1
	c0,0-0.1,0.1-0.1,0.1c0,0,0,0.1,0,0.1c0,0,0,0.1,0,0.1c0,0,0,0.1,0.1,0.1c0,0,0.1,0.1,0.1,0.1C88,277.3,88,277.3,88.1,277.3z"/>
<path class="st0" d="M122,277.3c0.1,0.1,0.2,0.1,0.3,0.1h0l1.5-0.1c0,0,0.1,0,0.1,0c0,0,0.1-0.1,0.1-0.1c0,0,0.1-0.1,0.1-0.1
	s0-0.1,0-0.1c0-0.1,0-0.1,0-0.1s-0.1-0.1-0.1-0.1c0,0-0.1-0.1-0.1-0.1c0,0-0.1,0-0.1,0l-1.5,0.1c0,0-0.1,0-0.1,0
	c0,0-0.1,0.1-0.1,0.1c0,0-0.1,0.1-0.1,0.1c0,0,0,0.1,0,0.1C121.9,277.1,121.9,277.2,122,277.3z"/>
<path class="st0" d="M85.7,277L85.7,277L85.7,277c0.1,0,0.2-0.1,0.3-0.1c0.1-0.1,0.1-0.1,0.1-0.2c0-0.1,0-0.2-0.1-0.3
	s-0.1-0.1-0.2-0.1l-1.5-0.2c-0.1,0-0.2,0-0.3,0.1c-0.1,0.1-0.1,0.1-0.2,0.2c0,0.1,0,0.2,0.1,0.3c0.1,0.1,0.1,0.1,0.2,0.2L85.7,277z"
	/>
<path class="st0" d="M125.8,276.9c0.1,0.1,0.2,0.1,0.3,0.1h0.1l1.5-0.2c0.1,0,0.1,0,0.1,0c0,0,0.1-0.1,0.1-0.1c0,0,0.1-0.1,0.1-0.1
	c0,0,0-0.1,0-0.1c0-0.1,0-0.1,0-0.1c0,0-0.1-0.1-0.1-0.1c0,0-0.1-0.1-0.1-0.1c0,0-0.1,0-0.2,0l-1.5,0.2c-0.1,0-0.2,0.1-0.3,0.1
	c-0.1,0.1-0.1,0.2-0.1,0.3C125.7,276.7,125.7,276.8,125.8,276.9z"/>
<path class="st1" d="M226.4,8.7L179,14.1l12,8.9L226.4,8.7z"/>
<path class="st0" d="M191,23.3c-0.1,0-0.2,0-0.2-0.1l-12-8.9c-0.1,0-0.1-0.1-0.1-0.2s0-0.1,0-0.2c0-0.1,0.1-0.1,0.1-0.2
	c0.1,0,0.1-0.1,0.2-0.1l47.4-5.3c0.1,0,0.2,0,0.3,0.1c0.1,0.1,0.1,0.1,0.2,0.2c0,0.1,0,0.2,0,0.3c0,0.1-0.1,0.1-0.2,0.2l-35.4,14.3
	C191.1,23.4,191,23.3,191,23.3z M180,14.3l11,8.2l32.6-13.1L180,14.3z"/>
<path class="st1" d="M191,22.9l-0.1,9.6l35.5-23.9L191,22.9z"/>
<path class="st0" d="M190.9,33c-0.1,0-0.1,0-0.2,0c-0.1,0-0.1-0.1-0.1-0.1c0-0.1-0.1-0.1-0.1-0.2l0.1-9.6c0-0.1,0-0.1,0.1-0.2
	c0-0.1,0.1-0.1,0.2-0.1l35.4-14.2c0.1,0,0.2,0,0.3,0c0.1,0,0.2,0.1,0.2,0.2c0,0.1,0.1,0.2,0,0.3c0,0.1-0.1,0.2-0.2,0.2l-35.5,23.9
	C191,32.9,191,33,190.9,33z M191.4,23.2l-0.1,8.7l31.9-21.5L191.4,23.2z"/>
<path class="st1" d="M190.9,32.6l5.6-7.8l30-16.1L190.9,32.6z"/>
<path class="st0" d="M190.9,33c-0.1,0-0.1,0-0.1,0c0,0-0.1,0-0.1-0.1c-0.1-0.1-0.1-0.1-0.1-0.2c0-0.1,0-0.2,0.1-0.2l5.6-7.8
	c0,0,0.1-0.1,0.1-0.1l30-16.1c0.1,0,0.2-0.1,0.3,0c0.1,0,0.2,0.1,0.2,0.2c0,0.1,0.1,0.2,0,0.3c0,0.1-0.1,0.2-0.2,0.2l-35.5,23.9
	C191,32.9,191,33,190.9,33z M196.7,25l-4.3,6.1l27.5-18.5L196.7,25z"/>
<path class="st1" d="M196.5,24.8l15.6,11.6l14.4-27.7L196.5,24.8z"/>
<path class="st0" d="M212.1,36.8c-0.1,0-0.2,0-0.2-0.1l-15.6-11.6c-0.1,0-0.1-0.1-0.1-0.1c0-0.1,0-0.1,0-0.2c0-0.1,0-0.1,0.1-0.2
	c0-0.1,0.1-0.1,0.1-0.1l30-16.1c0.1,0,0.2-0.1,0.2,0c0.1,0,0.2,0,0.2,0.1c0.1,0.1,0.1,0.1,0.1,0.2c0,0.1,0,0.2,0,0.2l-14.3,27.7
	c0,0.1-0.1,0.1-0.1,0.1C212.3,36.7,212.2,36.8,212.1,36.8L212.1,36.8z M197.1,24.8l14.8,11l13.6-26.2L197.1,24.8z"/>
<path class="st0" d="M131,120.4c-0.3,0-0.7-0.1-0.9-0.3c-0.3-0.2-0.5-0.5-0.5-0.8c-0.2-0.7-17.7-65.4-20.8-86
	c-2-13.4,2-21.3,5.7-25.6c2.1-2.4,4.7-4.4,7.7-5.7c3-1.3,6.2-2,9.4-1.9c13.5,0,20.5,12.2,22.2,18.7c1.5,5.6,4.1,15.4,4.2,15.5
	c0.1,0.4,0,0.8-0.2,1.1c-0.2,0.3-0.5,0.6-0.9,0.7c-0.4,0.1-0.8,0-1.1-0.1c-0.3-0.2-0.6-0.5-0.7-0.9c0-0.1-2.6-9.9-4.1-15.5
	C149.3,13.8,143.2,3,131.5,3c-2.8,0-5.6,0.5-8.1,1.7c-2.6,1.1-4.8,2.8-6.7,4.9c-3.3,3.8-6.9,10.9-5,23.2c3,20.4,20.6,85,20.7,85.6
	c0.1,0.4,0.1,0.8-0.2,1.2c-0.2,0.3-0.5,0.6-0.9,0.7C131.3,120.3,131.1,120.4,131,120.4z"/>
<path class="st0" d="M45.2,193.1c-6.4,0-11.5-2.2-14.2-8.5c-5.2-12.7,11.1-21.1,30-30.8c6.1-3.1,12.4-6.3,18.4-9.9
	c22.8-13.5,21.1-22.5,21.1-22.6c-0.1-0.4,0-0.8,0.2-1.1c0.2-0.3,0.5-0.6,0.9-0.7c0.4-0.1,0.8,0,1.1,0.1c0.3,0.2,0.6,0.5,0.7,0.9
	c0.3,1.1,2.2,11.4-22.5,26c-6.1,3.6-12.4,6.8-18.6,10c-17.6,9-32.7,16.7-28.6,26.9c4.7,11.3,20.6,5.9,36,0.8
	c9.5-3.2,18.6-6.3,24.2-4.7c5,1.4,6,4.8,6.6,6.7c0.1,0.3,0.2,0.6,0.3,0.9c0.3,0.3,0.4,0.7,0.4,1.1c0,0.4-0.2,0.8-0.5,1
	c-0.3,0.3-0.7,0.4-1.1,0.4c-0.4,0-0.8-0.2-1.1-0.5c-0.5-0.6-0.8-1.3-1-2.1c-0.5-1.6-1.1-3.7-4.5-4.6c-4.7-1.3-13.3,1.6-22.4,4.7
	C62.1,189.9,52.8,193.1,45.2,193.1z"/>
<path class="st0" d="M205.2,163.3c-0.3,0-0.5-0.1-0.8-0.2c-0.2-0.1-0.3-0.2-0.5-0.4c-0.1-0.2-0.2-0.3-0.3-0.5
	c-0.1-0.2-0.1-0.4,0-0.6c0-0.2,0.1-0.4,0.2-0.6c7.9-14.2,22.3-18.5,34.9-22.2c4.4-1.2,8.8-2.7,13-4.3c4.9-2,7.6-7,6.3-11.4
	c-2.2-7.4-15.6-13.2-46.4-7.4c-13.8,2.6-24.4,1.5-31.4-3.3c-6.1-4.1-7.2-9.5-7.2-9.8c-0.1-0.4,0-0.8,0.3-1.1c0.2-0.3,0.6-0.5,1-0.6
	c0.4-0.1,0.8,0,1.1,0.2c0.3,0.2,0.6,0.6,0.6,0.9c0.1,0.7,3.7,16.6,35,10.7c41.2-7.8,48.6,5.3,49.9,9.5c1.8,5.9-1.7,12.4-8,15.1
	c-4.4,1.7-8.8,3.2-13.3,4.5c-12.7,3.7-25.8,7.6-33.1,20.7c-0.1,0.2-0.3,0.4-0.5,0.6C205.7,163.2,205.5,163.2,205.2,163.3z"/>
<path class="st0" d="M158,43.8c-0.7,0-1.3-0.2-1.8-0.6c-0.5-0.4-0.9-1-1.1-1.6l-3.1-11.4c-0.1-0.4-0.1-0.8-0.1-1.2
	c0.1-0.4,0.2-0.8,0.4-1.1c0.2-0.3,0.5-0.7,0.8-0.9c0.3-0.2,0.7-0.4,1.1-0.5s0.8-0.1,1.2-0.1c0.4,0.1,0.8,0.2,1.1,0.4
	c0.3,0.2,0.7,0.5,0.9,0.8c0.2,0.3,0.4,0.7,0.5,1.1l3.1,11.4c0.1,0.4,0.1,0.8,0.1,1.2c-0.1,0.4-0.2,0.8-0.4,1.1
	c-0.2,0.3-0.5,0.6-0.8,0.9c-0.3,0.2-0.7,0.4-1.1,0.5C158.5,43.8,158.3,43.8,158,43.8z"/>
<path class="st1" d="M201.1,161.2c0,0,3.6-6.2,7.3-3.6c3.6,2.6-4.2,7.8-1,8.8c3.1,1,9.3-1.5,11.4,5.2c2.1,6.7-4.2,9.8-10.4,8.3
	C202.2,178.3,197,172.1,201.1,161.2z"/>
<path class="st0" d="M211.5,180.6c-1.1,0-2.2-0.1-3.2-0.4c-1.6-0.4-3.2-1.1-4.5-2.1c-1.3-1-2.4-2.3-3.2-3.8
	c-1.9-3.6-1.8-8.1,0.2-13.3V161c0.1-0.2,2.2-3.8,5-4.4c0.5-0.1,1-0.1,1.5,0c0.5,0.1,0.9,0.3,1.3,0.6c2.3,1.6,0.7,4.1-0.5,5.9
	c-0.6,1-1.3,2-1.1,2.5c0,0.1,0.1,0.2,0.5,0.3c1,0.2,2,0.3,3,0.3c3.1,0,7,0,8.6,5.1c1.1,3.5-0.1,5.6-1.2,6.8
	c-0.9,0.8-1.9,1.4-2.9,1.8C213.8,180.5,212.7,180.6,211.5,180.6z M201.4,161.4c-1.9,4.9-1.9,9.3-0.2,12.6c0.7,1.4,1.8,2.6,3,3.5
	c1.2,0.9,2.7,1.6,4.2,1.9c3.6,0.9,7.1,0.2,8.9-1.8c1.4-1.5,1.8-3.6,1-6.1c-1.4-4.6-4.8-4.6-7.9-4.6c-1.1,0.1-2.2-0.1-3.3-0.3
	c-0.2-0.1-0.4-0.2-0.6-0.3c-0.2-0.1-0.3-0.3-0.4-0.5c-0.3-0.8,0.4-1.9,1.2-3.1c1.4-2.2,2.3-3.8,0.7-4.9c-0.3-0.2-0.7-0.4-1.1-0.5
	c-0.4-0.1-0.8-0.1-1.2,0C203.6,157.9,201.6,161.1,201.4,161.4z"/>
<path class="st0" d="M216.1,179.5c-0.1,0-0.1,0-0.2-0.1c-0.1-0.1-0.1-0.1-0.2-0.2c0-0.1,0-0.2,0.1-0.3c4.4-6.6-2.7-11.6-3-11.8
	c-0.1-0.1-0.1-0.1-0.2-0.2c0-0.1,0-0.2,0.1-0.3c0,0,0.1-0.1,0.1-0.1c0,0,0.1,0,0.1-0.1c0,0,0.1,0,0.1,0c0,0,0.1,0,0.1,0.1
	c0.1,0.1,8,5.6,3.2,12.8c0,0.1-0.1,0.1-0.1,0.1C216.2,179.5,216.2,179.5,216.1,179.5z"/>
<path class="st1" d="M203.8,244.7L128,256.5c-5.1,0.8-10.2-3.4-11.5-9.4L77.1,65c-2.3-8.6,5.5-13.2,10.5-13.9l72.1-10.1
	c5.1-0.8,10.2,3.4,11.5,9.4l44.5,181.8C217,238.1,213.9,243.2,203.8,244.7z"/>
<path class="st0" d="M126.8,257c-4.8,0-9.4-4.1-10.7-9.8L76.7,65c-0.4-1.4-0.5-2.9-0.3-4.4c0.2-1.5,0.7-2.9,1.6-4.1
	c2.4-3.6,6.7-5.4,9.6-5.9l72.1-10.1c5.2-0.8,10.6,3.5,11.9,9.7L216.1,232c0.3,1.3,0.4,2.6,0.2,3.9c-0.2,1.3-0.7,2.6-1.4,3.7
	c-1.9,2.8-5.6,4.6-11,5.4L128,256.8C127.6,256.9,127.2,257,126.8,257z M161,41.2c-0.4,0-0.8,0-1.2,0.1L87.6,51.4
	c-2.8,0.4-6.9,2.1-9.1,5.6c-0.8,1.2-1.2,2.5-1.4,3.8s-0.1,2.8,0.3,4.1L116.8,247c1.3,5.8,6.2,9.9,11.1,9.1l75.9-11.8
	c5.1-0.8,8.6-2.5,10.4-5.1c0.7-1,1.1-2.2,1.3-3.4c0.2-1.2,0.1-2.4-0.2-3.6L170.9,50.4C169.7,45.1,165.4,41.2,161,41.2z"/>
<path class="st0" d="M209,242.6l-75.9,11.8c-5.1,0.8-10.2-3.4-11.5-9.4L82.2,62.9c-1.3-6,1.8-11.5,6.8-12.3l75.9-11.8
	c5.1-0.8,10.2,3.4,11.5,9.4l39.4,182.1C217.1,236.3,214.1,241.8,209,242.6z"/>
<path class="st0" d="M131.9,254.9c-4.8,0-9.4-4.1-10.7-9.8L81.9,63c-0.4-1.5-0.4-3.1-0.2-4.7c0.3-1.6,0.9-3.1,1.7-4.4
	c0.6-0.9,1.4-1.7,2.4-2.4c1-0.6,2-1,3.2-1.2l75.9-11.8c5.2-0.8,10.6,3.5,11.9,9.7l39.4,182.1c0.4,1.5,0.4,3.2,0.2,4.7
	c-0.3,1.6-0.8,3.1-1.7,4.4c-0.6,0.9-1.5,1.7-2.4,2.4c-1,0.6-2,1-3.2,1.2l-75.9,11.8C132.8,254.9,132.4,254.9,131.9,254.9z
	 M166.2,39.1c-0.4,0-0.8,0-1.2,0.1L89.1,51c-1,0.2-2,0.5-2.9,1.1c-0.9,0.6-1.6,1.3-2.2,2.2c-0.8,1.3-1.4,2.7-1.6,4.1
	c-0.2,1.5-0.2,3,0.2,4.4L122,244.9c1.3,5.8,6.2,9.9,11.1,9.1l75.9-11.8c1-0.2,2-0.5,2.9-1.1c0.9-0.6,1.6-1.3,2.2-2.2
	c0.8-1.3,1.4-2.7,1.6-4.1c0.2-1.5,0.2-3-0.2-4.4L176.1,48.3C174.9,43,170.6,39.1,166.2,39.1L166.2,39.1z"/>
<path class="st2" d="M209.4,221l-85.6,13.3L87.9,68.6l85.6-13.3L209.4,221z"/>
<path class="st0" d="M123.8,234.7c-0.1,0-0.2,0-0.2-0.1c-0.1-0.1-0.1-0.1-0.1-0.2L87.5,68.6c0-0.1,0-0.2,0.1-0.3
	c0,0,0.1-0.1,0.1-0.1c0,0,0.1,0,0.1-0.1l85.6-13.3c0.1,0,0.2,0,0.3,0.1c0.1,0.1,0.1,0.1,0.2,0.2l35.9,165.7c0,0.1,0,0.1,0,0.2
	c0,0.1,0,0.1-0.1,0.1c-0.1,0.1-0.2,0.1-0.3,0.2L123.8,234.7L123.8,234.7z M88.3,68.9l35.7,165l84.9-13.2l-35.7-165L88.3,68.9z"/>
<path class="st0" d="M136.6,106.6c0.9,4.2,0.3,7.8-1.2,8.1c-1.5,0.3-3.5-2.9-4.3-7.1c-0.9-4.2-0.3-7.8,1.2-8.1
	C133.8,99.3,135.7,102.4,136.6,106.6z"/>
<path class="st0" d="M155.4,103.1c0.9,4.2,0.3,7.8-1.2,8.1c-1.5,0.3-3.5-2.9-4.3-7.1c-0.9-4.2-0.3-7.8,1.2-8.1
	C152.6,95.8,154.5,98.9,155.4,103.1z"/>
<path class="st0" d="M145.8,140.2c-9,0-17.9-5.5-23.4-14.8c-0.2-0.3-0.2-0.7-0.1-1.1c0.1-0.4,0.4-0.7,0.7-0.8
	c0.3-0.2,0.7-0.3,1.1-0.2c0.4,0.1,0.7,0.3,0.9,0.6c5.7,9.6,15.2,14.7,24.2,13c8.8-1.6,15.5-9.5,17.1-20c0-0.2,0.1-0.4,0.2-0.6
	c0.1-0.2,0.2-0.3,0.4-0.4c0.2-0.1,0.3-0.2,0.5-0.3c0.2,0,0.4-0.1,0.6,0s0.4,0.1,0.6,0.2c0.2,0.1,0.3,0.2,0.4,0.4
	c0.1,0.2,0.2,0.3,0.3,0.5c0,0.2,0.1,0.4,0,0.6c-1.8,11.8-9.4,20.7-19.5,22.6C148.4,140.1,147.1,140.2,145.8,140.2z"/>
<path class="st1" d="M108.9,129.9l-3.9,7.9l0.7,0.3l3.9-7.9L108.9,129.9z"/>
<path class="st1" d="M141.6,63.3l-29.2,59.5l0.7,0.3l29.2-59.5L141.6,63.3z"/>
<path class="st1" d="M132.5,63.9l-12.2,23.3l0.7,0.4l12.2-23.3L132.5,63.9z"/>
<path class="st1" d="M189.8,195.9l-13.6,26.7l0.7,0.3l13.6-26.7L189.8,195.9z"/>
<path class="st1" d="M196.1,183.5l-4.2,8.3l0.7,0.3l4.2-8.3L196.1,183.5z"/>
<path class="st1" d="M140.9,52.5l-23.7,3.6c-0.5,0-1-0.1-1.4-0.5c-0.4-0.3-0.6-0.8-0.7-1.3c-0.1-0.2-0.1-0.4-0.1-0.7
	s0.1-0.5,0.2-0.7c0.1-0.2,0.2-0.4,0.4-0.5c0.2-0.2,0.4-0.3,0.6-0.3l0.2,0l23.6-3.6c0.5,0,1,0.1,1.4,0.5c0.4,0.3,0.6,0.8,0.7,1.3
	c0.1,0.4,0.1,0.9-0.1,1.3C141.8,52,141.4,52.3,140.9,52.5L140.9,52.5z"/>
<path class="st0" d="M117,56.6c-0.4,0-0.9-0.2-1.2-0.5c-0.4-0.3-0.6-0.6-0.8-1c-0.2-0.4-0.3-0.8-0.3-1.3c0-0.4,0.2-0.9,0.4-1.2
	c0.1-0.2,0.3-0.4,0.5-0.5c0.2-0.1,0.4-0.2,0.7-0.3l23.7-3.7c0.6,0,1.2,0.1,1.7,0.5c0.5,0.4,0.8,0.9,0.9,1.5c0.1,0.3,0.1,0.7,0,1
	c-0.1,0.3-0.2,0.6-0.4,0.9c-0.1,0.2-0.3,0.4-0.5,0.5c-0.2,0.1-0.4,0.2-0.7,0.3l-23.7,3.7C117.2,56.5,117.1,56.6,117,56.6z
	 M140.3,48.9h-0.2l-23.7,3.7c-0.3,0.1-0.5,0.2-0.7,0.5c-0.1,0.2-0.2,0.4-0.2,0.6c0,0.2,0,0.5,0,0.7c0.1,0.4,0.3,0.8,0.6,1
	c0.3,0.3,0.7,0.4,1.1,0.4l23.7-3.7c0.1,0,0.3-0.1,0.4-0.2c0.1-0.1,0.2-0.2,0.3-0.3c0.3-0.4,0.3-0.9,0.2-1.4
	c-0.1-0.5-0.4-0.9-0.8-1.1C140.7,49,140.5,48.9,140.3,48.9L140.3,48.9z"/>
<path class="st1" d="M171.2,234.6c-0.4-2-2.1-3.4-3.8-3.1c-1.7,0.3-2.7,2.1-2.3,4.1c0.4,2,2.1,3.4,3.8,3.1
	C170.6,238.4,171.7,236.6,171.2,234.6z"/>
<path class="st0" d="M168.6,239.1c-1.7,0-3.4-1.5-3.8-3.5c-0.1-0.6-0.1-1.1-0.1-1.7s0.3-1.1,0.6-1.6c0.2-0.3,0.5-0.6,0.9-0.9
	c0.3-0.2,0.7-0.4,1.1-0.4c1.9-0.3,3.8,1.2,4.3,3.4c0.1,0.5,0.2,1.1,0.1,1.7c-0.1,0.6-0.3,1.1-0.6,1.6c-0.2,0.3-0.5,0.6-0.9,0.9
	c-0.4,0.2-0.7,0.4-1.2,0.4C168.9,239.1,168.7,239.1,168.6,239.1z M167.8,231.8h-0.4c-0.3,0.1-0.6,0.2-0.9,0.3
	c-0.3,0.2-0.5,0.4-0.7,0.6c-0.2,0.4-0.4,0.8-0.5,1.3c-0.1,0.5-0.1,0.9,0.1,1.4c0.4,1.8,1.9,3.1,3.4,2.8c0.3,0,0.6-0.2,0.9-0.3
	c0.3-0.2,0.5-0.4,0.7-0.6c0.3-0.4,0.4-0.8,0.5-1.3s0.1-0.9-0.1-1.4c-0.1-0.7-0.5-1.4-1-1.9C169.3,232.2,168.6,231.9,167.8,231.8
	L167.8,231.8z"/>
<path class="st1" d="M161.1,174.3l-35,6c-2.3,0.4-3.8,2.3-3.4,4.2l4.5,21.6l0.1,0.6l2.4,11.3l6.6-9.2l30.9-5.3
	c2.3-0.4,3.8-2.3,3.4-4.2l-4.7-22.2C165.5,175.1,163.4,173.9,161.1,174.3z"/>
<path class="st0" d="M129.4,218.9l-7.2-34.3c-0.1-0.5-0.1-0.9,0-1.4c0.1-0.5,0.3-0.9,0.6-1.3c0.4-0.5,0.8-1,1.4-1.3
	c0.5-0.3,1.2-0.6,1.8-0.7l35-6c2.5-0.4,4.9,0.9,5.3,3l4.6,22.2c0.1,0.5,0.1,0.9,0,1.4c-0.1,0.5-0.3,0.9-0.6,1.3
	c-0.4,0.5-0.8,1-1.4,1.3c-0.5,0.3-1.2,0.6-1.8,0.7l-30.8,5.3L129.4,218.9z M161.9,174.6c-0.3,0-0.5,0-0.8,0.1l-35,6
	c-0.5,0.1-1,0.3-1.5,0.5c-0.5,0.3-0.9,0.6-1.2,1.1c-0.2,0.3-0.4,0.6-0.4,1c-0.1,0.4-0.1,0.7,0,1.1l6.8,32.6l6.2-8.7l31.1-5.3
	c1.1-0.2,2-0.8,2.6-1.6c0.2-0.3,0.4-0.6,0.4-1c0.1-0.4,0.1-0.7,0-1.1l-4.6-22.2C165.3,175.6,163.7,174.6,161.9,174.6z"/>
<path class="st2" d="M158.6,187.3c0-0.3,0-0.6-0.1-0.9v-0.2c-0.6-2.9-3.9-4.7-7.3-4.1c-2.7,0.5-4.7,2.3-5.1,4.5
	c-0.8-1-1.8-1.7-2.9-2.2c-1.2-0.4-2.4-0.5-3.6-0.3c-3.4,0.6-5.7,3.4-5.1,6.2c0,0-0.1,2.4,5.7,6c4.8,2.9,8.8,5.3,8.9,5.2
	c0.1,0.1,3-3.5,6.4-7.8c1.3-1.6,2.3-3.4,3-5.3c0.1-0.3,0.1-0.5,0.2-0.8C158.5,187.5,158.5,187.4,158.6,187.3z"/>
<path class="st0" d="M148.9,201.9c-0.1,0-0.1,0-0.1,0c-0.7-0.2-2.7-1.4-8.9-5.2c-5.5-3.4-5.9-5.9-5.9-6.3c-0.1-0.7-0.1-1.3,0-2
	c0.1-0.7,0.4-1.3,0.8-1.8c0.5-0.8,1.2-1.4,2-1.9c0.8-0.5,1.7-0.8,2.6-1c1.2-0.2,2.4-0.2,3.5,0.2c1.1,0.3,2.2,1,3,1.8
	c0.4-1.1,1.2-2,2.1-2.7c0.9-0.7,2-1.2,3.1-1.3c3.6-0.6,7.1,1.4,7.7,4.4v0.1c0.1,0.3,0.1,0.7,0.1,1c0,0.1,0,0.2,0,0.4
	c0,0.3-0.1,0.6-0.2,0.9c-0.7,2-1.7,3.8-3,5.4c-4.4,5.7-5.9,7.4-6.5,7.8c0,0-0.1,0.1-0.1,0.1C149,201.9,149,201.9,148.9,201.9
	L148.9,201.9z M140.7,184.3c-0.4,0-0.8,0-1.2,0.1c-0.8,0.1-1.6,0.4-2.3,0.8c-0.7,0.4-1.3,1-1.8,1.7c-0.3,0.5-0.6,1-0.7,1.6
	c-0.1,0.6-0.1,1.1,0,1.7v0.1c0,0,0.1,2.3,5.6,5.7c4.4,2.7,7.8,4.7,8.6,5.1c0.6-0.7,3.1-3.7,6.2-7.6c1.3-1.5,2.3-3.3,2.9-5.2
	c0.1-0.2,0.1-0.5,0.2-0.8v-0.3c0-0.3,0-0.5-0.1-0.8c0,0,0-0.1,0-0.1c-0.6-2.7-3.6-4.4-6.9-3.9c-2.5,0.4-4.4,2.1-4.8,4.1
	c0,0,0,0.1-0.1,0.1c0,0-0.1,0.1-0.1,0.1c0,0-0.1,0-0.1,0.1c0,0-0.1,0-0.1,0c0,0-0.1,0-0.1-0.1c0,0-0.1-0.1-0.1-0.1
	c-0.6-0.8-1.3-1.4-2.2-1.8C142.6,184.5,141.7,184.3,140.7,184.3z"/>
<path class="st1" d="M104.6,188.7c0,0-2.2-6.8-6.3-5.1c-4.1,1.7,2.4,8.5-0.9,8.8c-3.3,0.3-8.8-3.5-12.3,2.6
	c-3.5,6.1,1.9,10.5,8.3,10.3C99.9,205.1,106.3,200.2,104.6,188.7z"/>
<path class="st0" d="M93.1,205.6c-3.8,0-7.2-1.5-8.6-4c-0.8-1.4-1.5-3.7,0.3-6.9c2.7-4.6,6.5-3.8,9.5-3.2c1,0.3,2,0.4,3,0.4
	c0.4,0,0.5-0.2,0.5-0.2c0.3-0.4-0.1-1.5-0.5-2.6c-0.8-2-1.8-4.8,0.8-5.9c0.5-0.2,1-0.3,1.5-0.3c0.5,0,1,0.1,1.5,0.3
	c2.6,1.2,3.9,5.2,3.9,5.3v0.1c0.8,5.4-0.2,9.9-2.7,13c-1.1,1.3-2.4,2.3-3.9,3c-1.5,0.7-3.2,1.1-4.8,1.1L93.1,205.6z M90.7,191.8
	c-1.9,0-3.8,0.7-5.2,3.3c-1.3,2.2-1.4,4.3-0.3,6.1c1.4,2.3,4.6,3.7,8.3,3.6c1.6,0,3.1-0.4,4.5-1c1.4-0.7,2.7-1.6,3.7-2.8
	c2.4-2.9,3.3-7.2,2.6-12.3c-0.1-0.4-1.3-3.9-3.5-4.8c-0.4-0.2-0.7-0.2-1.1-0.2s-0.8,0.1-1.1,0.2c-1.8,0.8-1.3,2.5-0.4,4.9
	c0.5,1.4,0.9,2.6,0.5,3.3c-0.1,0.2-0.3,0.3-0.5,0.4s-0.4,0.2-0.6,0.2c-1.1,0-2.2-0.1-3.3-0.4C93,192,91.9,191.9,90.7,191.8z"/>
<path class="st0" d="M90.2,195.1c-0.2,0.8-0.8,1.4-1.2,1.3c-0.5-0.1-0.7-0.9-0.4-1.7c0.2-0.8,0.8-1.4,1.2-1.3
	C90.3,193.6,90.5,194.3,90.2,195.1z"/>
<path class="st0" d="M87.2,196.5c-0.2,0.8-0.8,1.4-1.2,1.3c-0.5-0.1-0.7-0.9-0.5-1.7c0.2-0.8,0.8-1.4,1.3-1.3
	C87.2,194.9,87.4,195.6,87.2,196.5z"/>
<path class="st0" d="M89.1,199.8c-0.2,0.8-0.8,1.4-1.2,1.3c-0.5-0.1-0.7-0.9-0.4-1.7c0.2-0.8,0.8-1.4,1.2-1.3
	C89.1,198.2,89.3,199,89.1,199.8z"/>
<path class="st0" d="M89.4,204.5c-0.1,0-0.1,0-0.2-0.1c-0.1,0-0.1-0.1-0.1-0.2c0,0,0-0.1,0-0.1c0,0,0-0.1,0-0.1c0,0,0-0.1,0.1-0.1
	c0,0,0.1-0.1,0.1-0.1c0.6-0.3,1.2-0.6,1.7-1.1c0.1-0.1,0.2-0.1,0.3-0.1c0.1,0,0.2,0.1,0.3,0.1c0.1,0.1,0.1,0.2,0.1,0.3
	c0,0.1,0,0.2-0.1,0.3c-0.6,0.5-1.2,0.9-1.9,1.2C89.5,204.5,89.5,204.5,89.4,204.5z"/>
<path class="st0" d="M92.2,202.3c-0.1,0-0.2,0-0.2-0.1c0,0-0.1-0.1-0.1-0.1s0-0.1,0-0.1c0,0,0-0.1,0-0.1c0,0,0-0.1,0.1-0.1
	c0.6-0.8,1-1.6,1.3-2.6c0.3-0.9,0.5-2,0.4-2.9c-0.1-1-0.4-2-0.8-2.9c-0.1-0.1-0.1-0.2,0-0.3c0-0.1,0.1-0.2,0.2-0.2
	c0.1,0,0.2-0.1,0.3,0c0.1,0,0.2,0.1,0.2,0.2c0.5,1,0.8,2,0.9,3.2c0.1,1.1,0,2.2-0.4,3.3c-0.3,1-0.8,2-1.4,2.8c0,0-0.1,0.1-0.1,0.1
	C92.3,202.3,92.3,202.3,92.2,202.3z"/>
</svg>
