<?xml version="1.0" encoding="UTF-8"?>
<svg id="Layer_1" data-name="Layer 1" xmlns="http://www.w3.org/2000/svg" width="60" height="65" viewBox="0 0 60 65">
  <defs>
    <style>
      .cls-1 {
        fill: #eece93;
        stroke: #eece93;
        stroke-miterlimit: 10;
      }
    </style>
  </defs>
  <path class="cls-1" d="M20.01,41.72l-13.49-14.37-.17-.21c-.25-.37-.38-.82-.34-1.28.03-.46.21-.89.51-1.21l13.49-14.37.19-.17c1.08-.88,2.67-.03,2.67,1.52v6.92l.68.05c10.69.92,16.95,8.25,18.44,21.54.19,1.71-1.61,2.78-2.78,1.64-4.29-4.15-8.73-6.73-13.34-7.77-.74-.17-1.48-.29-2.23-.38l-.77-.07v7.08c-.19,1.47-1.84,2.16-2.86,1.09ZM23.32,21.84l-3.46-.25v-6.61l-10.34,11.01,10.34,11.02v-7.01l4.07.4h.02c5.11.59,9.93,2.81,14.48,6.51-.89-4.35-2.42-7.62-4.43-9.97-2.49-2.91-5.97-4.69-10.69-5.1h0ZM43.5,13c1.99,0,3.9.86,5.3,2.38,1.41,1.52,2.2,3.59,2.2,5.75v26c0,2.15-.79,4.22-2.2,5.75-1.41,1.52-3.31,2.38-5.3,2.38h-24c-1.99,0-3.9-.86-5.3-2.38-1.41-1.52-2.2-3.59-2.2-5.75v-3.25c0-.43.16-.84.44-1.15.28-.3.66-.48,1.06-.48s.78.17,1.06.48c.28.3.44.72.44,1.15v3.25c0,1.29.47,2.53,1.32,3.45.84.91,1.99,1.43,3.18,1.43h24c1.19,0,2.34-.51,3.18-1.43.84-.91,1.32-2.15,1.32-3.45v-26c0-1.29-.47-2.53-1.32-3.45-.84-.91-1.99-1.43-3.18-1.43h-9c-.4,0-.78-.17-1.06-.48-.28-.3-.44-.72-.44-1.15s.16-.84.44-1.15c.28-.3.66-.48,1.06-.48h9Z"/>
</svg>