<?xml version="1.0" encoding="utf-8"?>
<!-- Generator: Adobe Illustrator 28.2.0, SVG Export Plug-In . SVG Version: 6.00 Build 0)  -->
<svg width="60" height="65" version="1.1" id="Layer_1" xmlns="http://www.w3.org/2000/svg" xmlns:xlink="http://www.w3.org/1999/xlink" x="0px" y="0px"
	 viewBox="0 0 60 65" style="enable-background:new 0 0 60 65;" xml:space="preserve">
<style type="text/css">
	.st0{fill:#024DDF;}
</style>
<path class="st0" d="M20,41.7L6.5,27.3l-0.2-0.2C6.1,26.8,6,26.3,6,25.9c0-0.5,0.2-0.9,0.5-1.2L20,10.3l0.2-0.2
	c1.1-0.9,2.7,0,2.7,1.5v6.9l0.7,0c10.7,0.9,17,8.2,18.4,21.5c0.2,1.7-1.6,2.8-2.8,1.6c-4.3-4.2-8.7-6.7-13.3-7.8
	c-0.7-0.2-1.5-0.3-2.2-0.4l-0.8-0.1v6.8l0,0.3C22.7,42.1,21,42.8,20,41.7z M23.3,21.8l-3.5-0.3V15L9.5,26l10.3,11v-7l4.1,0.4h0
	c5.1,0.6,9.9,2.8,14.5,6.5c-0.9-4.4-2.4-7.6-4.4-10C31.5,24,28,22.2,23.3,21.8L23.3,21.8z M43.5,13c2,0,3.9,0.9,5.3,2.4
	c1.4,1.5,2.2,3.6,2.2,5.7v26c0,2.2-0.8,4.2-2.2,5.7c-1.4,1.5-3.3,2.4-5.3,2.4h-24c-2,0-3.9-0.9-5.3-2.4c-1.4-1.5-2.2-3.6-2.2-5.7
	v-3.2c0-0.4,0.2-0.8,0.4-1.1c0.3-0.3,0.7-0.5,1.1-0.5s0.8,0.2,1.1,0.5c0.3,0.3,0.4,0.7,0.4,1.1v3.2c0,1.3,0.5,2.5,1.3,3.4
	c0.8,0.9,2,1.4,3.2,1.4h24c1.2,0,2.3-0.5,3.2-1.4c0.8-0.9,1.3-2.2,1.3-3.4v-26c0-1.3-0.5-2.5-1.3-3.4c-0.8-0.9-2-1.4-3.2-1.4h-9
	c-0.4,0-0.8-0.2-1.1-0.5c-0.3-0.3-0.4-0.7-0.4-1.1c0-0.4,0.2-0.8,0.4-1.1c0.3-0.3,0.7-0.5,1.1-0.5H43.5z"/>
</svg>
