<?xml version="1.0" encoding="utf-8"?>
<!-- Generator: Adobe Illustrator 28.2.0, SVG Export Plug-In . SVG Version: 6.00 Build 0)  -->
<svg width="48" height="48" version="1.1" id="Layer_1" xmlns="http://www.w3.org/2000/svg" xmlns:xlink="http://www.w3.org/1999/xlink" x="0px" y="0px"
	 viewBox="0 0 48 48" style="enable-background:new 0 0 48 48;" xml:space="preserve">
<style type="text/css">
	.st0{fill:#024DDF;}
</style>
<path class="st0" d="M25.8,19.5c0.6,1.8,2.2,3,4.2,3c2.5,0,4.5-2,4.5-4.5s-2-4.5-4.5-4.5c-2,0-3.6,1.2-4.2,3H7.5c-1.7,0-3,1.4-3,3v9
	H0v3h4.5v9c0,1.7,1.3,3,3,3h21c1.6,0,3-1.3,3-3v-6h-3v6h-21v-21H25.8z M30,16.5c0.9,0,1.5,0.6,1.5,1.5s-0.6,1.5-1.5,1.5
	s-1.5-0.6-1.5-1.5S29.1,16.5,30,16.5z"/>
<path class="st0" d="M43.5,16.5v-9c0-1.7-1.3-3-3-3h-21c-1.6,0-3,1.3-3,3v6h3v-6h21v21H22.2c-0.6-1.8-2.2-3-4.2-3
	c-2.6,0-4.5,2-4.5,4.5s1.9,4.5,4.5,4.5c2,0,3.6-1.2,4.2-3h18.3c1.7,0,3-1.4,3-3v-9H48v-3H43.5z M18,31.5c-0.9,0-1.5-0.6-1.5-1.5
	s0.6-1.5,1.5-1.5s1.5,0.6,1.5,1.5S18.9,31.5,18,31.5z"/>
</svg>
