<?xml version="1.0" encoding="UTF-8"?>
<svg id="Layer_1" data-name="Layer 1" xmlns="http://www.w3.org/2000/svg" width="48" height="48" viewBox="0 0 48 48">
  <defs>
    <style>
      .cls-1 {
        fill: #eece93;
        stroke-width: 0px;
      }
    </style>
  </defs>
  <path class="cls-1" d="M25.8,19.5c.6,1.8,2.25,3,4.2,3,2.55,0,4.5-1.95,4.5-4.5s-1.95-4.5-4.5-4.5c-1.95,0-3.6,1.2-4.2,3H7.5c-1.65,0-3,1.35-3,3v9H0v3h4.5v9c0,1.65,1.35,3,3,3h21c1.65,0,3-1.35,3-3v-6h-3v6H7.5v-21h18.3ZM30,16.5c.9,0,1.5.6,1.5,1.5s-.6,1.5-1.5,1.5-1.5-.6-1.5-1.5.6-1.5,1.5-1.5Z"/>
  <path class="cls-1" d="M43.5,16.5V7.5c0-1.65-1.35-3-3-3h-21c-1.65,0-3,1.35-3,3v6h3v-6h21v21h-18.3c-.6-1.8-2.25-3-4.2-3-2.55,0-4.5,1.95-4.5,4.5s1.95,4.5,4.5,4.5c1.95,0,3.6-1.2,4.2-3h18.3c1.65,0,3-1.35,3-3v-9h4.5v-3h-4.5ZM18,31.5c-.9,0-1.5-.6-1.5-1.5s.6-1.5,1.5-1.5,1.5.6,1.5,1.5-.6,1.5-1.5,1.5Z"/>
</svg>