<?xml version="1.0" encoding="utf-8"?>
<!-- Generator: Adobe Illustrator 28.2.0, SVG Export Plug-In . SVG Version: 6.00 Build 0)  -->
<svg width="810" height="636" version="1.1" id="Layer_1" xmlns="http://www.w3.org/2000/svg" xmlns:xlink="http://www.w3.org/1999/xlink" x="0px" y="0px"
	 viewBox="0 0 810 636" style="enable-background:new 0 0 810 636;" xml:space="preserve">
<style type="text/css">
	.st0{fill:#024DDF;}
	.st1{fill:none;stroke:#263238;stroke-width:0.827;stroke-linecap:round;stroke-linejoin:round;}
	.st2{opacity:0.8;fill:#FFFFFF;enable-background:new    ;}
	.st3{opacity:0.33;fill:#024DDF;}
	.st4{fill:#FFFFFF;}
	.st5{fill:#FFFFFF;stroke:#263238;stroke-width:0.827;stroke-linecap:round;stroke-linejoin:round;}
	.st6{opacity:0.6;}
	.st7{fill:#263238;}
	.st8{fill:none;stroke:#263238;stroke-width:0.6202;stroke-linecap:round;stroke-linejoin:round;}
	.st9{fill:#FB4A04;}
	.st10{opacity:0.9;enable-background:new    ;}
	.st11{fill:#024DDF;stroke:#263238;stroke-width:0.827;stroke-linecap:round;stroke-linejoin:round;}
	.st12{opacity:0.2;enable-background:new    ;}
	
		.st13{opacity:0.59;fill:none;stroke:#024DDF;stroke-width:0.6202;stroke-linecap:round;stroke-linejoin:round;enable-background:new    ;}
	.st14{fill:#024DDF;stroke:#263238;stroke-width:0.6202;stroke-linecap:round;stroke-linejoin:round;}
	.st15{opacity:0.1;enable-background:new    ;}
	.st16{fill:#FFFFFF;filter:url(#Adobe_OpacityMaskFilter);}
	.st17{opacity:0.5;mask:url(#mask0_415_1422_00000132787454236380024080000009857062145694293914_);}
	.st18{fill:none;stroke:#FFFFFF;stroke-width:0.6202;stroke-linecap:round;stroke-linejoin:round;}
	.st19{opacity:0.5;fill:#FFFFFF;stroke:#263238;stroke-miterlimit:10;enable-background:new    ;}
	.st20{opacity:0.5;}
	.st21{fill:none;stroke:#263238;stroke-miterlimit:10;}
	.st22{fill:#FFFFFF;filter:url(#Adobe_OpacityMaskFilter_00000007418245484907939180000018280500786721754531_);}
	.st23{mask:url(#mask1_415_1422_00000147199832417783808660000010561322945000081564_);}
	.st24{fill:none;stroke:#263238;stroke-width:0.827;stroke-miterlimit:10;}
	.st25{fill:#FFFFFF;filter:url(#Adobe_OpacityMaskFilter_00000171712308848225613210000004387388093014404748_);}
	.st26{mask:url(#mask2_415_1422_00000088852632443031366990000013214593132151821189_);}
	.st27{fill:#FFFFFF;filter:url(#Adobe_OpacityMaskFilter_00000062874714780795809250000011449635839200462235_);}
	.st28{opacity:0.5;mask:url(#mask3_415_1422_00000150804878745016147340000007920475099883000216_);}
	.st29{fill:#FFFFFF;filter:url(#Adobe_OpacityMaskFilter_00000156587022326001333590000014521184808454720699_);}
	.st30{opacity:0.5;mask:url(#mask4_415_1422_00000084509801060171846570000003442417106095667120_);}
	.st31{fill:#FFFFFF;filter:url(#Adobe_OpacityMaskFilter_00000183960745065617602720000016477051991596569264_);}
	.st32{opacity:0.5;mask:url(#mask5_415_1422_00000067203872455578100040000011087809760808478603_);}
	.st33{fill:#FFFFFF;filter:url(#Adobe_OpacityMaskFilter_00000156584916317016089950000008558641640292518589_);}
	.st34{opacity:0.44;mask:url(#mask6_415_1422_00000000901206965926392280000012824782521307040655_);}
	.st35{fill:#FFFFFF;filter:url(#Adobe_OpacityMaskFilter_00000007403132257340731720000004864415419689339010_);}
	.st36{opacity:0.5;mask:url(#mask7_415_1422_00000058565458149261388440000003524179421437751714_);}
	.st37{fill:#FFFFFF;filter:url(#Adobe_OpacityMaskFilter_00000036239317651557530040000010326449957657289611_);}
	.st38{mask:url(#mask8_415_1422_00000139280163509936468940000009771170545234981782_);}
	.st39{fill:#FFFFFF;filter:url(#Adobe_OpacityMaskFilter_00000112627934667759897380000007095517882730723514_);}
	.st40{mask:url(#mask9_415_1422_00000181076653443861097870000002125259519916991152_);}
	.st41{fill:#FFFFFF;filter:url(#Adobe_OpacityMaskFilter_00000041256336028144899390000013443954304678359425_);}
	.st42{opacity:0.5;mask:url(#mask10_415_1422_00000052098137356469638890000000273596000257264532_);}
	.st43{fill:#FFFFFF;filter:url(#Adobe_OpacityMaskFilter_00000026127440589670473360000017583310906368148401_);}
	.st44{mask:url(#mask11_415_1422_00000062170335875744508780000000017314090383023015_);}
	.st45{fill:#FFFFFF;filter:url(#Adobe_OpacityMaskFilter_00000118372679643683390310000004363126348026543546_);}
	.st46{opacity:0.5;mask:url(#mask12_415_1422_00000158722117330172037150000014438722291400245640_);}
	.st47{fill:#FFFFFF;filter:url(#Adobe_OpacityMaskFilter_00000055689398422119053610000005110279266924063363_);}
	.st48{mask:url(#mask13_415_1422_00000152958673087111657190000009829949935478710677_);}
	.st49{fill:#FFFFFF;filter:url(#Adobe_OpacityMaskFilter_00000075884177422621573220000018093112621431270286_);}
	.st50{opacity:0.5;mask:url(#mask14_415_1422_00000123431248055633373110000005837270299859983039_);}
	.st51{fill:#FFFFFF;filter:url(#Adobe_OpacityMaskFilter_00000158000929012824533350000016597977518499704217_);}
	.st52{opacity:0.5;mask:url(#mask15_415_1422_00000106137641406406722720000009912941590094881706_);}
</style>
<path class="st0" d="M322.4,579.9c10.9-24,27.7-61.4,29.1-65c2.1-5.4,7.6-76.4,7.6-76.4l-31.8-50.1l4.9,109.5l-20.5,77.7
	L322.4,579.9z"/>
<path class="st1" d="M359.1,438.4c0,0-5.5,71-7.6,76.4c-2.2,5.4-38.2,85-38.2,85l-6.9-4.1l25.8-97.9l-4.9-109.5L359.1,438.4z"/>
<path class="st0" d="M383.2,586c0.4-40,0.9-125.2-0.7-138.1c-2.1-17-12.4-74.7-12.4-74.7s-43.8-3.9-47,2.7
	c-4.8,9.8-0.6,21.7,7.6,31.6c7.1,8.7,21.1,43.1,21.1,43.1l20.5,136.2C375.9,587.1,379.6,586.8,383.2,586z"/>
<path class="st0" d="M699.6,89.8c0,0-2.6-38.1-55.9-39.5c-53.3-1.4-39,38.1-53.3,47.6c-14.3,9.5-18.2-5.5-32.5,4.1
	c-14.3,9.5-7.8,28.6-19.5,31.3c-11.7,2.8-27.3-12.3-41.6-2.7c-14.3,9.5-14.3,17.7-20.8,17.7s-19.5-5.4-27.3,0
	c-7.8,5.4-16.9,12.3-16.9,12.3h328.9c0,0,3.9-12.3-10.4-20.4c-14.3-8.2-20.8-1.4-26-8.2C719.1,125.2,738.6,107.6,699.6,89.8z"/>
<path class="st2" d="M699.6,89.8c0,0-2.6-38.1-55.9-39.5c-53.3-1.4-39,38.1-53.3,47.6c-14.3,9.5-18.2-5.5-32.5,4.1
	c-14.3,9.5-7.8,28.6-19.5,31.3c-11.7,2.8-27.3-12.3-41.6-2.7c-14.3,9.5-14.3,17.7-20.8,17.7s-19.5-5.4-27.3,0
	c-7.8,5.4-16.9,12.3-16.9,12.3h328.9c0,0,3.9-12.3-10.4-20.4c-14.3-8.2-20.8-1.4-26-8.2C719.1,125.2,738.6,107.6,699.6,89.8z"/>
<path class="st0" d="M403.6,27.3c0,0-1.8-26.3-38.6-27.3S338,26.4,328.1,33c-9.9,6.6-12.6-3.8-22.4,2.8c-9.9,6.6-5.5,19.8-13.5,21.6
	c-8,1.9-18.9-8.5-28.7-1.9c-9.9,6.6-9.9,12.2-14.4,12.2c-4.5,0-13.5-3.8-18.9,0c-5.4,3.8-11.7,8.5-11.7,8.5h227.1
	c0,0,2.7-8.5-7.2-14.1c-9.9-5.6-14.4-1-18-5.7C417,51.6,430.5,39.5,403.6,27.3z"/>
<path class="st2" d="M403.6,27.3c0,0-1.8-26.3-38.6-27.3S338,26.4,328.1,33c-9.9,6.6-12.6-3.8-22.4,2.8c-9.9,6.6-5.5,19.8-13.5,21.6
	c-8,1.9-18.9-8.5-28.7-1.9c-9.9,6.6-9.9,12.2-14.4,12.2c-4.5,0-13.5-3.8-18.9,0c-5.4,3.8-11.7,8.5-11.7,8.5h227.1
	c0,0,2.7-8.5-7.2-14.1c-9.9-5.6-14.4-1-18-5.7C417,51.6,430.5,39.5,403.6,27.3z"/>
<path class="st0" d="M216.3,97.7c0,0-1-14.1-20.7-14.6s-14.5,14.1-19.7,17.6c-5.2,3.5-6.7-2-12,1.5c-5.3,3.5-2.9,10.6-7.3,11.6
	c-4.4,1-10.1-4.5-15.4-1c-5.3,3.5-5.3,6.6-7.7,6.6c-2.4,0-7.3-2-10.1,0c-2.8,2-6.3,4.5-6.3,4.5h121.7c0,0,1.5-4.5-3.9-7.6
	s-7.7-0.5-9.6-3C223.5,110.7,230.8,104.2,216.3,97.7z"/>
<path class="st2" d="M216.3,97.7c0,0-1-14.1-20.7-14.6s-14.5,14.1-19.7,17.6c-5.2,3.5-6.7-2-12,1.5c-5.3,3.5-2.9,10.6-7.3,11.6
	c-4.4,1-10.1-4.5-15.4-1c-5.3,3.5-5.3,6.6-7.7,6.6c-2.4,0-7.3-2-10.1,0c-2.8,2-6.3,4.5-6.3,4.5h121.7c0,0,1.5-4.5-3.9-7.6
	s-7.7-0.5-9.6-3C223.5,110.7,230.8,104.2,216.3,97.7z"/>
<path class="st3" d="M616,626.4c0,4.8-33,8.7-73.6,8.7s-73.6-3.9-73.6-8.7s32.9-8.6,73.5-8.6C583,617.8,616,621.6,616,626.4z"/>
<path class="st3" d="M761,622.5c0,4.8-33,8.7-73.6,8.7c-40.7,0-73.6-3.8-73.6-8.7c0-4.9,33-8.7,73.6-8.7
	C728,613.8,761,617.7,761,622.5z"/>
<path class="st3" d="M329.1,625.6c40.7,0,73.6-3.9,73.6-8.7s-33-8.7-73.6-8.7c-40.7,0-73.6,3.9-73.6,8.7S288.5,625.6,329.1,625.6z"
	/>
<path class="st3" d="M164.2,632.7c40.7,0,73.6-3.9,73.6-8.7s-33-8.7-73.6-8.7c-40.7,0-73.6,3.9-73.6,8.7S123.5,632.7,164.2,632.7z"
	/>
<path class="st4" d="M773.8,531.1c0,0,10.5-5,12.9-8.5c2.4-3.4,4.3-2.2,3.2,1.9c-1.1,4.1-6.7,7.6-6.7,7.6"/>
<path class="st1" d="M773.8,531.1c0,0,10.5-5,12.9-8.5c2.4-3.4,4.3-2.2,3.2,1.9c-1.1,4.1-6.7,7.6-6.7,7.6"/>
<path class="st4" d="M735.7,576.3c0,0,3.6,13.7,5.7,19c2.1,5.3,3.4,7.8-0.9,11.3c-4.3,3.5-15.5,8.5-18.6,8.7c-3.1,0.1-7.3-7-5.3-7.1
	c1.7,0.1,3.5,0.5,5.1,1.1c0,0,6.2-2.2,8-4.9s-5.3-24.3-5.3-24.3"/>
<path class="st1" d="M735.7,576.3c0,0,3.6,13.7,5.7,19c2.1,5.3,3.4,7.8-0.9,11.3c-4.3,3.5-15.5,8.5-18.6,8.7c-3.1,0.1-7.3-7-5.3-7.1
	c1.7,0.1,3.5,0.5,5.1,1.1c0,0,6.2-2.2,8-4.9s-5.3-24.3-5.3-24.3"/>
<path class="st5" d="M667.1,563.2c0,0,5.8,3.8,1.2,16.5c-4.6,12.7-15,20.4-14.9,23.7c0.7,4.6,2.1,9,4.3,13c1.3,1.9,7.7,2.3,7.1,4.3
	c-0.6,2-0.5,2.7-4.3,2.8c-1.8,0.2-3.6-0.2-5.3-0.9c-1.7-0.7-3.2-1.9-4.3-3.3c-2.6-3.2-6.8-14.9-7.6-18.9c-0.8-3.9,5.9-12.1,7-16.8
	c1.1-4.7-3-14.4,1.8-20.6S664.4,560,667.1,563.2z"/>
<path class="st5" d="M752.1,523.4c-4-0.6-8-0.4-12,0.5c-5,1.5-18.2,4-40.8,4.9c-22.7,0.9-31.9-10-48.8-6.6
	c-16.9,3.3-24.3,25.4-23.2,37.9c1.1,12.5,7.6,18.2,5.2,22.3c-2.4,4.1-9.6-3.6-9.1,9.6c0.5,13.2,6.3,34.8,10.1,34
	c3.8-0.8,1.5-27.8,1.4-30.5s17.6-2.7,22.4-9.5c4.8-6.8,8.8-18.9,8.8-18.9s5.1,0.5,14.8,7.3c9.7,6.9,32.6,11.9,49,10
	c16.3-2,20.4-13.3,20.4-13.3l5.5-3.5L752.1,523.4z"/>
<path class="st5" d="M766.8,528.4c0,0-11.7-7.1-14.8-5c-3.1,2.1,1.5,40.9,3.5,44.2c1.6,2.6,5.9,2.7,30.7,0c1.8,0.2,3.5,0.7,5.1,1.5
	c2.1,1,4.4,1.3,6.6,0.9l6.9-1.1c0,0,6.1-4.9,3.5-8.7c-2.7-3.9-8.3-5.4-9.8-10.6c-1.5-5.2-8.9-16.4-8.9-16.4
	C782.4,529.9,774.7,528.3,766.8,528.4z"/>
<path class="st4" d="M785.1,536c3.4-0.2,6.8-0.9,10-2.1c4.2-1.9,6.7-4.7,6.9-0.8c0.1,3.9-4.9,11.3-8,13.1c-2.4,1-5,1.1-7.4,0.3"/>
<path class="st1" d="M785.1,536c3.4-0.2,6.8-0.9,10-2.1c4.2-1.9,6.7-4.7,6.9-0.8c0.1,3.9-4.9,11.3-8,13.1c-2.4,1-5,1.1-7.4,0.3"/>
<path class="st4" d="M718.1,569.7c0,0,1.8,15.8,4.7,24.3c2.9,8.5,15,29.8,18.8,31.7c3.9,1.8,11.5,4.2,12.6,0.2
	c1.1-4,0.5-4.6-3.4-5.8l-3.8-1.2c0,0-11.4-20-11.8-28.6c-0.3-8.5,3-22.6,3-22.6"/>
<path class="st1" d="M718.1,569.7c0,0,1.8,15.8,4.7,24.3c2.9,8.5,15,29.8,18.8,31.7c3.9,1.8,11.5,4.2,12.6,0.2
	c1.1-4,0.5-4.6-3.4-5.8l-3.8-1.2c0,0-11.4-20-11.8-28.6c-0.3-8.5,3-22.6,3-22.6"/>
<g class="st6">
	<path class="st0" d="M795.4,536.6c-12.3,0-10.2,4.5-14.1,3.7c-4-0.8,5.5-6.6-2.4-7.5c-7.9-0.8-18.4-2.3-18.4-2.3l-5.3-3.5
		c0,0-9,0.2-25,1.8c-16.1,1.6-29.7,1.9-42.3,3.4c-7.7,0.9-15.5,0.7-23.2-0.6c0,0,2.7-22.7-10.7-26c-13.4-3.3-15.8,27.3-15.8,27.3
		s-5.5,10.8-6.3,19c-0.9,8.3,7.9,19,7.1,24c-0.8,5-6.3,9.9-1.6,9.9s11.1,3.3,15.8-8.3c4.7-11.6,6.5-17.1,13.9-14.4
		c7.4,2.7,35.1,11.9,45.4,11.1c10.3-0.8,7.9,14.9,14.2,15.7c6.3,0.8,7.1-14.9,7.1-17.4c0-2.5,11.1-7.5,10.3-11.6
		c-0.8-4.1-10.1-14.1-8.7-20.7c1.4-6.6,12.4-10,12.4-10s0.7,21.2,6,25.1c5.4,3.9,8.5,10.5,14.8,3.9c6.3-6.6,5.7-12,11.9-12.4
		C786.6,546.5,807.7,536.6,795.4,536.6z M644.5,524.5c-3,0.9-2.9,0.7-3.6-2.8c-0.7-3.5,2.1-6.5,6.8-6.5s10.7,9,10.7,9
		C654.7,520.1,647.6,523.5,644.5,524.5L644.5,524.5z"/>
</g>
<path class="st4" d="M632,537.4c0,0,4.8-6.1-0.1-20.5c-4.9-14.4,6.7-23.4,17.4-25.2c10.7-1.8,20.7,12.4,22.9,21.6
	c2.2,9.2-1.2,19.2-7.5,18.2c-6.3-1.1-7.4-12.3-13.8-14.7c-6.4-2.4-11.2,5.1-9.1,8.3"/>
<path class="st1" d="M632,537.4c0,0,4.8-6.1-0.1-20.5c-4.9-14.4,6.7-23.4,17.4-25.2c10.7-1.8,20.7,12.4,22.9,21.6
	c2.2,9.2-1.2,19.2-7.5,18.2c-6.3-1.1-7.4-12.3-13.8-14.7c-6.4-2.4-11.2,5.1-9.1,8.3"/>
<g>
	<path class="st0" d="M664.6,531.5c0,0,2.7-22.7-10.7-26c-10.5-2.6-14.3,15.7-15.4,23.7l3.2-4c-0.4-0.7-0.5-1.5-0.4-2.3
		c-0.1-0.4-0.2-0.8-0.2-1.1c0-1.9,4-5.6,8.8-5.6c2.3,0,5.9,5,5.9,5c-0.6-0.6,1.6,2.1,0.9,1.9C659,526.7,660.9,530.9,664.6,531.5z"/>
</g>
<path class="st7" d="M793.3,564.1c2.4,1.2,4.6,2.8,6.6,4.5L793.3,564.1z"/>
<path class="st1" d="M793.3,564.1c2.4,1.2,4.6,2.8,6.6,4.5"/>
<path class="st7" d="M798.5,551c0,1.3-0.3,2.3-0.9,2.4c-0.5,0-1-1-1-2.3c-0.1-1.3,0.3-2.3,0.9-2.3C798,548.7,798.5,549.7,798.5,551z
	"/>
<path class="st7" d="M809,562.3c0,1.3-0.3,2.3-0.9,2.3c-0.5,0-1-1-1-2.3c-0.1-1.3,0.3-2.3,0.9-2.3C808.5,560,808.9,561,809,562.3z"
	/>
<path class="st8" d="M786.3,567.6l-5.7-2.5"/>
<path class="st8" d="M637.1,522.4c0,0,1.6-8.9,4.2-10.5"/>
<path class="st8" d="M644.5,513.5c0,0,2.1-4.4,5.8-4.4"/>
<path class="st8" d="M650.9,512.9c1.5-0.8,3.3-1,4.9-0.6s3.1,1.4,4.2,2.8"/>
<path class="st8" d="M657.8,516.3c0,0,5.3,3.8,5.3,7.7"/>
<path class="st8" d="M672,565.1c2.6,1,5.4,1,7.9,0c4.2-1.7,6.3-2.2,6.3-2.2"/>
<path class="st8" d="M693.2,560.6l-3.2,1.7"/>
<path class="st8" d="M681,568.3c0,0,5.8,1.1,9.1-1.1"/>
<path class="st8" d="M698.5,576.7c0,0,7.9,1.7,11.6,0.6"/>
<path class="st8" d="M720.2,529.6c0,0-6.4,2.8-7.9,5l-1.6,2.2"/>
<path class="st8" d="M709.6,532.3c0,0-4.2,5-4.8,7.2"/>
<path class="st8" d="M703.3,535.1l-3.7,4.4"/>
<path class="st8" d="M752.3,538.7c0.6,1.8,1.7,3.4,3.1,4.6c1.5,1.1,3.2,1.8,5.1,1.8"/>
<path class="st8" d="M755.7,547.4c0,0,5.3,2.2,8.5,1.1"/>
<path class="st8" d="M650.9,532.3c0,0-6.3,3.8-4.2,10.5"/>
<path class="st8" d="M642.4,541.8c0,0,1.6,11.1,11.6,11.7"/>
<path class="st9" d="M582.8,394.4c-1.1,5.7-2,11.4-2.5,17.1c0,4,20.8,79.3,20.8,90.5c0,11.2,8.8,109,8.8,109l-14.5,3.3
	c0,0-12-46.9-17.7-64.1c-5.7-17.2-8.2-46.9-8.2-46.9l-13.2-49.5c0,0-10.7-22.5-15.8-31.1c-5.1-8.6-9.5-15.2-8.8-22.5
	c0.6-7.2,7.6-11.9,7.6-11.9L582.8,394.4z"/>
<path class="st10" d="M582.8,394.4c-1.1,5.7-2,11.4-2.5,17.1c0,4,20.8,79.3,20.8,90.5c0,11.2,8.8,109,8.8,109l-14.5,3.3
	c0,0-12-46.9-17.7-64.1c-5.7-17.2-8.2-46.9-8.2-46.9l-13.2-49.5c0,0-10.7-22.5-15.8-31.1c-5.1-8.6-9.5-15.2-8.8-22.5
	c0.6-7.2,7.6-11.9,7.6-11.9L582.8,394.4z"/>
<path class="st11" d="M610.7,425.6c0,0-5.8,3.4-4.5,7.4c1.3,4.1,8.4,9.5,12.2,10.8c3.9,1.3,18-6.7,19.3-12.1
	c1.3-5.4-2.6-15.5-5.1-16.8l-2.6-1.4L610.7,425.6z"/>
<path class="st1" d="M633.2,436.9l118.9,86.5"/>
<path class="st7" d="M748,523.5c0,0-0.3,7.8-0.3,18c0,10.1,5.6,26.9,5.6,26.9l2.2-0.9c0,0-3.3-24-3.3-28.7c0-4.7,0.4-15.6,0.4-15.6
	L748,523.5z"/>
<path class="st11" d="M754.1,523.8c0,0-10.7-10.8-13.5-10.8c-2.8,0-3.6,2.1-2.4,3.8c1.3,1.7,9.8,6.8,9.8,6.8
	S751.3,527.9,754.1,523.8z"/>
<path class="st12" d="M754.1,523.8c0,0-10.7-10.8-13.5-10.8c-2.8,0-3.6,2.1-2.4,3.8c1.3,1.7,9.8,6.8,9.8,6.8
	S751.3,527.9,754.1,523.8z"/>
<path class="st5" d="M619,400.5c0,0,6.4,7.4,7.7,9.5c1.7,3.8,2.8,7.9,3.2,12.1c0,2.7-10.9,8.8-14.8,8.1c-3.9-0.7-6.5-6.1-7.1-8.1
	c-0.6-2-3.2-8.8-3.2-8.8L619,400.5z"/>
<path class="st9" d="M521,391c-1,8.2-0.6,16.5,1.3,24.5c3.1,11.9,8.2,22.5,8.2,24.4c0,2-3.8,59.5-4.4,61.5
	c-0.6,2-43.5,103.1-42.9,105c0.6,1.9,10.1,5.9,10.1,5.9s63.1-91.8,66.2-96.5c3.1-4.6,14.5-87.2,16.4-91.8c1.8-4.6,3.9-34.3,3.9-34.3
	S536.8,388.4,521,391z"/>
<path class="st10" d="M521,391c-1,8.2-0.6,16.5,1.3,24.5c3.1,11.9,8.2,22.5,8.2,24.4c0,2-3.8,59.5-4.4,61.5
	c-0.6,2-43.5,103.1-42.9,105c0.6,1.9,10.1,5.9,10.1,5.9s63.1-91.8,66.2-96.5c3.1-4.6,14.5-87.2,16.4-91.8c1.8-4.6,3.9-34.3,3.9-34.3
	S536.8,388.4,521,391z"/>
<path class="st13" d="M578.3,414.2l-10.6,62.1"/>
<path class="st13" d="M558.7,405.9c-1.6,3.2-3.6,6.1-5.8,8.9c-1.4,1.6-3.3,2.7-5.3,3.3"/>
<path class="st13" d="M545.5,404.8c0,0,0.5,16.1,1.1,22.7c0.6,11.1,0.3,22.2-1.1,33.3c-1.6,16.1-1.6,23.9-1.6,23.9"/>
<path class="st5" d="M609.9,611.1c0,0,23.3,4,23.3,6.6c0,2.6-35.9,15.2-37.8,11.9c-1.9-3.3,0-15.2,0-15.2L609.9,611.1z"/>
<path class="st5" d="M483.2,606.4c0,0-8.8,10.6-8.2,13.2c0.6,2.6,10.7,7.9,15.8,8.6c5,0.6,16.4,0.7,19.6-1.3c3.2-2-6.9-4.6-9.5-7.3
	c-2.5-2.6-7.6-7.3-7.6-7.3L483.2,606.4z"/>
<path class="st14" d="M510.3,626.9c0,0-13.5-0.3-19.3-1.9c-5.8-1.6-14.3-7.8-14.3-7.8l-0.9-0.3c-0.5,0.8-0.8,1.8-0.8,2.8
	c0.6,2.6,10.7,7.9,15.8,8.6C495.8,629,507.1,628.9,510.3,626.9z"/>
<path class="st14" d="M611.1,623.8c-6.3,2.8-14.3,1.7-15.9,1.7h-0.7c0,1.4,0.3,2.7,0.8,4c1.8,3.3,37.8-9.3,37.8-11.9
	c0-0.4-0.5-0.8-1.4-1.2l-1.2,0.2C630.7,616.6,617.5,621.1,611.1,623.8z"/>
<path class="st7" d="M659.1,257.4l3.6,1.7c0.5,0.2,1,0.6,1.3,1c0.4,0.4,0.6,0.9,0.7,1.5c0.1,0.6,0.1,1.1,0,1.7
	c-0.1,0.6-0.4,1.1-0.7,1.5l-16.4,21.8c-0.3,0.4-0.6,0.7-1,0.9c-0.4,0.2-0.8,0.4-1.3,0.4c-0.4,0-0.9,0-1.3-0.2
	c-0.4-0.1-0.8-0.4-1.2-0.7l-2.8-2.6c-0.6-0.6-1-1.4-1.1-2.2c-0.1-0.9,0.1-1.7,0.6-2.4l15-21.1c0.5-0.7,1.2-1.2,2-1.4
	C657.5,257,658.3,257.1,659.1,257.4z"/>
<path class="st5" d="M623.5,294.7c0,0,4.5-3.4,5.1-5.4s-0.6-4,2.6-8.8c2.4-3.2,5.5-5.7,9.1-7.4c0,0,2.6-4,4.5-3.4
	c1.9,0.7,2.6,2,1.3,4.7c-1.5,2.6-3.2,5.1-5.1,7.4c0,0,13.6-7.5,16.6-6.1c1.7,0.8-1.2,5.1-1.2,5.1s-3.8,10.4-5.8,12.4
	c-1.9,2-23.2,12.1-23.2,12.1L623.5,294.7z"/>
<path class="st4" d="M614.5,412v4.1l4.5,2c0,0-7.7,11.4-3.9,12.1c3.9,0.7,9.6-8.1,10.3-10.1c0.3-2.2,0.3-4.5,0-6.7"/>
<path class="st1" d="M614.5,412v4.1l4.5,2c0,0-7.7,11.4-3.9,12.1c3.9,0.7,9.6-8.1,10.3-10.1c0.3-2.2,0.3-4.5,0-6.7"/>
<path class="st1" d="M608.1,422.1l10.9-4"/>
<path class="st11" d="M588.1,337.8c0,0,13.5,31.7,16.1,36.4c2.6,4.7,16.7,22.3,17.4,24.9c0.7,2.7-10.9,11.4-14.2,14.2l-3.2,2.7
	c0,0-9.7-8.1-9.7-11.4c0-3.3-10.3-28.3-10.9-30.3c-0.6-2-6.4-22.8-6.4-22.8S577.9,333.1,588.1,337.8z"/>
<path class="st15" d="M588.1,337.8c0,0,13.5,31.7,16.1,36.4c2.6,4.7,16.7,22.3,17.4,24.9c0.7,2.7-10.9,11.4-14.2,14.2l-3.2,2.7
	c0,0-9.7-8.1-9.7-11.4c0-3.3-10.3-28.3-10.9-30.3c-0.6-2-6.4-22.8-6.4-22.8S577.9,333.1,588.1,337.8z"/>
<path class="st11" d="M566.3,248.8l10.9,12.1c0,0,3.9,9.5,1.9,10.1l-1.9,0.7c0,0,16.1,80.2,19.3,96.4c3.2,16.2,5.1,25.6,3.9,29
	c-1.3,3.4-7.7,3.4-7.7,3.4l-13.5-4l-18.7-142.9C560.4,253.6,558.5,244.1,566.3,248.8z"/>
<path class="st15" d="M566.3,248.8l10.9,12.1c0,0,3.9,9.5,1.9,10.1l-1.9,0.7c0,0,16.1,80.2,19.3,96.4c3.2,16.2,5.1,25.6,3.9,29
	c-1.3,3.4-7.7,3.4-7.7,3.4l-13.5-4l-18.7-142.9C560.4,253.6,558.5,244.1,566.3,248.8z"/>
<path class="st8" d="M612.7,388.7l-9.5,6.7"/>
<path class="st4" d="M605.1,213.5c0.3-2.6,0.6-5.2,0.8-7.8c0.7-9.6-0.9-20-9.1-25.6c-8.2-5.7-24.1-7.4-32.3-0.8
	c-7.1,5.7-10.6,15.3-10.9,24.5c-0.3,4,0.6,8,2.4,11.5c1.6,3.5,4.9,7.5,3.9,11.7c-1.2,4.9-10.4,16.1-10.4,16.1l11.1,14.9
	c2.9-3.7,6.5-6.8,10.4-9.3c3.9-2.4,8.3-3.6,12.8-3.4c5.2,3.1,11.2,4.2,13,1.7c1.5-2.2,4-9.9,6.1-19.9c0.9,0.2,1.9,0.1,2.8-0.2
	c0.9-0.4,1.6-1,2.1-1.9C609.1,222.4,606,215.3,605.1,213.5z"/>
<defs>
	<filter id="Adobe_OpacityMaskFilter" filterUnits="userSpaceOnUse" x="551.4" y="190.7" width="52.6" height="56.5">
		<feColorMatrix  type="matrix" values="1 0 0 0 0  0 1 0 0 0  0 0 1 0 0  0 0 0 1 0"/>
	</filter>
</defs>
<mask maskUnits="userSpaceOnUse" x="551.4" y="190.7" width="52.6" height="56.5" id="mask0_415_1422_00000132787454236380024080000009857062145694293914_">
	<path class="st16" d="M605.1,213.5c0.3-2.6,0.6-5.2,0.8-7.8c0.7-9.6-0.9-20-9.1-25.6c-8.2-5.7-24.1-7.4-32.3-0.8
		c-7.1,5.7-10.6,15.3-10.9,24.5c-0.3,4,0.6,8,2.4,11.5c1.6,3.5,4.9,7.5,3.9,11.7c-1.2,4.9-10.4,16.1-10.4,16.1l11.1,14.9
		c2.9-3.7,6.5-6.8,10.4-9.3c3.9-2.4,8.3-3.6,12.8-3.4c5.2,3.1,11.2,4.2,13,1.7c1.5-2.2,4-9.9,6.1-19.9c0.9,0.2,1.9,0.1,2.8-0.2
		c0.9-0.4,1.6-1,2.1-1.9C609.1,222.4,606,215.3,605.1,213.5z"/>
</mask>
<g class="st17">
	<g>
		<path class="st0" d="M604.1,191.7c0,0-15.2,0.4-15.5,2.3c-0.2,1.6-0.4,3.3-0.4,4.9c0,0-4.7-7.2,2.5-7.9
			C595.2,190.5,599.7,190.7,604.1,191.7z"/>
	</g>
	<g>
		<path class="st0" d="M551.4,240.6l6.8,6.6l11.9-25l-10.9-0.3c0.7,1.6,0.9,3.3,0.5,5C559,230.4,554.2,237.1,551.4,240.6z"/>
	</g>
</g>
<path class="st1" d="M605.1,213.5c0.3-2.6,0.6-5.2,0.8-7.8c0.7-9.6-0.9-20-9.1-25.6c-8.2-5.7-24.1-7.4-32.3-0.8
	c-7.1,5.7-10.6,15.3-10.9,24.5c-0.3,4,0.6,8,2.4,11.5c1.6,3.5,4.9,7.5,3.9,11.7c-1.2,4.9-10.4,16.1-10.4,16.1l11.1,14.9
	c2.9-3.7,6.5-6.8,10.4-9.3c3.9-2.4,8.3-3.6,12.8-3.4c5.2,3.1,11.2,4.2,13,1.7c1.5-2.2,4-9.9,6.1-19.9c0.9,0.2,1.9,0.1,2.8-0.2
	c0.9-0.4,1.6-1,2.1-1.9C609.1,222.4,606,215.3,605.1,213.5z"/>
<path class="st7" d="M575.4,211c0,0,6,0.8,6.8-2.1c0.8-2.9,2.4-4.2,5.9-5.8c3.6-1.7-0.8-5-1.6-9.1c-0.8-4.2,11.9-4.2,19.4-2.1
	c7.5,2.1,15.5,2.1,13.5-8.7c-2-10.8-9.9-8.7-13.9-8.7c-4,0,4-7.9-4.4-10.8c-8.3-2.9-9.9,2.1-10.7,5c-0.8,2.9-4.8,2.9-8.3,2.9
	c-3.6,0-7.2-4.6-20.7,0.8c-13.5,5.4-15.9,24.1-12.7,35.4s5,16.7,11,19.4c6.1,2.7,15.6-9.4,15.6-12.7L575.4,211z"/>
<path class="st18" d="M584.7,192.9c0,0,0.5-2.2-5.3,2.8c-5.8,5-7.9,10-16.4,10.5"/>
<path class="st18" d="M555.6,212.9c0,0,6.3,2.8,10,0"/>
<path class="st7" d="M601.2,207.6l-1.8,11.4c-0.1,0.4,0,0.9,0.2,1.3c0.2,0.4,0.6,0.7,1,0.8l0.6,0.2l1.8-11.4c0.1-0.4,0-0.9-0.3-1.3
	c-0.2-0.4-0.6-0.7-1-0.8L601.2,207.6z"/>
<path class="st7" d="M601.2,207.6c0,0-29.2-0.6-30.9,0c-1.2,1.5-2.2,3.2-3.1,5c-0.5,1.6,0.9,1.3,1.8,0.5c0.9-0.9,2.3-4.2,3.1-4.3
	c0.8-0.2,28.7,1.7,28.7,1.7l0.7-2.6L601.2,207.6z"/>
<path class="st4" d="M580,212.8c0,0-0.8-10-7.1-3.3s-1.6,14.1,1.6,15c0.9,0.2,1.9,0,2.8-0.4c0.9-0.5,1.6-1.2,2-2.1"/>
<path class="st1" d="M580,212.8c0,0-0.8-10-7.1-3.3s-1.6,14.1,1.6,15c0.9,0.2,1.9,0,2.8-0.4c0.9-0.5,1.6-1.2,2-2.1"/>
<path class="st4" d="M598.8,235.5c0,0-6.7-1.2-6.7-3.8L598.8,235.5z"/>
<path class="st1" d="M598.8,235.5c0,0-6.7-1.2-6.7-3.8"/>
<path class="st4" d="M594.1,213.4c0,0,4.3,0.3,4.8,2.9L594.1,213.4z"/>
<path class="st1" d="M594.1,213.4c0,0,4.3,0.3,4.8,2.9"/>
<path class="st4" d="M595.7,203.9c0,0,4-4.2,6.4-0.4L595.7,203.9z"/>
<path class="st1" d="M595.7,203.9c0,0,4-4.2,6.4-0.4"/>
<path class="st8" d="M574.5,224.4c0,0,0.7,8.4,3.9,13.4"/>
<path class="st11" d="M550.1,237.2l20.2,23c0,0,6.9,51.6,13.2,90.5c6.3,39,6.3,52.9,6.3,52.9c-13,1.2-26.1,1.2-39.1,0
	c-13-1.4-25.9-3.8-38.5-7.3c0,0,5.7-90.5,10.1-115.6c3.9-22.3,22.4-40,26.3-43.6c0.2-0.2,0.5-0.3,0.7-0.3
	C549.6,236.9,549.9,237,550.1,237.2z"/>
<path class="st19" d="M550.1,237.2l20.2,23c0,0,6.9,51.6,13.2,90.5c6.3,39,6.3,52.9,6.3,52.9c-13,1.2-26.1,1.2-39.1,0
	c-13-1.4-25.9-3.8-38.5-7.3c0,0,5.7-90.5,10.1-115.6c3.9-22.3,22.4-40,26.3-43.6c0.2-0.2,0.5-0.3,0.7-0.3
	C549.6,236.9,549.9,237,550.1,237.2z"/>
<path class="st11" d="M541.8,243.7c0,0,16.4,25.1,18.3,27.1c1.9,2,10.1-10.6,10.1-10.6s-17.7-22.5-20.8-23.8
	C546.2,235.1,541.8,243.7,541.8,243.7z"/>
<path class="st0" d="M557.1,281.1c4.2,6.1,13.7,39.2,13.7,39.2s46.4-26.1,49.6-26.1c3.9-1.4,7.1,5.4,10.3,14.8
	c3.2,9.4,1.3,10.8,1.3,10.8l-20,4.6c-21.8,14.6-56.2,38.2-57.9,36.4c-2.6-2.7-12.2-28.3-17.4-40.5c-5.2-12.1-5.8-26.3-1.9-36.4
	c1-2.6,2.1-5.1,3.4-7.6c0,0,5.6-6.5,8.8-5.1"/>
<path class="st1" d="M557.1,281.1c4.2,6.1,13.7,39.2,13.7,39.2s46.4-26.1,49.6-26.1c3.9-1.4,7.1,5.4,10.3,14.8
	c3.2,9.4,1.3,10.8,1.3,10.8l-20,4.6c-21.8,14.6-56.2,38.2-57.9,36.4c-2.6-2.7-12.2-28.3-17.4-40.5c-5.2-12.1-5.8-26.3-1.9-36.4
	c1-2.6,2.1-5.1,3.4-7.6c0,0,5.6-6.5,8.8-5.1"/>
<g class="st20">
	<path class="st4" d="M557.1,281.1c4.2,6.1,13.7,39.2,13.7,39.2s46.4-26.1,49.6-26.1c3.9-1.4,7.1,5.4,10.3,14.8
		c3.2,9.4,1.3,10.8,1.3,10.8l-20,4.6c-21.8,14.6-56.2,38.2-57.9,36.4c-2.6-2.7-12.2-28.3-17.4-40.5c-5.2-12.1-5.8-26.3-1.9-36.4
		c1-2.6,2.1-5.1,3.4-7.6c0,0,5.6-6.5,8.8-5.1"/>
	<path class="st21" d="M557.1,281.1c4.2,6.1,13.7,39.2,13.7,39.2s46.4-26.1,49.6-26.1c3.9-1.4,7.1,5.4,10.3,14.8
		c3.2,9.4,1.3,10.8,1.3,10.8l-20,4.6c-21.8,14.6-56.2,38.2-57.9,36.4c-2.6-2.7-12.2-28.3-17.4-40.5c-5.2-12.1-5.8-26.3-1.9-36.4
		c1-2.6,2.1-5.1,3.4-7.6c0,0,5.6-6.5,8.8-5.1"/>
</g>
<path class="st5" d="M624.4,317.9c1.1,0,1.9-0.9,1.9-2s-0.9-2-1.9-2c-1.1,0-1.9,0.9-1.9,2S623.3,317.9,624.4,317.9z"/>
<path class="st8" d="M602.8,306.6l6.4,13.8"/>
<path class="st8" d="M570.8,320.3c0,0-6.6,5.2-7.5,10"/>
<path class="st8" d="M564.5,322.3c0,0-6.1,5.1-5.8,11.6"/>
<path class="st8" d="M574.6,295h-8.5"/>
<path class="st8" d="M576.7,306.1h-8.5"/>
<path class="st8" d="M515.3,388.2c10.1,2.9,20.3,4.9,30.7,6.1l15.9,1.7"/>
<path class="st8" d="M568.3,395.9l14.5-1.6"/>
<path class="st8" d="M578.9,351.5l4.2,31.6"/>
<path class="st8" d="M540.2,273.4c0,0,3.2-13.3,7.4-17.7"/>
<path class="st8" d="M551.3,259.5l-4.8,5.6"/>
<path class="st0" d="M742.9,188.9H670c-4.1,0-7.4,3.5-7.4,7.7v30.9c0,4.3,3.3,7.7,7.4,7.7h72.9c4.1,0,7.4-3.5,7.4-7.7v-30.9
	C750.2,192.4,746.9,188.9,742.9,188.9z"/>
<path class="st0" d="M662.6,223.1V248l13.2-16"/>
<path class="st4" d="M693.2,213c0-0.9-0.3-1.9-0.8-2.7c-0.5-0.8-1.2-1.4-2-1.8c-0.8-0.4-1.7-0.5-2.6-0.3c-0.9,0.2-1.7,0.6-2.3,1.3
	c-0.6,0.7-1.1,1.5-1.2,2.4c-0.2,0.9-0.1,1.9,0.3,2.8c0.3,0.9,0.9,1.6,1.7,2.1c0.8,0.5,1.6,0.8,2.5,0.8c1.2,0,2.3-0.5,3.2-1.4
	C692.7,215.4,693.2,214.2,693.2,213z"/>
<path class="st4" d="M712.6,213c0-0.9-0.3-1.9-0.8-2.7c-0.5-0.8-1.2-1.4-2-1.8c-0.8-0.4-1.7-0.5-2.6-0.3c-0.9,0.2-1.7,0.6-2.3,1.3
	c-0.6,0.7-1.1,1.5-1.2,2.4c-0.2,0.9-0.1,1.9,0.3,2.8c0.3,0.9,0.9,1.6,1.7,2.1c0.7,0.5,1.6,0.8,2.5,0.8c1.2,0,2.3-0.5,3.2-1.4
	C712.1,215.4,712.6,214.2,712.6,213z"/>
<path class="st4" d="M732.1,213c0-0.9-0.3-1.9-0.8-2.6s-1.2-1.4-2-1.8c-0.8-0.4-1.7-0.5-2.6-0.3c-0.9,0.2-1.7,0.6-2.3,1.3
	c-0.6,0.7-1.1,1.5-1.2,2.4c-0.2,0.9-0.1,1.9,0.3,2.8c0.3,0.9,0.9,1.6,1.7,2.1c0.7,0.5,1.6,0.8,2.5,0.8c1.2,0,2.4-0.5,3.2-1.4
	C731.6,215.4,732.1,214.2,732.1,213z"/>
<path class="st8" d="M525.9,314.4l10.7,5.9"/>
<path class="st8" d="M523.8,326c0,0,10,0.6,13.8-2.2"/>
<path class="st13" d="M546.6,504.6c0,0-20.1-2.8-14.8,0.6c4.2,2.4,8.6,4.2,13.2,5.5h-12.2"/>
<path class="st1" d="M370.1,373.1c0,0,10.2,57.7,12.4,74.7c2.1,17,0.5,159.3,0.5,159.3l-7.9,1.2l-23.4-157.8c0,0-13.9-34.5-21-43.1
	c-8.2-9.9-12.3-21.8-7.6-31.6C326.3,369.2,370.1,373.1,370.1,373.1z"/>
<path class="st8" d="M344.2,379.4c0,0-3.8,4-1.3,6.2c2.5,2.2,12.7-0.9,9.8,1.3c-3,2.2-14.4,9.8-8.1,8.9c6.4-0.9,14-1.8,11,1.3
	c-3,3.1-4.3,3.1-2.1,8c2.1,4.9,5.1,15.1,5.1,15.1"/>
<path class="st8" d="M360,424.4l3.8,11.1"/>
<path class="st8" d="M347.6,469.7c0,0-1.7,29.4-3,33.8c-1.3,4.5-7.6-0.9-5.1,2.7c2.5,3.6,5.5,4.9,4.3,5.3c-1.2,0.4-5.1-0.4-5.1,1.3
	c0,1.8-4.3,16-4.3,16"/>
<path class="st4" d="M383,607.2c0,0,21.4,5.7,20.7,7.9c-0.7,2.2-24.7,6.1-26.3,5.9c-1.7-0.2-2.2-12.7-2.2-12.7L383,607.2z"/>
<defs>
	
		<filter id="Adobe_OpacityMaskFilter_00000098218349075320383660000010477386356787294081_" filterUnits="userSpaceOnUse" x="376.2" y="613.5" width="27.7" height="7.7">
		<feColorMatrix  type="matrix" values="1 0 0 0 0  0 1 0 0 0  0 0 1 0 0  0 0 0 1 0"/>
	</filter>
</defs>
<mask maskUnits="userSpaceOnUse" x="376.2" y="613.5" width="27.7" height="7.7" id="mask1_415_1422_00000147199832417783808660000010561322945000081564_">
	<path style="fill:#FFFFFF;filter:url(#Adobe_OpacityMaskFilter_00000098218349075320383660000010477386356787294081_);" d="
		M383,607.2c0,0,21.4,5.7,20.7,7.9c-0.7,2.2-24.7,6.1-26.3,5.9c-1.7-0.2-2.2-12.7-2.2-12.7L383,607.2z"/>
</mask>
<g class="st23">
	<g>
		<path class="st0" d="M377.5,621.2c1.7,0.2,25.7-3.8,26.3-5.9c0.1-0.5-0.7-1.1-2.2-1.8l-25.5,3.6
			C376.4,619.3,376.9,621.1,377.5,621.2z"/>
	</g>
</g>
<path class="st24" d="M383,607.2c0,0,21.4,5.7,20.7,7.9c-0.7,2.2-24.7,6.1-26.3,5.9c-1.7-0.2-2.2-12.7-2.2-12.7L383,607.2z"/>
<path class="st4" d="M313.3,599.9c1.1,1.7,2.3,3.3,3.8,4.7c1.7,1.3,8,4,8,5.7s-12.7,2.7-15.3,2.2s-5.5-5.7-8-7.6
	c-2.6-1.9,4.6-9.2,4.6-9.2C308.7,597.2,311,598.6,313.3,599.9z"/>
<defs>
	
		<filter id="Adobe_OpacityMaskFilter_00000002381559177117474640000002511368111507541683_" filterUnits="userSpaceOnUse" x="301.4" y="601.3" width="23.9" height="11.4">
		<feColorMatrix  type="matrix" values="1 0 0 0 0  0 1 0 0 0  0 0 1 0 0  0 0 0 1 0"/>
	</filter>
</defs>
<mask maskUnits="userSpaceOnUse" x="301.4" y="601.3" width="23.9" height="11.4" id="mask2_415_1422_00000088852632443031366990000013214593132151821189_">
	<path style="fill:#FFFFFF;filter:url(#Adobe_OpacityMaskFilter_00000002381559177117474640000002511368111507541683_);" d="
		M313.3,599.9c1.1,1.7,2.3,3.3,3.8,4.7c1.7,1.3,8,4,8,5.7s-12.7,2.7-15.3,2.2s-5.5-5.7-8-7.6c-2.6-1.9,4.6-9.2,4.6-9.2
		C308.7,597.2,311,598.6,313.3,599.9z"/>
</mask>
<g class="st26">
	<g>
		<path class="st0" d="M325.3,610.4c0-0.4-0.4-0.9-1-1.4c-4.1,0.4-9.5,0.8-11.8,0c-2.3-0.8-7.3-4.9-10.2-7.6c-0.9,1.5-1.2,3-0.3,3.6
			c2.5,1.8,5.5,7.1,8,7.6C312.6,613.1,325.3,612.1,325.3,610.4z"/>
	</g>
</g>
<path class="st1" d="M313.3,599.9c1.1,1.7,2.3,3.3,3.8,4.7c1.7,1.3,8,4,8,5.7s-12.7,2.7-15.3,2.2s-5.5-5.7-8-7.6
	c-2.6-1.9,4.6-9.2,4.6-9.2C308.7,597.2,311,598.6,313.3,599.9L313.3,599.9z"/>
<path class="st8" d="M433,275.3c0,0,6.4-2.2,7.3-4.5c0.7-2.5,1.1-5,1.3-7.6C441.6,263.2,433.4,272.2,433,275.3z"/>
<path class="st5" d="M420.1,261.7c0,0-6.8,11.7-6.8,13c0,1.3-31.2,30-31.2,30s-7.3,4.5-8.5,7.2s-0.9,19.2,0.9,19.7
	c1.7,0.4,41.4-50.6,43.6-51.4c2.2-0.8,9.4-3.6,9.4-3.6l6.9-8.9L420.1,261.7z"/>
<path class="st7" d="M440.4,250.7l3.5,1.6c0.5,0.2,0.9,0.5,1.2,0.9c0.3,0.4,0.6,0.9,0.7,1.4c0.1,0.5,0.1,1.1,0,1.6
	c-0.1,0.5-0.3,1-0.6,1.4l-15.4,20.6c-0.3,0.4-0.6,0.6-1,0.9c-0.4,0.2-0.8,0.3-1.2,0.4c-0.4,0-0.9,0-1.3-0.1s-0.8-0.4-1.1-0.7
	l-2.6-2.4c-0.6-0.5-1-1.3-1-2.1c-0.1-0.8,0.1-1.6,0.6-2.3l14.2-20c0.4-0.6,1.1-1.1,1.8-1.3C439,250.3,439.7,250.4,440.4,250.7z"/>
<path class="st5" d="M423.9,258c0,0,6.9,7.6,6.4,9.4c-0.4,1.8-2.6,3.1-3.9,1.8c-1.3-1.4-6-5.4-6.4-7.6c-0.1-0.5-0.1-1.1,0-1.6
	c0.2-0.5,0.4-1,0.8-1.4c0.4-0.4,0.9-0.6,1.4-0.7C422.9,257.8,423.4,257.8,423.9,258z"/>
<path class="st4" d="M381.6,286.8c-3-8.1-7.7-35.8-7.7-35.8c-3.4-6.3-12-15.7-15.8-17c-3.8-1.3-0.9,0-4.7,2.7
	c-3.9,2.7-12.8,18.8-19.2,41.2c-2.1,7.2-4.6,18.4-7,30.2c-3.5,11.9-5.8,24.2-6.9,36.7c-1.7,10-2.9,17.4-2.9,18.7
	c0.1,0.7,0.3,1.4,0.7,2c0.4,0.6,1,1.1,1.6,1.4c0,14.5,0.2,21.1,0.2,21.1s10.2-8.5,15.3-10.7c4.7-1.7,9.6-2.3,14.5-1.6
	c4.9,0.7,9.6,2.6,13.6,5.6c7.8,5.4,14,10.2,14.9,8c0.9-2.2-1.1-10-2.5-16.5c-1.7-7.6-4.7-29.8-4.7-29.8c0-5.4,5.5-32.4,8.1-36.5
	c1.9-2.8,3.1-6.1,3.5-9.5C383.1,293.5,382.7,290,381.6,286.8z"/>
<defs>
	
		<filter id="Adobe_OpacityMaskFilter_00000119100545011248183150000018389239659095256232_" filterUnits="userSpaceOnUse" x="317.5" y="233.4" width="49.9" height="154.5">
		<feColorMatrix  type="matrix" values="1 0 0 0 0  0 1 0 0 0  0 0 1 0 0  0 0 0 1 0"/>
	</filter>
</defs>
<mask maskUnits="userSpaceOnUse" x="317.5" y="233.4" width="49.9" height="154.5" id="mask3_415_1422_00000150804878745016147340000007920475099883000216_">
	<path style="fill:#FFFFFF;filter:url(#Adobe_OpacityMaskFilter_00000119100545011248183150000018389239659095256232_);" d="
		M381.6,286.8c-3-8.1-7.7-35.8-7.7-35.8c-3.4-6.3-12-15.7-15.8-17c-3.8-1.3-0.9,0-4.7,2.7c-3.9,2.7-12.8,18.8-19.2,41.2
		c-2.1,7.2-4.6,18.4-7,30.2c-3.5,11.9-5.8,24.2-6.9,36.7c-1.7,10-2.9,17.4-2.9,18.7c0.1,0.7,0.3,1.4,0.7,2c0.4,0.6,1,1.1,1.6,1.4
		c0,14.5,0.2,21.1,0.2,21.1s10.2-8.5,15.3-10.7c4.7-1.7,9.6-2.3,14.5-1.6c4.9,0.7,9.6,2.6,13.6,5.6c7.8,5.4,14,10.2,14.9,8
		c0.9-2.2-1.1-10-2.5-16.5c-1.7-7.6-4.7-29.8-4.7-29.8c0-5.4,5.5-32.4,8.1-36.5c1.9-2.8,3.1-6.1,3.5-9.5
		C383.1,293.5,382.7,290,381.6,286.8z"/>
</mask>
<g class="st28">
	<g>
		<path class="st0" d="M338.7,332.9L324,361.1c0,0,13-42.1,14.2-58.6c1.2-16.4,16.2-43.2,20.1-49.8c3.9-6.7,4.9-8.7,4.9-8.7l4.2-2
			c-3.4-3.9-7.1-7.3-9.3-8.1c-3.9-1.4-0.9,0-4.7,2.7c-3.9,2.7-12.8,18.8-19.2,41.2c-2.1,7.2-4.6,18.4-7,30.2
			c-3.5,11.9-5.8,24.2-6.9,36.7c-1.7,10-2.9,17.4-2.9,18.7c0.1,0.7,0.3,1.4,0.8,2c0.4,0.6,1,1.1,1.6,1.4c0,14.5,0.2,21.1,0.2,21.1
			c4.2-3.5,8.7-6.7,13.3-9.7c-0.2-1.3-0.5-2.6-0.9-3.8c-0.6-2.2-0.8-4.5-0.6-6.8c0.3-2.3,0.9-4.5,2-6.5c4.3-5.7,9.1-11,14.2-15.9
			c4.4-4.1-13.2-3.1-9.3-5.7c3.9-2.6,21.1-11.3,24-14.4C365.7,322,338.7,332.9,338.7,332.9z"/>
	</g>
</g>
<path class="st1" d="M381.6,286.8c-3-8.1-7.7-35.8-7.7-35.8c-3.4-6.3-12-15.7-15.8-17c-3.8-1.3-0.9,0-4.7,2.7
	c-3.9,2.7-12.8,18.8-19.2,41.2c-2.1,7.2-4.6,18.4-7,30.2c-3.5,11.9-5.8,24.2-6.9,36.7c-1.7,10-2.9,17.4-2.9,18.7
	c0.1,0.7,0.3,1.4,0.7,2c0.4,0.6,1,1.1,1.6,1.4c0,14.5,0.2,21.1,0.2,21.1s10.2-8.5,15.3-10.7c4.7-1.7,9.6-2.3,14.5-1.6
	c4.9,0.7,9.6,2.6,13.6,5.6c7.8,5.4,14,10.2,14.9,8c0.9-2.2-1.1-10-2.5-16.5c-1.7-7.6-4.7-29.8-4.7-29.8c0-5.4,5.5-32.4,8.1-36.5
	c1.9-2.8,3.1-6.1,3.5-9.5C383.1,293.5,382.7,290,381.6,286.8L381.6,286.8z"/>
<path class="st8" d="M368.4,272.2c0,0,0,4.9,1.7,5.7c1.7,0.8,5.9-0.4,5.1,3.1c-0.9,3.6-1.3,6.2,0.4,7.6c1.3,0.9,2.7,1.5,4.2,1.8"/>
<g class="st20">
	<g>
		<path class="st0" d="M349.4,305.1c0,0,12.9,0.9,16.5-0.6s-6.9-15.1-6.9-15.1L349.4,305.1z"/>
	</g>
</g>
<path class="st4" d="M367.1,209.9c2.6,9.7-2.9,22.8-8.1,25.6c-1.6,0.8,3.8,8.8,8,14.1l3.6,6.6l1.7,8.9l2.5-0.4c0,0-2.2-9.5-0.9-13.7
	c1.3-4.2,2.2-6.2,2.2-6.2c2-4.1,5.2-7.4,9.1-9.5C385.9,226.9,366,205.9,367.1,209.9z"/>
<defs>
	
		<filter id="Adobe_OpacityMaskFilter_00000006688270225015649440000016500851858690522508_" filterUnits="userSpaceOnUse" x="358.1" y="227.4" width="21.7" height="16.6">
		<feColorMatrix  type="matrix" values="1 0 0 0 0  0 1 0 0 0  0 0 1 0 0  0 0 0 1 0"/>
	</filter>
</defs>
<mask maskUnits="userSpaceOnUse" x="358.1" y="227.4" width="21.7" height="16.6" id="mask4_415_1422_00000084509801060171846570000003442417106095667120_">
	<path style="fill:#FFFFFF;filter:url(#Adobe_OpacityMaskFilter_00000006688270225015649440000016500851858690522508_);" d="
		M367.1,209.9c2.6,9.7-2.9,22.8-8.1,25.6c-1.6,0.8,3.8,8.8,8,14.1l3.6,6.6l1.7,8.9l2.5-0.4c0,0-2.2-9.5-0.9-13.7
		c1.3-4.2,2.2-6.2,2.2-6.2c2-4.1,5.2-7.4,9.1-9.5C385.9,226.9,366,205.9,367.1,209.9z"/>
</mask>
<g class="st30">
	<g>
		<path class="st0" d="M379.8,239.3l-12.4,2.7l-4.2,2l-5.2-5.3l11.1-11.3L379.8,239.3z"/>
	</g>
</g>
<path class="st1" d="M367.1,209.9c2.6,9.7-2.9,22.8-8.1,25.6c-1.6,0.8,3.8,8.8,8,14.1l3.6,6.6l1.7,8.9l2.5-0.4c0,0-2.2-9.5-0.9-13.7
	c1.3-4.2,2.2-6.2,2.2-6.2c2-4.1,5.2-7.4,9.1-9.5C385.9,226.9,366,205.9,367.1,209.9z"/>
<path class="st4" d="M395.3,180.2c6,3.2,12.6,8.5,12.6,16.1c0,13.3-5.2,18.7-5.2,22.1c0,3.4,4.3,7.8,2.7,9.5
	c-1.6,1.7-5.3,1.1-5.3,1.1c-2.5,4.9-5.4,9.5-8.5,14c-3.2,3.9-9.1-1.7-15.5-6.7c-6.4-5-9.6-9.5-9.6-19c0-9.5-4.5-16.5-0.5-25.8
	c1.2-2.8,2.9-5.3,5-7.4c2.1-2.1,4.7-3.7,7.4-4.8c2.8-1.1,5.7-1.5,8.6-1.4C389.8,178.1,392.7,178.9,395.3,180.2z"/>
<defs>
	
		<filter id="Adobe_OpacityMaskFilter_00000008117892781457818770000009081599291058386590_" filterUnits="userSpaceOnUse" x="364.2" y="177.9" width="43.7" height="61.4">
		<feColorMatrix  type="matrix" values="1 0 0 0 0  0 1 0 0 0  0 0 1 0 0  0 0 0 1 0"/>
	</filter>
</defs>
<mask maskUnits="userSpaceOnUse" x="364.2" y="177.9" width="43.7" height="61.4" id="mask5_415_1422_00000067203872455578100040000011087809760808478603_">
	<path style="fill:#FFFFFF;filter:url(#Adobe_OpacityMaskFilter_00000008117892781457818770000009081599291058386590_);" d="
		M395.3,180.2c6,3.2,12.6,8.5,12.6,16.1c0,13.3-5.2,18.7-5.2,22.1c0,3.4,4.3,7.8,2.7,9.5c-1.6,1.7-5.3,1.1-5.3,1.1
		c-2.5,4.9-5.4,9.5-8.5,14c-3.2,3.9-9.1-1.7-15.5-6.7c-6.4-5-9.6-9.5-9.6-19c0-9.5-4.5-16.5-0.5-25.8c1.2-2.8,2.9-5.3,5-7.4
		c2.1-2.1,4.7-3.7,7.4-4.8c2.8-1.1,5.7-1.5,8.6-1.4C389.8,178.1,392.7,178.9,395.3,180.2z"/>
</mask>
<g class="st32">
	<g>
		<path class="st0" d="M395.3,180.2c-2.6-1.3-5.5-2.1-8.4-2.3c-2.9-0.2-5.9,0.3-8.6,1.4c-2.8,1.1-5.3,2.7-7.4,4.8
			c-2.1,2.1-3.8,4.6-5,7.4c-3.9,9.3,0.5,16.3,0.5,25.8c0,9.5,3.2,14,9.6,19l3.8,3c-5.5-3.7-3.8-15.3-3.8-19c0-3.7,5.9-4.6,10.8-6.7
			c3.7-1.6,15.2-6.7,20.4-9.1c0.5-2.7,0.8-5.5,0.8-8.3C407.9,188.7,401.4,183.4,395.3,180.2z"/>
	</g>
</g>
<path class="st1" d="M395.3,180.2c6,3.2,12.6,8.5,12.6,16.1c0,13.3-5.2,18.7-5.2,22.1c0,3.4,4.3,7.8,2.7,9.5
	c-1.6,1.7-5.3,1.1-5.3,1.1c-2.5,4.9-5.4,9.5-8.5,14c-3.2,3.9-9.1-1.7-15.5-6.7c-6.4-5-9.6-9.5-9.6-19c0-9.5-4.5-16.5-0.5-25.8
	c1.2-2.8,2.9-5.3,5-7.4c2.1-2.1,4.7-3.7,7.4-4.8c2.8-1.1,5.7-1.5,8.6-1.4C389.8,178.1,392.7,178.9,395.3,180.2L395.3,180.2z"/>
<path class="st4" d="M393.5,234.4c0,0-3.8-0.9-4.7-3.1L393.5,234.4z"/>
<path class="st1" d="M393.5,234.4c0,0-3.8-0.9-4.7-3.1"/>
<path class="st4" d="M399,217l-1.3,2.2c-0.7,0.1-1.4,0.1-2.1-0.2c-0.7-0.2-1.3-0.6-1.8-1.2"/>
<path class="st1" d="M399,217l-1.3,2.2c-0.7,0.1-1.4,0.1-2.1-0.2c-0.7-0.2-1.3-0.6-1.8-1.2"/>
<path class="st4" d="M393.5,213c0,0,4.3-4,6.8-2.2L393.5,213z"/>
<path class="st1" d="M393.5,213c0,0,4.3-4,6.8-2.2"/>
<path class="st1" d="M257.6,463.1l39.1-45.8l6.8,50.3"/>
<path class="st11" d="M310.7,468l-62.9-5.8l-22.5,72.5l97.3,10.2L310.7,468z"/>
<path class="st1" d="M296.3,413.7L273.3,468"/>
<path class="st1" d="M299.2,419l9.8,53.4"/>
<path class="st7" d="M317.1,473.8l-55.6-6.7l-19.5,79.7l81.3,7.6L317.1,473.8z"/>
<path class="st7" d="M425.4,210.4c-2.5-15.1-16.1-30.7-16.1-30.7c-2.9-3.3-6.5-5.7-10.6-7.1c-11-4-26.3-4.5-38.7,6.2
	c-12.3,10.7-14.5,32.5-18.7,44.1c-4.2,11.6-6.8,19.1-5.9,23.1c0.9,4,12.7-2.7,14.9-2.2c2.1,0.4,0.4,3.1,4.3,3.1s8.9-7.1,11-7.1
	c2.1,0,8.8,0.8,10.5-3.4c1.8-4.2-8-18-4.6-24.2c0,0,2.1,0.9,17-3.6c6.7-1.8,13.1-4.4,19.3-7.6c-1,10.1-5,14.6-5,17.5
	c0,3.3,4.3,7.8,2.7,9.5c-1.6,1.7-5.3,1.1-5.3,1.1c-2.5,4.9-5.4,9.5-8.5,14c-2.6,3.1-6.9,0.2-11.7-3.7c-1.5,1.5-2.8,3.3-3.6,5.3
	c0,0-0.5,1.2-1.3,3.5c1.2,1.9,3,3.3,5.1,4c4.7,0.9,7.3-1.8,9.3-3.1c2.1-1.3,6.4,0.9,10.6,0c4.3-0.9,3.4-4.9,5.1-7.1
	c1.7-2.2,4.7,3.6,8.1,0C416.5,238.6,427.9,225.5,425.4,210.4z"/>
<path class="st18" d="M407.6,181.7c2.2,3.2,9.6,10,7,13.3c-1.8,2.1-4.1,3.8-6.5,5"/>
<path class="st18" d="M405.4,190.9c0,0-17.4,12.8-26.5,14.1c-9.1,1.4-20-2.3-20-2.3"/>
<path class="st18" d="M400.2,178.1c-4.1,6.4-9.4,11.8-15.7,16c-5.6,3.7-12.1,5.8-18.7,5.9"/>
<path class="st4" d="M374.8,214.8c0,0-3-10.7-5.9-9.3c-3,1.3-3.4,6.7-2.1,11.1s4.2,4,5.9,2.7"/>
<path class="st1" d="M374.8,214.8c0,0-3-10.7-5.9-9.3c-3,1.3-3.4,6.7-2.1,11.1s4.2,4,5.9,2.7"/>
<g>
	<path class="st4" d="M374.8,214.8c0,0-3-10.7-5.9-9.3c-3,1.3-3.4,6.7-2.1,11.1s4.2,4,5.9,2.7"/>
</g>
<defs>
	
		<filter id="Adobe_OpacityMaskFilter_00000003088135306089063990000016399944420558448536_" filterUnits="userSpaceOnUse" x="366.1" y="205.3" width="8.8" height="14.8">
		<feColorMatrix  type="matrix" values="1 0 0 0 0  0 1 0 0 0  0 0 1 0 0  0 0 0 1 0"/>
	</filter>
</defs>
<mask maskUnits="userSpaceOnUse" x="366.1" y="205.3" width="8.8" height="14.8" id="mask6_415_1422_00000000901206965926392280000012824782521307040655_">
	<path style="fill:#FFFFFF;filter:url(#Adobe_OpacityMaskFilter_00000003088135306089063990000016399944420558448536_);" d="
		M374.8,214.8c0,0-3-10.7-6-9.3c-3,1.3-3.4,6.7-2.1,11.1c1.3,4.5,4.3,4,6,2.7"/>
</mask>
<g class="st34">
	<g>
		<path class="st0" d="M374.9,214.8c0,0-3-10.7-6-9.3c-3,1.3-3.4,6.7-2.1,11.1c1.3,4.5,4.3,4,6,2.7"/>
	</g>
</g>
<path class="st4" d="M364.1,254.6c-4.5-4-11.5-2.3-14.5,6.1c-5.1,13.6-10.2,27.3-15.4,40.9c-5.1,13.3-25.4,78.8-27.3,83.6
	c-1.8,4.9-5.5,17.3-5.5,17.3s-8.5,6.7-8.5,8c0,1.3,2.1,6.2,3.8,6.7c2.6,0.1,5.1-0.7,7.3-2.2c1.7-1.4,2.5-4,4.7-10.7
	c0,0,12.7-35.6,21.2-46.7c8.5-11.1,15.3-40,17-43.2c5.7-9.5,10.8-19.3,15.3-29.4c2.8-6.6,6.7-14.4,5.9-21.9
	C367.8,259.9,366.4,256.8,364.1,254.6z"/>
<defs>
	
		<filter id="Adobe_OpacityMaskFilter_00000057866627717416462090000001187225351054712976_" filterUnits="userSpaceOnUse" x="293" y="252.5" width="73.3" height="162.2">
		<feColorMatrix  type="matrix" values="1 0 0 0 0  0 1 0 0 0  0 0 1 0 0  0 0 0 1 0"/>
	</filter>
</defs>
<mask maskUnits="userSpaceOnUse" x="293" y="252.5" width="73.3" height="162.2" id="mask7_415_1422_00000058565458149261388440000003524179421437751714_">
	<path style="fill:#FFFFFF;filter:url(#Adobe_OpacityMaskFilter_00000057866627717416462090000001187225351054712976_);" d="
		M364.1,254.6c-4.5-4-11.5-2.3-14.5,6.1c-5.1,13.6-10.2,27.3-15.4,40.9c-5.1,13.3-25.4,78.8-27.3,83.6c-1.8,4.9-5.5,17.3-5.5,17.3
		s-8.5,6.7-8.5,8c0,1.3,2.1,6.2,3.8,6.7c2.6,0.1,5.1-0.7,7.3-2.2c1.7-1.4,2.5-4,4.7-10.7c0,0,12.7-35.6,21.2-46.7
		c8.5-11.1,15.3-40,17-43.2c5.7-9.5,10.8-19.3,15.3-29.4c2.8-6.6,6.7-14.4,5.9-21.9C367.8,259.9,366.4,256.8,364.1,254.6z"/>
</mask>
<g class="st36">
	<g>
		<path class="st0" d="M365.9,256.8c-0.5-0.8-1.1-1.6-1.8-2.3c-4.5-4-11.5-2.3-14.5,6.1c-5.1,13.6-10.2,27.3-15.4,40.9
			c-5.1,13.3-25.4,78.8-27.3,83.6c-1.8,4.9-5.5,17.3-5.5,17.3s-8.5,6.7-8.5,8c0.3,1.5,0.8,2.9,1.5,4.1c1-0.8,1.8-2,2.2-3.3
			c0.3-2.2,6.9-6.7,8.3-10.3c1.5-3.6,26.5-65.2,27.5-71.4c1-6.2,15.2-52.4,19.6-60.6c4.4-8.2,14.2-10.8,14.2-10.8L365.9,256.8z"/>
	</g>
</g>
<path class="st1" d="M364.1,254.6c-4.5-4-11.5-2.3-14.5,6.1c-5.1,13.6-10.2,27.3-15.4,40.9c-5.1,13.3-25.4,78.8-27.3,83.6
	c-1.8,4.9-5.5,17.3-5.5,17.3s-8.5,6.7-8.5,8c0,1.3,2.1,6.2,3.8,6.7c2.6,0.1,5.1-0.7,7.3-2.2c1.7-1.4,2.5-4,4.7-10.7
	c0,0,12.7-35.6,21.2-46.7c8.5-11.1,15.3-40,17-43.2c5.7-9.5,10.8-19.3,15.3-29.4c2.8-6.6,6.7-14.4,5.9-21.9
	C367.8,259.9,366.4,256.8,364.1,254.6L364.1,254.6z"/>
<path class="st4" d="M302.2,410.1c-1.3,1.7-2.8,3.4-4.3,4.9c-1.6,2-2.7,4.5-3,7.1c0,0,0.9,2.7,2.1,1.3c1.3-1.3,4.2-5.3,4.2-5.3
	c1.8-0.6,3.3-1.9,4.3-3.6c2.1-3.1,3-10.2,3-10.2"/>
<path class="st1" d="M302.2,410.1c-1.3,1.7-2.8,3.4-4.3,4.9c-1.6,2-2.7,4.5-3,7.1c0,0,0.9,2.7,2.1,1.3c1.3-1.3,4.2-5.3,4.2-5.3
	c1.8-0.6,3.3-1.9,4.3-3.6c2.1-3.1,3-10.2,3-10.2"/>
<path class="st9" d="M379.8,239.3l0.2,0.2C380.2,239.6,380.1,239.6,379.8,239.3z"/>
<path class="st8" d="M343.2,329.3c0,0,16.4-5.1,22.6-11.2"/>
<path class="st8" d="M344.1,334.4l8.4-2.3"/>
<path class="st0" d="M520,188.9h-72.9c-4.1,0-7.4,3.5-7.4,7.7v30.9c0,4.3,3.3,7.7,7.4,7.7H520c4.1,0,7.4-3.5,7.4-7.7v-30.9
	C527.3,192.4,524,188.9,520,188.9z"/>
<path class="st0" d="M439.8,223.1V248l13.2-16"/>
<path class="st4" d="M470.3,213c0-0.9-0.3-1.9-0.8-2.6s-1.2-1.4-2-1.8c-0.8-0.4-1.7-0.5-2.6-0.3c-0.9,0.2-1.7,0.6-2.3,1.3
	c-0.6,0.7-1.1,1.5-1.2,2.4c-0.2,0.9-0.1,1.9,0.3,2.8c0.3,0.9,0.9,1.6,1.7,2.1c0.7,0.5,1.6,0.8,2.5,0.8c1.2,0,2.4-0.5,3.2-1.4
	C469.8,215.4,470.3,214.2,470.3,213z"/>
<path class="st4" d="M489.7,213c0-0.9-0.3-1.9-0.8-2.6c-0.5-0.8-1.2-1.4-2-1.8c-0.8-0.4-1.7-0.5-2.6-0.3c-0.9,0.2-1.7,0.6-2.3,1.3
	c-0.6,0.7-1.1,1.5-1.2,2.4c-0.2,0.9-0.1,1.9,0.3,2.8c0.3,0.9,0.9,1.6,1.7,2.1c0.7,0.5,1.6,0.8,2.5,0.8c1.2,0,2.4-0.5,3.2-1.4
	C489.3,215.4,489.7,214.2,489.7,213z"/>
<path class="st4" d="M509.2,213c0-0.9-0.3-1.9-0.8-2.6c-0.5-0.8-1.2-1.4-2-1.8c-0.8-0.4-1.7-0.5-2.6-0.3c-0.9,0.2-1.7,0.6-2.3,1.3
	c-0.6,0.7-1.1,1.5-1.2,2.4c-0.2,0.9-0.1,1.9,0.3,2.8c0.3,0.9,0.9,1.6,1.7,2.1c0.7,0.5,1.6,0.8,2.5,0.8c1.2,0,2.4-0.5,3.2-1.4
	C508.7,215.4,509.2,214.2,509.2,213z"/>
<path class="st7" d="M136.7,419.1l-0.5-0.6C136.3,418.7,136.5,418.9,136.7,419.1z"/>
<path class="st4" d="M120.7,615.2c0,0-22.6,3-22.1,5.3c0.4,2.3,24.5,9.6,26.2,9.6c1.7,0,3.8-12.6,3.8-12.6L120.7,615.2z"/>
<defs>
	
		<filter id="Adobe_OpacityMaskFilter_00000106133255352217876760000003547172107059393949_" filterUnits="userSpaceOnUse" x="98.5" y="618.9" width="27.7" height="11.3">
		<feColorMatrix  type="matrix" values="1 0 0 0 0  0 1 0 0 0  0 0 1 0 0  0 0 0 1 0"/>
	</filter>
</defs>
<mask maskUnits="userSpaceOnUse" x="98.5" y="618.9" width="27.7" height="11.3" id="mask8_415_1422_00000139280163509936468940000009771170545234981782_">
	<path style="fill:#FFFFFF;filter:url(#Adobe_OpacityMaskFilter_00000106133255352217876760000003547172107059393949_);" d="
		M120.7,615.2c0,0-22.6,3-22.1,5.3c0.4,2.3,24.5,9.6,26.2,9.6c1.7,0,3.8-12.6,3.8-12.6L120.7,615.2z"/>
</mask>
<g class="st38">
	<g>
		<path class="st0" d="M126.2,627.8l-24.9-8.9c-1.8,0.6-2.8,1.1-2.7,1.6c0.4,2.3,24.5,9.6,26.2,9.6
			C125.3,630.2,125.7,629.3,126.2,627.8z"/>
	</g>
</g>
<path class="st24" d="M120.7,615.2c0,0-22.6,3-22.1,5.3c0.4,2.3,24.5,9.6,26.2,9.6c1.7,0,3.8-12.6,3.8-12.6L120.7,615.2z"/>
<path class="st4" d="M210,610.2c-1.1,1.8-2.4,3.4-3.9,4.9c-1.8,1.4-8.3,4.1-8.3,6c0,1.8,13.1,2.7,15.7,2.3c2.6-0.5,5.7-6,8.3-7.8
	s-4.7-9.5-4.7-9.5C214.8,607.6,212.4,609,210,610.2z"/>
<defs>
	
		<filter id="Adobe_OpacityMaskFilter_00000099631146908922612430000011336294668660919726_" filterUnits="userSpaceOnUse" x="197.8" y="612.1" width="24.6" height="11.4">
		<feColorMatrix  type="matrix" values="1 0 0 0 0  0 1 0 0 0  0 0 1 0 0  0 0 0 1 0"/>
	</filter>
</defs>
<mask maskUnits="userSpaceOnUse" x="197.8" y="612.1" width="24.6" height="11.4" id="mask9_415_1422_00000181076653443861097870000002125259519916991152_">
	<path style="fill:#FFFFFF;filter:url(#Adobe_OpacityMaskFilter_00000099631146908922612430000011336294668660919726_);" d="
		M210,610.2c-1.1,1.8-2.4,3.4-3.9,4.9c-1.8,1.4-8.3,4.1-8.3,6c0,1.8,13.1,2.7,15.7,2.3c2.6-0.5,5.7-6,8.3-7.8
		c2.6-1.8-4.7-9.5-4.7-9.5C214.8,607.6,212.4,609,210,610.2z"/>
</mask>
<g class="st40">
	<g>
		<path class="st0" d="M221.8,615.5c0.9-0.6,0.6-1.9-0.1-3.4c-2.8,2.9-5.9,5.4-9.2,7.6c-3.2,1.5-13.3-0.2-13.3-0.2h-0.2
			c-0.7,0.6-1.1,1.1-1.1,1.6c0,1.9,13.1,2.7,15.7,2.3C216.2,622.8,219.2,617.3,221.8,615.5z"/>
	</g>
</g>
<path class="st1" d="M210,610.2c-1.1,1.8-2.4,3.4-3.9,4.9c-1.8,1.4-8.3,4.1-8.3,6c0,1.8,13.1,2.7,15.7,2.3c2.6-0.5,5.7-6,8.3-7.8
	s-4.7-9.5-4.7-9.5C214.8,607.6,212.4,609,210,610.2L210,610.2z"/>
<path class="st11" d="M162.8,443.8c0,0,5.7,73.2,7.9,78.9c2.2,5.7,39.3,87.6,39.3,87.6l7.1-4.2l-26.6-100.9l5.1-112.9L162.8,443.8z"
	/>
<path class="st12" d="M162.8,443.8c0,0,5.7,73.2,7.9,78.9c2.2,5.7,39.3,87.6,39.3,87.6l7.1-4.2l-26.6-100.9l5.1-112.9L162.8,443.8z"
	/>
<path class="st11" d="M151.5,376.5c0,0-10.6,59.5-12.7,77c-2.2,17.5-18,161.7-18,161.7l7.9,2.3l41.8-161.2c0,0,14.5-34.1,20.3-44.3
	c5.7-10.1,11-25.4,9.2-32.8C198.1,371.9,151.5,376.5,151.5,376.5z"/>
<path class="st15" d="M151.5,376.5c0,0-10.6,59.5-12.7,77c-2.2,17.5-18,161.7-18,161.7l7.9,2.3l41.8-161.2c0,0,14.5-34.1,20.3-44.3
	c5.7-10.1,11-25.4,9.2-32.8C198.1,371.9,151.5,376.5,151.5,376.5z"/>
<path class="st8" d="M173.3,388.9c-5.9,13.7-10.7,28-14.1,42.6c-4.8,21.9-12,51.2-12,57.4c0,6.2,0.4,14.8-1.6,18.2
	c-2,3.4-5.7,4.2-6.1,12.2c-0.4,8,2.8,19.4-2,32.5c-4.8,13.1-7.7,19.4-7.7,28.3c0,8.9-4.5,34.6-4.5,34.6"/>
<path class="st8" d="M172.6,458.1v32.5c0,21.1,9.3,15.2,8.4,17.7c-0.8,2.5-5.6,8.5-4,10.6c1.6,2.1,4,0.8,4,3.8
	c0,3,20.1,53.3,20.1,53.3"/>
<path class="st8" d="M203.2,580.5l3.2,9.3"/>
<path class="st5" d="M78.8,261.8c-0.5,2-0.6,4.1-0.5,6.1c0.5,1.9,8.1,4.7,8.1,4.7L78.8,261.8z"/>
<path class="st5" d="M99.9,261.6c0,0,7.1,12,7.1,13.3c0,1.3,32.1,30.9,32.1,30.9s7.5,4.6,8.8,7.4c1.3,2.8,0.9,19.8-0.9,20.3
	c-1.8,0.5-42.7-52.1-44.9-53c-2.2-0.9-9.7-3.7-9.7-3.7l-7.1-9.3L99.9,261.6z"/>
<path class="st4" d="M148,313.2c-1.6-2.2-3.6-4-5.8-5.4c-0.8,3-1.9,5.9-3.4,8.6c-0.9,1.5-2,2.9-3.3,4.1c6.3,7.6,11,13.1,11.6,12.9
	C148.9,333.1,149.3,316.1,148,313.2z"/>
<defs>
	
		<filter id="Adobe_OpacityMaskFilter_00000067220456747693221360000017613959798556470403_" filterUnits="userSpaceOnUse" x="135.5" y="307.9" width="13.3" height="25.7">
		<feColorMatrix  type="matrix" values="1 0 0 0 0  0 1 0 0 0  0 0 1 0 0  0 0 0 1 0"/>
	</filter>
</defs>
<mask maskUnits="userSpaceOnUse" x="135.5" y="307.9" width="13.3" height="25.7" id="mask10_415_1422_00000052098137356469638890000000273596000257264532_">
	<path style="fill:#FFFFFF;filter:url(#Adobe_OpacityMaskFilter_00000067220456747693221360000017613959798556470403_);" d="
		M148,313.2c-1.6-2.2-3.6-4-5.8-5.4c-0.8,3-1.9,5.9-3.4,8.6c-0.9,1.5-2,2.9-3.3,4.1c6.3,7.6,11,13.1,11.6,12.9
		C148.9,333.1,149.3,316.1,148,313.2z"/>
</mask>
<g class="st42">
	<g>
		<path class="st0" d="M148,313.2c-1.6-2.2-3.6-4-5.8-5.4c-0.8,3-1.9,5.9-3.4,8.6c-0.9,1.5-2,2.9-3.3,4.1c6.3,7.6,11,13.1,11.6,12.9
			C148.9,333.1,149.3,316.1,148,313.2z"/>
	</g>
</g>
<path class="st1" d="M148,313.2c-1.6-2.2-3.6-4-5.8-5.4c-0.8,3-1.9,5.9-3.4,8.6c-0.9,1.5-2,2.9-3.3,4.1c6.3,7.6,11,13.1,11.6,12.9
	C148.9,333.1,149.3,316.1,148,313.2z"/>
<path class="st7" d="M79,250.3l-3.6,1.6c-0.5,0.2-0.9,0.5-1.2,1c-0.3,0.4-0.6,0.9-0.7,1.4c-0.1,0.5-0.1,1.1,0,1.6
	c0.1,0.5,0.3,1,0.7,1.5l15.9,21.2c0.3,0.4,0.6,0.7,1,0.9c0.4,0.2,0.8,0.4,1.2,0.4c0.4,0,0.9,0,1.3-0.2c0.4-0.1,0.8-0.4,1.1-0.7
	l2.7-2.5c0.6-0.6,1-1.3,1.1-2.2c0.1-0.8-0.1-1.7-0.6-2.4l-14.7-20.6c-0.5-0.6-1.1-1.1-1.8-1.3C80.5,249.9,79.7,250,79,250.3z"/>
<path class="st5" d="M96,257.9c0,0-7,7.8-6.6,9.6c0.4,1.8,2.7,3.2,4,1.9c1.3-1.3,6.2-5.5,6.6-7.8c0.1-0.6,0.1-1.1,0-1.7
	c-0.2-0.5-0.5-1-0.9-1.4c-0.4-0.4-0.9-0.6-1.5-0.7S96.5,257.7,96,257.9z"/>
<path class="st4" d="M149.7,366.3l0.5,12c0,0,7,6,23.3,6.9c10.2,0.4,20.4-2,29.5-6.9l-3.1-18.4L149.7,366.3z"/>
<defs>
	
		<filter id="Adobe_OpacityMaskFilter_00000106137682876315341040000005843296276253136037_" filterUnits="userSpaceOnUse" x="149.7" y="359.9" width="52.5" height="24.4">
		<feColorMatrix  type="matrix" values="1 0 0 0 0  0 1 0 0 0  0 0 1 0 0  0 0 0 1 0"/>
	</filter>
</defs>
<mask maskUnits="userSpaceOnUse" x="149.7" y="359.9" width="52.5" height="24.4" id="mask11_415_1422_00000062170335875744508780000000017314090383023015_">
	<path style="fill:#FFFFFF;filter:url(#Adobe_OpacityMaskFilter_00000106137682876315341040000005843296276253136037_);" d="
		M149.7,366.3l0.5,12c0,0,7,6,23.3,6.9c10.2,0.4,20.4-2,29.5-6.9l-3.1-18.4L149.7,366.3z"/>
</mask>
<g class="st44">
	<g class="st20">
		<path class="st0" d="M149.7,366.3l0.3,7.4c4.2,1.6,7.9,2.6,7.9,2.6l-0.4,5.8c2.6,0.9,5.3,1.7,8,2.2l4.1-4.7
			c12.5,1.7,28.8-4.6,32.6-6.1l-2.3-13.6L199,360L149.7,366.3z"/>
	</g>
</g>
<path class="st1" d="M149.7,366.3l0.5,12c0,0,7,6,23.3,6.9c10.2,0.4,20.4-2,29.5-6.9l-3.1-18.4L149.7,366.3z"/>
<path class="st4" d="M147.5,250.5c0,0-4.8,28.6-7.9,36.9c-1.1,3.4-1.5,7-1,10.5c0.5,3.5,1.7,6.9,3.7,9.8c2.7,4.1,4,36,4,41.5
	s-3.5,12.9,1.3,18.9c4.8,6,29.1,7.4,42.7,5.5c13.6-1.8,17.6-10.6,17.6-14.8s-12.7-57.7-19.4-80.7c-6.6-23.1-15.9-39.7-19.8-42.4
	c-4-2.8-0.9-4.2-4.8-2.8C159.9,234.4,151.1,244.1,147.5,250.5z"/>
<defs>
	
		<filter id="Adobe_OpacityMaskFilter_00000010997565868210683860000003122543886655126458_" filterUnits="userSpaceOnUse" x="138.5" y="253.8" width="45" height="121.1">
		<feColorMatrix  type="matrix" values="1 0 0 0 0  0 1 0 0 0  0 0 1 0 0  0 0 0 1 0"/>
	</filter>
</defs>
<mask maskUnits="userSpaceOnUse" x="138.5" y="253.8" width="45" height="121.1" id="mask12_415_1422_00000158722117330172037150000014438722291400245640_">
	<path style="fill:#FFFFFF;filter:url(#Adobe_OpacityMaskFilter_00000010997565868210683860000003122543886655126458_);" d="
		M147.5,250.5c0,0-4.8,28.6-7.9,36.9c-1.1,3.4-1.5,7-1,10.5c0.5,3.5,1.7,6.9,3.7,9.8c2.7,4.1,4,36,4,41.5s-3.5,12.9,1.3,18.9
		c4.8,6,29.1,7.4,42.7,5.5c13.6-1.8,17.6-10.6,17.6-14.8s-12.7-57.7-19.4-80.7c-6.6-23.1-15.9-39.7-19.8-42.4
		c-4-2.8-0.9-4.2-4.8-2.8C159.9,234.4,151.1,244.1,147.5,250.5z"/>
</mask>
<g class="st46">
	<g>
		<path class="st0" d="M154.6,369.2c-2.7,0.5-4.4-0.6-6.9-0.4c4,2.6,11.8,4.8,19.8,6.1c3.6-5.7,11.5-19,12.4-27
			c1.2-10.3,5.6-32.4,2.5-40.1c-3.1-7.7-12.3-50.4-14.8-50.4c-2.5,0-5.6-10.4-11.1,4.5c0,0-3.6,6.5-1.2,21.4
			c2.4,14.9,6.8,21.3,4.3,32.4c-2.5,11,0,19.4,4.3,20.1c4.3,0.6,5.6,1.9,4.3,9.7C167,353.1,161.4,367.9,154.6,369.2z"/>
	</g>
	<g>
		<path class="st0" d="M142.5,302.6c-1.8-1.4-3.2-3.4-4-5.6c0.4,3.8,1.7,7.5,3.8,10.7c2.7,4.1,4,36,4,41.5c0,0.2,0,0.3,0,0.5
			c0.8-5.4,1.1-10.8,0.9-16.2c-0.9-7.8,9-18,9-22.6C156.1,306.5,148.7,307.1,142.5,302.6z"/>
	</g>
</g>
<path class="st1" d="M147.5,250.5c0,0-4.8,28.6-7.9,36.9c-1.1,3.4-1.5,7-1,10.5c0.5,3.5,1.7,6.9,3.7,9.8c2.7,4.1,4,36,4,41.5
	s-3.5,12.9,1.3,18.9c4.8,6,29.1,7.4,42.7,5.5c13.6-1.8,17.6-10.6,17.6-14.8s-12.7-57.7-19.4-80.7c-6.6-23.1-15.9-39.7-19.8-42.4
	c-4-2.8-0.9-4.2-4.8-2.8C159.9,234.4,151.1,244.1,147.5,250.5z"/>
<path class="st8" d="M146.7,260.9c0,0,3.2,1.7,7.7-4.2"/>
<path class="st4" d="M197.7,322.1l-18.9,7.4c0,0-4.4,16.6-7.1,24.5c-2.6,7.8-16.4,42.4-16.4,42.4s-7.9,9.2-9.7,12
	c-1.8,2.8-2.2,12-0.9,13.3c1.3,1.3,4.4-3.2,4.4-3.2s0.9,2.3,4.4,0.5c3.5-1.8,8.1-19.3,8.1-19.3s18.5-33.2,25.1-43.8
	c6.6-10.6,11.9-20.8,11.9-24.9C198.6,327.9,198.3,325,197.7,322.1z"/>
<defs>
	
		<filter id="Adobe_OpacityMaskFilter_00000081619427909869768880000005134389546497957538_" filterUnits="userSpaceOnUse" x="144.1" y="323.3" width="54.2" height="98.6">
		<feColorMatrix  type="matrix" values="1 0 0 0 0  0 1 0 0 0  0 0 1 0 0  0 0 0 1 0"/>
	</filter>
</defs>
<mask maskUnits="userSpaceOnUse" x="144.1" y="323.3" width="54.2" height="98.6" id="mask13_415_1422_00000152958673087111657190000009829949935478710677_">
	<path style="fill:#FFFFFF;filter:url(#Adobe_OpacityMaskFilter_00000081619427909869768880000005134389546497957538_);" d="
		M197.7,322.1l-18.9,7.4c0,0-4.4,16.6-7.1,24.5c-2.6,7.8-16.4,42.4-16.4,42.4s-7.9,9.2-9.7,12c-1.8,2.8-2.2,12-0.9,13.3
		c1.3,1.3,4.4-3.2,4.4-3.2s0.9,2.3,4.4,0.5c3.5-1.8,8.1-19.3,8.1-19.3s18.5-33.2,25.1-43.8c6.6-10.6,11.9-20.8,11.9-24.9
		C198.6,327.9,198.3,325,197.7,322.1z"/>
</mask>
<g class="st48">
	<g class="st20">
		<path class="st0" d="M198.3,325.9c-0.1-1-0.3-1.9-0.4-2.6l-4,0.2l-15.2,5.9c0,0-4.4,16.6-7.1,24.5c-2.6,7.8-16.4,42.4-16.4,42.4
			s-7.9,9.2-9.7,12c-1.8,2.8-2.2,12-0.9,13.3c1.3,1.3,4.4-3.2,4.4-3.2c-1.4-2-2.2-4.2-2.6-6.6c0-2.8,10-12.7,10-12.7l31.1-64.9
			L198.3,325.9z"/>
	</g>
</g>
<path class="st1" d="M197.7,322.1l-18.9,7.4c0,0-4.4,16.6-7.1,24.5c-2.6,7.8-16.4,42.4-16.4,42.4s-7.9,9.2-9.7,12
	c-1.8,2.8-2.2,12-0.9,13.3c1.3,1.3,4.4-3.2,4.4-3.2s0.9,2.3,4.4,0.5c3.5-1.8,8.1-19.3,8.1-19.3s18.5-33.2,25.1-43.8
	c6.6-10.6,11.9-20.8,11.9-24.9C198.6,327.9,198.3,325,197.7,322.1L197.7,322.1z"/>
<path class="st5" d="M178.8,329.4c0,0-1.3,4.9-2.9,10.5c3.4,1.2,6.8,2,10.4,2.4c2.7,0.3,5.3,0.3,8,0.2c2.6-5.1,4.3-9.3,4.3-11.7
	c-0.1-2.9-0.3-5.9-0.9-8.8L178.8,329.4z"/>
<path class="st4" d="M165.6,251c-3.7,3.3-6,7.9-6.6,12.9c-0.9,8.3,6.2,28.6,6.2,37.8s1.8,20.8,3.5,25.4c1.7,4.6,9.7,7.4,18.1,5.1
	c8.4-2.3,15.4-3.7,15.4-13.8c0-10.1-8.8-27.7-15-42.9C181,260.2,175.7,246.9,165.6,251z"/>
<defs>
	
		<filter id="Adobe_OpacityMaskFilter_00000049927473319920429350000016471109128217933236_" filterUnits="userSpaceOnUse" x="158.3" y="251" width="40.4" height="82.3">
		<feColorMatrix  type="matrix" values="1 0 0 0 0  0 1 0 0 0  0 0 1 0 0  0 0 0 1 0"/>
	</filter>
</defs>
<mask maskUnits="userSpaceOnUse" x="158.3" y="251" width="40.4" height="82.3" id="mask14_415_1422_00000123431248055633373110000005837270299859983039_">
	<path style="fill:#FFFFFF;filter:url(#Adobe_OpacityMaskFilter_00000049927473319920429350000016471109128217933236_);" d="
		M165.6,251c-3.7,3.3-6,7.9-6.6,12.9c-0.9,8.3,6.2,28.6,6.2,37.8s1.8,20.8,3.5,25.4c1.7,4.6,9.7,7.4,18.1,5.1
		c8.4-2.3,15.4-3.7,15.4-13.8c0-10.1-8.8-27.7-15-42.9C181,260.2,175.7,246.9,165.6,251z"/>
</mask>
<g class="st50">
	<g>
		<path class="st0" d="M165.6,251c0,0-3.5,2.9-1.8,12.8c1.7,10,3.9,23.3,4.6,29.9c0.7,6.5,12.4-13.7,11.1-6.9
			c-1.3,6.9-6.9,27.1-6.9,31.6c0,4.5,5.6,10.3,10.9,11.4c5.3,1.1,15.2-1.9,15.2-1.9c-2.5,1.5-5.2,2.7-8,3.5c-3.4,1-6.9,1.6-10.4,1.9
			l-2.3-0.5c0,0-8.2,0-10.9-7.9c-2.7-7.9-0.7-23-3.9-34.3c-3.3-11.3-4.6-18.2-4.9-23.4C158,262.2,162.2,252.9,165.6,251z"/>
	</g>
</g>
<path class="st1" d="M165.6,251c-3.7,3.3-6,7.9-6.6,12.9c-0.9,8.3,6.2,28.6,6.2,37.8s1.8,20.8,3.5,25.4c1.7,4.6,9.7,7.4,18.1,5.1
	c8.4-2.3,15.4-3.7,15.4-13.8c0-10.1-8.8-27.7-15-42.9C181,260.2,175.7,246.9,165.6,251z"/>
<path class="st8" d="M183.4,271.1c-1.2,9-3.9,17.7-8.1,25.7"/>
<path class="st8" d="M173.7,298.5l-3.6,4.6"/>
<path class="st5" d="M135.9,234.2c4,2.2,7.3,5.6,9.4,9.8c2.7,6.3,3.4,11.3,5.5,9.9c2.1-1.4,14.8-18,12.4-19.3
	c-5.5-2.8-11-16.4-8.3-26.4C155.7,204,135.2,225.8,135.9,234.2z"/>
<path class="st4" d="M125.5,177.6c-6.2,3.3-13,8.7-13,16.6c0,13.8,5.4,19.3,5.4,22.8c0,3.4-4.4,8.1-2.8,9.8c1.7,1.7,5.5,1.1,5.5,1.1
	c2.6,5,5.6,9.8,8.8,14.4c3.3,4,9.4-1.7,16-6.9c6.6-5.2,9.9-9.8,9.9-19.6s4.6-17.1,0.6-26.7c-1.2-2.9-3-5.5-5.2-7.6
	c-2.2-2.1-4.8-3.8-7.6-4.9c-2.8-1.1-5.8-1.6-8.8-1.4C131.1,175.5,128.2,176.2,125.5,177.6z"/>
<defs>
	
		<filter id="Adobe_OpacityMaskFilter_00000062174325911348793140000005691718013254117284_" filterUnits="userSpaceOnUse" x="113.4" y="173.4" width="45" height="61">
		<feColorMatrix  type="matrix" values="1 0 0 0 0  0 1 0 0 0  0 0 1 0 0  0 0 0 1 0"/>
	</filter>
</defs>
<mask maskUnits="userSpaceOnUse" x="113.4" y="173.4" width="45" height="61" id="mask15_415_1422_00000106137641406406722720000009912941590094881706_">
	<path style="fill:#FFFFFF;filter:url(#Adobe_OpacityMaskFilter_00000062174325911348793140000005691718013254117284_);" d="
		M125.5,177.6c-6.2,3.3-13,8.7-13,16.6c0,13.8,5.4,19.3,5.4,22.8c0,3.4-4.4,8.1-2.8,9.8c1.7,1.7,5.5,1.1,5.5,1.1
		c2.6,5,5.6,9.8,8.8,14.4c3.3,4,9.4-1.7,16-6.9c6.6-5.2,9.9-9.8,9.9-19.6s4.6-17.1,0.6-26.7c-1.2-2.9-3-5.5-5.2-7.6
		c-2.2-2.1-4.8-3.8-7.6-4.9c-2.8-1.1-5.8-1.6-8.8-1.4C131.1,175.5,128.2,176.2,125.5,177.6z"/>
</mask>
<g class="st52">
	<g>
		<path class="st0" d="M126.4,175.7c-6.2,3.3-13,8.7-13,16.6c3.1-1.2,7.5-2.3,9.6-0.9c3.5,2.4-0.6,16.2,10.9,21.6
			c11.5,5.4,13.8,4.8,15.5,9c1.1,2.7-0.7,8-4.1,12.3l1-0.8c6.6-5.2,9.9-9.8,9.9-19.6s4.6-17,0.6-26.7c-1.2-2.9-3-5.5-5.2-7.6
			c-2.2-2.1-4.8-3.8-7.6-4.9c-2.8-1.1-5.8-1.6-8.8-1.4C132,173.6,129.1,174.4,126.4,175.7z"/>
	</g>
</g>
<path class="st1" d="M125.5,177.6c-6.2,3.3-13,8.7-13,16.6c0,13.8,5.4,19.3,5.4,22.8c0,3.4-4.4,8.1-2.8,9.8c1.7,1.7,5.5,1.1,5.5,1.1
	c2.6,5,5.6,9.8,8.8,14.4c3.3,4,9.4-1.7,16-6.9c6.6-5.2,9.9-9.8,9.9-19.6s4.6-17.1,0.6-26.7c-1.2-2.9-3-5.5-5.2-7.6
	c-2.2-2.1-4.8-3.8-7.6-4.9c-2.8-1.1-5.8-1.6-8.8-1.4C131.1,175.5,128.2,176.2,125.5,177.6z"/>
<g class="st20">
	<path class="st0" d="M119.8,219l-1.4,3.3c0,0,3.1,3.3,3.1,0.7C121.5,220.5,122.5,216.8,119.8,219z"/>
</g>
<path class="st4" d="M128.2,230.1c1.3-0.5,2.4-1.4,3.2-2.5c0.8-1.1,1.4-2.4,1.6-3.9"/>
<path class="st1" d="M128.2,230.1c1.3-0.5,2.4-1.4,3.2-2.5c0.8-1.1,1.4-2.4,1.6-3.9"/>
<path class="st4" d="M122.6,211.5l0.8,3.8c1,0.3,2.1,0.3,3.2-0.1c1-0.4,1.9-1.1,2.5-2"/>
<path class="st1" d="M122.6,211.5l0.8,3.8c1,0.3,2.1,0.3,3.2-0.1c1-0.4,1.9-1.1,2.5-2"/>
<path class="st4" d="M119.3,208.2c0.7-1.3,1.8-2.3,3.1-2.8c1.3-0.5,2.8-0.6,4.1-0.1"/>
<path class="st1" d="M119.3,208.2c0.7-1.3,1.8-2.3,3.1-2.8c1.3-0.5,2.8-0.6,4.1-0.1"/>
<path class="st7" d="M141.5,238.6c-1.5,1.2-3,2.3-4.4,3.2c4.6,13.7-10.3,29.3-4,44.1c1.4,3.2,3.2,6.2,5.2,9c0-0.5,0-1.1,0-1.7
	c0-0.2,0-0.3,0-0.5c0-0.4,0-0.8,0.1-1.2c0.1-0.4,0-0.4,0-0.6c0-0.2,0.2-0.8,0.3-1.2c0.1-0.4,0-0.4,0.1-0.6c0.2-0.6,0.3-1.2,0.6-1.8
	c3.1-8.3,7.9-36.9,7.9-36.9c0-0.1,0-0.1,0-0.2c-0.6-1.7-1.3-3.9-2.4-6.3C144.1,242,143,240.1,141.5,238.6z"/>
<path class="st7" d="M251.3,323.7c-15-13.3-12.3-19.4-8.4-29.5c4-10.1,3.1-31.8-12.7-46.6s-36.1-6.5-45.4-25.4
	c-9.3-18.9-0.4-22.2-5.7-38.3c-5.3-16.1-24.6-27.7-39.1-26.8c-3.6,0.3-7.2,1.2-10.5,2.7c-23.6,0.6-31.6,13.3-26.7,25.5
	c1,2.3,2.8,4.2,5.1,5.1c2.3,1,4.8,1,7.1,0.1c4-1.5,9.4-2.5,11.9,1.9c4.4,7.4,2.7,18.8,15.9,21.6c6.5,1.4,10.4,3,12.4,5.3
	c0,0.6-0.1,1.1-0.2,1.6c0.4,1.6,0.9,3.1,1.5,4.6c-0.2,1.3-0.5,2.5-1,3.7c-3.1,8.8-9.7,17.1,0.5,22.6c10.1,5.5,7.4-1.4,14.4-1.4
	c7,0,10.8,9.5,10.8,9.5c2.9,5.9,5.4,11.9,7.4,18.2l0.4,1.3c6,14.2,13.3,29.6,13.3,38.8c0.1,2.4-0.5,4.7-1.6,6.8
	c1.5,6.4,2.9,12.4,4.1,17.6c0.2,0.8,0.4,1.6,0.5,2.4v0.1c0.2,0.8,0.3,1.6,0.5,2.3c0.1,0.6,0.3,1.3,0.4,1.9v0.4
	c0.1,0.5,0.2,1,0.3,1.4s0.1,0.4,0.1,0.6c0,0.5,0.2,0.9,0.3,1.3l0.1,0.5c0,0.4,0.1,0.7,0.2,1.1l0.1,0.5c0,0.3,0.1,0.6,0.1,0.9
	c0,0.2,0.1,0.3,0.1,0.5c0,0.2,0,0.5,0.1,0.7c0.1,0.2,0,0.3,0,0.4c0,0.1,0,0.3,0,0.5c0,0.1,0,0.2,0,0.3c0,0.2,0,0.4,0,0.5
	c0,0.3,0,0.7,0,1v0.3c0,0.3-0.1,0.6-0.2,0.8c0,0.1,0,0.2,0,0.3c0,0.1-0.2,0.7-0.4,1.1v0.1c-0.4,1-0.9,1.9-1.4,2.7v0.1
	c-0.3,0.5-0.6,0.9-1,1.3c-0.9,1-1.9,1.9-2.9,2.7l1.5,8.8c0,0-1.1,0.6-3,1.5c3.4,1.7,7.1,2.8,10.8,3.4c22.9,3.7,33.9-2.8,42.3-15.2
	C261.5,355.4,266.3,337.1,251.3,323.7z"/>
<path class="st18" d="M104.9,185.9c0,0,6.3,5.1,16.7,0.8c10.4-4.3,19.4-5.1,26,3.5c6.7,8.6,10.8,12.5,15.3,12.5s16,9.7,17.1,21.4
	c1.1,11.7,7.1,15.6,15.3,18.7"/>
<path class="st18" d="M200.5,244c3.5,0.9,7.2,1.6,10.8,1.9c5.2,0.4,8.9,0.4,12.7,4.7"/>
<path class="st18" d="M131,191.4c3.6,3.4,6.4,7.7,8.2,12.5c2.2,7,13.8,9,19.7,8.6"/>
<path class="st18" d="M163.7,182.4c0,0-4.9-9.4-13.4-13.3c-8.5-4-15.6,1.5-27.3,6.6c-11.6,5.1-18.6,1.6-18.6,1.6"/>
<path class="st18" d="M189,257.6c0,0,6.7,11.3,15.6,17.9c8.9,6.6,19,11.7,14.1,28.1c-4.8,16.4-8.9,25.3,2.6,35.9
	c11.5,10.5,15.6,27.3,11.2,33.9"/>
<path class="st18" d="M160.4,217c0,0,7.4,6.8,5.2,13.5c-2.1,6.8-12.3,10.6-6.5,16.1c5.8,5.5,17.8,0.6,20.6,1.6
	c1.8,0.7,3.4,1.8,4.6,3.2"/>
<path class="st18" d="M163.7,213.5c0,0,8.4,3.8,8.9,11.6c0.5,7.8-5.3,12-4,15.2c1.4,3.2,5.9-0.5,10.9,1.4"/>
<path class="st0" d="M14.2,244.8H87c4.1,0,7.4-3.5,7.4-7.7v-30.9c0-4.3-3.3-7.7-7.4-7.7H14.2c-4.1,0-7.4,3.5-7.4,7.7v30.9
	C6.8,241.3,10.1,244.8,14.2,244.8z"/>
<path class="st0" d="M94.4,232.6v24.9l-13.2-16"/>
<path class="st4" d="M68.4,227.2c2.5,0,4.5-2.1,4.5-4.8c0-2.6-2-4.8-4.5-4.8c-2.5,0-4.5,2.1-4.5,4.8
	C63.9,225.1,65.9,227.2,68.4,227.2z"/>
<path class="st4" d="M44.4,222.5c0-0.9,0.3-1.9,0.8-2.6c0.5-0.8,1.2-1.4,2-1.8s1.7-0.5,2.6-0.3c0.9,0.2,1.7,0.6,2.3,1.3
	c0.6,0.7,1.1,1.5,1.2,2.4c0.2,0.9,0.1,1.9-0.3,2.7c-0.3,0.9-0.9,1.6-1.7,2.1c-0.7,0.5-1.6,0.8-2.5,0.8c-1.2,0-2.4-0.5-3.2-1.4
	C44.9,224.9,44.4,223.7,44.4,222.5z"/>
<path class="st4" d="M29.5,227.2c2.5,0,4.5-2.1,4.5-4.8c0-2.6-2-4.8-4.5-4.8c-2.5,0-4.5,2.1-4.5,4.8C25,225.1,27,227.2,29.5,227.2z"
	/>
<path class="st18" d="M234.8,330.1l5.2,6.2"/>
<path class="st18" d="M243.7,339.1c2.7,3.4,4.4,7.4,5.2,11.7c0.7,4.3,0.4,8.7-1.1,12.8"/>
<path class="st0" d="M-198.5,196.4c30.2,0,54.8-26,54.8-58.1s-24.5-58.1-54.8-58.1c-30.2,0-54.8,26-54.8,58.1
	S-228.8,196.4-198.5,196.4z"/>
</svg>
