<?xml version="1.0" encoding="utf-8"?>
<!-- Generator: Adobe Illustrator 28.2.0, SVG Export Plug-In . SVG Version: 6.00 Build 0)  -->
<svg width="809" height="861" version="1.1" id="Layer_1" xmlns="http://www.w3.org/2000/svg" xmlns:xlink="http://www.w3.org/1999/xlink" x="0px" y="0px"
	 viewBox="0 0 809 861" style="enable-background:new 0 0 809 861;" xml:space="preserve">
<style type="text/css">
	.st0{fill:#F5F5F5;}
	.st1{fill:#E0E0E0;}
	.st2{fill:#024DDF;}
	.st3{opacity:0.6;fill:#FFFFFF;enable-background:new    ;}
	.st4{opacity:0.4;fill:#FFFFFF;enable-background:new    ;}
	.st5{fill:#FB4A04;}
	.st6{fill:#FFA8A7;}
	.st7{fill:#F28F8F;}
	.st8{fill:#EBEBEB;}
	.st9{fill:#263238;}
	.st10{fill:#455A64;}
	.st11{fill:#37474F;}
	.st12{opacity:0.2;enable-background:new    ;}
	.st13{fill:#FF9090;}
	.st14{fill:#FFAAA8;}
	.st15{opacity:0.4;enable-background:new    ;}
	.st16{fill:#FFFFFF;}
	.st17{opacity:0.5;fill:#FFFFFF;enable-background:new    ;}
	.st18{opacity:0.5;}
</style>
<path class="st0" d="M404.5,860.6C627.9,860.6,809,749.8,809,613S627.9,365.5,404.5,365.5S0,476.3,0,613S181.1,860.6,404.5,860.6z"
	/>
<path class="st1" d="M417.3,499.9L188.6,640c-6.4,3.9-17.6,3.5-25.1-1.1l-81.2-49.7c-7.4-4.6-8.3-11.4-1.8-15.4l228.7-140.1
	c6.4-3.9,17.6-3.4,25.1,1.1l81.2,49.7C422.9,489.1,423.8,496,417.3,499.9z"/>
<path class="st1" d="M543,686.2c88.5,0,160.3-43.9,160.3-98.1c0-54.2-71.8-98.1-160.3-98.1c-88.5,0-160.3,43.9-160.3,98.1
	C382.8,642.3,454.5,686.2,543,686.2z"/>
<path class="st1" d="M395.3,734.6c41.9,0,75.8-20.8,75.8-46.4s-33.9-46.4-75.8-46.4s-75.8,20.8-75.8,46.4S353.4,734.6,395.3,734.6z"
	/>
<path class="st1" d="M722.6,617.8c17.7,10.9,17.7,28.5,0,39.3c-17.7,10.9-46.5,10.9-64.3,0c-17.7-10.9-17.7-28.5,0-39.3
	C676,606.9,704.8,607,722.6,617.8z"/>
<path class="st2" d="M691.9,527.9c-10.2,69.6-76.3,143.2-177.5,122.7c-1-0.2-2-0.4-3-0.6c-2.1-0.5-4.2-1-6.3-1.5
	c-106.5-27.1-114-100.3-109.4-132.1c4.7-31.8,32.4-57.5,48.8-67.6c16.4-10.1,36.7-21.6,55.4-53.7c16.9-29.1,44.1-46.5,84.7-43.6
	l3.6,0.3c2.9,0.3,5.9,0.7,9,1.2C597.2,352.9,715.2,368.6,691.9,527.9z"/>
<path class="st3" d="M691.9,527.9c-10.2,69.6-76.3,143.2-177.5,122.7c-1-0.2-2-0.4-3-0.6c-2.1-0.5-4.2-1-6.3-1.5
	c-106.5-27.1-114-100.3-109.4-132.1c4.7-31.8,32.4-57.5,48.8-67.6c16.4-10.1,36.7-21.6,55.4-53.7c16.9-29.1,44.1-46.5,84.7-43.6
	l3.6,0.3c2.9,0.3,5.9,0.7,9,1.2C597.2,352.9,715.2,368.6,691.9,527.9z"/>
<path class="st2" d="M666.8,523.8c-9.7,66.6-66.5,137.6-152.5,126.9c-1-0.2-2-0.4-3-0.6c84.2,8.7,139.7-61.4,149.3-127.2
	c19.2-131.6-51-164-76-171.3c-2.3-0.7-4.2-1.1-5.7-1.5l3.3,0.5c2,0.3,4,0.7,5.9,1.2C610.5,357.5,686.8,387.3,666.8,523.8z"/>
<path class="st4" d="M666.8,523.8c-9.7,66.6-66.5,137.6-152.5,126.9c-1-0.2-2-0.4-3-0.6c84.2,8.7,139.7-61.4,149.3-127.2
	c19.2-131.6-51-164-76-171.3c-2.3-0.7-4.2-1.1-5.7-1.5l3.3,0.5c2,0.3,4,0.7,5.9,1.2C610.5,357.5,686.8,387.3,666.8,523.8z"/>
<path class="st2" d="M608,519.8c0,0,56.6-138.8-35.1-138.8c0,0-49.5-13.4-71,51.2c-21.5,64.6-82.7,47.8-82.7,99.1
	c0,31.1,12.6,66.4,23,89.4c8.7,6.2,18,11.5,27.7,15.7l0.4-0.3c0,0,3.7-32.1,25.7-47.8c22.1-15.7,71.4-31.1,87.6-44.1
	c15.3-12.2,46.9-8.1,52,0.4C633.2,538.7,623.2,518,608,519.8z"/>
<path class="st4" d="M608,519.8c0,0,56.6-138.8-35.1-138.8c0,0-49.5-13.4-71,51.2c-21.5,64.6-82.7,47.8-82.7,99.1
	c0,31.1,12.6,66.4,23,89.4c8.7,6.2,18,11.5,27.7,15.7l0.4-0.3c0,0,3.7-32.1,25.7-47.8c22.1-15.7,71.4-31.1,87.6-44.1
	c15.3-12.2,46.9-8.1,52,0.4C633.2,538.7,623.2,518,608,519.8z"/>
<path class="st5" d="M635.7,544.6c0.4,1,0.6,1.5,0.6,1.5C636.2,545.6,636,545.1,635.7,544.6z"/>
<path class="st6" d="M419.7,553.4l4.4,71.1c0,0,27.5,3.2,24.2-19.6c0,0-1.4-2.4-1.1-8c0.3-5.6,6.5-34.8,6.7-43.9L419.7,553.4z"/>
<path class="st7" d="M423.3,611.7l3.4,2.7l25.2-55.9l-3.6-5.4l-3.4,0l-6.3,5.3l-16.3,36.6L423.3,611.7z"/>
<path class="st2" d="M422.4,624.8c0,0-5.7-11.7,2.5-14.8c8.1-3.1,13.3,0,13.8,3.2c0.5,3.2,0.9,7.9,0.9,7.9c4.4-4.4,7.4-10,8.7-16.2
	c0,0,12.6,11.8,11.6,17.9c-1,6.1-10.7,19.2-11.9,23.3c-1.2,4.1-4.1,29.5-16,33.1c-11.9,3.7-28.8,3.7-24.6-10.6
	c1.4-5,8.8-10.8,10.5-15.7C419.5,648.1,422.4,624.8,422.4,624.8z"/>
<path class="st8" d="M443.4,664.5c-2-5-5.6-9.1-10.1-11.7s-9.7-3.4-14.8-2.4c-0.2,1.1-0.5,2-0.7,2.6c-1.7,4.9-9,10.7-10.5,15.7
	c-4.2,14.4,12.8,14.3,24.6,10.6C437.5,677.6,441.1,671.3,443.4,664.5L443.4,664.5z"/>
<path class="st9" d="M458.5,617.5c0.2,0.7,0.2,1.4,0.1,2.1c-1.1,6.4-11.5,19.9-12.8,24.3c-1.3,4.3-4.7,30.7-17.2,34.4
	c-5.7,1.8-11.7,2.3-17.7,1.6c5.1,2.6,14,1.7,21.1-0.5c11.9-3.7,14.8-29,16-33.1c1.2-4.1,10.9-17.2,11.9-23.3
	C460,621,459.5,619.1,458.5,617.5z"/>
<path class="st8" d="M436.8,628.3c-0.2,0-0.4-0.1-0.6-0.3c-5.6-5.9-13.2-2.6-13.5-2.5c-0.2,0.1-0.4,0.1-0.6,0
	c-0.2-0.1-0.4-0.3-0.4-0.5c-0.1-0.2-0.1-0.4,0-0.7c0.1-0.2,0.2-0.4,0.4-0.5c0.1,0,8.9-3.9,15.3,2.9c0.1,0.1,0.2,0.3,0.2,0.4
	s0,0.3,0,0.5c-0.1,0.2-0.2,0.3-0.3,0.4C437.1,628.3,437,628.3,436.8,628.3z"/>
<path class="st8" d="M436.1,635c-0.1,0-0.2,0-0.3-0.1c-0.1,0-0.2-0.1-0.3-0.2c-5.6-5.9-13.2-2.7-13.5-2.5c-0.1,0-0.2,0.1-0.3,0.1
	c-0.1,0-0.2,0-0.3-0.1c-0.1,0-0.2-0.1-0.3-0.2c-0.1-0.1-0.1-0.2-0.2-0.3c-0.1-0.2-0.1-0.5,0-0.7c0.1-0.2,0.2-0.4,0.4-0.5
	c0,0,8.9-3.9,15.3,2.9c0.2,0.2,0.2,0.4,0.2,0.6c0,0.2-0.1,0.4-0.2,0.6c-0.1,0.1-0.2,0.2-0.3,0.2S436.2,635,436.1,635z"/>
<path class="st8" d="M435.2,641.5c-0.1,0-0.2,0-0.3-0.1c-0.1,0-0.2-0.1-0.3-0.2c-5.6-6-13.2-2.7-13.5-2.5c-0.2,0.1-0.4,0.1-0.6,0
	c-0.2-0.1-0.3-0.3-0.4-0.5c-0.1-0.2-0.1-0.4,0-0.6c0.1-0.2,0.2-0.4,0.4-0.5c0.1,0,8.9-3.9,15.3,2.9c0.1,0.1,0.1,0.2,0.2,0.3
	c0,0.1,0.1,0.2,0.1,0.3c0,0.1,0,0.2-0.1,0.3c0,0.1-0.1,0.2-0.2,0.3c-0.1,0.1-0.2,0.1-0.3,0.2C435.4,641.5,435.3,641.5,435.2,641.5z"
	/>
<path class="st8" d="M433.9,648.1c-0.2,0-0.4-0.1-0.6-0.3c-5.6-5.9-13.2-2.6-13.5-2.5c-0.1,0-0.2,0.1-0.3,0.1c-0.1,0-0.2,0-0.3-0.1
	c-0.1,0-0.2-0.1-0.3-0.2c-0.1-0.1-0.1-0.2-0.2-0.3c0-0.1-0.1-0.2-0.1-0.3c0-0.1,0-0.2,0.1-0.3c0-0.1,0.1-0.2,0.2-0.3
	c0.1-0.1,0.2-0.1,0.3-0.2c0.1,0,8.9-3.9,15.3,2.9c0.1,0.1,0.2,0.3,0.2,0.4c0,0.2,0,0.3,0,0.5c-0.1,0.2-0.2,0.3-0.3,0.4
	C434.2,648.1,434.1,648.1,433.9,648.1z"/>
<path class="st10" d="M538.4,494.2l-26.6,14.6l-48.1,26.5c-2.1,1.2-4.1,2.8-5.6,4.8c-1.5,2-2.7,4.3-3.4,6.7
	c-0.5,1.7-0.8,3.6-0.8,5.4v1c-1.1,0.8-2.2,1.5-3.4,2.1c-3.7,2-7.8,3.1-12,3.3c-6.6,0.1-13.1-1.6-18.8-5.1c0,0-0.2-8.4-0.5-22.1
	c-0.3-13.7,10.8-20.1,20.9-28.2c10.2-8,64.6-32.5,64.6-32.5L538.4,494.2z"/>
<path class="st11" d="M504.7,503.8l29.5-9.4l4.2,4.4l-31.3,12.5L504.7,503.8z"/>
<path class="st11" d="M514.3,511.1l-59.6,35.7l-0.7,0.4l-3.5,8.1c-3.7,2-7.8,3.1-12,3.3L445,544c1.6-3.5,4.1-6.5,7.3-8.4l52.3-31.7
	c0,0-0.4-9.3,1.4-13.4c0,0,0.3,11.7,5.8,18.3C512.6,509.7,513.4,510.5,514.3,511.1z"/>
<path class="st6" d="M434.3,577.1l-38.1,85.1c0,0-3,17.2,7.6,17.2s12.3-5.7,12.3-5.7s1-7.2,10-20.5c9-13.3,36.8-39.2,42.8-57.6
	L434.3,577.1z"/>
<path class="st10" d="M589.4,505.1c0,0-5.3,24.5-15.2,32.9c-9.9,8.5-18,14.2-51.3,21.7c-21.9,4.9-36.2,9-43.4,11.2
	c-1.6,0.5-3.1,1.5-4.3,2.8c-1.2,1.3-1.9,3-2.3,4.7c-1.1,5.7-2.4,11.3-4,16.8c0,0-21.8,0.8-34.6-18.4l12.7-25.7
	c3.3-6.7,8.2-12.3,14.2-16.3c14.8-10,30.1-19,45.9-27.1c25.8-12.7,29.4-15.1,29.4-15.1L589.4,505.1z"/>
<path class="st6" d="M505.2,410.9l-24.6,40.8l18.7,18.9l27.8-45.5C527,425.1,518.8,409.9,505.2,410.9z"/>
<path class="st2" d="M505.2,410.9c0,0,14.8,4.1,18.2,14.2l29.8-38.1l-4.8-18.5c-4.3-0.7-8.7-0.3-12.8,1.4c-4.1,1.6-7.7,4.4-10.4,8
	C518.7,385.9,505.2,410.9,505.2,410.9z"/>
<path class="st12" d="M505.2,410.9c0,0,14.8,4.1,18.2,14.2l29.8-38.1l-4.8-18.5c-4.3-0.7-8.7-0.3-12.8,1.4c-4.1,1.6-7.7,4.4-10.4,8
	C518.7,385.9,505.2,410.9,505.2,410.9z"/>
<path class="st9" d="M555.4,278.4c0,0-7-6.2-15.2,3.4c-8.2,9.5-0.7,37.3-12.6,35.8c0,0,7.8,8.9,15.7,2.6c0.3-0.2,0.6-0.4,1-0.5
	c3.1-0.6,5.9,5.2,7.1,7.3c3.4,5.7,6.4,11.8,9.8,17.5c3.4,5.7,7.7,13.7,13.3,17.3c6.6,4.3,16.6,3.6,23.4,0.3
	c11-5.4,18.7-17.8,22.5-29.6c1.8-5.2,3.3-11.4,2.6-17c-1-8.7-7.1-11.8-7.2-11.4c0,0,2.6-22.2-24.6-27.6
	C565.8,271.4,555.4,278.4,555.4,278.4z"/>
<path class="st6" d="M591.5,349.4l-2.9,26.9l8.3,3.7c0,0-40.5,21.6-49.8,18.3c-9.3-3.3,9.9-29.3,9.9-29.3l4.7,0.6l0.6-12.5
	L591.5,349.4z"/>
<path class="st13" d="M584,354.6l-11-0.2l-10.7,2.9l-0.5,8.9C579.3,362.1,584,354.6,584,354.6z"/>
<path class="st6" d="M555.3,289.3c0,0-11.6,5.6-14.6,32.1c-3,26.5,1.2,38.7,16.9,38.7c12.6,0,27.5-1.9,33.9-10.7
	c1.5-2.2,4.7-54.2-8.6-61.6S555.3,289.3,555.3,289.3z"/>
<path class="st9" d="M555.3,286.9c0,0-0.5,28.3,29.8,37.1c0,0-2.2,14.9,6.3,14.9h8.3v-26.1c0-7.9-3-15.4-8.2-21
	c-5.3-5.6-12.4-8.7-19.8-8.7h-12.7c-1,0-1.9,0.4-2.6,1.2s-1.1,1.7-1.1,2.8L555.3,286.9z"/>
<path class="st13" d="M557.3,320.2v16.1l-8.9-2.9L557.3,320.2z"/>
<path class="st9" d="M566.5,328.1c1.3,0,2.3-1.1,2.3-2.4c0-1.4-1-2.4-2.3-2.4s-2.3,1.1-2.3,2.4C564.2,327.1,565.2,328.1,566.5,328.1
	z"/>
<path class="st9" d="M551.4,321.6c0,0.5-0.1,1-0.4,1.4c-0.3,0.4-0.6,0.7-1,0.9s-0.9,0.2-1.3,0.1c-0.5-0.1-0.9-0.3-1.2-0.7
	c-0.3-0.3-0.5-0.8-0.6-1.3c-0.1-0.5,0-1,0.1-1.4c0.2-0.5,0.5-0.8,0.9-1.1c0.4-0.3,0.8-0.4,1.3-0.4c0.6,0,1.2,0.3,1.6,0.7
	C551.1,320.3,551.4,320.9,551.4,321.6z"/>
<path class="st9" d="M546.2,312.5l5.8-1.8c0,0-1.4-2.6-3.6-1.9C546.1,309.6,546.2,312.5,546.2,312.5z"/>
<path class="st14" d="M591.2,336.5c-0.1-2.7,0.4-5.3,1.4-7.8c0.5-1.5,1.4-2.9,2.6-3.9c1.2-1,2.6-1.6,4.2-1.7
	c7.8-0.2,8.8,7.7,8.7,10.5c-0.3,7.5-5.9,15.4-16.5,15.7L591.2,336.5z"/>
<path class="st2" d="M557.1,369.1l-8.7-0.7c0,0-32.5,25.6-30.4,43.4c1.2,10.4,4.2,16.3,6.2,19.1c0.6,0.8,1,1.8,1.1,2.8
	c0.2,1,0.2,2,0,3c-1.2,5.6-3.8,16-7.4,20.9c-3.9,4.8-8.3,9.2-13.2,12.9c0,0,9.8,19,28.7,28.9c18.9,9.9,49.4,10.8,56,5.6l8.8-53.4
	l4.4-68.9l-7.3-3.5c0,0-34.9,17.4-45.7,16.4C544,395.2,557.1,369.1,557.1,369.1z"/>
<path class="st12" d="M542.9,435c4.9,3.8,10.8,5.8,16.9,5.6c6.2,0.1,12.2-2.2,16.9-6.5c0,0-4.6,9.2-17.2,9.2
	C547,443.3,542.9,435,542.9,435z"/>
<path class="st6" d="M583.2,445l-5.2,24.1c-10.7-2.5-21.5-4.5-32.4-5.8c-19.5-2.4-23.4-3.7-23.4-3.7l1.2,22.5
	c0,0,23.7,10.1,45.3,13.4c21.7,3.3,27.4,2.5,33-16.2c5.6-18.7,7.6-26.1,7.6-26.1L583.2,445z"/>
<path class="st2" d="M602.5,382.9c0,0-16.1,12.3-14.3,39.6c0,0-4.5,20.5-5,22.4c0,0,9.5,7.9,26.2,8.1l10.7-40.9
	c1.2-4.4,1-9.1-0.5-13.4c-1.5-4.3-4.2-8-7.8-10.5C608.9,386.1,605.8,384.4,602.5,382.9z"/>
<path class="st12" d="M602.5,382.9c0,0-16.1,12.3-14.3,39.6c0,0-4.5,20.5-5,22.4c0,0,9.5,7.9,26.2,8.1l10.7-40.9
	c1.2-4.4,1-9.1-0.5-13.4c-1.5-4.3-4.2-8-7.8-10.5C608.9,386.1,605.8,384.4,602.5,382.9z"/>
<path class="st11" d="M518.7,490.3l-0.5-2.4l-9.7-48.2c0,0,0.7-1.5,1.2-2.7c0.3,0.2,0.5,0.4,0.8,0.7c0.5,0.6,0.9,1.3,1.1,2.1
	l9.9,45.6l0.2,0.7C522.2,488.9,518.7,490.3,518.7,490.3z"/>
<path class="st10" d="M510.4,437.7l-2,2l-23.8-8.5l-2-0.7l1.1-1.1c0.2-0.2,0.4-0.4,0.6-0.5c0.4-0.3,0.8-0.4,1.2-0.5s0.9-0.1,1.3,0
	l21.8,7.9C509.3,436.7,509.9,437.1,510.4,437.7z"/>
<path class="st9" d="M482.3,431.8l10.8,45.9c0.2,0.9,0.7,1.8,1.3,2.5c0.6,0.7,1.4,1.3,2.2,1.6l20.6,8.5c0.3,0.1,0.6,0.2,1,0.1
	c0.3-0.1,0.6-0.2,0.9-0.4c0.2-0.2,0.4-0.5,0.5-0.9c0.1-0.3,0.1-0.7,0-1l-10.1-46.3c-0.2-0.8-0.5-1.5-1-2.1s-1.1-1-1.8-1.3l-22.8-8.2
	c-0.2-0.1-0.4-0.1-0.7-0.1c-0.2,0-0.4,0.2-0.6,0.3c-0.2,0.2-0.3,0.4-0.4,0.6C482.3,431.3,482.3,431.5,482.3,431.8z"/>
<path class="st2" d="M416.1,673.7c-1.8,1.1-3.7,1.8-5.7,2.1c-2,0.2-4.1,0-6-0.7c0,0,2.9-7.8-2.6-11.2c-5.4-3.4-10.7-3.4-12.1,1.5
	l-1.4,4.8c0,0-13.6,11.3-18.7,14.8c-5.1,3.5-10,6.1-13.8,8.7s-13.6,10.2-5.1,19.7c8.5,9.5,33.8,4.6,40.2-6.2
	c6.4-10.9,24.9-5.6,24.9-18.8C415.6,675.2,416.1,673.7,416.1,673.7z"/>
<path class="st8" d="M367.1,686.5c-4.2,2.7-8.3,4.9-11.5,7.1c-3.8,2.6-13.6,10.2-5.1,19.7c6.5,7.3,23,6.1,33.2,0.2
	C384,691.6,371.4,687.8,367.1,686.5z"/>
<path class="st9" d="M391.2,703.8c-6.8,11.5-33.4,16.6-42.3,6.6c-0.4-0.4-0.8-0.9-1.1-1.3c0.6,1.6,1.6,3.1,2.7,4.3
	c8.5,9.6,33.8,4.6,40.2-6.2c6.1-10.3,23.1-6,24.7-17C410.3,696.4,396.6,694.5,391.2,703.8z"/>
<path class="st8" d="M398.6,682c-0.2,0-0.4-0.1-0.5-0.2c-0.1-0.1-0.2-0.3-0.3-0.5c-1.4-8.3-9.7-10.3-9.7-10.3
	c-0.2,0-0.4-0.2-0.5-0.4c-0.1-0.2-0.2-0.4-0.1-0.7c0-0.2,0.2-0.4,0.4-0.5c0.2-0.1,0.4-0.2,0.6-0.1c0.1,0,9.4,2.2,11,11.7
	c0,0.2,0,0.5-0.1,0.6c-0.1,0.2-0.3,0.3-0.5,0.4L398.6,682z"/>
<path class="st8" d="M394.1,685.7c-0.2,0-0.4-0.1-0.5-0.2c-0.1-0.1-0.2-0.3-0.3-0.5c-1.4-8.3-9.7-10.2-9.7-10.3
	c-0.2,0-0.4-0.2-0.5-0.4c-0.1-0.2-0.2-0.4-0.1-0.6c0-0.1,0.1-0.2,0.1-0.3c0.1-0.1,0.1-0.2,0.2-0.2c0.1-0.1,0.2-0.1,0.3-0.1
	c0.1,0,0.2,0,0.3,0c0.1,0,9.4,2.2,11,11.6c0,0.1,0,0.2,0,0.3c0,0.1-0.1,0.2-0.1,0.3c-0.1,0.1-0.1,0.2-0.2,0.2
	c-0.1,0.1-0.2,0.1-0.3,0.1L394.1,685.7z"/>
<path class="st8" d="M388.9,690c-0.2,0-0.4-0.1-0.5-0.2c-0.1-0.1-0.2-0.3-0.3-0.5c-1.4-8.3-9.4-10.2-9.7-10.3
	c-0.2-0.1-0.4-0.2-0.5-0.4c-0.1-0.2-0.2-0.4-0.1-0.7c0-0.1,0.1-0.2,0.1-0.3c0.1-0.1,0.1-0.2,0.2-0.2c0.1-0.1,0.2-0.1,0.3-0.1
	c0.1,0,0.2,0,0.3,0c0.1,0,9.4,2.2,11,11.6c0,0.1,0,0.2,0,0.3c0,0.1-0.1,0.2-0.1,0.3c-0.1,0.1-0.1,0.2-0.2,0.2
	c-0.1,0.1-0.2,0.1-0.3,0.1L388.9,690z"/>
<path class="st8" d="M384.4,693.6c-0.2,0-0.4-0.1-0.5-0.2c-0.1-0.1-0.2-0.3-0.3-0.5c-1.4-8.3-9.4-10.2-9.7-10.3
	c-0.2,0-0.4-0.2-0.5-0.4c-0.1-0.2-0.2-0.4-0.1-0.7c0-0.1,0.1-0.2,0.1-0.3c0.1-0.1,0.1-0.2,0.2-0.2c0.1-0.1,0.2-0.1,0.3-0.1
	c0.1,0,0.2,0,0.3,0c0,0,9.4,2.2,11,11.7c0,0.1,0,0.2,0,0.3c0,0.1-0.1,0.2-0.1,0.3c-0.1,0.1-0.1,0.2-0.2,0.2
	c-0.1,0.1-0.2,0.1-0.3,0.1L384.4,693.6z"/>
<path class="st13" d="M555.3,340.2c3.1,0.2,6.2-0.7,8.8-2.5c0,0,0.6,4.9-3.3,5.9C556.9,344.5,555.3,340.2,555.3,340.2z"/>
<path class="st6" d="M485.5,453.7c-0.4-0.7-0.2-1.6-0.4-2.7c-0.4-1.9-1.1-3.8-2.1-5.4c-0.4-0.9-1-1.8-1.8-2.4
	c-0.4-0.3-0.9-0.4-1.4-0.3c-0.5,0.1-0.9,0.3-1.3,0.7c-0.3,0.5-0.4,1.1-0.4,1.6c-0.2,2.6,0,5.2,0.6,7.7c0.6,1.9-0.5,4.3-0.8,6.1
	c-0.4,2.9,0.7,4,1.3,6.9c1.5,6.4,6.4,9.3,12.3,8.2c12.3-2.4,11.9-19.9,10.2-22.3c-1.7-2.4-4.5-3.8-9.2,0.4c-1.5,1.4-4.1,3.1-6.3,2.3
	C486,454.3,485.7,454,485.5,453.7z"/>
<path class="st6" d="M527,461.4c-2.9-5.6-7.7-9.8-13.4-11.9l1.8,7.8c0,0-8.6,1.8-14,0.7s-15.4-7.7-13.8-0.1c1.6,7.6,3.2,12.6,7.3,16
	c4.3,3.9,9.6,6.3,15.2,7c5.9,0.5,13.4,1.3,13.4,1.3L527,461.4z"/>
<path class="st13" d="M494.8,474.3c-0.1,0-0.2,0-0.2-0.1c-4.1-3.5-5.8-8.4-7.4-16.2c-0.4-1.7-0.2-2.9,0.5-3.5c1.5-1.4,4.8,0,8.4,1.3
	c1.7,0.8,3.5,1.4,5.3,1.9c0.8,0.1,1.6,0.2,2.4,0.3c0.1,0,0.2,0,0.3,0.1c0.1,0.1,0.1,0.2,0.1,0.3c0,0.1,0,0.2-0.1,0.3
	c-0.1,0.1-0.2,0.1-0.3,0.1c-0.8,0-1.7-0.1-2.5-0.3c-1.9-0.5-3.7-1.1-5.5-1.9c-3-1.2-6.4-2.5-7.6-1.5c-0.5,0.4-0.5,1.3-0.3,2.7
	c1.6,7.7,3.2,12.5,7.1,15.7c0.1,0.1,0.1,0.2,0.1,0.3c0,0.1,0,0.2-0.1,0.3C495,474.2,494.9,474.3,494.8,474.3z"/>
<path class="st9" d="M614.9,304.8c3.6-2.2,7.7-3.2,11.8-3.1c4.1,0.2,8.1,1.5,11.6,4c3.4,2.5,6.2,5.8,8.2,9.7c2,3.8,3.2,8.1,3.5,12.5
	c1.3,18.1-5.2,23.3-11.6,45c-2.1,7.1,0,15.5,17,23.8c0,0-44.2,9.1-36.6-38c5.5-34.1-6.3-32.9-6.3-32.9L614.9,304.8z"/>
<path class="st2" d="M698.5,586.6c0,0-22.1-22.9-9.5-61.3c7-21.5,30.4-37.3,43.8-38.8c-4.4,5.6-7.9,11.9-10.4,18.7L705.6,517
	l15.4-5.1l-3.3,14c0,0-14.3,9.2-16.5,11.2l15.4-4.3C716.7,532.8,715.5,572.4,698.5,586.6z"/>
<path class="st15" d="M698.5,586.6c0,0-22.1-22.9-9.5-61.3c7-21.5,30.4-37.3,43.8-38.8c-4.4,5.6-7.9,11.9-10.4,18.7L705.6,517
	l15.4-5.1l-3.3,14c0,0-14.3,9.2-16.5,11.2l15.4-4.3C716.7,532.8,715.5,572.4,698.5,586.6z"/>
<path class="st16" d="M698.5,586.6c0,0-11.5-47.9,5.5-75.9C704,510.7,684.2,535.4,698.5,586.6z"/>
<path class="st11" d="M723.9,593.1l-27.1-0.4h-0.3l-27.1,0.4c0,0-0.3,35.4,10,49.8c2.9,3.7,9.5,6.5,17.2,6.5
	c7.7,0,14.4-2.7,17.3-6.5C724.2,628.4,723.9,593.1,723.9,593.1z"/>
<path class="st10" d="M696.7,608.6c15,0,27.2-6.9,27.2-15.5c0-8.6-12.2-15.5-27.2-15.5c-15,0-27.2,6.9-27.2,15.5
	C669.5,601.7,681.6,608.6,696.7,608.6z"/>
<path class="st9" d="M696.7,589c9.4,0,17.3,3.2,20.1,7.6c0.7-1,1.1-2.2,1.1-3.5c0-6.1-9.5-11.1-21.1-11.1s-21.1,5-21.1,11.1
	c0,1.3,0.4,2.5,1.1,3.5C679.4,592.2,687.3,589,696.7,589z"/>
<path class="st1" d="M696.7,589c-9.4,0-17.3,3.2-20.1,7.6c2.8,4.4,10.7,7.6,20.1,7.6c9.4,0,17.3-3.2,20.1-7.6
	C714,592.2,706,589,696.7,589z"/>
<path class="st2" d="M697,598.5c0,0-10.6-0.4-19.5-15.2c-3.7-6.1-5.5-9.3-5.5-9.3l14.6-1.2l-16.4-4.3l-7.7-12.5l13.6-1.1
	c0,0-10.1-3.7-17.3-3.7c0,0-12.5-23.5-16.2-26.8c9.5,0.6,18.8,3.3,27.3,7.7c8.5,4.5,16.1,10.7,22.3,18.4
	C712.7,576.2,700,599.2,697,598.5z"/>
<path class="st16" d="M697,598.5c0,0,6.6-41.9-35.3-67.1C661.7,531.4,705.1,553.6,697,598.5z"/>
<path class="st2" d="M697,598.5c0,0,9.5,0.7,18.9-11.8c3.9-5.1,5.8-7.8,5.8-7.8l-13.1-2.5l15.2-2.3l8.1-10.5l-12.2-2.3
	c0,0,9.5-2.4,16-1.7c0,0,13.4-19.9,17-22.6c-8.6-0.4-17.2,1.1-25.3,4.3c-8.1,3.2-15.5,8.1-21.7,14.4
	C684.8,576.8,694.2,598.8,697,598.5z"/>
<path class="st12" d="M697,598.5c0,0,9.5,0.7,18.9-11.8c3.9-5.1,5.8-7.8,5.8-7.8l-13.1-2.5l15.2-2.3l8.1-10.5l-12.2-2.3
	c0,0,9.5-2.4,16-1.7c0,0,13.4-19.9,17-22.6c-8.6-0.4-17.2,1.1-25.3,4.3c-8.1,3.2-15.5,8.1-21.7,14.4
	C684.8,576.8,694.2,598.8,697,598.5z"/>
<path class="st16" d="M697,598.5c0,0-2.2-38.4,37.8-57C734.8,541.5,693.6,557.1,697,598.5z"/>
<path class="st10" d="M148.2,597.3l179.1-109.6c12.6-7.7,22.9-28.5,22.9-46.3V34.8c0-17.9-10.2-26.1-22.9-18.3L148.2,126.1
	c-12.6,7.7-22.9,28.5-22.9,46.3V579C125.3,596.8,135.6,605.1,148.2,597.3z"/>
<path class="st11" d="M127.6,113.4L306.7,3.7c5.4-3.3,10.4-3.7,14.3-1.7c0.5,0.2,0.9,0.5,1.4,0.9l20.1,12.3c-4-2.5-9.3-2.4-15.1,1.2
	L148.2,126.1c-12.6,7.7-22.9,28.5-22.9,46.3V579c0,9.4,2.9,16.2,7.4,19.3L113,586.1c-5.1-2.9-8.3-9.8-8.3-19.8V159.7
	C104.7,141.8,115,121.1,127.6,113.4z"/>
<path class="st9" d="M125.3,172.4V579c0,9.4,2.9,16.2,7.4,19.3L113,586.1c-5.1-2.9-8.3-9.8-8.3-19.8V159.7l20.6,12.6V172.4z"/>
<path class="st11" d="M104.7,191.3l20.6,12.6v9.9l-20.6-12.6V191.3z"/>
<path class="st11" d="M113.8,256.8c1.8,1.1,3.3,0,3.3-2.7V233c0-1.3-0.3-2.6-0.9-3.8c-0.6-1.2-1.4-2.2-2.4-3c-1.8-1.1-3.3,0-3.3,2.7
	v21.2c0,1.3,0.3,2.6,0.9,3.8C111.9,255.1,112.7,256.1,113.8,256.8z"/>
<path class="st10" d="M117.1,254.2V233c0-1.3-0.3-2.6-0.9-3.8c-0.6-1.2-1.4-2.2-2.4-3c-0.3-0.2-0.7-0.4-1-0.4c-0.4,0-0.7,0-1.1,0.2
	l2.4-1.4c0.3-0.2,0.7-0.3,1.1-0.2c0.4,0,0.7,0.2,1.1,0.4c1,0.8,1.9,1.8,2.4,3c0.6,1.2,0.9,2.5,0.9,3.8v21.2c0.1,0.5,0,1.1-0.2,1.6
	c-0.2,0.5-0.5,0.9-0.9,1.3l-2.6,1.4c0.4-0.3,0.8-0.7,1-1.2C117.1,255.2,117.1,254.7,117.1,254.2z"/>
<path class="st11" d="M113.8,308.2c1.8,1.1,3.3,0,3.3-2.7v-21.2c0-1.3-0.3-2.6-0.9-3.8c-0.6-1.2-1.4-2.2-2.4-3
	c-1.8-1.1-3.3,0-3.3,2.7v21.2c0,1.3,0.3,2.6,0.9,3.8C111.9,306.4,112.7,307.4,113.8,308.2z"/>
<path class="st10" d="M117.1,305.5v-21.2c0-1.3-0.3-2.6-0.9-3.8c-0.6-1.2-1.4-2.2-2.4-3c-0.3-0.2-0.7-0.4-1-0.4
	c-0.4,0-0.7,0-1.1,0.2l2.5-1.4c0.3-0.2,0.7-0.3,1.1-0.2c0.4,0,0.7,0.2,1.1,0.4c1,0.8,1.8,1.8,2.4,3c0.6,1.2,0.9,2.5,0.9,3.8v21.2
	c0.1,0.5,0,1.1-0.2,1.6c-0.2,0.5-0.5,0.9-0.9,1.3l-2.6,1.5c0.4-0.3,0.8-0.8,1-1.3C117.1,306.6,117.2,306,117.1,305.5z"/>
<path class="st2" d="M154.5,137.5L330.5,29.8c0.7-0.4,1.6-0.6,2.4-0.6c0.8,0,1.7,0.3,2.4,0.7c0.7,0.5,1.3,1.1,1.7,1.9
	c0.4,0.8,0.6,1.6,0.6,2.5v407.1c0,13.6-9.1,30.3-20.2,37.1L145.8,583.5c-0.8,0.5-1.7,0.8-2.7,0.8s-1.9-0.2-2.7-0.7
	c-0.8-0.5-1.5-1.2-2-2.1c-0.5-0.9-0.7-1.9-0.7-2.9V168.1C137.8,156.9,145.3,143.1,154.5,137.5z"/>
<path class="st17" d="M154.5,137.5L330.5,29.8c0.7-0.4,1.6-0.6,2.4-0.6c0.8,0,1.7,0.3,2.4,0.7c0.7,0.5,1.3,1.1,1.7,1.9
	c0.4,0.8,0.6,1.6,0.6,2.5v407.1c0,13.6-9.1,30.3-20.2,37.1L145.8,583.5c-0.8,0.5-1.7,0.8-2.7,0.8s-1.9-0.2-2.7-0.7
	c-0.8-0.5-1.5-1.2-2-2.1c-0.5-0.9-0.7-1.9-0.7-2.9V168.1C137.8,156.9,145.3,143.1,154.5,137.5z"/>
<path class="st10" d="M277.8,57.9l-2.7,12.2l-58.3,35.7l-10.1-5.7L277.8,57.9z"/>
<path class="st9" d="M260.7,69.7c0,2,1.3,2.8,3,1.9c0.9-0.6,1.6-1.4,2.1-2.4c0.5-1,0.8-2,0.9-3.1c0-2-1.3-2.8-3-1.9
	c-0.9,0.6-1.6,1.4-2.1,2.4C261,67.6,260.7,68.6,260.7,69.7z"/>
<path class="st9" d="M221.4,95.4c0.3,0,0.6-0.1,0.9-0.2l29.8-17.7c0.2-0.1,0.4-0.3,0.6-0.5s0.3-0.4,0.3-0.7c0.1-0.2,0.1-0.5,0.1-0.8
	c0-0.3-0.1-0.5-0.2-0.7c-0.2-0.5-0.6-0.8-1.1-0.9c-0.5-0.1-1-0.1-1.4,0.2l-29.8,17.6c-0.4,0.3-0.7,0.7-0.9,1.2
	c-0.1,0.5-0.1,1,0.2,1.5c0.2,0.3,0.4,0.6,0.7,0.7C220.8,95.3,221.1,95.4,221.4,95.4z"/>
<path class="st0" d="M373.1,507.3C334.6,531.6,234.5,595,185,626.6c-1.5,0.9-3.2,1.5-4.9,1.5c-1.7,0-3.4-0.4-4.9-1.3
	c-1.5-0.9-2.7-2.2-3.6-3.8s-1.3-3.4-1.3-5.2V179c0-5,1.2-9.9,3.6-14.2c2.3-4.3,5.7-7.9,9.8-10.5L374,36c1.5-0.9,3.2-1.4,4.9-1.4
	c1.7,0,3.4,0.5,4.9,1.4c1.5,0.9,2.7,2.2,3.6,3.8c0.9,1.6,1.3,3.4,1.3,5.2v433.4c0,5.9-1.4,11.6-4.1,16.7
	C381.7,500.1,377.8,504.3,373.1,507.3z"/>
<path class="st1" d="M372.3,506c-30.2,19.1-60.4,38.2-90.6,57.3l-53.6,34l-24.5,15.6l-10.7,6.8c-3.3,2.1-6.7,5-10.3,6.4
	c-5.7,2.1-10.7-2.7-10.9-8.6c0-1,0-2,0-3.1V212c0-10.7,0-21.4,0-32.1c-0.1-5,1.1-9.8,3.4-14.2c2.3-4.3,5.7-7.9,9.7-10.4
	c4.4-2.7,8.8-5.4,13.1-8.2l61.5-38.3l72.9-45.3c13.8-8.6,27.6-17.2,41.5-25.8c4-2.5,9-2.3,11.9,2.2c1,1.8,1.5,3.9,1.3,6
	c0,3.7,0,7.6,0,11.5v419.2C387.1,488.7,382.2,499.5,372.3,506c-1.7,1.1-0.1,3.9,1.5,2.8c5.1-3.3,9.3-8,12.2-13.6
	c2.9-5.6,4.3-11.9,4.2-18.2V76.7c0-10.4,0.1-20.9,0-31.3c0-2.2-0.5-4.3-1.5-6.2c-1-1.9-2.5-3.5-4.3-4.5c-1.8-1.1-3.8-1.6-5.9-1.5
	c-2.1,0.1-4.1,0.7-5.8,1.9c-4.6,2.8-9.1,5.6-13.7,8.5l-63.2,39.3l-73.5,45.7c-13,8.1-26.1,16.1-39,24.3c-4.5,2.8-8.1,6.7-10.7,11.5
	c-2.5,4.8-3.9,10.1-3.8,15.6c0,3.6,0,7.2,0,10.8v425.2c0,0.7,0,1.4,0,2.1c0,1.9,0.5,3.7,1.3,5.4c0.8,1.7,2,3.1,3.4,4.2
	c1.4,1.1,3.1,1.8,4.8,2.1c1.7,0.3,3.5,0.2,5.2-0.4c3.5-1.3,7-4.1,10.2-6.2l10.9-6.9l24.4-15.5c35.6-22.6,71.1-45.1,106.8-67.7
	l38.1-24.1c0.3-0.2,0.5-0.6,0.6-1c0.1-0.4,0-0.8-0.2-1.1c-0.2-0.3-0.5-0.6-0.8-0.7C373,505.8,372.6,505.8,372.3,506z"/>
<path class="st1" d="M274,557l12.3-7.5c1.2-0.9,2.3-2.2,3-3.6c0.7-1.4,1.1-3,1.1-4.6v-13.5c0-3.2-1.8-4.6-4.1-3.2L274,532
	c-1.2,0.9-2.2,2.2-3,3.6c-0.7,1.4-1.1,3-1.1,4.6v13.4C269.9,556.9,271.7,558.4,274,557z"/>
<path class="st16" d="M280.1,547.1c0.4-0.3,0.7-0.6,0.9-1c0.2-0.4,0.3-0.9,0.4-1.3v-9.6c0-0.9-0.6-1.2-1.3-0.8
	c-0.4,0.3-0.7,0.6-0.9,1c-0.2,0.4-0.3,0.9-0.4,1.3v9.6C278.8,547.3,279.4,547.6,280.1,547.1z"/>
<path class="st16" d="M276.2,544.7l7.8-4.8c0.4-0.3,0.7-0.6,0.9-1c0.2-0.4,0.4-0.9,0.4-1.3c0-0.9-0.6-1.2-1.3-0.8l-7.8,4.9
	c-0.4,0.3-0.7,0.6-0.9,1c-0.2,0.4-0.4,0.9-0.4,1.3C274.9,544.8,275.5,545.1,276.2,544.7z"/>
<path class="st1" d="M241.9,555.4c0.5-0.4,1-0.7,1.7-0.8c0.6-0.1,1.2,0.1,1.8,0.4c0.5,0.3,1,0.8,1.2,1.4c0.3,0.6,0.3,1.3,0.2,1.9
	c-0.1,1.8-0.5,3.6-1.4,5.1c-0.8,1.6-2,2.9-3.5,3.8c-0.5,0.4-1.1,0.6-1.7,0.7c-0.6,0.1-1.2-0.1-1.8-0.3c-1.9-1.2-1.9-4.9,0-8.4
	C239.1,557.7,240.3,556.4,241.9,555.4 M241.8,552.3c-2.2,1.4-4,3.5-5.3,5.9c-2.9,5.3-2.9,11.1,0,12.8c0.8,0.4,1.8,0.6,2.7,0.5
	c0.9-0.1,1.8-0.4,2.6-1c2.2-1.4,4-3.5,5.3-5.9c2.9-5.3,2.9-11.1,0-12.8c-0.8-0.4-1.8-0.6-2.7-0.5
	C243.4,551.4,242.6,551.7,241.8,552.3z"/>
<path class="st1" d="M231.1,582.7c0.4-0.2,0.7-0.6,0.9-1l5.5-10.2c0.5-0.9,0.5-1.9,0-2.2c-0.5-0.3-1.3,0.2-1.8,1.1l-5.5,10.2
	c-0.5,0.9-0.5,1.9,0,2.2c0.1,0.1,0.3,0.1,0.4,0.1C230.8,582.9,231,582.8,231.1,582.7z"/>
<path class="st1" d="M310.9,509.4c3.1-1.9,5.5,0.2,5.5,4.6c0-2.2,0.5-4.4,1.5-6.4c1-2,2.3-3.7,4-5c3.1-1.9,5.5,0.2,5.5,4.6
	c0,11.2-11.1,22.8-11.1,22.8s-11.1,2-11.1-9.3c0-2.2,0.5-4.4,1.5-6.4C307.8,512.4,309.2,510.7,310.9,509.4z"/>
<path class="st1" d="M349.3,489.6c0,3.3,2.2,4.7,4.9,3c1.4-1,2.6-2.3,3.5-3.9c0.9-1.6,1.3-3.3,1.4-5.1c0-3.3-2.2-4.7-4.9-3
	c-1.4,1-2.6,2.3-3.5,3.9C349.9,486,349.4,487.7,349.3,489.6z"/>
<path class="st1" d="M354.2,492.6c4-2.4,7.3,0.1,7.3,5.8v1.8l-14.5,8.9v-1.8C346.9,501.6,350.2,495.1,354.2,492.6z"/>
<path class="st1" d="M203.4,575.9l9.8,3.4v14.6l-7.6,4.6v-7.9c0-1.5-1-2.1-2.2-1.3c-0.6,0.4-1.2,1-1.6,1.7c-0.4,0.7-0.6,1.5-0.6,2.3
	v7.9l-7.6,4.6v-14.6L203.4,575.9z"/>
<path class="st1" d="M170.2,584c-0.2,0-0.4,0-0.5-0.1c-0.2-0.1-0.3-0.2-0.4-0.4c-0.1-0.1-0.1-0.3-0.1-0.4c0-0.1,0-0.3,0-0.4
	c0-0.1,0.1-0.3,0.2-0.4c0.1-0.1,0.2-0.2,0.3-0.3L388,448.4c0.2-0.1,0.5-0.2,0.8-0.1c0.3,0.1,0.5,0.3,0.6,0.5
	c0.1,0.1,0.1,0.3,0.1,0.4c0,0.1,0,0.3,0,0.4c0,0.1-0.1,0.3-0.2,0.4c-0.1,0.1-0.2,0.2-0.3,0.3L170.8,583.9
	C170.6,584,170.4,584,170.2,584z"/>
<path class="st1" d="M183.6,154.3L374,36c1.5-0.9,3.2-1.4,4.9-1.4c1.7,0,3.4,0.5,4.9,1.4c1.5,0.9,2.7,2.2,3.6,3.8
	c0.9,1.6,1.3,3.4,1.3,5.2v19L170.2,197.6v-18.7c0-5,1.2-9.9,3.6-14.2C176.2,160.4,179.5,156.8,183.6,154.3z"/>
<path class="st2" d="M222.8,220.6c6.2-11.3,6.2-23.6,0-27.4c-6.2-3.8-16.2,2.4-22.4,13.7c-6.2,11.3-6.2,23.6,0,27.4
	C206.6,238.1,216.6,231.9,222.8,220.6z"/>
<path class="st10" d="M236.2,210.4c-0.4,0-0.8-0.1-1.1-0.4c-0.3-0.2-0.5-0.6-0.6-1s-0.1-0.8,0.1-1.2c0.2-0.4,0.4-0.7,0.8-0.9
	l26.1-16c0.4-0.2,0.9-0.3,1.3-0.2s0.8,0.4,1.1,0.9c0.2,0.4,0.3,0.9,0.2,1.4c-0.1,0.5-0.4,0.9-0.8,1.1l-26.1,16
	C236.8,210.3,236.5,210.4,236.2,210.4z"/>
<path class="st10" d="M236.3,194.4c-0.4,0-0.8-0.1-1.1-0.4c-0.3-0.3-0.5-0.6-0.6-1s-0.1-0.8,0.1-1.2s0.4-0.7,0.8-0.9l71.9-44
	c0.4-0.2,0.9-0.3,1.3-0.1c0.4,0.1,0.8,0.4,1,0.9c0.2,0.4,0.3,0.9,0.2,1.4c-0.1,0.5-0.4,0.9-0.8,1.1l-71.8,44
	C237,194.3,236.6,194.4,236.3,194.4z"/>
<path class="st2" d="M227.4,514.4c0,10.7-7,23.7-15.8,29.1c-8.8,5.4-15.8,1-15.8-9.7c0-10.7,7-23.7,15.8-29.1
	C220.4,499.3,227.4,503.7,227.4,514.4z"/>
<path class="st10" d="M236.2,520.7c-0.4,0-0.8-0.1-1.1-0.4c-0.3-0.3-0.5-0.6-0.6-1s-0.1-0.8,0.1-1.2c0.2-0.4,0.4-0.7,0.8-0.9
	l26.1-16c0.2-0.1,0.4-0.2,0.7-0.3c0.2,0,0.5,0,0.7,0c0.2,0.1,0.4,0.2,0.6,0.3s0.3,0.3,0.5,0.6c0.1,0.2,0.2,0.5,0.2,0.7
	c0,0.2,0,0.5-0.1,0.7c-0.1,0.2-0.2,0.5-0.3,0.7c-0.1,0.2-0.3,0.4-0.5,0.5l-26.1,16C236.8,520.6,236.5,520.7,236.2,520.7z"/>
<path class="st10" d="M236.3,504.7c-0.4,0-0.8-0.1-1.1-0.4c-0.3-0.2-0.5-0.6-0.6-1c-0.1-0.4-0.1-0.8,0.1-1.2
	c0.2-0.4,0.4-0.7,0.8-0.9l71.9-44c0.4-0.2,0.9-0.3,1.3-0.1c0.4,0.1,0.8,0.4,1,0.9c0.2,0.4,0.3,0.9,0.2,1.4c-0.1,0.5-0.4,0.9-0.8,1.1
	l-71.8,43.9C237,504.6,236.6,504.7,236.3,504.7z"/>
<path class="st2" d="M227.4,417.6c0,10.7-7,23.7-15.8,29.1c-8.8,5.4-15.8,1-15.8-9.7c0-10.7,7-23.7,15.8-29.1
	C220.4,402.6,227.4,406.9,227.4,417.6z"/>
<path class="st10" d="M236.2,423.9c-0.4,0-0.8-0.1-1.1-0.4c-0.3-0.2-0.5-0.6-0.6-1c-0.1-0.4-0.1-0.8,0.1-1.2
	c0.1-0.4,0.4-0.7,0.7-0.9l26.1-16c0.2-0.1,0.4-0.2,0.7-0.3c0.2,0,0.5,0,0.7,0c0.2,0.1,0.4,0.2,0.6,0.3s0.3,0.3,0.5,0.6
	c0.1,0.2,0.2,0.5,0.2,0.7c0,0.2,0,0.5-0.1,0.7c-0.1,0.2-0.2,0.5-0.3,0.7c-0.1,0.2-0.3,0.4-0.5,0.5l-26.1,16
	C236.8,423.8,236.5,423.9,236.2,423.9z"/>
<path class="st10" d="M236.3,407.9c-0.3,0-0.6-0.1-0.9-0.3c-0.3-0.2-0.5-0.4-0.6-0.7c-0.2-0.4-0.3-0.9-0.2-1.4
	c0.1-0.5,0.4-0.9,0.8-1.1l71.9-44c0.4-0.2,0.9-0.3,1.3-0.2s0.8,0.4,1.1,0.9c0.1,0.2,0.2,0.4,0.2,0.7c0,0.2,0,0.5,0,0.7
	c-0.1,0.2-0.2,0.5-0.3,0.7c-0.1,0.2-0.3,0.4-0.5,0.5l-71.8,44C237,407.9,236.6,407.9,236.3,407.9z"/>
<path class="st10" d="M263.9,428.7v0.8l-1.9,1.2v-0.8L263.9,428.7z M262.4,428.8l0.9-0.5v3.5c0,0.1,0,0.2,0,0.2c0,0,0.1,0.1,0.1,0
	c0,0,0.1,0,0.2-0.1c0,0,0.1-0.1,0.1-0.1c0,0,0.1-0.1,0.1-0.1l0.1,0.7c0,0-0.1,0.1-0.2,0.2c-0.1,0.1-0.2,0.1-0.3,0.2
	c-0.2,0.1-0.4,0.2-0.6,0.2c-0.2,0-0.3,0-0.4-0.1c-0.1-0.1-0.1-0.3-0.1-0.5V428.8z M265.9,431.4c-0.3,0.2-0.6,0.3-0.9,0.3
	c-0.2,0-0.4-0.1-0.6-0.3c-0.1-0.2-0.2-0.5-0.2-0.9c0-0.4,0.1-0.8,0.2-1.1c0.1-0.4,0.3-0.7,0.5-1c0.2-0.3,0.5-0.6,0.8-0.7
	c0.2-0.1,0.4-0.2,0.6-0.2c0.2,0,0.3,0,0.5,0.1c0.1,0.1,0.2,0.2,0.3,0.4c0.1,0.2,0.1,0.4,0.1,0.8v0.3l-2.7,1.7v-0.6l1.9-1.1
	c0-0.2,0-0.3-0.1-0.3s-0.1-0.1-0.2-0.1c-0.1,0-0.2,0-0.3,0.1c-0.1,0.1-0.3,0.2-0.4,0.3c-0.1,0.1-0.2,0.3-0.2,0.4
	c-0.1,0.2-0.1,0.3-0.1,0.5v0.6c0,0.2,0,0.3,0.1,0.4c0.1,0.1,0.1,0.2,0.3,0.2c0.1,0,0.2,0,0.4-0.1c0.1-0.1,0.2-0.1,0.3-0.2
	c0.1-0.1,0.2-0.2,0.2-0.3c0.1-0.1,0.1-0.2,0.1-0.3l0.8-0.4c0,0.3-0.1,0.5-0.3,0.8c-0.1,0.3-0.3,0.5-0.5,0.7
	C266.4,431,266.1,431.2,265.9,431.4z M269.1,429.4c-0.2,0.2-0.5,0.2-0.7,0.2c-0.2,0-0.4-0.2-0.5-0.4c-0.1-0.2-0.2-0.5-0.2-1
	c0-0.4,0.1-0.8,0.2-1.2c0.1-0.4,0.3-0.7,0.5-0.9c0.2-0.3,0.4-0.5,0.7-0.6c0.2-0.1,0.3-0.2,0.5-0.2c0.1,0,0.2,0,0.3,0.1
	c0.1,0.1,0.1,0.1,0.2,0.2l0,0v-1.9l0.9-0.5v5l-0.9,0.5v-0.6l0,0c0,0.1-0.1,0.3-0.2,0.4c-0.1,0.1-0.2,0.3-0.3,0.4
	C269.4,429.1,269.3,429.3,269.1,429.4z M269.4,428.4c0.1-0.1,0.3-0.2,0.4-0.4c0.1-0.2,0.2-0.3,0.2-0.5c0.1-0.2,0.1-0.4,0.1-0.6
	c0-0.2,0-0.4-0.1-0.5c-0.1-0.1-0.1-0.2-0.2-0.2c-0.1,0-0.2,0-0.4,0.1c-0.1,0.1-0.3,0.2-0.4,0.4c-0.1,0.2-0.2,0.3-0.2,0.5
	s-0.1,0.4-0.1,0.6c0,0.2,0,0.4,0.1,0.5c0.1,0.1,0.1,0.2,0.2,0.3C269.1,428.5,269.3,428.5,269.4,428.4z"/>
<path class="st2" d="M357.4,278.7l-154.7,94.7c-0.7,0.4-1.5,0.7-2.3,0.7c-0.8,0-1.6-0.2-2.3-0.7c-0.7-0.4-1.3-1.1-1.7-1.8
	c-0.4-0.7-0.6-1.6-0.6-2.5V265.3c0-2.1,0.5-4.1,1.5-5.9c1-1.8,2.4-3.3,4.1-4.4l154.7-94.7c0.7-0.4,1.5-0.7,2.3-0.6
	c0.8,0,1.6,0.2,2.3,0.7c0.7,0.4,1.3,1,1.7,1.8c0.4,0.7,0.6,1.6,0.6,2.4v103.8c0,2.1-0.5,4.1-1.5,5.9
	C360.6,276.1,359.1,277.6,357.4,278.7z"/>
<path class="st17" d="M357.4,278.7l-154.7,94.7c-0.7,0.4-1.5,0.7-2.3,0.7c-0.8,0-1.6-0.2-2.3-0.7c-0.7-0.4-1.3-1.1-1.7-1.8
	c-0.4-0.7-0.6-1.6-0.6-2.5V265.3c0-2.1,0.5-4.1,1.5-5.9c1-1.8,2.4-3.3,4.1-4.4l154.7-94.7c0.7-0.4,1.5-0.7,2.3-0.6
	c0.8,0,1.6,0.2,2.3,0.7c0.7,0.4,1.3,1,1.7,1.8c0.4,0.7,0.6,1.6,0.6,2.4v103.8c0,2.1-0.5,4.1-1.5,5.9
	C360.6,276.1,359.1,277.6,357.4,278.7z"/>
<path class="st16" d="M303,295.6c12.1-22.2,12.1-46.1,0-53.5c-12.1-7.4-31.6,4.6-43.7,26.8c-12.1,22.2-12.1,46.1,0,53.5
	C271.3,329.7,290.9,317.7,303,295.6z"/>
<path class="st2" d="M363.1,229.4v39c0,2.1-0.5,4.1-1.5,5.9c-1,1.8-2.4,3.3-4.1,4.3l-154.7,94.7c-0.7,0.4-1.5,0.7-2.3,0.7
	c-0.8,0-1.6-0.2-2.3-0.7c-0.7-0.4-1.3-1.1-1.7-1.8c-0.4-0.7-0.6-1.6-0.6-2.5v-37.3L363.1,229.4z"/>
<g>
	<g class="st18">
		<path class="st16" d="M242,333.5c-0.9,0-1.7-0.4-2.3-1.1c-0.7-0.6-1-0.8-1.9-0.2c-0.1,0.1-0.3,0.2-0.4,0.3c-0.2,0.1-0.3,0.1-0.5,0
			c-0.2,0-0.3-0.1-0.4-0.2c-0.1-0.1-0.2-0.2-0.3-0.4c-0.1-0.1-0.1-0.3-0.1-0.5c0-0.2,0-0.3,0.1-0.5c0.1-0.2,0.1-0.3,0.3-0.4
			c0.1-0.1,0.3-0.2,0.4-0.3c0.6-0.5,1.4-0.7,2.2-0.6c0.8,0.1,1.5,0.4,2.1,1c0.7,0.6,1,0.8,1.9,0.2c1.2-0.9,2.2-2.2,2.7-3.7
			c0.7-1.9,1.9-3.5,3.5-4.6c0.6-0.5,1.4-0.7,2.2-0.6c0.8,0.1,1.5,0.4,2.1,1c0.7,0.6,1,0.8,2,0.2c1.2-0.9,2.2-2.2,2.7-3.7
			c0.7-1.9,1.9-3.5,3.5-4.6c0.6-0.5,1.4-0.7,2.2-0.6c0.8,0.1,1.5,0.4,2.1,1c0.7,0.6,1,0.8,1.9,0.2c0.2-0.1,0.5-0.2,0.8-0.1
			c0.3,0.1,0.5,0.3,0.6,0.5c0.1,0.1,0.1,0.3,0.1,0.4s0,0.3,0,0.4s-0.1,0.3-0.2,0.4c-0.1,0.1-0.2,0.2-0.3,0.3
			c-0.6,0.5-1.4,0.7-2.2,0.6c-0.8-0.1-1.5-0.4-2.1-1c-0.7-0.6-1-0.8-1.9-0.2c-1.2,0.9-2.2,2.2-2.7,3.7c-0.7,1.9-1.9,3.5-3.5,4.6
			c-0.6,0.5-1.4,0.7-2.2,0.6c-0.8-0.1-1.5-0.4-2.1-1c-0.7-0.6-1-0.8-1.9-0.2c-1.2,0.9-2.2,2.2-2.7,3.7c-0.7,1.9-1.9,3.5-3.5,4.6
			C243.4,333.3,242.7,333.5,242,333.5z"/>
	</g>
	<g class="st18">
		<path class="st16" d="M319.6,287c-0.9-0.1-1.7-0.4-2.3-1.1c-0.7-0.6-1-0.8-1.9-0.2c-0.1,0.1-0.3,0.2-0.4,0.3
			c-0.2,0.1-0.3,0.1-0.5,0c-0.2,0-0.3-0.1-0.4-0.2c-0.1-0.1-0.2-0.2-0.3-0.4c-0.1-0.1-0.1-0.3-0.1-0.5c0-0.2,0-0.3,0.1-0.5
			c0.1-0.2,0.1-0.3,0.3-0.4c0.1-0.1,0.3-0.2,0.4-0.3c0.6-0.5,1.4-0.7,2.2-0.6c0.8,0.1,1.5,0.5,2.1,1c0.7,0.6,1,0.8,1.9,0.2
			c1.2-0.9,2.2-2.2,2.7-3.7c0.7-1.9,1.9-3.5,3.5-4.6c0.6-0.5,1.4-0.7,2.2-0.6c0.8,0.1,1.5,0.4,2.1,1c0.7,0.6,1,0.8,1.9,0.2
			c1.2-0.9,2.2-2.2,2.7-3.7c0.7-1.9,1.9-3.5,3.5-4.6c0.6-0.5,1.4-0.7,2.2-0.6c0.8,0.1,1.5,0.4,2.1,1c0.7,0.6,1,0.8,1.9,0.2
			c0.1-0.1,0.3-0.1,0.4-0.1c0.1,0,0.3,0,0.4,0s0.3,0.1,0.4,0.2c0.1,0.1,0.2,0.2,0.3,0.3c0.1,0.1,0.1,0.3,0.1,0.4c0,0.1,0,0.3,0,0.4
			c0,0.1-0.1,0.3-0.2,0.4c-0.1,0.1-0.2,0.2-0.3,0.3c-0.6,0.5-1.4,0.7-2.2,0.6c-0.8-0.1-1.5-0.4-2.1-1c-0.7-0.6-1-0.8-2-0.2
			c-1.2,0.9-2.2,2.2-2.7,3.7c-0.7,1.9-1.9,3.5-3.5,4.6c-0.6,0.5-1.4,0.7-2.2,0.6c-0.8-0.1-1.5-0.4-2.1-1c-0.7-0.6-1-0.8-1.9-0.2
			c-1.2,0.9-2.2,2.2-2.7,3.7c-0.7,1.9-1.9,3.5-3.5,4.6C320.9,286.8,320.3,287,319.6,287z"/>
	</g>
	<g class="st18">
		<path class="st16" d="M270.3,306.4c-0.9-0.1-1.7-0.4-2.3-1c-0.7-0.6-1-0.8-1.9-0.2c-0.2,0.1-0.5,0.2-0.8,0.1
			c-0.3-0.1-0.5-0.3-0.6-0.5c-0.1-0.1-0.1-0.3-0.1-0.4c0-0.1,0-0.3,0-0.4s0.1-0.3,0.2-0.4s0.2-0.2,0.3-0.3c0.6-0.5,1.4-0.7,2.2-0.6
			c0.8,0.1,1.5,0.4,2.1,1c0.7,0.6,1,0.8,1.9,0.2c1.2-0.9,2.2-2.2,2.7-3.7c0.7-1.9,1.9-3.5,3.5-4.6c0.6-0.5,1.4-0.7,2.2-0.6
			c0.8,0.1,1.5,0.5,2.1,1.1c0.7,0.6,1,0.8,1.9,0.2c1.2-0.9,2.2-2.2,2.7-3.7c0.7-1.9,1.9-3.5,3.5-4.6c0.6-0.5,1.4-0.7,2.2-0.6
			c0.8,0.1,1.5,0.5,2.1,1.1c0.7,0.6,1,0.8,2,0.2c0.1-0.1,0.3-0.2,0.4-0.3c0.2-0.1,0.3-0.1,0.5-0.1c0.2,0,0.3,0.1,0.4,0.2
			c0.1,0.1,0.2,0.2,0.3,0.4c0.1,0.1,0.1,0.3,0.1,0.5c0,0.2,0,0.3-0.1,0.5c-0.1,0.2-0.1,0.3-0.3,0.4c-0.1,0.1-0.3,0.2-0.4,0.3
			c-0.6,0.5-1.4,0.7-2.2,0.6c-0.8-0.1-1.5-0.4-2.1-1c-0.7-0.6-1-0.8-2-0.2c-1.2,0.9-2.2,2.2-2.7,3.7c-0.7,1.9-1.9,3.5-3.5,4.6
			c-0.6,0.5-1.4,0.7-2.2,0.6c-0.8-0.1-1.5-0.4-2.1-1c-0.7-0.6-1-0.8-2-0.2c-1.2,0.9-2.2,2.2-2.7,3.7c-0.7,1.9-1.9,3.5-3.5,4.6
			C271.7,306.1,271,306.3,270.3,306.4z"/>
	</g>
	<g class="st18">
		<path class="st16" d="M219.3,336.7c-0.6,0.5-1.4,0.7-2.2,0.6c-0.8-0.1-1.5-0.4-2.1-1c-0.7-0.6-1-0.8-1.9-0.2
			c-1.2,0.9-2.2,2.2-2.7,3.7c-0.7,1.9-1.9,3.5-3.5,4.6c-0.6,0.5-1.4,0.7-2.2,0.6c-0.8-0.1-1.5-0.4-2.1-1c-0.7-0.6-1-0.8-2-0.2
			c-1.2,0.9-2.2,2.2-2.7,3.7c-0.5,1.2-1.2,2.3-2,3.3v-4l0.2-0.4c0.7-1.9,1.9-3.5,3.5-4.6c0.6-0.5,1.4-0.7,2.2-0.6
			c0.8,0.1,1.5,0.4,2.1,1c0.7,0.6,1,0.8,1.9,0.2c1.2-0.9,2.2-2.2,2.7-3.7c0.7-1.9,1.9-3.5,3.5-4.6c0.7-0.5,1.4-0.7,2.2-0.6
			c0.8,0.1,1.5,0.4,2.1,1c0.7,0.6,1,0.8,1.9,0.2c0.2-0.1,0.5-0.2,0.8-0.1c0.3,0.1,0.5,0.3,0.6,0.5c0.1,0.2,0.2,0.5,0.1,0.8
			C219.7,336.3,219.5,336.6,219.3,336.7z"/>
	</g>
	<g class="st18">
		<path class="st16" d="M363.1,242.3v2.8c-0.8,0.9-1.5,1.9-2,3.1c-0.7,1.9-2,3.5-3.5,4.6c-0.6,0.5-1.4,0.7-2.2,0.6
			c-0.8-0.1-1.5-0.4-2.1-1c-0.7-0.6-1-0.8-2-0.2c-1.2,0.9-2.2,2.2-2.7,3.7c-0.7,1.9-1.9,3.5-3.5,4.6c-0.6,0.4-1.3,0.6-2,0.6
			c-0.9,0-1.7-0.4-2.3-1c-0.7-0.6-1-0.8-2-0.2c-0.2,0.1-0.5,0.1-0.7,0c-0.2-0.1-0.4-0.3-0.5-0.5c-0.1-0.2-0.2-0.5-0.1-0.7
			c0-0.2,0.1-0.5,0.3-0.6c0.6-0.5,1.4-0.7,2.2-0.6c0.8,0.1,1.5,0.4,2.1,1c0.7,0.6,1,0.8,2,0.2c1.2-0.9,2.2-2.2,2.7-3.7
			c0.7-1.9,2-3.4,3.5-4.6c0.6-0.5,1.4-0.7,2.2-0.6s1.5,0.4,2.1,1c0.7,0.6,1,0.8,1.9,0.3c1.2-0.9,2.2-2.2,2.7-3.7
			c0.7-1.9,1.9-3.5,3.5-4.6L363.1,242.3z"/>
	</g>
</g>
<path class="st16" d="M233.5,265.7l-4.3,2.6v-1.6c0-0.1,0-0.2,0-0.3s0-0.2,0-0.3c-0.2-2.1-1.8-3-3.5-1.9c-0.8,0.6-1.6,1.3-2.1,2.2
	c-0.4-2.9-2.7-4-5.4-2.3c-1.6,1.1-2.9,2.6-3.9,4.3c-1,1.7-1.5,3.7-1.6,5.7v3.5c0,0.3-0.1,0.5-0.2,0.8c-0.1,0.2-0.3,0.4-0.5,0.6
	l-2.6,1.6c-0.5,0.4-1,0.8-1.3,1.4c-0.3,0.6-0.5,1.2-0.5,1.9c0,0.3,0.1,0.6,0.2,0.8c0.1,0.2,0.3,0.4,0.6,0.6c0.2,0.1,0.5,0.2,0.8,0.2
	c0.3,0,0.5-0.1,0.8-0.2l23.6-14.5c0.6-0.4,1.1-0.9,1.5-1.6c0.4-0.7,0.6-1.4,0.6-2.2c0-0.3,0-0.5-0.1-0.8c-0.1-0.2-0.3-0.4-0.5-0.6
	c-0.2-0.1-0.5-0.2-0.7-0.2C234,265.4,233.8,265.5,233.5,265.7z"/>
<path class="st16" d="M339.3,205.1l-4.3,2.6v-2.3c-0.2-2.2-1.8-3-3.5-1.9c-0.9,0.5-1.6,1.3-2.1,2.2c-0.4-2.9-2.7-4-5.4-2.3
	c-1.6,1.1-2.9,2.6-3.9,4.3c-0.9,1.7-1.5,3.7-1.6,5.7v3.5c0,0.3-0.1,0.5-0.2,0.8c-0.1,0.2-0.3,0.4-0.5,0.6l-2.6,1.6
	c-0.5,0.4-1,0.8-1.3,1.4c-0.3,0.6-0.5,1.3-0.5,1.9c0,0.3,0.1,0.6,0.2,0.8c0.1,0.2,0.3,0.4,0.6,0.6c0.2,0.1,0.5,0.2,0.8,0.2
	c0.3,0,0.5-0.1,0.8-0.2l23.6-14.5c0.6-0.4,1.1-0.9,1.5-1.6c0.4-0.7,0.6-1.4,0.6-2.2c0-0.3,0-0.5-0.2-0.8s-0.3-0.4-0.5-0.6
	c-0.2-0.1-0.5-0.2-0.7-0.2C339.8,204.9,339.5,205,339.3,205.1z"/>
<path class="st16" d="M242.2,283.3l-3,1.9v-1.6c-0.1-1.5-1.2-2.1-2.4-1.3c-0.6,0.4-1.1,0.9-1.5,1.5c-0.3-2-1.8-2.7-3.7-1.6
	c-1.1,0.8-2,1.8-2.7,3c-0.7,1.2-1,2.5-1.1,3.9v2.4c0,0.2-0.1,0.4-0.1,0.5c-0.1,0.2-0.2,0.3-0.4,0.4l-1.8,1.1c-0.4,0.2-0.7,0.6-0.9,1
	c-0.2,0.4-0.3,0.9-0.3,1.3c0,0.2,0,0.4,0.1,0.5c0.1,0.2,0.2,0.3,0.4,0.4c0.2,0.1,0.3,0.1,0.5,0.1c0.2,0,0.4,0,0.5-0.1l16.2-9.9
	c0.4-0.3,0.8-0.6,1-1.1c0.2-0.5,0.4-1,0.4-1.5c0-0.2,0-0.4-0.1-0.5c-0.1-0.2-0.2-0.3-0.3-0.4c-0.1-0.1-0.3-0.1-0.5-0.2
	C242.5,283.2,242.3,283.2,242.2,283.3z"/>
<path class="st1" d="M196.3,402.8c-0.2,0-0.4,0-0.5-0.1s-0.3-0.2-0.4-0.4c-0.1-0.3-0.2-0.5-0.1-0.8c0.1-0.3,0.2-0.5,0.5-0.7L362,299
	c0.2-0.1,0.5-0.2,0.8-0.1s0.5,0.3,0.6,0.5c0.1,0.1,0.1,0.3,0.1,0.4c0,0.1,0,0.3,0,0.4c0,0.1-0.1,0.3-0.2,0.4
	c-0.1,0.1-0.2,0.2-0.3,0.3L196.8,402.7C196.6,402.8,196.5,402.8,196.3,402.8z"/>
<path class="st1" d="M196.3,499.3c-0.2,0-0.5-0.1-0.6-0.2c-0.2-0.1-0.3-0.4-0.4-0.6c-0.1-0.2,0-0.5,0-0.7c0.1-0.2,0.2-0.4,0.4-0.5
	L362,395.4c0.2-0.1,0.5-0.2,0.8-0.1c0.3,0.1,0.5,0.3,0.6,0.5c0.1,0.1,0.1,0.3,0.1,0.4c0,0.1,0,0.3,0,0.4c0,0.1-0.1,0.3-0.2,0.4
	c-0.1,0.1-0.2,0.2-0.3,0.3L196.8,499.1C196.6,499.2,196.5,499.2,196.3,499.3z"/>
<path class="st2" d="M476.4,299c30.2,0,54.8-26,54.8-58.1s-24.5-58.1-54.8-58.1c-30.2,0-54.8,26-54.8,58.1S446.2,299,476.4,299z"/>
<path class="st2" d="M439,270.4c0,0,5.9,28.6-15.2,28.6c0,0,24.9,11.5,33.9-12L439,270.4z"/>
<path class="st16" d="M480.6,242.6c3-1.1,5.5-3.2,7.1-6.1c1.6-2.9,2.2-6.2,1.7-9.5c-0.5-3.3-2.1-6.3-4.5-8.5
	c-2.4-2.2-5.4-3.4-8.6-3.4c-3.1,0-6.2,1.2-8.6,3.4c-2.4,2.2-4,5.2-4.5,8.5c-0.5,3.3,0.1,6.7,1.7,9.5c1.6,2.9,4.2,5,7.1,6.1
	c-5.2,1.1-9.9,4-13.3,8.3c-3.4,4.3-5.2,9.8-5.2,15.4c0,0.1,0,0.2,0,0.3h45.5c0-0.1,0-0.2,0-0.3c0-5.6-1.9-11.1-5.3-15.4
	S485.8,243.6,480.6,242.6z"/>
<path class="st2" d="M419.2,164c23.8,0,43-20.4,43-45.6c0-25.2-19.3-45.6-43-45.6s-43,20.4-43,45.6C376.2,143.6,395.4,164,419.2,164
	z"/>
<path class="st2" d="M389.8,141.5c0,0,4.7,22.4-12,22.4c0,0,19.5,9,26.6-9.3L389.8,141.5z"/>
<path class="st16" d="M430.7,101.7c-3.1,0-6,1.3-8.2,3.6c-2.2,2.3-3.4,5.4-3.4,8.7c0-3.2-1.2-6.4-3.4-8.7c-2.2-2.3-5.1-3.6-8.2-3.6
	c-3.1,0-6,1.3-8.2,3.6s-3.4,5.4-3.4,8.7c0,20,23.1,27.8,23.1,27.8s23.1-7.8,23.1-27.8c0-3.2-1.2-6.4-3.4-8.7
	C436.7,102.9,433.8,101.7,430.7,101.7z"/>
<path class="st2" d="M138.8,492.7c20.7-22,20.7-57.6,0-79.6c-20.7-22-54.3-22-75.1,0c-20.7,22-20.7,57.6,0,79.6
	C84.4,514.7,118.1,514.7,138.8,492.7z"/>
<path class="st2" d="M137.5,481.4c0,0-5.8,27.8,14.8,27.8c0,0-24.1,11.1-32.8-11.6L137.5,481.4z"/>
<path class="st16" d="M121.6,432.9H80.9c-1.9,0-3.6,0.8-4.9,2.2c-1.3,1.4-2.1,3.3-2.1,5.2v25.4c0,2,0.7,3.9,2.1,5.3
	c1.3,1.4,3.1,2.2,5,2.2h14.9l5.7,13.6l5.3-13.6h14.6c1.9,0,3.7-0.8,5-2.2c1.3-1.4,2.1-3.3,2.1-5.3v-25.4c0-1.9-0.8-3.8-2.1-5.2
	C125.2,433.7,123.4,432.9,121.6,432.9z M115.7,460h-29c-0.5,0-1-0.2-1.3-0.6c-0.3-0.4-0.5-0.9-0.5-1.4c0-0.5,0.2-1,0.5-1.4
	c0.3-0.4,0.8-0.6,1.3-0.6h29c0.5,0,1,0.2,1.3,0.6c0.3,0.4,0.5,0.9,0.5,1.4c0,0.5-0.2,1-0.5,1.4C116.6,459.8,116.1,460,115.7,460z
	 M115.7,447.3h-29c-0.2,0-0.5-0.1-0.7-0.1c-0.2-0.1-0.4-0.2-0.6-0.4c-0.2-0.2-0.3-0.4-0.4-0.6c-0.1-0.2-0.1-0.5-0.1-0.7
	c0-0.3,0-0.5,0.1-0.7c0.1-0.2,0.2-0.4,0.4-0.6c0.2-0.2,0.4-0.3,0.6-0.4c0.2-0.1,0.5-0.1,0.7-0.1h29c0.5,0,1,0.2,1.3,0.6
	c0.3,0.4,0.5,0.9,0.5,1.4c0,0.5-0.2,1-0.5,1.4C116.6,447.1,116.1,447.3,115.7,447.3z"/>
</svg>
