<?xml version="1.0" encoding="UTF-8"?>
<svg id="Layer_1" data-name="Layer 1" xmlns="http://www.w3.org/2000/svg" width="810" height="636" xmlns:xlink="http://www.w3.org/1999/xlink" viewBox="0 0 810 636">
  <defs>
    <style>
      .cls-1, .cls-2, .cls-3, .cls-4, .cls-5, .cls-6, .cls-7 {
        isolation: isolate;
      }

      .cls-1, .cls-2, .cls-8, .cls-9 {
        fill: #fff;
      }

      .cls-1, .cls-10 {
        opacity: .5;
      }

      .cls-1, .cls-11, .cls-12, .cls-8, .cls-13, .cls-14, .cls-15, .cls-16, .cls-17 {
        stroke: #263238;
      }

      .cls-1, .cls-13, .cls-17 {
        stroke-miterlimit: 10;
      }

      .cls-2 {
        opacity: .8;
      }

      .cls-2, .cls-3, .cls-4, .cls-18, .cls-5, .cls-19, .cls-9, .cls-20, .cls-7 {
        stroke-width: 0px;
      }

      .cls-3 {
        opacity: .9;
      }

      .cls-21 {
        mask: url(#mask-10);
      }

      .cls-22 {
        stroke: #fff;
      }

      .cls-22, .cls-11, .cls-12, .cls-8, .cls-6, .cls-14, .cls-15, .cls-16 {
        stroke-linecap: round;
        stroke-linejoin: round;
      }

      .cls-22, .cls-12, .cls-13, .cls-6, .cls-14, .cls-17 {
        fill: none;
      }

      .cls-22, .cls-12, .cls-6, .cls-15 {
        stroke-width: .62px;
      }

      .cls-23 {
        opacity: .44;
      }

      .cls-24 {
        mask: url(#mask-2);
      }

      .cls-4, .cls-11, .cls-18, .cls-7, .cls-15 {
        fill: #eece93;
      }

      .cls-25 {
        mask: url(#mask-13);
      }

      .cls-11, .cls-8, .cls-14, .cls-16, .cls-17 {
        stroke-width: .83px;
      }

      .cls-26 {
        mask: url(#mask-3);
      }

      .cls-27 {
        mask: url(#mask-9);
      }

      .cls-28 {
        mask: url(#mask-12);
      }

      .cls-5 {
        opacity: .33;
      }

      .cls-5, .cls-19, .cls-16 {
        fill: #fb4a04;
      }

      .cls-29 {
        mask: url(#mask-5);
      }

      .cls-30 {
        opacity: .6;
      }

      .cls-31 {
        mask: url(#mask-8);
      }

      .cls-32 {
        mask: url(#mask-4);
      }

      .cls-20 {
        fill: #263238;
      }

      .cls-33 {
        mask: url(#mask-15);
      }

      .cls-6 {
        stroke: #eece93;
      }

      .cls-34 {
        mask: url(#mask-6);
      }

      .cls-7 {
        opacity: .84;
      }

      .cls-35 {
        mask: url(#mask-1);
      }

      .cls-36 {
        mask: url(#mask);
      }

      .cls-37 {
        mask: url(#mask-7);
      }

      .cls-38 {
        mask: url(#mask-14);
      }

      .cls-39 {
        mask: url(#mask-11);
      }
    </style>
    <mask id="mask" x="549.53" y="174.99" width="58.6" height="83.04" maskUnits="userSpaceOnUse">
      <g id="mask0_415_1422" data-name="mask0 415 1422">
        <path class="cls-9" d="M605.11,213.52c.31-2.57.58-5.2.76-7.84.67-9.63-.85-19.95-9.09-25.62-8.23-5.67-24.11-7.44-32.33-.78-7.07,5.71-10.58,15.34-10.9,24.5-.25,4.01.59,8.01,2.43,11.54,1.58,3.5,4.94,7.48,3.94,11.69-1.16,4.85-10.41,16.14-10.41,16.14l11.07,14.89c2.93-3.7,6.46-6.84,10.41-9.29,3.86-2.45,8.32-3.65,12.83-3.45,5.2,3.08,11.23,4.17,12.97,1.66,1.53-2.21,4.03-9.88,6.09-19.89.92.22,1.89.13,2.77-.24.88-.38,1.62-1.02,2.14-1.85,1.33-2.59-1.85-9.65-2.69-11.44Z"/>
      </g>
    </mask>
    <mask id="mask-1" x="375.1" y="607.15" width="28.78" height="14.06" maskUnits="userSpaceOnUse">
      <g id="mask1_415_1422" data-name="mask1 415 1422">
        <path class="cls-9" d="M383,607.15s21.37,5.71,20.68,7.94c-.69,2.23-24.68,6.15-26.35,5.92-1.67-.23-2.24-12.66-2.24-12.66l7.9-1.2Z"/>
      </g>
    </mask>
    <mask id="mask-2" x="301.3" y="595.71" width="23.97" height="17" maskUnits="userSpaceOnUse">
      <g id="mask2_415_1422" data-name="mask2 415 1422">
        <path class="cls-9" d="M313.33,599.88c1.07,1.74,2.34,3.34,3.8,4.74,1.69,1.33,8.05,4,8.05,5.71s-12.72,2.66-15.26,2.23-5.45-5.71-8.05-7.61c-2.6-1.9,4.56-9.23,4.56-9.23,2.23,1.52,4.53,2.91,6.9,4.17Z"/>
      </g>
    </mask>
    <mask id="mask-3" x="317.48" y="233.42" width="65.33" height="156.35" maskUnits="userSpaceOnUse">
      <g id="mask3_415_1422" data-name="mask3 415 1422">
        <path class="cls-9" d="M381.6,286.76c-3-8.05-7.69-35.81-7.69-35.81-3.43-6.26-11.98-15.67-15.81-17-3.83-1.33-.85,0-4.71,2.68-3.85,2.68-12.81,18.79-19.23,41.18-2.07,7.23-4.56,18.35-6.96,30.19-3.51,11.94-5.82,24.24-6.89,36.68-1.73,10.03-2.85,17.4-2.85,18.71.08.73.33,1.43.75,2.03.41.6.97,1.07,1.61,1.38,0,14.49.18,21.07.18,21.07,0,0,10.19-8.45,15.28-10.68,4.65-1.74,9.64-2.28,14.53-1.59,4.89.7,9.56,2.61,13.6,5.58,7.76,5.43,14.01,10.24,14.86,8.01.85-2.23-1.09-9.98-2.54-16.47-1.71-7.62-4.69-29.81-4.69-29.81,0-5.37,5.45-32.36,8.07-36.48,1.87-2.85,3.07-6.12,3.5-9.54.43-3.43.08-6.91-1.03-10.16Z"/>
      </g>
    </mask>
    <mask id="mask-4" x="358.07" y="209.35" width="27.18" height="55.73" maskUnits="userSpaceOnUse">
      <g id="mask4_415_1422" data-name="mask4 415 1422">
        <path class="cls-9" d="M367.07,209.85c2.58,9.67-2.89,22.84-8.1,25.64-1.62.84,3.8,8.81,7.96,14.11l3.63,6.59,1.71,8.89,2.54-.44s-2.22-9.52-.89-13.69c1.33-4.17,2.24-6.24,2.24-6.24,2.05-4.06,5.21-7.37,9.09-9.52.67-8.28-19.28-29.34-18.17-25.34Z"/>
      </g>
    </mask>
    <mask id="mask-5" x="364.23" y="177.9" width="43.71" height="66.47" maskUnits="userSpaceOnUse">
      <g id="mask5_415_1422" data-name="mask5 415 1422">
        <path class="cls-9" d="M395.32,180.19c6.03,3.18,12.61,8.47,12.61,16.14,0,13.33-5.2,18.71-5.2,22.08s4.27,7.82,2.67,9.52c-1.6,1.69-5.34,1.1-5.34,1.1-2.54,4.87-5.39,9.55-8.54,14.01-3.22,3.92-9.09-1.69-15.5-6.72-6.41-5.03-9.63-9.52-9.63-19.04s-4.49-16.52-.55-25.78c1.18-2.81,2.89-5.34,5.03-7.44,2.14-2.1,4.66-3.73,7.41-4.78,2.75-1.06,5.68-1.52,8.6-1.37,2.93.15,5.79.93,8.43,2.27Z"/>
      </g>
    </mask>
    <mask id="mask-6" x="366.08" y="205.34" width="8.85" height="14.84" maskUnits="userSpaceOnUse">
      <g id="mask6_415_1422" data-name="mask6 415 1422">
        <path class="cls-9" d="M374.83,214.8s-2.98-10.68-5.94-9.35c-2.96,1.33-3.4,6.68-2.13,11.14s4.23,4,5.94,2.67"/>
      </g>
    </mask>
    <mask id="mask-7" x="292.95" y="252.51" width="75.26" height="164.74" maskUnits="userSpaceOnUse">
      <g id="mask7_415_1422" data-name="mask7 415 1422">
        <path class="cls-9" d="M364.07,254.57c-4.49-3.98-11.5-2.3-14.54,6.05-5.09,13.63-10.18,27.3-15.39,40.95-5.09,13.33-25.44,78.76-27.26,83.65-1.82,4.89-5.45,17.34-5.45,17.34,0,0-8.49,6.68-8.49,8.01s2.13,6.23,3.82,6.66c2.59.12,5.14-.66,7.27-2.21,1.69-1.35,2.54-4.02,4.67-10.68,0,0,12.72-35.6,21.22-46.72,8.5-11.12,15.3-39.98,16.99-43.18,5.66-9.45,10.77-19.25,15.3-29.36,2.83-6.57,6.67-14.45,5.89-21.91-.27-3.3-1.71-6.37-4.03-8.62Z"/>
      </g>
    </mask>
    <mask id="mask-8" x="98.54" y="615.22" width="30.06" height="14.94" maskUnits="userSpaceOnUse">
      <g id="mask8_415_1422" data-name="mask8 415 1422">
        <path class="cls-9" d="M120.68,615.22s-22.57,3.05-22.13,5.33c.44,2.28,24.48,9.61,26.22,9.61s3.83-12.64,3.83-12.64l-7.92-2.3Z"/>
      </g>
    </mask>
    <mask id="mask-9" x="197.78" y="606.03" width="24.61" height="17.42" maskUnits="userSpaceOnUse">
      <g id="mask9_415_1422" data-name="mask9 415 1422">
        <path class="cls-9" d="M209.99,610.22c-1.09,1.8-2.41,3.43-3.91,4.87-1.82,1.37-8.3,4.11-8.3,5.96s13.1,2.74,15.74,2.28c2.63-.46,5.67-5.96,8.3-7.79,2.63-1.83-4.71-9.52-4.71-9.52-2.3,1.53-4.68,2.93-7.12,4.19Z"/>
      </g>
    </mask>
    <mask id="mask-10" x="135.47" y="307.85" width="13.28" height="25.68" maskUnits="userSpaceOnUse">
      <g id="mask10_415_1422" data-name="mask10 415 1422">
        <path class="cls-9" d="M147.97,313.24c-1.58-2.18-3.56-4.01-5.81-5.39-.76,3.03-1.92,5.93-3.44,8.62-.91,1.51-2.01,2.89-3.25,4.11,6.25,7.62,11.05,13.1,11.63,12.95,1.76-.42,2.2-17.48.87-20.29Z"/>
      </g>
    </mask>
    <mask id="mask-11" x="149.73" y="359.88" width="53.28" height="25.4" maskUnits="userSpaceOnUse">
      <g id="mask11_415_1422" data-name="mask11 415 1422">
        <path class="cls-9" d="M149.73,366.33l.46,11.99s7.03,6,23.33,6.91c10.24.39,20.39-1.99,29.49-6.91l-3.13-18.45-50.15,6.45Z"/>
      </g>
    </mask>
    <mask id="mask-12" x="138.4" y="232.47" width="69.47" height="142.39" maskUnits="userSpaceOnUse">
      <g id="mask12_415_1422" data-name="mask12 415 1422">
        <path class="cls-9" d="M147.54,250.53s-4.83,28.56-7.92,36.91c-1.13,3.36-1.48,6.95-1.02,10.48.46,3.53,1.71,6.89,3.66,9.81,2.65,4.15,3.96,35.98,3.96,41.52s-3.51,12.93,1.33,18.92c4.83,6,29.07,7.39,42.72,5.54,13.65-1.85,17.61-10.62,17.61-14.77s-12.72-57.66-19.37-80.74c-6.65-23.07-15.86-39.67-19.82-42.43-3.96-2.76-.87-4.15-4.83-2.76-3.96,1.39-12.78,11.06-16.3,17.51Z"/>
      </g>
    </mask>
    <mask id="mask-13" x="144.07" y="322.05" width="54.63" height="99.83" maskUnits="userSpaceOnUse">
      <g id="mask13_415_1422" data-name="mask13 415 1422">
        <path class="cls-9" d="M197.74,322.05l-18.93,7.37s-4.42,16.62-7.05,24.46c-2.64,7.84-16.35,42.43-16.35,42.43,0,0-7.92,9.23-9.69,11.99-1.76,2.76-2.2,11.99-.87,13.33,1.33,1.33,4.4-3.24,4.4-3.24,0,0,.89,2.3,4.4.46,3.51-1.85,8.09-19.3,8.09-19.3,0,0,18.48-33.22,25.1-43.79,6.62-10.57,11.88-20.77,11.88-24.92-.08-2.96-.41-5.9-.96-8.8Z"/>
      </g>
    </mask>
    <mask id="mask-14" x="158.31" y="250.24" width="43.83" height="83.1" maskUnits="userSpaceOnUse">
      <g id="mask14_415_1422" data-name="mask14 415 1422">
        <path class="cls-9" d="M165.6,251.01c-3.67,3.28-6.03,7.89-6.62,12.91-.87,8.3,6.16,28.56,6.16,37.83s1.82,20.77,3.53,25.38c1.71,4.61,9.68,7.39,18.06,5.08,8.38-2.3,15.41-3.69,15.41-13.84s-8.81-27.68-14.97-42.91c-6.16-15.23-11.45-28.59-21.57-24.44Z"/>
      </g>
    </mask>
    <mask id="mask-15" x="112.48" y="173.39" width="45.92" height="70.35" maskUnits="userSpaceOnUse">
      <g id="mask15_415_1422" data-name="mask15 415 1422">
        <path class="cls-9" d="M125.47,177.6c-6.21,3.27-12.99,8.72-12.99,16.64,0,13.84,5.36,19.3,5.36,22.75s-4.42,8.09-2.76,9.82c1.65,1.73,5.45,1.14,5.45,1.14,2.63,5.01,5.57,9.83,8.81,14.43,3.31,4.04,9.38-1.73,15.99-6.93,6.61-5.2,9.9-9.8,9.9-19.61s4.63-17.13.56-26.65c-1.24-2.87-3.01-5.46-5.21-7.61-2.2-2.14-4.79-3.81-7.62-4.89-2.83-1.08-5.83-1.56-8.83-1.4-3.01.15-5.95.94-8.66,2.3Z"/>
      </g>
    </mask>
  </defs>
  <path class="cls-19" d="M699.61,89.84s-2.6-38.07-55.91-39.5c-53.32-1.43-39,38.07-53.3,47.59-14.3,9.52-18.17-5.46-32.51,4.07-14.34,9.54-7.8,28.56-19.5,31.34-11.7,2.78-27.26-12.26-41.59-2.72-14.34,9.54-14.3,17.71-20.81,17.71s-19.5-5.44-27.26,0c-7.76,5.44-16.9,12.26-16.9,12.26h328.91s3.89-12.26-10.41-20.43c-14.3-8.17-20.81-1.37-26-8.19-5.2-6.82,14.3-24.33-24.71-42.13Z"/>
  <path class="cls-2" d="M699.61,89.84s-2.6-38.07-55.91-39.5c-53.32-1.43-39,38.07-53.3,47.59-14.3,9.52-18.17-5.46-32.51,4.07-14.34,9.54-7.8,28.56-19.5,31.34-11.7,2.78-27.26-12.26-41.59-2.72-14.34,9.54-14.3,17.71-20.81,17.71s-19.5-5.44-27.26,0c-7.76,5.44-16.9,12.26-16.9,12.26h328.91s3.89-12.26-10.41-20.43c-14.3-8.17-20.81-1.37-26-8.19-5.2-6.82,14.3-24.33-24.71-42.13Z"/>
  <path class="cls-19" d="M403.56,27.3S401.74.98,364.96.02c-36.78-.95-26.97,26.35-36.83,32.93-9.87,6.59-12.56-3.81-22.44,2.82-9.89,6.62-5.45,19.76-13.47,21.65-8.01,1.88-18.86-8.47-28.73-1.9-9.87,6.57-9.89,12.22-14.37,12.22s-13.47-3.81-18.86,0c-5.4,3.81-11.67,8.47-11.67,8.47h227.14s2.69-8.47-7.18-14.11c-9.87-5.63-14.37-.95-17.97-5.71-3.6-4.76,9.92-16.85-17.03-29.09Z"/>
  <path class="cls-2" d="M403.56,27.3S401.74.98,364.96.02c-36.78-.95-26.97,26.35-36.83,32.93-9.87,6.59-12.56-3.81-22.44,2.82-9.89,6.62-5.45,19.76-13.47,21.65-8.01,1.88-18.86-8.47-28.73-1.9-9.87,6.57-9.89,12.22-14.37,12.22s-13.47-3.81-18.86,0c-5.4,3.81-11.67,8.47-11.67,8.47h227.14s2.69-8.47-7.18-14.11c-9.87-5.63-14.37-.95-17.97-5.71-3.6-4.76,9.92-16.85-17.03-29.09Z"/>
  <path class="cls-19" d="M216.33,97.67s-.96-14.11-20.7-14.62c-19.73-.51-14.54,14.13-19.73,17.65-5.2,3.52-6.74-2.02-12.03,1.52-5.29,3.54-2.89,10.59-7.27,11.59-4.38,1.01-10.1-4.53-15.39-1.01-5.29,3.52-5.31,6.57-7.71,6.57s-7.27-2.02-10.1,0c-2.83,2.02-6.27,4.53-6.27,4.53h121.75s1.45-4.53-3.85-7.62-7.71-.51-9.61-3.03c-1.91-2.51,5.36-9.02-9.09-15.59Z"/>
  <path class="cls-2" d="M216.33,97.67s-.96-14.11-20.7-14.62c-19.73-.51-14.54,14.13-19.73,17.65-5.2,3.52-6.74-2.02-12.03,1.52-5.29,3.54-2.89,10.59-7.27,11.59-4.38,1.01-10.1-4.53-15.39-1.01-5.29,3.52-5.31,6.57-7.71,6.57s-7.27-2.02-10.1,0c-2.83,2.02-6.27,4.53-6.27,4.53h121.75s1.45-4.53-3.85-7.62-7.71-.51-9.61-3.03c-1.91-2.51,5.36-9.02-9.09-15.59Z"/>
  <path class="cls-5" d="M616.02,626.42c0,4.8-32.96,8.66-73.63,8.66s-73.56-3.92-73.56-8.66,32.87-8.59,73.54-8.59,73.65,3.81,73.65,8.59Z"/>
  <path class="cls-5" d="M761.01,622.5c0,4.78-32.96,8.66-73.63,8.66s-73.63-3.81-73.63-8.66,32.96-8.66,73.63-8.66,73.63,3.88,73.63,8.66Z"/>
  <path class="cls-5" d="M329.12,625.64c40.67,0,73.63-3.88,73.63-8.66s-32.97-8.66-73.63-8.66-73.63,3.88-73.63,8.66,32.97,8.66,73.63,8.66Z"/>
  <path class="cls-5" d="M164.2,632.72c40.66,0,73.63-3.88,73.63-8.66s-32.97-8.66-73.63-8.66-73.63,3.88-73.63,8.66,32.97,8.66,73.63,8.66Z"/>
  <path class="cls-9" d="M773.82,531.12s10.54-5.04,12.94-8.45c2.4-3.41,4.34-2.15,3.23,1.9-1.11,4.05-6.67,7.61-6.67,7.61"/>
  <path class="cls-14" d="M773.82,531.12s10.54-5.04,12.94-8.45c2.4-3.41,4.34-2.15,3.23,1.9-1.11,4.05-6.67,7.61-6.67,7.61"/>
  <path class="cls-9" d="M735.7,576.28s3.63,13.74,5.74,19.04c2.11,5.29,3.43,7.79-.85,11.27-4.29,3.48-15.46,8.55-18.61,8.68-3.14.13-7.27-6.99-5.31-7.06,1.74.12,3.45.5,5.09,1.12,0,0,6.23-2.25,8.01-4.95s-5.29-24.25-5.29-24.25"/>
  <path class="cls-14" d="M735.7,576.28s3.63,13.74,5.74,19.04c2.11,5.29,3.43,7.79-.85,11.27-4.29,3.48-15.46,8.55-18.61,8.68-3.14.13-7.27-6.99-5.31-7.06,1.74.12,3.45.5,5.09,1.12,0,0,6.23-2.25,8.01-4.95s-5.29-24.25-5.29-24.25"/>
  <path class="cls-8" d="M667.06,563.16s5.82,3.81,1.23,16.49c-4.58,12.68-15.05,20.43-14.92,23.74.66,4.58,2.1,9,4.25,13.04,1.34,1.9,7.67,2.34,7.11,4.34-.56,2-.53,2.68-4.31,2.82-1.81.15-3.63-.15-5.3-.89-1.68-.73-3.16-1.88-4.33-3.34-2.63-3.22-6.85-14.94-7.63-18.88-.78-3.94,5.87-12.13,6.96-16.81,1.09-4.68-3.03-14.41,1.82-20.56s12.47-3.14,15.12.06Z"/>
  <path class="cls-8" d="M752.09,523.39c-3.99-.58-8.04-.42-11.97.48-5,1.52-18.17,4.04-40.85,4.95-22.68.91-31.93-9.98-48.85-6.64-16.92,3.33-24.31,25.43-23.22,37.94,1.09,12.51,7.6,18.22,5.22,22.27-2.38,4.05-9.59-3.58-9.09,9.63.51,13.21,6.31,34.78,10.07,33.98,3.76-.8,1.51-27.83,1.42-30.46s17.57-2.68,22.37-9.52c4.8-6.83,8.78-18.86,8.78-18.86,0,0,5.07.46,14.79,7.33,9.72,6.87,32.62,11.94,48.95,9.96,16.34-1.98,20.35-13.33,20.35-13.33l5.54-3.52-3.51-44.2Z"/>
  <path class="cls-8" d="M766.84,528.36s-11.68-7.12-14.76-5.01c-3.07,2.11,1.49,40.93,3.49,44.16,1.62,2.59,5.91,2.68,30.71,0,1.77.15,3.5.66,5.09,1.5,2.07.98,4.37,1.29,6.61.91l6.87-1.1s6.14-4.87,3.47-8.74c-2.67-3.86-8.32-5.39-9.78-10.6-1.45-5.22-8.89-16.41-8.89-16.41-7.23-3.15-14.99-4.76-22.82-4.72Z"/>
  <path class="cls-9" d="M785.14,535.97c3.4-.16,6.77-.85,9.98-2.06,4.18-1.9,6.72-4.72,6.87-.84.14,3.88-4.89,11.29-8,13.08-2.36,1.02-4.99,1.13-7.41.3"/>
  <path class="cls-14" d="M785.14,535.97c3.4-.16,6.77-.85,9.98-2.06,4.18-1.9,6.72-4.72,6.87-.84.14,3.88-4.89,11.29-8,13.08-2.36,1.02-4.99,1.13-7.41.3"/>
  <path class="cls-9" d="M718.09,569.69s1.82,15.8,4.67,24.27c2.85,8.47,14.97,29.83,18.83,31.66,3.85,1.83,11.52,4.17,12.63.15,1.11-4.02.47-4.64-3.36-5.83l-3.83-1.16s-11.45-20.05-11.78-28.55c-.33-8.51,2.96-22.6,2.96-22.6"/>
  <path class="cls-14" d="M718.09,569.69s1.82,15.8,4.67,24.27c2.85,8.47,14.97,29.83,18.83,31.66,3.85,1.83,11.52,4.17,12.63.15,1.11-4.02.47-4.64-3.36-5.83l-3.83-1.16s-11.45-20.05-11.78-28.55c-.33-8.51,2.96-22.6,2.96-22.6"/>
  <g class="cls-30">
    <path class="cls-19" d="M795.37,536.62c-12.3,0-10.18,4.47-14.14,3.66-3.96-.82,5.54-6.62-2.38-7.46-7.92-.84-18.39-2.3-18.39-2.3l-5.33-3.5s-8.96.17-25.04,1.75c-16.08,1.58-29.73,1.9-42.27,3.35-7.72.92-15.52.72-23.19-.59,0,0,2.72-22.73-10.72-26.04-13.45-3.31-15.81,27.34-15.81,27.34,0,0-5.45,10.77-6.32,19.04-.87,8.26,7.9,19.04,7.12,24.02-.78,4.99-6.32,9.94-1.58,9.94s11.07,3.31,15.81-8.28c4.74-11.59,6.49-17.13,13.92-14.39,7.43,2.74,35.11,11.9,45.43,11.08,10.32-.82,7.92,14.91,14.25,15.72,6.32.82,7.1-14.91,7.1-17.38s11.07-7.46,10.29-11.61c-.78-4.15-10.07-14.07-8.7-20.69,1.36-6.62,12.38-9.98,12.38-9.98,0,0,.65,21.19,6.02,25.11,5.36,3.92,8.5,10.55,14.83,3.9,6.32-6.64,5.72-11.99,11.87-12.41,6.14-.42,27.18-10.3,14.86-10.26ZM644.55,524.48c-2.96.93-2.93.68-3.63-2.8-.71-3.48,2.09-6.55,6.83-6.55s10.72,9.02,10.72,9.02c-3.72-4.04-10.87-.61-13.85.4l-.07-.08Z"/>
  </g>
  <path class="cls-9" d="M632.04,537.44s4.82-6.13-.13-20.48c-4.94-14.35,6.72-23.42,17.39-25.17,10.67-1.75,20.66,12.41,22.88,21.57,2.22,9.16-1.2,19.23-7.54,18.16-6.34-1.07-7.39-12.28-13.79-14.66-6.4-2.38-11.17,5.06-9.09,8.3"/>
  <path class="cls-14" d="M632.04,537.44s4.82-6.13-.13-20.48c-4.94-14.35,6.72-23.42,17.39-25.17,10.67-1.75,20.66,12.41,22.88,21.57,2.22,9.16-1.2,19.23-7.54,18.16-6.34-1.07-7.39-12.28-13.79-14.66-6.4-2.38-11.17,5.06-9.09,8.3"/>
  <path class="cls-18" d="M664.64,531.52s2.73-22.73-10.72-26.04c-10.54-2.59-14.26,15.69-15.39,23.7l3.16-4.02c-.4-.7-.55-1.53-.42-2.34-.12-.37-.2-.75-.22-1.14,0-1.9,4.03-5.62,8.79-5.62,2.33,0,5.91,4.95,5.91,4.95-.56-.59,1.64,2.13.95,1.9,2.25,3.75,4.16,7.96,7.94,8.61Z"/>
  <path class="cls-20" d="M793.32,564.05c2.35,1.24,4.56,2.76,6.58,4.53l-6.58-4.53Z"/>
  <path class="cls-14" d="M793.32,564.05c2.35,1.24,4.56,2.76,6.58,4.53"/>
  <path class="cls-20" d="M798.53,550.96c0,1.28-.35,2.32-.87,2.36-.53.04-.98-1.01-1.04-2.29-.05-1.27.34-2.32.87-2.34.53-.02.98.99,1.04,2.27Z"/>
  <path class="cls-20" d="M808.98,562.26c0,1.28-.33,2.32-.85,2.34-.53.02-.98-.99-1.04-2.27-.05-1.28.35-2.32.87-2.34.53-.02.98.99,1.02,2.26Z"/>
  <path class="cls-12" d="M786.28,567.58l-5.72-2.51"/>
  <path class="cls-12" d="M637.1,522.36s1.58-8.87,4.23-10.53"/>
  <path class="cls-12" d="M644.51,513.49s2.11-4.44,5.82-4.44"/>
  <path class="cls-12" d="M650.85,512.94c1.52-.81,3.26-1.03,4.92-.62s3.13,1.41,4.16,2.83"/>
  <path class="cls-12" d="M657.81,516.27s5.29,3.81,5.29,7.75"/>
  <path class="cls-12" d="M672.04,565.06c2.56.99,5.38.99,7.94,0,4.23-1.66,6.34-2.21,6.34-2.21"/>
  <path class="cls-12" d="M693.21,560.63l-3.18,1.67"/>
  <path class="cls-12" d="M681.03,568.34s5.82,1.1,9.09-1.1"/>
  <path class="cls-12" d="M698.5,576.71s7.94,1.66,11.65.55"/>
  <path class="cls-12" d="M720.21,529.58s-6.36,2.76-7.94,4.99l-1.6,2.23"/>
  <path class="cls-12" d="M709.62,532.34s-4.23,5.01-4.76,7.21"/>
  <path class="cls-12" d="M703.26,535.12l-3.69,4.44"/>
  <path class="cls-12" d="M752.3,538.73c.57,1.82,1.66,3.42,3.14,4.56,1.47,1.14,3.25,1.78,5.08,1.82"/>
  <path class="cls-12" d="M755.68,547.4s5.29,2.23,8.47,1.1"/>
  <path class="cls-12" d="M650.85,532.34s-6.34,3.81-4.23,10.55"/>
  <path class="cls-12" d="M642.39,541.78s1.6,11.08,11.65,11.65"/>
  <path class="cls-19" d="M582.82,394.36c-1.13,5.66-1.98,11.38-2.53,17.13,0,3.98,20.81,79.29,20.81,90.52s8.83,109.02,8.83,109.02l-14.54,3.29s-11.99-46.91-17.66-64.08c-5.67-17.17-8.2-46.91-8.2-46.91l-13.25-49.5s-10.72-22.46-15.77-31.07c-5.05-8.61-9.45-15.23-8.83-22.46.62-7.23,7.58-11.88,7.58-11.88l43.56,5.92Z"/>
  <path class="cls-3" d="M582.82,394.36c-1.13,5.66-1.98,11.38-2.53,17.13,0,3.98,20.81,79.29,20.81,90.52s8.83,109.02,8.83,109.02l-14.54,3.29s-11.99-46.91-17.66-64.08c-5.67-17.17-8.2-46.91-8.2-46.91l-13.25-49.5s-10.72-22.46-15.77-31.07c-5.05-8.61-9.45-15.23-8.83-22.46.62-7.23,7.58-11.88,7.58-11.88l43.56,5.92Z"/>
  <path class="cls-11" d="M610.67,425.56s-5.8,3.37-4.51,7.43c1.29,4.05,8.36,9.52,12.23,10.77,3.87,1.26,18.01-6.74,19.3-12.13,1.29-5.39-2.58-15.5-5.14-16.85l-2.58-1.35-19.3,12.13Z"/>
  <path class="cls-14" d="M633.19,436.92l118.9,86.47"/>
  <path class="cls-20" d="M748,523.47s-.27,7.84-.27,17.95,5.61,26.92,5.61,26.92l2.23-.86s-3.27-24.04-3.27-28.75.42-15.63.42-15.63l-4.73.36Z"/>
  <path class="cls-16" d="M754.12,523.75s-10.72-10.81-13.5-10.81-3.64,2.07-2.38,3.81c1.25,1.73,9.79,6.8,9.79,6.8,0,0,3.27,4.36,6.09.21Z"/>
  <path class="cls-4" d="M754.12,523.75s-10.72-10.81-13.5-10.81-3.64,2.07-2.38,3.81c1.25,1.73,9.79,6.8,9.79,6.8,0,0,3.27,4.36,6.09.21Z"/>
  <path class="cls-8" d="M619.03,400.52s6.43,7.43,7.72,9.52c1.74,3.81,2.83,7.92,3.22,12.13,0,2.7-10.9,8.78-14.79,8.09-3.89-.68-6.45-6.05-7.09-8.09-.64-2.04-3.22-8.76-3.22-8.76l14.16-12.89Z"/>
  <path class="cls-19" d="M521,391.05c-1.05,8.17-.61,16.46,1.27,24.46,3.14,11.88,8.2,22.46,8.2,24.44s-3.78,59.45-4.42,61.45c-.64,2-43.52,103.1-42.88,105.01.64,1.9,10.08,5.94,10.08,5.94,0,0,63.07-91.84,66.22-96.46,3.14-4.63,14.54-87.21,16.35-91.84,1.82-4.63,3.85-34.32,3.85-34.32,0,0-42.9-1.31-58.68,1.31Z"/>
  <path class="cls-3" d="M521,391.05c-1.05,8.17-.61,16.46,1.27,24.46,3.14,11.88,8.2,22.46,8.2,24.44s-3.78,59.45-4.42,61.45c-.64,2-43.52,103.1-42.88,105.01.64,1.9,10.08,5.94,10.08,5.94,0,0,63.07-91.84,66.22-96.46,3.14-4.63,14.54-87.21,16.35-91.84,1.82-4.63,3.85-34.32,3.85-34.32,0,0-42.9-1.31-58.68,1.31Z"/>
  <path class="cls-6" d="M578.33,414.21l-10.58,62.12"/>
  <path class="cls-6" d="M558.74,405.89c-1.62,3.17-3.57,6.14-5.82,8.87-1.44,1.59-3.27,2.75-5.29,3.33"/>
  <path class="cls-6" d="M545.51,404.79s.53,16.09,1.05,22.73c.62,11.1.26,22.24-1.05,33.28-1.58,16.09-1.58,23.85-1.58,23.85"/>
  <path class="cls-8" d="M609.93,611.08s23.33,3.96,23.33,6.61-35.94,15.23-37.83,11.9c-1.89-3.33,0-15.23,0-15.23l14.5-3.27Z"/>
  <path class="cls-8" d="M483.17,606.41s-8.83,10.57-8.2,13.21c.64,2.65,10.72,7.94,15.76,8.59,5.03.65,16.35.67,19.55-1.31,3.2-1.98-6.92-4.63-9.45-7.27-2.52-2.65-7.58-7.27-7.58-7.27l-10.08-5.94Z"/>
  <path class="cls-15" d="M510.28,626.93s-13.46-.3-19.3-1.9c-5.83-1.6-14.28-7.77-14.28-7.77l-.91-.32c-.55.81-.83,1.79-.82,2.78.62,2.65,10.72,7.94,15.76,8.59,5.03.65,16.41.61,19.55-1.37Z"/>
  <path class="cls-15" d="M611.15,623.85c-6.34,2.78-14.28,1.67-15.86,1.67h-.65c-.02,1.37.25,2.72.8,3.96,1.82,3.29,37.83-9.25,37.83-11.9,0-.38-.51-.8-1.36-1.24l-1.16.21s-13.23,4.53-19.59,7.29Z"/>
  <path class="cls-20" d="M659.1,257.4l3.63,1.67c.5.22.95.56,1.31,1,.36.43.61.95.74,1.5.13.55.14,1.13.02,1.69-.12.56-.36,1.08-.71,1.52l-16.35,21.76c-.28.37-.63.68-1.03.9-.4.23-.83.36-1.28.4-.45.04-.9,0-1.33-.16-.43-.15-.82-.38-1.16-.69l-2.76-2.55c-.62-.57-1.02-1.37-1.1-2.24-.08-.86.15-1.73.65-2.42l15.03-21.13c.48-.69,1.18-1.19,1.96-1.42.79-.23,1.63-.17,2.38.16Z"/>
  <path class="cls-8" d="M623.54,294.68s4.51-3.37,5.14-5.39-.64-4.04,2.58-8.76c2.44-3.18,5.55-5.72,9.09-7.42,0,0,2.56-4.04,4.51-3.37,1.95.67,2.56,2.02,1.27,4.72-1.5,2.63-3.22,5.11-5.14,7.42,0,0,13.65-7.52,16.65-6.11,1.67.82-1.24,5.14-1.24,5.14,0,0-3.82,10.39-5.76,12.43-1.94,2.04-23.17,12.13-23.17,12.13l-3.93-10.79Z"/>
  <path class="cls-9" d="M614.53,411.99v4.05l4.51,2.02s-7.72,11.42-3.85,12.13c3.87.71,9.65-8.09,10.28-10.11.34-2.23.34-4.51,0-6.74"/>
  <path class="cls-14" d="M614.53,411.99v4.05l4.51,2.02s-7.72,11.42-3.85,12.13c3.87.71,9.65-8.09,10.28-10.11.34-2.23.34-4.51,0-6.74"/>
  <path class="cls-14" d="M608.09,422.09l10.94-4.04"/>
  <path class="cls-16" d="M588.14,337.84s13.52,31.68,16.1,36.4c2.58,4.72,16.72,22.26,17.37,24.94.65,2.68-10.9,11.42-14.16,14.16l-3.22,2.7s-9.67-8.09-9.67-11.42-10.29-28.33-10.9-30.35c-.62-2.02-6.43-22.84-6.43-22.84,0,0,.62-18.31,10.9-13.59Z"/>
  <path class="cls-4" d="M588.14,337.84s13.52,31.68,16.1,36.4c2.58,4.72,16.72,22.26,17.37,24.94.65,2.68-10.9,11.42-14.16,14.16l-3.22,2.7s-9.67-8.09-9.67-11.42-10.29-28.33-10.9-30.35c-.62-2.02-6.43-22.84-6.43-22.84,0,0,.62-18.31,10.9-13.59Z"/>
  <path class="cls-16" d="M566.26,248.84l10.9,12.15s3.87,9.52,1.94,10.11l-1.94.67s16.1,80.22,19.32,96.4c3.22,16.18,5.14,25.62,3.85,28.99-1.29,3.37-7.72,3.37-7.72,3.37l-13.5-4.04-18.66-142.93s-1.91-9.42,5.82-4.72Z"/>
  <path class="cls-4" d="M566.26,248.84l10.9,12.15s3.87,9.52,1.94,10.11l-1.94.67s16.1,80.22,19.32,96.4c3.22,16.18,5.14,25.62,3.85,28.99-1.29,3.37-7.72,3.37-7.72,3.37l-13.5-4.04-18.66-142.93s-1.91-9.42,5.82-4.72Z"/>
  <path class="cls-12" d="M612.75,388.7l-9.52,6.66"/>
  <path class="cls-9" d="M605.11,213.52c.31-2.57.58-5.2.76-7.84.67-9.63-.85-19.95-9.09-25.62-8.23-5.67-24.11-7.44-32.33-.78-7.07,5.71-10.58,15.34-10.9,24.5-.25,4.01.59,8.01,2.43,11.54,1.58,3.5,4.94,7.48,3.94,11.69-1.16,4.85-10.41,16.14-10.41,16.14l11.07,14.89c2.93-3.7,6.46-6.84,10.41-9.29,3.86-2.45,8.32-3.65,12.83-3.45,5.2,3.08,11.23,4.17,12.97,1.66,1.53-2.21,4.03-9.88,6.09-19.89.92.22,1.89.13,2.77-.24.88-.38,1.62-1.02,2.14-1.85,1.33-2.59-1.85-9.65-2.69-11.44Z"/>
  <g class="cls-36">
    <g>
      <g class="cls-10">
        <path class="cls-19" d="M604.06,191.65s-15.17.38-15.52,2.26c-.24,1.63-.36,3.28-.36,4.93,0,0-4.69-7.2,2.53-7.94,4.46-.44,8.96-.19,13.36.74Z"/>
      </g>
      <g class="cls-10">
        <path class="cls-19" d="M551.44,240.61l6.78,6.62,11.92-24.96-10.9-.27c.68,1.56.87,3.31.54,4.99-.74,3.41-5.54,10.09-8.34,13.61Z"/>
      </g>
    </g>
  </g>
  <path class="cls-14" d="M605.11,213.52c.31-2.57.58-5.2.76-7.84.67-9.63-.85-19.95-9.09-25.62-8.23-5.67-24.11-7.44-32.33-.78-7.07,5.71-10.58,15.34-10.9,24.5-.25,4.01.59,8.01,2.43,11.54,1.58,3.5,4.94,7.48,3.94,11.69-1.16,4.85-10.41,16.14-10.41,16.14l11.07,14.89c2.93-3.7,6.46-6.84,10.41-9.29,3.86-2.45,8.32-3.65,12.83-3.45,5.2,3.08,11.23,4.17,12.97,1.66,1.53-2.21,4.03-9.88,6.09-19.89.92.22,1.89.13,2.77-.24.88-.38,1.62-1.02,2.14-1.85,1.33-2.59-1.85-9.65-2.69-11.44Z"/>
  <path class="cls-20" d="M575.42,210.96s5.96.84,6.76-2.07c.8-2.91,2.38-4.15,5.94-5.83,3.56-1.68-.78-4.99-1.58-9.14-.8-4.15,11.9-4.17,19.44-2.1,7.54,2.08,15.5,2.1,13.5-8.74-2-10.83-9.92-8.72-13.88-8.72s3.96-7.9-4.38-10.81c-8.34-2.91-9.92,2.08-10.72,4.99-.8,2.91-4.76,2.91-8.32,2.91s-7.16-4.59-20.66.82c-13.5,5.41-15.88,24.14-12.72,35.37s4.96,16.7,11.03,19.36c6.07,2.66,15.57-9.39,15.57-12.72l.02-3.33Z"/>
  <path class="cls-22" d="M584.69,192.95s.53-2.23-5.29,2.76c-5.82,4.99-7.94,10-16.35,10.55"/>
  <path class="cls-22" d="M555.58,212.9s6.34,2.78,10.05,0"/>
  <path class="cls-20" d="M601.21,207.59l-1.82,11.42c-.08.45.01.91.25,1.29.24.38.6.65,1.02.76l.62.15,1.82-11.42c.05-.44-.05-.9-.28-1.27-.23-.38-.58-.65-.99-.79l-.62-.15Z"/>
  <path class="cls-20" d="M601.21,207.59s-29.2-.55-30.89,0c-1.21,1.53-2.25,3.2-3.11,4.97-.51,1.6.93,1.33,1.82.46.89-.88,2.34-4.15,3.11-4.32.76-.17,28.73,1.68,28.73,1.68l.67-2.65-.33-.13Z"/>
  <path class="cls-9" d="M580.02,212.8s-.8-9.99-7.14-3.33-1.6,14.14,1.58,14.96c.94.19,1.92.05,2.78-.4.86-.45,1.56-1.19,1.98-2.09"/>
  <path class="cls-14" d="M580.02,212.8s-.8-9.99-7.14-3.33-1.6,14.14,1.58,14.96c.94.19,1.92.05,2.78-.4.86-.45,1.56-1.19,1.98-2.09"/>
  <path class="cls-9" d="M598.84,235.49s-6.74-1.24-6.74-3.81l6.74,3.81Z"/>
  <path class="cls-14" d="M598.84,235.49s-6.74-1.24-6.74-3.81"/>
  <path class="cls-9" d="M594.09,213.45s4.29.32,4.76,2.91l-4.76-2.91Z"/>
  <path class="cls-14" d="M594.09,213.45s4.29.32,4.76,2.91"/>
  <path class="cls-9" d="M595.66,203.89s3.98-4.17,6.36-.42l-6.36.42Z"/>
  <path class="cls-14" d="M595.66,203.89s3.98-4.17,6.36-.42"/>
  <path class="cls-12" d="M574.46,224.43s.69,8.43,3.87,13.42"/>
  <path class="cls-16" d="M550.05,237.21l20.15,23.02s6.92,51.55,13.23,90.52c6.31,38.97,6.31,52.87,6.31,52.87-13.01,1.16-26.08,1.16-39.09,0-12.99-1.38-25.86-3.81-38.49-7.27,0,0,5.69-90.52,10.1-115.63,3.92-22.35,22.37-39.98,26.35-43.6.2-.18.47-.27.74-.26.27.02.52.14.7.35Z"/>
  <path class="cls-1" d="M550.05,237.21l20.15,23.02s6.92,51.55,13.23,90.52c6.31,38.97,6.31,52.87,6.31,52.87-13.01,1.16-26.08,1.16-39.09,0-12.99-1.38-25.86-3.81-38.49-7.27,0,0,5.69-90.52,10.1-115.63,3.92-22.35,22.37-39.98,26.35-43.6.2-.18.47-.27.74-.26.27.02.52.14.7.35Z"/>
  <path class="cls-11" d="M541.82,243.72s16.35,25.11,18.28,27.09c1.93,1.98,10.1-10.58,10.1-10.58,0,0-17.66-22.46-20.82-23.78-3.16-1.31-7.56,7.27-7.56,7.27Z"/>
  <path class="cls-19" d="M557.09,281.14c4.16,6.13,13.68,39.16,13.68,39.16,0,0,46.37-26.1,49.59-26.1,3.87-1.35,7.09,5.41,10.3,14.83,3.22,9.42,1.29,10.8,1.29,10.8l-19.99,4.59c-21.81,14.58-56.2,38.21-57.93,36.4-2.56-2.7-12.21-28.31-17.37-40.45-5.16-12.15-5.78-26.29-1.93-36.4.99-2.61,2.12-5.15,3.4-7.62,0,0,5.62-6.47,8.83-5.12"/>
  <path class="cls-14" d="M557.09,281.14c4.16,6.13,13.68,39.16,13.68,39.16,0,0,46.37-26.1,49.59-26.1,3.87-1.35,7.09,5.41,10.3,14.83,3.22,9.42,1.29,10.8,1.29,10.8l-19.99,4.59c-21.81,14.58-56.2,38.21-57.93,36.4-2.56-2.7-12.21-28.31-17.37-40.45-5.16-12.15-5.78-26.29-1.93-36.4.99-2.61,2.12-5.15,3.4-7.62,0,0,5.62-6.47,8.83-5.12"/>
  <g class="cls-10">
    <path class="cls-9" d="M557.09,281.14c4.16,6.13,13.68,39.16,13.68,39.16,0,0,46.37-26.1,49.59-26.1,3.87-1.35,7.09,5.41,10.3,14.83,3.22,9.42,1.29,10.8,1.29,10.8l-19.99,4.59c-21.81,14.58-56.2,38.21-57.93,36.4-2.56-2.7-12.21-28.31-17.37-40.45-5.16-12.15-5.78-26.29-1.93-36.4.99-2.61,2.12-5.15,3.4-7.62,0,0,5.62-6.47,8.83-5.12"/>
    <path class="cls-13" d="M557.09,281.14c4.16,6.13,13.68,39.16,13.68,39.16,0,0,46.37-26.1,49.59-26.1,3.87-1.35,7.09,5.41,10.3,14.83,3.22,9.42,1.29,10.8,1.29,10.8l-19.99,4.59c-21.81,14.58-56.2,38.21-57.93,36.4-2.56-2.7-12.21-28.31-17.37-40.45-5.16-12.15-5.78-26.29-1.93-36.4.99-2.61,2.12-5.15,3.4-7.62,0,0,5.62-6.47,8.83-5.12"/>
  </g>
  <path class="cls-8" d="M624.4,317.9c1.07,0,1.94-.91,1.94-2.04s-.87-2.04-1.94-2.04-1.95.91-1.95,2.04.87,2.04,1.95,2.04Z"/>
  <path class="cls-12" d="M602.77,306.56l6.43,13.78"/>
  <path class="cls-12" d="M570.77,320.3s-6.56,5.18-7.47,9.98"/>
  <path class="cls-12" d="M564.52,322.26s-6.12,5.14-5.82,11.55"/>
  <path class="cls-12" d="M574.62,294.98h-8.47"/>
  <path class="cls-12" d="M576.75,306.08h-8.47"/>
  <path class="cls-12" d="M515.35,388.15c10.06,2.87,20.32,4.92,30.69,6.11l15.88,1.66"/>
  <path class="cls-12" d="M568.28,395.92l14.54-1.56"/>
  <path class="cls-12" d="M578.85,351.54l4.23,31.62"/>
  <path class="cls-12" d="M540.22,273.36s3.18-13.33,7.41-17.74"/>
  <path class="cls-12" d="M551.35,259.48l-4.78,5.56"/>
  <path class="cls-18" d="M742.86,188.95h-72.85c-4.07,0-7.36,3.45-7.36,7.71v30.88c0,4.26,3.29,7.71,7.36,7.71h72.85c4.06,0,7.36-3.45,7.36-7.71v-30.88c0-4.26-3.3-7.71-7.36-7.71Z"/>
  <path class="cls-18" d="M662.65,223.14v24.86l13.25-15.95"/>
  <path class="cls-9" d="M693.17,212.95c0-.94-.26-1.87-.76-2.65-.5-.79-1.21-1.4-2.04-1.76-.83-.36-1.75-.46-2.63-.27-.88.18-1.69.64-2.33,1.3-.64.67-1.07,1.52-1.24,2.44-.17.93-.08,1.88.26,2.75.35.87.93,1.61,1.68,2.13.75.52,1.63.8,2.53.79,1.2,0,2.35-.51,3.19-1.39.85-.89,1.33-2.09,1.33-3.35Z"/>
  <path class="cls-9" d="M712.62,212.95c0-.94-.26-1.87-.76-2.65-.5-.79-1.21-1.4-2.04-1.76-.83-.36-1.75-.46-2.63-.27-.88.18-1.69.64-2.33,1.3-.64.67-1.07,1.52-1.24,2.44-.17.93-.08,1.88.26,2.75.35.87.93,1.61,1.68,2.13.75.52,1.63.8,2.53.79,1.2,0,2.35-.51,3.19-1.39.85-.89,1.33-2.09,1.33-3.35Z"/>
  <path class="cls-9" d="M732.06,212.95c0-.94-.26-1.86-.76-2.65s-1.21-1.4-2.03-1.76c-.83-.36-1.74-.46-2.63-.28-.88.18-1.69.63-2.33,1.3-.64.66-1.07,1.51-1.25,2.44-.18.92-.09,1.88.26,2.75.34.87.92,1.62,1.67,2.14.75.52,1.63.8,2.53.8,1.2,0,2.35-.5,3.21-1.39.85-.89,1.33-2.09,1.34-3.35Z"/>
  <path class="cls-12" d="M525.92,314.4l10.74,5.9"/>
  <path class="cls-12" d="M523.81,326.03s10.05.55,13.76-2.21"/>
  <path class="cls-6" d="M546.57,504.62s-20.11-2.78-14.81.55c4.19,2.38,8.63,4.24,13.23,5.54h-12.18"/>
  <path class="cls-8" d="M359.12,438.45s-5.45,71.05-7.65,76.42c-2.2,5.37-38.16,85.02-38.16,85.02l-6.9-4.05,25.84-97.93-4.89-109.5,31.76,50.05Z"/>
  <path class="cls-8" d="M370.08,373.15s10.25,57.74,12.39,74.74c2.14,17,.53,159.26.53,159.26l-7.9,1.2-23.39-157.78s-13.92-34.53-20.99-43.12c-8.19-9.94-12.32-21.8-7.56-31.62,3.11-6.59,46.92-2.68,46.92-2.68Z"/>
  <path class="cls-11" d="M322.36,579.87c10.9-23.97,27.68-61.39,29.07-65.01,2.14-5.37,7.65-76.42,7.65-76.42l-31.76-50.09,4.92,109.54-20.5,77.73,10.61,4.24Z"/>
  <path class="cls-11" d="M383.2,586c.4-39.98.89-125.23-.73-138.11-2.15-17-12.39-74.74-12.39-74.74,0,0-43.81-3.9-46.99,2.68-4.76,9.82-.64,21.68,7.56,31.62,7.14,8.66,21.06,43.12,21.06,43.12l20.48,136.15c3.68.36,7.4.12,11.01-.72Z"/>
  <path class="cls-18" d="M344.24,379.43s-3.82,4-1.27,6.23c2.54,2.23,12.72-.89,9.76,1.33-2.96,2.23-14.43,9.79-8.07,8.91,6.36-.88,14.03-1.79,11.05,1.33-2.98,3.12-4.25,3.1-2.13,8,2.13,4.89,5.11,15.13,5.11,15.13"/>
  <path class="cls-12" d="M344.24,379.43s-3.82,4-1.27,6.23c2.54,2.23,12.72-.89,9.76,1.33-2.96,2.23-14.43,9.79-8.07,8.91,6.36-.88,14.03-1.79,11.05,1.33-2.98,3.12-4.25,3.1-2.13,8,2.13,4.89,5.11,15.13,5.11,15.13"/>
  <path class="cls-12" d="M359.96,424.36l3.82,11.14"/>
  <path class="cls-18" d="M347.64,469.74s-1.69,29.38-2.98,33.83c-1.29,4.46-7.63-.89-5.09,2.67,2.54,3.56,5.45,4.89,4.25,5.33-1.2.44-5.11-.44-5.11,1.33s-4.25,16.03-4.25,16.03"/>
  <path class="cls-12" d="M347.64,469.74s-1.69,29.38-2.98,33.83c-1.29,4.46-7.63-.89-5.09,2.67,2.54,3.56,5.45,4.89,4.25,5.33-1.2.44-5.11-.44-5.11,1.33s-4.25,16.03-4.25,16.03"/>
  <path class="cls-9" d="M383,607.15s21.37,5.71,20.68,7.94c-.69,2.23-24.68,6.15-26.35,5.92-1.67-.23-2.24-12.66-2.24-12.66l7.9-1.2Z"/>
  <g class="cls-35">
    <path class="cls-18" d="M377.52,621.2c1.67.23,25.66-3.81,26.35-5.92.14-.46-.71-1.09-2.16-1.79l-25.55,3.6c.26,2.23.73,4.04,1.36,4.11Z"/>
  </g>
  <path class="cls-17" d="M383,607.15s21.37,5.71,20.68,7.94c-.69,2.23-24.68,6.15-26.35,5.92-1.67-.23-2.24-12.66-2.24-12.66l7.9-1.2Z"/>
  <path class="cls-9" d="M313.33,599.88c1.07,1.74,2.34,3.34,3.8,4.74,1.69,1.33,8.05,4,8.05,5.71s-12.72,2.66-15.26,2.23-5.45-5.71-8.05-7.61c-2.6-1.9,4.56-9.23,4.56-9.23,2.23,1.52,4.53,2.91,6.9,4.17Z"/>
  <g class="cls-24">
    <path class="cls-18" d="M325.27,610.39c0-.44-.38-.93-1-1.45-4.05.42-9.49.78-11.77,0-2.29-.78-7.27-4.87-10.25-7.61-.85,1.54-1.24,2.97-.29,3.64,2.54,1.77,5.45,7.1,8.05,7.61,2.6.51,15.27-.46,15.27-2.19Z"/>
  </g>
  <path class="cls-14" d="M313.33,599.88c1.07,1.74,2.34,3.34,3.8,4.74,1.69,1.33,8.05,4,8.05,5.71s-12.72,2.66-15.26,2.23-5.45-5.71-8.05-7.61c-2.6-1.9,4.56-9.23,4.56-9.23,2.23,1.52,4.53,2.91,6.9,4.17h0Z"/>
  <path class="cls-12" d="M433.01,275.32s6.36-2.23,7.27-4.45c.67-2.49,1.1-5.04,1.27-7.61,0,0-8.12,8.95-8.54,12.07Z"/>
  <path class="cls-8" d="M420.07,261.69s-6.83,11.65-6.83,12.98-31.2,30-31.2,30c0,0-7.27,4.47-8.54,7.16s-.85,19.25.85,19.68c1.71.44,41.45-50.58,43.61-51.4,2.16-.82,9.39-3.58,9.39-3.58l6.85-8.95-14.14-5.9Z"/>
  <path class="cls-20" d="M440.42,250.7l3.49,1.6c.46.21.88.53,1.2.94.33.4.56.88.68,1.4.12.51.13,1.05.02,1.57-.11.52-.33,1.01-.64,1.42l-15.37,20.58c-.26.35-.59.64-.97.86-.38.21-.79.34-1.21.39-.43.04-.85,0-1.26-.15s-.78-.36-1.1-.66l-2.62-2.42c-.59-.55-.95-1.3-1.04-2.12-.08-.82.13-1.64.6-2.3l14.23-19.99c.45-.63,1.08-1.08,1.8-1.28.72-.2,1.49-.15,2.18.16Z"/>
  <path class="cls-8" d="M423.91,258.03s6.85,7.62,6.41,9.4c-.44,1.79-2.56,3.14-3.85,1.79-1.29-1.35-5.98-5.37-6.4-7.61-.14-.54-.13-1.11.02-1.64.15-.54.44-1.02.84-1.39.4-.37.89-.62,1.41-.72.53-.1,1.07-.04,1.56.17Z"/>
  <path class="cls-9" d="M381.6,286.76c-3-8.05-7.69-35.81-7.69-35.81-3.43-6.26-11.98-15.67-15.81-17-3.83-1.33-.85,0-4.71,2.68-3.85,2.68-12.81,18.79-19.23,41.18-2.07,7.23-4.56,18.35-6.96,30.19-3.51,11.94-5.82,24.24-6.89,36.68-1.73,10.03-2.85,17.4-2.85,18.71.08.73.34,1.43.75,2.03.41.6.97,1.07,1.61,1.38,0,14.49.18,21.07.18,21.07,0,0,10.19-8.45,15.28-10.68,4.65-1.74,9.63-2.28,14.53-1.59,4.89.7,9.56,2.61,13.6,5.58,7.76,5.43,14.01,10.24,14.86,8.01.85-2.23-1.09-9.98-2.54-16.47-1.71-7.62-4.69-29.81-4.69-29.81,0-5.37,5.45-32.36,8.07-36.48,1.87-2.85,3.07-6.12,3.5-9.54.43-3.43.08-6.91-1.03-10.16Z"/>
  <g class="cls-26">
    <g class="cls-10">
      <path class="cls-19" d="M338.74,332.89l-14.72,28.25s13.01-42.13,14.23-58.56c1.22-16.43,16.17-43.16,20.1-49.82,3.93-6.66,4.91-8.74,4.91-8.74l4.18-2.02c-3.42-3.92-7.12-7.29-9.3-8.05-3.85-1.35-.85,0-4.71,2.68-3.85,2.69-12.81,18.79-19.23,41.18-2.07,7.23-4.56,18.35-6.96,30.19-3.51,11.95-5.81,24.24-6.89,36.68-1.73,10.03-2.85,17.4-2.85,18.71.08.73.33,1.43.75,2.03.41.6.97,1.07,1.61,1.38,0,14.49.18,21.07.18,21.07,4.22-3.51,8.65-6.74,13.27-9.65-.22-1.29-.54-2.57-.94-3.81-.63-2.21-.82-4.53-.57-6.82.25-2.29.95-4.5,2.04-6.5,4.31-5.71,9.07-11.03,14.21-15.92,4.41-4.11-13.23-3.08-9.3-5.71,3.93-2.63,21.08-11.31,24.02-14.39,2.94-3.08-24.02,7.8-24.02,7.8Z"/>
    </g>
  </g>
  <path class="cls-14" d="M381.6,286.76c-3-8.05-7.69-35.81-7.69-35.81-3.43-6.26-11.98-15.67-15.81-17-3.83-1.33-.85,0-4.71,2.68-3.85,2.68-12.81,18.79-19.23,41.18-2.07,7.23-4.56,18.35-6.96,30.19-3.51,11.94-5.82,24.24-6.89,36.68-1.73,10.03-2.85,17.4-2.85,18.71.08.73.34,1.43.75,2.03.41.6.97,1.07,1.61,1.38,0,14.49.18,21.07.18,21.07,0,0,10.19-8.45,15.28-10.68,4.65-1.74,9.63-2.28,14.53-1.59,4.89.7,9.56,2.61,13.6,5.58,7.76,5.43,14.01,10.24,14.86,8.01.85-2.23-1.09-9.98-2.54-16.47-1.71-7.62-4.69-29.81-4.69-29.81,0-5.37,5.45-32.36,8.07-36.48,1.87-2.85,3.07-6.12,3.5-9.54.43-3.43.08-6.91-1.03-10.16h0Z"/>
  <path class="cls-12" d="M368.45,272.2s0,4.89,1.71,5.71c1.71.82,5.94-.44,5.09,3.12-.85,3.56-1.27,6.23.44,7.61,1.28.89,2.72,1.49,4.23,1.77"/>
  <g class="cls-10">
    <path class="cls-19" d="M349.37,305.13s12.9.93,16.5-.63-6.9-15.1-6.9-15.1l-9.6,15.73Z"/>
  </g>
  <path class="cls-9" d="M367.07,209.85c2.58,9.67-2.89,22.84-8.1,25.64-1.62.84,3.8,8.81,7.96,14.11l3.63,6.59,1.71,8.89,2.54-.44s-2.22-9.52-.89-13.69c1.33-4.17,2.24-6.24,2.24-6.24,2.05-4.06,5.21-7.37,9.09-9.52.67-8.28-19.28-29.34-18.17-25.34Z"/>
  <g class="cls-32">
    <g class="cls-10">
      <path class="cls-19" d="M379.79,239.34l-12.36,2.66-4.18,2.02-5.18-5.25,11.1-11.33,10.61,11.9Z"/>
    </g>
  </g>
  <path class="cls-14" d="M367.07,209.85c2.58,9.67-2.89,22.84-8.1,25.64-1.62.84,3.8,8.81,7.96,14.11l3.63,6.59,1.71,8.89,2.54-.44s-2.22-9.52-.89-13.69c1.33-4.17,2.24-6.24,2.24-6.24,2.05-4.06,5.21-7.37,9.09-9.52.67-8.28-19.28-29.34-18.17-25.34Z"/>
  <path class="cls-9" d="M395.32,180.19c6.03,3.18,12.61,8.47,12.61,16.14,0,13.33-5.2,18.71-5.2,22.08s4.27,7.82,2.67,9.52c-1.6,1.69-5.34,1.1-5.34,1.1-2.54,4.87-5.39,9.55-8.54,14.01-3.22,3.92-9.09-1.69-15.5-6.72-6.41-5.03-9.63-9.52-9.63-19.04s-4.49-16.52-.55-25.78c1.18-2.81,2.9-5.34,5.03-7.44,2.14-2.1,4.66-3.73,7.41-4.78,2.75-1.06,5.68-1.52,8.6-1.37,2.93.15,5.79.93,8.43,2.27Z"/>
  <g class="cls-29">
    <g class="cls-10">
      <path class="cls-19" d="M395.32,180.19c-2.64-1.34-5.5-2.11-8.43-2.27-2.93-.15-5.85.31-8.6,1.37-2.75,1.06-5.27,2.68-7.41,4.78-2.14,2.1-3.85,4.63-5.03,7.44-3.94,9.25.55,16.28.55,25.78s3.22,13.99,9.63,19.04l3.76,3.01c-5.45-3.65-3.8-15.34-3.8-19.04s5.89-4.63,10.79-6.68c3.74-1.58,15.19-6.72,20.39-9.08.52-2.73.77-5.51.76-8.3,0-7.58-6.58-12.87-12.61-16.05Z"/>
    </g>
  </g>
  <path class="cls-14" d="M395.32,180.19c6.03,3.18,12.61,8.47,12.61,16.14,0,13.33-5.2,18.71-5.2,22.08s4.27,7.82,2.67,9.52c-1.6,1.69-5.34,1.1-5.34,1.1-2.54,4.87-5.39,9.55-8.54,14.01-3.22,3.92-9.09-1.69-15.5-6.72-6.41-5.03-9.63-9.52-9.63-19.04s-4.49-16.52-.55-25.78c1.18-2.81,2.9-5.34,5.03-7.44,2.14-2.1,4.66-3.73,7.41-4.78,2.75-1.06,5.68-1.52,8.6-1.37,2.93.15,5.79.93,8.43,2.27h0Z"/>
  <path class="cls-9" d="M393.51,234.37s-3.82-.88-4.67-3.1l4.67,3.1Z"/>
  <path class="cls-14" d="M393.51,234.37s-3.82-.88-4.67-3.1"/>
  <path class="cls-9" d="M399.03,217.03l-1.27,2.23c-.69.12-1.4.06-2.07-.17-.67-.23-1.27-.63-1.75-1.16"/>
  <path class="cls-14" d="M399.03,217.03l-1.27,2.23c-.69.12-1.4.06-2.07-.17-.67-.23-1.27-.63-1.75-1.16"/>
  <path class="cls-9" d="M393.51,213.03s4.25-4.02,6.8-2.23l-6.8,2.23Z"/>
  <path class="cls-14" d="M393.51,213.03s4.25-4.02,6.8-2.23"/>
  <path class="cls-14" d="M257.6,463.08l39.07-45.84,6.8,50.3"/>
  <path class="cls-11" d="M310.7,467.97l-62.87-5.79-22.5,72.53,97.26,10.22-11.89-76.97Z"/>
  <path class="cls-14" d="M296.25,413.68l-22.93,54.29"/>
  <path class="cls-14" d="M299.23,419.03l9.76,53.4"/>
  <path class="cls-20" d="M317.06,473.76l-55.64-6.68-19.53,79.65,81.34,7.58-6.16-80.55Z"/>
  <path class="cls-20" d="M425.36,210.44c-2.54-15.12-16.14-30.69-16.14-30.69-2.88-3.27-6.52-5.71-10.56-7.08-11.05-4.02-26.33-4.45-38.65,6.22-12.32,10.68-14.54,32.48-18.7,44.05-4.16,11.57-6.8,19.13-5.94,23.13.86,4,12.72-2.67,14.86-2.23,2.14.44.44,3.12,4.25,3.12s8.92-7.12,11.05-7.12,8.76.78,10.54-3.39c1.78-4.17-8-17.97-4.6-24.2,0,0,2.13.89,16.99-3.56,6.67-1.81,13.14-4.36,19.3-7.61-.98,10.13-4.98,14.56-4.98,17.51,0,3.35,4.27,7.82,2.67,9.52-1.6,1.69-5.34,1.1-5.34,1.1-2.54,4.87-5.39,9.55-8.54,14.01-2.58,3.12-6.85.17-11.74-3.71-1.52,1.52-2.75,3.32-3.63,5.31,0,0-.49,1.2-1.29,3.48,1.19,1.92,2.97,3.34,5.05,4.04,4.67.9,7.27-1.77,9.34-3.1,2.07-1.33,6.38.88,10.63,0,4.25-.88,3.4-4.89,5.09-7.12,1.69-2.23,4.67,3.56,8.07,0,3.4-3.56,14.81-16.66,12.27-31.7Z"/>
  <path class="cls-22" d="M407.63,181.73c2.16,3.2,9.56,10.03,6.96,13.33-1.85,2.09-4.06,3.79-6.52,5.01"/>
  <path class="cls-22" d="M405.45,190.85s-17.41,12.77-26.55,14.12c-9.14,1.35-19.99-2.26-19.99-2.26"/>
  <path class="cls-22" d="M400.23,178.08c-4.09,6.41-9.43,11.85-15.66,15.95-5.6,3.74-12.08,5.79-18.72,5.92"/>
  <path class="cls-9" d="M374.83,214.8s-2.98-10.68-5.94-9.35c-2.96,1.33-3.4,6.68-2.13,11.14s4.23,4,5.94,2.67"/>
  <path class="cls-14" d="M374.83,214.8s-2.98-10.68-5.94-9.35c-2.96,1.33-3.4,6.68-2.13,11.14s4.23,4,5.94,2.67"/>
  <path class="cls-9" d="M374.83,214.8s-2.98-10.68-5.94-9.35c-2.96,1.33-3.4,6.68-2.13,11.14s4.23,4,5.94,2.67"/>
  <g class="cls-34">
    <g class="cls-23">
      <path class="cls-19" d="M374.93,214.8s-2.96-10.68-5.94-9.35c-2.98,1.33-3.4,6.68-2.13,11.14s4.25,4,5.94,2.67"/>
    </g>
  </g>
  <path class="cls-9" d="M364.07,254.57c-4.49-3.98-11.5-2.3-14.54,6.05-5.09,13.63-10.18,27.3-15.39,40.95-5.09,13.33-25.44,78.76-27.26,83.65-1.82,4.89-5.45,17.34-5.45,17.34,0,0-8.49,6.68-8.49,8.01s2.13,6.23,3.82,6.66c2.59.12,5.14-.66,7.27-2.21,1.69-1.35,2.54-4.02,4.67-10.68,0,0,12.72-35.6,21.23-46.72,8.5-11.12,15.3-39.98,16.99-43.18,5.67-9.45,10.77-19.25,15.3-29.36,2.84-6.57,6.67-14.45,5.89-21.91-.27-3.3-1.71-6.38-4.03-8.62Z"/>
  <g class="cls-37">
    <g class="cls-10">
      <path class="cls-19" d="M365.9,256.83c-.49-.85-1.1-1.61-1.82-2.27-4.49-3.98-11.5-2.3-14.54,6.05-5.09,13.63-10.18,27.3-15.39,40.95-5.09,13.33-25.44,78.76-27.26,83.65-1.82,4.89-5.45,17.34-5.45,17.34,0,0-8.49,6.68-8.49,8.01.26,1.47.78,2.88,1.54,4.15,1.02-.83,1.77-1.97,2.16-3.26.31-2.21,6.87-6.66,8.34-10.26,1.47-3.6,26.48-65.24,27.46-71.41.98-6.17,15.19-52.39,19.61-60.61,4.42-8.22,14.23-10.79,14.23-10.79l-.4-1.56Z"/>
    </g>
  </g>
  <path class="cls-14" d="M364.07,254.57c-4.49-3.98-11.5-2.3-14.54,6.05-5.09,13.63-10.18,27.3-15.39,40.95-5.09,13.33-25.44,78.76-27.26,83.65-1.82,4.89-5.45,17.34-5.45,17.34,0,0-8.49,6.68-8.49,8.01s2.13,6.23,3.82,6.66c2.59.12,5.14-.66,7.27-2.21,1.69-1.35,2.54-4.02,4.67-10.68,0,0,12.72-35.6,21.23-46.72,8.5-11.12,15.3-39.98,16.99-43.18,5.67-9.45,10.77-19.25,15.3-29.36,2.84-6.57,6.67-14.45,5.89-21.91-.27-3.3-1.71-6.38-4.03-8.62h0Z"/>
  <path class="cls-9" d="M302.19,410.12c-1.34,1.71-2.76,3.35-4.25,4.91-1.64,2.01-2.67,4.49-2.96,7.12,0,0,.86,2.66,2.13,1.33,1.27-1.33,4.23-5.35,4.23-5.35,1.78-.62,3.29-1.88,4.25-3.56,2.13-3.1,2.98-10.22,2.98-10.22"/>
  <path class="cls-14" d="M302.19,410.12c-1.34,1.71-2.76,3.35-4.25,4.91-1.64,2.01-2.67,4.49-2.96,7.12,0,0,.86,2.66,2.13,1.33,1.27-1.33,4.23-5.35,4.23-5.35,1.78-.62,3.29-1.88,4.25-3.56,2.13-3.1,2.98-10.22,2.98-10.22"/>
  <path class="cls-19" d="M379.79,239.34l.22.17c.2.12.15.06-.22-.17Z"/>
  <path class="cls-12" d="M343.24,329.31s16.36-5.12,22.62-11.16"/>
  <path class="cls-12" d="M344.12,334.43l8.43-2.34"/>
  <path class="cls-18" d="M519.98,188.95h-72.85c-4.07,0-7.36,3.45-7.36,7.71v30.88c0,4.26,3.3,7.71,7.36,7.71h72.85c4.06,0,7.36-3.45,7.36-7.71v-30.88c0-4.26-3.3-7.71-7.36-7.71Z"/>
  <path class="cls-18" d="M439.77,223.14v24.86l13.23-15.95"/>
  <path class="cls-9" d="M470.3,212.95c0-.94-.26-1.86-.76-2.65s-1.2-1.4-2.04-1.76c-.83-.36-1.74-.46-2.63-.28-.88.18-1.69.63-2.33,1.3-.64.66-1.07,1.51-1.25,2.44-.18.92-.09,1.88.26,2.75.34.87.92,1.62,1.67,2.14.75.52,1.63.8,2.53.8,1.2,0,2.35-.5,3.21-1.39.85-.89,1.33-2.09,1.34-3.35Z"/>
  <path class="cls-9" d="M489.74,212.95c0-.94-.26-1.86-.76-2.65-.5-.79-1.2-1.4-2.04-1.76-.83-.36-1.74-.46-2.63-.28-.88.18-1.69.63-2.33,1.3-.64.66-1.07,1.51-1.25,2.44-.18.92-.09,1.88.26,2.75.34.87.93,1.62,1.67,2.14.75.52,1.63.8,2.53.8,1.2,0,2.35-.5,3.21-1.39.85-.89,1.33-2.09,1.34-3.35Z"/>
  <path class="cls-9" d="M509.19,212.95c0-.94-.26-1.86-.76-2.65-.5-.79-1.21-1.4-2.04-1.76-.83-.36-1.74-.46-2.63-.28-.88.18-1.69.63-2.33,1.3-.64.66-1.07,1.51-1.25,2.44-.18.92-.09,1.88.26,2.75.34.87.92,1.62,1.67,2.14.75.52,1.63.8,2.52.8,1.2,0,2.35-.5,3.21-1.39.85-.89,1.33-2.09,1.34-3.35Z"/>
  <path class="cls-20" d="M136.72,419.11l-.49-.65c.11.25.28.48.49.65Z"/>
  <path class="cls-9" d="M120.68,615.22s-22.57,3.05-22.13,5.33c.44,2.28,24.48,9.61,26.22,9.61s3.83-12.64,3.83-12.64l-7.92-2.3Z"/>
  <g class="cls-31">
    <path class="cls-18" d="M126.22,627.85l-24.95-8.93c-1.82.55-2.82,1.12-2.73,1.64.44,2.28,24.48,9.61,26.22,9.61.49,0,.98-.91,1.45-2.32Z"/>
  </g>
  <path class="cls-17" d="M120.68,615.22s-22.57,3.05-22.13,5.33c.44,2.28,24.48,9.61,26.22,9.61s3.83-12.64,3.83-12.64l-7.92-2.3Z"/>
  <path class="cls-9" d="M209.99,610.22c-1.09,1.8-2.41,3.43-3.91,4.87-1.82,1.37-8.3,4.11-8.3,5.96s13.1,2.74,15.74,2.28c2.63-.46,5.67-5.96,8.3-7.79s-4.71-9.52-4.71-9.52c-2.3,1.53-4.68,2.93-7.12,4.19Z"/>
  <g class="cls-27">
    <path class="cls-18" d="M221.82,615.51c.89-.63.6-1.9-.15-3.45-2.83,2.86-5.92,5.41-9.23,7.61-3.16,1.52-13.34-.25-13.34-.25h-.2c-.69.55-1.13,1.1-1.13,1.58,0,1.9,13.1,2.74,15.74,2.28,2.63-.46,5.67-5.96,8.3-7.79Z"/>
  </g>
  <path class="cls-14" d="M209.99,610.22c-1.09,1.8-2.41,3.43-3.91,4.87-1.82,1.37-8.3,4.11-8.3,5.96s13.1,2.74,15.74,2.28c2.63-.46,5.67-5.96,8.3-7.79s-4.71-9.52-4.71-9.52c-2.3,1.53-4.68,2.93-7.12,4.19h0Z"/>
  <path class="cls-16" d="M162.8,443.78s5.67,73.16,7.87,78.87c2.2,5.71,39.32,87.57,39.32,87.57l7.12-4.19-26.62-100.9,5.05-112.85-32.75,51.5Z"/>
  <path class="cls-7" d="M162.8,443.78s5.67,73.16,7.87,78.87c2.2,5.71,39.32,87.57,39.32,87.57l7.12-4.19-26.62-100.9,5.05-112.85-32.75,51.5Z"/>
  <path class="cls-16" d="M151.5,376.48s-10.56,59.51-12.72,77.04c-2.16,17.53-18.04,161.7-18.04,161.7l7.92,2.3,41.79-161.24s14.54-34.13,20.26-44.28c5.72-10.15,10.99-25.38,9.18-32.76-1.82-7.39-48.39-2.76-48.39-2.76Z"/>
  <path class="cls-4" d="M151.5,376.48s-10.56,59.51-12.72,77.04c-2.16,17.53-18.04,161.7-18.04,161.7l7.92,2.3,41.79-161.24s14.54-34.13,20.26-44.28c5.72-10.15,10.99-25.38,9.18-32.76-1.82-7.39-48.39-2.76-48.39-2.76Z"/>
  <path class="cls-12" d="M173.34,388.86c-5.95,13.72-10.67,27.99-14.1,42.62-4.78,21.95-12.05,51.19-12.05,57.42s.4,14.77-1.62,18.16c-2.02,3.39-5.65,4.23-6.05,12.24-.4,8.01,2.82,19.42-2.02,32.5-4.83,13.08-7.65,19.42-7.65,28.29s-4.47,34.63-4.47,34.63"/>
  <path class="cls-12" d="M172.63,458.08v32.51c0,21.11,9.27,15.23,8.45,17.72-.82,2.49-5.63,8.45-4.02,10.57,1.62,2.11,4.02.84,4.02,3.81s20.06,53.27,20.06,53.27"/>
  <path class="cls-12" d="M203.16,580.5l3.22,9.29"/>
  <path class="cls-8" d="M78.83,261.84c-.45,2.01-.6,4.09-.45,6.15.45,1.9,8.12,4.72,8.12,4.72l-7.67-10.87Z"/>
  <path class="cls-8" d="M99.94,261.61s7.05,11.99,7.05,13.33,32.15,30.9,32.15,30.9c0,0,7.49,4.63,8.79,7.39,1.31,2.76.89,19.84-.87,20.29-1.76.46-42.68-52.07-44.88-52.98-2.2-.91-9.69-3.69-9.69-3.69l-7.09-9.29,14.54-5.94Z"/>
  <path class="cls-9" d="M147.97,313.24c-1.58-2.18-3.56-4.01-5.81-5.39-.76,3.03-1.92,5.93-3.44,8.62-.91,1.51-2.01,2.89-3.25,4.11,6.25,7.62,11.05,13.1,11.63,12.95,1.76-.42,2.2-17.48.87-20.29Z"/>
  <g class="cls-21">
    <g class="cls-10">
      <path class="cls-19" d="M147.97,313.24c-1.58-2.18-3.56-4.01-5.81-5.39-.76,3.03-1.92,5.93-3.44,8.62-.91,1.51-2.01,2.89-3.25,4.11,6.25,7.62,11.05,13.1,11.63,12.95,1.76-.42,2.2-17.48.87-20.29Z"/>
    </g>
  </g>
  <path class="cls-14" d="M147.97,313.24c-1.58-2.18-3.56-4.01-5.81-5.39-.76,3.03-1.92,5.93-3.44,8.62-.91,1.51-2.01,2.89-3.25,4.11,6.25,7.62,11.05,13.1,11.63,12.95,1.76-.42,2.2-17.48.87-20.29Z"/>
  <path class="cls-20" d="M79.01,250.29l-3.63,1.64c-.48.22-.91.55-1.25.97-.34.42-.58.91-.71,1.44-.13.53-.14,1.09-.03,1.62.11.54.33,1.04.66,1.47l15.86,21.21c.27.36.61.66,1,.88.39.22.81.35,1.25.39.44.04.88-.01,1.3-.16.42-.15.8-.38,1.13-.68l2.69-2.48c.61-.57.99-1.35,1.07-2.19.08-.85-.14-1.69-.62-2.38l-14.66-20.6c-.46-.64-1.1-1.1-1.84-1.3-.73-.21-1.51-.15-2.21.16Z"/>
  <path class="cls-8" d="M96.02,257.92s-6.98,7.84-6.61,9.63c.36,1.79,2.65,3.24,3.96,1.9,1.31-1.33,6.18-5.54,6.61-7.84.14-.56.13-1.14-.03-1.69-.16-.55-.46-1.04-.87-1.42-.41-.38-.91-.64-1.45-.74s-1.1-.05-1.61.16Z"/>
  <path class="cls-9" d="M149.73,366.33l.46,11.99s7.03,6,23.33,6.91c10.24.39,20.39-1.99,29.49-6.91l-3.13-18.45-50.15,6.45Z"/>
  <g class="cls-39">
    <g class="cls-10">
      <path class="cls-19" d="M149.73,366.33l.27,7.37c4.16,1.6,7.92,2.65,7.92,2.65l-.38,5.81c2.6.93,5.27,1.65,7.98,2.15l4.12-4.72c12.5,1.71,28.82-4.61,32.56-6.13l-2.33-13.57-.87.11-49.28,6.34Z"/>
    </g>
  </g>
  <path class="cls-14" d="M149.73,366.33l.46,11.99s7.03,6,23.33,6.91c10.24.39,20.39-1.99,29.49-6.91l-3.13-18.45-50.15,6.45Z"/>
  <path class="cls-9" d="M147.54,250.53s-4.83,28.56-7.92,36.91c-1.13,3.36-1.48,6.95-1.02,10.48.46,3.53,1.71,6.89,3.66,9.81,2.65,4.15,3.96,35.98,3.96,41.52s-3.51,12.93,1.33,18.92c4.83,6,29.07,7.39,42.72,5.54,13.65-1.85,17.61-10.62,17.61-14.77s-12.72-57.66-19.37-80.74c-6.65-23.07-15.86-39.67-19.82-42.43-3.96-2.76-.87-4.15-4.83-2.76-3.96,1.39-12.78,11.06-16.3,17.51Z"/>
  <g class="cls-28">
    <g>
      <g class="cls-10">
        <path class="cls-19" d="M154.64,369.21c-2.71.51-4.4-.59-6.91-.4,4,2.65,11.78,4.76,19.79,6.05,3.63-5.71,11.49-19.04,12.43-27.01,1.24-10.34,5.56-32.36,2.47-40.11-3.09-7.75-12.34-50.45-14.81-50.45s-5.56-10.36-11.12,4.51c0,0-3.63,6.47-1.24,21.36,2.4,14.89,6.8,21.34,4.32,32.36-2.47,11.02,0,19.42,4.33,20.07,4.32.65,5.56,1.9,4.32,9.69-1.24,7.79-6.8,22.64-13.59,23.93Z"/>
      </g>
      <g class="cls-10">
        <path class="cls-19" d="M142.48,302.6c-1.8-1.44-3.19-3.37-4.02-5.58.44,3.83,1.74,7.5,3.78,10.72,2.65,4.15,3.96,35.98,3.96,41.52,0,.17,0,.34,0,.51.84-5.35,1.15-10.78.91-16.2-.94-7.83,8.98-18.05,8.98-22.56s-7.43-3.88-13.61-8.42Z"/>
      </g>
    </g>
  </g>
  <path class="cls-14" d="M147.54,250.53s-4.83,28.56-7.92,36.91c-1.13,3.36-1.48,6.95-1.02,10.48.46,3.53,1.71,6.89,3.66,9.81,2.65,4.15,3.96,35.98,3.96,41.52s-3.51,12.93,1.33,18.92c4.83,6,29.07,7.39,42.72,5.54,13.65-1.85,17.61-10.62,17.61-14.77s-12.72-57.66-19.37-80.74c-6.65-23.07-15.86-39.67-19.82-42.43-3.96-2.76-.87-4.15-4.83-2.76-3.96,1.39-12.78,11.06-16.3,17.51Z"/>
  <path class="cls-12" d="M146.74,260.93s3.24,1.69,7.67-4.21"/>
  <path class="cls-9" d="M197.74,322.05l-18.93,7.37s-4.42,16.62-7.05,24.46c-2.64,7.84-16.35,42.43-16.35,42.43,0,0-7.92,9.23-9.69,11.99-1.76,2.76-2.2,11.99-.87,13.33,1.33,1.33,4.4-3.24,4.4-3.24,0,0,.89,2.3,4.4.46,3.51-1.85,8.09-19.3,8.09-19.3,0,0,18.48-33.22,25.1-43.79,6.62-10.57,11.88-20.77,11.88-24.92-.08-2.96-.41-5.9-.96-8.8Z"/>
  <g class="cls-25">
    <g class="cls-10">
      <path class="cls-19" d="M198.31,325.92c-.13-1.05-.26-1.9-.36-2.63l-3.98.23-15.15,5.9s-4.42,16.62-7.05,24.46c-2.64,7.84-16.35,42.43-16.35,42.43,0,0-7.92,9.23-9.69,11.99-1.76,2.76-2.2,11.99-.87,13.33,1.33,1.33,4.4-3.24,4.4-3.24-1.35-1.95-2.24-4.22-2.6-6.61,0-2.76,9.99-12.68,9.99-12.68l31.11-64.94,10.56-8.26Z"/>
    </g>
  </g>
  <path class="cls-14" d="M197.74,322.05l-18.93,7.37s-4.42,16.62-7.05,24.46c-2.64,7.84-16.35,42.43-16.35,42.43,0,0-7.92,9.23-9.69,11.99-1.76,2.76-2.2,11.99-.87,13.33,1.33,1.33,4.4-3.24,4.4-3.24,0,0,.89,2.3,4.4.46,3.51-1.85,8.09-19.3,8.09-19.3,0,0,18.48-33.22,25.1-43.79,6.62-10.57,11.88-20.77,11.88-24.92-.08-2.96-.41-5.9-.96-8.8h0Z"/>
  <path class="cls-8" d="M178.81,329.42s-1.29,4.86-2.89,10.53c3.36,1.21,6.84,2.02,10.38,2.4,2.66.28,5.34.33,8.01.15,2.63-5.12,4.31-9.35,4.31-11.69-.06-2.94-.35-5.87-.87-8.76l-18.93,7.37Z"/>
  <path class="cls-9" d="M165.6,251.01c-3.67,3.28-6.03,7.89-6.62,12.91-.87,8.3,6.16,28.56,6.16,37.83s1.82,20.77,3.53,25.38c1.71,4.61,9.68,7.39,18.06,5.08,8.38-2.3,15.41-3.69,15.41-13.84s-8.81-27.68-14.97-42.91c-6.16-15.23-11.45-28.59-21.57-24.44Z"/>
  <g class="cls-38">
    <g class="cls-10">
      <path class="cls-19" d="M165.6,251.01s-3.51,2.87-1.82,12.83c1.69,9.96,3.94,23.34,4.6,29.87.65,6.53,12.45-13.73,11.14-6.87-1.31,6.85-6.89,27.13-6.89,31.6s5.58,10.3,10.9,11.42c5.32,1.12,15.21-1.9,15.21-1.9-2.52,1.5-5.21,2.67-8,3.48-3.39.96-6.86,1.6-10.36,1.9l-2.31-.49s-8.19,0-10.9-7.9c-2.71-7.9-.65-23-3.94-34.27-3.29-11.27-4.58-18.2-4.91-23.36-.33-5.16,3.87-14.39,7.27-16.31Z"/>
    </g>
  </g>
  <path class="cls-14" d="M165.6,251.01c-3.67,3.28-6.03,7.89-6.62,12.91-.87,8.3,6.16,28.56,6.16,37.83s1.82,20.77,3.53,25.38c1.71,4.61,9.68,7.39,18.06,5.08,8.38-2.3,15.41-3.69,15.41-13.84s-8.81-27.68-14.97-42.91c-6.16-15.23-11.45-28.59-21.57-24.44Z"/>
  <path class="cls-12" d="M183.4,271.07c-1.22,9.01-3.95,17.72-8.05,25.74"/>
  <path class="cls-12" d="M173.74,298.51l-3.62,4.64"/>
  <path class="cls-8" d="M135.85,234.2c4.01,2.21,7.28,5.64,9.4,9.84,2.69,6.34,3.36,11.27,5.45,9.86,2.09-1.41,14.77-18.03,12.38-19.3-5.45-2.8-11.01-16.45-8.34-26.42,1.02-4.13-19.55,17.59-18.88,26.02Z"/>
  <path class="cls-9" d="M125.47,177.6c-6.21,3.27-12.99,8.72-12.99,16.64,0,13.84,5.36,19.3,5.36,22.75s-4.42,8.09-2.76,9.82c1.65,1.73,5.45,1.14,5.45,1.14,2.63,5.01,5.57,9.83,8.81,14.43,3.31,4.04,9.38-1.73,15.99-6.93,6.61-5.2,9.9-9.8,9.9-19.61s4.63-17.13.56-26.65c-1.24-2.87-3.01-5.46-5.21-7.61-2.2-2.14-4.79-3.81-7.62-4.89-2.83-1.08-5.83-1.56-8.83-1.4-3.01.15-5.95.94-8.66,2.3Z"/>
  <g class="cls-33">
    <g class="cls-10">
      <path class="cls-19" d="M126.37,175.74c-6.21,3.28-12.99,8.74-12.99,16.64,3.14-1.16,7.5-2.32,9.58-.88,3.45,2.4-.56,16.24,10.9,21.65,11.47,5.41,13.77,4.82,15.5,9.02,1.09,2.66-.73,8.01-4.14,12.26l1.03-.82c6.62-5.2,9.92-9.8,9.92-19.63s4.63-17.02.56-26.65c-1.24-2.88-3.01-5.47-5.21-7.62-2.21-2.15-4.8-3.81-7.63-4.89-2.83-1.08-5.84-1.56-8.85-1.4-3.01.16-5.96.95-8.67,2.32Z"/>
    </g>
  </g>
  <path class="cls-14" d="M125.47,177.6c-6.21,3.27-12.99,8.72-12.99,16.64,0,13.84,5.36,19.3,5.36,22.75s-4.42,8.09-2.76,9.82c1.65,1.73,5.45,1.14,5.45,1.14,2.63,5.01,5.57,9.83,8.81,14.43,3.31,4.04,9.38-1.73,15.99-6.93,6.61-5.2,9.9-9.8,9.9-19.61s4.63-17.13.56-26.65c-1.24-2.87-3.01-5.46-5.21-7.61-2.2-2.14-4.79-3.81-7.62-4.89-2.83-1.08-5.83-1.56-8.83-1.4-3.01.15-5.95.94-8.66,2.3Z"/>
  <g class="cls-10">
    <path class="cls-19" d="M119.77,219.01l-1.4,3.27s3.13,3.27,3.13.72,1.03-6.19-1.73-4Z"/>
  </g>
  <path class="cls-9" d="M128.2,230.12c1.27-.51,2.39-1.37,3.24-2.49.85-1.11,1.4-2.44,1.6-3.85"/>
  <path class="cls-14" d="M128.2,230.12c1.27-.51,2.39-1.37,3.24-2.49.85-1.11,1.4-2.44,1.6-3.85"/>
  <path class="cls-9" d="M122.57,211.54l.8,3.81c1.03.33,2.14.3,3.16-.08,1.02-.38,1.89-1.09,2.49-2.04"/>
  <path class="cls-14" d="M122.57,211.54l.8,3.81c1.03.33,2.14.3,3.16-.08,1.02-.38,1.89-1.09,2.49-2.04"/>
  <path class="cls-9" d="M119.33,208.18c.7-1.3,1.8-2.31,3.13-2.85,1.33-.54,2.79-.58,4.14-.12"/>
  <path class="cls-14" d="M119.33,208.18c.7-1.3,1.8-2.31,3.13-2.85,1.33-.54,2.79-.58,4.14-.12"/>
  <path class="cls-20" d="M141.5,238.56c-1.54,1.22-3,2.34-4.4,3.24,4.56,13.71-10.27,29.34-4,44.13,1.42,3.21,3.16,6.24,5.21,9.04v-1.66c0-.16,0-.33,0-.49,0-.42,0-.82.15-1.24.15-.42,0-.38,0-.59s.16-.82.27-1.22c.11-.4,0-.36.13-.55.16-.59.35-1.18.56-1.77,3.09-8.3,7.92-36.91,7.92-36.91,0-.05,0-.1,0-.15-.62-1.71-1.35-3.92-2.38-6.34-.83-2.04-2-3.89-3.47-5.48Z"/>
  <path class="cls-20" d="M251.29,323.73c-14.97-13.33-12.32-19.38-8.36-29.53,3.96-10.15,3.09-31.83-12.72-46.6-15.81-14.77-36.11-6.45-45.43-25.36-9.32-18.9-.44-22.16-5.72-38.3-5.29-16.14-24.6-27.68-39.14-26.8-3.62.26-7.18,1.16-10.52,2.67-23.62.61-31.62,13.33-26.68,25.51,1.02,2.33,2.85,4.17,5.11,5.14,2.26.98,4.79,1.01,7.08.11,4-1.52,9.36-2.46,11.92,1.9,4.42,7.39,2.69,18.85,15.9,21.61,6.52,1.37,10.45,2.97,12.41,5.27,0,.55-.11,1.12-.2,1.64.4,1.59.91,3.14,1.53,4.65-.22,1.25-.55,2.48-.98,3.67-3.07,8.76-9.68,17.13.46,22.6,10.14,5.46,7.38-1.45,14.41-1.45s10.76,9.52,10.76,9.52c2.91,5.85,5.38,11.93,7.41,18.18l.38,1.33c5.96,14.18,13.26,29.57,13.26,38.82.09,2.37-.47,4.73-1.62,6.78,1.53,6.36,2.94,12.41,4.11,17.59.18.82.36,1.62.53,2.4v.11c.16.8.35,1.58.51,2.32.15.65.27,1.26.4,1.9v.36c.11.51.2.99.29,1.45s.09.38.13.55c0,.46.18.88.26,1.29l.11.49c0,.38.15.72.2,1.07l.11.49c0,.3.11.59.15.86.04.16.07.32.09.48,0,.25,0,.46.11.67.11.21,0,.29,0,.4v.49c-.01.11-.01.22,0,.32v.53c.02.33.02.66,0,.99v.29c-.04.28-.09.56-.16.84v.32c0,.11-.22.71-.36,1.07v.13c-.38.96-.86,1.87-1.44,2.72v.13c-.31.45-.64.89-1,1.29-.88,1.01-1.86,1.91-2.94,2.68l1.47,8.81s-1.09.65-3.02,1.54c3.41,1.69,7.05,2.83,10.79,3.37,22.9,3.69,33.91-2.78,42.27-15.23,8.36-12.45,13.12-30.73-1.85-44.11Z"/>
  <path class="cls-22" d="M104.92,185.9s6.32,5.06,16.74.78c10.41-4.28,19.35-5.06,26.04,3.5,6.69,8.57,10.79,12.47,15.26,12.47s15.99,9.75,17.1,21.43c1.11,11.69,7.07,15.59,15.26,18.71"/>
  <path class="cls-22" d="M200.52,243.98c3.54.93,7.15,1.57,10.79,1.9,5.22.38,8.94.38,12.72,4.68"/>
  <path class="cls-22" d="M130.96,191.4c3.61,3.44,6.41,7.71,8.18,12.47,2.23,7.01,13.77,8.97,19.72,8.57"/>
  <path class="cls-22" d="M163.71,182.4s-4.85-9.37-13.39-13.33c-8.54-3.96-15.63,1.54-27.26,6.62-11.63,5.08-18.61,1.56-18.61,1.56"/>
  <path class="cls-22" d="M188.98,257.61s6.69,11.31,15.63,17.93c8.94,6.62,18.97,11.69,14.14,28.06-4.83,16.37-8.94,25.34,2.6,35.87,11.54,10.53,15.63,27.28,11.16,33.9"/>
  <path class="cls-22" d="M160.44,217.03s7.38,6.78,5.23,13.54c-2.15,6.76-12.3,10.64-6.47,16.12,5.83,5.48,17.84.65,20.62,1.62,1.77.66,3.35,1.77,4.62,3.22"/>
  <path class="cls-22" d="M163.69,213.54s8.43,3.81,8.94,11.63c.51,7.82-5.34,12.01-3.98,15.23,1.36,3.22,5.87-.46,10.9,1.43"/>
  <path class="cls-18" d="M14.19,244.76h72.85c4.06,0,7.36-3.45,7.36-7.71v-30.88c0-4.26-3.29-7.71-7.36-7.71H14.19c-4.06,0-7.36,3.45-7.36,7.71v30.88c0,4.26,3.29,7.71,7.36,7.71Z"/>
  <path class="cls-18" d="M94.4,232.64v24.88l-13.23-15.97"/>
  <path class="cls-9" d="M68.42,227.21c2.51,0,4.54-2.13,4.54-4.76s-2.03-4.76-4.54-4.76-4.54,2.13-4.54,4.76,2.03,4.76,4.54,4.76Z"/>
  <path class="cls-9" d="M44.43,222.45c0-.94.27-1.86.77-2.64.5-.78,1.21-1.39,2.04-1.75s1.74-.45,2.62-.27c.88.18,1.69.64,2.33,1.3.64.67,1.07,1.51,1.24,2.44.18.92.09,1.88-.26,2.75-.34.87-.93,1.61-1.67,2.14-.75.52-1.63.8-2.52.8-1.2,0-2.36-.5-3.21-1.39-.85-.89-1.33-2.1-1.33-3.36Z"/>
  <path class="cls-9" d="M29.53,227.21c2.51,0,4.54-2.13,4.54-4.76s-2.03-4.76-4.54-4.76-4.54,2.13-4.54,4.76,2.03,4.76,4.54,4.76Z"/>
  <path class="cls-22" d="M234.76,330.11l5.21,6.24"/>
  <path class="cls-22" d="M243.68,339.07c2.66,3.37,4.44,7.4,5.16,11.71.72,4.31.36,8.74-1.06,12.85"/>
</svg>