<?xml version="1.0" encoding="UTF-8"?>
<svg id="Layer_1" data-name="Layer 1" xmlns="http://www.w3.org/2000/svg" width="809" height="861" viewBox="0 0 809 861">
  <defs>
    <style>
      .cls-1 {
        opacity: .4;
      }

      .cls-1, .cls-2, .cls-3, .cls-4, .cls-5, .cls-6, .cls-7, .cls-8, .cls-9, .cls-10, .cls-11, .cls-12, .cls-13, .cls-14, .cls-15, .cls-16, .cls-17, .cls-18, .cls-19 {
        stroke-width: 0px;
      }

      .cls-1, .cls-4, .cls-9, .cls-12, .cls-14, .cls-18 {
        isolation: isolate;
      }

      .cls-1, .cls-9, .cls-11, .cls-12 {
        fill: #fff;
      }

      .cls-20, .cls-9 {
        opacity: .5;
      }

      .cls-2 {
        fill: #37474f;
      }

      .cls-3 {
        fill: #e0e0e0;
      }

      .cls-4 {
        opacity: .2;
      }

      .cls-5 {
        fill: #eece93;
      }

      .cls-6 {
        fill: #f5f5f5;
      }

      .cls-7 {
        fill: #fb4a04;
      }

      .cls-8 {
        fill: #ffa8a7;
      }

      .cls-10 {
        fill: #ff9090;
      }

      .cls-12 {
        opacity: .6;
      }

      .cls-13 {
        fill: #f28f8f;
      }

      .cls-14 {
        fill: #a17b4c;
      }

      .cls-15 {
        fill: #263238;
      }

      .cls-16 {
        fill: #ffaaa8;
      }

      .cls-17 {
        fill: #ebebeb;
      }

      .cls-18 {
        fill: #c4a06d;
      }

      .cls-19 {
        fill: #455a64;
      }
    </style>
  </defs>
  <path class="cls-6" d="M404.5,860.64c223.4,0,404.5-110.85,404.5-247.59s-181.1-247.59-404.5-247.59S0,476.31,0,613.05s181.1,247.59,404.5,247.59Z"/>
  <path class="cls-3" d="M417.29,499.89l-228.74,140.06c-6.44,3.94-17.6,3.45-25.11-1.1l-81.24-49.72c-7.44-4.55-8.25-11.44-1.76-15.37l228.74-140.06c6.44-3.94,17.6-3.43,25.11,1.1l81.22,49.72c7.41,4.55,8.27,11.44,1.78,15.37Z"/>
  <path class="cls-3" d="M543.05,686.23c88.51,0,160.26-43.92,160.26-98.09s-71.75-98.09-160.26-98.09-160.26,43.92-160.26,98.09,71.75,98.09,160.26,98.09Z"/>
  <path class="cls-3" d="M395.3,734.55c41.86,0,75.8-20.77,75.8-46.4s-33.94-46.4-75.8-46.4-75.8,20.77-75.8,46.4,33.94,46.4,75.8,46.4Z"/>
  <path class="cls-3" d="M722.57,617.79c17.74,10.86,17.74,28.47,0,39.32-17.74,10.86-46.52,10.86-64.26,0-17.74-10.86-17.74-28.47,0-39.32,17.74-10.86,46.5-10.8,64.26,0Z"/>
  <path class="cls-7" d="M691.88,527.89c-10.17,69.57-76.27,143.22-177.54,122.66-1-.19-2.01-.39-2.99-.62-2.09-.47-4.2-.95-6.32-1.51-106.52-27.14-114.02-100.29-109.36-132.14,4.66-31.84,32.41-57.46,48.81-67.61,16.4-10.15,36.72-21.64,55.41-53.65,16.95-29.1,44.15-46.53,84.71-43.6l3.61.3c2.9.3,5.91.71,8.97,1.19,0,0,118,15.69,94.7,174.97Z"/>
  <path class="cls-12" d="M691.88,527.89c-10.17,69.57-76.27,143.22-177.54,122.66-1-.19-2.01-.39-2.99-.62-2.09-.47-4.2-.95-6.32-1.51-106.52-27.14-114.02-100.29-109.36-132.14,4.66-31.84,32.41-57.46,48.81-67.61,16.4-10.15,36.72-21.64,55.41-53.65,16.95-29.1,44.15-46.53,84.71-43.6l3.61.3c2.9.3,5.91.71,8.97,1.19,0,0,118,15.69,94.7,174.97Z"/>
  <path class="cls-7" d="M666.85,523.78c-9.73,66.6-66.49,137.64-152.5,126.86-1-.19-2.01-.39-2.99-.62,84.19,8.71,139.67-61.41,149.28-127.17,19.25-131.56-51.03-164.02-76.03-171.33-2.3-.69-4.22-1.14-5.67-1.46l3.34.5c2,.3,3.98.72,5.93,1.25,22.28,5.67,98.6,35.5,78.63,171.96Z"/>
  <path class="cls-1" d="M666.85,523.78c-9.73,66.6-66.49,137.64-152.5,126.86-1-.19-2.01-.39-2.99-.62,84.19,8.71,139.67-61.41,149.28-127.17,19.25-131.56-51.03-164.02-76.03-171.33-2.3-.69-4.22-1.14-5.67-1.46l3.34.5c2,.3,3.98.72,5.93,1.25,22.28,5.67,98.6,35.5,78.63,171.96Z"/>
  <path class="cls-7" d="M608.04,519.76s56.59-138.8-35.09-138.8c0,0-49.51-13.41-71.02,51.17-21.5,64.58-82.7,47.81-82.7,99.13,0,31.06,12.58,66.41,23.03,89.43,8.73,6.2,18.01,11.46,27.71,15.73l.4-.3s3.66-32.12,25.74-47.83c22.08-15.71,71.42-31.12,87.64-44.08,15.33-12.22,46.93-8.08,52.03.41-2.64-5.88-12.56-26.6-27.77-24.87Z"/>
  <path class="cls-1" d="M608.04,519.76s56.59-138.8-35.09-138.8c0,0-49.51-13.41-71.02,51.17-21.5,64.58-82.7,47.81-82.7,99.13,0,31.06,12.58,66.41,23.03,89.43,8.73,6.2,18.01,11.46,27.71,15.73l.4-.3s3.66-32.12,25.74-47.83c22.08-15.71,71.42-31.12,87.64-44.08,15.33-12.22,46.93-8.08,52.03.41-2.64-5.88-12.56-26.6-27.77-24.87Z"/>
  <path class="cls-7" d="M635.74,544.62c.41.97.63,1.55.63,1.55-.12-.55-.34-1.08-.63-1.55Z"/>
  <path class="cls-8" d="M419.68,553.41l4.36,71.11s27.5,3.15,24.21-19.55c0,0-1.37-2.39-1.05-7.98.32-5.6,6.49-34.77,6.72-43.88l-34.24.3Z"/>
  <path class="cls-13" d="M423.26,611.72l3.43,2.71,25.16-55.91-3.55-5.35-3.43.04-6.33,5.32-16.29,36.62,1.02,16.58Z"/>
  <path class="cls-5" d="M422.38,624.78s-5.68-11.7,2.46-14.76c8.15-3.06,13.29,0,13.83,3.23.55,3.23.9,7.95.9,7.95,4.35-4.38,7.38-10.03,8.69-16.23,0,0,12.63,11.79,11.61,17.91-1.02,6.12-10.7,19.22-11.89,23.32-1.2,4.1-4.14,29.46-16.03,33.11-11.9,3.66-28.82,3.73-24.63-10.63,1.42-4.96,8.8-10.78,10.47-15.67,1.67-4.89,4.59-28.22,4.59-28.22Z"/>
  <path class="cls-17" d="M443.44,664.5c-2.05-4.99-5.62-9.09-10.15-11.65s-9.74-3.42-14.78-2.45c-.25,1.12-.48,2.01-.67,2.61-1.67,4.89-9.04,10.71-10.47,15.67-4.15,14.44,12.77,14.29,24.63,10.63,5.51-1.7,9.1-8.06,11.49-14.81h-.05Z"/>
  <path class="cls-15" d="M458.46,617.47c.17.7.21,1.43.11,2.15-1.14,6.38-11.45,19.92-12.76,24.25-1.3,4.33-4.73,30.73-17.22,34.38-5.73,1.78-11.75,2.32-17.68,1.59,5.14,2.61,13.97,1.68,21.12-.48,11.89-3.73,14.85-28.99,16.03-33.11,1.18-4.12,10.89-17.2,11.89-23.32.1-1.94-.42-3.86-1.48-5.45Z"/>
  <path class="cls-17" d="M436.8,628.35c-.22,0-.43-.1-.58-.26-5.61-5.93-13.21-2.65-13.53-2.52-.2.09-.42.09-.62,0-.2-.09-.36-.25-.44-.46-.08-.21-.09-.45,0-.66.08-.21.24-.38.44-.47.09,0,8.9-3.88,15.33,2.87.11.12.19.28.22.45s.01.34-.05.5c-.06.16-.17.29-.3.39-.14.1-.29.15-.46.15Z"/>
  <path class="cls-17" d="M436.1,634.97c-.1,0-.21-.02-.3-.06-.1-.04-.18-.1-.26-.18-5.63-5.93-13.23-2.67-13.55-2.52-.1.05-.21.07-.31.07-.11,0-.21-.02-.32-.06-.1-.04-.19-.11-.27-.19-.08-.08-.14-.18-.18-.28-.08-.21-.08-.45,0-.66.08-.21.24-.38.44-.47,0,0,8.92-3.88,15.33,2.89.15.16.24.38.24.61s-.08.45-.24.61c-.07.09-.16.15-.26.2s-.21.07-.32.06Z"/>
  <path class="cls-17" d="M435.19,641.5c-.11,0-.21-.02-.31-.06-.1-.04-.19-.1-.27-.18-5.63-5.95-13.21-2.67-13.53-2.52-.2.07-.41.06-.6-.03-.19-.09-.34-.25-.42-.45-.08-.2-.09-.43-.02-.63.07-.21.21-.38.39-.48.09,0,8.92-3.88,15.32,2.89.08.08.14.17.19.27.04.11.07.22.07.33s-.02.23-.07.33c-.04.1-.11.2-.19.27-.07.08-.16.15-.26.19-.1.04-.2.07-.31.07Z"/>
  <path class="cls-17" d="M433.9,648.12c-.22,0-.43-.1-.58-.26-5.63-5.93-13.21-2.65-13.53-2.52-.1.04-.2.07-.31.07-.11,0-.21-.02-.31-.06-.1-.04-.19-.1-.26-.18-.08-.08-.14-.17-.18-.28-.04-.1-.06-.22-.06-.33,0-.11.02-.23.06-.33.04-.11.1-.2.17-.28.07-.08.16-.14.26-.19.09,0,8.9-3.9,15.32,2.87.11.12.19.28.22.45.03.17.02.34-.05.5-.06.16-.17.3-.3.39-.14.1-.29.15-.46.15Z"/>
  <path class="cls-19" d="M538.42,494.18l-26.57,14.59-48.12,26.47c-2.15,1.19-4.05,2.82-5.6,4.79-1.55,1.98-2.71,4.26-3.41,6.72-.5,1.74-.77,3.55-.79,5.37v.99c-1.07.79-2.2,1.5-3.36,2.13-3.74,2.01-7.85,3.14-12.04,3.28-6.6.12-13.11-1.64-18.84-5.11,0,0-.18-8.43-.51-22.14-.33-13.71,10.75-20.15,20.9-28.17,10.15-8.02,64.64-32.54,64.64-32.54l33.7,23.62Z"/>
  <path class="cls-2" d="M504.72,503.82l29.47-9.4,4.22,4.4-31.27,12.54-2.43-7.54Z"/>
  <path class="cls-2" d="M514.31,511.1l-59.6,35.65-.65.39-3.52,8.1c-3.74,2.01-7.85,3.14-12.04,3.28l6.53-14.55c1.58-3.53,4.14-6.46,7.34-8.39l52.33-31.71s-.39-9.33,1.37-13.36c0,0,.3,11.71,5.75,18.3.72.89,1.56,1.66,2.48,2.3Z"/>
  <path class="cls-8" d="M434.34,577.14l-38.09,85.09s-2.99,17.22,7.57,17.22,12.32-5.73,12.32-5.73c0,0,1-7.22,10.01-20.52,9.01-13.3,36.85-39.18,42.83-57.64l-34.63-18.41Z"/>
  <path class="cls-19" d="M589.45,505.13s-5.28,24.48-15.18,32.95c-9.91,8.47-18.02,14.2-51.29,21.66-21.89,4.89-36.16,8.99-43.35,11.19-1.64.51-3.12,1.47-4.27,2.81-1.15,1.33-1.94,2.97-2.28,4.75-1.06,5.67-2.41,11.28-4.05,16.79,0,0-21.8.76-34.59-18.38l12.65-25.67c3.27-6.67,8.17-12.29,14.18-16.29,14.79-9.98,30.11-19.03,45.89-27.12,25.85-12.74,29.37-15.07,29.37-15.07l52.93,12.39Z"/>
  <path class="cls-8" d="M505.18,410.86l-24.63,40.82,18.67,18.88,27.82-45.48s-8.23-15.2-21.85-14.21Z"/>
  <path class="cls-7" d="M505.18,410.86s14.78,4.09,18.25,14.21l29.75-38.13-4.79-18.52c-4.3-.74-8.71-.27-12.79,1.37-4.08,1.64-7.68,4.38-10.44,7.96-6.48,8.11-19.99,33.11-19.99,33.11Z"/>
  <path class="cls-18" d="M505.18,410.86s14.78,4.09,18.25,14.21l29.75-38.13-4.79-18.52c-4.3-.74-8.71-.27-12.79,1.37-4.08,1.64-7.68,4.38-10.44,7.96-6.48,8.11-19.99,33.11-19.99,33.11Z"/>
  <path class="cls-15" d="M555.36,278.38s-7.04-6.16-15.22,3.36c-8.18,9.51-.65,37.31-12.6,35.82,0,0,7.85,8.92,15.68,2.65.28-.23.61-.39.95-.47,3.08-.63,5.91,5.24,7.14,7.33,3.41,5.75,6.37,11.75,9.78,17.48,3.41,5.73,7.71,13.71,13.3,17.29,6.63,4.27,16.61,3.62,23.4.3,11.02-5.37,18.69-17.8,22.52-29.61,1.76-5.22,3.27-11.43,2.62-16.96-1.04-8.73-7.14-11.81-7.18-11.4,0,0,2.62-22.16-24.63-27.63-25.35-5.11-35.77,1.83-35.77,1.83Z"/>
  <path class="cls-8" d="M591.52,349.43l-2.87,26.9,8.29,3.73s-40.47,21.57-49.81,18.28c-9.34-3.28,9.94-29.25,9.94-29.25l4.68.62.62-12.46,29.16-7.82Z"/>
  <path class="cls-10" d="M584.03,354.56l-10.98-.17-10.68,2.87-.46,8.94c17.4-4.14,22.12-11.64,22.12-11.64Z"/>
  <path class="cls-8" d="M555.31,289.25s-11.65,5.6-14.6,32.09c-2.96,26.49,1.25,38.75,16.95,38.75,12.62,0,27.5-1.86,33.87-10.65,1.55-2.16,4.72-54.25-8.59-61.56s-27.62,1.38-27.62,1.38Z"/>
  <path class="cls-15" d="M555.31,286.92s-.54,28.28,29.77,37.07c0,0-2.2,14.92,6.33,14.92h8.32v-26.12c0-7.88-2.95-15.43-8.21-21-5.25-5.57-12.38-8.7-19.81-8.7h-12.67c-.98,0-1.92.42-2.62,1.16s-1.09,1.74-1.09,2.78l-.03-.11Z"/>
  <path class="cls-10" d="M557.3,320.2v16.12l-8.9-2.89,8.9-13.23Z"/>
  <path class="cls-15" d="M566.5,328.15c1.27,0,2.3-1.09,2.3-2.44s-1.03-2.44-2.3-2.44-2.3,1.09-2.3,2.44,1.03,2.44,2.3,2.44Z"/>
  <path class="cls-15" d="M551.37,321.56c0,.49-.13.97-.38,1.38-.25.41-.62.73-1.04.91s-.89.24-1.35.15c-.45-.1-.87-.33-1.19-.68-.33-.35-.55-.79-.64-1.26-.09-.48-.04-.98.14-1.43.18-.45.48-.83.86-1.11.38-.27.84-.41,1.3-.41.61,0,1.2.26,1.63.72.43.46.68,1.08.68,1.73Z"/>
  <path class="cls-15" d="M546.18,312.46l5.75-1.75s-1.39-2.63-3.61-1.87c-2.22.77-2.15,3.62-2.15,3.62Z"/>
  <path class="cls-16" d="M591.19,336.49c-.1-2.67.36-5.32,1.36-7.78.49-1.53,1.38-2.87,2.58-3.87,1.2-.99,2.64-1.6,4.16-1.73,7.76-.22,8.8,7.71,8.71,10.52-.28,7.46-5.95,15.43-16.47,15.73l-.34-12.87Z"/>
  <path class="cls-5" d="M557.07,369.11l-8.67-.69s-32.46,25.61-30.39,43.39c1.23,10.45,4.24,16.3,6.21,19.1.56.83.95,1.77,1.14,2.77.19,1,.18,2.03-.03,3.03-1.18,5.6-3.77,16.04-7.41,20.95-3.89,4.84-8.32,9.17-13.2,12.89,0,0,9.82,19.05,28.71,28.93,18.9,9.89,49.36,10.78,56.01,5.6l8.8-53.41,4.36-68.86-7.29-3.54s-34.86,17.37-45.75,16.36c-5.59-.48,7.5-26.53,7.5-26.53Z"/>
  <path class="cls-4" d="M542.91,434.97c4.88,3.8,10.82,5.77,16.87,5.6,6.2.13,12.23-2.17,16.93-6.45,0,0-4.63,9.16-17.17,9.16s-16.63-8.3-16.63-8.3Z"/>
  <path class="cls-8" d="M583.22,444.97l-5.19,24.14c-10.68-2.55-21.48-4.47-32.36-5.76-19.53-2.41-23.44-3.73-23.44-3.73l1.22,22.5s23.66,10.07,45.34,13.39c21.68,3.32,27.43,2.46,33.01-16.23,5.58-18.69,7.6-26.12,7.6-26.12l-26.18-8.19Z"/>
  <path class="cls-7" d="M602.54,382.86s-16.14,12.29-14.34,39.62c0,0-4.45,20.52-4.98,22.39,0,0,9.47,7.87,26.18,8.13l10.7-40.93c1.17-4.4,1.01-9.08-.48-13.38-1.49-4.29-4.21-7.98-7.79-10.54-2.95-2.04-6.06-3.81-9.29-5.3Z"/>
  <path class="cls-18" d="M602.54,382.86s-16.14,12.29-14.34,39.62c0,0-4.45,20.52-4.98,22.39,0,0,9.47,7.87,26.18,8.13l10.7-40.93c1.17-4.4,1.01-9.08-.48-13.38-1.49-4.29-4.21-7.98-7.79-10.54-2.95-2.04-6.06-3.81-9.29-5.3Z"/>
  <path class="cls-2" d="M518.68,490.28l-.49-2.41-9.75-48.2s.72-1.55,1.23-2.69c.28.19.53.41.76.67.51.6.87,1.32,1.06,2.11l9.94,45.65.16.67c.62,2.84-2.9,4.2-2.9,4.2Z"/>
  <path class="cls-19" d="M510.42,437.65l-1.99,2.01-23.81-8.45-1.97-.69,1.07-1.1c.17-.19.36-.36.58-.49.37-.25.79-.42,1.22-.5s.88-.06,1.31.05l21.78,7.91c.69.25,1.3.68,1.8,1.25Z"/>
  <path class="cls-15" d="M482.32,431.78l10.84,45.93c.23.95.66,1.82,1.27,2.55.61.73,1.38,1.29,2.24,1.63l20.62,8.45c.3.14.63.18.96.13.33-.05.63-.2.88-.43.25-.23.43-.52.53-.85.1-.33.11-.69.03-1.02l-10.12-46.32c-.16-.77-.51-1.49-1.01-2.08s-1.13-1.04-1.84-1.29l-22.75-8.25c-.21-.09-.45-.11-.67-.06-.23.04-.43.15-.61.31-.17.16-.3.37-.36.6-.07.23-.07.48-.01.71Z"/>
  <path class="cls-5" d="M416.1,673.68c-1.75,1.13-3.71,1.84-5.75,2.08-2.04.24-4.1,0-6.04-.68,0,0,2.87-7.82-2.55-11.19-5.42-3.38-10.73-3.38-12.12,1.46l-1.41,4.83s-13.62,11.32-18.74,14.79c-5.12,3.47-10.01,6.08-13.83,8.69s-13.64,10.19-5.14,19.72c8.5,9.53,33.77,4.63,40.17-6.25,6.4-10.88,24.88-5.6,24.88-18.77s.53-14.68.53-14.68Z"/>
  <path class="cls-17" d="M367.13,686.49c-4.24,2.72-8.25,4.92-11.47,7.13-3.8,2.59-13.64,10.18-5.14,19.72,6.53,7.35,23,6.12,33.17.2.34-21.92-12.26-25.76-16.56-27.05Z"/>
  <path class="cls-15" d="M391.18,703.75c-6.76,11.45-33.43,16.64-42.32,6.58-.4-.45-.76-.9-1.09-1.34.65,1.62,1.58,3.1,2.74,4.35,8.5,9.55,33.77,4.63,40.17-6.25,6.11-10.34,23.09-6.03,24.74-16.96-5.1,6.25-18.79,4.38-24.25,13.62Z"/>
  <path class="cls-17" d="M398.61,681.96c-.19,0-.38-.07-.52-.2-.15-.13-.25-.31-.29-.51-1.41-8.32-9.66-10.26-9.75-10.28-.21-.05-.4-.18-.52-.38-.12-.19-.16-.43-.12-.65.05-.22.17-.42.35-.54.18-.12.4-.17.61-.13.11,0,9.41,2.22,11.03,11.66.04.23-.01.46-.14.65-.12.19-.32.32-.53.36l-.14.02Z"/>
  <path class="cls-17" d="M394.07,685.75c-.19,0-.38-.07-.53-.2-.15-.13-.25-.31-.28-.51-1.41-8.3-9.66-10.24-9.75-10.26-.21-.05-.39-.18-.51-.38-.12-.19-.16-.42-.12-.65.02-.11.06-.22.12-.31.06-.09.14-.18.23-.24.09-.06.19-.11.3-.13.11-.02.21-.02.32,0,.11,0,9.41,2.2,11.03,11.64.02.11.02.23,0,.34-.02.11-.07.22-.13.31-.06.09-.14.17-.23.23-.09.06-.2.1-.3.12l-.14.02Z"/>
  <path class="cls-17" d="M388.88,690.02c-.19,0-.38-.07-.52-.2-.15-.13-.25-.31-.29-.51-1.41-8.28-9.4-10.19-9.75-10.26-.21-.05-.4-.19-.51-.39-.12-.2-.16-.43-.12-.66.02-.11.07-.21.13-.31.06-.09.14-.17.23-.23.09-.06.19-.1.3-.12.11-.02.21-.02.32,0,.1,0,9.41,2.2,11.03,11.64.02.11.02.23,0,.34-.02.11-.07.22-.13.31-.06.09-.14.17-.23.23-.09.06-.2.1-.3.12l-.14.02Z"/>
  <path class="cls-17" d="M384.44,693.57c-.19,0-.38-.08-.52-.21-.15-.13-.24-.32-.27-.52-1.41-8.26-9.41-10.19-9.75-10.26-.21-.05-.4-.18-.51-.38-.12-.19-.16-.43-.12-.65.02-.11.06-.22.12-.31.06-.09.14-.17.23-.24.09-.06.19-.1.3-.13.11-.02.21-.02.32,0,0,0,9.41,2.22,11.02,11.66.02.11.02.23,0,.34-.02.11-.06.22-.12.31-.06.09-.14.17-.23.23-.09.06-.19.1-.3.12l-.16.02Z"/>
  <path class="cls-10" d="M555.31,340.22c3.11.22,6.21-.67,8.8-2.52,0,0,.6,4.94-3.29,5.88-3.89.93-5.51-3.36-5.51-3.36Z"/>
  <path class="cls-8" d="M485.49,453.7c-.42-.67-.23-1.59-.42-2.67-.41-1.92-1.1-3.76-2.06-5.45-.37-.95-.98-1.77-1.76-2.37-.41-.29-.9-.41-1.38-.35-.48.07-.93.32-1.26.7-.26.49-.39,1.06-.37,1.62-.19,2.58.01,5.18.62,7.69.56,1.87-.55,4.31-.79,6.14-.4,2.85.65,4.05,1.28,6.88,1.46,6.42,6.37,9.33,12.32,8.15,12.32-2.39,11.86-19.89,10.2-22.29-1.65-2.41-4.47-3.84-9.24.35-1.55,1.36-4.12,3.12-6.28,2.26-.35-.12-.65-.35-.86-.67Z"/>
  <path class="cls-8" d="M526.96,461.36c-2.92-5.58-7.68-9.82-13.37-11.9l1.76,7.76s-8.57,1.75-13.99.73-15.36-7.69-13.78-.11c1.58,7.57,3.18,12.57,7.27,16.01,4.31,3.88,9.61,6.32,15.22,7.01,5.86.48,13.44,1.27,13.44,1.27l3.45-20.76Z"/>
  <path class="cls-10" d="M494.78,474.27c-.09,0-.18-.04-.25-.09-4.12-3.47-5.79-8.38-7.43-16.25-.35-1.7-.18-2.85.55-3.51,1.48-1.38,4.82,0,8.38,1.32,1.71.77,3.48,1.39,5.28,1.87.79.13,1.58.22,2.38.26.11,0,.21.04.29.12.08.08.12.19.12.3s-.04.22-.12.3c-.08.08-.18.13-.29.13-.83-.03-1.66-.12-2.48-.28-1.87-.46-3.7-1.09-5.47-1.87-3.03-1.19-6.44-2.54-7.57-1.49-.46.43-.55,1.32-.28,2.67,1.6,7.67,3.2,12.46,7.13,15.74.07.08.12.19.12.31s-.04.22-.12.31c-.06.08-.14.13-.23.15Z"/>
  <path class="cls-15" d="M614.91,304.77c3.59-2.17,7.69-3.23,11.82-3.06,4.13.16,8.14,1.55,11.57,4,3.38,2.53,6.18,5.84,8.19,9.66,2.02,3.83,3.2,8.09,3.47,12.46,1.28,18.08-5.16,23.34-11.65,45-2.13,7.09,0,15.46,17.01,23.8,0,0-44.16,9.07-36.6-37.98,5.49-34.14-6.26-32.87-6.26-32.87l2.45-21.01Z"/>
  <path class="cls-7" d="M698.54,586.61s-22.12-22.91-9.52-61.28c7.04-21.51,30.44-37.31,43.76-38.78-4.42,5.57-7.94,11.87-10.42,18.65l-16.77,11.83,15.41-5.11-3.27,13.99s-14.34,9.18-16.47,11.19l15.45-4.29s-1.18,39.57-18.18,53.8Z"/>
  <path class="cls-14" d="M698.54,586.61s-22.12-22.91-9.52-61.28c7.04-21.51,30.44-37.31,43.76-38.78-4.42,5.57-7.94,11.87-10.42,18.65l-16.77,11.83,15.41-5.11-3.27,13.99s-14.34,9.18-16.47,11.19l15.45-4.29s-1.18,39.57-18.18,53.8Z"/>
  <path class="cls-11" d="M698.54,586.62s-11.46-47.94,5.51-75.89c0,0-19.85,24.66-5.51,75.89Z"/>
  <path class="cls-2" d="M723.87,593.11l-27.08-.35h-.28l-27.06.35s-.3,35.35,9.96,49.75c2.85,3.73,9.5,6.51,17.24,6.51s14.43-2.71,17.26-6.53c10.26-14.4,9.96-49.73,9.96-49.73Z"/>
  <path class="cls-19" d="M696.65,608.59c15.02,0,27.2-6.93,27.2-15.48s-12.18-15.48-27.2-15.48-27.2,6.93-27.2,15.48,12.18,15.48,27.2,15.48Z"/>
  <path class="cls-15" d="M696.65,589c9.36,0,17.3,3.17,20.08,7.59.69-1.02,1.07-2.24,1.09-3.49,0-6.12-9.47-11.08-21.11-11.08s-21.11,4.96-21.11,11.08c.02,1.25.4,2.47,1.09,3.49,2.67-4.42,10.61-7.59,19.97-7.59Z"/>
  <path class="cls-3" d="M696.65,589c-9.36,0-17.3,3.17-20.08,7.59,2.78,4.4,10.72,7.59,20.08,7.59s17.3-3.19,20.08-7.59c-2.78-4.42-10.72-7.59-20.08-7.59Z"/>
  <path class="cls-5" d="M696.99,598.5s-10.56-.43-19.48-15.19c-3.71-6.1-5.51-9.33-5.51-9.33l14.62-1.16-16.38-4.35-7.72-12.54,13.58-1.08s-10.12-3.73-17.35-3.73c0,0-12.53-23.47-16.21-26.83,9.48.62,18.75,3.26,27.26,7.74,8.51,4.48,16.08,10.73,22.27,18.37,20.6,25.76,7.95,48.75,4.91,48.08Z"/>
  <path class="cls-11" d="M696.99,598.5s6.56-41.88-35.3-67.07c0,0,43.44,22.12,35.3,67.07Z"/>
  <path class="cls-7" d="M696.99,598.5s9.5.65,18.93-11.77c3.89-5.11,5.77-7.82,5.77-7.82l-13.07-2.5,15.15-2.29,8.09-10.54-12.16-2.31s9.47-2.39,15.99-1.72c0,0,13.39-19.92,17-22.57-8.61-.38-17.21,1.07-25.28,4.28-8.07,3.21-15.46,8.09-21.72,14.38-20.89,21.17-11.53,43.17-8.71,42.87Z"/>
  <path class="cls-18" d="M696.99,598.5s9.5.65,18.93-11.77c3.89-5.11,5.77-7.82,5.77-7.82l-13.07-2.5,15.15-2.29,8.09-10.54-12.16-2.31s9.47-2.39,15.99-1.72c0,0,13.39-19.92,17-22.57-8.61-.38-17.21,1.07-25.28,4.28-8.07,3.21-15.46,8.09-21.72,14.38-20.89,21.17-11.53,43.17-8.71,42.87Z"/>
  <path class="cls-11" d="M696.99,598.5s-2.23-38.45,37.8-56.99c0,0-41.16,15.63-37.8,56.99Z"/>
  <path class="cls-19" d="M148.22,597.3l179.07-109.6c12.63-7.74,22.87-28.49,22.87-46.34V34.81c0-17.85-10.24-26.12-22.87-18.32l-179.07,109.6c-12.63,7.74-22.87,28.49-22.87,46.34v406.57c0,17.83,10.24,26.12,22.87,18.3Z"/>
  <path class="cls-2" d="M127.6,113.35L306.67,3.73c5.4-3.3,10.36-3.73,14.27-1.66.48.25.95.53,1.39.86l20.06,12.35c-4.03-2.54-9.33-2.37-15.11,1.19l-179.05,109.62c-12.63,7.74-22.87,28.49-22.87,46.34v406.57c0,9.44,2.87,16.17,7.43,19.29l-19.79-12.22c-5.05-2.85-8.25-9.83-8.25-19.83V159.69c0-17.85,10.24-38.6,22.87-46.34Z"/>
  <path class="cls-15" d="M125.35,172.43v406.57c0,9.44,2.87,16.17,7.43,19.29l-19.79-12.22c-5.05-2.85-8.25-9.83-8.25-19.83V159.69l20.62,12.63v.11Z"/>
  <path class="cls-2" d="M104.73,191.26l20.62,12.63v9.85l-20.62-12.63v-9.85Z"/>
  <path class="cls-2" d="M113.75,256.85c1.76,1.12,3.34,0,3.34-2.69v-21.19c-.02-1.33-.33-2.63-.91-3.81-.58-1.18-1.41-2.19-2.43-2.96-1.76-1.12-3.32,0-3.32,2.69v21.19c.02,1.32.33,2.63.91,3.8.58,1.17,1.4,2.19,2.42,2.97Z"/>
  <path class="cls-19" d="M117.1,254.16v-21.19c-.02-1.33-.33-2.63-.91-3.81-.58-1.18-1.41-2.19-2.43-2.96-.3-.22-.65-.36-1.02-.4-.37-.04-.74.03-1.07.19l2.45-1.44c.34-.18.72-.26,1.1-.23.38.03.75.17,1.06.4,1.02.77,1.85,1.79,2.43,2.96.58,1.18.89,2.48.91,3.81v21.19c.06.54-.02,1.08-.22,1.57-.2.5-.51.93-.91,1.26l-2.62,1.44c.42-.31.76-.73.97-1.22.22-.49.31-1.03.26-1.57Z"/>
  <path class="cls-2" d="M113.75,308.17c1.76,1.14,3.34,0,3.34-2.67v-21.25c-.02-1.33-.33-2.63-.91-3.8-.58-1.17-1.41-2.18-2.43-2.95-1.76-1.14-3.32,0-3.32,2.67v21.25c.02,1.32.33,2.62.91,3.8.58,1.17,1.4,2.18,2.42,2.96Z"/>
  <path class="cls-19" d="M117.1,305.5v-21.25c-.02-1.33-.33-2.63-.91-3.8-.58-1.17-1.41-2.18-2.43-2.95-.3-.23-.65-.36-1.02-.4-.37-.04-.74.03-1.07.2l2.5-1.36c.34-.18.72-.26,1.1-.23.38.03.75.17,1.06.4,1.02.77,1.85,1.79,2.43,2.96.58,1.18.89,2.48.91,3.81v21.19c.06.54-.02,1.08-.22,1.57-.2.5-.51.93-.91,1.26l-2.62,1.46c.42-.32.75-.75.96-1.26.21-.5.28-1.05.22-1.6Z"/>
  <path class="cls-7" d="M154.45,137.53L330.53,29.78c.74-.43,1.57-.64,2.41-.63.84.02,1.66.26,2.39.71.72.45,1.32,1.1,1.74,1.87.42.77.64,1.65.65,2.54v407.09c0,13.58-9.08,30.28-20.18,37.07l-171.75,105.1c-.81.52-1.74.8-2.68.82s-1.88-.25-2.7-.75c-.82-.5-1.5-1.23-1.96-2.1-.46-.88-.7-1.87-.68-2.87V168.1c.04-11.21,7.53-24.96,16.7-30.58Z"/>
  <path class="cls-9" d="M154.45,137.53L330.53,29.78c.74-.43,1.57-.64,2.41-.63.84.02,1.66.26,2.39.71.72.45,1.32,1.1,1.74,1.87.42.77.64,1.65.65,2.54v407.09c0,13.58-9.08,30.28-20.18,37.07l-171.75,105.1c-.81.52-1.74.8-2.68.82s-1.88-.25-2.7-.75c-.82-.5-1.5-1.23-1.96-2.1-.46-.88-.7-1.87-.68-2.87V168.1c.04-11.21,7.53-24.96,16.7-30.58Z"/>
  <path class="cls-19" d="M277.81,57.91l-2.73,12.18-58.33,35.65-10.07-5.69,71.12-42.14Z"/>
  <path class="cls-15" d="M260.67,69.72c0,2.01,1.34,2.84,2.97,1.87.87-.6,1.6-1.41,2.11-2.36.52-.95.82-2.02.88-3.12,0-2.01-1.34-2.84-2.99-1.87-.87.6-1.58,1.42-2.1,2.37-.52.95-.82,2.02-.87,3.12Z"/>
  <path class="cls-15" d="M221.44,95.42c.32,0,.63-.08.91-.24l29.79-17.67c.21-.12.4-.29.56-.5s.27-.44.33-.69c.07-.25.09-.51.06-.77-.03-.26-.11-.51-.23-.73-.24-.46-.64-.79-1.12-.94-.48-.14-.99-.08-1.42.17l-29.81,17.65c-.43.26-.74.69-.88,1.2-.13.51-.08,1.05.16,1.51.16.31.4.56.69.74.29.18.61.27.95.27Z"/>
  <path class="cls-6" d="M373.06,507.35c-38.46,24.25-138.55,87.68-188.08,119.28-1.48.94-3.16,1.45-4.88,1.47-1.72.03-3.42-.44-4.92-1.34-1.5-.9-2.75-2.2-3.62-3.78s-1.32-3.37-1.32-5.2V178.98c0-4.99,1.23-9.9,3.57-14.24,2.34-4.33,5.71-7.94,9.78-10.46l190.36-118.29c1.48-.92,3.16-1.4,4.87-1.41,1.71,0,3.39.46,4.88,1.37,1.48.9,2.72,2.2,3.58,3.77.86,1.57,1.31,3.35,1.31,5.17v433.38c0,5.86-1.42,11.62-4.14,16.72-2.72,5.1-6.65,9.36-11.39,12.36Z"/>
  <path class="cls-3" d="M372.28,505.95c-30.18,19.1-60.37,38.22-90.56,57.35l-53.6,33.99-24.47,15.56-10.7,6.83c-3.26,2.07-6.72,5-10.29,6.36-5.66,2.13-10.73-2.72-10.89-8.62V179.88c-.07-4.96,1.11-9.85,3.42-14.16,2.31-4.31,5.66-7.89,9.71-10.37,4.36-2.74,8.8-5.45,13.13-8.15l61.5-38.3,72.88-45.28c13.81-8.58,27.61-17.24,41.47-25.76,4.01-2.48,9.04-2.31,11.88,2.16,1.01,1.8,1.48,3.88,1.34,5.97v430.66c0,12.03-4.93,22.89-14.8,29.31-1.67,1.1-.14,3.9,1.55,2.8,5.1-3.34,9.29-8.03,12.15-13.62,2.86-5.59,4.3-11.87,4.16-18.22V76.67c0-10.43.11-20.86,0-31.27.03-2.19-.5-4.35-1.53-6.25-1.03-1.9-2.53-3.46-4.33-4.53-1.8-1.07-3.85-1.6-5.91-1.54-2.07.06-4.08.71-5.82,1.89-4.57,2.8-9.11,5.6-13.69,8.51l-63.18,39.29-73.53,45.67c-13,8.08-26.06,16.1-39.01,24.25-4.46,2.76-8.14,6.71-10.69,11.47-2.54,4.76-3.85,10.15-3.79,15.61v437.99c.02,1.88.45,3.73,1.26,5.4.81,1.67,1.98,3.12,3.41,4.22,1.43,1.11,3.09,1.84,4.84,2.15,1.75.31,3.54.17,5.23-.38,3.52-1.27,7.04-4.12,10.24-6.19l10.91-6.94,24.4-15.52c35.57-22.59,71.15-45.14,106.75-67.66l38.06-24.08c.29-.24.48-.58.56-.96.07-.38.01-.77-.17-1.11-.18-.34-.46-.6-.81-.73-.34-.13-.72-.13-1.06,0Z"/>
  <path class="cls-3" d="M273.98,556.97l12.32-7.46c1.24-.94,2.25-2.17,2.96-3.6.71-1.43,1.09-3.01,1.11-4.63v-13.47c0-3.17-1.76-4.63-4.07-3.25l-12.32,7.46c-1.24.94-2.25,2.17-2.95,3.6-.71,1.43-1.09,3.01-1.11,4.63v13.45c0,3.19,1.83,4.65,4.07,3.27Z"/>
  <path class="cls-11" d="M280.1,547.12c.37-.26.68-.6.9-1.01.22-.41.35-.86.37-1.33v-9.63c0-.86-.56-1.19-1.27-.77-.37.26-.68.6-.9,1.01-.22.41-.35.86-.37,1.33v9.63c0,.93.56,1.19,1.27.77Z"/>
  <path class="cls-11" d="M276.18,544.72l7.85-4.81c.37-.26.68-.6.9-1,.22-.41.35-.86.38-1.33,0-.86-.58-1.19-1.28-.76l-7.85,4.89c-.37.25-.68.6-.9,1-.22.4-.35.86-.38,1.33,0,.78.58,1.12,1.28.69Z"/>
  <path class="cls-3" d="M241.87,555.44c.46-.44,1.05-.72,1.67-.79.62-.07,1.24.07,1.79.4.54.33.97.83,1.23,1.43.25.6.32,1.28.2,1.92-.06,1.8-.55,3.55-1.43,5.09-.84,1.59-2.05,2.91-3.52,3.84-.5.4-1.09.65-1.71.71-.62.07-1.25-.05-1.81-.34-1.9-1.16-1.9-4.94,0-8.43.83-1.59,2.05-2.91,3.52-3.84M241.79,552.33c-2.2,1.44-4.02,3.46-5.28,5.86-2.9,5.32-2.9,11.06,0,12.82.85.41,1.78.58,2.71.48.93-.1,1.81-.45,2.57-1.02,2.21-1.44,4.02-3.46,5.28-5.86,2.88-5.32,2.88-11.06,0-12.83-.85-.41-1.78-.57-2.71-.47-.93.1-1.81.45-2.57,1.03Z"/>
  <path class="cls-3" d="M231.1,582.73c.38-.25.68-.6.9-1.01l5.54-10.17c.49-.91.49-1.87,0-2.2-.49-.34-1.3.19-1.76,1.1l-5.54,10.17c-.49.91-.49,1.86,0,2.2.14.06.29.08.44.07.15-.02.29-.07.42-.16Z"/>
  <path class="cls-3" d="M310.88,509.44c3.06-1.86,5.54.19,5.54,4.61.02-2.22.53-4.41,1.49-6.39.96-1.98,2.35-3.69,4.05-4.99,3.06-1.87,5.54.19,5.54,4.59,0,11.19-11.09,22.83-11.09,22.83,0,0-11.07,1.98-11.07-9.33.03-2.21.54-4.39,1.5-6.35.96-1.97,2.34-3.67,4.02-4.97Z"/>
  <path class="cls-3" d="M349.3,489.55c0,3.32,2.2,4.66,4.91,3,1.43-.99,2.62-2.32,3.47-3.88.85-1.57,1.35-3.32,1.44-5.13,0-3.32-2.2-4.66-4.91-3-1.43.99-2.62,2.32-3.47,3.88-.85,1.57-1.35,3.32-1.44,5.13Z"/>
  <path class="cls-3" d="M354.21,492.55c4.01-2.44,7.27.15,7.27,5.82v1.75l-14.53,8.9v-1.77c0-5.65,3.26-12.2,7.27-14.7Z"/>
  <path class="cls-3" d="M203.4,575.85l9.8,3.43v14.64l-7.6,4.55v-7.93c0-1.49-.99-2.09-2.2-1.34-.64.44-1.17,1.04-1.56,1.75-.38.7-.6,1.49-.64,2.3v7.91l-7.58,4.64v-14.55l9.78-15.41Z"/>
  <path class="cls-3" d="M170.24,584c-.18,0-.35-.04-.51-.14-.15-.09-.28-.23-.37-.4-.07-.12-.12-.26-.13-.4-.02-.14-.01-.29.02-.43.04-.14.1-.27.18-.38.08-.11.19-.21.3-.28l218.31-133.55c.24-.14.52-.18.78-.1.26.08.49.26.62.51.07.12.12.26.13.4.02.14.01.29-.02.43-.04.14-.1.27-.18.38-.08.11-.19.21-.3.28l-218.31,133.53c-.16.1-.34.15-.53.15Z"/>
  <path class="cls-3" d="M183.59,154.28l190.36-118.29c1.48-.92,3.16-1.4,4.87-1.41,1.71,0,3.39.46,4.88,1.37,1.48.9,2.72,2.2,3.58,3.77.86,1.57,1.31,3.35,1.31,5.17v19.05l-218.36,133.63v-18.66c.01-4.98,1.25-9.87,3.59-14.19,2.34-4.32,5.71-7.91,9.76-10.43Z"/>
  <path class="cls-5" d="M222.8,220.59c6.18-11.35,6.18-23.62,0-27.4-6.18-3.78-16.19,2.36-22.38,13.7-6.18,11.35-6.18,23.62,0,27.4,6.18,3.78,16.19-2.35,22.38-13.7Z"/>
  <path class="cls-19" d="M236.22,210.36c-.39,0-.77-.13-1.08-.38-.31-.25-.53-.6-.63-1s-.07-.82.08-1.2c.15-.38.42-.7.76-.9l26.15-16.01c.41-.25.89-.31,1.34-.18s.84.44,1.07.87c.23.43.3.94.17,1.42-.12.48-.42.89-.82,1.13l-26.15,15.99c-.26.17-.57.26-.88.26Z"/>
  <path class="cls-19" d="M236.3,194.35c-.39,0-.77-.13-1.08-.38-.31-.25-.53-.6-.63-1s-.07-.82.08-1.2.42-.7.76-.9l71.88-43.99c.4-.22.87-.27,1.31-.14.44.13.81.44,1.03.86.23.42.29.91.19,1.38-.11.47-.38.87-.76,1.13l-71.79,44.01c-.29.18-.63.26-.97.24Z"/>
  <path class="cls-5" d="M227.44,514.38c0,10.71-7.04,23.71-15.84,29.07-8.8,5.35-15.83,1.01-15.83-9.68s7.04-23.71,15.83-29.07c8.8-5.35,15.84-1.01,15.84,9.68Z"/>
  <path class="cls-19" d="M236.22,520.71c-.39,0-.77-.13-1.08-.38-.31-.25-.53-.6-.63-1s-.07-.82.08-1.2c.15-.38.42-.7.76-.9l26.15-16.01c.2-.14.42-.23.66-.27.24-.04.47-.03.7.03.23.06.45.17.64.32s.35.34.47.56c.12.22.2.46.22.71.03.25,0,.5-.06.74-.07.24-.18.47-.33.66-.15.19-.34.35-.55.47l-26.15,16.01c-.27.17-.57.26-.88.26Z"/>
  <path class="cls-19" d="M236.3,504.7c-.39,0-.77-.13-1.08-.38-.31-.25-.53-.6-.63-1-.1-.4-.07-.82.08-1.2.15-.38.42-.7.76-.9l71.88-43.99c.4-.22.87-.27,1.31-.14.44.13.81.44,1.03.86.23.42.29.91.19,1.38-.11.47-.38.87-.76,1.13l-71.79,43.93c-.29.2-.62.31-.97.32Z"/>
  <path class="cls-5" d="M227.44,417.62c0,10.71-7.04,23.71-15.84,29.06-8.8,5.35-15.83,1.01-15.83-9.68s7.04-23.71,15.83-29.06c8.8-5.36,15.84-1.01,15.84,9.68Z"/>
  <path class="cls-19" d="M236.22,423.92c-.38,0-.76-.14-1.06-.39-.3-.25-.52-.6-.62-.99-.1-.39-.07-.81.07-1.19.15-.38.4-.69.73-.9l26.15-16.01c.2-.13.42-.23.66-.27.24-.04.47-.03.7.03.23.06.45.17.64.32s.35.34.47.56c.12.22.2.46.22.71.03.25,0,.5-.06.74-.07.24-.18.47-.33.66-.15.2-.34.36-.55.47l-26.15,16.01c-.27.16-.57.24-.88.24Z"/>
  <path class="cls-19" d="M236.31,407.92c-.31,0-.61-.09-.87-.25-.27-.16-.49-.4-.64-.68-.23-.43-.29-.93-.18-1.41.12-.48.41-.88.81-1.13l71.88-43.99c.4-.24.88-.31,1.33-.19s.83.43,1.07.86c.12.21.19.45.22.69.03.24.02.49-.04.73-.06.24-.16.46-.3.65-.14.2-.32.36-.52.48l-71.79,43.99c-.29.18-.63.26-.97.24Z"/>
  <path class="cls-19" d="M263.86,428.74v.79l-1.94,1.18v-.79l1.94-1.18ZM262.36,428.75l.89-.54v3.52c0,.1.01.17.04.2.02.04.06.05.1.05.05,0,.1-.03.16-.07.04-.03.08-.06.13-.09.04-.04.07-.06.1-.08l.14.69s-.11.1-.19.17c-.08.07-.18.15-.3.22-.21.14-.4.22-.57.24-.16.02-.29-.02-.38-.13-.09-.11-.13-.29-.13-.53v-3.66ZM265.88,431.36c-.33.2-.62.3-.86.29-.24-.01-.42-.13-.55-.34-.13-.21-.19-.52-.19-.92s.06-.77.19-1.14c.13-.37.31-.71.54-1.02.23-.31.51-.56.83-.75.21-.13.41-.21.59-.24.18-.03.35-.01.48.06.14.07.25.21.32.4.08.19.12.45.12.77v.29l-2.72,1.66v-.65l1.88-1.15c0-.15-.03-.27-.08-.35s-.13-.13-.23-.13c-.1,0-.21.03-.34.11-.14.08-.26.19-.36.33-.1.14-.18.28-.24.44-.06.16-.09.31-.09.46v.62c0,.19.03.33.09.43.06.1.15.15.25.16.11,0,.24-.04.39-.13.1-.06.19-.13.27-.21.08-.08.15-.18.21-.28.06-.1.1-.21.13-.32l.83-.44c-.04.26-.13.51-.26.77-.13.25-.3.49-.5.71-.2.22-.44.41-.7.57ZM269.13,429.37c-.24.15-.47.21-.67.18-.2-.03-.35-.15-.47-.37-.11-.22-.17-.54-.17-.96s.06-.83.18-1.19c.12-.36.28-.67.47-.94.2-.26.42-.47.65-.61.18-.11.33-.16.45-.17.12,0,.22.03.29.09.08.06.13.13.17.2l.03-.02v-1.89l.89-.54v5.03l-.88.54v-.6l-.04.02c-.04.13-.1.27-.18.42-.08.15-.17.29-.3.43-.12.14-.27.26-.44.37ZM269.41,428.36c.14-.09.27-.21.37-.36.1-.15.18-.33.23-.53.05-.2.08-.41.08-.64s-.03-.4-.08-.54c-.05-.13-.13-.21-.23-.24-.1-.03-.22,0-.37.09-.15.09-.27.21-.37.37-.1.15-.18.33-.23.53s-.08.4-.08.62.02.4.08.54c.05.13.13.22.23.25.1.03.22,0,.37-.09Z"/>
  <path class="cls-7" d="M357.45,278.65l-154.7,94.69c-.7.43-1.5.66-2.32.66-.81,0-1.61-.23-2.32-.66-.71-.43-1.29-1.05-1.7-1.8-.41-.75-.62-1.6-.62-2.46v-103.78c0-2.09.51-4.14,1.5-5.94.98-1.81,2.4-3.31,4.1-4.35l154.7-94.69c.7-.43,1.5-.65,2.32-.65.81,0,1.61.23,2.31.66.7.43,1.29,1.05,1.7,1.79.41.74.62,1.59.63,2.45v103.83c0,2.08-.52,4.12-1.51,5.92-.98,1.8-2.39,3.29-4.09,4.33Z"/>
  <path class="cls-9" d="M357.45,278.65l-154.7,94.69c-.7.43-1.5.66-2.32.66-.81,0-1.61-.23-2.32-.66-.71-.43-1.29-1.05-1.7-1.8-.41-.75-.62-1.6-.62-2.46v-103.78c0-2.09.51-4.14,1.5-5.94.98-1.81,2.4-3.31,4.1-4.35l154.7-94.69c.7-.43,1.5-.65,2.32-.65.81,0,1.61.23,2.31.66.7.43,1.29,1.05,1.7,1.79.41.74.62,1.59.63,2.45v103.83c0,2.08-.52,4.12-1.51,5.92-.98,1.8-2.39,3.29-4.09,4.33Z"/>
  <path class="cls-11" d="M302.98,295.57c12.07-22.16,12.07-46.12,0-53.51-12.07-7.39-31.64,4.59-43.7,26.76-12.07,22.16-12.07,46.12,0,53.51,12.07,7.39,31.64-4.59,43.71-26.76Z"/>
  <path class="cls-5" d="M363.06,229.44v38.97c0,2.08-.53,4.12-1.51,5.92-.99,1.8-2.4,3.29-4.1,4.33l-154.72,94.69c-.7.43-1.5.66-2.31.67-.81,0-1.61-.23-2.32-.66-.7-.43-1.29-1.05-1.69-1.8-.4-.75-.61-1.6-.61-2.46v-37.31l167.26-102.34Z"/>
  <path class="cls-7" d="M241.99,333.54c-.87-.05-1.69-.43-2.32-1.06-.72-.6-.99-.8-1.93-.24-.11.12-.25.21-.4.26-.15.05-.31.07-.47.05-.16-.02-.31-.08-.44-.17-.13-.09-.25-.22-.33-.36-.08-.14-.13-.31-.15-.48-.01-.17,0-.34.07-.5.06-.16.15-.3.26-.42.12-.12.26-.2.41-.25.65-.48,1.43-.7,2.22-.63.79.08,1.52.44,2.08,1.04.72.6.99.82,1.94.24,1.22-.94,2.16-2.24,2.71-3.73.72-1.87,1.94-3.46,3.52-4.59.64-.48,1.43-.7,2.21-.62.78.08,1.51.44,2.07,1.03.74.62,1,.82,1.95.24,1.22-.94,2.16-2.23,2.69-3.73.72-1.87,1.94-3.47,3.52-4.61.65-.48,1.43-.7,2.22-.62.79.07,1.52.44,2.08,1.03.72.6,1,.82,1.93.24.24-.14.53-.18.8-.1.27.08.5.26.64.51.07.13.11.27.13.41s0,.29-.03.44-.1.27-.18.39c-.08.12-.19.21-.31.29-.65.48-1.43.7-2.22.63-.79-.08-1.52-.44-2.08-1.04-.72-.6-1-.82-1.93-.24-1.23.93-2.17,2.23-2.71,3.73-.72,1.86-1.95,3.46-3.52,4.59-.65.48-1.43.7-2.22.63-.79-.08-1.52-.44-2.08-1.04-.72-.6-1-.82-1.94-.24-1.23.93-2.17,2.23-2.71,3.73-.71,1.88-1.94,3.48-3.52,4.61-.59.37-1.27.57-1.95.58Z"/>
  <g class="cls-20">
    <path class="cls-11" d="M241.99,333.54c-.87-.05-1.69-.43-2.32-1.06-.72-.6-.99-.8-1.93-.24-.11.12-.25.21-.4.26-.15.05-.31.07-.47.05-.16-.02-.31-.08-.44-.17-.13-.09-.25-.22-.33-.36-.08-.14-.13-.31-.15-.48-.01-.17,0-.34.07-.5.06-.16.15-.3.26-.42.12-.12.26-.2.41-.25.65-.48,1.43-.7,2.22-.63.79.08,1.52.44,2.08,1.04.72.6.99.82,1.94.24,1.22-.94,2.16-2.24,2.71-3.73.72-1.87,1.94-3.46,3.52-4.59.64-.48,1.43-.7,2.21-.62.78.08,1.51.44,2.07,1.03.74.62,1,.82,1.95.24,1.22-.94,2.16-2.23,2.69-3.73.72-1.87,1.94-3.47,3.52-4.61.65-.48,1.43-.7,2.22-.62.79.07,1.52.44,2.08,1.03.72.6,1,.82,1.93.24.24-.14.53-.18.8-.1.27.08.5.26.64.51.07.13.11.27.13.41s0,.29-.03.44-.1.27-.18.39c-.08.12-.19.21-.31.29-.65.48-1.43.7-2.22.63-.79-.08-1.52-.44-2.08-1.04-.72-.6-1-.82-1.93-.24-1.23.93-2.17,2.23-2.71,3.73-.72,1.86-1.95,3.46-3.52,4.59-.65.48-1.43.7-2.22.63-.79-.08-1.52-.44-2.08-1.04-.72-.6-1-.82-1.94-.24-1.23.93-2.17,2.23-2.71,3.73-.71,1.88-1.94,3.48-3.52,4.61-.59.37-1.27.57-1.95.58Z"/>
  </g>
  <path class="cls-7" d="M319.58,287.01c-.87-.05-1.69-.43-2.32-1.06-.74-.6-1-.82-1.94-.24-.11.12-.25.21-.4.26-.15.05-.31.07-.47.05-.16-.02-.31-.08-.44-.17-.13-.09-.25-.22-.33-.36-.08-.14-.13-.31-.15-.48-.01-.17,0-.34.07-.5.06-.16.15-.3.26-.42.12-.12.26-.2.41-.25.64-.48,1.43-.7,2.21-.62.78.08,1.51.45,2.06,1.05.72.6,1,.82,1.94.24,1.23-.94,2.17-2.23,2.71-3.73.72-1.87,1.94-3.46,3.52-4.59.65-.48,1.43-.69,2.22-.62.79.08,1.52.44,2.08,1.03.72.6,1,.82,1.93.24,1.22-.94,2.16-2.24,2.71-3.73.72-1.87,1.94-3.46,3.52-4.59.65-.48,1.43-.7,2.22-.63.79.08,1.52.44,2.08,1.04.72.6,1,.82,1.94.24.12-.07.25-.12.39-.14.14-.02.28,0,.41.03s.26.1.37.19c.11.09.2.2.27.33.07.13.12.27.14.41.02.15.01.3-.03.44-.04.14-.1.28-.18.39-.08.12-.19.21-.32.29-.64.47-1.43.69-2.21.62-.78-.08-1.51-.44-2.07-1.03-.74-.6-1-.82-1.95-.24-1.22.94-2.16,2.24-2.71,3.73-.72,1.87-1.94,3.46-3.52,4.59-.65.48-1.43.7-2.22.62-.79-.08-1.52-.44-2.08-1.03-.72-.6-.99-.82-1.94-.24-1.23.94-2.17,2.24-2.71,3.73-.71,1.88-1.94,3.48-3.52,4.61-.6.35-1.27.54-1.95.54Z"/>
  <g class="cls-20">
    <path class="cls-11" d="M319.58,287.01c-.87-.05-1.69-.43-2.32-1.06-.74-.6-1-.82-1.94-.24-.11.12-.25.21-.4.26-.15.05-.31.07-.47.05-.16-.02-.31-.08-.44-.17-.13-.09-.25-.22-.33-.36-.08-.14-.13-.31-.15-.48-.01-.17,0-.34.07-.5.06-.16.15-.3.26-.42.12-.12.26-.2.41-.25.64-.48,1.43-.7,2.21-.62.78.08,1.51.45,2.06,1.05.72.6,1,.82,1.94.24,1.23-.94,2.17-2.23,2.71-3.73.72-1.87,1.94-3.46,3.52-4.59.65-.48,1.43-.69,2.22-.62.79.08,1.52.44,2.08,1.03.72.6,1,.82,1.93.24,1.22-.94,2.16-2.24,2.71-3.73.72-1.87,1.94-3.46,3.52-4.59.65-.48,1.43-.7,2.22-.63.79.08,1.52.44,2.08,1.04.72.6,1,.82,1.94.24.12-.07.25-.12.39-.14.14-.02.28,0,.41.03s.26.1.37.19c.11.09.2.2.27.33.07.13.12.27.14.41.02.15.01.3-.03.44-.04.14-.1.28-.18.39-.08.12-.19.21-.32.29-.64.47-1.43.69-2.21.62-.78-.08-1.51-.44-2.07-1.03-.74-.6-1-.82-1.95-.24-1.22.94-2.16,2.24-2.71,3.73-.72,1.87-1.94,3.46-3.52,4.59-.65.48-1.43.7-2.22.62-.79-.08-1.52-.44-2.08-1.03-.72-.6-.99-.82-1.94-.24-1.23.94-2.17,2.24-2.71,3.73-.71,1.88-1.94,3.48-3.52,4.61-.6.35-1.27.54-1.95.54Z"/>
  </g>
  <path class="cls-7" d="M270.33,306.38c-.87-.05-1.69-.42-2.32-1.04-.72-.6-1-.82-1.94-.24-.24.14-.53.18-.8.11-.27-.08-.5-.26-.64-.52-.07-.13-.12-.27-.14-.41-.02-.15-.01-.3.03-.44s.1-.28.18-.39.19-.21.32-.29c.65-.48,1.43-.7,2.22-.63.79.07,1.52.44,2.08,1.04.72.6.99.82,1.93.24,1.22-.94,2.16-2.24,2.69-3.73.72-1.87,1.95-3.47,3.52-4.61.65-.48,1.43-.7,2.22-.62.79.08,1.52.45,2.07,1.05.72.6,1,.82,1.93.24,1.23-.94,2.17-2.23,2.71-3.73.72-1.87,1.94-3.48,3.52-4.61.65-.48,1.43-.7,2.22-.62.79.08,1.52.45,2.07,1.05.74.6,1,.82,1.95.24.11-.12.25-.21.4-.26.15-.05.31-.07.47-.05.16.02.31.08.45.17.13.09.25.22.33.36.08.15.13.31.15.48.01.17,0,.34-.07.5-.06.16-.15.3-.26.42-.12.12-.26.2-.41.25-.64.49-1.43.71-2.22.64-.79-.08-1.52-.45-2.08-1.05-.72-.6-1-.82-1.95-.24-1.22.94-2.15,2.24-2.69,3.73-.72,1.86-1.95,3.46-3.52,4.59-.64.48-1.43.71-2.21.63-.78-.08-1.52-.44-2.07-1.04-.74-.6-1-.82-1.95-.24-1.22.94-2.16,2.24-2.69,3.73-.72,1.86-1.95,3.46-3.52,4.59-.59.42-1.28.67-1.99.71Z"/>
  <g class="cls-20">
    <path class="cls-11" d="M270.33,306.38c-.87-.05-1.69-.42-2.32-1.04-.72-.6-1-.82-1.94-.24-.24.14-.53.18-.8.11-.27-.08-.5-.26-.64-.52-.07-.13-.12-.27-.14-.41-.02-.15-.01-.3.03-.44s.1-.28.18-.39.19-.21.32-.29c.65-.48,1.43-.7,2.22-.63.79.07,1.52.44,2.08,1.04.72.6.99.82,1.93.24,1.22-.94,2.16-2.24,2.69-3.73.72-1.87,1.95-3.47,3.52-4.61.65-.48,1.43-.7,2.22-.62.79.08,1.52.45,2.07,1.05.72.6,1,.82,1.93.24,1.23-.94,2.17-2.23,2.71-3.73.72-1.87,1.94-3.48,3.52-4.61.65-.48,1.43-.7,2.22-.62.79.08,1.52.45,2.07,1.05.74.6,1,.82,1.95.24.11-.12.25-.21.4-.26.15-.05.31-.07.47-.05.16.02.31.08.45.17.13.09.25.22.33.36.08.15.13.31.15.48.01.17,0,.34-.07.5-.06.16-.15.3-.26.42-.12.12-.26.2-.41.25-.64.49-1.43.71-2.22.64-.79-.08-1.52-.45-2.08-1.05-.72-.6-1-.82-1.95-.24-1.22.94-2.15,2.24-2.69,3.73-.72,1.86-1.95,3.46-3.52,4.59-.64.48-1.43.71-2.21.63-.78-.08-1.52-.44-2.07-1.04-.74-.6-1-.82-1.95-.24-1.22.94-2.16,2.24-2.69,3.73-.72,1.86-1.95,3.46-3.52,4.59-.59.42-1.28.67-1.99.71Z"/>
  </g>
  <path class="cls-7" d="M219.26,336.73c-.65.48-1.43.7-2.22.62-.79-.08-1.52-.45-2.07-1.05-.74-.58-.99-.8-1.94-.22-1.22.95-2.17,2.24-2.73,3.73-.72,1.87-1.94,3.47-3.52,4.61-.65.47-1.43.68-2.22.61-.78-.08-1.52-.45-2.07-1.04-.74-.6-.99-.82-1.95-.24-1.22.95-2.15,2.24-2.71,3.73-.52,1.21-1.21,2.34-2.04,3.34v-3.99l.18-.37c.72-1.86,1.95-3.46,3.52-4.59.64-.49,1.43-.71,2.22-.64.79.07,1.52.45,2.07,1.05.72.6,1,.84,1.93.24,1.23-.93,2.18-2.23,2.71-3.73.72-1.87,1.94-3.48,3.52-4.61.65-.48,1.44-.7,2.23-.62.79.08,1.53.45,2.08,1.05.7.58.99.8,1.94.22.24-.14.52-.18.79-.1.27.08.49.26.63.51.14.25.18.54.11.82-.07.28-.23.52-.46.67Z"/>
  <g class="cls-20">
    <path class="cls-11" d="M219.26,336.73c-.65.48-1.43.7-2.22.62-.79-.08-1.52-.45-2.07-1.05-.74-.58-.99-.8-1.94-.22-1.22.95-2.17,2.24-2.73,3.73-.72,1.87-1.94,3.47-3.52,4.61-.65.47-1.43.68-2.22.61-.78-.08-1.52-.45-2.07-1.04-.74-.6-.99-.82-1.95-.24-1.22.95-2.15,2.24-2.71,3.73-.52,1.21-1.21,2.34-2.04,3.34v-3.99l.18-.37c.72-1.86,1.95-3.46,3.52-4.59.64-.49,1.43-.71,2.22-.64.79.07,1.52.45,2.07,1.05.72.6,1,.84,1.93.24,1.23-.93,2.18-2.23,2.71-3.73.72-1.87,1.94-3.48,3.52-4.61.65-.48,1.44-.7,2.23-.62.79.08,1.53.45,2.08,1.05.7.58.99.8,1.94.22.24-.14.52-.18.79-.1.27.08.49.26.63.51.14.25.18.54.11.82-.07.28-.23.52-.46.67Z"/>
  </g>
  <path class="cls-7" d="M363.06,242.31v2.76c-.81.9-1.48,1.94-1.95,3.08-.73,1.86-1.95,3.46-3.52,4.61-.65.48-1.43.69-2.21.62-.78-.08-1.51-.45-2.06-1.04-.74-.58-1-.82-1.95-.24-1.22.94-2.16,2.24-2.71,3.73-.71,1.88-1.93,3.48-3.52,4.61-.58.39-1.26.61-1.95.63-.86-.05-1.69-.42-2.32-1.04-.72-.6-1-.84-1.95-.24-.23.07-.46.05-.68-.04-.22-.09-.4-.26-.52-.47-.12-.21-.17-.46-.14-.71.03-.25.13-.47.3-.65.65-.47,1.43-.68,2.21-.6.78.08,1.51.44,2.07,1.03.72.62,1,.82,1.95.24,1.22-.94,2.16-2.24,2.69-3.73.73-1.86,1.96-3.45,3.52-4.59.65-.47,1.43-.69,2.22-.62s1.52.44,2.08,1.03c.72.6,1,.84,1.93.26,1.22-.94,2.16-2.24,2.71-3.73.72-1.87,1.94-3.47,3.52-4.61l.3-.28Z"/>
  <g class="cls-20">
    <path class="cls-11" d="M363.06,242.31v2.76c-.81.9-1.48,1.94-1.95,3.08-.73,1.86-1.95,3.46-3.52,4.61-.65.48-1.43.69-2.21.62-.78-.08-1.51-.45-2.06-1.04-.74-.58-1-.82-1.95-.24-1.22.94-2.16,2.24-2.71,3.73-.71,1.88-1.93,3.48-3.52,4.61-.58.39-1.26.61-1.95.63-.86-.05-1.69-.42-2.32-1.04-.72-.6-1-.84-1.95-.24-.23.07-.46.05-.68-.04-.22-.09-.4-.26-.52-.47-.12-.21-.17-.46-.14-.71.03-.25.13-.47.3-.65.65-.47,1.43-.68,2.21-.6.78.08,1.51.44,2.07,1.03.72.62,1,.82,1.95.24,1.22-.94,2.16-2.24,2.69-3.73.73-1.86,1.96-3.45,3.52-4.59.65-.47,1.43-.69,2.22-.62s1.52.44,2.08,1.03c.72.6,1,.84,1.93.26,1.22-.94,2.16-2.24,2.71-3.73.72-1.87,1.94-3.47,3.52-4.61l.3-.28Z"/>
  </g>
  <path class="cls-11" d="M233.54,265.69l-4.33,2.61v-2.29c-.16-2.15-1.76-2.97-3.52-1.87-.85.55-1.57,1.29-2.13,2.16-.42-2.91-2.67-3.97-5.38-2.31-1.59,1.1-2.92,2.59-3.87,4.33-.95,1.75-1.5,3.71-1.6,5.72v3.47c0,.28-.07.55-.2.79-.13.24-.32.44-.54.58l-2.55,1.58c-.54.35-.99.85-1.29,1.43-.31.59-.47,1.25-.46,1.92,0,.28.07.56.21.8.13.24.32.44.55.58.23.14.49.21.76.21.26,0,.53-.08.75-.21l23.65-14.48c.62-.38,1.13-.92,1.49-1.58.36-.65.56-1.4.57-2.15.03-.27-.02-.54-.14-.78-.12-.24-.29-.44-.51-.58-.22-.14-.47-.21-.73-.19-.26,0-.5.1-.71.25Z"/>
  <path class="cls-11" d="M339.33,205.12l-4.33,2.61v-2.33c-.16-2.16-1.76-2.98-3.52-1.87-.85.54-1.58,1.28-2.13,2.16-.42-2.93-2.68-3.97-5.4-2.31-1.59,1.1-2.91,2.58-3.86,4.33-.95,1.74-1.49,3.7-1.6,5.71v3.49c0,.27-.07.54-.2.78-.13.24-.32.44-.54.58l-2.55,1.57c-.54.35-.99.84-1.3,1.43-.31.59-.47,1.25-.46,1.92,0,.28.07.56.2.81.13.24.32.45.55.59.23.14.49.22.76.22.27,0,.53-.07.76-.22l23.65-14.49c.62-.38,1.13-.92,1.49-1.58.36-.65.55-1.4.57-2.15.01-.27-.04-.53-.16-.76s-.3-.43-.52-.55c-.22-.13-.47-.19-.72-.18-.25.01-.49.1-.7.25Z"/>
  <path class="cls-11" d="M242.2,283.28l-2.97,1.87v-1.59c-.11-1.47-1.16-2.05-2.45-1.27-.59.38-1.09.89-1.48,1.49-.28-2-1.76-2.72-3.69-1.59-1.09.76-2,1.78-2.65,2.98-.65,1.2-1.03,2.54-1.1,3.93v2.39c0,.19-.05.37-.14.54-.09.16-.22.3-.37.39l-1.76,1.08c-.38.24-.69.58-.91.98-.22.41-.33.87-.33,1.33,0,.19.05.38.14.55.09.17.22.3.38.4.16.1.33.15.51.15.18,0,.36-.05.52-.14l16.24-9.94c.43-.26.79-.65,1.04-1.1.25-.46.38-.98.38-1.51.01-.17-.02-.35-.09-.51-.07-.16-.18-.29-.32-.39-.14-.1-.3-.15-.47-.16-.17,0-.33.04-.48.12Z"/>
  <path class="cls-3" d="M196.29,402.82c-.18,0-.36-.04-.52-.14s-.29-.23-.38-.4c-.13-.25-.17-.55-.1-.83.07-.28.24-.52.47-.67l166.28-101.78c.24-.14.52-.18.78-.11s.49.25.63.5c.07.12.12.26.14.41.02.14.01.29-.02.43-.03.14-.1.27-.18.39-.08.12-.19.21-.3.29l-166.28,101.78c-.16.09-.33.13-.51.13Z"/>
  <path class="cls-3" d="M196.29,499.25c-.23,0-.45-.08-.63-.22-.18-.15-.31-.35-.37-.59-.06-.23-.05-.48.04-.71.09-.22.24-.41.44-.53l166.28-101.78c.24-.14.52-.18.78-.1.26.08.49.26.62.51.07.12.11.26.13.4.02.14.01.29-.02.43-.03.14-.09.27-.18.38-.08.11-.18.21-.3.28l-166.28,101.78c-.16.09-.33.14-.51.15Z"/>
  <path class="cls-5" d="M476.41,298.97c30.24,0,54.76-25.99,54.76-58.06s-24.52-58.05-54.76-58.05-54.76,25.99-54.76,58.05,24.52,58.06,54.76,58.06Z"/>
  <path class="cls-5" d="M438.95,270.35s5.95,28.62-15.17,28.62c0,0,24.86,11.45,33.85-12l-18.69-16.62Z"/>
  <path class="cls-11" d="M480.62,242.58c2.99-1.06,5.52-3.21,7.15-6.07,1.63-2.86,2.24-6.24,1.74-9.53-.51-3.29-2.1-6.29-4.5-8.46-2.4-2.16-5.45-3.35-8.6-3.35s-6.2,1.19-8.6,3.35c-2.4,2.16-3.99,5.16-4.5,8.46-.51,3.3.11,6.68,1.74,9.53,1.63,2.86,4.16,5.01,7.15,6.07-5.2,1.07-9.89,4.02-13.26,8.35-3.38,4.33-5.23,9.76-5.25,15.38v.34h45.54v-.34c-.02-5.63-1.89-11.08-5.29-15.41s-8.11-7.27-13.33-8.32Z"/>
  <path class="cls-5" d="M419.16,164.02c23.75,0,43-20.41,43-45.59s-19.25-45.59-43-45.59-43,20.41-43,45.59,19.25,45.59,43,45.59Z"/>
  <path class="cls-5" d="M389.76,141.54s4.66,22.39-11.98,22.39c0,0,19.51,8.99,26.57-9.33l-14.59-13.06Z"/>
  <path class="cls-11" d="M430.7,101.65c-3.06,0-6,1.29-8.16,3.58-2.16,2.29-3.38,5.41-3.38,8.65,0-3.25-1.22-6.36-3.38-8.65-2.17-2.29-5.1-3.58-8.16-3.58s-6,1.29-8.16,3.58-3.38,5.41-3.38,8.65c0,19.98,23.08,27.76,23.08,27.76,0,0,23.09-7.78,23.09-27.76,0-3.25-1.22-6.36-3.38-8.65-2.16-2.29-5.1-3.58-8.16-3.58Z"/>
  <path class="cls-5" d="M138.79,492.72c20.73-21.98,20.73-57.62,0-79.6-20.73-21.98-54.34-21.98-75.07,0-20.73,21.98-20.73,57.62,0,79.6,20.73,21.98,54.34,21.98,75.07,0Z"/>
  <path class="cls-5" d="M137.54,481.44s-5.75,27.76,14.8,27.76c0,0-24.11,11.08-32.82-11.64l18.02-16.12Z"/>
  <path class="cls-11" d="M121.57,432.86h-40.65c-1.85,0-3.63.77-4.95,2.15-1.32,1.38-2.07,3.25-2.09,5.22v25.37c0,1.98.74,3.88,2.06,5.28,1.32,1.4,3.11,2.18,4.98,2.18h14.9l5.74,13.58,5.28-13.58h14.64c1.87,0,3.66-.79,4.98-2.18,1.32-1.4,2.06-3.3,2.06-5.28v-25.37c-.02-1.95-.76-3.81-2.06-5.18-1.3-1.38-3.05-2.16-4.89-2.18ZM115.65,459.96h-29.03c-.49,0-.95-.2-1.29-.57-.34-.36-.54-.86-.54-1.37s.19-1.01.54-1.37c.34-.36.81-.57,1.29-.57h29.03c.49,0,.95.2,1.29.57.34.36.54.86.54,1.37s-.19,1.01-.54,1.37c-.34.36-.81.57-1.29.57ZM115.65,447.34h-29.03c-.24,0-.48-.05-.7-.15-.22-.1-.42-.24-.59-.42-.17-.18-.3-.39-.4-.63-.09-.24-.14-.49-.14-.74s.05-.51.14-.74c.09-.24.23-.45.4-.63.17-.18.37-.32.59-.42.22-.1.46-.15.7-.15h29.03c.49,0,.95.21,1.29.57.34.36.54.86.54,1.37s-.19,1.01-.54,1.37c-.34.36-.81.57-1.29.57Z"/>
</svg>