<?xml version="1.0" encoding="utf-8"?>
<!-- Generator: Adobe Illustrator 28.2.0, SVG Export Plug-In . SVG Version: 6.00 Build 0)  -->
<svg width="448" height="345" version="1.1" id="Layer_1" xmlns="http://www.w3.org/2000/svg" xmlns:xlink="http://www.w3.org/1999/xlink" x="0px" y="0px"
	 viewBox="0 0 448 345" style="enable-background:new 0 0 448 345;" xml:space="preserve">
<style type="text/css">
	.st0{fill:#EBEBEB;}
	.st1{fill:#DBDBDB;}
	.st2{fill:#FFFFFF;}
	.st3{fill:#263238;}
	.st4{fill:#C7C7C7;}
	.st5{fill:#37474F;}
	.st6{fill:#455A64;}
	.st7{fill:#024DDF;}
	.st8{fill:#A6A6A6;}
	.st9{opacity:0.1;enable-background:new    ;}
	.st10{opacity:0.1;}
	.st11{opacity:0.4;fill:#FFFFFF;enable-background:new    ;}
	.st12{opacity:0.2;}
	.st13{opacity:0.2;enable-background:new    ;}
	.st14{fill:#D3766A;}
	.st15{opacity:0.1;fill:#020100;enable-background:new    ;}
	.st16{fill:#FB4A04;}
	.st17{opacity:0.5;fill:#FFFFFF;}
</style>
<path class="st0" d="M430,45.6h-18v-9.2h18V45.6z"/>
<path class="st0" d="M419.9,24.7l-8.9-0.2l-4.5-0.1c-1.5,0-3,0-4.6,0h-0.3v0.4V34v0.4h0.3l9,0c3,0,6-0.1,9-0.1h0.2V34
	c0-1.6-0.1-3.1-0.1-4.7L419.9,24.7z M419.9,24.7l-0.1,4.7c0,1.5-0.1,3.1-0.1,4.6l0.2-0.2c-3,0-6-0.1-9-0.1l-9,0l0.3,0.4l0-9.2
	l-0.3,0.4c1.5,0,3,0,4.5,0l4.5-0.1L419.9,24.7z"/>
<path class="st0" d="M440,24.7l-8.9-0.2l-4.5-0.1c-1.5,0-3,0-4.6,0h-0.3v0.4l0,9.2v0.4h0.3l9,0c3,0,6-0.1,9-0.1h0.2V34
	c0-1.6-0.1-3.1-0.1-4.7L440,24.7z M440,24.7l-0.1,4.7c0,1.5-0.1,3.1-0.1,4.6l0.2-0.2c-3,0-6-0.1-9-0.1l-9,0l0.3,0.4v-9.2l-0.3,0.4
	c1.5,0,3,0,4.5,0L431,25L440,24.7z"/>
<path class="st0" d="M54.8,211.6l-8.9-0.2l-4.5-0.1c-1.5,0-3,0-4.6-0.1h-0.3v0.4l0,9.2v0.4h0.3l9,0c3,0,6-0.1,9-0.1H55v-0.2
	c0-1.6-0.1-3.1-0.1-4.7L54.8,211.6z M54.8,211.6l-0.1,4.7c0,1.5-0.1,3.1-0.1,4.6l0.2-0.2c-3,0-6-0.1-9-0.1l-9,0l0.3,0.4v-9.2
	l-0.3,0.4c1.5,0,3,0,4.5,0l4.5-0.1L54.8,211.6z"/>
<path class="st0" d="M44.8,209.2h-18v-9.2h18V209.2z"/>
<path class="st0" d="M64.9,199.9l-8.9-0.2l-4.5-0.1c-1.5,0-3,0-4.6,0h-0.3v0.4l0,9.2v0.4h0.3l9-0.1c3,0,6-0.1,9-0.1h0.2v-0.2
	c0-1.6-0.1-3.1-0.1-4.7L64.9,199.9z M64.9,199.9l-0.1,4.7c0,1.5-0.1,3.1-0.1,4.6l0.2-0.2c-3,0-6-0.1-9-0.1l-9-0.1l0.3,0.4v-9.2
	l-0.3,0.4c1.5,0,3,0,4.5,0l4.5-0.1L64.9,199.9z"/>
<path class="st0" d="M34.2,33.1l-8.9-0.2l-4.5-0.1c-1.5,0-3,0-4.6,0h-0.3v0.4l0,9.2v0.4h0.3l9-0.1c3,0,6-0.1,9-0.1h0.2v-0.2
	c0-1.6-0.1-3.1-0.1-4.7L34.2,33.1z M34.2,33.1l-0.1,4.7c0,1.5-0.1,3.1-0.1,4.6l0.2-0.2c-3,0-6-0.1-9-0.1l-9,0l0.3,0.4l0-9.2
	l-0.3,0.4c1.5,0,3,0,4.5,0l4.5-0.1L34.2,33.1z"/>
<path class="st0" d="M311.1,146.3l-8.9-0.2l-4.5-0.1c-1.5,0-3,0-4.6,0h-0.3v0.4l0,9.2v0.4h0.3l9,0c3,0,6-0.1,9-0.1h0.2v-0.2
	c0-1.6-0.1-3.1-0.1-4.7L311.1,146.3z M311.1,146.3l-0.1,4.7c0,1.5-0.1,3.1-0.1,4.6l0.2-0.2c-3,0-6-0.1-9-0.1l-9,0l0.3,0.4l0-9.2
	l-0.3,0.4c1.5,0,3,0,4.5,0l4.5-0.1L311.1,146.3z"/>
<path class="st0" d="M428.9,309.2l-8.9-0.2l-4.5-0.1c-1.5,0-3,0-4.6,0h-0.3v0.4v9.2v0.4h0.3l9,0c3,0,6-0.1,9-0.1h0.2v-0.3
	c0-1.6-0.1-3.1-0.1-4.7L428.9,309.2z M428.9,309.2l-0.1,4.7c0,1.5-0.1,3.1-0.1,4.6l0.2-0.2c-3,0-6-0.1-9-0.1l-9-0.1l0.3,0.4v-9.2
	l-0.3,0.4c1.5,0,3,0,4.5,0l4.5-0.1L428.9,309.2z"/>
<path class="st0" d="M439,306.7h-18v-9.2h18V306.7z"/>
<path class="st0" d="M26,318.4H8v-9.2h18V318.4z"/>
<path class="st1" d="M104.7,313.1l-71.8,18.3l-7.8-60.8l71.8-18.3L104.7,313.1z"/>
<path class="st1" d="M49.7,257.9l-25.4,6.5l0.8,6.3l26.8-6.8L49.7,257.9z"/>
<path class="st0" d="M104.6,313.1l-71.8,18.3l-15.4-55.2L89.3,258L104.6,313.1z"/>
<path class="st0" d="M41.3,264.1l-25.4,6.5l1.6,5.7l26.8-6.8L41.3,264.1z"/>
<path class="st2" d="M24.4,191.4l49.3-23.1L49.2,91.7l-36.6,17.2l-8,20.6L24.4,191.4z"/>
<path class="st1" d="M24.5,191.7l1.3-0.6l-0.2-0.6l-1.3,0.6L24.5,191.7z M23.9,190.8l0.5-0.2l-0.5-1.5l-0.5,0.2L23.9,190.8z
	 M27,190.5l1.3-0.6l-0.2-0.6l-1.3,0.6L27,190.5z M29.5,189.3l1.3-0.6l-0.2-0.6l-1.3,0.6L29.5,189.3z M32.1,188.1l1.3-0.6l-0.2-0.6
	l-1.3,0.6L32.1,188.1z M22.9,187.7l0.5-0.2l-0.5-1.5l-0.5,0.2L22.9,187.7z M34.6,186.9l1.3-0.6l-0.2-0.6l-1.3,0.6L34.6,186.9z
	 M37.2,185.7l1.3-0.6l-0.2-0.6l-1.3,0.6L37.2,185.7z M21.9,184.6l0.5-0.2l-0.5-1.5l-0.5,0.2L21.9,184.6z M39.7,184.6l1.3-0.6
	l-0.2-0.6l-1.3,0.6L39.7,184.6z M42.3,183.4l1.3-0.6l-0.2-0.6l-1.3,0.6L42.3,183.4z M44.8,182.2l1.3-0.6l-0.2-0.6l-1.3,0.6
	L44.8,182.2z M21,181.6l0.5-0.2l-0.5-1.5l-0.5,0.2L21,181.6z M47.3,181l1.3-0.6l-0.2-0.6l-1.3,0.6L47.3,181z M49.9,179.8l1.3-0.6
	l-0.2-0.6l-1.3,0.6L49.9,179.8z M52.4,178.6l1.3-0.6l-0.2-0.6l-1.3,0.6L52.4,178.6z M20,178.5l0.5-0.2l-0.5-1.5l-0.5,0.2L20,178.5z
	 M55,177.4l1.3-0.6l-0.2-0.6l-1.3,0.6L55,177.4z M57.5,176.2l1.3-0.6l-0.2-0.6l-1.3,0.6L57.5,176.2z M19,175.4l0.5-0.2l-0.5-1.5
	l-0.5,0.2L19,175.4z M60,175l1.3-0.6l-0.2-0.6l-1.3,0.6L60,175z M62.6,173.8l1.3-0.6l-0.2-0.6l-1.3,0.6L62.6,173.8z M65.1,172.6
	l1.3-0.6l-0.2-0.6l-1.3,0.6L65.1,172.6z M18,172.3l0.5-0.2l-0.5-1.5l-0.5,0.2L18,172.3z M67.7,171.5l1.3-0.6l-0.2-0.6l-1.3,0.6
	L67.7,171.5z M70.2,170.3l1.3-0.6l-0.2-0.6l-1.3,0.6L70.2,170.3z M17,169.3l0.5-0.2l-0.5-1.5l-0.5,0.2L17,169.3z M72.7,169.1
	l1.2-0.6l-0.2-0.6l-0.5,0.2l-0.8,0.4L72.7,169.1z M72.8,166.6l0.5-0.2l-0.5-1.5l-0.5,0.2L72.8,166.6z M16,166.2l0.5-0.2l-0.5-1.5
	l-0.5,0.2L16,166.2z M71.8,163.5l0.5-0.2l-0.5-1.5l-0.5,0.2L71.8,163.5z M15,163.1l0.5-0.2l-0.5-1.5l-0.5,0.2L15,163.1z M70.9,160.5
	l0.5-0.2l-0.5-1.5l-0.5,0.2L70.9,160.5z M14.1,160.1l0.5-0.2l-0.5-1.5l-0.5,0.2L14.1,160.1z M69.9,157.4l0.5-0.2l-0.5-1.5l-0.5,0.2
	L69.9,157.4z M13.1,157l0.5-0.2l-0.5-1.5l-0.5,0.2L13.1,157z M68.9,154.3l0.5-0.2l-0.5-1.5l-0.5,0.2L68.9,154.3z M12.1,153.9
	l0.5-0.2l-0.5-1.5l-0.5,0.2L12.1,153.9z M67.9,151.2l0.5-0.2l-0.5-1.5l-0.5,0.2L67.9,151.2z M11.1,150.8l0.5-0.2l-0.5-1.5l-0.5,0.2
	L11.1,150.8z M66.9,148.1l0.5-0.2l-0.5-1.5l-0.5,0.2L66.9,148.1z M10.1,147.8l0.5-0.2l-0.5-1.6l-0.5,0.2L10.1,147.8z M65.9,145.1
	l0.5-0.2l-0.5-1.5l-0.5,0.2L65.9,145.1z M9.1,144.7l0.5-0.2l-0.5-1.5l-0.5,0.2L9.1,144.7z M65,142l0.5-0.2l-0.5-1.5l-0.5,0.2L65,142
	z M8.2,141.6l0.5-0.2l-0.5-1.5l-0.5,0.2L8.2,141.6z M64,138.9l0.5-0.2l-0.5-1.5l-0.5,0.2L64,138.9z M7.2,138.5l0.5-0.2l-0.5-1.5
	L6.7,137L7.2,138.5z M63,135.8l0.5-0.2l-0.5-1.5l-0.5,0.2L63,135.8z M6.2,135.4l0.5-0.2l-0.5-1.5l-0.5,0.2L6.2,135.4z M62,132.7
	l0.5-0.2l-0.5-1.5l-0.5,0.2L62,132.7z M5.2,132.3l0.5-0.2l-0.5-1.5l-0.5,0.2L5.2,132.3z M61,129.6l0.5-0.2l-0.5-1.5l-0.5,0.2
	L61,129.6z M4.9,129.2l0.6-1.5L5,127.5L4.4,129L4.9,129.2z M60.1,126.5l0.5-0.2l-0.5-1.5l-0.5,0.2L60.1,126.5z M6.1,126.3l0.6-1.5
	l-0.5-0.3L5.6,126L6.1,126.3z M59.1,123.5l0.5-0.2l-0.5-1.5l-0.5,0.2L59.1,123.5z M7.2,123.3l0.6-1.5l-0.5-0.3L6.8,123L7.2,123.3z
	 M58.1,120.4l0.5-0.2l-0.5-1.5l-0.5,0.2L58.1,120.4z M8.4,120.3l0.6-1.5l-0.5-0.3L7.9,120L8.4,120.3z M9.5,117.3l0.6-1.5l-0.5-0.3
	l-0.6,1.5L9.5,117.3z M57.1,117.3l0.5-0.2l-0.5-1.5l-0.5,0.2L57.1,117.3z M10.7,114.3l0.6-1.5l-0.5-0.3l-0.6,1.5L10.7,114.3z
	 M56.1,114.2l0.5-0.2l-0.5-1.5l-0.5,0.2L56.1,114.2z M11.9,111.4l0.6-1.5l-0.5-0.3l-0.6,1.5L11.9,111.4z M55.1,111.2l0.5-0.2
	l-0.5-1.5l-0.5,0.2L55.1,111.2z M13.1,108.9l1.3-0.6l-0.2-0.6l-1.3,0.6L13.1,108.9z M54.1,108.1l0.5-0.2l-0.5-1.5l-0.5,0.2
	L54.1,108.1z M15.7,107.7l1.3-0.6l-0.2-0.6l-1.3,0.6L15.7,107.7z M18.2,106.5l1.3-0.6l-0.2-0.6l-1.3,0.6L18.2,106.5z M20.8,105.3
	l1.3-0.6l-0.2-0.6l-1.3,0.6L20.8,105.3z M53.1,105l0.5-0.2l-0.5-1.5l-0.5,0.2L53.1,105z M23.3,104.1l1.3-0.6l-0.2-0.6l-1.3,0.6
	L23.3,104.1z M25.9,102.9l1.3-0.6l-0.2-0.6l-1.3,0.6L25.9,102.9z M52.2,101.9l0.5-0.2l-0.5-1.5l-0.5,0.2L52.2,101.9z M28.4,101.7
	l1.3-0.6l-0.2-0.6l-1.3,0.6L28.4,101.7z M30.9,100.5l1.3-0.6L32,99.3l-1.3,0.6L30.9,100.5z M33.5,99.3l1.3-0.6l-0.2-0.6l-1.3,0.6
	L33.5,99.3z M51.2,98.8l0.5-0.2L51.2,97l-0.5,0.2L51.2,98.8z M36,98.1l1.3-0.6l-0.2-0.6l-1.3,0.6L36,98.1z M38.6,96.9l1.3-0.6
	l-0.2-0.6l-1.3,0.6L38.6,96.9z M41.1,95.7l1.3-0.6l-0.2-0.6l-1.3,0.6L41.1,95.7z M50.2,95.7l0.5-0.2L50.2,94l-0.5,0.2L50.2,95.7z
	 M43.7,94.5l1.3-0.6l-0.2-0.6L43.5,94L43.7,94.5z M46.2,93.4l1.3-0.6l-0.2-0.6L46,92.8L46.2,93.4z M49.2,92.7l0.5-0.2l-0.4-1.2
	l-0.8,0.4l0.2,0.6l0.3-0.1L49.2,92.7z"/>
<path class="st1" d="M12.6,108.8l-8,20.6l12.7-6L12.6,108.8z"/>
<path class="st0" d="M433.9,160.9l-72.4-16.2l9.5-57.6l72.4,16.2L433.9,160.9z"/>
<path class="st2" d="M431.5,156.7l-66.4-14.8l8.3-50.4l66.4,14.8L431.5,156.7z"/>
<path class="st1" d="M431.3,120.6c-0.4,2.3-1.5,4.3-3.1,5.6s-3.6,1.8-5.5,1.4c-0.9-0.2-1.8-0.6-2.6-1.2c-0.8-0.6-1.5-1.4-2-2.4
	c-0.5-1-0.9-2-1.1-3.2c-0.2-1.1-0.2-2.3,0-3.4c0.4-2.3,1.5-4.3,3.1-5.6c1.6-1.3,3.6-1.8,5.5-1.4c0.9,0.2,1.8,0.6,2.6,1.2
	c0.8,0.6,1.5,1.4,2,2.4c0.5,1,0.9,2,1.1,3.2C431.4,118.3,431.4,119.5,431.3,120.6z"/>
<path class="st0" d="M410.9,152.2l-45.7-10.2l28.9-31.8L410.9,152.2z"/>
<path class="st1" d="M428.8,156.2l-37.7-8.4l22.8-19.8L428.8,156.2z"/>
<path class="st0" d="M419.8,214l-55.7,8.1l-3.8-44.5l55.7-8.1L419.8,214z"/>
<path class="st2" d="M417.2,211.6l-51.1,7.4l-3.4-39l51.1-7.4L417.2,211.6z"/>
<path class="st1" d="M410.3,185.4c0.1,1.8-0.3,3.6-1.2,4.9s-2.3,2.3-3.7,2.5c-0.7,0.1-1.5,0.1-2.2-0.2c-0.7-0.2-1.4-0.6-1.9-1.2
	c-0.6-0.5-1-1.2-1.4-2c-0.4-0.8-0.6-1.6-0.7-2.5c-0.1-1.8,0.3-3.6,1.2-4.9c0.9-1.4,2.3-2.3,3.7-2.5c0.7-0.1,1.5-0.1,2.2,0.2
	c0.7,0.2,1.4,0.6,1.9,1.2c0.6,0.5,1,1.2,1.4,2C410,183.7,410.2,184.6,410.3,185.4z"/>
<path class="st0" d="M401.4,213.9l-35.2,5.1l15.1-31L401.4,213.9z"/>
<path class="st1" d="M415.2,212l-29,4.2l12.9-20.6L415.2,212z"/>
<path class="st3" d="M448,344l-56-0.2l-56-0.1l-112-0.1l-112,0.1l-56,0.1L0,344l56,0.2l56,0.1l112,0.1l112-0.1l56-0.1L448,344z"/>
<path class="st4" d="M159.3,331.3h129.4v13.1H159.3V331.3z"/>
<path class="st1" d="M174.7,331.3h98.6l-2.5-22.7l-0.1-1.1l-0.2-2.1l-0.1-1.1l-0.2-2.1l0-0.3l-0.1-0.7l-0.2-2.1l-0.1-1.1l-1.8-15.9
	h-87.7l-1.7,15l-0.1,0.7l-0.3,2.5l-0.1,0.7l-0.1,0.9l-0.2,1.6l-0.1,0.7l-0.3,2.5l-0.1,0.7L174.7,331.3z"/>
<path class="st4" d="M178,301.8l91.6-3.9l-1.8-15.9h-87.7L178,301.8z"/>
<path class="st3" d="M58,16.7h332v273.5H58V16.7z"/>
<path class="st1" d="M58,249.9h332v40.3H58V249.9z"/>
<path class="st5" d="M218.6,267.3c0,1.3,0.3,2.6,0.9,3.7c0.6,1.1,1.5,2,2.5,2.5c1,0.5,2.1,0.6,3.2,0.4c1.1-0.3,2-0.9,2.8-1.8
	c0.8-0.9,1.3-2.1,1.5-3.4s0.1-2.6-0.3-3.9c-0.4-1.2-1.1-2.3-2-3s-2-1.1-3.1-1.1c-1.5,0-2.9,0.7-3.9,2
	C219.2,263.9,218.6,265.6,218.6,267.3z"/>
<path class="st2" d="M73.3,34.5h301.4v196.4H73.3V34.5z"/>
<path class="st2" d="M73.3,34.5h301.4v196.4H73.3V34.5z"/>
<path class="st6" d="M73.3,34.5h301.4v8.9H73.3V34.5z"/>
<path class="st4" d="M369.3,38.9c0,0.3,0.1,0.6,0.2,0.8s0.3,0.4,0.6,0.5c0.2,0.1,0.5,0.1,0.7,0.1c0.2-0.1,0.5-0.2,0.6-0.4
	c0.2-0.2,0.3-0.5,0.3-0.8s0-0.6-0.1-0.9c-0.1-0.3-0.3-0.5-0.5-0.7c-0.2-0.2-0.4-0.3-0.7-0.3c-0.3,0-0.6,0.2-0.9,0.4
	C369.4,38.2,369.3,38.5,369.3,38.9z"/>
<path class="st2" d="M364.2,38.9c0,0.3,0.1,0.6,0.2,0.8c0.1,0.2,0.3,0.4,0.6,0.6c0.2,0.1,0.5,0.1,0.7,0.1c0.2-0.1,0.5-0.2,0.6-0.4
	c0.2-0.2,0.3-0.5,0.3-0.8c0-0.3,0-0.6-0.1-0.9c-0.1-0.3-0.3-0.5-0.5-0.7c-0.2-0.2-0.4-0.3-0.7-0.3c-0.3,0-0.6,0.2-0.9,0.4
	C364.4,38.2,364.2,38.5,364.2,38.9z"/>
<path class="st7" d="M359.2,38.9c0,0.3,0.1,0.6,0.2,0.8s0.3,0.4,0.6,0.5c0.2,0.1,0.5,0.1,0.7,0.1c0.2-0.1,0.5-0.2,0.6-0.4
	c0.2-0.2,0.3-0.5,0.3-0.8s0-0.6-0.1-0.9c-0.1-0.3-0.3-0.5-0.5-0.7c-0.2-0.2-0.4-0.3-0.7-0.3c-0.2,0-0.3,0-0.5,0.1
	c-0.2,0.1-0.3,0.2-0.4,0.3c-0.1,0.1-0.2,0.3-0.3,0.5C359.2,38.6,359.2,38.8,359.2,38.9z"/>
<path class="st0" d="M88,52.2h132.9v77.2H88V52.2z"/>
<path class="st1" d="M73.3,43.4h5.3v187.5h-5.3V43.4z"/>
<path class="st8" d="M76,120.4c0.4,0,0.7-0.2,1-0.5c0.3-0.3,0.4-0.7,0.4-1.2V46.4c0-0.4-0.1-0.9-0.4-1.2c-0.3-0.3-0.6-0.5-1-0.5
	c-0.4,0-0.7,0.2-1,0.5c-0.3,0.3-0.4,0.7-0.4,1.2v72.4c0,0.2,0,0.4,0.1,0.6c0.1,0.2,0.2,0.4,0.3,0.5c0.1,0.2,0.3,0.3,0.4,0.4
	C75.6,120.3,75.8,120.4,76,120.4z"/>
<path class="st7" d="M303.3,43.4h71.4v187.5h-71.4V43.4z"/>
<path class="st2" d="M308,52.2h55.4v9.2H308V52.2z"/>
<path class="st2" d="M366.3,56.8c0,0.5,0.1,0.9,0.3,1.3c0.2,0.4,0.5,0.7,0.9,0.8c0.3,0.2,0.7,0.2,1.1,0.1c0.4-0.1,0.7-0.3,1-0.6
	c0.3-0.3,0.4-0.7,0.5-1.2c0.1-0.4,0-0.9-0.1-1.3s-0.4-0.8-0.7-1c-0.3-0.3-0.7-0.4-1.1-0.4c-0.2,0-0.5,0.1-0.7,0.2s-0.4,0.3-0.6,0.5
	c-0.2,0.2-0.3,0.5-0.4,0.7C366.3,56.2,366.3,56.5,366.3,56.8z"/>
<path class="st9" d="M308,68h55.4v9.2H308V68z"/>
<path class="st9" d="M368.2,75.1c0.4,0,0.8-0.1,1.1-0.4c0.3-0.3,0.6-0.7,0.8-1.1c0.2-0.5,0.2-1,0.1-1.4c-0.1-0.5-0.3-0.9-0.6-1.3
	c-0.3-0.3-0.6-0.6-1-0.7c-0.4-0.1-0.8,0-1.2,0.1c-0.4,0.2-0.7,0.5-0.9,0.9c-0.2,0.4-0.3,0.9-0.3,1.4c0,0.7,0.2,1.3,0.6,1.8
	C367.1,74.8,367.6,75.1,368.2,75.1z M368.2,70.5c0.3,0,0.7,0.1,1,0.3c0.3,0.2,0.5,0.6,0.6,0.9c0.1,0.4,0.2,0.8,0.1,1.2
	c-0.1,0.4-0.2,0.8-0.5,1.1s-0.6,0.5-0.9,0.6c-0.3,0.1-0.7,0-1-0.1c-0.3-0.2-0.6-0.4-0.8-0.8c-0.2-0.3-0.3-0.8-0.3-1.2
	c0-0.6,0.2-1.1,0.5-1.5C367.3,70.7,367.7,70.5,368.2,70.5z"/>
<path class="st9" d="M367,72.6c0,0.3,0.1,0.5,0.2,0.8c0.1,0.2,0.3,0.4,0.5,0.5c0.2,0.1,0.4,0.1,0.7,0.1c0.2-0.1,0.4-0.2,0.6-0.4
	c0.2-0.2,0.3-0.4,0.3-0.7c0-0.3,0-0.6-0.1-0.8c-0.1-0.3-0.2-0.5-0.4-0.6c-0.2-0.2-0.4-0.2-0.6-0.2c-0.3,0-0.6,0.1-0.8,0.4
	C367.1,71.9,367,72.2,367,72.6z"/>
<path class="st2" d="M308,83.7h55.4v9.2H308V83.7z"/>
<path class="st2" d="M366.3,88.3c0,0.5,0.1,0.9,0.3,1.3c0.2,0.4,0.5,0.7,0.9,0.8c0.3,0.2,0.7,0.2,1.1,0.1c0.4-0.1,0.7-0.3,1-0.6
	c0.3-0.3,0.4-0.7,0.5-1.2c0.1-0.4,0-0.9-0.1-1.3s-0.4-0.8-0.7-1s-0.7-0.4-1.1-0.4c-0.5,0-1,0.2-1.3,0.7
	C366.5,87.1,366.3,87.7,366.3,88.3z"/>
<path class="st9" d="M308,99.4h55.4v9.2H308V99.4z"/>
<path class="st9" d="M368.2,106.5c0.4,0,0.8-0.1,1.1-0.4c0.3-0.3,0.6-0.7,0.8-1.1c0.2-0.5,0.2-0.9,0.1-1.4c-0.1-0.5-0.3-0.9-0.6-1.3
	c-0.3-0.3-0.6-0.6-1-0.7c-0.4-0.1-0.8,0-1.2,0.1c-0.4,0.2-0.7,0.5-0.9,0.9c-0.2,0.4-0.3,0.9-0.3,1.4c0,0.7,0.2,1.3,0.6,1.8
	C367.1,106.3,367.6,106.5,368.2,106.5z M368.2,101.9c0.3,0,0.7,0.1,1,0.3c0.3,0.2,0.5,0.6,0.6,0.9c0.1,0.4,0.2,0.8,0.1,1.2
	c-0.1,0.4-0.2,0.8-0.5,1.1c-0.2,0.3-0.5,0.5-0.9,0.6c-0.3,0.1-0.7,0-1-0.1c-0.3-0.2-0.6-0.4-0.8-0.8c-0.2-0.3-0.3-0.8-0.3-1.2
	c0-0.6,0.2-1.1,0.5-1.5S367.7,102,368.2,101.9z"/>
<path class="st9" d="M367,104c0,0.3,0.1,0.5,0.2,0.8c0.1,0.2,0.3,0.4,0.5,0.5c0.2,0.1,0.4,0.1,0.7,0.1c0.2-0.1,0.4-0.2,0.6-0.4
	c0.2-0.2,0.3-0.4,0.3-0.7c0-0.3,0-0.6-0.1-0.8c-0.1-0.3-0.2-0.5-0.4-0.6c-0.2-0.2-0.4-0.2-0.6-0.2c-0.3,0-0.6,0.2-0.8,0.4
	C367.1,103.3,367,103.7,367,104z"/>
<path class="st2" d="M308,115.2h55.4v9.2H308V115.2z"/>
<path class="st2" d="M366.3,119.8c0,0.5,0.1,0.9,0.3,1.3s0.5,0.7,0.9,0.9c0.3,0.2,0.7,0.2,1.1,0.1c0.4-0.1,0.7-0.3,1-0.6
	c0.3-0.3,0.4-0.7,0.5-1.2c0.1-0.4,0-0.9-0.1-1.3c-0.1-0.4-0.4-0.8-0.7-1c-0.3-0.3-0.7-0.4-1.1-0.4c-0.5,0-1,0.2-1.3,0.7
	C366.5,118.6,366.3,119.2,366.3,119.8z"/>
<path class="st2" d="M308,130.9h55.4v9.2H308V130.9z"/>
<path class="st2" d="M366.3,135.5c0,0.5,0.1,0.9,0.3,1.3c0.2,0.4,0.5,0.7,0.9,0.8c0.3,0.2,0.7,0.2,1.1,0.1c0.4-0.1,0.7-0.3,1-0.6
	c0.3-0.3,0.4-0.7,0.5-1.2c0.1-0.4,0-0.9-0.1-1.3c-0.1-0.4-0.4-0.8-0.7-1s-0.7-0.4-1.1-0.4c-0.2,0-0.5,0.1-0.7,0.2s-0.4,0.3-0.6,0.5
	c-0.2,0.2-0.3,0.5-0.4,0.7C366.3,134.9,366.3,135.2,366.3,135.5z"/>
<path class="st9" d="M308,146.6h55.4v9.2H308V146.6z"/>
<path class="st9" d="M368.2,153.7c0.4,0,0.8-0.1,1.1-0.4c0.3-0.3,0.6-0.7,0.8-1.1c0.2-0.5,0.2-0.9,0.1-1.4c-0.1-0.5-0.3-0.9-0.6-1.3
	c-0.3-0.3-0.6-0.6-1-0.7c-0.4-0.1-0.8,0-1.2,0.1c-0.4,0.2-0.7,0.5-0.9,0.9c-0.2,0.4-0.3,0.9-0.3,1.4c0,0.7,0.2,1.3,0.6,1.8
	C367.1,153.5,367.6,153.7,368.2,153.7z M368.2,149.1c0.3,0,0.7,0.1,1,0.4c0.3,0.2,0.5,0.6,0.6,0.9c0.1,0.4,0.2,0.8,0.1,1.2
	c-0.1,0.4-0.2,0.8-0.5,1.1c-0.2,0.3-0.6,0.5-0.9,0.6c-0.3,0.1-0.7,0-1-0.1c-0.3-0.2-0.6-0.4-0.8-0.8c-0.2-0.3-0.3-0.8-0.3-1.2
	c0-0.5,0.2-1.1,0.5-1.4C367.3,149.4,367.7,149.2,368.2,149.1L368.2,149.1z"/>
<path class="st9" d="M367,151.2c0,0.3,0.1,0.5,0.2,0.8c0.1,0.2,0.3,0.4,0.5,0.5c0.2,0.1,0.4,0.1,0.7,0.1c0.2-0.1,0.4-0.2,0.6-0.4
	c0.2-0.2,0.3-0.4,0.3-0.7c0-0.3,0-0.6-0.1-0.8c-0.1-0.3-0.2-0.5-0.4-0.6c-0.2-0.2-0.4-0.2-0.6-0.2c-0.3,0-0.6,0.1-0.8,0.4
	C367.1,150.5,367,150.9,367,151.2z"/>
<path class="st2" d="M308,162.4h55.4v9.2H308V162.4z"/>
<path class="st2" d="M366.3,167c0,0.5,0.1,0.9,0.3,1.3c0.2,0.4,0.5,0.7,0.9,0.8c0.3,0.2,0.7,0.2,1.1,0.1c0.4-0.1,0.7-0.3,1-0.6
	c0.3-0.3,0.4-0.7,0.5-1.2c0.1-0.4,0-0.9-0.1-1.3c-0.1-0.4-0.4-0.8-0.7-1s-0.7-0.4-1.1-0.4c-0.2,0-0.5,0.1-0.7,0.2s-0.4,0.3-0.6,0.5
	c-0.2,0.2-0.3,0.5-0.4,0.7C366.3,166.4,366.3,166.7,366.3,167z"/>
<path class="st9" d="M308,178.1h55.4v9.2H308V178.1z"/>
<path class="st9" d="M368.2,185.2c0.4,0,0.8-0.1,1.1-0.4s0.6-0.7,0.8-1.1c0.2-0.5,0.2-1,0.1-1.4c-0.1-0.5-0.3-0.9-0.6-1.3
	c-0.3-0.3-0.6-0.6-1-0.7c-0.4-0.1-0.8,0-1.2,0.1c-0.4,0.2-0.7,0.5-0.9,0.9c-0.2,0.4-0.3,0.9-0.3,1.4c0,0.7,0.2,1.3,0.6,1.8
	C367.1,184.9,367.6,185.2,368.2,185.2z M368.2,180.6c0.3,0,0.7,0.1,1,0.4c0.3,0.2,0.5,0.6,0.6,0.9c0.1,0.4,0.2,0.8,0.1,1.2
	c-0.1,0.4-0.2,0.8-0.5,1.1c-0.2,0.3-0.6,0.5-0.9,0.6c-0.3,0.1-0.7,0-1-0.1c-0.3-0.2-0.6-0.4-0.8-0.8c-0.2-0.3-0.3-0.8-0.3-1.2
	c0-0.6,0.2-1.1,0.5-1.5C367.3,180.8,367.7,180.6,368.2,180.6z"/>
<path class="st9" d="M367,182.7c0,0.3,0.1,0.5,0.2,0.8c0.1,0.2,0.3,0.4,0.5,0.5c0.2,0.1,0.4,0.1,0.7,0.1c0.2-0.1,0.4-0.2,0.6-0.4
	c0.2-0.2,0.3-0.4,0.3-0.7c0-0.3,0-0.6-0.1-0.8c-0.1-0.3-0.2-0.5-0.4-0.6c-0.2-0.2-0.4-0.2-0.6-0.2c-0.3,0-0.6,0.1-0.8,0.4
	C367.1,182,367,182.3,367,182.7z"/>
<path class="st9" d="M308,193.8h55.4v9.2H308V193.8z"/>
<path class="st9" d="M368.2,200.9c0.4,0,0.8-0.1,1.1-0.4s0.6-0.7,0.8-1.1c0.2-0.5,0.2-0.9,0.1-1.4c-0.1-0.5-0.3-0.9-0.6-1.3
	c-0.3-0.3-0.6-0.6-1-0.7c-0.4-0.1-0.8,0-1.2,0.1c-0.4,0.2-0.7,0.5-0.9,0.9c-0.2,0.4-0.3,0.9-0.3,1.4c0,0.7,0.2,1.3,0.6,1.8
	C367.1,200.7,367.6,200.9,368.2,200.9z M368.2,196.3c0.3,0,0.7,0.1,1,0.3c0.3,0.2,0.5,0.6,0.6,0.9c0.1,0.4,0.2,0.8,0.1,1.2
	s-0.2,0.8-0.5,1.1c-0.2,0.3-0.5,0.5-0.9,0.6c-0.3,0.1-0.7,0-1-0.1c-0.3-0.2-0.6-0.4-0.8-0.8c-0.2-0.3-0.3-0.8-0.3-1.2
	c0-0.6,0.2-1.1,0.5-1.5S367.7,196.3,368.2,196.3z"/>
<path class="st9" d="M367,198.4c0,0.3,0.1,0.5,0.2,0.8c0.1,0.2,0.3,0.4,0.5,0.5c0.2,0.1,0.4,0.1,0.7,0.1c0.2-0.1,0.4-0.2,0.6-0.4
	c0.2-0.2,0.3-0.4,0.3-0.7c0-0.3,0-0.6-0.1-0.8c-0.1-0.3-0.2-0.5-0.4-0.6c-0.2-0.2-0.4-0.2-0.6-0.2c-0.3,0-0.6,0.1-0.8,0.4
	C367.1,197.7,367,198.1,367,198.4z"/>
<path class="st0" d="M229.8,129.9h3.1v-0.8h-2.4v-0.3h-0.7L229.8,129.9z M235.6,129.9h2.7v-0.8h-2.7V129.9z M241,129.9h2.7v-0.8H241
	V129.9z M246.5,129.9h2.7v-0.8h-2.7V129.9z M251.9,129.9h2.7v-0.8h-2.7V129.9z M257.4,129.9h2.7v-0.8h-2.7V129.9z M262.8,129.9h2.7
	v-0.8h-2.7V129.9z M268.3,129.9h2.7v-0.8h-2.7V129.9z M273.7,129.9h2.7v-0.8h-2.7V129.9z M279.2,129.9h2.7v-0.8h-2.7V129.9z
	 M284.6,129.9h2.7v-0.8h-2.7V129.9z M290.1,129.9h2.7v-0.8h-2.7V129.9z M294.4,128.6h0.7v-3.3h-0.7V128.6z M229.8,125.5h0.7v-3.3
	h-0.7V125.5z M294.4,122h0.7v-3.3h-0.7V122z M229.8,118.9h0.7v-3.3h-0.7V118.9z M294.4,115.4h0.7v-3.3h-0.7V115.4z M229.8,112.3h0.7
	V109h-0.7V112.3z M294.4,108.8h0.7v-3.3h-0.7V108.8z M229.8,105.7h0.7v-3.3h-0.7V105.7z M294.4,102.2h0.7v-3.3h-0.7V102.2z
	 M229.8,99.1h0.7v-3.3h-0.7V99.1z M294.4,95.6h0.7v-3.3h-0.7V95.6z M229.8,92.5h0.7v-3.3h-0.7V92.5z M294.4,89h0.7v-3.3h-0.7V89z
	 M229.8,85.9h0.7v-3.3h-0.7V85.9z M294.4,82.4h0.7v-3.3h-0.7V82.4z M229.8,79.3h0.7V76h-0.7V79.3z M294.4,75.8h0.7v-3.3h-0.7V75.8z
	 M229.8,72.7h0.7v-3.3h-0.7V72.7z M294.4,69.1h0.7v-3.3h-0.7V69.1z M229.8,66.1h0.7v-3.3h-0.7V66.1z M294.4,62.5h0.7v-3.3h-0.7V62.5
	z M229.8,59.5h0.7v-3.3h-0.7V59.5z M294.4,55.9h0.7v-3.3h-0.7V55.9z M229.8,52.9h0.7v-0.2h1.9v-0.8h-2.6V52.9z M235.1,52.6h2.7v-0.8
	h-2.7V52.6z M240.5,52.6h2.7v-0.8h-2.7V52.6z M246,52.6h2.7v-0.8H246V52.6z M251.4,52.6h2.7v-0.8h-2.7V52.6z M256.9,52.6h2.7v-0.8
	h-2.7V52.6z M262.3,52.6h2.7v-0.8h-2.7V52.6z M267.8,52.6h2.7v-0.8h-2.7V52.6z M273.2,52.6h2.7v-0.8h-2.7V52.6z M278.7,52.6h2.7
	v-0.8h-2.7V52.6z M284.1,52.6h2.7v-0.8h-2.7V52.6z M289.6,52.6h2.7v-0.8h-2.7V52.6z"/>
<path class="st0" d="M152.3,143.5h0.7v-2.1h-1.7v0.8h1V143.5z"/>
<path class="st0" d="M92.1,142.3h2.7v-0.8h-2.7V142.3z M97.4,142.3h2.7v-0.8h-2.7V142.3z M102.8,142.3h2.7v-0.8h-2.7V142.3z
	 M108.2,142.3h2.7v-0.8h-2.7V142.3z M113.6,142.3h2.7v-0.8h-2.7V142.3z M119,142.3h2.7v-0.8H119V142.3z M124.4,142.3h2.7v-0.8h-2.7
	V142.3z M129.7,142.3h2.7v-0.8h-2.7V142.3z M135.1,142.3h2.7v-0.8h-2.7V142.3z M140.5,142.3h2.7v-0.8h-2.7V142.3z M145.9,142.3h2.7
	v-0.8h-2.7V142.3z"/>
<path class="st0" d="M87.7,143.5h0.7v-1.2h1v-0.8h-1.7V143.5z"/>
<path class="st0" d="M87.7,214.2h0.7V211h-0.7V214.2z M87.7,207.8h0.7v-3.2h-0.7V207.8z M87.7,201.4h0.7v-3.2h-0.7V201.4z
	 M87.7,194.9h0.7v-3.2h-0.7V194.9z M87.7,188.5h0.7v-3.2h-0.7V188.5z M87.7,182.1h0.7v-3.2h-0.7V182.1z M87.7,175.6h0.7v-3.2h-0.7
	V175.6z M87.7,169.2h0.7V166h-0.7V169.2z M87.7,162.8h0.7v-3.2h-0.7V162.8z M87.7,156.4h0.7v-3.2h-0.7V156.4z M87.7,149.9h0.7v-3.2
	h-0.7V149.9z"/>
<path class="st0" d="M87.7,219.5h1.7v-0.8h-1v-1.2h-0.7V219.5z"/>
<path class="st0" d="M92.1,219.5h2.7v-0.8h-2.7V219.5z M97.4,219.5h2.7v-0.8h-2.7V219.5z M102.8,219.5h2.7v-0.8h-2.7V219.5z
	 M108.2,219.5h2.7v-0.8h-2.7V219.5z M113.6,219.5h2.7v-0.8h-2.7V219.5z M119,219.5h2.7v-0.8H119V219.5z M124.4,219.5h2.7v-0.8h-2.7
	V219.5z M129.7,219.5h2.7v-0.8h-2.7V219.5z M135.1,219.5h2.7v-0.8h-2.7V219.5z M140.5,219.5h2.7v-0.8h-2.7V219.5z M145.9,219.5h2.7
	v-0.8h-2.7V219.5z"/>
<path class="st0" d="M151.3,219.5h1.7v-2.1h-0.7v1.2h-1V219.5z"/>
<path class="st0" d="M152.3,214.2h0.7V211h-0.7V214.2z M152.3,207.8h0.7v-3.2h-0.7V207.8z M152.3,201.4h0.7v-3.2h-0.7V201.4z
	 M152.3,194.9h0.7v-3.2h-0.7V194.9z M152.3,188.5h0.7v-3.2h-0.7V188.5z M152.3,182.1h0.7v-3.2h-0.7V182.1z M152.3,175.6h0.7v-3.2
	h-0.7V175.6z M152.3,169.2h0.7V166h-0.7V169.2z M152.3,162.8h0.7v-3.2h-0.7V162.8z M152.3,156.4h0.7v-3.2h-0.7V156.4z M152.3,149.9
	h0.7v-3.2h-0.7V149.9z"/>
<path class="st0" d="M294.7,219.1H161.8v-77.2h132.9V219.1z"/>
<path class="st7" d="M256.9,212.1l40.7,0l0-63.3l-30.2,0l-10.5,12.1L256.9,212.1z"/>
<path class="st9" d="M267.3,148.8l-10.5,12.1l10.5,0L267.3,148.8z"/>
<g class="st10">
	<path d="M293.6,161.1l-22.6,0l0-1.6l22.6,0L293.6,161.1z"/>
	<path d="M293.6,165.2l-22.6,0v-1.6l22.6,0V165.2z"/>
	<path d="M293.6,169.3l-22.6,0l0-1.6l22.6,0L293.6,169.3z"/>
	<path d="M293.6,173.4l-33.2,0v-1.6l33.2,0V173.4z"/>
	<path d="M293.6,177.5l-33.2,0l0-1.6l33.2,0V177.5z"/>
	<path d="M293.6,181.6l-33.2,0l0-1.6l33.2,0V181.6z"/>
	<path d="M293.6,185.7l-33.2,0v-1.6l33.2,0V185.7z"/>
	<path d="M293.6,189.8l-33.2,0v-1.6l33.2,0V189.8z"/>
	<path d="M293.6,193.9l-33.2,0v-1.6l33.2,0V193.9z"/>
	<path d="M293.6,198l-33.2,0v-1.6l33.2,0V198z"/>
	<path d="M293.6,202.1l-33.2,0v-1.6l33.2,0V202.1z"/>
	<path d="M293.6,206.2l-33.2,0v-1.6l33.2,0L293.6,206.2z"/>
</g>
<path class="st7" d="M159,212.1l40.7,0l0-63.3l-30.2,0L159,160.9L159,212.1z"/>
<path class="st9" d="M169.5,148.8L159,160.9l10.5,0L169.5,148.8z"/>
<g class="st10">
	<path d="M195.7,161.1l-22.6,0l0-1.6l22.6,0L195.7,161.1z"/>
	<path d="M195.7,165.2l-22.6,0l0-1.6l22.6,0L195.7,165.2z"/>
	<path d="M195.7,169.3l-22.6,0l0-1.6l22.6,0L195.7,169.3z"/>
	<path d="M195.7,173.4l-33.2,0v-1.6l33.2,0V173.4z"/>
	<path d="M195.7,177.5l-33.2,0v-1.6l33.2,0L195.7,177.5z"/>
	<path d="M195.7,181.6l-33.2,0V180l33.2,0L195.7,181.6z"/>
	<path d="M195.7,185.7l-33.2,0v-1.6l33.2,0L195.7,185.7z"/>
	<path d="M195.7,189.8l-33.2,0v-1.6l33.2,0L195.7,189.8z"/>
	<path d="M195.7,193.9l-33.2,0v-1.6l33.2,0L195.7,193.9z"/>
	<path d="M195.8,198l-33.2,0v-1.6l33.2,0L195.8,198z"/>
	<path d="M195.8,202.1l-33.2,0l0-1.6l33.2,0L195.8,202.1z"/>
	<path d="M195.8,206.2l-33.2,0l0-1.6l33.2,0L195.8,206.2z"/>
</g>
<path class="st6" d="M207.9,212.1l40.7,0l0-63.3l-30.2,0l-10.5,12.1L207.9,212.1z"/>
<path class="st5" d="M218.4,148.8l-10.5,12.1l10.5,0V148.8z"/>
<path class="st5" d="M244.7,161.1l-22.6,0v-1.6l22.6,0V161.1z"/>
<path class="st5" d="M244.7,165.2l-22.6,0v-1.6l22.6,0V165.2z"/>
<path class="st5" d="M244.7,169.3l-22.6,0v-1.6l22.6,0V169.3z"/>
<path class="st5" d="M244.7,173.4l-33.2,0l0-1.6l33.2,0L244.7,173.4z"/>
<path class="st5" d="M244.7,177.5l-33.2,0l0-1.6l33.2,0L244.7,177.5z"/>
<path class="st5" d="M244.7,181.6l-33.2,0l0-1.6l33.2,0L244.7,181.6z"/>
<path class="st5" d="M244.7,185.7l-33.2,0l0-1.6l33.2,0L244.7,185.7z"/>
<path class="st5" d="M244.7,189.8l-33.2,0l0-1.6l33.2,0V189.8z"/>
<path class="st5" d="M244.7,193.9l-33.2,0l0-1.6l33.2,0V193.9z"/>
<path class="st5" d="M244.7,198l-33.2,0l0-1.6l33.2,0V198z"/>
<path class="st5" d="M244.7,202.1l-33.2,0l0-1.6l33.2,0L244.7,202.1z"/>
<path class="st5" d="M244.7,206.2l-33.2,0l0-1.6l33.2,0V206.2z"/>
<path class="st7" d="M238.3,72.1h47.8v42h-47.8V72.1z"/>
<path class="st7" d="M269.2,67.7h16.9v4.3h-17.9L269.2,67.7z"/>
<path class="st2" d="M270.6,69.4h13.8v2.5h-13.8V69.4z"/>
<path class="st7" d="M238.3,114h47.8l0.3-39.4h-47.8L238.3,114z"/>
<path class="st11" d="M238.3,114h47.8l0.3-39.4h-47.8L238.3,114z"/>
<path class="st7" d="M269.6,70.7h16.9l0,4h-17.9L269.6,70.7z"/>
<path class="st11" d="M269.6,70.7h16.9l0,4h-17.9L269.6,70.7z"/>
<path class="st7" d="M82.5,153.8h47.8v42H82.5V153.8z"/>
<path class="st7" d="M113.4,149.5h16.9v4.3h-17.9L113.4,149.5z"/>
<path class="st2" d="M114.8,151.2h13.8v2.5h-13.8V151.2z"/>
<path class="st7" d="M82.5,195.8h47.8l0.3-39.4H82.8L82.5,195.8z"/>
<path class="st11" d="M82.5,195.8h47.8l0.3-39.4H82.8L82.5,195.8z"/>
<path class="st7" d="M113.8,152.5h16.9l0,4h-17.9L113.8,152.5z"/>
<path class="st11" d="M113.8,152.5h16.9l0,4h-17.9L113.8,152.5z"/>
<path class="st2" d="M203.1,114.3h-42.7V62.5h42.7V114.3z"/>
<path class="st6" d="M201,111.7h-38.5V65.1H201V111.7z"/>
<path class="st5" d="M194.8,76.2c0.2,0.9,0.1,1.9-0.3,2.7c-0.3,0.9-0.9,1.6-1.6,2c-0.7,0.4-1.5,0.6-2.2,0.5c-0.8-0.1-1.5-0.6-2-1.2
	s-0.9-1.5-1-2.5c-0.1-0.9,0-1.9,0.4-2.7s0.9-1.5,1.7-1.9c0.7-0.4,1.5-0.5,2.3-0.3c0.7,0.2,1.4,0.6,1.9,1.2
	C194.3,74.6,194.7,75.3,194.8,76.2z"/>
<path class="st5" d="M190.4,99.6h-27.8l13.9-18.9L190.4,99.6z"/>
<path class="st3" d="M201,99.6h-23l11.5-12.3L201,99.6z"/>
<path class="st3" d="M162.5,99.6H201v12.1h-38.5V99.6z"/>
<path class="st2" d="M143,114.3h-42.7V62.5H143V114.3z"/>
<path class="st6" d="M140.9,111.7h-38.5V65.1h38.5V111.7z"/>
<path class="st5" d="M134.7,76.2c0.2,0.9,0.1,1.9-0.3,2.7c-0.3,0.9-0.9,1.6-1.6,2c-0.7,0.4-1.5,0.6-2.2,0.5c-0.8-0.1-1.5-0.6-2-1.2
	s-0.9-1.5-1-2.5c-0.1-0.9,0-1.9,0.4-2.7c0.4-0.8,0.9-1.5,1.7-1.9c0.7-0.4,1.5-0.5,2.3-0.3c0.7,0.2,1.4,0.6,1.9,1.2
	C134.2,74.6,134.5,75.3,134.7,76.2z"/>
<path class="st5" d="M130.2,99.6h-27.8l13.9-18.9L130.2,99.6z"/>
<path class="st3" d="M140.9,99.6h-23l11.5-12.3L140.9,99.6z"/>
<path class="st3" d="M102.4,99.6h38.5v12.1h-38.5V99.6z"/>
<path class="st2" d="M211.3,122.5h-42.7V70.8h42.7V122.5z"/>
<path class="st7" d="M209.2,120h-38.5V73.3h38.5V120z"/>
<path class="st9" d="M203,84.4c0.2,0.9,0.1,1.9-0.3,2.7c-0.3,0.9-0.9,1.6-1.6,2c-0.7,0.4-1.5,0.6-2.2,0.5c-0.8-0.1-1.5-0.6-2-1.2
	s-0.9-1.5-1-2.5c-0.1-0.9,0-1.9,0.4-2.7c0.4-0.8,0.9-1.5,1.7-1.9c0.7-0.4,1.5-0.5,2.3-0.3c0.7,0.2,1.3,0.6,1.9,1.2
	C202.5,82.8,202.9,83.6,203,84.4z"/>
<path class="st9" d="M198.5,107.8h-27.8l13.9-18.9L198.5,107.8z"/>
<path class="st7" d="M209.2,107.8h-23l11.5-12.3L209.2,107.8z"/>
<g class="st12">
	<path d="M209.2,107.8h-23l11.5-12.3L209.2,107.8z"/>
</g>
<path class="st7" d="M170.7,107.8h38.5V120h-38.5V107.8z"/>
<path class="st13" d="M170.7,107.8h38.5V120h-38.5V107.8z"/>
<path class="st7" d="M414,249.2c-0.6,4.8-0.4,9.7,0.6,14.5c0.5,2.2,1.1,4.3,1.8,6.4c1,2.6,1.9,5.2,1.7,8.1c-0.2,0.2,0.6,0.2,0.6-0.1
	c6.4-4.4,14.6-5.2,19.5-12.4c2.3-3.4,3.5-7.7,4.1-12.1c0.6-4.7,0.8-9.9-0.2-14.6c-0.8-3.9-2.7-7.7-5.8-9.6
	c-3.1-1.9-7.3-1.8-10.6-0.6C418.6,231.5,415,240.8,414,249.2z"/>
<path class="st3" d="M410.7,306.5c0.9-3.5,1.7-7,2.6-10.5c1.8-6.9,3.6-13.7,5.6-20.5c1.2-4,2.5-8.1,3.8-12c-0.1-2.5-0.4-5-0.8-7.5
	c-0.5-3-1.3-5.9-2-8.8c0-0.2,0.2-0.3,0.3-0.1c1.4,4,3.3,9.2,3.4,14c1.6-4.5,3.2-8.9,5-13.3c0.2-3.7,0.1-7.4-0.3-11.1
	c0,0,0-0.1,0-0.1c0,0,0-0.1,0.1-0.1c0,0,0.1,0,0.1,0c0,0,0,0.1,0,0.1c0.5,3.2,0.8,6.5,0.6,9.8c1.4-3.3,2.8-6.5,4.4-9.7
	c0.1-0.3,0.5,0,0.3,0.3c-2.4,5.6-4.6,11.4-6.7,17.1c2.9-3.1,6.4-5.5,10-7c0.2-0.1,0.3,0.2,0.1,0.3c-4,2.1-7.7,5-10.8,8.7
	c-1.5,4.2-2.9,8.5-4.3,12.8c4-4.7,9.5-7.9,14.8-9.5c0.2-0.1,0.2,0.3,0.1,0.3c-6.1,2.2-10.9,6.4-15.5,11.5c-0.5,1.7-1.1,3.5-1.6,5.2
	c-2,6.6-3.8,13.3-5.6,20c-0.9,3.2-1.7,6.4-2.5,9.7c-0.9,3.5-1.6,7.1-2.7,10.5c-0.1,0.3-0.6,0.2-0.5-0.1
	C409.1,313,409.8,309.7,410.7,306.5z"/>
<path class="st3" d="M421.3,242.4c1.1,2.1,1.9,4.5,2.3,6.9c0,0.1-0.1,0.1-0.1,0c-0.7-2.3-1.5-4.6-2.5-6.8
	C420.9,242.3,421.2,242.2,421.3,242.4z"/>
<path class="st3" d="M432.7,258.5c1.8-1.2,3.7-2,5.7-2.3c0.1,0,0.1,0.1,0,0.1c-0.9,0.5-1.9,0.8-2.8,1.2c-0.9,0.4-1.8,1-2.8,1.4
	c0,0-0.1,0-0.1,0c0,0-0.1-0.1-0.1-0.1c0,0,0-0.1,0-0.1C432.7,258.6,432.7,258.6,432.7,258.5z"/>
<path class="st3" d="M435.9,239.1c0.6-0.5,1.2-1,1.8-1.4c0,0,0,0,0.1,0c0,0,0,0,0.1,0c0,0,0,0,0,0.1c0,0,0,0.1,0,0.1
	c-0.6,0.5-1.2,1-1.8,1.4C435.9,239.5,435.8,239.2,435.9,239.1z"/>
<path class="st7" d="M392.5,275.4c4.6,1.6,9.2,3.2,13.8,4.8c0.4,0.1,8.2-17.9,5.4-27.2c-2.6-8.6-8.5-15.1-15.7-18
	c-3.3-1.4-7.3-2.5-10.8-1.6c-3.1,0.8-5.3,3.9-6.3,7.4c-1.4,4.8-0.9,10.5-0.2,15.3c0.6,4.6,2.2,8.9,4.6,12.6
	C385.8,272.3,388.9,274.2,392.5,275.4z"/>
<path class="st3" d="M385.8,258.3c2.9,1.7,5.9,3.2,9,4.3c2.1,0.7,4.1,1.6,6,2.6c-1.9-5.2-4.1-10.4-6.3-15.5c-3-1-6.1-2.7-8.3-5.2
	c0,0,0-0.1,0-0.1c0,0,0-0.1,0-0.1c0,0,0,0,0.1-0.1c0,0,0.1,0,0.1,0c2.5,2.1,5.2,3.4,7.9,4.8c-0.6-1.4-1.2-2.7-1.9-4.1
	c-0.2-0.4,0.3-0.8,0.5-0.4c2.4,4.3,4.6,8.7,6.5,13.3c0.5-4,0.7-8.1,0.5-12.2c0,0,0,0,0,0c0,0,0,0,0,0c0,0,0,0,0,0c0,0,0,0,0,0
	c0,0,0,0,0,0c0,0,0,0,0,0c0,0,0,0,0,0c0,0,0,0,0,0c0.6,4.4,0.5,9-0.1,13.4c1.6,3.9,3.1,7.9,4.4,11.9c0.5-2.4,1.2-4.8,1.7-7.3
	c0.7-3.5,0.9-7.1,0.7-10.7c0,0,0,0,0-0.1c0,0,0,0,0,0s0,0,0,0c0,0,0,0,0,0.1c0.8,6.7,0.1,13.5-1.9,19.7c0.8,2.4,1.5,4.9,2.2,7.3
	c3.5,12.5,5.5,25.5,6.1,38.7c0,0.1,0,0.1-0.1,0.1c0,0-0.1,0.1-0.1,0.1s-0.1,0-0.1,0c0,0-0.1-0.1-0.1-0.1c-1.2-13-3.5-25.8-6.9-38.2
	c-1.4-4.9-2.9-9.6-4.6-14.2c-2.7-1-5.4-2.3-8.1-3.4c-2.6-1.1-5.3-2.4-7.5-4.4c0,0,0,0,0-0.1C385.7,258.4,385.7,258.4,385.8,258.3
	C385.7,258.3,385.7,258.3,385.8,258.3C385.8,258.3,385.8,258.3,385.8,258.3z"/>
<path class="st3" d="M381.5,253.1c2.8,1.2,5.5,2.9,8.3,4.1c0.1,0.1,0.1,0.3-0.1,0.3c-3-0.7-5.9-1.9-8.3-4.2
	C381.3,253.2,381.4,253,381.5,253.1z"/>
<path class="st3" d="M404.5,245.7c0-0.2,0.2-0.3,0.2-0.1c0.8,3.1,1.3,6.5,0.6,9.7c0,0.1-0.2,0.1-0.2,0
	C404.9,252,405.1,248.9,404.5,245.7z"/>
<path class="st3" d="M392.9,238.4c0.9,1.6,1.3,3.4,1.2,5.3c0,0.1-0.2,0.2-0.2,0.1c-0.3-1.8-0.9-3.4-1.4-5.2c0-0.1,0-0.1,0-0.1
	c0,0,0-0.1,0.1-0.1c0,0,0.1,0,0.1,0C392.8,238.4,392.8,238.4,392.9,238.4z"/>
<path class="st7" d="M447.2,283.4c-1.4,5.2-4.6,12.4-9.6,12.4c-3.3,0-6.6-0.4-9.9-0.5c-3.5-0.1-7.1-0.1-10.6,0.2
	c-0.3,0,0.4-12.8,8.9-19.1c2.4-1.7,5.3-2.3,8-3c3.1-0.9,6.3-1.3,9.4-1.2c2,0.1,3.6,0.6,4.3,3C448.3,277.7,447.8,281,447.2,283.4z"/>
<path class="st3" d="M443.5,276.9c-2,0.6-4.1,1.4-6.2,2.2c0.5-0.7,1.1-1.4,1.7-2c0.9-0.9,1.9-1.6,2.8-2.4c0.1-0.1,0-0.2-0.1-0.2
	c-2,1-3.7,2.7-5,4.8c-2.6,1-5.1,2.1-7.6,3.3c-1.7,0.8-3.3,1.9-4.9,3.1c0.5-1.3,1.1-2.5,1.8-3.7c1.1-1.8,2.6-2.8,4.1-4c0,0,0,0,0,0
	c0,0,0,0,0-0.1c0,0,0,0,0-0.1c0,0,0,0,0-0.1s0,0,0,0c0,0,0,0,0,0c0,0,0,0-0.1,0c0,0,0,0,0,0c-1.5,0.8-2.9,2-4.1,3.5
	c-1.1,1.5-2,3.3-2.5,5.2c-1.8,1.5-3.4,3.3-4.8,5.3c-5.6,7.7-10,18-10.1,28.5c0,0.2,0.3,0.3,0.4,0.1c1.4-10.3,5.1-19.9,10.7-27.9
	c0.4-0.6,0.8-1.1,1.2-1.7c1.5-0.2,3.1-0.4,4.6-0.4c1.8,0,3.6,0.3,5.4,0.5c3,0.3,6.2,0.3,8.9-1.5c0.1-0.1,0-0.3-0.1-0.3
	c-6,2.6-12.2-0.7-18.2,0.8c2.6-2.9,5.5-5.2,8.8-6.8l0.5-0.3c3.8,0.6,7.9,1.8,11.6,0.3c0,0,0,0,0.1-0.1c0,0,0-0.1,0-0.1
	c0,0,0-0.1,0-0.1c0,0,0,0-0.1,0c-3.6,1.1-7-0.3-10.6-0.5c3.9-1.8,7.8-3.3,11.7-5.1C443.9,277.2,443.9,276.8,443.5,276.9z"/>
<path class="st3" d="M445.2,281.5c-1.8,0.3-3.7,0.5-5.6,0.5c0,0-0.1,0.1,0,0.1c1.9,0.4,3.8,0.3,5.6-0.4
	C445.4,281.6,445.3,281.5,445.2,281.5z"/>
<path class="st3" d="M432.7,277c-1,0.6-1.9,1.4-2.7,2.3c-0.1,0.1,0,0.3,0.1,0.2c0.5-0.4,0.9-0.8,1.4-1.2c0.5-0.3,0.9-0.7,1.4-1
	C432.9,277.2,432.8,277,432.7,277z"/>
<path class="st7" d="M402.7,293.7c0.1,0.2-0.1,0.3-0.2,0.1c0,0,0,0.1-0.1,0.1c0,0,0,0-0.1,0c-3.4,1-6.9,1.7-10.4,2.2
	c-2.8,0.3-6,0.5-8.5-1.5c-3.3-2.7-5.5-9.8-3.7-14.4c2.1-5.4,8.5-2.5,11.8-0.5C396.5,282.7,400.4,287.6,402.7,293.7z"/>
<path class="st3" d="M405.2,296.2c-1.9-2.2-3.9-4.1-6.2-5.7c-1.6-3.1-3.8-5.7-6.3-7.7c-0.1-0.1-0.2,0.1-0.1,0.2
	c2,1.9,3.8,4.2,5.3,6.7c-2.5-1.7-5.1-3.1-7.8-4.3c-1-2.1-2.4-3.9-4.2-5.1c0,0-0.1,0,0,0.1c1.5,1.3,2.7,3,3.8,4.8
	c-1.6-0.7-3.2-1.4-4.8-2c-0.1-0.1-0.2,0.2-0.1,0.3c2.8,1.3,5.7,2.8,8.5,4.4c-3.4,0.7-6.9,0.7-10.3,0c-0.1,0-0.1,0.1,0,0.2
	c3.6,1.3,7.4,1.3,11,0.2c1.8,1.1,3.5,2.2,5.2,3.5c-1.4-0.1-2.8,0-4.2,0.4c-2.4,0.7-4.9,1-7.4,1c-0.1,0-0.1,0.2,0,0.2
	c4.3,0.9,8.4-1.5,12.6-0.8c1.6,1.3,3.1,2.8,4.4,4.4c2.6,3.2,4.8,6.9,6.5,11c1.8,4.4,2.8,9.1,4.2,13.6c0,0,0,0,0,0.1c0,0,0,0,0,0
	c0,0,0,0,0,0c0,0,0,0,0.1,0c0,0,0,0,0,0c0,0,0,0,0,0c0,0,0,0,0-0.1c0,0,0,0,0-0.1C414.3,312.6,410.6,302.7,405.2,296.2z"/>
<path class="st3" d="M392.2,283.9c-0.3-0.6-0.7-1.2-1.1-1.7c-0.4-0.5-0.8-0.9-1.3-1.1c0,0-0.1,0.1,0,0.1c0.3,0.5,0.8,0.8,1.2,1.3
	c0.4,0.5,0.7,1,1.1,1.5C392.2,284,392.2,284,392.2,283.9C392.2,284,392.2,284,392.2,283.9C392.2,284,392.2,284,392.2,283.9
	C392.2,283.9,392.2,283.9,392.2,283.9z"/>
<path class="st3" d="M385.2,286.7c-0.6-0.2-1.3-0.2-2-0.3c-0.6-0.2-1.3-0.4-1.9-0.7c0,0,0,0,0,0c0,0,0,0,0,0c0,0,0,0,0,0
	c0,0,0,0,0,0c0,0,0,0,0,0c0,0,0,0,0,0c0,0,0,0,0,0c0,0,0,0,0,0c1.2,0.9,2.5,1.3,3.9,1.1c0,0,0,0,0.1,0c0,0,0,0,0-0.1
	C385.2,286.8,385.2,286.8,385.2,286.7C385.2,286.7,385.2,286.7,385.2,286.7z"/>
<path class="st5" d="M422.9,310.5l-0.6,7.7l-1.9,26.2h-16.9l-2.4-26.2l-0.7-7.7H422.9z"/>
<path class="st3" d="M422.9,310.5l-0.6,7.7h-21.2l-0.7-7.7H422.9z"/>
<path class="st5" d="M424.5,314.6h-25.8v-6.3h25.8V314.6z"/>
<path class="st3" d="M221.5,53.4c0,0,6.7-4.7,12.8-0.3c6.1,4.4,9.1,15.5,8.2,24.9c-0.9,9.4,5.5,15.4,6.3,22.4
	c0.8,7-2.9,10.3-4.1,13.9c-1.4,4.2,4.7,19-10.1,22.8c-18.4,4.7-25.7-8.9-24-20.3c0.8-5.6,3.4-9.6,3.2-14.1
	c-0.2-4.5-2.8-8.1-1.5-13.8c1.3-5.8,3.1-5,3.7-14C216.6,65.8,214.9,55.1,221.5,53.4z"/>
<path class="st3" d="M233,52.9c4,3,7.1,7.4,8.9,12.6c0.9,2.6,1.5,5.3,1.7,8.1c0.2,3.7-0.2,7.1,1,10.6c1.9,5.7,5.6,10.3,5.5,16.7
	c0,3-0.8,5.8-2.1,8.3c-1.6,2.9-3.8,5.2-5.1,8.3c0,0.1-0.2,0-0.2-0.1c1.1-2.8,2.8-4.9,4.3-7.4c1.8-2.9,2.7-6.4,2.6-10
	c-0.2-6-3.9-10.6-5.6-16c-0.7-2.4-1-4.9-0.9-7.4c0.1-3.1-0.3-6.1-1.1-9.1C240.4,61.6,237.2,56.5,233,52.9
	C232.9,53,232.9,52.9,233,52.9z"/>
<path class="st3" d="M210.6,115.2c0.4-2.7,1.6-5.2,2-7.9c0.5-3.3-0.2-6.5-0.8-9.6c-0.8-4.5-0.8-8.8,0.8-13.1c1-2.8,2.3-5.4,3-8.3
	c0.8-3.2,1.2-6.5,1.3-9.8c0-0.1,0.1-0.1,0.1,0c0.1,4.8-0.6,9.6-2.3,14c-1,2.6-2.2,5-2.7,7.8c-0.6,3.3-0.3,6.5,0.2,9.8
	c0.4,2.2,0.7,4.4,0.8,6.7c-0.1,2.3-0.5,4.5-1.2,6.6c-1.7,5.5-1.6,11.7,0.3,17.1c0,0.1-0.1,0.2-0.1,0.1
	C210.4,124.3,209.9,119.7,210.6,115.2z"/>
<path class="st3" d="M249.3,99.6c-0.2-5-3.1-8.3-5-12.5c-1.4-3.2-2.3-6.7-1.9-10.3c0-0.1,0.1,0,0.1,0c-0.1,5.2,1.7,9.9,4.2,14.2
	c1.6,2.8,3,5.6,3,9.1c0.1,3.5-1,6.3-2.6,9.2c-1.1,2-2.2,3.9-2.6,6.3c-0.3,2.4-0.4,4.8-0.2,7.3c0,0.1-0.2,0.1-0.2,0
	c-0.3-3.7-0.4-7.3,1.1-10.7C247,107.8,249.5,104.6,249.3,99.6z"/>
<path class="st3" d="M209.8,111.7c0.6-1.7,1.4-3.3,2.3-4.9c1.5-2.8,1.8-5.1,1.2-8.4c0,0,0,0,0,0c0,0,0,0,0,0s0,0,0,0c0,0,0,0,0,0
	c0.8,2.7,1,5-0.3,7.5c-1.8,3.6-3.6,6.8-3.9,11c-0.6,7.4,3,14.3,8.7,18c0.1,0,0,0.2-0.1,0.1c-4.8-2.7-8.2-7.7-8.9-13.7
	C208.5,118,208.8,114.7,209.8,111.7z"/>
<path class="st14" d="M182.8,343.9c1.6,0.6,45.8,0.5,47.5-0.8c0.6-0.5,1-8.3,1.2-17.8c0-2,0.1-4.1,0.1-6.3c0-2.5,0.1-5.1,0.1-7.6
	c0-11.2-0.1-21.1-0.1-21.1h-28.8v21.1v7.6l0.1,6.3c0,0-16.9,9.2-18.7,10.9C182.6,337.9,181.3,343.3,182.8,343.9z"/>
<path class="st5" d="M241.3,141.5c0,0-7.8,93.4-8,94.5c0,0.2-0.1,2-0.2,4.9c-0.4,16.1-1.5,66.2-1.5,66.2h-31.8
	c0,0,2.1-59.4,3.3-73.2c1.5-17.7,11.1-92.4,11.1-92.4L241.3,141.5z"/>
<path class="st3" d="M229.5,239.4c1-20.2,2.5-40.4,4.4-60.6c1.1-11.3,2.5-22.6,3.8-34c0-0.1,0.1-0.1,0.1,0
	c-2.5,20.1-4.2,40.4-5.7,60.7c-1.5,20.2-2.5,40.5-3.2,60.8c-0.4,11.5-0.7,23-1,34.5c0,0,0,0.1-0.1,0.1c0,0-0.1,0-0.1,0s-0.1,0-0.1,0
	c0,0-0.1-0.1-0.1-0.1C228,280.4,228.5,259.9,229.5,239.4z"/>
<path class="st3" d="M201.9,300.9c0.8-0.1,1.7-0.1,2.6-0.1c1,0,1.9,0,2.9-0.1c1.8-0.1,3.7-0.1,5.5-0.2c3.7-0.1,7.4,0,11.1,0.1
	l3.1,0.1c1.1,0,2.2,0.2,3.3,0.2c0.1,0,0.1,0.1,0,0.1c-1.9,0-3.8,0.2-5.6,0.3c-1.9,0.1-3.7,0.1-5.5,0.1c-3.7,0.1-7.4,0-11.1-0.1
	c-1,0-2-0.1-3.1-0.1c-0.5,0-1.1-0.1-1.6-0.1c-0.5,0-1,0-1.5-0.1c0,0,0,0,0,0C201.8,301.1,201.8,301,201.9,300.9
	C201.8,301,201.9,301,201.9,300.9C201.9,301,201.9,300.9,201.9,300.9z"/>
<path class="st3" d="M241.3,141.5c0,0-7.8,93.4-8,94.5c0,0.2-0.1,2-0.2,4.9l-15-99.4H241.3z"/>
<path class="st14" d="M261.9,342.3c1.6-0.2,41.9-22.5,43-24.5c0.4-0.8-1.9-8.1-5-16.8c-0.6-1.9-1.3-3.9-2-5.8c-1-2.4-2-4.8-3-7.1
	c-4.3-10-8.2-18.2-8.2-18.2l-25.5,14l7.4,18.2l3,7.5l2.3,5.7c0,0-12.3,16.9-13.3,19.3C259.7,336.9,260.3,342.5,261.9,342.3z"/>
<path class="st5" d="M214.5,141.5c0,0,1.2,13.5,9,20.3c0,0,14.3,69.4,16.5,77.4c3.8,13.7,24.4,60.2,24.4,60.2l31.8-16.5
	c0,0-24.3-51.8-26.9-55.8c-1.7-2.6-14.8-58.9-14.6-60.4c1.9-17.3-4.8-25.3-4.8-25.3L214.5,141.5z"/>
<path class="st3" d="M236.5,146.4c0.6,2.7,2,5.1,3.9,6.8c2.1,1.8,4.5,2.8,7.1,2.9c0.4,0,0.5,0.8,0,0.8c-5.2,0-10.4-4-11.2-10.5
	C236.3,146.3,236.5,146.3,236.5,146.4z"/>
<path class="st3" d="M218.5,157.6c1.9,0.9,3.7,2.1,5.4,3.4c1.8,1.3,3.4,2.9,5.1,4.3c0.1,0,0,0.2-0.1,0.1c-1.8-1.3-3.7-2.3-5.5-3.6
	c-1.8-1.2-3.5-2.6-5.1-4.1C218.4,157.7,218.4,157.7,218.5,157.6C218.4,157.7,218.4,157.7,218.5,157.6
	C218.4,157.6,218.4,157.6,218.5,157.6C218.5,157.6,218.5,157.6,218.5,157.6z"/>
<path class="st3" d="M217.8,144.5c0.3,1.4,0.6,2.9,0.9,4.3c0.3,1.4,0.5,2.7,0.9,4c0.3,1.3,0.9,2.4,1.7,3.3c0.5,0.5,1,0.9,1.4,1.3
	c0.3,0.2,0.5,0.5,0.8,0.7c0-0.2-0.1-0.4-0.1-0.6c-0.1-0.5-0.2-1.1-0.3-1.7c-0.2-1.2-0.4-2.4-0.6-3.6c-0.4-2.4-0.8-4.8-1.3-7.2
	c0,0,0,0,0-0.1c0,0,0,0,0,0c0,0,0,0,0,0c0,0,0,0,0,0c0.6,2.3,1.2,4.6,1.7,7c0.3,1.2,1.2,6.9,1.3,7.3c0,0.4,0.1,0.8,0.1,1.3
	c0.1,0.4,0.1,0.9,0,1.3c0,0.1-0.1,0.1-0.2,0c-0.2-0.4-0.3-0.7-0.4-1.1c-0.1-0.4-0.2-0.8-0.3-1.2c0-0.1-0.1-0.3-0.1-0.5
	c-0.5-0.3-0.9-0.8-1.4-1.1c-0.4-0.4-1-0.8-1.5-1.2c-0.9-0.8-1.5-1.9-1.8-3.1c-0.3-1.3-0.6-2.7-0.7-4.1c-0.2-1.6-0.4-3.3-0.6-4.9
	C217.6,144.5,217.8,144.4,217.8,144.5z"/>
<path class="st3" d="M264.4,291.7c0.7-0.5,8.2-4.8,9.9-5.7c3.4-1.9,15-7.7,16.1-8.1c0.4-0.2,0.4,0.1,0.1,0.2
	c-1.7,1-8.5,4.8-10.1,5.7c-3.4,1.9-15.5,7.9-16,8.1C264.3,291.8,264.3,291.7,264.4,291.7z"/>
<path class="st3" d="M247.8,143.1c2.8,5.1,4.3,11.1,4.4,17.2c0,1.5-0.1,3.1-0.3,4.6c-0.1,0.4-0.1,0.8-0.2,1.1l-0.1,0.6
	c0,0.2-0.1,0.3-0.1,0.5c0.1,0.7,0.2,1.5,0.4,2.2c0.6,2.9,1.2,5.9,1.9,8.8c2.6,11.7,5.2,23.4,8,35l2,8.7c0.4,1.5,0.7,2.9,1.1,4.3
	c0.2,0.7,0.4,1.4,0.6,2.1c0.2,0.7,0.5,1.3,0.8,2c2.4,5.3,4.9,10.5,7.3,15.8c0,0,12.5,25.5,15.1,31.4c0.1,0.3,0.1,0.4-0.2,0.1
	c-2.2-3.5-10.4-20.7-15.5-31.1c-2.5-5.2-5.1-10.4-7.5-15.8c-0.3-0.7-0.6-1.4-0.9-2.1c-0.3-0.7-0.4-1.5-0.6-2.2
	c-0.4-1.4-0.8-2.9-1.1-4.3c-0.7-2.9-1.4-5.8-2.1-8.7c-2.7-11.7-5.3-23.3-7.8-35.1c-0.6-2.9-1.2-5.9-1.7-8.8
	c-0.1-0.8-0.3-1.5-0.3-2.3c0-0.2,0-0.4,0.1-0.6l0.1-0.5c0.1-0.4,0.1-0.7,0.2-1.1c0.2-1.5,0.3-3,0.3-4.5
	C251.8,154.2,250.5,148.3,247.8,143.1z"/>
<path class="st14" d="M231.1,93.2c-2.6,10.2-15.9,36.3-24.6,38.5c-7,1.8-26-0.2-31-1.3c-1.7-0.4,1.3-24.4,3.3-24.4
	c4.7,0,19.5,6.5,23.6,4.7c1.6-0.7,10.9-10.2,22.1-21.8C228.7,84.4,232.6,87.1,231.1,93.2z"/>
<path class="st14" d="M176.8,130.6c-2.3-0.2-12.9-2.2-15.7-3.6c-2.8-1.4-10.8-6-10.1-8.7s3.1-1.7,3.1-1.7s-3.1-2.6-2.2-5.3
	c0.9-2.7,4.6-0.8,4.6-0.8s-3-3-2-5.6c1-2.6,4.5,0.1,4.5,0.1s-2.9-2.6-1.3-4.3c1.9-2.1,6.7,3.3,10,4.6c0.7,0.3,15.2,4.3,15.2,4.3
	L176.8,130.6z"/>
<path class="st3" d="M158.4,104.9c3.6,4,5.7,5,10.4,6c0.1,0,0.1,0.2,0,0.2c-4.7-0.5-7.5-1.3-10.6-6
	C158.1,104.8,158.2,104.6,158.4,104.9z"/>
<path class="st3" d="M156,110.2c4,3.7,6.3,4.8,11.2,6.4c0,0,0,0,0,0c0,0,0,0,0,0c0,0,0,0,0,0c0,0,0,0,0,0c-4.9-1-7.7-1.9-11.3-6.2
	C155.7,110.3,155.8,110.1,156,110.2z"/>
<path class="st3" d="M154.2,116.7c4.1,3.3,6.6,4.6,11.4,5.4c0,0,0,0,0.1,0c0,0,0,0,0,0.1s0,0.1,0,0.1c0,0,0,0-0.1,0
	c-5-0.2-8.1-1.8-11.5-5.4C153.9,116.6,153.9,116.5,154.2,116.7z"/>
<path class="st2" d="M172,127.4h-42.7V75.7H172V127.4z"/>
<path class="st7" d="M169.9,124.9h-38.5V78.2h38.5V124.9z"/>
<path class="st9" d="M163.7,89.3c0.2,0.9,0.1,1.9-0.3,2.7c-0.3,0.9-0.9,1.6-1.6,2c-0.7,0.4-1.5,0.6-2.2,0.5c-0.8-0.1-1.5-0.6-2-1.2
	c-0.6-0.7-0.9-1.5-1-2.5c-0.1-0.9,0-1.9,0.4-2.7c0.4-0.8,0.9-1.5,1.6-1.9c0.7-0.4,1.5-0.5,2.3-0.3c0.7,0.2,1.4,0.6,1.9,1.2
	C163.2,87.7,163.6,88.5,163.7,89.3z"/>
<path class="st9" d="M159.2,112.8h-27.8l13.9-18.9L159.2,112.8z"/>
<path class="st7" d="M169.9,112.8h-23l11.5-12.3L169.9,112.8z"/>
<g class="st12">
	<path d="M169.9,112.8h-23l11.5-12.3L169.9,112.8z"/>
</g>
<path class="st7" d="M131.4,112.8h38.5v12.1h-38.5V112.8z"/>
<path class="st13" d="M131.4,112.8h38.5v12.1h-38.5V112.8z"/>
<path class="st14" d="M185.6,110.3c0,0-3.6-5.9-5.7-8.1c-2.1-2.2-12.2-6.8-13.2-4.2c-1.2,3.4,4.2,7.4,7.1,9c0,0-2.8,7.8,0.5,11.7
	C177.7,122.7,185.6,110.3,185.6,110.3z"/>
<path class="st3" d="M166.6,99.1c0.7,4,4.6,5.8,7.3,7.6c0,0,0.1,0.1,0.1,0.1c0,0,0,0.1,0.1,0.2c0,0.1,0,0.1,0,0.2
	c0,0.1,0,0.1-0.1,0.1c-1,3.4-1.6,8.4,0.2,11.5c0.1,0.1,0,0.2-0.1,0.1c-2.3-3-2-8-0.7-11.6C170.6,105.5,166.7,103.5,166.6,99.1
	L166.6,99.1z"/>
<path class="st7" d="M186.1,106l0.1,29.7c0,0,14.9-0.5,21.6-3.4c6.7-2.9,19.1-24.1,22.7-33.8c3.6-9.7,1.7-18.2-7.8-9
	c-9.5,9.2-20.3,20.2-20.6,20.4C201.8,110.1,186.1,106,186.1,106z"/>
<path class="st15" d="M225.1,88.2c0,0.1,0,0.3,0.1,0.4s0.2,0.2,0.3,0.3c0.1,0.1,0.2,0.1,0.3,0c0.1,0,0.2-0.1,0.3-0.2
	c0.1-0.1,0.1-0.2,0.2-0.4c0-0.1,0-0.3,0-0.4c0-0.1-0.1-0.2-0.2-0.3c-0.1-0.1-0.2-0.1-0.3-0.1c-0.2,0-0.3,0.1-0.4,0.2
	C225.2,87.9,225.1,88,225.1,88.2z M225.7,103.2c0.2,0,0.3,0.1,0.4,0.2c0.1,0.1,0.2,0.3,0.2,0.5c0,0.2-0.1,0.4-0.2,0.5
	c-0.1,0.1-0.3,0.2-0.4,0.2s-0.3-0.1-0.4-0.2c-0.1-0.1-0.2-0.3-0.2-0.5c0-0.2,0.1-0.4,0.2-0.5C225.4,103.3,225.5,103.2,225.7,103.2z
	 M216.8,103.2c0.2,0,0.3,0.1,0.4,0.2c0.1,0.1,0.2,0.3,0.2,0.5c0,0.2-0.1,0.4-0.2,0.5c-0.1,0.1-0.3,0.2-0.4,0.2
	c-0.2,0-0.3-0.1-0.4-0.2c-0.1-0.1-0.2-0.3-0.2-0.5c0-0.2,0.1-0.4,0.2-0.5C216.5,103.3,216.6,103.2,216.8,103.2z M208.4,103.6
	c0,0.1,0.1,0.2,0.1,0.3c0,0.1,0,0.2-0.1,0.3c-0.1,0.1-0.1,0.2-0.2,0.2c-0.1,0.1-0.2,0.1-0.3,0.1c-0.1,0-0.2,0-0.3-0.1
	C207.8,104.1,208.1,103.9,208.4,103.6z M230.1,95.4c0.1,0,0.2,0,0.3,0.1c0.1,0.1,0.2,0.2,0.2,0.3c0,0.1,0.1,0.3,0,0.4
	c0,0.1-0.1,0.3-0.2,0.4c-0.1,0.1-0.2,0.2-0.3,0.2c-0.1,0-0.2,0-0.3,0c-0.1-0.1-0.2-0.1-0.3-0.3c-0.1-0.1-0.1-0.2-0.1-0.4
	c0-0.2,0.1-0.4,0.2-0.5C229.8,95.4,230,95.4,230.1,95.4z M221.2,95.4c0.1,0,0.2,0,0.3,0.1c0.1,0.1,0.2,0.2,0.2,0.3
	c0,0.1,0.1,0.3,0,0.4c0,0.1-0.1,0.3-0.2,0.4c-0.1,0.1-0.2,0.2-0.3,0.2c-0.1,0-0.2,0-0.3,0c-0.1-0.1-0.2-0.1-0.3-0.3
	c-0.1-0.1-0.1-0.2-0.1-0.4c0-0.1,0-0.2,0-0.3c0-0.1,0.1-0.2,0.1-0.2c0.1-0.1,0.1-0.1,0.2-0.2C221.1,95.4,221.2,95.4,221.2,95.4
	L221.2,95.4z M216.8,118.9c0.1,0,0.2,0,0.3,0.1c0.1,0.1,0.2,0.2,0.2,0.3c0,0.1,0.1,0.3,0,0.4c0,0.1-0.1,0.3-0.2,0.4
	s-0.2,0.2-0.3,0.2c-0.1,0-0.2,0-0.3,0c-0.1-0.1-0.2-0.1-0.3-0.3c-0.1-0.1-0.1-0.2-0.1-0.4c0-0.1,0-0.2,0-0.3c0-0.1,0.1-0.2,0.1-0.2
	c0.1-0.1,0.1-0.1,0.2-0.1C216.6,118.9,216.7,118.9,216.8,118.9L216.8,118.9z M207.9,118.9c0.1,0,0.2,0,0.3,0.1
	c0.1,0.1,0.2,0.2,0.2,0.3c0,0.1,0.1,0.3,0,0.4c0,0.1-0.1,0.3-0.2,0.4c-0.1,0.1-0.2,0.2-0.3,0.2c-0.1,0-0.2,0-0.3,0
	c-0.1-0.1-0.2-0.1-0.3-0.3c-0.1-0.1-0.1-0.2-0.1-0.4c0-0.2,0.1-0.3,0.2-0.5C207.6,118.9,207.8,118.9,207.9,118.9L207.9,118.9z
	 M199.1,118.9c0.1,0,0.2,0,0.2,0c0.1,0,0.1,0.1,0.2,0.1c0.1,0.1,0.1,0.1,0.1,0.2c0,0.1,0.1,0.2,0.1,0.3s0,0.2-0.1,0.3
	c0,0.1-0.1,0.2-0.1,0.2c-0.1,0.1-0.1,0.1-0.2,0.1c-0.1,0-0.2,0-0.2,0c-0.1,0-0.2,0-0.2,0c-0.1,0-0.1-0.1-0.2-0.1
	c-0.1-0.1-0.1-0.1-0.1-0.2c0-0.1-0.1-0.2-0.1-0.3s0-0.2,0.1-0.3c0-0.1,0.1-0.2,0.1-0.2c0.1-0.1,0.1-0.1,0.2-0.1
	C198.9,118.9,199,118.8,199.1,118.9z M190.2,118.9c0.1,0,0.2,0,0.3,0.1s0.2,0.2,0.2,0.3c0,0.1,0.1,0.3,0,0.4s-0.1,0.3-0.2,0.4
	s-0.2,0.2-0.3,0.2c-0.1,0-0.2,0-0.3,0c-0.1-0.1-0.2-0.1-0.3-0.3c-0.1-0.1-0.1-0.2-0.1-0.4c0-0.2,0-0.3,0.1-0.5
	C189.9,119,190,118.9,190.2,118.9L190.2,118.9z M221.3,111c0.1,0,0.2,0,0.3,0.1c0.1,0.1,0.2,0.2,0.2,0.3c0,0.1,0.1,0.3,0,0.4
	c0,0.1-0.1,0.3-0.2,0.4s-0.2,0.2-0.3,0.2c-0.1,0-0.2,0-0.3,0c-0.1-0.1-0.2-0.1-0.3-0.3c-0.1-0.1-0.1-0.2-0.1-0.4
	c0-0.2,0-0.3,0.1-0.5C221,111.2,221.1,111.1,221.3,111L221.3,111z M212.5,111c0.1,0,0.2,0,0.3,0.1c0.1,0.1,0.2,0.2,0.2,0.3
	c0,0.1,0.1,0.3,0,0.4c0,0.1-0.1,0.3-0.2,0.4c-0.1,0.1-0.2,0.2-0.3,0.2c-0.1,0-0.2,0-0.3,0c-0.1-0.1-0.2-0.1-0.3-0.3
	c-0.1-0.1-0.1-0.2-0.1-0.4c0-0.2,0-0.3,0.1-0.4c0.1-0.1,0.2-0.2,0.3-0.2H212.5z M203.6,111c0.1,0,0.2,0,0.3,0.1
	c0.1,0.1,0.2,0.2,0.2,0.3c0,0.1,0.1,0.3,0,0.4c0,0.1-0.1,0.3-0.2,0.4s-0.2,0.2-0.3,0.2c-0.1,0-0.2,0-0.3,0c-0.1-0.1-0.2-0.1-0.3-0.3
	c-0.1-0.1-0.1-0.2-0.1-0.4c0-0.2,0-0.3,0.1-0.4c0.1-0.1,0.2-0.2,0.3-0.3H203.6z M194.8,111c0.1,0,0.2,0,0.3,0.1
	c0.1,0.1,0.2,0.2,0.2,0.3c0,0.1,0.1,0.3,0,0.4c0,0.1-0.1,0.3-0.2,0.4s-0.2,0.2-0.3,0.2c-0.1,0-0.2,0-0.3,0c-0.1-0.1-0.2-0.1-0.3-0.3
	s-0.1-0.2-0.1-0.4c0-0.2,0-0.3,0.1-0.4c0.1-0.1,0.2-0.2,0.3-0.3H194.8z M186.4,111.7c0,0.1,0,0.3-0.1,0.4v-0.8c0,0.1,0,0.3-0.1,0.4
	H186.4z M190.3,134.5c0.1,0,0.1,0,0.2,0.1c0.1,0,0.1,0.1,0.2,0.1c0.1,0.1,0.1,0.1,0.1,0.2c0,0.1,0,0.2,0,0.3c0,0.1,0,0.2,0,0.2
	l-1,0.1c0-0.1-0.1-0.2-0.1-0.3c0-0.1,0-0.3,0.1-0.4c0.1-0.1,0.2-0.2,0.3-0.3H190.3z M212.5,126.7c0.1,0,0.2,0,0.3,0.1
	c0.1,0.1,0.2,0.2,0.2,0.3c0,0.1,0.1,0.3,0,0.4c0,0.1-0.1,0.3-0.2,0.4c-0.1,0.1-0.2,0.2-0.3,0.2c-0.1,0-0.2,0-0.3,0
	c-0.1-0.1-0.2-0.1-0.3-0.3c-0.1-0.1-0.1-0.2-0.1-0.4c0-0.2,0-0.3,0.1-0.4c0.1-0.1,0.2-0.2,0.3-0.3H212.5z M203.7,126.7
	c0.1,0,0.2,0,0.3,0.1c0.1,0.1,0.2,0.2,0.2,0.3c0,0.1,0.1,0.3,0,0.4c0,0.1-0.1,0.3-0.2,0.4s-0.2,0.2-0.3,0.2c-0.1,0-0.2,0-0.3,0
	c-0.1-0.1-0.2-0.1-0.3-0.3c-0.1-0.1-0.1-0.2-0.1-0.4c0-0.1,0-0.3,0.1-0.4c0.1-0.1,0.2-0.2,0.3-0.3H203.7z M194.8,126.7
	c0.1,0,0.2,0,0.3,0.1c0.1,0.1,0.2,0.2,0.2,0.3c0,0.1,0.1,0.3,0,0.4c0,0.1-0.1,0.3-0.2,0.4s-0.2,0.2-0.3,0.2c-0.1,0-0.2,0-0.3,0
	c-0.1-0.1-0.2-0.1-0.3-0.3c-0.1-0.1-0.1-0.2-0.1-0.4c0-0.1,0-0.3,0.1-0.4c0.1-0.1,0.2-0.2,0.3-0.3H194.8z M186.5,127.4
	c0,0.1,0,0.2,0,0.3v-0.5c0,0.1-0.1,0.2-0.2,0.3H186.5z"/>
<path class="st3" d="M191.1,121.3c0-2.1-0.1-10.6-0.2-12.7c0-0.1-0.1,0-0.1,0c-0.2,2.1-0.2,10.6-0.2,12.8c0,4.3,0,8.5,0.2,12.8
	c0,0.1,0.1,0.1,0.1,0C191.1,129.9,191.1,125.6,191.1,121.3z"/>
<path class="st9" d="M195.9,134.9c4.2-0.5,9-1.3,12-2.6c6.7-2.9,19.1-24.1,22.7-33.8c3.1-8.3,2.1-15.7-4.2-12L195.9,134.9z"/>
<path class="st16" d="M215.6,121.3l-2.6,23.2l7.4,0l2.1-4.7l3,4.7c9.6,0,21.9-0.1,26.3-0.5c0,0-6.6-43.2-14.9-54
	c-4.2-5.4-9.1-5-12.1-1.1c-0.8,1-10.1,16.1-11,21.8C212.9,115.7,215.6,121.3,215.6,121.3z"/>
<path class="st7" d="M251.8,144c-4.5,0.4-16.8,0.5-26.3,0.5l-3-4.7l-2.1,4.7l-7.4,0l2.6-23.2c0,0-2.7-5.6-1.9-10.6
	c0.5-3.1,3.6-9.1,6.3-14c0-0.1,0.1-0.1,0.1-0.2c2.2-4,4.3-7.2,4.6-7.6c3-3.7,7.6-4.3,11.6,0.5c0,0,0.1,0.1,0.1,0.1
	c0.1,0.1,0.3,0.3,0.4,0.5c1.3,1.8,2.4,3.8,3.3,6l0.1,0.3c2.2,5.7,4.1,11.6,5.5,17.7c0,0.1,0,0.2,0.1,0.2
	C249.5,128.8,251.8,144,251.8,144z"/>
<path class="st15" d="M234,88.2c0,0.1,0,0.3,0.1,0.4c0.1,0.1,0.2,0.2,0.3,0.3c0.1,0.1,0.2,0.1,0.3,0c0.1,0,0.2-0.1,0.3-0.2
	c0.1-0.1,0.1-0.2,0.2-0.4c0-0.1,0-0.3,0-0.4c0-0.1-0.1-0.2-0.2-0.3c-0.1-0.1-0.2-0.1-0.3-0.1c-0.2,0-0.3,0.1-0.4,0.2
	C234.1,87.9,234,88,234,88.2z M225.9,87.6c0.1,0,0.2,0.1,0.2,0.2c0.1,0.1,0.1,0.2,0.1,0.3c0,0.1,0,0.2,0,0.3c0,0.1-0.1,0.2-0.2,0.3
	c-0.1,0.1-0.2,0.1-0.3,0.1c-0.1,0-0.2,0-0.3,0c-0.1,0-0.2-0.1-0.2-0.2s-0.1-0.2-0.1-0.3C225.4,88.1,225.6,87.8,225.9,87.6z
	 M242.9,103.5c0.1,0.3,0.2,0.7,0.3,1c-0.1,0-0.2-0.1-0.3-0.3c-0.1-0.1-0.1-0.3-0.1-0.4C242.9,103.8,242.9,103.6,242.9,103.5
	L242.9,103.5z M234.6,103.2c0.1,0,0.2,0,0.3,0.1c0.1,0.1,0.2,0.2,0.2,0.3c0,0.1,0.1,0.3,0,0.4c0,0.1-0.1,0.3-0.2,0.4
	c-0.1,0.1-0.2,0.2-0.3,0.2c-0.1,0-0.2,0-0.3,0c-0.1-0.1-0.2-0.1-0.3-0.3s-0.1-0.2-0.1-0.4c0-0.1,0-0.2,0-0.3s0.1-0.2,0.1-0.2
	c0.1-0.1,0.1-0.1,0.2-0.2C234.4,103.2,234.5,103.2,234.6,103.2L234.6,103.2z M225.7,103.2c0.2,0,0.3,0.1,0.4,0.2
	c0.1,0.1,0.2,0.3,0.2,0.5c0,0.2-0.1,0.4-0.2,0.5c-0.1,0.1-0.3,0.2-0.4,0.2c-0.2,0-0.3-0.1-0.4-0.2c-0.1-0.1-0.2-0.3-0.2-0.5
	c0-0.2,0.1-0.4,0.2-0.5C225.4,103.3,225.5,103.2,225.7,103.2z M216.5,103.3c0.1-0.1,0.2-0.1,0.3-0.1c0.2,0,0.3,0.1,0.4,0.2
	c0.1,0.1,0.2,0.3,0.2,0.5c0,0.2-0.1,0.3-0.2,0.4c-0.1,0.1-0.2,0.2-0.4,0.2c-0.1,0-0.3-0.1-0.4-0.2s-0.2-0.3-0.2-0.4L216.5,103.3z
	 M239,95.4c0.1,0,0.2,0,0.3,0.1c0.1,0.1,0.2,0.2,0.2,0.3c0,0.1,0.1,0.3,0,0.4c0,0.1-0.1,0.3-0.2,0.4c-0.1,0.1-0.2,0.2-0.3,0.2
	c-0.1,0-0.2,0-0.3,0c-0.1-0.1-0.2-0.1-0.3-0.3c-0.1-0.1-0.1-0.2-0.1-0.4c0-0.2,0.1-0.3,0.2-0.5C238.7,95.5,238.8,95.4,239,95.4
	L239,95.4z M230.2,95.4c0.1,0,0.2,0,0.3,0.1c0.1,0.1,0.2,0.2,0.2,0.3c0,0.1,0.1,0.3,0,0.4c0,0.1-0.1,0.3-0.2,0.4
	c-0.1,0.1-0.2,0.2-0.3,0.2c-0.1,0-0.2,0-0.3,0c-0.1-0.1-0.2-0.1-0.3-0.3c-0.1-0.1-0.1-0.2-0.1-0.4c0-0.2,0.1-0.3,0.2-0.5
	C229.8,95.5,230,95.4,230.2,95.4L230.2,95.4z M221.3,95.4c0.1,0,0.2,0,0.3,0.1c0.1,0.1,0.2,0.2,0.2,0.3c0,0.1,0.1,0.3,0,0.4
	c0,0.1-0.1,0.3-0.2,0.4c-0.1,0.1-0.2,0.2-0.3,0.2c-0.1,0-0.2,0-0.3,0s-0.2-0.1-0.3-0.3c-0.1-0.1-0.1-0.2-0.1-0.4
	c0-0.2,0.1-0.3,0.2-0.5C221,95.5,221.1,95.4,221.3,95.4L221.3,95.4z M243.5,118.9c0.1,0,0.2,0,0.3,0.1c0.1,0.1,0.2,0.2,0.2,0.3
	c0,0.1,0.1,0.3,0,0.4c0,0.1-0.1,0.3-0.2,0.4s-0.2,0.2-0.3,0.2c-0.1,0-0.2,0-0.3,0c-0.1-0.1-0.2-0.1-0.3-0.3
	c-0.1-0.1-0.1-0.2-0.1-0.4c0-0.2,0.1-0.3,0.2-0.5C243.2,118.9,243.3,118.9,243.5,118.9L243.5,118.9z M234.6,118.9
	c0.1,0,0.2,0,0.3,0.1c0.1,0.1,0.2,0.2,0.2,0.3c0,0.1,0.1,0.3,0,0.4c0,0.1-0.1,0.3-0.2,0.4c-0.1,0.1-0.2,0.2-0.3,0.2
	c-0.1,0-0.2,0-0.3,0c-0.1-0.1-0.2-0.1-0.3-0.3c-0.1-0.1-0.1-0.2-0.1-0.4c0-0.2,0.1-0.3,0.1-0.5C234.3,119,234.4,118.9,234.6,118.9
	L234.6,118.9z M225.8,118.9c0.1,0,0.2,0,0.3,0.1c0.1,0.1,0.2,0.2,0.2,0.3c0,0.1,0.1,0.3,0,0.4c0,0.1-0.1,0.3-0.2,0.4
	c-0.1,0.1-0.2,0.2-0.3,0.2c-0.1,0-0.2,0-0.3,0c-0.1-0.1-0.2-0.1-0.3-0.3c-0.1-0.1-0.1-0.2-0.1-0.4c0-0.2,0-0.3,0.1-0.5
	C225.4,119,225.5,118.9,225.8,118.9L225.8,118.9z M216.9,118.9c0.1,0,0.2,0,0.3,0.1c0.1,0.1,0.2,0.2,0.2,0.3c0,0.1,0.1,0.3,0,0.4
	c0,0.1-0.1,0.3-0.2,0.4s-0.2,0.2-0.3,0.2c-0.1,0-0.2,0-0.3,0c-0.1-0.1-0.2-0.1-0.3-0.3c-0.1-0.1-0.1-0.2-0.1-0.4
	c0-0.2,0-0.3,0.1-0.5C216.5,119,216.7,118.9,216.9,118.9L216.9,118.9z M239,111c0.1,0,0.2,0,0.3,0.1c0.1,0.1,0.2,0.2,0.2,0.3
	c0,0.1,0.1,0.3,0,0.4c0,0.1-0.1,0.3-0.2,0.4s-0.2,0.2-0.3,0.2c-0.1,0-0.2,0-0.3,0c-0.1-0.1-0.2-0.1-0.3-0.3
	c-0.1-0.1-0.1-0.2-0.1-0.4c0-0.2,0.1-0.4,0.2-0.5C238.7,111.1,238.8,111,239,111z M230.1,111c0.1,0,0.2,0,0.2,0
	c0.1,0,0.1,0.1,0.2,0.1c0.1,0.1,0.1,0.1,0.1,0.2c0,0.1,0.1,0.2,0.1,0.3c0,0.1,0,0.2-0.1,0.3s-0.1,0.2-0.1,0.2
	c-0.1,0.1-0.1,0.1-0.2,0.1c-0.1,0-0.2,0-0.2,0c-0.1,0-0.2,0-0.2,0c-0.1,0-0.1-0.1-0.2-0.1c-0.1-0.1-0.1-0.1-0.1-0.2
	c0-0.1-0.1-0.2-0.1-0.3c0-0.1,0-0.2,0.1-0.3c0-0.1,0.1-0.2,0.1-0.2c0.1-0.1,0.1-0.1,0.2-0.1C230,111,230,111,230.1,111z M221.2,111
	c0.1,0,0.2,0,0.3,0.1c0.1,0.1,0.2,0.2,0.2,0.3c0,0.1,0.1,0.3,0,0.4c0,0.1-0.1,0.3-0.2,0.4s-0.2,0.2-0.3,0.2c-0.1,0-0.2,0-0.3,0
	c-0.1-0.1-0.2-0.1-0.3-0.3s-0.1-0.2-0.1-0.4c0-0.1,0-0.2,0-0.3c0-0.1,0.1-0.2,0.1-0.2c0.1-0.1,0.1-0.1,0.2-0.2
	C221.1,111.1,221.2,111,221.2,111L221.2,111z M243.5,134.5c0.1,0,0.2,0,0.3,0.1c0.1,0.1,0.2,0.2,0.2,0.3c0,0.1,0.1,0.3,0,0.4
	c0,0.1-0.1,0.3-0.2,0.4s-0.2,0.2-0.3,0.2c-0.1,0-0.2,0-0.3,0c-0.1-0.1-0.2-0.1-0.3-0.3c-0.1-0.1-0.1-0.2-0.1-0.4
	c0-0.2,0.1-0.4,0.2-0.5C243.2,134.6,243.3,134.5,243.5,134.5L243.5,134.5z M234.6,134.5c0.1,0,0.2,0,0.3,0.1
	c0.1,0.1,0.2,0.2,0.2,0.3c0,0.1,0.1,0.3,0,0.4c0,0.1-0.1,0.3-0.2,0.4c-0.1,0.1-0.2,0.2-0.3,0.2c-0.1,0-0.2,0-0.3,0
	c-0.1-0.1-0.2-0.1-0.3-0.3c-0.1-0.1-0.1-0.2-0.1-0.4c0-0.2,0.1-0.3,0.2-0.5C234.3,134.6,234.4,134.5,234.6,134.5L234.6,134.5z
	 M225.7,134.5c0.1,0,0.2,0,0.3,0.1c0.1,0.1,0.2,0.2,0.2,0.3c0,0.1,0.1,0.3,0,0.4c0,0.1-0.1,0.3-0.2,0.4s-0.2,0.2-0.3,0.2
	c-0.1,0-0.2,0-0.3,0c-0.1-0.1-0.2-0.1-0.3-0.3c-0.1-0.1-0.1-0.2-0.1-0.4c0-0.2,0.1-0.3,0.1-0.5C225.4,134.6,225.5,134.5,225.7,134.5
	L225.7,134.5z M216.9,134.5c0.1,0,0.2,0,0.3,0.1c0.1,0.1,0.2,0.2,0.2,0.3c0,0.1,0.1,0.3,0,0.4c0,0.1-0.1,0.3-0.2,0.4
	s-0.2,0.2-0.3,0.2c-0.1,0-0.2,0-0.3,0c-0.1-0.1-0.2-0.1-0.3-0.3c-0.1-0.1-0.1-0.2-0.1-0.4c0-0.2,0.1-0.3,0.1-0.5
	C216.5,134.6,216.6,134.5,216.9,134.5L216.9,134.5z M247.9,126.7c0.1,0,0.2,0,0.3,0.1c0.1,0.1,0.2,0.2,0.2,0.3c0,0.1,0.1,0.3,0,0.4
	c0,0.1-0.1,0.3-0.2,0.4s-0.2,0.2-0.3,0.2c-0.1,0-0.2,0-0.3,0c-0.1-0.1-0.2-0.1-0.3-0.3c-0.1-0.1-0.1-0.2-0.1-0.4
	c0-0.2,0.1-0.3,0.1-0.5C247.6,126.8,247.7,126.7,247.9,126.7L247.9,126.7z M239.1,126.7c0.1,0,0.2,0,0.3,0.1
	c0.1,0.1,0.2,0.2,0.2,0.3c0,0.1,0.1,0.3,0,0.4c0,0.1-0.1,0.3-0.2,0.4c-0.1,0.1-0.2,0.2-0.3,0.2c-0.1,0-0.2,0-0.3,0
	c-0.1-0.1-0.2-0.1-0.3-0.3c-0.1-0.1-0.1-0.2-0.1-0.4c0-0.2,0-0.3,0.1-0.4c0.1-0.1,0.2-0.2,0.3-0.2H239.1z M230.2,126.7
	c0.2,0,0.3,0.1,0.4,0.2c0.1,0.1,0.2,0.3,0.2,0.5c0,0.2-0.1,0.4-0.2,0.5s-0.3,0.2-0.4,0.2c-0.2,0-0.3-0.1-0.4-0.2
	c-0.1-0.1-0.2-0.3-0.2-0.5c0-0.2,0.1-0.4,0.2-0.5C229.9,126.8,230.1,126.7,230.2,126.7z M221.3,126.7c0.2,0,0.3,0.1,0.4,0.2
	c0.1,0.1,0.2,0.3,0.2,0.5c0,0.2-0.1,0.4-0.2,0.5c-0.1,0.1-0.3,0.2-0.4,0.2c-0.2,0-0.3-0.1-0.4-0.2c-0.1-0.1-0.2-0.3-0.2-0.5
	c0-0.2,0.1-0.4,0.2-0.5C221.1,126.8,221.2,126.7,221.3,126.7z M248,142.4c0.1,0,0.2,0,0.3,0.1c0.1,0.1,0.2,0.2,0.2,0.3
	c0,0.1,0.1,0.3,0,0.4c0,0.1-0.1,0.3-0.2,0.4s-0.2,0.2-0.3,0.2c-0.1,0-0.2,0-0.3,0c-0.1-0.1-0.2-0.1-0.3-0.3s-0.1-0.2-0.1-0.4
	c0-0.2,0-0.3,0.1-0.5c0.1-0.1,0.2-0.2,0.3-0.2L248,142.4z M239.1,142.4c0.1,0,0.2,0,0.3,0.1c0.1,0.1,0.2,0.2,0.2,0.3
	c0,0.1,0.1,0.3,0,0.4c0,0.1-0.1,0.3-0.2,0.4s-0.2,0.2-0.3,0.2c-0.1,0-0.2,0-0.3,0c-0.1-0.1-0.2-0.1-0.3-0.3
	c-0.1-0.1-0.1-0.2-0.1-0.4c0-0.2,0-0.3,0.1-0.4c0.1-0.1,0.2-0.2,0.3-0.3L239.1,142.4z M230.3,142.4c0.1,0,0.2,0,0.3,0.1
	c0.1,0.1,0.2,0.2,0.2,0.3c0,0.1,0.1,0.3,0,0.4c0,0.1-0.1,0.3-0.2,0.4s-0.2,0.2-0.3,0.2c-0.1,0-0.2,0-0.3,0c-0.1-0.1-0.2-0.1-0.3-0.3
	c-0.1-0.1-0.1-0.2-0.1-0.4c0-0.2,0-0.3,0.1-0.4c0.1-0.1,0.2-0.2,0.3-0.3L230.3,142.4z M221.4,142.4h0.1l-0.5,1.2
	c-0.1-0.1-0.1-0.1-0.1-0.2c0-0.1,0-0.2,0-0.3c0-0.2,0-0.3,0.1-0.4c0.1-0.1,0.2-0.2,0.3-0.3L221.4,142.4z"/>
<path class="st3" d="M214.3,133.6c0.3-2.1,0.6-3.8,0.9-5.9c0.3-2.1,0.6-4.2,0.8-6.4v-0.1l-0.1-0.1c-0.9-1.6-1.5-3.5-1.8-5.4
	c-0.2-0.9-0.2-1.9-0.2-2.9c0-1,0.1-1.9,0.4-2.8c0.5-1.9,1.1-3.7,1.9-5.4c0.8-1.8,1.4-3.2,2.2-5c0.1-0.3,0.1-0.3-0.1-0.1
	c-0.8,1.4-1.8,3.3-2.5,4.8c-0.9,1.7-1.6,3.5-2.2,5.4c-0.3,1-0.4,2-0.4,3c0,1,0,2.1,0.2,3.1c0.3,2,1,3.9,1.9,5.6l-0.1-0.3
	c-0.2,2.1-0.4,4.3-0.6,6.4c-0.2,1.9-0.4,4-0.5,5.9C214.2,133.8,214.1,134.3,214.3,133.6z"/>
<path class="st3" d="M216.8,101.2c-0.3,0.6-0.6,1.3-0.9,2c-0.1,0.3-0.2,0.7-0.3,1.1c-0.1,0.4-0.1,0.7-0.1,1.1c0.3-0.7,0.5-1.4,0.7-2
	C216.5,102.6,216.7,101.9,216.8,101.2z"/>
<path class="st3" d="M230.9,123.1c-1.3-0.4-2.7-0.7-4.1-0.9c-0.7-0.1-1.4-0.2-2-0.2h-1c-0.4,0-0.7,0-1.1,0c0,0,0,0.1,0,0.1
	c0.3,0,0.7,0.1,1,0.2l1,0.1l2,0.3c1.4,0.2,2.7,0.4,4.1,0.6c0,0,0,0,0,0C230.9,123.2,230.9,123.2,230.9,123.1
	C230.9,123.1,230.9,123.1,230.9,123.1C230.9,123.1,230.9,123.1,230.9,123.1z"/>
<path class="st14" d="M237.9,91.7c7.2,11.7,20.8,39.5,16.2,45.6c-7.5,10.1-25.6,18.7-31.2,20.4c-2.5,0.7-10.7-20.7-8.3-22.4
	c2.8-2,22.2-9.2,22.1-11.2c0-1.1-2-10.6-3.7-22.8C231,87,234.5,86.1,237.9,91.7z"/>
<path class="st14" d="M223.4,133.9c0,0-7.3-2.8-12.2-4.4c-2.7-0.9-7.5-1.9-9.7-1.4c-3.3,0.7-17,6.1-15.9,10.1
	c0.9,3.6,12.1-2.8,12.1-2.8s-11.8,5.3-10,9.4c1.8,4.1,13.6-5.2,13.6-5.2s-12,5.8-9.6,9.7c1.8,3,12.9-4.8,12.9-4.8s-10.3,5.1-8.5,8.2
	c1.9,3.5,12.6-2.9,12.6-2.9c5.5,7.1,10.6,8,14.2,7.7C223.8,157.5,223.4,133.9,223.4,133.9z"/>
<path class="st3" d="M201.7,133.3c-1.4,0.6-2.8,1.1-4.2,1.8c-1.4,0.7-2.7,1.5-4,2.3c-1.7,1.1-3.3,2.4-4.8,3.9c2.8-2.5,7.6-5.1,9-5.8
	C199.1,134.8,200.4,134,201.7,133.3C201.8,133.3,201.7,133.2,201.7,133.3z"/>
<path class="st3" d="M203.9,139.1c-3.6,1.3-7,3.1-10.3,5.4c-0.1,0.1-0.1,0.1,0.1,0.1C195.4,143.7,202.4,140.2,203.9,139.1
	L203.9,139.1z"/>
<path class="st3" d="M206.5,143.8c-2.6,1-5.1,2.4-7.5,4.1c-0.1,0.1,0,0.1,0.1,0.1c2.4-1.4,4.1-2.2,7.4-4.1
	C206.6,143.9,206.6,143.8,206.5,143.8z"/>
<path class="st7" d="M221,131.6l10.4,28.3c0,0,20.1-15.2,23.7-23.5c3.3-7.4-12.4-37.8-16-43.7c-3.6-5.9-7.2-6.9-6.8,3
	c0.4,9.9,3.8,27.8,3.8,28.1C236.1,124,221,131.6,221,131.6z"/>
<path class="st15" d="M234,88.3c0,0.2,0.1,0.3,0.2,0.4c0.1,0.1,0.2,0.2,0.4,0.2c0.1,0,0.3,0,0.4-0.1c0.1-0.1,0.2-0.2,0.2-0.4
	C234.8,88.2,234.4,88.2,234,88.3z M243.4,103.2c0.1,0,0.2,0,0.3,0.1c0.1,0.1,0.2,0.2,0.2,0.3c0,0.1,0.1,0.3,0,0.4
	c0,0.1-0.1,0.3-0.2,0.4s-0.2,0.2-0.3,0.2c-0.1,0-0.2,0-0.3,0c-0.1-0.1-0.2-0.1-0.3-0.3s-0.1-0.2-0.1-0.4c0-0.2,0.1-0.4,0.2-0.5
	C243.1,103.3,243.3,103.2,243.4,103.2z M234.6,103.2c0.1,0,0.2,0,0.3,0.1c0.1,0.1,0.2,0.2,0.2,0.3c0,0.1,0.1,0.3,0,0.4
	c0,0.1-0.1,0.3-0.2,0.4s-0.2,0.2-0.3,0.2c-0.1,0-0.2,0-0.3,0c-0.1-0.1-0.2-0.1-0.3-0.3c-0.1-0.1-0.1-0.2-0.1-0.4
	c0-0.2,0.1-0.3,0.2-0.5C234.3,103.3,234.4,103.2,234.6,103.2L234.6,103.2z M239,95.4c0.1,0,0.2,0,0.3,0.1c0.1,0.1,0.2,0.2,0.2,0.3
	c0,0.1,0.1,0.3,0,0.4c0,0.1-0.1,0.3-0.2,0.4c-0.1,0.1-0.2,0.2-0.3,0.2c-0.1,0-0.2,0-0.3,0c-0.1-0.1-0.2-0.1-0.3-0.3
	c-0.1-0.1-0.1-0.2-0.1-0.4c0-0.2,0.1-0.4,0.2-0.5C238.7,95.4,238.8,95.4,239,95.4z M251.9,119.2c0.1,0.4,0.3,0.7,0.4,1.1
	c-0.1,0-0.2-0.1-0.3-0.1c-0.1-0.1-0.1-0.2-0.2-0.3c0-0.1-0.1-0.2,0-0.3C251.8,119.4,251.8,119.3,251.9,119.2z M243.4,118.9
	c0.1,0,0.2,0,0.3,0.1c0.1,0.1,0.2,0.2,0.2,0.3c0,0.1,0.1,0.3,0,0.4c0,0.1-0.1,0.3-0.2,0.4s-0.2,0.2-0.3,0.2c-0.1,0-0.2,0-0.3,0
	c-0.1-0.1-0.2-0.1-0.3-0.3c-0.1-0.1-0.1-0.2-0.1-0.4c0-0.2,0.1-0.4,0.2-0.5C243.1,118.9,243.3,118.9,243.4,118.9z M247.9,111
	c0.1,0,0.2,0,0.3,0.1c0.1,0.1,0.2,0.2,0.2,0.3c0,0.1,0.1,0.3,0,0.4c0,0.1-0.1,0.3-0.2,0.4c-0.1,0.1-0.2,0.2-0.3,0.2
	c-0.1,0-0.2,0-0.3,0c-0.1-0.1-0.2-0.1-0.3-0.3c-0.1-0.1-0.1-0.2-0.1-0.4c0-0.1,0-0.2,0-0.3c0-0.1,0.1-0.2,0.1-0.2
	c0.1-0.1,0.1-0.1,0.2-0.2C247.7,111.1,247.8,111,247.9,111z M239,111c0.1,0,0.2,0,0.3,0.1c0.1,0.1,0.2,0.2,0.2,0.3
	c0,0.1,0.1,0.3,0,0.4c0,0.1-0.1,0.3-0.2,0.4s-0.2,0.2-0.3,0.2c-0.1,0-0.2,0-0.3,0c-0.1-0.1-0.2-0.1-0.3-0.3s-0.1-0.2-0.1-0.4
	c0-0.2,0.1-0.3,0.1-0.5C238.7,111.1,238.8,111.1,239,111L239,111z M252.4,134.5c0.2,0,0.3,0.1,0.4,0.2c0.1,0.1,0.2,0.3,0.2,0.5
	c0,0.2-0.1,0.4-0.2,0.5c-0.1,0.1-0.3,0.2-0.4,0.2c-0.2,0-0.3-0.1-0.4-0.2c-0.1-0.1-0.2-0.3-0.2-0.5c0-0.2,0.1-0.4,0.2-0.5
	C252.1,134.6,252.2,134.5,252.4,134.5z M243.5,134.5c0.1,0,0.2,0,0.3,0.1c0.1,0.1,0.2,0.2,0.2,0.3c0,0.1,0.1,0.3,0,0.4
	c0,0.1-0.1,0.3-0.2,0.4s-0.2,0.2-0.3,0.2c-0.1,0-0.2,0-0.3,0c-0.1-0.1-0.2-0.1-0.3-0.3c-0.1-0.1-0.1-0.2-0.1-0.4
	c0-0.2,0.1-0.3,0.2-0.5C243.2,134.6,243.3,134.5,243.5,134.5L243.5,134.5z M234.6,134.5c0.1,0,0.2,0,0.3,0.1
	c0.1,0.1,0.2,0.2,0.2,0.3c0,0.1,0.1,0.3,0,0.4c0,0.1-0.1,0.3-0.2,0.4s-0.2,0.2-0.3,0.2c-0.1,0-0.2,0-0.3,0c-0.1-0.1-0.2-0.1-0.3-0.3
	c-0.1-0.1-0.1-0.2-0.1-0.4c0-0.2,0.1-0.3,0.1-0.5C234.3,134.6,234.4,134.5,234.6,134.5L234.6,134.5z M225.8,134.5
	c0.1,0,0.2,0,0.3,0.1c0.1,0.1,0.2,0.2,0.2,0.3c0,0.1,0.1,0.3,0,0.4c0,0.1-0.1,0.3-0.2,0.4c-0.1,0.1-0.2,0.2-0.3,0.2
	c-0.1,0-0.2,0-0.3,0c-0.1-0.1-0.2-0.1-0.3-0.3c-0.1-0.1-0.1-0.2-0.1-0.4c0-0.2,0-0.3,0.1-0.4c0.1-0.1,0.2-0.2,0.3-0.2H225.8z
	 M248,126.7c0.1,0,0.2,0,0.3,0.1c0.1,0.1,0.2,0.2,0.2,0.3c0,0.1,0.1,0.3,0,0.4c0,0.1-0.1,0.3-0.2,0.4s-0.2,0.2-0.3,0.2
	c-0.1,0-0.2,0-0.3,0c-0.1-0.1-0.2-0.1-0.3-0.3c-0.1-0.1-0.1-0.2-0.1-0.4c0-0.2,0-0.3,0.1-0.4c0.1-0.1,0.2-0.2,0.3-0.2H248z
	 M239.1,126.7c0.1,0,0.2,0,0.3,0.1c0.1,0.1,0.2,0.2,0.2,0.3c0,0.1,0.1,0.3,0,0.4c0,0.1-0.1,0.3-0.2,0.4s-0.2,0.2-0.3,0.2
	c-0.1,0-0.2,0-0.3,0c-0.1-0.1-0.2-0.1-0.3-0.3c-0.1-0.1-0.1-0.2-0.1-0.4c0-0.2,0-0.3,0.1-0.4c0.1-0.1,0.2-0.2,0.3-0.3H239.1z
	 M229.7,127.3l0.9-0.4c0.1,0.1,0.2,0.2,0.2,0.3c0,0.1,0,0.3,0,0.4c0,0.1-0.1,0.3-0.2,0.4c-0.1,0.1-0.2,0.1-0.3,0.1
	c-0.2,0-0.3-0.1-0.4-0.2c-0.1-0.1-0.2-0.3-0.2-0.5c0,0-0.1-0.1-0.1-0.1H229.7z M234.7,150.2c0.1,0,0.2,0,0.3,0.1
	c0.1,0.1,0.2,0.2,0.2,0.3c0,0.1,0.1,0.3,0,0.4c0,0.1-0.1,0.3-0.2,0.4s-0.2,0.2-0.3,0.2c-0.1,0-0.2,0-0.3,0c-0.1-0.1-0.2-0.1-0.3-0.3
	s-0.1-0.2-0.1-0.4c0-0.2,0-0.3,0.1-0.4c0.1-0.1,0.2-0.2,0.3-0.3H234.7z M248,142.4c0.1,0,0.2,0,0.3,0.1c0.1,0.1,0.2,0.2,0.2,0.3
	c0,0.1,0.1,0.3,0,0.4c0,0.1-0.1,0.3-0.2,0.4c-0.1,0.1-0.2,0.2-0.3,0.2c-0.1,0-0.2,0-0.3,0c-0.1-0.1-0.2-0.1-0.3-0.3
	c-0.1-0.1-0.1-0.2-0.1-0.4c0-0.2,0-0.3,0.1-0.4c0.1-0.1,0.2-0.2,0.3-0.3H248z M239.2,142.4c0.1,0,0.2,0,0.3,0.1
	c0.1,0.1,0.2,0.2,0.2,0.3c0,0.1,0.1,0.3,0,0.4c0,0.1-0.1,0.3-0.2,0.4s-0.2,0.2-0.3,0.2c-0.1,0-0.2,0-0.3,0c-0.1-0.1-0.2-0.1-0.3-0.3
	c-0.1-0.1-0.1-0.2-0.1-0.4c0-0.2,0-0.3,0.1-0.4c0.1-0.1,0.2-0.2,0.3-0.3H239.2z M230.3,142.4c0.1,0,0.2,0,0.3,0.1
	c0.1,0.1,0.2,0.2,0.2,0.3c0,0.1,0.1,0.3,0,0.4c0,0.1-0.1,0.3-0.2,0.4s-0.2,0.2-0.3,0.2c-0.1,0-0.2,0-0.3,0c-0.1-0.1-0.2-0.1-0.3-0.3
	c-0.1-0.1-0.1-0.2-0.1-0.4c0-0.2,0-0.3,0.1-0.4c0.1-0.1,0.2-0.2,0.3-0.3H230.3z"/>
<path class="st3" d="M230.8,142.6c-0.8-2.1-3.9-10.6-4.8-12.6c0-0.1-0.1,0-0.1,0.1c0.6,2.2,3.5,10.9,4.3,13c1.5,4.3,3,8.6,4.8,12.7
	c0,0,0,0,0,0c0,0,0,0,0,0c0,0,0,0,0,0c0,0,0,0,0-0.1C233.9,151.3,232.3,146.9,230.8,142.6z"/>
<path class="st3" d="M234.5,112.8c-0.6-3.8-1.1-7.5-1.6-11.3c0,0,0,0,0,0c0,0,0,0,0,0s0,0,0,0c0,0,0,0,0,0c0.1,2.1,0.4,4.3,0.6,6.4
	c-0.3-1.1-0.5-2.2-0.8-3.3c0-0.1-0.1,0-0.1,0c0.2,1.5,0.6,2.9,1,4.3c0.2,1.3,0.3,2.6,0.5,3.9c0.3,1.9,1.7,10.1,1.9,11
	c-2.6,1.1-4.9,2.4-7.5,3.7c-1.3,0.6-2.5,1.3-3.7,1.9c-1.3,0.6-2.6,1.2-3.8,2c-0.1,0,0.2,0.4,0.2,0.6c0.1,0.2,0.2,0.1,0.1,0
	c0-0.1,0-0.2-0.1-0.3c0.6-0.2,3.1-1.5,3.7-1.8l3.7-1.9c2.5-1.3,7.8-3.9,7.8-3.9C236.3,123.2,234.8,114.7,234.5,112.8z"/>
<path class="st14" d="M232.4,87.2c-0.1,0.9-3,7.2-6.4,7.4c-1.1,0.1-1.8-7.1-1.8-7.1l-0.2-0.5l-2.1-7.3l6.7-6.7l1-0.9
	c0,0,0.5,2,1,4.6l0.1,0.4c0,0.1,0.1,0.3,0.1,0.4c0.1,0.4,0.2,0.8,0.3,1.2c0.1,0.4,0.1,0.6,0.2,0.9l0.2,0.9
	C231.9,82.7,232.2,84.9,232.4,87.2z"/>
<path class="st3" d="M230.6,76.7c-0.4,2.2-1.2,4.2-2.4,6c-1.1,1.8-2.6,3.2-4.2,4.3l-2.1-7.3l6.7-6.7l1-0.9
	C229.6,72.2,230.1,74.2,230.6,76.7z"/>
<path class="st14" d="M212.7,67.5c-2,13.3,4.4,16.2,6.8,16.8c2.2,0.5,9.5,1.7,12.6-11.3c3.1-13-1.4-18.3-6.2-19.7
	C221,51.9,214.7,54.2,212.7,67.5z"/>
<path class="st3" d="M214.6,65.5c0.3,0,0.5,0,0.8,0c0.3,0,0.5,0,0.8-0.2c0.1-0.1,0.1-0.2,0.1-0.3c0-0.1,0-0.2,0-0.3
	c-0.1-0.2-0.2-0.3-0.4-0.4c-0.2-0.1-0.3-0.1-0.5-0.1c-0.4,0-0.7,0.2-1,0.4c-0.1,0.1-0.1,0.2-0.1,0.3c0,0.1,0,0.2,0,0.3
	c0,0.1,0.1,0.2,0.1,0.2C214.5,65.5,214.5,65.5,214.6,65.5z"/>
<path class="st3" d="M222.2,67c-0.3-0.1-0.5-0.2-0.7-0.3c-0.3-0.1-0.5-0.3-0.7-0.5c0-0.1-0.1-0.2,0-0.3c0-0.1,0.1-0.2,0.1-0.3
	c0.1-0.1,0.3-0.2,0.5-0.2c0.2,0,0.4,0,0.5,0.1c0.3,0.1,0.6,0.4,0.8,0.8c0,0.1,0.1,0.2,0,0.3c0,0.1,0,0.2-0.1,0.3
	c-0.1,0.1-0.1,0.1-0.2,0.2C222.3,67,222.3,67,222.2,67z"/>
<path class="st3" d="M220,69.9C220,69.9,220.1,70,220,69.9c-0.1,1-0.2,2.1,0.5,2.5c0,0,0,0.1,0,0C219.7,72.1,219.7,70.7,220,69.9z"
	/>
<path class="st3" d="M220.8,69.1c1.2,0.1,0.9,3.1-0.3,3C219.4,72,219.8,69,220.8,69.1z"/>
<path class="st3" d="M221.3,69.3c0.2,0.2,0.4,0.5,0.6,0.6c0.3,0.1,0.6-0.2,0.8-0.4h0c-0.1,0.6-0.3,1.1-0.8,1.1
	c-0.5,0-0.7-0.6-0.8-1.1C221.1,69.4,221.2,69.3,221.3,69.3z"/>
<path class="st3" d="M215.8,69C215.8,69,215.8,69,215.8,69c-0.1,1-0.4,2-1.1,2.2v0C215.6,71.3,215.9,69.9,215.8,69z"/>
<path class="st3" d="M215.3,67.9c-1.2-0.3-1.6,2.6-0.5,2.9C215.9,71.1,216.3,68.2,215.3,67.9z"/>
<path class="st3" d="M214.7,68c-0.2,0.1-0.4,0.4-0.7,0.3c-0.2,0-0.4-0.4-0.5-0.7c0,0,0,0,0,0c-0.1,0.6,0,1.2,0.4,1.4
	c0.4,0.2,0.8-0.2,0.9-0.8C214.9,68.1,214.8,68,214.7,68z"/>
<path class="st3" d="M216.5,73.5c0,0-0.3,1.3-0.4,2c0,0.1,0.1,0.1,0.3,0.2c0.4,0.2,0.9,0.2,1.4,0.1c0.5-0.1,0.9-0.4,1.2-0.8
	c0-0.1,0-0.1-0.1-0.1c-0.7,0.4-1.6,0.6-2.4,0.4c0-0.2,0.6-2.3,0.5-2.3c-0.4,0-0.8,0-1.2,0.1c0.6-2.8,1.6-5.5,2.2-8.3c0,0,0,0,0-0.1
	c0,0,0,0,0,0c0,0,0,0-0.1,0c0,0,0,0,0,0c-1.1,2.8-2,5.7-2.7,8.8C215.1,73.9,216.3,73.6,216.5,73.5z"/>
<path class="st3" d="M231.2,73.4c-2.1,0-2-5.8-2-5.8s-8.6-3.1-8.5-11.9c-1.5,3.4-3.9,5.9-6.9,7.1c0,0,1.3-9.5,7.7-10.4
	c0,0,8.1-2.3,11.7,5.8C236.7,66.3,232.6,73.4,231.2,73.4z"/>
<path class="st3" d="M220.7,55c-0.2,1.3-0.2,2.7,0,4c0.2,1.3,0.7,2.6,1.3,3.7c0.2,0.3,0.3,0.6,0.5,0.8l0.3,0.4l0.3,0.4
	c0.2,0.2,0.4,0.5,0.6,0.7c0.2,0.2,0.4,0.4,0.7,0.6l0.3,0.3l0.4,0.2l0.7,0.5c0.5,0.3,1,0.5,1.6,0.7c-0.5-0.3-1-0.6-1.4-1l-0.7-0.5
	l-0.3-0.3l-0.3-0.3l-0.6-0.6c-0.2-0.2-0.4-0.5-0.6-0.7l-0.3-0.3l-0.3-0.4c-0.2-0.2-0.3-0.5-0.5-0.8c-0.6-1.1-1.1-2.3-1.4-3.5
	c-0.1-0.6-0.2-1.3-0.3-1.9C220.7,56.4,220.7,55.7,220.7,55z"/>
<path class="st14" d="M231.4,77.9c-0.2,0.1-0.3,0.1-0.5,0.1c-0.2,0-0.4,0-0.5,0c-0.2,0-0.4-0.2-0.6-0.3c-0.1-0.1-0.3-0.3-0.4-0.4
	c-0.2-0.2-0.3-0.5-0.4-0.8l0.9-3.5c0,0,2.7-3.9,4.2-2.7C235.6,71.4,233.3,77.3,231.4,77.9z"/>
<path class="st3" d="M233.4,71.8C233.4,71.8,233.4,71.9,233.4,71.8c-1.4,0.6-2.1,1.9-2.7,3.4c0.1-0.1,0.2-0.3,0.3-0.4
	c0.1-0.1,0.3-0.1,0.4-0.2c0.2,0,0.3,0,0.4,0.1c0.1,0.1,0.3,0.2,0.4,0.3c0,0,0,0,0,0c0,0,0,0,0,0c0,0,0,0,0,0c0,0,0,0,0,0
	c-0.2-0.1-0.5-0.1-0.7-0.1c-0.2,0.1-0.4,0.2-0.6,0.4c-0.3,0.4-0.5,0.8-0.7,1.2c-0.1,0.1-0.3,0-0.2-0.1
	C230.1,74.5,231.6,71.8,233.4,71.8z"/>
<path class="st2" d="M231.3,77.3c0,0.1-0.1,0.2-0.2,0.3c-0.1,0.1-0.2,0.1-0.3,0.1c-0.1,0-0.2,0-0.3-0.1s-0.2-0.2-0.2-0.3
	c0-0.1-0.1-0.2-0.1-0.4c0-0.1,0.1-0.2,0.1-0.3c0.1-0.1,0.1-0.2,0.2-0.2c0.1,0,0.2,0,0.3,0c0.1,0,0.1,0.1,0.2,0.1
	c0.1,0.1,0.1,0.1,0.1,0.2c0,0.1,0.1,0.2,0.1,0.2C231.3,77.2,231.3,77.3,231.3,77.3z"/>
<path class="st2" d="M232.4,76.5c0,0.1-0.1,0.2-0.2,0.3c-0.1,0.1-0.2,0.1-0.3,0c-0.1-0.1-0.1-0.1-0.2-0.2c0-0.1,0-0.2,0-0.3
	c0-0.1,0.1-0.2,0.1-0.2c0.1-0.1,0.1-0.1,0.2-0.1c0.1,0,0.2,0.1,0.2,0.2C232.4,76.3,232.4,76.4,232.4,76.5z"/>
<path class="st17" d="M359.2,38.9c0,0.3,0.1,0.6,0.2,0.8c0.1,0.2,0.3,0.4,0.6,0.6c0.2,0.1,0.5,0.1,0.7,0.1c0.2-0.1,0.5-0.2,0.6-0.4
	c0.2-0.2,0.3-0.5,0.3-0.8c0-0.3,0-0.6-0.1-0.9c-0.1-0.3-0.3-0.5-0.5-0.7c-0.2-0.2-0.4-0.3-0.7-0.3c-0.3,0-0.6,0.2-0.9,0.4
	C359.3,38.2,359.2,38.5,359.2,38.9z"/>
<path class="st2" d="M261.9,342.3c1.6-0.2,41.9-22.5,43-24.5c0.4-0.8-1.9-8.1-5-16.8c-0.6-1.9-1.3-3.9-2-5.8c-1-2.4-2-4.8-3-7.1
	c-7.9,4.3-19.2,10.3-26.3,14l3,7.5l2.3,5.7c0,0-12.3,16.9-13.3,19.3C259.7,336.9,260.3,342.5,261.9,342.3z"/>
<path class="st7" d="M261.8,342.4c1.6-0.2,42.1-22.6,43.2-24.6c0.5-0.9-3.1-11.6-7-22.7l-26.4,14.5l2.3,5.7c0,0-12.3,17-13.4,19.4
	C259.5,337,260.2,342.6,261.8,342.4z"/>
<path class="st3" d="M261.6,340.1c6.7-4,34.1-19.1,41-22.4c0.1,0,0.1,0,0,0.1c-6.6,4.1-34.1,19-41,22.5
	C261.5,340.3,261.5,340.2,261.6,340.1z"/>
<path class="st3" d="M272.3,313.9c2.4-2.1,5.9-3.4,8.8-2.2c0.1,0,0.1,0.2,0,0.3c-2.9,0.4-5.8,1.2-8.6,2.4c0,0-0.1,0-0.1,0
	c0,0-0.1-0.1-0.1-0.1c0,0,0-0.1,0-0.2S272.2,314,272.3,313.9z"/>
<path class="st3" d="M270.9,316.4c2.4-2.1,5.9-3.4,8.8-2.2c0.1,0.1,0.1,0.2,0,0.3c-2.9,0.4-5.8,1.2-8.6,2.4c0,0-0.1,0-0.1,0
	c0,0-0.1-0.1-0.1-0.1c0,0,0-0.1,0-0.1S270.8,316.5,270.9,316.4z"/>
<path class="st3" d="M269.5,318.9c2.4-2.1,5.9-3.4,8.8-2.2c0.1,0,0.1,0.2,0,0.3c-2.9,0.4-5.8,1.2-8.6,2.4c0,0-0.1,0-0.1,0
	s-0.1-0.1-0.1-0.1c0-0.1,0-0.1,0-0.2S269.4,318.9,269.5,318.9z"/>
<path class="st3" d="M268.1,321.4c2.4-2.1,5.9-3.4,8.8-2.2c0.1,0,0.1,0.2,0,0.3c-2.9,0.4-5.8,1.2-8.6,2.4c0,0-0.1,0-0.1,0
	c0,0-0.1-0.1-0.1-0.1c0,0,0-0.1,0-0.2C268,321.4,268,321.4,268.1,321.4z"/>
<path class="st3" d="M264.5,309.2c0.4-2.3,2.6-2.6,4.2-2.1c2.6,0.9,5,2.7,6.9,5.1c0,0,0,0,0,0c0,0,0,0,0,0c0,0,0,0,0,0c0,0,0,0,0,0
	c0,0.1,0,0.1,0,0.2c0,0.1,0,0.1,0,0.2c0,0.1-0.1,0.1-0.1,0.2c0,0-0.1,0.1-0.2,0.1c-2.6,0.2-5.3,0.9-7.9,0.1
	C265.9,312.7,264.1,311.4,264.5,309.2z M271.3,312.4c1.3-0.1,2.5-0.2,3.8-0.2c-1.4-1-2.7-2.1-4.1-2.9c-0.7-0.4-1.4-0.8-2.1-1.1
	c-1.1-0.4-5-0.6-3.2,2.7C266.8,312.7,269.8,312.5,271.3,312.4L271.3,312.4z"/>
<path class="st3" d="M282.1,307.6c-1.8,2.4-4.3,3.7-6.6,5.3c-0.1,0-0.1,0-0.2,0c-0.1,0-0.1,0-0.2-0.1c-0.1,0-0.1-0.1-0.1-0.1
	c0-0.1-0.1-0.1-0.1-0.2c0,0,0,0,0,0c0,0,0,0,0,0c0,0,0,0,0,0c0,0,0,0,0,0c0.4-3.3,1.6-6.4,3.3-8.9c1-1.5,3-2.8,4.4-1.1
	C284.1,304,283.1,306.2,282.1,307.6z M282.4,304.6c0-4-3.2-1.2-3.9-0.1c-0.5,0.7-0.9,1.5-1.2,2.3c-0.8,1.7-1.4,3.4-2,5.2
	c1.1-0.8,2.2-1.6,3.3-2.4C279.8,308.7,282.4,306.8,282.4,304.6L282.4,304.6z"/>
<path class="st2" d="M182.8,343.9c1.6,0.6,45.8,0.5,47.5-0.8c0.6-0.5,1-8.3,1.2-17.8c0.1-2,0.1-4.1,0.1-6.3c0-2.5,0.1-5.1,0.1-7.6
	h-28.9v7.6l0.1,6.3c0,0-16.9,9.2-18.7,10.9C182.6,337.9,181.3,343.3,182.8,343.9z"/>
<path class="st7" d="M182.7,344c1,0.4,19.9,0.5,33.6,0.1c3.2-0.1,6.1-0.2,8.4-0.3c3.2-0.2,5.4-0.4,5.8-0.7
	c0.8-0.6,1.2-12.1,1.4-24.2h-29l0.1,6.3c0,0-17,9.3-18.8,11C182.5,338,181.1,343.4,182.7,344z"/>
<path class="st3" d="M183.3,341.9c7.5-0.2,37.6-0.4,45,0.1c0.1,0,0.1,0,0,0.1c-7.4,0.4-37.5,0.3-45,0
	C183.1,342,183.1,341.9,183.3,341.9z"/>
<path class="st3" d="M201.9,323.3c2.9-0.7,6.5-0.1,8.8,2.4c0.1,0.1,0,0.2-0.1,0.2c-2.8-1.1-5.7-1.8-8.6-2.2c0,0,0,0-0.1,0
	c0,0,0,0-0.1,0c0,0,0,0,0-0.1c0,0,0-0.1,0-0.1c0,0,0-0.1,0-0.1c0,0,0-0.1,0-0.1C201.8,323.4,201.8,323.3,201.9,323.3
	C201.9,323.3,201.9,323.3,201.9,323.3z"/>
<path class="st3" d="M199.8,324.9c2.9-0.7,6.5-0.1,8.8,2.4c0.1,0.1,0,0.2-0.1,0.2c-2.8-1.1-5.7-1.8-8.6-2.1c0,0-0.1,0-0.1-0.1
	c0,0-0.1-0.1-0.1-0.2c0-0.1,0-0.1,0.1-0.2C199.7,324.9,199.8,324.9,199.8,324.9z"/>
<path class="st3" d="M197.7,326.4c2.9-0.7,6.5-0.1,8.8,2.4c0.1,0.1,0,0.2-0.1,0.2c-2.8-1.1-5.7-1.8-8.6-2.1c0,0-0.1,0-0.1-0.1
	c0,0,0-0.1,0-0.1c0-0.1,0-0.1,0-0.1C197.6,326.5,197.6,326.4,197.7,326.4z"/>
<path class="st3" d="M195.6,328c2.9-0.7,6.5-0.1,8.8,2.4c0.1,0.1,0,0.2-0.1,0.2c-2.8-1.1-5.7-1.8-8.6-2.1c0,0-0.1,0-0.1-0.1
	c0,0-0.1-0.1-0.1-0.2c0-0.1,0-0.1,0.1-0.2C195.5,328,195.5,328,195.6,328z"/>
<path class="st3" d="M196.5,315.1c1.2-1.9,3.3-1.1,4.5,0.2c2.1,2.2,3.6,5,4.5,8.1c0,0,0,0,0,0c0,0,0,0,0,0c0,0,0,0,0,0c0,0,0,0,0,0
	c0,0.3-0.2,0.6-0.5,0.5c-2.4-1.1-5.1-1.9-7.2-3.8C196.6,319,195.4,316.9,196.5,315.1z M201.6,321.4c1.2,0.6,2.4,1.1,3.5,1.7
	c-0.8-1.6-1.8-3.2-2.7-4.7c-0.5-0.7-1-1.4-1.6-2c-0.9-1-4.3-3-3.8,0.9C197.3,319.5,200.2,320.8,201.6,321.4z"/>
<path class="st3" d="M213,322.5c-2.4,1.3-5.2,1.2-7.8,1.5c-0.1,0-0.1,0-0.2,0c-0.1,0-0.1-0.1-0.1-0.1c0-0.1-0.1-0.1-0.1-0.2
	c0-0.1,0-0.1,0-0.2c0,0,0,0,0,0c0,0,0,0,0,0c0,0,0,0,0,0c0,0,0,0,0,0c1.5-2.8,3.6-5,6.1-6.5c1.4-0.8,3.7-1,4.4,1.2
	C216.1,320.2,214.4,321.7,213,322.5z M214.3,319.9c1.3-3.6-2.5-2.7-3.5-2c-0.7,0.4-1.3,0.9-1.9,1.5c-1.3,1.1-2.4,2.5-3.6,3.7
	c1.3-0.2,2.5-0.4,3.8-0.5C210.6,322.3,213.6,321.9,214.3,319.9L214.3,319.9z"/>
</svg>
