<?xml version="1.0" encoding="UTF-8"?>
<svg id="Layer_1" data-name="Layer 1" xmlns="http://www.w3.org/2000/svg" width="448" height="345" viewBox="0 0 448 345">
  <defs>
    <style>
      .cls-1, .cls-2, .cls-3, .cls-4, .cls-5, .cls-6, .cls-7, .cls-8, .cls-9, .cls-10, .cls-11, .cls-12, .cls-13, .cls-14, .cls-15, .cls-16, .cls-17, .cls-18 {
        stroke-width: 0px;
      }

      .cls-1, .cls-17 {
        fill: #c5a16d;
      }

      .cls-2 {
        fill: #020100;
      }

      .cls-2, .cls-6, .cls-19, .cls-18 {
        opacity: .1;
      }

      .cls-2, .cls-6, .cls-14, .cls-17, .cls-18 {
        isolation: isolate;
      }

      .cls-4 {
        fill: #37474f;
      }

      .cls-5, .cls-6 {
        fill: #eece93;
      }

      .cls-7 {
        fill: #c7c7c7;
      }

      .cls-8 {
        fill: #fb4a04;
      }

      .cls-9, .cls-14 {
        fill: #fff;
      }

      .cls-10 {
        fill: #263238;
      }

      .cls-11 {
        fill: #a6a6a6;
      }

      .cls-12 {
        fill: #dbdbdb;
      }

      .cls-13 {
        fill: #ebebeb;
      }

      .cls-14 {
        opacity: .66;
      }

      .cls-15 {
        fill: #455a64;
      }

      .cls-16 {
        fill: #d3766a;
      }
    </style>
  </defs>
  <path class="cls-13" d="M429.96,45.62h-18.04v-9.23h18.04v9.23Z"/>
  <path class="cls-13" d="M419.9,24.75l-8.94-.23-4.54-.09c-1.51,0-3.04,0-4.56-.05h-.3v10.02h.34l9.02-.05c3,0,6.02-.1,9.02-.14h.19v-.22c0-1.57-.06-3.13-.09-4.66l-.14-4.57ZM419.9,24.75l-.1,4.66c0,1.54-.08,3.06-.09,4.57l.18-.22c-3,0-6.01-.13-9.02-.14l-9.02-.05.34.41-.03-9.23-.31.37c1.49,0,2.97,0,4.46-.05l4.48-.09,9.1-.23Z"/>
  <path class="cls-13" d="M440.02,24.75l-8.95-.23-4.54-.09c-1.52,0-3.04,0-4.56-.05h-.3v.37l-.04,9.23v.41h.34l9.03-.05c3.01,0,6.01-.1,9.02-.14h.19v-.22c0-1.57-.06-3.13-.09-4.66l-.1-4.57ZM440.02,24.75l-.1,4.66c0,1.54-.07,3.06-.09,4.57l.18-.22c-3,0-6.01-.13-9.02-.14l-9.02-.05.34.41v-9.23l-.31.37c1.49,0,2.97,0,4.46-.05l4.48-.09,9.06-.23Z"/>
  <path class="cls-13" d="M54.83,211.57l-8.94-.23-4.54-.09c-1.52,0-3.04,0-4.56-.05h-.3v.37l-.04,9.23v.41h.34l9.02-.05c3,0,6.01-.1,9.02-.14h.19v-.22c0-1.57-.05-3.13-.09-4.67l-.1-4.56ZM54.83,211.57l-.1,4.66c0,1.54-.07,3.06-.09,4.57l.18-.22c-3-.05-6.01-.13-9.02-.14l-9.02-.05.34.41v-9.23l-.31.36c1.48,0,2.97,0,4.46-.04l4.48-.09,9.06-.23Z"/>
  <path class="cls-13" d="M44.77,209.16h-18.04v-9.23h18.04v9.23Z"/>
  <path class="cls-13" d="M64.89,199.93l-8.94-.23-4.54-.09c-1.52-.04-3.04,0-4.56-.05h-.3v.37l-.04,9.23v.41h.34l9.02-.05c3.01,0,6.01-.1,9.02-.14h.19v-.22c0-1.57-.06-3.13-.1-4.66l-.1-4.57ZM64.89,199.93l-.1,4.66c0,1.54-.07,3.06-.09,4.57l.18-.22c-3-.05-6.01-.13-9.02-.14l-9.02-.05.34.41v-9.23l-.31.36c1.48,0,2.97,0,4.46-.04l4.48-.09,9.06-.23Z"/>
  <path class="cls-13" d="M34.21,33.15l-8.94-.23-4.54-.09h-4.86v.37l-.03,9.23v.41h.34l9.01-.1c3,0,6.01-.1,9.02-.14h.18v-.22c0-1.57-.05-3.13-.09-4.66l-.1-4.57ZM34.21,33.15l-.1,4.66c0,1.54-.08,3.06-.09,4.57l.18-.22c-3-.04-6.01-.13-9.02-.14l-9.02-.05.34.41-.04-9.23-.3.37c1.48,0,2.97,0,4.45-.05l4.47-.09,9.11-.23Z"/>
  <path class="cls-13" d="M311.09,146.27l-8.94-.22-4.54-.1h-4.86v.36l-.04,9.23v.42h.34l9.02-.05c3.01,0,6.01-.09,9.02-.13h.19v-.22c0-1.56-.05-3.12-.09-4.66l-.1-4.63ZM311.09,146.27l-.1,4.67c-.03,1.54-.08,3.05-.09,4.56l.18-.22c-3,0-6.01-.13-9.02-.13l-9.02-.05.34.4-.03-9.23-.31.37h4.46l4.48-.1,9.09-.27Z"/>
  <path class="cls-13" d="M428.92,309.15l-8.94-.23-4.54-.09h-4.86v10.02h.34l9.02-.05c3,0,6.02-.09,9.02-.14h.19v-.31c0-1.57-.05-3.12-.09-4.66l-.14-4.54ZM428.92,309.15l-.1,4.67c0,1.53-.08,3.05-.09,4.56l.18-.22c-3,0-6.01-.13-9.02-.13l-9.02-.06.34.41v-9.23l-.31.37c1.49,0,2.97,0,4.46-.05l4.48-.09,9.07-.23Z"/>
  <path class="cls-13" d="M438.98,306.74h-18.04v-9.23h18.04v9.23Z"/>
  <path class="cls-13" d="M26.01,318.38H7.97v-9.23h18.04v9.23Z"/>
  <path class="cls-12" d="M104.66,313.13l-71.75,18.29-7.79-60.77,71.76-18.28,7.79,60.76Z"/>
  <path class="cls-12" d="M49.66,257.9l-25.35,6.46.8,6.29,26.81-6.82-2.26-5.92Z"/>
  <path class="cls-13" d="M104.61,313.14l-71.75,18.29-15.35-55.15,71.75-18.28,15.35,55.15Z"/>
  <path class="cls-13" d="M41.27,264.11l-25.36,6.46,1.59,5.71,26.81-6.82-3.04-5.35Z"/>
  <path class="cls-9" d="M24.38,191.42l49.28-23.13-24.5-76.63-36.59,17.16-8.02,20.56,19.84,62.04Z"/>
  <path class="cls-12" d="M24.47,191.7l1.27-.59-.18-.58-1.27.6.18.57ZM23.9,190.78l.48-.22-.49-1.54-.48.23.49,1.54ZM27.01,190.51l1.27-.59-.18-.58-1.27.59.18.58ZM29.55,189.31l1.27-.59-.18-.58-1.27.6.18.57ZM32.09,188.12l1.27-.59-.18-.58-1.27.6.18.58ZM22.92,187.7l.48-.22-.5-1.54-.48.23.5,1.53ZM34.64,186.93l1.27-.6-.18-.58-1.27.6.18.58ZM37.18,185.74l1.27-.59-.18-.58-1.27.59.18.58ZM21.94,184.62l.48-.22-.49-1.54-.48.23.49,1.53ZM39.72,184.55l1.27-.6-.18-.57-1.27.6.18.58ZM42.26,183.35l1.27-.59-.18-.58-1.27.59.18.58ZM44.79,182.2l1.27-.59-.18-.58-1.27.59.18.58ZM20.95,181.58l.48-.22-.5-1.54-.48.23.5,1.54ZM47.33,181l1.27-.59-.18-.58-1.27.59.18.58ZM49.88,179.81l1.27-.59-.18-.58-1.27.59.18.58ZM52.42,178.62l1.29-.63-.18-.58-1.27.6.16.61ZM19.97,178.5l.48-.22-.49-1.54-.48.23.49,1.54ZM54.96,177.43l1.27-.59-.18-.58-1.27.59.18.58ZM57.5,176.23l1.27-.59-.18-.58-1.27.6.18.57ZM18.98,175.41l.48-.22-.5-1.54-.48.23.5,1.54ZM60.04,175.03l1.27-.59-.18-.58-1.27.59.18.58ZM62.57,173.82l1.27-.6-.18-.58-1.27.6.18.58ZM65.11,172.63l1.27-.59-.18-.58-1.27.59.18.58ZM17.98,172.31l.48-.22-.49-1.54-.48.23.49,1.54ZM67.66,171.47l1.27-.6-.18-.58-1.27.6.18.58ZM70.2,170.27l1.27-.59-.18-.58-1.27.59.18.58ZM17.02,169.27l.48-.22-.5-1.54-.47.23.49,1.54ZM72.74,169.09l1.25-.58-.19-.61-.48.22-.77.36.19.61ZM72.83,166.61l.48-.22-.5-1.54-.48.22.5,1.54ZM16.03,166.22l.48-.22-.49-1.54-.48.23.49,1.54ZM71.84,163.53l.48-.22-.49-1.54-.48.22.49,1.54ZM15.05,163.15l.48-.22-.49-1.54-.48.23.49,1.54ZM70.86,160.46l.48-.22-.5-1.54-.47.22.49,1.54ZM14.06,160.07l.48-.22-.49-1.54-.48.22.49,1.54ZM69.87,157.38l.48-.22-.49-1.54-.48.22.49,1.54ZM13.08,156.99l.48-.22-.49-1.54-.48.22.49,1.54ZM68.89,154.3l.48-.22-.49-1.54-.48.22.49,1.54ZM12.09,153.91l.48-.22-.49-1.54-.48.22.49,1.54ZM67.91,151.22l.48-.22-.49-1.54-.48.22.49,1.54ZM11.11,150.83l.48-.22-.49-1.54-.48.22.49,1.54ZM66.92,148.14l.48-.22-.49-1.54-.48.22.49,1.54ZM10.13,147.76l.47-.22-.48-1.64-.48.22.49,1.64ZM65.94,145.07l.48-.22-.49-1.54-.48.22.49,1.54ZM9.14,144.68l.48-.22-.49-1.54-.48.22.49,1.54ZM64.96,141.99l.48-.22-.49-1.54-.48.22.49,1.54ZM8.16,141.6l.48-.22-.5-1.54-.48.22.5,1.54ZM63.98,138.91l.47-.22-.49-1.54-.48.22.5,1.54ZM7.17,138.52l.48-.22-.49-1.54-.48.23.49,1.54ZM62.99,135.83l.48-.22-.49-1.54-.48.22.49,1.54ZM6.19,135.44l.48-.22-.5-1.54-.48.23.5,1.54ZM62.01,132.69l.48-.22-.5-1.54-.48.22.5,1.54ZM5.2,132.3l.48-.22-.49-1.54-.48.23.49,1.54ZM61.02,129.61l.48-.22-.49-1.54-.48.22.49,1.54ZM4.88,129.25l.58-1.48-.46-.26-.59,1.49.46.26ZM60.05,126.53l.48-.22-.5-1.54-.48.22.5,1.54ZM6.06,126.27l.58-1.49-.46-.26-.59,1.49.46.26ZM59.06,123.45l.48-.22-.49-1.54-.48.22.49,1.54ZM7.22,123.28l.58-1.49-.46-.26-.59,1.49.46.26ZM58.08,120.38l.48-.22-.5-1.54-.48.22.5,1.54ZM8.36,120.3l.58-1.49-.46-.26-.58,1.49.46.26ZM9.52,117.32l.58-1.49-.46-.26-.58,1.49.46.26ZM57.07,117.32l.48-.22-.49-1.54-.48.22.49,1.54ZM10.69,114.34l.58-1.49-.46-.26-.58,1.49.46.26ZM56.09,114.24l.48-.22-.49-1.54-.48.22.49,1.54ZM11.85,111.37l.58-1.49-.46-.26-.58,1.49.46.26ZM55.1,111.16l.48-.22-.49-1.54-.48.22.49,1.54ZM13.15,108.89l1.27-.59-.18-.58-1.27.59.18.58ZM54.12,108.07l.48-.22-.49-1.54-.48.22.49,1.54ZM15.69,107.68l1.27-.59-.19-.58-1.27.6.18.57ZM18.23,106.49l1.27-.59-.18-.58-1.27.59.18.58ZM20.77,105.3l1.27-.6-.19-.58-1.27.6.18.58ZM53.13,104.99l.48-.22-.49-1.54-.48.22.49,1.54ZM23.31,104.1l1.27-.59-.18-.58-1.27.59.18.58ZM25.85,102.92l1.27-.6-.18-.58-1.27.6.18.58ZM52.15,101.91l.48-.22-.49-1.54-.48.22.49,1.54ZM28.39,101.72l1.27-.59-.18-.58-1.27.59.18.58ZM30.95,100.51l1.27-.6-.18-.57-1.27.59.18.58ZM33.49,99.31l1.27-.59-.18-.58-1.27.59.18.58ZM51.2,98.81l.47-.22-.49-1.54-.48.22.5,1.54ZM36.04,98.12l1.27-.59-.18-.58-1.27.59.18.58ZM38.58,96.93l1.27-.59-.18-.58-1.27.59.18.58ZM41.12,95.74l1.27-.59-.18-.58-1.27.59.18.58ZM50.21,95.74l.48-.22-.49-1.54-.48.22.49,1.54ZM43.66,94.55l1.27-.59-.18-.58-1.27.59.18.58ZM46.22,93.38l1.27-.59-.18-.58-1.27.59.18.58ZM49.24,92.68l.47-.22-.38-1.2-.76.36.18.57.28-.12.2.62Z"/>
  <path class="cls-12" d="M12.57,108.82l-8.02,20.56,12.69-5.96-4.67-14.6Z"/>
  <path class="cls-13" d="M433.95,160.93l-72.37-16.17,9.51-57.6,72.37,16.17-9.51,57.6Z"/>
  <path class="cls-9" d="M431.53,156.68l-66.37-14.83,8.33-50.42,66.36,14.83-8.33,50.42Z"/>
  <path class="cls-12" d="M431.25,120.63c-.4,2.3-1.53,4.32-3.14,5.62s-3.58,1.79-5.49,1.36c-.94-.2-1.84-.62-2.64-1.24-.8-.62-1.5-1.43-2.04-2.38-.54-.95-.92-2.02-1.11-3.15-.19-1.13-.2-2.3-.02-3.43.39-2.3,1.52-4.33,3.13-5.64,1.61-1.31,3.59-1.8,5.5-1.36.94.2,1.84.62,2.64,1.24.8.62,1.5,1.43,2.04,2.39.54.95.92,2.03,1.11,3.16.19,1.13.2,2.3.02,3.43Z"/>
  <path class="cls-13" d="M410.91,152.15l-45.71-10.22,28.91-31.76,16.8,41.98Z"/>
  <path class="cls-12" d="M428.83,156.17l-37.74-8.43,22.81-19.8,14.92,28.23Z"/>
  <path class="cls-13" d="M419.77,214.02l-55.67,8.06-3.83-44.5,55.67-8.07,3.83,44.51Z"/>
  <path class="cls-9" d="M417.22,211.58l-51.05,7.39-3.35-38.96,51.05-7.39,3.35,38.96Z"/>
  <path class="cls-12" d="M410.29,185.43c.14,1.78-.31,3.56-1.24,4.94s-2.27,2.28-3.74,2.48c-.72.12-1.45.05-2.15-.18-.7-.23-1.36-.63-1.93-1.18-.57-.54-1.05-1.22-1.4-1.99-.35-.77-.57-1.62-.65-2.49-.14-1.78.31-3.56,1.24-4.94.93-1.39,2.27-2.28,3.74-2.48.72-.12,1.45-.05,2.15.18.7.23,1.36.63,1.93,1.18.57.54,1.05,1.22,1.4,1.99.35.77.57,1.62.65,2.49Z"/>
  <path class="cls-13" d="M401.37,213.93l-35.16,5.09,15.1-31.03,20.06,25.94Z"/>
  <path class="cls-12" d="M415.15,211.95l-29.03,4.2,12.9-20.65,16.13,16.45Z"/>
  <path class="cls-10" d="M448,343.96l-56-.2-56-.07-112-.14-112,.14-56,.07L0,343.96l56,.21,56,.08,112,.13,112-.14,56-.07,56-.21Z"/>
  <path class="cls-7" d="M159.3,331.28h129.4v13.1h-129.4v-13.1Z"/>
  <path class="cls-12" d="M174.71,331.29h98.59l-2.51-22.73-.12-1.07-.23-2.14-.12-1.07-.24-2.13-.03-.33-.08-.74-.24-2.14-.12-1.07-1.75-15.88h-87.71l-1.65,14.98-.08.73-.27,2.48-.07.72-.1.93-.18,1.56-.07.73-.27,2.49-.08.71-2.64,23.99Z"/>
  <path class="cls-7" d="M177.96,301.82l91.64-3.95-1.75-15.88h-87.71l-2.19,19.83Z"/>
  <path class="cls-10" d="M57.99,16.72h332.03v273.51H57.99V16.72Z"/>
  <path class="cls-12" d="M57.99,249.88h332.03v40.34H57.99v-40.34Z"/>
  <path class="cls-4" d="M218.6,267.34c0,1.32.32,2.61.92,3.71.6,1.1,1.46,1.95,2.47,2.46,1.01.51,2.11.64,3.18.38,1.07-.26,2.05-.89,2.82-1.83.77-.93,1.29-2.12,1.51-3.42s.1-2.64-.32-3.85c-.42-1.22-1.12-2.26-2.03-2.99s-1.97-1.12-3.06-1.12c-1.46,0-2.86.7-3.89,1.95-1.03,1.25-1.61,2.94-1.61,4.71Z"/>
  <path class="cls-9" d="M73.31,34.5h301.39v196.41H73.31V34.5Z"/>
  <path class="cls-9" d="M73.31,34.5h301.39v196.41H73.31V34.5Z"/>
  <path class="cls-15" d="M73.31,34.5h301.39v8.89H73.31v-8.89Z"/>
  <path class="cls-7" d="M369.31,38.95c0,.3.08.59.21.83s.33.44.56.55c.23.11.48.14.71.08.24-.06.46-.2.63-.41.17-.21.29-.48.34-.77s.02-.59-.07-.87c-.09-.27-.25-.51-.46-.67-.2-.16-.44-.25-.69-.25-.33,0-.64.16-.88.45-.23.28-.36.67-.36,1.06Z"/>
  <path class="cls-9" d="M364.24,38.95c0,.3.07.59.21.84.14.25.33.44.56.56.23.11.48.14.72.08.24-.06.46-.2.64-.42.17-.21.29-.48.34-.78.05-.29.02-.6-.07-.87-.1-.28-.26-.51-.46-.68-.21-.16-.45-.25-.7-.25-.33,0-.64.16-.88.45-.23.28-.36.67-.36,1.06Z"/>
  <path class="cls-1" d="M359.18,38.95c0,.3.08.59.21.83s.33.44.56.55c.23.11.48.14.72.08.24-.06.46-.2.63-.41.17-.21.29-.48.34-.77s.02-.59-.07-.87c-.09-.27-.25-.51-.46-.67-.2-.16-.44-.25-.69-.25-.16,0-.33.04-.48.12-.15.08-.29.19-.4.33-.12.14-.21.31-.27.49-.06.18-.09.38-.09.58Z"/>
  <path class="cls-13" d="M88.02,52.25h132.86v77.24H88.02V52.25Z"/>
  <path class="cls-12" d="M73.31,43.39h5.35v187.52h-5.35V43.39Z"/>
  <path class="cls-11" d="M75.98,120.39c.36,0,.71-.17.96-.48.26-.31.4-.73.4-1.17V46.36c0-.44-.14-.86-.4-1.17-.26-.31-.6-.48-.96-.48s-.71.17-.96.48c-.26.31-.4.73-.4,1.17v72.35c0,.22.03.44.1.64.07.2.17.39.29.54.13.15.28.28.44.36.17.08.35.13.53.13Z"/>
  <path class="cls-5" d="M303.33,43.39h71.36v187.52h-71.36V43.39Z"/>
  <path class="cls-9" d="M307.98,52.25h55.37v9.18h-55.37v-9.18Z"/>
  <path class="cls-9" d="M366.26,56.85c0,.46.11.9.32,1.28.21.38.51.67.85.85.35.17.73.22,1.1.13.37-.09.71-.31.97-.63.27-.32.45-.73.52-1.18.07-.45.03-.91-.11-1.33s-.39-.78-.7-1.03c-.31-.25-.68-.39-1.06-.38-.25,0-.5.06-.73.18s-.44.29-.61.5c-.18.21-.32.47-.41.75-.1.28-.14.58-.14.88Z"/>
  <path class="cls-18" d="M307.98,67.99h55.37v9.18h-55.37v-9.18Z"/>
  <path class="cls-18" d="M368.15,75.08c.4,0,.8-.15,1.14-.42.34-.27.6-.66.75-1.11.15-.45.2-.95.12-1.43-.08-.48-.27-.92-.56-1.27-.29-.35-.65-.58-1.05-.68-.4-.1-.81-.05-1.18.14-.37.19-.69.5-.92.91-.22.41-.35.89-.35,1.38,0,.66.22,1.29.6,1.75.38.46.9.73,1.44.73ZM368.15,70.49c.34,0,.68.12.96.35.29.23.51.56.64.94.13.38.17.81.1,1.21-.07.41-.23.78-.47,1.08s-.55.49-.89.57c-.34.08-.68.04-1-.12-.32-.16-.59-.43-.78-.78-.19-.35-.29-.75-.29-1.17,0-.55.18-1.08.51-1.47.32-.39.76-.61,1.22-.61Z"/>
  <path class="cls-18" d="M367.01,72.57c0,.28.07.55.19.78.13.23.31.41.52.52.21.11.44.13.67.08.22-.05.43-.19.59-.38.16-.2.27-.44.32-.72.04-.27.02-.55-.07-.81-.09-.26-.24-.47-.43-.63-.19-.15-.41-.23-.64-.23-.3,0-.59.15-.81.41-.21.26-.33.61-.34.98Z"/>
  <path class="cls-9" d="M307.98,83.71h55.37v9.18h-55.37v-9.18Z"/>
  <path class="cls-9" d="M366.26,88.31c0,.46.11.9.32,1.28.21.38.51.67.85.85.35.17.73.22,1.1.13.37-.09.71-.31.97-.63.27-.32.45-.73.52-1.18.07-.45.03-.91-.11-1.33s-.39-.78-.7-1.03-.68-.39-1.06-.38c-.5,0-.98.25-1.34.68-.35.43-.55,1.02-.55,1.63Z"/>
  <path class="cls-18" d="M307.98,99.45h55.37v9.18h-55.37v-9.18Z"/>
  <path class="cls-18" d="M368.15,106.55c.4,0,.8-.14,1.14-.42.34-.27.6-.66.75-1.11.15-.45.2-.95.12-1.43-.08-.48-.27-.92-.56-1.27-.29-.35-.65-.58-1.05-.68-.4-.1-.81-.05-1.18.14-.37.19-.69.5-.92.91-.22.41-.35.89-.35,1.38,0,.66.22,1.29.6,1.75.38.47.9.72,1.44.72ZM368.15,101.95c.34,0,.68.12.96.35.29.23.51.56.64.94.13.38.17.81.1,1.21-.07.41-.23.78-.47,1.08-.24.29-.55.49-.88.58-.34.08-.68.04-1-.12-.32-.16-.59-.43-.78-.77-.19-.34-.29-.75-.29-1.17,0-.55.18-1.09.51-1.48s.76-.61,1.22-.62Z"/>
  <path class="cls-18" d="M367.01,104.05c0,.28.07.55.19.78.13.23.31.41.52.51.21.11.44.13.67.08.22-.05.43-.19.59-.38.16-.19.27-.44.31-.72.04-.27.02-.55-.07-.81-.09-.26-.24-.47-.43-.62-.19-.15-.41-.23-.64-.23-.3,0-.6.15-.81.41-.21.26-.33.61-.33.98Z"/>
  <path class="cls-9" d="M307.98,115.18h55.37v9.18h-55.37v-9.18Z"/>
  <path class="cls-9" d="M366.26,119.77c0,.46.11.9.32,1.28s.51.68.85.85c.35.18.73.22,1.1.13.37-.09.71-.31.98-.63.27-.32.45-.73.52-1.18.07-.45.04-.91-.11-1.33-.15-.42-.39-.78-.7-1.03-.31-.25-.68-.39-1.06-.38-.5,0-.98.24-1.34.67-.35.43-.56,1.01-.56,1.62Z"/>
  <path class="cls-9" d="M307.98,130.91h55.37v9.18h-55.37v-9.18Z"/>
  <path class="cls-9" d="M366.26,135.51c0,.46.11.9.32,1.28.21.38.51.67.85.85.35.17.73.22,1.1.13.37-.09.71-.31.97-.63.27-.32.45-.73.52-1.18.07-.45.03-.91-.11-1.33-.14-.42-.39-.78-.7-1.03s-.68-.39-1.06-.38c-.25,0-.5.06-.73.18s-.44.29-.61.5c-.18.21-.32.47-.41.75-.1.28-.14.58-.14.88Z"/>
  <path class="cls-18" d="M307.98,146.65h55.37v9.18h-55.37v-9.18Z"/>
  <path class="cls-18" d="M368.15,153.75c.4,0,.8-.15,1.14-.42.34-.27.6-.66.75-1.11.15-.45.2-.95.12-1.43-.08-.48-.27-.92-.56-1.27-.29-.35-.65-.58-1.05-.68-.4-.1-.81-.05-1.18.14-.37.19-.69.5-.92.91-.22.41-.35.89-.35,1.38,0,.66.22,1.29.6,1.75.38.46.9.73,1.44.73ZM368.15,149.15c.34,0,.68.12.96.35.29.23.51.56.64.94.13.38.17.81.1,1.21-.07.41-.23.78-.47,1.07-.24.29-.55.49-.89.57-.34.08-.68.04-1-.12-.32-.16-.59-.43-.78-.78-.19-.35-.29-.75-.29-1.17.01-.55.2-1.07.52-1.45.32-.38.75-.6,1.2-.6v-.04Z"/>
  <path class="cls-18" d="M367.01,151.24c0,.28.07.55.19.78.13.23.31.41.52.52.21.11.44.13.67.08.22-.05.43-.19.59-.38.16-.19.27-.44.32-.72.04-.27.02-.55-.07-.81-.09-.26-.24-.47-.43-.63-.19-.15-.41-.23-.64-.23-.3,0-.6.15-.81.41-.21.26-.33.61-.33.98Z"/>
  <path class="cls-9" d="M307.98,162.38h55.37v9.18h-55.37v-9.18Z"/>
  <path class="cls-9" d="M366.26,166.97c0,.46.11.9.32,1.28.21.38.51.67.85.85.35.17.73.22,1.1.13.37-.09.71-.31.97-.63.27-.32.45-.73.52-1.18.07-.45.03-.91-.11-1.33-.14-.42-.39-.78-.7-1.03s-.68-.39-1.06-.38c-.25,0-.5.06-.73.18s-.44.29-.61.5c-.18.21-.32.47-.41.75-.1.28-.14.58-.14.88Z"/>
  <path class="cls-18" d="M307.98,178.11h55.37v9.18h-55.37v-9.18Z"/>
  <path class="cls-18" d="M368.15,185.21c.4,0,.8-.15,1.14-.42s.6-.66.75-1.11c.15-.45.2-.95.12-1.43-.08-.48-.27-.92-.56-1.27-.29-.35-.65-.58-1.05-.68-.4-.1-.81-.05-1.18.14-.37.19-.69.5-.92.91-.22.41-.35.89-.35,1.38,0,.66.22,1.29.6,1.75.38.46.9.73,1.44.73ZM368.15,180.61c.34,0,.68.12.96.35.29.23.51.56.64.94.13.38.17.8.1,1.21-.07.41-.23.78-.47,1.07-.24.29-.55.49-.89.57-.34.08-.68.04-1-.12-.32-.16-.59-.43-.78-.78-.19-.35-.29-.75-.29-1.17,0-.55.18-1.08.51-1.47.32-.39.76-.61,1.22-.61Z"/>
  <path class="cls-18" d="M367.01,182.7c0,.28.07.55.19.78.13.23.31.41.52.52.21.11.44.14.67.08.22-.05.43-.19.59-.38.16-.19.27-.44.32-.72.04-.27.02-.55-.07-.81-.09-.26-.24-.47-.43-.63-.19-.15-.41-.23-.64-.23-.3,0-.59.15-.81.41-.21.26-.33.61-.34.98Z"/>
  <path class="cls-18" d="M307.98,193.84h55.37v9.18h-55.37v-9.18Z"/>
  <path class="cls-18" d="M368.15,200.94c.4,0,.8-.15,1.14-.42s.6-.66.75-1.11c.15-.45.2-.95.12-1.43-.08-.48-.27-.92-.56-1.27-.29-.35-.65-.58-1.05-.68-.4-.1-.81-.05-1.18.14-.37.19-.69.5-.92.91-.22.41-.35.89-.35,1.38,0,.66.22,1.29.6,1.75.38.46.9.73,1.44.73ZM368.15,196.34c.34,0,.68.12.96.35.29.23.51.56.64.94.13.38.17.8.1,1.21s-.23.78-.47,1.08c-.24.29-.55.49-.88.58-.34.08-.68.04-1-.12-.32-.16-.59-.43-.78-.77-.19-.35-.29-.75-.29-1.16,0-.56.18-1.09.51-1.48s.76-.62,1.22-.62Z"/>
  <path class="cls-18" d="M367.01,198.44c0,.28.07.55.19.78.13.23.31.41.52.52.21.11.44.13.67.08.22-.05.43-.19.59-.38.16-.2.27-.45.32-.72.04-.27.02-.55-.07-.81-.09-.26-.24-.47-.43-.63-.19-.15-.41-.23-.64-.23-.3,0-.6.15-.81.41-.21.26-.33.61-.33.98Z"/>
  <path class="cls-13" d="M229.77,129.91h3.09v-.82h-2.38v-.33h-.68l-.02,1.15ZM235.56,129.91h2.73v-.82h-2.73v.82ZM241.01,129.91h2.72v-.82h-2.72v.82ZM246.46,129.91h2.72v-.82h-2.72v.82ZM251.91,129.91h2.72v-.82h-2.72v.82ZM257.36,129.91h2.73v-.82h-2.73v.82ZM262.81,129.91h2.72v-.82h-2.72v.82ZM268.26,129.91h2.72v-.82h-2.72v.82ZM273.7,129.91h2.73v-.82h-2.73v.82ZM279.15,129.91h2.73v-.82h-2.73v.82ZM284.6,129.91h2.72v-.82h-2.72v.82ZM290.05,129.91h2.73v-.82h-2.73v.82ZM294.37,128.56h.68v-3.3h-.68v3.3ZM229.77,125.48h.68v-3.3h-.68v3.3ZM294.37,121.96h.68v-3.3h-.68v3.3ZM229.77,118.88h.68v-3.3h-.68v3.3ZM294.37,115.36h.68v-3.3h-.68v3.3ZM229.77,112.27h.68v-3.3h-.68v3.3ZM294.37,108.76h.68v-3.3h-.68v3.3ZM229.77,105.67h.68v-3.3h-.68v3.3ZM294.37,102.16h.68v-3.3h-.68v3.3ZM229.77,99.07h.68v-3.3h-.68v3.3ZM294.37,95.56h.68v-3.3h-.68v3.3ZM229.77,92.47h.68v-3.3h-.68v3.3ZM294.37,88.95h.68v-3.3h-.68v3.3ZM229.77,85.87h.68v-3.3h-.68v3.3ZM294.37,82.35h.68v-3.3h-.68v3.3ZM229.77,79.27h.68v-3.3h-.68v3.3ZM294.37,75.75h.68v-3.3h-.68v3.3ZM229.77,72.66h.68v-3.3h-.68v3.3ZM294.37,69.15h.68v-3.3h-.68v3.3ZM229.77,66.06h.68v-3.3h-.68v3.3ZM294.37,62.55h.68v-3.3h-.68v3.3ZM229.77,59.46h.68v-3.3h-.68v3.3ZM294.37,55.95h.68v-3.3h-.68v3.3ZM229.77,52.86h.68v-.21h1.9v-.83h-2.58v1.04ZM235.08,52.65h2.72v-.83h-2.72v.83ZM240.53,52.65h2.72v-.83h-2.72v.83ZM245.98,52.65h2.72v-.83h-2.72v.83ZM251.42,52.65h2.73v-.83h-2.73v.83ZM256.87,52.65h2.72v-.83h-2.72v.83ZM262.32,52.65h2.73v-.83h-2.73v.83ZM267.77,52.65h2.73v-.83h-2.73v.83ZM273.22,52.65h2.72v-.83h-2.72v.83ZM278.67,52.65h2.72v-.83h-2.72v.83ZM284.12,52.65h2.73v-.83h-2.73v.83ZM289.57,52.65h2.73v-.83h-2.73v.83Z"/>
  <path class="cls-13" d="M152.28,143.5h.68v-2.06h-1.7v.82h1.02v1.24Z"/>
  <path class="cls-13" d="M92.07,142.26h2.72v-.82h-2.72v.82ZM97.45,142.26h2.69v-.82h-2.69v.82ZM102.83,142.26h2.69v-.82h-2.69v.82ZM108.21,142.26h2.72v-.82h-2.72v.82ZM113.59,142.26h2.72v-.82h-2.72v.82ZM118.97,142.26h2.72v-.82h-2.72v.82ZM124.35,142.26h2.69v-.82h-2.69v.82ZM129.73,142.26h2.69v-.82h-2.69v.82ZM135.12,142.26h2.69v-.82h-2.69v.82ZM140.5,142.26h2.69v-.82h-2.69v.82ZM145.88,142.26h2.69v-.82h-2.69v.82Z"/>
  <path class="cls-13" d="M87.67,143.5h.68v-1.24h1.02v-.82h-1.7v2.06Z"/>
  <path class="cls-13" d="M87.67,214.22h.68v-3.21h-.68v3.21ZM87.67,207.79h.68v-3.22h-.68v3.22ZM87.67,201.37h.68v-3.22h-.68v3.22ZM87.67,194.93h.68v-3.21h-.68v3.21ZM87.67,188.5h.68v-3.21h-.68v3.21ZM87.67,182.07h.68v-3.18h-.68v3.18ZM87.67,175.65h.68v-3.22h-.68v3.22ZM87.67,169.22h.68v-3.22h-.68v3.22ZM87.67,162.79h.68v-3.22h-.68v3.22ZM87.67,156.35h.68v-3.21h-.68v3.21ZM87.67,149.93h.68v-3.21h-.68v3.21Z"/>
  <path class="cls-13" d="M87.67,219.5h1.7v-.82h-1.02v-1.24h-.68v2.06Z"/>
  <path class="cls-13" d="M92.07,219.5h2.72v-.82h-2.72v.82ZM97.45,219.5h2.69v-.82h-2.69v.82ZM102.83,219.5h2.69v-.82h-2.69v.82ZM108.21,219.5h2.72v-.82h-2.72v.82ZM113.59,219.5h2.72v-.82h-2.72v.82ZM118.97,219.5h2.72v-.82h-2.72v.82ZM124.35,219.5h2.69v-.82h-2.69v.82ZM129.73,219.5h2.69v-.82h-2.69v.82ZM135.12,219.5h2.69v-.82h-2.69v.82ZM140.5,219.5h2.69v-.82h-2.69v.82ZM145.88,219.5h2.69v-.82h-2.69v.82Z"/>
  <path class="cls-13" d="M151.26,219.5h1.7v-2.06h-.68v1.24h-1.02v.82Z"/>
  <path class="cls-13" d="M152.28,214.22h.68v-3.21h-.68v3.21ZM152.28,207.79h.68v-3.22h-.68v3.22ZM152.28,201.37h.68v-3.22h-.68v3.22ZM152.28,194.93h.68v-3.21h-.68v3.21ZM152.28,188.5h.68v-3.21h-.68v3.21ZM152.28,182.07h.68v-3.18h-.68v3.18ZM152.28,175.65h.68v-3.22h-.68v3.22ZM152.28,169.22h.68v-3.22h-.68v3.22ZM152.28,162.79h.68v-3.22h-.68v3.22ZM152.28,156.35h.68v-3.21h-.68v3.21ZM152.28,149.93h.68v-3.21h-.68v3.21Z"/>
  <path class="cls-13" d="M294.7,219.09h-132.86v-77.24h132.86v77.24Z"/>
  <path class="cls-5" d="M256.86,212.14l40.72-.02-.03-63.32-30.23.02-10.48,12.07.02,51.25Z"/>
  <path class="cls-8" d="M267.32,148.81l-10.48,12.07h10.49s0-12.07,0-12.07Z"/>
  <path class="cls-17" d="M267.32,148.81l-10.48,12.07h10.49s0-12.07,0-12.07Z"/>
  <g class="cls-19">
    <path class="cls-3" d="M293.6,161.07h-22.64s0-1.62,0-1.62h22.64s0,1.62,0,1.62Z"/>
    <path class="cls-3" d="M293.59,165.18h-22.63s0-1.62,0-1.62h22.63s0,1.62,0,1.62Z"/>
    <path class="cls-3" d="M293.6,169.28h-22.64s0-1.62,0-1.62h22.64s0,1.62,0,1.62Z"/>
    <path class="cls-3" d="M293.61,173.38h-33.17s0-1.61,0-1.61h33.17s0,1.61,0,1.61Z"/>
    <path class="cls-3" d="M293.6,177.49h-33.16s0-1.61,0-1.61h33.17s0,1.61,0,1.61Z"/>
    <path class="cls-3" d="M293.6,181.59h-33.17s0-1.61,0-1.61h33.17s0,1.61,0,1.61Z"/>
    <path class="cls-3" d="M293.61,185.7h-33.17s0-1.61,0-1.61h33.17s0,1.61,0,1.61Z"/>
    <path class="cls-3" d="M293.61,189.8h-33.17s0-1.61,0-1.61h33.17s0,1.61,0,1.61Z"/>
    <path class="cls-3" d="M293.61,193.9h-33.17s0-1.61,0-1.61h33.17s0,1.61,0,1.61Z"/>
    <path class="cls-3" d="M293.61,198.01h-33.17s0-1.61,0-1.61h33.17s0,1.61,0,1.61Z"/>
    <path class="cls-3" d="M293.61,202.12h-33.17s0-1.61,0-1.61h33.17s0,1.61,0,1.61Z"/>
    <path class="cls-3" d="M293.62,206.21h-33.17s0-1.61,0-1.61h33.17s0,1.61,0,1.61Z"/>
  </g>
  <path class="cls-5" d="M159,212.14l40.72-.02-.02-63.32-30.24.02-10.48,12.07v51.25Z"/>
  <path class="cls-8" d="M169.46,148.81l-10.48,12.07h10.48s0-12.07,0-12.07Z"/>
  <path class="cls-17" d="M169.46,148.81l-10.48,12.07h10.48s0-12.07,0-12.07Z"/>
  <g class="cls-19">
    <path class="cls-3" d="M195.73,161.08h-22.63s0-1.62,0-1.62h22.63s0,1.62,0,1.62Z"/>
    <path class="cls-3" d="M195.74,165.19h-22.63s0-1.62,0-1.62h22.64s0,1.62,0,1.62Z"/>
    <path class="cls-3" d="M195.74,169.29h-22.63s0-1.62,0-1.62h22.64s0,1.62,0,1.62Z"/>
    <path class="cls-3" d="M195.74,173.39h-33.17s0-1.61,0-1.61h33.17s0,1.61,0,1.61Z"/>
    <path class="cls-3" d="M195.74,177.5h-33.17s0-1.61,0-1.61h33.16s0,1.61,0,1.61Z"/>
    <path class="cls-3" d="M195.75,181.59h-33.17s0-1.61,0-1.61h33.16s0,1.61,0,1.61Z"/>
    <path class="cls-3" d="M195.75,185.7h-33.17s0-1.61,0-1.61h33.16s0,1.61,0,1.61Z"/>
    <path class="cls-3" d="M195.75,189.81h-33.17s0-1.61,0-1.61h33.16s0,1.61,0,1.61Z"/>
    <path class="cls-3" d="M195.74,193.91h-33.17s0-1.61,0-1.61h33.16s0,1.61,0,1.61Z"/>
    <path class="cls-3" d="M195.75,198.01h-33.17s0-1.61,0-1.61h33.16s0,1.61,0,1.61Z"/>
    <path class="cls-3" d="M195.76,202.12h-33.17s0-1.61,0-1.61h33.17s0,1.61,0,1.61Z"/>
    <path class="cls-3" d="M195.76,206.22h-33.17s0-1.61,0-1.61h33.17s0,1.61,0,1.61Z"/>
  </g>
  <path class="cls-15" d="M207.93,212.14l40.71-.02-.02-63.32-30.23.02-10.48,12.07.02,51.25Z"/>
  <path class="cls-4" d="M218.4,148.81l-10.48,12.07h10.48v-12.07Z"/>
  <path class="cls-4" d="M244.67,161.07h-22.63s0-1.62,0-1.62h22.63s0,1.62,0,1.62Z"/>
  <path class="cls-4" d="M244.67,165.18h-22.63s0-1.62,0-1.62h22.63s0,1.62,0,1.62Z"/>
  <path class="cls-4" d="M244.66,169.28h-22.63s0-1.62,0-1.62h22.63s0,1.62,0,1.62Z"/>
  <path class="cls-4" d="M244.67,173.39h-33.17s0-1.61,0-1.61h33.17s0,1.61,0,1.61Z"/>
  <path class="cls-4" d="M244.68,177.5h-33.17s0-1.61,0-1.61h33.17s0,1.61,0,1.61Z"/>
  <path class="cls-4" d="M244.67,181.59h-33.17s0-1.61,0-1.61h33.17s0,1.61,0,1.61Z"/>
  <path class="cls-4" d="M244.67,185.7h-33.17s0-1.61,0-1.61h33.17s0,1.61,0,1.61Z"/>
  <path class="cls-4" d="M244.68,189.81h-33.16s0-1.61,0-1.61h33.17s0,1.61,0,1.61Z"/>
  <path class="cls-4" d="M244.68,193.9h-33.17s0-1.61,0-1.61h33.17s0,1.61,0,1.61Z"/>
  <path class="cls-4" d="M244.68,198.01h-33.16s0-1.61,0-1.61h33.17s0,1.61,0,1.61Z"/>
  <path class="cls-4" d="M244.68,202.12h-33.17s0-1.61,0-1.61h33.17s0,1.61,0,1.61Z"/>
  <path class="cls-4" d="M244.68,206.21h-33.16s0-1.61,0-1.61h33.17s0,1.61,0,1.61Z"/>
  <path class="cls-5" d="M238.33,72.07h47.78v41.95h-47.78v-41.95Z"/>
  <path class="cls-5" d="M269.22,67.72h16.89v4.35h-17.85l.97-4.35Z"/>
  <path class="cls-9" d="M270.64,69.42h13.81v2.53h-13.81v-2.53Z"/>
  <path class="cls-8" d="M238.33,114.02h47.78l.35-39.35h-47.78l-.35,39.35Z"/>
  <path class="cls-14" d="M238.33,114.02h47.78l.35-39.35h-47.78l-.35,39.35Z"/>
  <path class="cls-8" d="M269.61,70.68h16.88l-.03,3.99h-17.85l1.01-3.99Z"/>
  <path class="cls-14" d="M269.61,70.68h16.88l-.03,3.99h-17.85l1.01-3.99Z"/>
  <path class="cls-5" d="M82.49,153.85h47.78v41.95h-47.78v-41.95Z"/>
  <path class="cls-5" d="M113.39,149.5h16.88v4.34h-17.85l.97-4.34Z"/>
  <path class="cls-9" d="M114.8,151.2h13.81v2.52h-13.81v-2.52Z"/>
  <path class="cls-8" d="M82.49,195.8h47.78l.35-39.35h-47.78l-.35,39.35Z"/>
  <path class="cls-14" d="M82.49,195.8h47.78l.35-39.35h-47.78l-.35,39.35Z"/>
  <path class="cls-8" d="M113.77,152.46h16.88l-.03,3.99h-17.85l1.01-3.99Z"/>
  <path class="cls-14" d="M113.77,152.46h16.88l-.03,3.99h-17.85l1.01-3.99Z"/>
  <path class="cls-9" d="M203.13,114.27h-42.71v-51.74h42.71v51.74Z"/>
  <path class="cls-15" d="M201.04,111.74h-38.53v-46.67h38.53v46.67Z"/>
  <path class="cls-4" d="M194.83,76.2c.15.93.06,1.89-.28,2.74-.33.86-.89,1.56-1.57,2-.69.45-1.48.61-2.25.47-.77-.14-1.49-.57-2.04-1.24s-.91-1.53-1.03-2.47c-.11-.94.02-1.89.39-2.72s.95-1.5,1.65-1.91c.71-.4,1.5-.52,2.27-.34.7.17,1.35.59,1.86,1.21.51.62.85,1.4,1,2.25Z"/>
  <path class="cls-4" d="M190.35,99.62h-27.85l13.92-18.92,13.92,18.92Z"/>
  <path class="cls-10" d="M201.04,99.62h-22.99l11.49-12.32,11.5,12.32Z"/>
  <path class="cls-10" d="M162.51,99.62h38.53v12.11h-38.53v-12.11Z"/>
  <path class="cls-9" d="M142.96,114.27h-42.71v-51.74h42.71v51.74Z"/>
  <path class="cls-15" d="M140.87,111.74h-38.53v-46.67h38.53v46.67Z"/>
  <path class="cls-4" d="M134.67,76.2c.15.93.06,1.89-.28,2.74-.33.86-.88,1.56-1.57,2-.69.45-1.48.61-2.25.47-.77-.14-1.49-.57-2.04-1.24s-.91-1.53-1.03-2.47c-.12-.94.02-1.89.39-2.72.37-.83.95-1.5,1.65-1.91.71-.4,1.5-.52,2.27-.34.7.17,1.35.59,1.86,1.21.51.62.85,1.4.99,2.25Z"/>
  <path class="cls-4" d="M130.19,99.62h-27.84l13.93-18.92,13.92,18.92Z"/>
  <path class="cls-10" d="M140.88,99.62h-22.99l11.49-12.32,11.5,12.32Z"/>
  <path class="cls-10" d="M102.35,99.62h38.53v12.11h-38.53v-12.11Z"/>
  <path class="cls-9" d="M211.3,122.5h-42.71v-51.74h42.71v51.74Z"/>
  <path class="cls-5" d="M209.21,119.96h-38.53v-46.67h38.53v46.67Z"/>
  <path class="cls-18" d="M203.01,84.43c.15.93.06,1.89-.28,2.74-.33.86-.88,1.56-1.57,2-.69.45-1.48.61-2.25.47-.77-.14-1.49-.57-2.04-1.24s-.91-1.53-1.03-2.47c-.12-.94.02-1.89.39-2.72.37-.83.95-1.5,1.65-1.91.71-.4,1.5-.52,2.27-.34.7.17,1.35.59,1.86,1.21.51.62.85,1.4,1,2.25Z"/>
  <path class="cls-18" d="M198.53,107.85h-27.85l13.92-18.91,13.92,18.91Z"/>
  <path class="cls-8" d="M209.21,107.85h-22.99l11.5-12.31,11.49,12.31Z"/>
  <path class="cls-1" d="M209.21,107.85h-22.99l11.5-12.31,11.49,12.31Z"/>
  <path class="cls-8" d="M170.68,107.85h38.53v12.11h-38.53v-12.11Z"/>
  <path class="cls-17" d="M170.68,107.85h38.53v12.11h-38.53v-12.11Z"/>
  <path class="cls-5" d="M414,249.18c-.57,4.82-.37,9.74.61,14.47.46,2.19,1.07,4.33,1.83,6.39.95,2.64,1.95,5.22,1.7,8.12-.23.19.57.16.59-.12,6.38-4.41,14.58-5.21,19.49-12.38,2.33-3.42,3.5-7.74,4.09-12.06.61-4.7.78-9.9-.23-14.56-.85-3.93-2.73-7.71-5.78-9.64-3.06-1.92-7.26-1.82-10.59-.6-7.14,2.69-10.69,11.99-11.7,20.38Z"/>
  <path class="cls-10" d="M410.73,306.45c.87-3.52,1.74-7.04,2.64-10.55,1.75-6.88,3.58-13.73,5.59-20.51,1.21-4.05,2.48-8.07,3.82-12.05-.15-2.51-.4-5-.76-7.48-.53-3-1.31-5.9-2.04-8.84-.05-.17.2-.27.26-.1,1.43,4.04,3.3,9.22,3.35,14.03,1.56-4.51,3.22-8.94,5.02-13.31.22-3.7.13-7.42-.25-11.11,0-.03,0-.07.02-.1.02-.03.04-.05.07-.06.03,0,.06,0,.08.02.02.02.04.05.05.09.54,3.22.75,6.51.63,9.79,1.36-3.3,2.82-6.54,4.36-9.72.14-.29.46,0,.34.29-2.42,5.58-4.65,11.35-6.74,17.13,2.95-3.1,6.36-5.49,10.05-7.05.16-.07.27.21.12.29-4.01,2.09-7.68,5.03-10.83,8.69-1.51,4.24-2.94,8.52-4.3,12.82,4-4.75,9.47-7.87,14.76-9.54.18-.06.23.27.05.34-6.13,2.23-10.9,6.44-15.54,11.49-.54,1.74-1.07,3.49-1.59,5.24-1.97,6.6-3.84,13.27-5.63,20.01-.86,3.21-1.7,6.43-2.53,9.65-.89,3.47-1.59,7.14-2.72,10.49-.12.31-.59.24-.52-.14.61-3.32,1.37-6.6,2.27-9.83Z"/>
  <path class="cls-10" d="M421.32,242.44c1.13,2.11,1.92,4.47,2.3,6.95,0,.07-.08.1-.1.04-.71-2.33-1.54-4.61-2.49-6.82-.1-.26.18-.4.29-.17Z"/>
  <path class="cls-10" d="M432.71,258.53c1.78-1.19,3.72-1.98,5.73-2.34.05,0,.09.08,0,.11-.92.46-1.89.78-2.83,1.22-.93.44-1.85.96-2.79,1.36-.04,0-.07,0-.1-.03-.03-.02-.05-.06-.06-.1-.01-.04-.01-.08,0-.12,0-.04.03-.08.06-.1Z"/>
  <path class="cls-10" d="M435.92,239.13c.57-.53,1.19-.99,1.85-1.38.02-.01.04-.01.06,0,.02,0,.04.03.05.05.01.02.02.05.01.08,0,.03-.01.05-.03.07-.56.55-1.17,1.03-1.81,1.44-.12.08-.25-.16-.14-.25Z"/>
  <path class="cls-5" d="M392.47,275.44c4.6,1.65,9.22,3.18,13.82,4.82.4.14,8.17-17.91,5.37-27.23-2.6-8.61-8.54-15.05-15.67-17.97-3.28-1.35-7.32-2.48-10.8-1.56-3.08.83-5.26,3.89-6.27,7.43-1.36,4.77-.91,10.47-.16,15.35.6,4.6,2.17,8.93,4.56,12.57,2.45,3.5,5.57,5.33,9.15,6.6Z"/>
  <path class="cls-10" d="M385.8,258.3c2.91,1.72,5.92,3.15,9.02,4.3,2.07.67,4.08,1.55,6.02,2.64-1.94-5.25-4.09-10.38-6.33-15.47-2.97-1.05-6.1-2.67-8.34-5.21-.02-.03-.03-.07-.03-.1,0-.04.01-.07.03-.1.02-.03.05-.05.08-.05.03,0,.06,0,.09.02,2.45,2.1,5.16,3.36,7.87,4.78-.61-1.37-1.23-2.74-1.86-4.13-.18-.38.26-.76.47-.39,2.42,4.26,4.6,8.7,6.53,13.3.5-4.03.66-8.12.48-12.19,0-.01,0-.03,0-.04,0-.01,0-.02.01-.04,0-.01.02-.02.02-.03,0,0,.02,0,.03,0,.01,0,.02,0,.03,0,0,0,.02.01.02.03,0,.01.01.02.01.04,0,.01,0,.03,0,.04.58,4.44.54,8.96-.11,13.38,1.61,3.9,3.08,7.9,4.4,11.94.52-2.43,1.2-4.82,1.66-7.27.7-3.51.93-7.13.68-10.73,0-.02,0-.04.02-.06.01-.02.03-.02.05-.02s.04,0,.05.02c.01.01.02.04.02.06.81,6.66.15,13.46-1.93,19.7.77,2.43,1.51,4.88,2.18,7.33,3.47,12.49,5.54,25.5,6.13,38.66,0,.06-.02.11-.06.15-.03.04-.08.07-.12.07s-.09-.01-.13-.04c-.04-.03-.07-.08-.08-.14-1.21-12.99-3.51-25.79-6.86-38.21-1.36-4.86-2.87-9.57-4.55-14.2-2.72-.97-5.45-2.29-8.09-3.42-2.64-1.12-5.27-2.35-7.49-4.42-.01-.02-.02-.04-.02-.07,0-.02,0-.05.01-.07,0-.02.02-.04.04-.05.02,0,.04-.01.06,0Z"/>
  <path class="cls-10" d="M381.51,253.06c2.81,1.21,5.45,2.91,8.3,4.13.13.06.05.3-.08.27-2.97-.74-5.92-1.86-8.32-4.22-.1-.07,0-.22.1-.18Z"/>
  <path class="cls-10" d="M404.51,245.74c0-.18.18-.28.23-.1.77,3.14,1.3,6.48.55,9.69-.03.12-.19.13-.2,0-.16-3.28,0-6.43-.59-9.59Z"/>
  <path class="cls-10" d="M392.86,238.45c.91,1.56,1.34,3.44,1.23,5.34,0,.12-.16.19-.19.05-.35-1.8-.92-3.43-1.36-5.18,0-.05,0-.1.01-.15.02-.05.05-.08.09-.11.04-.02.08-.03.12-.02.04,0,.08.03.11.07Z"/>
  <path class="cls-5" d="M447.19,283.42c-1.36,5.18-4.56,12.38-9.63,12.38-3.29.04-6.6-.43-9.9-.49-3.53-.07-7.07-.06-10.59.2-.29,0,.42-12.81,8.91-19.06,2.38-1.75,5.29-2.3,7.98-3.01,3.09-.88,6.26-1.28,9.43-1.19,1.95.1,3.58.59,4.26,3.01.69,2.42.18,5.69-.46,8.16Z"/>
  <path class="cls-10" d="M443.54,276.93c-2.04.64-4.15,1.39-6.21,2.18.54-.71,1.11-1.38,1.71-2.01.89-.89,1.87-1.61,2.82-2.39.08-.07,0-.25-.07-.21-2.01,1.01-3.74,2.68-5,4.83-2.58,1.01-5.14,2.12-7.6,3.34-1.7.84-3.33,1.88-4.86,3.1.49-1.3,1.08-2.55,1.76-3.72,1.13-1.77,2.65-2.76,4.13-4.01.01-.01.03-.02.04-.04,0-.02.02-.04.02-.06,0-.02,0-.04,0-.06,0-.02,0-.04-.02-.06s-.02-.03-.04-.05c-.01-.01-.03-.02-.05-.03-.02,0-.03,0-.05,0-.02,0-.03.01-.05.02-1.54.81-2.93,2-4.07,3.5-1.14,1.5-2.01,3.26-2.55,5.19-1.77,1.54-3.38,3.32-4.82,5.3-5.61,7.73-10.04,18.01-10.05,28.5,0,.25.33.32.37.06,1.44-10.29,5.14-19.91,10.71-27.87.4-.57.81-1.11,1.23-1.65,1.54-.25,3.09-.39,4.64-.41,1.8,0,3.6.32,5.39.49,2.96.3,6.24.34,8.92-1.47.12-.08,0-.33-.1-.27-5.96,2.62-12.21-.7-18.18.83,2.56-2.93,5.55-5.24,8.82-6.82l.54-.27c3.83.56,7.86,1.77,11.58.27.02,0,.04-.03.06-.05.01-.03.02-.06,0-.08,0-.03-.02-.05-.04-.07-.02-.01-.05-.02-.07-.01-3.6,1.09-7.05-.28-10.6-.5,3.87-1.82,7.81-3.3,11.68-5.08.33-.15.33-.51-.01-.4Z"/>
  <path class="cls-10" d="M445.22,281.49c-1.85.29-3.7.46-5.57.51-.04,0-.05.08,0,.09,1.87.42,3.8.27,5.61-.43.11-.03.05-.19-.05-.17Z"/>
  <path class="cls-10" d="M432.65,277.04c-1.02.56-1.94,1.35-2.72,2.32-.1.11,0,.31.14.22.47-.41.95-.82,1.44-1.18.47-.31.93-.66,1.36-1.03.07-.12-.06-.4-.21-.33Z"/>
  <path class="cls-5" d="M402.69,293.74c.06.17-.14.33-.23.15-.01.03-.03.05-.05.07-.02.02-.05.03-.07.04-3.42.99-6.88,1.72-10.37,2.19-2.81.3-6.04.49-8.5-1.48-3.32-2.67-5.52-9.83-3.72-14.37,2.13-5.4,8.55-2.48,11.76-.54,4.96,2.92,8.91,7.86,11.18,13.95Z"/>
  <path class="cls-10" d="M405.19,296.23c-1.87-2.19-3.95-4.11-6.19-5.71-1.61-3.1-3.76-5.74-6.28-7.75-.12-.1-.23.13-.11.24,2.01,1.94,3.79,4.21,5.29,6.74-2.5-1.65-5.09-3.09-7.77-4.28-.95-2.14-2.4-3.91-4.17-5.07-.03,0-.08.04-.05.07,1.46,1.34,2.73,2.95,3.77,4.79-1.57-.71-3.17-1.38-4.77-2.01-.14-.06-.2.21-.06.26,2.83,1.35,5.74,2.77,8.54,4.39-3.43.66-6.92.66-10.35,0-.1,0-.14.15-.04.18,3.58,1.27,7.37,1.34,10.98.2,1.79,1.05,3.53,2.23,5.21,3.53-1.41-.14-2.84,0-4.21.41-2.42.69-4.91,1.03-7.4,1.02-.1,0-.12.18,0,.21,4.29.89,8.35-1.47,12.6-.83,1.58,1.3,3.07,2.77,4.43,4.39,2.65,3.21,4.83,6.95,6.46,11.04,1.79,4.42,2.76,9.08,4.21,13.65,0,.02.01.04.02.06.01.02.02.03.04.04.01.01.03.02.05.02.02,0,.04,0,.05,0,.02,0,.03-.01.05-.03.01-.01.03-.03.03-.05.01-.02.02-.04.02-.06,0-.02,0-.04,0-.06-1.28-9.04-4.97-18.95-10.37-25.39Z"/>
  <path class="cls-10" d="M392.25,283.9c-.28-.62-.65-1.18-1.1-1.65-.36-.47-.79-.86-1.27-1.15-.05,0-.07.05-.04.08.35.49.84.82,1.22,1.3.38.48.68,1.02,1.08,1.47,0,0,.02.02.03.02.01,0,.02,0,.04,0,.01,0,.02-.02.03-.03,0-.01,0-.03,0-.04Z"/>
  <path class="cls-10" d="M385.16,286.69c-.63-.19-1.31-.18-1.96-.34-.64-.19-1.28-.42-1.9-.69,0,0-.02,0-.03,0-.01,0-.02,0-.03,0,0,0-.02.01-.02.02,0,0-.01.02-.02.03,0,.01,0,.02,0,.04,0,.01,0,.02,0,.04,0,.01,0,.02.02.03,0,0,.02.01.03.02,1.17.87,2.54,1.26,3.91,1.1.02,0,.04-.02.05-.04.01-.02.02-.05.02-.08s0-.05-.02-.08c-.01-.02-.03-.04-.05-.04Z"/>
  <path class="cls-4" d="M422.86,310.47l-.57,7.75-1.91,26.16h-16.91l-2.38-26.16-.71-7.75h22.49Z"/>
  <path class="cls-10" d="M422.86,310.47l-.57,7.75h-21.21l-.71-7.75h22.49Z"/>
  <path class="cls-4" d="M424.53,314.64h-25.83v-6.29h25.83v6.29Z"/>
  <path class="cls-10" d="M221.46,53.41s6.7-4.7,12.79-.3c6.09,4.4,9.13,15.51,8.24,24.92-.89,9.41,5.52,15.45,6.31,22.4.79,6.96-2.94,10.26-4.15,13.95-1.36,4.22,4.66,18.98-10.08,22.75-18.43,4.74-25.73-8.89-24.02-20.33.84-5.6,3.41-9.63,3.25-14.14-.16-4.51-2.81-8.05-1.52-13.81,1.29-5.76,3.12-5.03,3.73-14.03.61-9-1.08-19.7,5.44-21.4Z"/>
  <path class="cls-10" d="M232.97,52.93c3.97,2.98,7.09,7.36,8.94,12.55.93,2.58,1.5,5.32,1.7,8.12.25,3.66-.16,7.1,1.02,10.64,1.89,5.65,5.57,10.32,5.5,16.68-.04,2.96-.76,5.85-2.1,8.33-1.55,2.9-3.79,5.21-5.09,8.32-.05.13-.22,0-.16-.11,1.07-2.76,2.85-4.88,4.31-7.35,1.78-2.9,2.68-6.44,2.58-10.04-.24-6.02-3.86-10.58-5.61-16.04-.68-2.39-.97-4.92-.85-7.44.06-3.08-.31-6.15-1.1-9.08-1.72-5.89-4.94-10.95-9.2-14.47,0,0,.01-.12.06-.09Z"/>
  <path class="cls-10" d="M210.6,115.19c.43-2.71,1.55-5.17,1.98-7.87.51-3.25-.22-6.45-.78-9.62-.8-4.51-.78-8.8.8-13.1,1.03-2.78,2.29-5.39,3.03-8.31.81-3.17,1.24-6.46,1.27-9.77,0-.07.1-.07.1,0,.15,4.8-.63,9.58-2.26,13.95-.97,2.57-2.19,4.99-2.73,7.76-.65,3.3-.32,6.51.21,9.81.43,2.19.69,4.43.79,6.68-.07,2.27-.48,4.51-1.21,6.6-1.68,5.54-1.56,11.66.35,17.1,0,.09-.11.17-.14.08-1.6-4.15-2.09-8.8-1.4-13.3Z"/>
  <path class="cls-10" d="M249.29,99.62c-.24-4.95-3.15-8.25-4.95-12.54-1.36-3.22-2.3-6.68-1.93-10.27,0-.07.1-.05.1,0-.14,5.2,1.73,9.9,4.17,14.15,1.62,2.85,2.96,5.59,3.03,9.08.07,3.48-1.01,6.3-2.57,9.15-1.11,2.04-2.2,3.94-2.65,6.32-.34,2.4-.4,4.84-.16,7.25,0,.12-.16.12-.17,0-.33-3.71-.44-7.32,1.06-10.73,1.83-4.23,4.32-7.41,4.07-12.42Z"/>
  <path class="cls-10" d="M209.84,111.68c.64-1.7,1.4-3.33,2.28-4.86,1.53-2.83,1.75-5.11,1.18-8.41,0-.01,0-.02.02-.03,0,0,.02-.01.03-.01s.02,0,.03.01c0,0,.02.02.02.03.8,2.71,1.01,4.95-.29,7.53-1.81,3.56-3.59,6.79-3.91,10.99-.57,7.43,3.01,14.32,8.69,17.96.08.05,0,.18-.07.14-4.77-2.71-8.17-7.73-8.94-13.72-.42-3.25-.1-6.58.95-9.62Z"/>
  <path class="cls-16" d="M182.82,343.93c1.55.63,45.84.47,47.53-.83.63-.49,1-8.31,1.21-17.77.05-2.05.09-4.14.11-6.3.03-2.53.06-5.11.07-7.6.05-11.21-.07-21.08-.07-21.08h-28.83v28.68l.15,6.3s-16.93,9.25-18.66,10.92c-1.72,1.67-3.05,7.07-1.5,7.67Z"/>
  <path class="cls-9" d="M182.82,343.93c1.55.63,45.84.47,47.53-.83.63-.49.99-8.31,1.21-17.77.05-2.05.09-4.14.11-6.3.03-2.53.06-5.11.07-7.6h-28.9v7.6l.15,6.3s-16.93,9.25-18.66,10.92c-1.72,1.67-3.07,7.07-1.52,7.67Z"/>
  <path class="cls-1" d="M182.69,344.02c1.01.4,19.88.49,33.62.14,3.17-.08,6.08-.19,8.43-.31,3.24-.18,5.4-.4,5.76-.66.78-.61,1.15-12.09,1.36-24.19h-28.98l.15,6.33s-17.03,9.3-18.77,10.97c-1.74,1.68-3.11,7.09-1.57,7.72Z"/>
  <path class="cls-10" d="M183.33,341.86c7.46-.25,37.59-.4,44.96.05.06,0,.06.05,0,.06-7.39.44-37.52.29-44.96.04-.2,0-.2-.14,0-.15Z"/>
  <path class="cls-10" d="M201.92,323.3c2.93-.68,6.53-.14,8.79,2.38.08.1-.03.25-.13.21-2.81-1.09-5.71-1.81-8.64-2.15-.02,0-.05,0-.07-.01-.02,0-.04-.03-.06-.05-.02-.02-.03-.04-.04-.07,0-.03-.02-.06-.02-.08,0-.03,0-.06.01-.09,0-.03.02-.05.04-.07.02-.02.04-.04.06-.05.02-.01.04-.02.07-.02Z"/>
  <path class="cls-10" d="M199.81,324.88c2.94-.68,6.53-.15,8.78,2.39.09.1,0,.25-.13.21-2.81-1.09-5.71-1.81-8.64-2.15-.05,0-.1-.02-.13-.06-.04-.04-.06-.1-.06-.16,0-.06.02-.12.05-.16.03-.04.08-.07.13-.07Z"/>
  <path class="cls-10" d="M197.69,326.43c2.94-.68,6.53-.14,8.78,2.39.09.1,0,.25-.12.21-2.81-1.09-5.71-1.81-8.64-2.15-.04,0-.08-.03-.11-.07-.03-.04-.05-.09-.05-.15,0-.05.01-.11.04-.15.03-.04.07-.07.11-.09Z"/>
  <path class="cls-10" d="M195.57,327.99c2.93-.68,6.53-.15,8.78,2.39.09.1,0,.25-.12.21-2.81-1.08-5.71-1.8-8.64-2.14-.05,0-.1-.02-.13-.06-.04-.04-.06-.1-.06-.15,0-.06.02-.12.05-.16.03-.04.08-.07.13-.07Z"/>
  <path class="cls-10" d="M196.48,315.11c1.15-1.93,3.3-1.07,4.53.17,2.08,2.18,3.65,4.99,4.54,8.14,0,.01,0,.03,0,.04,0,.02,0,.03-.01.04,0,.01-.02.02-.03.03-.01,0-.02.01-.04.01,0,.27-.21.56-.46.45-2.43-1.08-5.14-1.87-7.22-3.82-1.22-1.14-2.42-3.24-1.33-5.07ZM201.62,321.45c1.18.56,2.38,1.06,3.55,1.65-.84-1.61-1.75-3.18-2.72-4.68-.48-.72-1-1.4-1.56-2.04-.88-.96-4.34-3-3.81.91.27,2.18,3.13,3.48,4.55,4.16Z"/>
  <path class="cls-10" d="M213.02,322.48c-2.42,1.26-5.2,1.2-7.78,1.52-.06,0-.11-.02-.16-.05-.05-.03-.1-.08-.13-.13-.03-.06-.06-.12-.07-.19,0-.07,0-.14.01-.2-.01,0-.02-.01-.03-.02,0-.01-.02-.02-.02-.04,0-.01,0-.03,0-.04,0-.02,0-.03.01-.04,1.52-2.78,3.61-5.02,6.08-6.5,1.44-.83,3.71-1.02,4.42,1.2.71,2.22-.92,3.75-2.33,4.5ZM214.34,319.94c1.31-3.62-2.46-2.69-3.51-2.03-.67.45-1.32.95-1.93,1.49-1.29,1.12-2.43,2.48-3.62,3.71,1.26-.25,2.52-.36,3.79-.55,1.51-.25,4.54-.64,5.27-2.64v.02Z"/>
  <path class="cls-4" d="M241.28,141.53s-7.79,93.37-7.97,94.55c0,.16-.08,1.96-.16,4.88-.42,16.07-1.46,66.19-1.46,66.19h-31.8s2.08-59.36,3.27-73.21c1.52-17.67,11.08-92.42,11.08-92.42h27.03Z"/>
  <path class="cls-10" d="M229.52,239.38c.98-20.23,2.45-40.42,4.42-60.55,1.12-11.34,2.46-22.64,3.79-33.96,0-.1.14-.09.13,0-2.46,20.13-4.2,40.43-5.7,60.67-1.5,20.23-2.55,40.52-3.24,60.82-.39,11.5-.68,23.01-.99,34.52,0,.05-.03.09-.06.12-.03.03-.07.05-.11.05s-.08-.02-.11-.05c-.03-.03-.05-.07-.06-.12.45-20.47.93-41.01,1.93-61.49Z"/>
  <path class="cls-10" d="M201.91,300.95c.83-.13,1.74-.09,2.58-.13.95,0,1.91-.05,2.86-.09,1.84-.08,3.68-.14,5.52-.18,3.71-.07,7.44-.04,11.14.1l3.07.13c1.08.05,2.18.17,3.26.17.08,0,.08.11,0,.11-1.87,0-3.76.2-5.63.28-1.87.08-3.68.11-5.53.15-3.71.07-7.43,0-11.14-.14-1.02-.05-2.04-.07-3.07-.11-.54,0-1.09-.06-1.63-.08-.54-.02-.97,0-1.45-.06-.02,0-.03,0-.04-.02-.01-.01-.02-.03-.01-.05,0-.02,0-.04.02-.05.01-.01.03-.02.04-.02Z"/>
  <path class="cls-10" d="M241.28,141.53s-7.79,93.37-7.97,94.55c0,.16-.08,1.96-.16,4.88l-14.99-99.43h23.11Z"/>
  <path class="cls-16" d="M261.89,342.28c1.63-.21,41.91-22.49,43.01-24.52.42-.76-1.92-8.06-4.95-16.78-.65-1.88-1.27-3.86-2.04-5.78-.97-2.43-1.97-4.83-2.96-7.14-4.26-10.03-8.17-18.24-8.17-18.24l-25.52,14.03,7.38,18.24,3.04,7.5,2.27,5.66s-12.26,16.89-13.28,19.26c-1.01,2.37-.41,7.97,1.21,7.77Z"/>
  <path class="cls-9" d="M261.89,342.28c1.63-.21,41.91-22.49,43.01-24.52.42-.76-1.92-8.06-4.95-16.78-.65-1.88-1.27-3.86-2.04-5.78-.97-2.43-1.97-4.83-2.96-7.14-7.88,4.27-19.24,10.3-26.31,14.03l3.04,7.5,2.27,5.66s-12.26,16.89-13.28,19.26c-1.01,2.37-.41,7.97,1.21,7.77Z"/>
  <path class="cls-1" d="M261.79,342.41c1.63-.21,42.14-22.61,43.25-24.65.5-.94-3.07-11.55-7.03-22.7l-26.39,14.48,2.29,5.69s-12.34,16.98-13.35,19.38c-1.01,2.39-.39,8.01,1.24,7.8Z"/>
  <path class="cls-10" d="M261.63,340.13c6.72-3.95,34.11-19.14,41-22.44.05,0,.08,0,0,.06-6.59,4.13-34.06,19.02-40.96,22.53-.13.07-.2-.06-.03-.14Z"/>
  <path class="cls-10" d="M272.26,313.95c2.45-2.09,5.9-3.39,8.81-2.22.12.05.06.24-.04.26-2.93.41-5.81,1.21-8.6,2.36-.04.02-.09.02-.13,0-.04-.02-.08-.06-.1-.11-.02-.05-.02-.1-.01-.16s.04-.1.08-.13Z"/>
  <path class="cls-10" d="M270.86,316.42c2.44-2.09,5.91-3.4,8.81-2.22.12.05.06.24-.04.26-2.94.41-5.83,1.2-8.63,2.36-.04,0-.08,0-.12-.02-.04-.02-.07-.06-.08-.11-.02-.05-.02-.1-.01-.15s.03-.09.07-.12Z"/>
  <path class="cls-10" d="M269.46,318.9c2.45-2.09,5.9-3.4,8.81-2.22.11.05.05.24-.04.26-2.93.42-5.81,1.21-8.6,2.36-.04.03-.1.04-.14.02s-.09-.06-.11-.11c-.02-.05-.03-.11-.02-.17s.05-.11.09-.13Z"/>
  <path class="cls-10" d="M268.06,321.36c2.45-2.08,5.9-3.39,8.81-2.21.12.05.06.24-.04.26-2.93.41-5.81,1.2-8.6,2.36-.04.01-.09,0-.12-.02-.04-.02-.07-.06-.09-.11-.02-.05-.02-.1-.01-.15,0-.05.03-.1.07-.13Z"/>
  <path class="cls-10" d="M264.5,309.18c.39-2.33,2.64-2.62,4.18-2.1,2.64.95,5.02,2.72,6.91,5.14.01,0,.02.02.02.03,0,.01,0,.03,0,.04,0,.01,0,.03,0,.04,0,.01-.01.02-.02.03.03.06.04.13.04.2,0,.07-.01.14-.04.2-.03.06-.06.12-.11.16-.05.04-.1.07-.16.08-2.58.23-5.31.87-7.87.13-1.52-.44-3.32-1.75-2.96-3.95ZM271.31,312.39c1.27-.07,2.53-.23,3.81-.25-1.36-1-2.66-2.06-4.09-2.9-.68-.41-1.39-.77-2.11-1.07-1.12-.44-4.98-.56-3.17,2.72,1.02,1.82,4.07,1.58,5.59,1.48h-.03Z"/>
  <path class="cls-10" d="M282.07,307.62c-1.77,2.35-4.33,3.7-6.57,5.26-.05.03-.11.05-.17.05-.06,0-.11-.02-.16-.05-.05-.03-.09-.08-.12-.14-.03-.06-.05-.12-.06-.19-.01,0-.03,0-.04,0-.01,0-.02-.01-.03-.03,0-.01-.01-.02-.02-.04,0-.01,0-.03,0-.05.44-3.28,1.58-6.36,3.32-8.94,1.04-1.49,3.03-2.77,4.44-1.11,1.41,1.66.45,3.85-.59,5.24ZM282.41,304.65c-.03-3.95-3.16-1.22-3.89-.09-.46.74-.87,1.52-1.25,2.33-.75,1.68-1.43,3.41-2.04,5.18,1.06-.82,2.17-1.58,3.26-2.39,1.3-.96,3.94-2.87,3.92-5.03h0Z"/>
  <path class="cls-4" d="M214.51,141.53s1.2,13.48,8.96,20.35c0,0,14.3,69.42,16.53,77.38,3.83,13.72,24.45,60.19,24.45,60.19l31.81-16.5s-24.26-51.78-26.89-55.76c-1.74-2.65-14.8-58.93-14.65-60.38,1.91-17.26-4.84-25.33-4.84-25.33l-35.38.05Z"/>
  <path class="cls-10" d="M236.53,146.42c.65,2.71,2.01,5.09,3.89,6.77,2.07,1.79,4.52,2.81,7.06,2.94.43,0,.46.82,0,.82-5.18,0-10.42-3.98-11.18-10.49,0-.15.19-.18.22-.04Z"/>
  <path class="cls-10" d="M218.5,157.61c1.88.91,3.68,2.07,5.35,3.44,1.78,1.34,3.41,2.9,5.14,4.34.07.05,0,.18-.06.13-1.81-1.26-3.68-2.34-5.45-3.64-1.78-1.19-3.47-2.57-5.05-4.13,0-.01-.01-.03-.01-.05s0-.03,0-.05c0-.01.02-.03.03-.04.01,0,.03-.01.04-.01Z"/>
  <path class="cls-10" d="M217.77,144.51c.28,1.44.62,2.86.93,4.29.31,1.43.52,2.71.87,4.03.29,1.27.88,2.42,1.69,3.3.46.47.96.88,1.44,1.3.26.23.54.45.81.68-.04-.19-.07-.39-.11-.58-.1-.55-.2-1.1-.3-1.65-.21-1.21-.42-2.43-.62-3.64-.4-2.39-.77-4.81-1.27-7.17,0-.02,0-.04,0-.06,0-.02.02-.03.04-.04.02,0,.03,0,.05,0,.01,0,.03.03.03.05.59,2.33,1.22,4.64,1.74,7,.25,1.15,1.23,6.88,1.27,7.29.05.4.1.83.12,1.26.06.43.08.86.05,1.29,0,.11-.12.09-.16,0-.16-.36-.28-.74-.37-1.14-.1-.41-.2-.82-.27-1.24,0-.15-.05-.3-.08-.45-.48-.32-.94-.75-1.36-1.11-.42-.36-.99-.77-1.45-1.2-.86-.8-1.5-1.9-1.83-3.14-.34-1.35-.58-2.73-.72-4.13-.21-1.65-.38-3.3-.63-4.89-.02-.12.1-.16.12-.07Z"/>
  <path class="cls-10" d="M264.36,291.67c.71-.52,8.24-4.77,9.92-5.7,3.37-1.86,15.03-7.66,16.13-8.14.36-.16.39.08.1.25-1.72,1.01-8.47,4.76-10.14,5.69-3.37,1.86-15.49,7.9-15.96,8.06-.08.02-.12-.09-.05-.15Z"/>
  <path class="cls-10" d="M247.84,143.12c2.79,5.09,4.32,11.06,4.4,17.17,0,1.53-.1,3.07-.31,4.58-.05.38-.09.76-.16,1.13l-.09.56c-.04.16-.06.32-.06.48.07.69.23,1.45.36,2.18.58,2.94,1.22,5.87,1.86,8.79,2.59,11.69,5.21,23.37,7.98,35l2.04,8.71c.36,1.45.71,2.9,1.1,4.33.19.71.38,1.44.61,2.1.22.66.52,1.33.83,1.99,2.35,5.32,4.9,10.54,7.35,15.8,0,0,12.54,25.52,15.12,31.41.12.27.06.45-.17.08-2.24-3.54-10.41-20.68-15.5-31.09-2.55-5.21-5.06-10.44-7.49-15.77-.31-.66-.58-1.36-.86-2.05-.29-.69-.44-1.45-.64-2.18-.39-1.44-.76-2.9-1.12-4.35-.71-2.9-1.42-5.78-2.1-8.71-2.69-11.67-5.35-23.35-7.78-35.09-.61-2.94-1.21-5.88-1.74-8.85-.13-.75-.27-1.46-.35-2.27,0-.22.02-.44.07-.64l.1-.54c.07-.36.12-.74.18-1.11.2-1.48.32-2.98.33-4.48.06-6.07-1.31-12.02-3.94-17.19Z"/>
  <path class="cls-16" d="M231.07,93.23c-2.59,10.22-15.92,36.31-24.58,38.5-6.96,1.78-25.98-.24-31.01-1.35-1.69-.37,1.28-24.39,3.27-24.39,4.69,0,19.54,6.47,23.55,4.7,1.57-.69,10.9-10.19,22.08-21.78,4.32-4.49,8.23-1.77,6.69,4.32Z"/>
  <path class="cls-16" d="M176.76,130.58c-2.32-.2-12.91-2.23-15.75-3.6-2.84-1.37-10.78-6.01-10.14-8.75s3.06-1.65,3.06-1.65c0,0-3.1-2.61-2.24-5.3.86-2.69,4.56-.77,4.56-.77,0,0-3.02-2.96-2-5.56,1.01-2.61,4.47.07,4.47.07,0,0-2.86-2.55-1.29-4.27,1.9-2.07,6.74,3.3,9.97,4.57.73.27,15.19,4.34,15.19,4.34l-5.83,20.91Z"/>
  <path class="cls-10" d="M158.42,104.86c3.57,3.97,5.69,4.95,10.39,6,.1,0,.09.19,0,.18-4.67-.51-7.49-1.29-10.55-5.98-.16-.23,0-.42.16-.2Z"/>
  <path class="cls-10" d="M155.97,110.24c4.01,3.74,6.31,4.84,11.16,6.35.01,0,.03.02.03.03,0,.01.01.03.01.05,0,.02,0,.03-.01.05,0,.01-.02.02-.03.03-4.86-1.01-7.66-1.86-11.25-6.24-.19-.2-.08-.44.1-.27Z"/>
  <path class="cls-10" d="M154.18,116.7c4.09,3.3,6.57,4.61,11.44,5.36.02,0,.05.01.06.03.02.02.03.05.03.08s0,.06-.03.08c-.02.02-.04.03-.06.03-5.03-.17-8.13-1.82-11.5-5.41-.23-.25-.19-.37.06-.17Z"/>
  <path class="cls-9" d="M172,127.41h-42.71v-51.74h42.71v51.74Z"/>
  <path class="cls-5" d="M169.91,124.87h-38.53v-46.67h38.53v46.67Z"/>
  <path class="cls-18" d="M163.7,89.33c.15.93.05,1.89-.28,2.74-.33.85-.88,1.55-1.57,2-.69.44-1.47.61-2.24.47-.77-.14-1.48-.57-2.03-1.24-.55-.67-.91-1.53-1.02-2.46-.12-.93.02-1.89.39-2.72.37-.83.95-1.5,1.65-1.9.7-.4,1.5-.52,2.26-.34.7.17,1.35.59,1.86,1.2.51.62.85,1.4.99,2.25Z"/>
  <path class="cls-18" d="M159.23,112.76h-27.85l13.92-18.91,13.92,18.91Z"/>
  <path class="cls-8" d="M169.91,112.76h-22.99l11.49-12.32,11.5,12.32Z"/>
  <path class="cls-1" d="M169.91,112.76h-22.99l11.49-12.32,11.5,12.32Z"/>
  <path class="cls-8" d="M131.39,112.76h38.53v12.11h-38.53v-12.11Z"/>
  <path class="cls-17" d="M131.39,112.76h38.53v12.11h-38.53v-12.11Z"/>
  <path class="cls-16" d="M185.6,110.31s-3.64-5.89-5.7-8.06c-2.06-2.17-12.23-6.78-13.17-4.18-1.23,3.36,4.2,7.43,7.08,8.99,0,0-2.84,7.76.53,11.71,3.37,3.94,11.27-8.46,11.27-8.46Z"/>
  <path class="cls-10" d="M166.64,99.12c.68,4.04,4.59,5.78,7.28,7.58.04.02.08.06.1.1.03.04.04.1.05.15,0,.05,0,.11-.01.16-.01.05-.04.1-.07.14-1.01,3.35-1.63,8.43.16,11.51.05.09-.05.2-.11.12-2.29-3-2.01-8.05-.68-11.63-2.79-1.77-6.61-3.75-6.72-8.13h0Z"/>
  <path class="cls-5" d="M186.13,105.99l.13,29.71s14.87-.51,21.6-3.38c6.73-2.87,19.07-24.14,22.68-33.83,3.61-9.7,1.68-18.2-7.85-9.03-9.53,9.18-20.29,20.23-20.6,20.45-.32.21-15.96-3.91-15.96-3.91Z"/>
  <path class="cls-2" d="M225.11,88.21c0,.14.03.27.1.39s.15.2.26.26c.1.05.22.07.33.04.11-.03.21-.09.29-.19.08-.1.13-.22.16-.35.02-.13.01-.27-.03-.4-.04-.13-.12-.23-.21-.31-.09-.08-.2-.12-.32-.12-.15,0-.3.07-.4.2-.11.13-.17.31-.17.49ZM225.68,103.19c.15,0,.3.07.4.2.11.13.17.31.17.49s-.06.36-.17.49c-.11.13-.25.2-.4.2s-.3-.07-.4-.2c-.11-.13-.17-.31-.17-.49s.06-.36.17-.49c.11-.13.25-.2.4-.2ZM216.79,103.19c.15,0,.3.07.4.2.11.13.17.31.17.49s-.06.36-.17.49c-.11.13-.25.2-.4.2s-.3-.07-.41-.2c-.11-.13-.17-.31-.17-.49s.06-.36.17-.49c.11-.13.25-.2.41-.2ZM208.41,103.56c.05.11.07.22.07.34,0,.12-.03.24-.08.34-.05.1-.12.19-.21.24-.09.06-.18.09-.28.09-.13,0-.25-.05-.35-.14.28-.28.57-.56.85-.87ZM230.13,95.37c.11,0,.22.04.32.12.09.08.17.18.21.31.04.13.05.27.03.4-.02.13-.08.26-.16.35-.08.1-.18.16-.29.19-.11.03-.23.01-.33-.04-.11-.05-.19-.14-.26-.26-.06-.11-.1-.25-.1-.39,0-.18.06-.36.17-.49.11-.13.25-.2.4-.2ZM221.24,95.37c.11,0,.22.04.32.11.1.08.17.18.21.31.04.13.06.27.04.4-.02.14-.08.26-.15.36-.08.1-.18.16-.29.19-.11.03-.23.01-.33-.04-.11-.05-.19-.14-.26-.26-.06-.11-.1-.25-.1-.39,0-.09.01-.18.04-.26.03-.08.07-.16.12-.22.05-.06.11-.12.18-.15.07-.04.14-.05.22-.06h0ZM216.8,118.86c.11,0,.22.04.32.12.09.08.17.18.21.31.04.13.06.27.03.4-.02.14-.08.26-.16.36s-.18.16-.29.19c-.11.03-.23.01-.33-.04-.1-.05-.19-.14-.26-.26-.06-.11-.1-.25-.1-.38,0-.09.01-.18.04-.26.03-.08.07-.16.12-.23.05-.06.12-.11.18-.15.07-.04.14-.05.22-.05h0ZM207.94,118.86c.11,0,.22.04.32.12.1.08.17.18.21.31.04.13.05.27.03.4-.02.14-.08.26-.16.36-.08.1-.18.16-.29.19-.11.03-.23.01-.33-.04-.11-.05-.19-.14-.26-.26-.06-.11-.1-.25-.1-.38,0-.18.06-.35.16-.48.1-.13.24-.21.38-.22h.03ZM199.09,118.86c.08-.01.16,0,.24.03.08.03.15.08.21.14.06.07.11.14.14.23.03.09.05.19.05.28s-.02.19-.05.28c-.03.09-.08.17-.14.23-.06.06-.13.11-.21.14-.08.03-.16.04-.24.03-.08.01-.16,0-.24-.03-.08-.03-.15-.08-.21-.14-.06-.07-.11-.14-.14-.23-.03-.09-.05-.19-.05-.28s.02-.19.05-.28c.03-.09.08-.17.14-.23.06-.06.13-.11.21-.14.08-.03.16-.04.24-.03ZM190.23,118.86c.11,0,.22.04.32.11s.17.18.21.31c.04.13.06.27.04.4s-.07.26-.15.36-.18.17-.29.19c-.11.03-.23.01-.33-.04-.1-.05-.19-.14-.26-.26-.06-.11-.1-.25-.1-.39,0-.17.04-.33.13-.45.09-.13.21-.21.34-.24h.1ZM221.33,111.04c.11,0,.22.04.32.11.1.08.17.18.21.31.04.13.06.27.04.4-.02.14-.07.26-.15.36s-.18.16-.29.19c-.11.03-.23.01-.33-.04-.1-.05-.19-.14-.26-.25-.06-.11-.1-.25-.1-.39,0-.17.04-.33.13-.45.09-.13.21-.21.34-.24h.1ZM212.47,111.04c.11,0,.22.04.32.12.09.08.17.18.21.31.04.13.06.27.03.4-.02.13-.08.26-.16.35-.08.1-.18.16-.29.19-.11.03-.23.01-.33-.04-.1-.05-.19-.14-.26-.25-.06-.11-.1-.25-.1-.39,0-.16.04-.32.12-.44.08-.13.2-.21.33-.25h.12ZM203.62,111.04c.11,0,.22.04.32.12.09.08.17.18.21.31.04.13.05.27.03.4-.02.13-.08.26-.16.35s-.18.16-.29.19c-.11.03-.23.01-.33-.04-.1-.05-.19-.14-.26-.25-.06-.11-.1-.25-.1-.39,0-.16.03-.31.11-.44.08-.13.19-.22.31-.26h.15ZM194.76,111.04c.11,0,.22.04.32.12.09.08.17.18.21.31.04.13.05.27.03.4-.02.13-.08.26-.16.35s-.18.16-.29.19c-.11.03-.23.01-.33-.04-.1-.05-.19-.14-.26-.25s-.1-.25-.1-.39c0-.15.03-.3.1-.43.07-.13.18-.22.3-.26h.18ZM186.45,111.73c0,.15-.04.29-.11.41v-.83c.01.15,0,.29-.07.42h.18ZM190.32,134.53c.07,0,.15.02.22.05.07.03.13.08.18.15.05.06.1.14.12.22.03.08.04.17.04.26,0,.08-.01.16-.03.23l-1.04.08c-.04-.1-.06-.2-.06-.31,0-.15.03-.3.1-.42.07-.12.17-.22.29-.26h.18ZM212.53,126.71c.11,0,.22.04.32.12.09.08.17.19.21.31.04.13.05.27.03.4-.02.13-.08.26-.16.36-.08.1-.18.16-.29.19-.11.03-.23.01-.33-.04-.11-.05-.19-.14-.26-.26-.06-.11-.1-.25-.1-.38,0-.15.03-.3.1-.43.07-.12.17-.22.29-.27h.18ZM203.67,126.71c.11,0,.22.04.32.12.09.08.17.19.21.31.04.13.05.27.03.4-.02.13-.08.26-.16.36s-.18.16-.29.19c-.11.03-.23.01-.33-.04-.1-.05-.19-.14-.26-.26-.06-.11-.1-.25-.1-.38,0-.15.02-.3.09-.42.07-.12.16-.22.28-.28h.21ZM194.82,126.71c.11,0,.22.04.32.12.1.08.17.19.21.31.04.13.06.27.03.4-.02.13-.08.26-.16.36s-.18.16-.29.19c-.11.03-.23.01-.33-.04-.1-.05-.19-.14-.26-.26-.06-.11-.1-.25-.1-.38,0-.15.02-.29.08-.41.06-.12.15-.22.26-.28h.23ZM186.5,127.4c0,.09-.01.17-.03.25v-.52c-.05.11-.12.2-.2.26h.23Z"/>
  <path class="cls-10" d="M191.06,121.28c0-2.13-.08-10.6-.25-12.68,0-.06-.07-.04-.07,0-.17,2.1-.23,10.63-.23,12.76,0,4.26,0,8.54.24,12.77,0,.09.1.1.1,0,.25-4.25.2-8.57.2-12.85Z"/>
  <path class="cls-6" d="M195.85,134.94c4.24-.5,8.96-1.31,12.01-2.62,6.72-2.87,19.07-24.14,22.68-33.83,3.07-8.25,2.13-15.68-4.15-11.96l-30.54,48.4Z"/>
  <path class="cls-8" d="M215.63,121.25l-2.64,23.15,7.43.04,2.12-4.7,2.96,4.7c9.58,0,21.87-.07,26.33-.49,0,0-6.56-43.19-14.93-54.04-4.18-5.43-9.06-4.95-12.15-1.13-.78.97-10.08,16.08-11.03,21.83-.83,5.07,1.91,10.63,1.91,10.63Z"/>
  <path class="cls-5" d="M251.84,143.96c-4.47.42-16.76.5-26.33.49l-2.96-4.7-2.11,4.69-7.44-.04,2.64-23.15s-2.72-5.55-1.91-10.63c.52-3.14,3.56-9.08,6.31-14.03.04-.06.07-.13.12-.19,2.23-3.96,4.25-7.18,4.6-7.61,2.97-3.71,7.58-4.27,11.65.51.04.04.08.08.11.12.13.15.26.31.39.48,1.31,1.82,2.41,3.84,3.28,6l.14.33c2.25,5.71,4.1,11.64,5.52,17.72,0,.08.04.16.06.23,3.62,14.61,5.92,29.76,5.92,29.76Z"/>
  <path class="cls-2" d="M233.99,88.21c0,.14.03.27.1.39.06.11.15.2.26.26.1.05.22.07.33.04.11-.03.21-.09.29-.19.08-.1.14-.22.16-.35.02-.13.01-.27-.03-.4-.04-.13-.12-.23-.21-.31-.09-.08-.21-.12-.32-.12-.15,0-.3.08-.4.21-.11.13-.17.3-.17.49ZM225.92,87.58c.09.05.16.12.22.22.06.1.09.21.11.32.01.12,0,.24-.04.34-.04.11-.1.21-.17.28-.07.07-.16.12-.26.14-.1.02-.19.01-.29-.03-.09-.04-.17-.1-.24-.19s-.11-.19-.13-.31c.25-.28.52-.54.8-.78ZM242.95,103.52c.1.34.21.68.32,1.02-.12-.04-.22-.13-.29-.25-.07-.12-.11-.26-.11-.41,0-.13.04-.25.09-.36h0ZM234.56,103.19c.11,0,.22.04.32.12.09.08.17.18.21.31.04.13.05.27.03.4-.02.14-.08.26-.16.36-.08.1-.18.16-.29.19-.11.03-.23.01-.33-.04-.11-.05-.19-.14-.26-.26s-.1-.25-.1-.39c0-.09.01-.18.04-.27s.07-.16.13-.23c.05-.06.12-.11.19-.15.07-.03.15-.05.22-.05h0ZM225.7,103.19c.15,0,.3.07.4.2.11.13.17.31.17.49s-.06.36-.17.49c-.11.13-.25.2-.4.2s-.3-.07-.4-.2c-.11-.13-.17-.31-.17-.49s.06-.36.17-.49c.11-.13.25-.2.4-.2ZM216.53,103.28c.09-.06.18-.09.28-.09.15,0,.3.07.4.2.11.13.17.31.17.49-.02.17-.08.33-.19.44-.11.11-.24.18-.38.18s-.28-.06-.38-.18-.17-.27-.19-.44l.29-.6ZM239.01,95.37c.11,0,.22.04.32.12.09.08.17.18.21.31.04.13.05.27.03.4-.02.13-.08.26-.16.35-.08.1-.18.16-.29.19-.11.03-.23.01-.33-.04-.11-.05-.19-.14-.26-.26-.06-.11-.1-.25-.1-.39,0-.18.06-.35.16-.48.1-.13.24-.21.39-.21h.03ZM230.16,95.37c.11,0,.22.04.32.12.09.08.17.18.21.31.04.13.05.27.03.4-.02.13-.08.26-.16.35-.08.1-.18.16-.29.19-.11.03-.23.01-.33-.04-.1-.05-.19-.14-.26-.26-.06-.11-.1-.25-.1-.39,0-.18.06-.35.16-.48.1-.13.24-.21.39-.21h.03ZM221.27,95.37c.11,0,.22.04.32.11.1.08.17.18.21.31.04.13.06.27.04.4-.02.14-.08.26-.16.36-.08.1-.18.16-.29.19-.11.03-.23.01-.33-.04s-.2-.14-.26-.26c-.06-.11-.1-.25-.1-.39,0-.18.05-.35.15-.48.1-.13.24-.21.38-.22h.03ZM243.48,118.86c.11,0,.22.04.32.12.09.08.17.18.21.31.04.13.05.27.03.4-.02.14-.08.26-.16.36s-.18.16-.29.19c-.11.03-.23.01-.33-.04-.1-.05-.19-.14-.26-.26-.06-.11-.1-.25-.1-.38,0-.18.06-.35.15-.48.1-.13.24-.21.38-.22h.03ZM234.62,118.86c.11,0,.22.04.32.12.09.08.17.18.21.31.04.13.05.27.03.4-.02.14-.08.26-.16.36-.08.1-.18.16-.29.19-.11.03-.23.01-.33-.04-.1-.05-.19-.14-.26-.26-.06-.11-.1-.25-.1-.38,0-.17.05-.34.15-.47.1-.13.22-.21.37-.23h.06ZM225.77,118.86c.11,0,.22.04.32.12.09.08.17.18.21.31.04.13.05.27.03.4-.02.14-.08.26-.16.36-.08.1-.18.16-.29.19-.11.03-.23.01-.33-.04-.1-.05-.19-.14-.26-.26-.06-.11-.1-.25-.1-.38,0-.17.04-.33.13-.46.09-.13.21-.21.35-.24h.09ZM216.88,118.86c.11,0,.22.04.32.12.09.08.17.18.21.31.04.13.05.27.03.4-.02.14-.08.26-.16.36s-.18.16-.29.19c-.11.03-.23.01-.33-.04-.1-.05-.19-.14-.26-.26-.06-.11-.1-.25-.1-.38,0-.17.04-.33.13-.46.09-.13.21-.21.35-.24h.09ZM238.98,111.04c.11,0,.22.04.32.12.09.08.17.18.21.31.04.13.06.27.03.4-.02.13-.08.26-.16.35s-.18.16-.29.19c-.11.03-.23.01-.33-.04-.1-.05-.19-.14-.26-.25-.06-.11-.1-.25-.1-.39,0-.18.06-.36.17-.49.11-.13.25-.2.4-.2ZM230.13,111.04c.08-.01.16,0,.24.03.08.03.15.08.21.14.06.06.11.14.14.23.03.09.05.19.05.28s-.02.19-.05.28-.08.17-.14.23c-.06.07-.13.11-.21.14-.08.03-.16.04-.24.03-.08.01-.16,0-.24-.03-.08-.03-.15-.08-.21-.14-.06-.07-.11-.15-.14-.23-.03-.09-.05-.18-.05-.28s.02-.19.05-.28c.03-.09.08-.17.14-.23.06-.07.13-.11.21-.14.08-.03.16-.04.24-.03ZM221.24,111.04c.11,0,.23.04.32.11.1.08.17.18.21.31.04.13.06.27.04.4-.02.14-.07.26-.15.36s-.18.16-.29.19c-.11.03-.23.01-.33-.04-.11-.05-.2-.14-.26-.25s-.1-.25-.1-.39c0-.09.01-.18.04-.26.03-.08.07-.16.12-.22.05-.06.11-.12.18-.15.07-.04.14-.05.21-.06h0ZM243.45,134.52c.11,0,.22.04.32.12.09.08.17.18.21.31.04.13.06.27.03.4-.02.13-.08.26-.16.35s-.18.16-.29.19c-.11.03-.23.01-.33-.04-.1-.05-.19-.14-.26-.25-.06-.11-.1-.25-.1-.39,0-.18.06-.36.17-.49.1-.13.25-.2.4-.21h0ZM234.6,134.52c.11,0,.22.04.32.12.09.08.17.18.21.31.04.13.05.27.03.4-.02.13-.08.26-.16.35-.08.1-.18.16-.29.19-.11.03-.23.01-.33-.04-.11-.05-.19-.14-.26-.25-.06-.11-.1-.25-.1-.39,0-.18.06-.35.16-.47.1-.13.24-.21.38-.22h.03ZM225.74,134.52c.11,0,.22.04.32.12.09.08.17.18.21.31.04.13.05.27.03.4-.02.13-.08.26-.16.35s-.18.16-.29.19c-.11.03-.23.01-.33-.04-.1-.05-.19-.14-.26-.25-.06-.11-.1-.25-.1-.39,0-.17.05-.34.15-.47.09-.13.22-.21.36-.23h.06ZM216.85,134.52c.11,0,.22.04.32.12.09.08.17.18.21.31.04.13.06.27.03.4-.02.13-.08.26-.16.35s-.18.16-.29.19c-.11.03-.23.01-.33-.04-.1-.05-.19-.14-.26-.25-.06-.11-.1-.25-.1-.39,0-.17.05-.34.15-.47.09-.13.22-.21.37-.23h.06ZM247.95,126.71c.11,0,.22.04.32.12.1.08.17.19.21.31.04.13.06.27.03.4-.02.13-.08.26-.16.36s-.18.16-.29.19c-.11.03-.23.01-.33-.04-.11-.05-.19-.14-.26-.26-.06-.11-.1-.25-.1-.38,0-.17.05-.34.15-.47.09-.13.22-.21.37-.23h.06ZM239.09,126.71c.11,0,.22.04.32.12.09.08.17.19.21.31.04.13.05.27.03.4-.02.13-.08.26-.16.36-.08.1-.18.16-.29.19-.11.03-.23.01-.33-.04-.1-.05-.19-.14-.26-.26-.06-.11-.1-.25-.1-.38,0-.16.04-.32.13-.45.08-.13.2-.21.33-.25h.11ZM230.24,126.71c.15,0,.3.07.4.2.11.13.17.31.17.49s-.06.36-.17.49-.25.2-.4.2-.3-.07-.4-.2c-.11-.13-.17-.31-.17-.49s.06-.36.17-.49c.11-.13.25-.2.4-.2ZM221.35,126.71c.15,0,.3.07.4.2.11.13.17.31.17.49s-.06.36-.17.49c-.11.13-.25.2-.4.2s-.3-.07-.4-.2c-.11-.13-.17-.31-.17-.49s.06-.36.17-.49c.11-.13.25-.2.4-.2ZM248,142.38c.11,0,.22.04.32.12.09.08.17.18.21.31.04.13.05.27.03.4-.02.13-.08.26-.16.35s-.18.16-.29.19c-.11.03-.23.01-.33-.04-.1-.05-.19-.14-.26-.25s-.1-.25-.1-.39c0-.16.04-.32.12-.45.08-.13.2-.22.33-.25h.12ZM239.15,142.38c.11,0,.22.04.32.12.09.08.17.18.21.31.04.13.05.27.03.4-.02.13-.08.26-.16.35s-.18.16-.29.19c-.11.03-.23.01-.33-.04-.1-.05-.19-.14-.26-.25-.06-.11-.1-.25-.1-.39,0-.15.03-.31.1-.43.07-.13.18-.22.3-.27h.16ZM230.29,142.38c.11,0,.22.04.32.12.09.08.17.18.21.31.04.13.05.27.03.4-.02.13-.08.26-.16.35s-.18.16-.29.19c-.11.03-.23.01-.33-.04-.1-.05-.19-.14-.26-.25-.06-.11-.1-.25-.1-.39,0-.15.03-.31.1-.43.07-.13.18-.22.3-.27h.16ZM221.4,142.38h.12l-.52,1.16c-.05-.06-.1-.14-.13-.22-.03-.08-.04-.17-.04-.26,0-.15.04-.3.11-.42.07-.12.18-.21.29-.26h.17Z"/>
  <path class="cls-10" d="M214.25,133.58c.33-2.11.59-3.77.86-5.9.27-2.13.59-4.25.84-6.38v-.14l-.07-.13c-.86-1.64-1.46-3.45-1.79-5.36-.17-.94-.25-1.91-.23-2.87,0-.96.12-1.92.36-2.84.51-1.87,1.15-3.69,1.91-5.43.76-1.76,1.36-3.24,2.22-4.95.14-.26.05-.33-.07-.12-.85,1.39-1.77,3.3-2.49,4.83-.87,1.72-1.59,3.54-2.16,5.44-.27.98-.42,2-.44,3.04-.03,1.03.04,2.06.22,3.06.34,2.01,1,3.93,1.95,5.63l-.05-.28c-.23,2.14-.42,4.27-.62,6.42-.18,1.92-.4,3.99-.53,5.92,0,.22,0,.81.1.05Z"/>
  <path class="cls-10" d="M216.85,101.19c-.34.62-.63,1.29-.85,2-.11.35-.2.71-.28,1.07-.09.36-.13.74-.14,1.12.27-.69.52-1.35.74-2.05.23-.69.4-1.41.52-2.15Z"/>
  <path class="cls-10" d="M230.9,123.07c-1.35-.41-2.71-.73-4.09-.94-.68-.12-1.36-.17-2.04-.21h-1c-.36,0-.73.05-1.1,0,0,0-.04.07,0,.07.35,0,.68.11,1.03.17l1.03.14,2.04.3c1.36.17,2.73.37,4.12.61.01,0,.02-.01.03-.03,0-.01.01-.03.01-.04,0-.02,0-.03-.01-.04,0-.01-.02-.02-.03-.03Z"/>
  <path class="cls-16" d="M237.89,91.66c7.15,11.72,20.8,39.46,16.22,45.57-7.49,10.05-25.6,18.71-31.22,20.37-2.45.71-10.65-20.74-8.34-22.41,2.78-2.02,22.19-9.21,22.13-11.21-.03-1.13-2.04-10.65-3.72-22.85-1.93-14.16,1.53-15.04,4.93-9.46Z"/>
  <path class="cls-16" d="M223.39,133.95s-7.31-2.84-12.17-4.42c-2.72-.88-7.46-1.89-9.69-1.44-3.34.68-16.95,6.09-15.95,10.12.92,3.64,12.13-2.81,12.13-2.81,0,0-11.79,5.31-10.02,9.45,1.77,4.14,13.62-5.19,13.62-5.19,0,0-12.01,5.78-9.62,9.7,1.8,2.96,12.94-4.76,12.94-4.76,0,0-10.29,5.06-8.55,8.2,1.93,3.47,12.58-2.87,12.58-2.87,5.54,7.1,10.55,8.01,14.21,7.66.89-.09.51-23.64.51-23.64Z"/>
  <path class="cls-10" d="M201.69,133.26c-1.4.56-2.83,1.11-4.18,1.82-1.35.71-2.72,1.49-3.99,2.34-1.71,1.09-3.31,2.41-4.77,3.94,2.77-2.48,7.59-5.12,8.95-5.83,1.36-.71,2.68-1.5,4.03-2.21.02-.02,0-.07-.04-.06Z"/>
  <path class="cls-10" d="M203.9,139.14c-3.59,1.31-7.03,3.13-10.26,5.44-.13.08-.05.13.08.06,1.7-.96,8.67-4.46,10.22-5.45l-.04-.05Z"/>
  <path class="cls-10" d="M206.55,143.79c-2.62.99-5.12,2.37-7.45,4.13-.12.08,0,.14.12.07,2.42-1.37,4.12-2.19,7.37-4.08.05-.02.03-.13-.03-.11Z"/>
  <path class="cls-5" d="M221.04,131.6l10.45,28.32s20.06-15.23,23.7-23.52c3.26-7.43-12.4-37.79-16.03-43.73-3.63-5.94-7.25-6.93-6.85,2.96.4,9.89,3.78,27.84,3.78,28.12s-15.05,7.86-15.05,7.86Z"/>
  <path class="cls-2" d="M234,88.29c.02.16.08.31.18.42.1.11.23.17.36.18.13,0,.26-.04.37-.14.11-.1.18-.24.21-.4-.36-.17-.75-.19-1.12-.06ZM243.45,103.19c.11,0,.22.04.32.12.09.08.17.18.21.31.04.13.05.27.03.4-.02.14-.08.26-.16.36s-.18.16-.29.19c-.11.03-.23.01-.33-.04-.11-.05-.19-.14-.26-.26s-.1-.25-.1-.39c0-.18.06-.36.17-.49.11-.13.25-.2.4-.2ZM234.59,103.19c.11,0,.22.04.32.12.09.08.17.18.21.31.04.13.05.27.03.4-.02.14-.08.26-.16.36s-.18.16-.29.19c-.11.03-.23.01-.33-.04-.1-.05-.19-.14-.26-.26-.06-.11-.1-.25-.1-.39,0-.18.06-.35.16-.48.1-.13.24-.21.39-.21h.03ZM238.98,95.37c.11,0,.22.04.32.12.09.08.17.18.21.31.04.13.05.27.03.4-.02.13-.08.26-.16.35-.08.1-.18.16-.29.19-.11.03-.23.01-.33-.04-.1-.05-.19-.14-.26-.26-.06-.11-.1-.25-.1-.39,0-.18.06-.36.17-.49.11-.13.25-.2.4-.2ZM251.87,119.15c.13.36.27.72.41,1.07-.1-.01-.19-.05-.27-.12-.08-.07-.15-.16-.19-.27-.04-.11-.06-.23-.05-.35,0-.12.04-.23.1-.33ZM243.45,118.86c.11,0,.22.04.32.12.09.08.17.18.21.31.04.13.05.27.03.4-.02.14-.08.26-.16.36s-.18.16-.29.19c-.11.03-.23.01-.33-.04-.11-.05-.19-.14-.26-.26-.06-.11-.1-.25-.1-.38,0-.18.06-.36.17-.49.11-.13.25-.2.4-.2ZM247.89,111.04c.11,0,.22.04.32.12.09.08.17.18.21.31.04.13.05.27.03.4-.02.14-.08.26-.16.35-.08.1-.18.16-.29.19-.11.03-.23.01-.33-.04-.1-.05-.19-.14-.26-.25-.06-.11-.1-.25-.1-.39,0-.09.01-.18.04-.27.03-.08.07-.16.12-.23.05-.06.12-.12.19-.15.07-.03.14-.05.22-.05ZM239.03,111.04c.11,0,.22.04.32.12.09.08.17.18.21.31.04.13.05.27.03.4-.02.14-.08.26-.16.35s-.18.16-.29.19c-.11.03-.23.01-.33-.04-.1-.05-.19-.14-.26-.25s-.1-.25-.1-.39c0-.17.05-.34.15-.47.1-.13.23-.21.37-.22h.05ZM252.36,134.52c.15,0,.3.07.4.2.11.13.17.31.17.49s-.06.36-.17.49c-.11.13-.25.2-.4.2s-.3-.07-.4-.2c-.11-.13-.17-.31-.17-.49s.06-.36.17-.49c.11-.13.25-.2.4-.2ZM243.5,134.52c.11,0,.22.04.32.12.09.08.17.18.21.31.04.13.05.27.03.4-.02.13-.08.26-.16.35s-.18.16-.29.19c-.11.03-.23.01-.33-.04-.1-.05-.19-.14-.26-.25-.06-.11-.1-.25-.1-.39,0-.17.05-.34.15-.47.1-.13.23-.21.37-.23h.05ZM234.65,134.52c.11,0,.22.04.32.12.09.08.17.18.21.31.04.13.06.27.03.4-.02.13-.08.26-.16.35s-.18.16-.29.19c-.11.03-.23.01-.33-.04-.1-.05-.19-.14-.26-.25-.06-.11-.1-.25-.1-.39,0-.17.05-.33.14-.46.09-.13.21-.21.35-.24h.08ZM225.79,134.52c.11,0,.22.04.32.12.09.08.17.18.21.31.04.13.05.27.03.4-.02.13-.08.26-.16.35-.08.1-.18.16-.29.19-.11.03-.23.01-.33-.04-.1-.05-.19-.14-.26-.25-.06-.11-.1-.25-.1-.39,0-.16.04-.32.13-.45.08-.13.2-.21.34-.24h.11ZM248,126.71c.11,0,.22.04.32.12.09.08.17.19.21.31.04.13.05.27.03.4-.02.13-.08.26-.16.36s-.18.16-.29.19c-.11.03-.23.01-.33-.04-.1-.05-.19-.14-.26-.26-.06-.11-.1-.25-.1-.38,0-.16.04-.32.13-.45.09-.13.2-.21.34-.24h.11ZM239.14,126.71c.11,0,.22.04.32.12.09.08.17.19.21.31.04.13.05.27.03.4-.02.13-.08.26-.16.36s-.18.16-.29.19c-.11.03-.23.01-.33-.04-.1-.05-.19-.14-.26-.26-.06-.11-.1-.25-.1-.38,0-.15.04-.31.11-.43.07-.12.18-.22.3-.26h.16ZM229.7,127.28l.87-.45c.1.08.17.2.21.34.04.14.04.29,0,.43-.04.14-.11.26-.2.35-.1.09-.21.14-.33.14-.15,0-.3-.08-.4-.21-.11-.13-.17-.3-.17-.49-.05-.03-.09-.07-.12-.12h.14ZM234.7,150.19c.11,0,.22.04.32.12.09.08.17.18.21.31.04.13.06.27.03.4-.02.13-.08.26-.16.35s-.18.16-.29.19c-.11.03-.23.01-.33-.04-.1-.05-.19-.14-.26-.25s-.1-.25-.1-.39c0-.16.04-.31.12-.44.08-.13.19-.22.32-.26h.14ZM248.02,142.38c.11,0,.22.04.32.12.09.08.17.18.21.31.04.13.05.27.03.4-.02.13-.08.26-.16.36-.08.1-.18.16-.29.19-.11.03-.23.01-.33-.04-.1-.05-.19-.14-.26-.26-.06-.11-.1-.25-.1-.38,0-.16.04-.31.12-.44.08-.13.19-.22.32-.25h.14ZM239.17,142.38c.11,0,.22.04.32.12.09.08.17.18.21.31.04.13.05.27.03.4-.02.13-.08.26-.16.36s-.18.16-.29.19c-.11.03-.23.01-.33-.04-.1-.05-.19-.14-.26-.26-.06-.11-.1-.25-.1-.38,0-.15.03-.3.1-.43.07-.12.17-.22.29-.27h.18ZM230.31,142.38c.11,0,.22.04.32.12.09.08.17.18.21.31.04.13.05.27.03.4-.02.13-.08.26-.16.36s-.18.16-.29.19c-.11.03-.23.01-.33-.04-.1-.05-.19-.14-.26-.26-.06-.11-.1-.25-.1-.38,0-.15.03-.3.1-.43.07-.12.17-.22.29-.27h.18Z"/>
  <path class="cls-10" d="M230.81,142.59c-.76-2.14-3.88-10.64-4.82-12.63,0-.06-.1,0-.08.06.57,2.22,3.55,10.85,4.31,12.99,1.53,4.28,3.03,8.62,4.84,12.74,0,.01.02.03.03.03.01,0,.03,0,.04,0,.01,0,.03-.02.03-.03,0-.01.01-.03,0-.05-1.26-4.42-2.85-8.74-4.37-13.1Z"/>
  <path class="cls-10" d="M234.46,112.78c-.59-3.76-1.11-7.54-1.64-11.32,0-.01,0-.02-.02-.03,0,0-.02-.01-.03-.01s-.02,0-.03.01c0,0-.02.02-.02.03.14,2.14.35,4.26.6,6.37-.29-1.09-.54-2.19-.79-3.3,0-.08-.12-.04-.1,0,.22,1.46.56,2.89,1.01,4.27.16,1.29.33,2.57.53,3.85.27,1.87,1.65,10.1,1.86,11.03-2.61,1.08-4.93,2.43-7.49,3.7-1.25.62-2.5,1.26-3.74,1.91-1.3.57-2.57,1.24-3.8,2-.07.05.16.44.24.64.08.2.16.07.13,0-.03-.07-.05-.2-.06-.27.62-.2,3.1-1.47,3.74-1.78l3.75-1.86c2.54-1.26,7.81-3.89,7.81-3.94-.06-.82-1.63-9.36-1.93-11.27Z"/>
  <path class="cls-16" d="M232.36,87.2c-.08.92-3.01,7.18-6.38,7.43-1.1.1-1.79-7.13-1.79-7.13l-.15-.52-2.12-7.26,6.69-6.68.97-.89s.47,2.03,1.03,4.57l.08.36c.03.14.07.28.1.41.09.38.18.77.26,1.16.08.39.12.58.18.89l.18.92c.43,2.22.74,4.47.93,6.74Z"/>
  <path class="cls-10" d="M230.63,76.75c-.41,2.19-1.22,4.24-2.35,6.01-1.14,1.77-2.58,3.22-4.23,4.25l-2.12-7.26,6.69-6.68.97-.89s.47,2.03,1.04,4.57Z"/>
  <path class="cls-16" d="M212.73,67.5c-1.98,13.31,4.38,16.25,6.75,16.77,2.15.46,9.54,1.72,12.63-11.27,3.09-13-1.36-18.32-6.25-19.7-4.88-1.38-11.15.89-13.13,14.2Z"/>
  <path class="cls-10" d="M214.62,65.54c.26,0,.51-.01.77-.05.27.03.55-.05.78-.23.07-.07.11-.17.12-.27.01-.11,0-.21-.05-.31-.1-.17-.25-.3-.41-.38-.16-.08-.34-.11-.51-.08-.36,0-.71.16-.98.45-.06.07-.1.16-.11.26-.02.1-.01.2.02.29.03.09.08.17.15.23.07.06.15.09.23.1Z"/>
  <path class="cls-10" d="M222.18,66.96c-.25-.09-.48-.22-.72-.34-.26-.07-.5-.25-.68-.5-.04-.09-.06-.2-.04-.31.01-.11.05-.2.12-.28.15-.12.31-.19.49-.21.18-.02.35.02.51.12.34.13.63.41.82.78.04.09.06.19.05.29,0,.1-.04.19-.09.27-.05.08-.12.14-.2.17-.08.03-.16.03-.24,0Z"/>
  <path class="cls-10" d="M220.01,69.91s.05.05.04.09c-.16.9-.22,1.96.42,2.42,0,0,0,.06,0,.04-.82-.32-.73-1.73-.46-2.55Z"/>
  <path class="cls-10" d="M220.82,69.15c1.22.15.87,3.09-.26,2.95-1.13-.14-.77-3.13.26-2.95Z"/>
  <path class="cls-10" d="M221.27,69.34c.19.21.37.54.62.61.25.07.55-.18.78-.45h.04c-.06.56-.31,1.11-.82,1.11s-.73-.56-.78-1.15c0-.07.1-.21.16-.13Z"/>
  <path class="cls-10" d="M215.82,68.99s-.07,0-.07.07c-.07.92-.29,1.95-1.01,2.15v.05c.87,0,1.15-1.39,1.08-2.27Z"/>
  <path class="cls-10" d="M215.28,67.94c-1.2-.31-1.62,2.62-.51,2.9,1.11.29,1.51-2.65.51-2.9Z"/>
  <path class="cls-10" d="M214.75,68.02c-.21.12-.44.35-.68.33-.24-.02-.42-.4-.54-.73h-.05c-.09.56,0,1.17.41,1.37.41.2.76-.23.95-.77.04-.07,0-.25-.09-.2Z"/>
  <path class="cls-10" d="M216.51,73.53s-.33,1.33-.41,1.97c0,.06.12.12.29.16.44.18.92.22,1.37.1.46-.12.88-.39,1.21-.78.05-.06,0-.13-.07-.11-.74.44-1.59.57-2.4.37,0-.18.63-2.25.54-2.28-.42-.03-.84,0-1.25.11.61-2.8,1.59-5.45,2.17-8.25,0-.02,0-.04,0-.07,0-.02-.02-.04-.04-.05-.02,0-.04,0-.05,0-.02,0-.03.02-.04.05-1.13,2.81-2.02,5.74-2.66,8.76-.05.36,1.08.08,1.31.02Z"/>
  <path class="cls-10" d="M231.2,73.38c-2.09,0-2.04-5.78-2.04-5.78,0,0-8.62-3.11-8.49-11.9-1.46,3.37-3.94,5.92-6.92,7.13,0,0,1.27-9.46,7.68-10.39,0,0,8.07-2.27,11.66,5.78,3.6,8.05-.48,15.15-1.89,15.16Z"/>
  <path class="cls-10" d="M220.7,55.05c-.24,1.32-.24,2.69,0,4.02.22,1.34.66,2.62,1.31,3.75.16.29.33.57.52.83l.27.4.31.35c.21.23.41.47.63.68.22.21.45.4.68.59l.35.28.37.24.74.48c.51.26,1.04.48,1.55.69-.48-.34-.97-.62-1.44-.96l-.68-.54-.34-.27-.31-.31-.63-.62c-.2-.22-.38-.46-.57-.68l-.28-.35-.25-.38c-.18-.24-.34-.5-.48-.77-.61-1.07-1.08-2.26-1.36-3.52-.14-.63-.25-1.28-.31-1.93-.06-.66-.08-1.33-.05-2Z"/>
  <path class="cls-16" d="M231.4,77.91c-.17.06-.35.1-.52.11-.17.03-.35.03-.52,0-.23-.05-.44-.16-.63-.32-.15-.12-.28-.27-.39-.44-.16-.25-.28-.53-.36-.83l.89-3.53s2.72-3.93,4.24-2.71c1.52,1.22-.79,7.1-2.7,7.72Z"/>
  <path class="cls-10" d="M233.41,71.84v.07c-1.36.49-2.13,1.86-2.73,3.3.09-.15.2-.27.33-.36.13-.09.27-.15.42-.16.15-.02.3,0,.44.07.14.06.27.16.38.29,0,0,.01.02.01.03,0,.01,0,.02,0,.03,0,0-.01.02-.02.02,0,0-.02,0-.03,0-.22-.11-.46-.14-.7-.08-.23.06-.45.21-.61.43-.26.36-.49.76-.68,1.18-.07.13-.28,0-.22-.12.12-2.01,1.61-4.67,3.4-4.68Z"/>
  <path class="cls-9" d="M231.29,77.34c-.04.11-.1.21-.18.28-.08.07-.18.11-.28.12-.1,0-.2-.02-.29-.08s-.16-.15-.2-.26c-.05-.11-.07-.23-.05-.35.01-.12.05-.24.11-.33.06-.09.15-.16.24-.2.1-.04.2-.04.29,0,.07.02.13.07.19.12.05.06.1.12.13.2.03.08.05.16.06.25,0,.09,0,.17-.03.26Z"/>
  <path class="cls-9" d="M232.42,76.51c-.03.11-.09.2-.18.26-.08.06-.18.07-.28.04-.07-.05-.12-.13-.15-.22-.03-.09-.03-.19,0-.29.02-.09.07-.18.14-.23.07-.06.15-.08.23-.08.09.03.16.11.21.21.05.1.06.21.04.32Z"/>
</svg>