<?xml version="1.0" encoding="UTF-8"?>
<svg id="Layer_1" data-name="Layer 1" xmlns="http://www.w3.org/2000/svg" width="36" height="36" viewBox="0 0 36 36">
  <defs>
    <style>
      .cls-1 {
        fill: #eece93;
        stroke-width: 0px;
      }
    </style>
  </defs>
  <path class="cls-1" d="M36,2.25v31.5H0V2.25h6.75V0h2.25v2.25h18V0h2.25v2.25h6.75ZM2.25,4.5v4.5h31.5v-4.5h-4.5v2.25h-2.25v-2.25H9v2.25h-2.25v-2.25H2.25ZM33.75,31.5V11.25H2.25v20.25h31.5ZM24.75,15.75v11.25h-2.25v-8.54c-.32.16-.68.32-1.09.46-.41.14-.8.21-1.16.21v-2.25c.14,0,.32-.04.54-.11.22-.07.45-.16.69-.26.23-.11.45-.23.63-.37.19-.14.32-.26.39-.37v-.02h2.25ZM18,19.12c0,.46-.06.87-.19,1.23-.13.36-.31.7-.54,1.02s-.49.62-.77.9c-.28.28-.58.55-.9.81-.32.26-.62.53-.9.81s-.56.57-.83.86h4.13v2.25h-6.75v-.63c0-.22,0-.45-.02-.67-.01-.22.01-.45.07-.67.06-.22.12-.43.18-.63.13-.32.32-.63.58-.93.26-.3.55-.62.88-.93s.65-.62.97-.9c.32-.28.62-.57.9-.86.28-.29.51-.57.69-.83.18-.26.26-.53.26-.83,0-.32-.11-.58-.33-.79-.22-.21-.49-.32-.79-.33-.27,0-.5.08-.7.25-.2.16-.33.38-.4.65l-2.2-.46c.07-.39.21-.74.4-1.07.2-.33.46-.61.77-.84.32-.23.65-.42,1-.56.35-.14.73-.21,1.12-.21.47,0,.91.09,1.32.26.41.18.77.42,1.07.72.3.3.54.66.72,1.07.18.41.26.85.26,1.32Z"/>
</svg>