<?xml version="1.0" encoding="utf-8"?>
<!-- Generator: Adobe Illustrator 28.2.0, SVG Export Plug-In . SVG Version: 6.00 Build 0)  -->
<svg width="36" height="36" version="1.1" id="Layer_1" xmlns="http://www.w3.org/2000/svg" xmlns:xlink="http://www.w3.org/1999/xlink" x="0px" y="0px"
	 viewBox="0 0 36 36" style="enable-background:new 0 0 36 36;" xml:space="preserve">
<style type="text/css">
	.st0{fill:#024DDF;}
</style>
<path class="st0" d="M36,2.2v31.5H0V2.2h6.8V0H9v2.2h18V0h2.2v2.2H36z M2.2,4.5V9h31.5V4.5h-4.5v2.2H27V4.5H9v2.2H6.8V4.5H2.2z
	 M33.8,31.5V11.2H2.2v20.2H33.8z M24.8,15.8V27h-2.2v-8.5c-0.3,0.2-0.7,0.3-1.1,0.5c-0.4,0.1-0.8,0.2-1.2,0.2v-2.2
	c0.1,0,0.3,0,0.5-0.1c0.2-0.1,0.5-0.2,0.7-0.3c0.2-0.1,0.4-0.2,0.6-0.4c0.2-0.1,0.3-0.3,0.4-0.4v0H24.8z M18,19.1
	c0,0.5-0.1,0.9-0.2,1.2c-0.1,0.4-0.3,0.7-0.5,1s-0.5,0.6-0.8,0.9c-0.3,0.3-0.6,0.6-0.9,0.8c-0.3,0.3-0.6,0.5-0.9,0.8
	c-0.3,0.3-0.6,0.6-0.8,0.9H18V27h-6.8v-0.6c0-0.2,0-0.4,0-0.7c0-0.2,0-0.4,0.1-0.7c0.1-0.2,0.1-0.4,0.2-0.6c0.1-0.3,0.3-0.6,0.6-0.9
	c0.3-0.3,0.6-0.6,0.9-0.9s0.7-0.6,1-0.9c0.3-0.3,0.6-0.6,0.9-0.9c0.3-0.3,0.5-0.6,0.7-0.8c0.2-0.3,0.3-0.5,0.3-0.8
	c0-0.3-0.1-0.6-0.3-0.8c-0.2-0.2-0.5-0.3-0.8-0.3c-0.3,0-0.5,0.1-0.7,0.2c-0.2,0.2-0.3,0.4-0.4,0.7l-2.2-0.5
	c0.1-0.4,0.2-0.7,0.4-1.1c0.2-0.3,0.5-0.6,0.8-0.8c0.3-0.2,0.7-0.4,1-0.6c0.4-0.1,0.7-0.2,1.1-0.2c0.5,0,0.9,0.1,1.3,0.3
	c0.4,0.2,0.8,0.4,1.1,0.7c0.3,0.3,0.5,0.7,0.7,1.1C17.9,18.2,18,18.7,18,19.1z"/>
</svg>
