<?xml version="1.0" encoding="UTF-8"?>
<svg id="Layer_1" data-name="Layer 1" xmlns="http://www.w3.org/2000/svg" width="36" height="36" xmlns:xlink="http://www.w3.org/1999/xlink" viewBox="0 0 36 36">
  <defs>
    <style>
      .cls-1 {
        fill: #eece93;
      }

      .cls-1, .cls-2 {
        stroke-width: 0px;
      }

      .cls-2 {
        fill: none;
      }

      .cls-3 {
        clip-path: url(#clippath);
      }
    </style>
    <clipPath id="clippath">
      <rect class="cls-2" width="36" height="36"/>
    </clipPath>
  </defs>
  <g class="cls-3">
    <g>
      <path class="cls-1" d="M33.71,17.29L18.71,2.29c-.19-.19-.44-.29-.7-.29s-.52.1-.7.29L2.3,17.29c-.16.19-.25.44-.24.69,0,.25.11.49.29.67.18.18.42.28.67.29.25,0,.5-.08.69-.24l14.29-14.29,14.29,14.3c.19.16.44.25.69.24.25,0,.49-.11.67-.29.18-.18.28-.42.29-.67,0-.25-.08-.5-.24-.69h0Z"/>
      <path class="cls-1" d="M28,32h-5v-10h-10v10h-5v-14l-2,2v12c0,.53.21,1.04.59,1.41.38.38.88.59,1.41.59h7v-10h6v10h7c.53,0,1.04-.21,1.41-.59.38-.38.59-.88.59-1.41v-12.24l-2-2v14.24Z"/>
    </g>
  </g>
</svg>