<?xml version="1.0" encoding="utf-8"?>
<!-- Generator: Adobe Illustrator 28.2.0, SVG Export Plug-In . SVG Version: 6.00 Build 0)  -->
<svg width="36" height="36" version="1.1" id="Layer_1" xmlns="http://www.w3.org/2000/svg" xmlns:xlink="http://www.w3.org/1999/xlink" x="0px" y="0px"
	 viewBox="0 0 36 36" style="enable-background:new 0 0 36 36;" xml:space="preserve">
<style type="text/css">
	.st0{fill:#024DDF;}
</style>
<path class="st0" d="M18,24.8c-1.3,0-2.6-0.4-3.8-1.1s-2-1.8-2.5-3c-0.5-1.2-0.6-2.6-0.4-3.9c0.3-1.3,0.9-2.5,1.8-3.5
	c0.9-0.9,2.1-1.6,3.5-1.8c1.3-0.3,2.7-0.1,3.9,0.4c1.2,0.5,2.3,1.4,3,2.5s1.1,2.4,1.1,3.8c0,0.9-0.2,1.8-0.5,2.6
	c-0.3,0.8-0.8,1.6-1.5,2.2c-0.6,0.6-1.4,1.1-2.2,1.5C19.8,24.6,18.9,24.8,18,24.8z M18,13.5c-0.6,0-1.2,0.1-1.7,0.3
	c-0.6,0.2-1.1,0.6-1.5,1s-0.8,0.9-1,1.5c-0.2,0.6-0.3,1.1-0.3,1.7c0,0.6,0.1,1.2,0.3,1.7c0.2,0.6,0.6,1.1,1,1.5
	c0.4,0.4,0.9,0.8,1.5,1c0.6,0.2,1.1,0.3,1.7,0.3c0.6,0,1.2-0.1,1.7-0.3c0.6-0.2,1.1-0.6,1.5-1c0.4-0.4,0.8-0.9,1-1.5
	c0.2-0.6,0.3-1.1,0.3-1.7c0-0.6-0.1-1.2-0.3-1.7c-0.2-0.6-0.6-1.1-1-1.5c-0.4-0.4-0.9-0.8-1.5-1C19.2,13.6,18.6,13.5,18,13.5z"/>
<path class="st0" d="M33,12.4l-2.7-4.6c-0.3-0.5-0.7-0.8-1.2-1c-0.5-0.2-1-0.2-1.5,0l-2.7,0.9c-0.5-0.3-1-0.6-1.5-0.9l-0.6-2.8
	c-0.1-0.5-0.4-1-0.8-1.3c-0.4-0.3-0.9-0.5-1.4-0.5h-5.3c-0.5,0-1,0.2-1.4,0.5c-0.4,0.3-0.7,0.8-0.8,1.3l-0.6,2.8
	c-0.5,0.2-1,0.5-1.5,0.8L8.4,6.8c-0.5-0.2-1-0.2-1.5,0C6.4,7,5.9,7.4,5.7,7.8L3,12.4c-0.3,0.5-0.4,1-0.3,1.5c0.1,0.5,0.3,1,0.7,1.3
	l2.2,1.9c0,0.3,0,0.6,0,0.9c0,0.3,0,0.6,0,0.9l-2.2,1.9c-0.4,0.3-0.7,0.8-0.7,1.3c-0.1,0.5,0,1,0.3,1.5l2.7,4.6
	c0.3,0.5,0.7,0.8,1.2,1c0.5,0.2,1,0.2,1.5,0l2.7-0.9c0.5,0.3,1,0.6,1.5,0.9l0.6,2.8c0.1,0.5,0.4,1,0.8,1.3c0.4,0.3,0.9,0.5,1.4,0.5
	h4.9v-2.2h-4.9l-0.8-4c-1.1-0.4-2.1-1-3-1.8L7.6,27L5,22.5L8,19.8c-0.2-1.2-0.2-2.4,0-3.5L5,13.5L7.6,9l3.9,1.3
	c0.9-0.8,1.9-1.4,3.1-1.8l0.8-4h5.3l0.8,4c1.1,0.4,2.1,1,3,1.8L28.4,9l2.7,4.6l-3.1,2.8l1.5,1.7l3.1-2.8c0.4-0.3,0.7-0.8,0.7-1.3
	C33.3,13.4,33.2,12.9,33,12.4z"/>
<path class="st0" d="M25.9,29.5L23,26.5l-1.6,1.6l4.5,4.5l7.9-7.9l-1.6-1.6L25.9,29.5z"/>
</svg>
