<?xml version="1.0" encoding="UTF-8"?>
<svg id="Layer_1" data-name="Layer 1" xmlns="http://www.w3.org/2000/svg" width="36" height="36" viewBox="0 0 36 36">
  <defs>
    <style>
      .cls-1 {
        fill: #eece93;
        stroke-width: 0px;
      }
    </style>
  </defs>
  <path class="cls-1" d="M31.43,16.24c1.09,0,1.54-1.4.66-2.04l-13.43-9.77c-.19-.14-.42-.22-.66-.22s-.47.08-.66.22L3.91,14.2c-.88.64-.43,2.04.66,2.04h2.18v13.15h-2.53c-.15,0-.28.13-.28.28v1.83c0,.15.13.28.28.28h27.56c.15,0,.28-.13.28-.28v-1.83c0-.15-.13-.28-.28-.28h-2.53v-13.15h2.18ZM18,6.92l9.53,6.93H8.47l9.53-6.93ZM9.28,16.24h4.11v13.15h-4.11v-13.15ZM15.93,16.24h4.11v13.15h-4.11v-13.15ZM26.72,29.39h-4.15v-13.15h4.15v13.15Z"/>
</svg>