<?xml version="1.0" encoding="UTF-8"?>
<svg id="Layer_1" data-name="Layer 1" xmlns="http://www.w3.org/2000/svg" width="36" height="36" viewBox="0 0 36 36">
  <defs>
    <style>
      .cls-1 {
        fill: #eece93;
        stroke-width: 0px;
      }
    </style>
  </defs>
  <path class="cls-1" d="M18,24.75c-1.33,0-2.64-.4-3.75-1.14-1.11-.74-1.98-1.8-2.49-3.03-.51-1.23-.64-2.59-.38-3.9.26-1.31.9-2.51,1.85-3.46.94-.94,2.15-1.59,3.46-1.85,1.31-.26,2.67-.13,3.9.38,1.23.51,2.29,1.38,3.03,2.49.74,1.11,1.14,2.42,1.14,3.75,0,.89-.16,1.77-.49,2.59-.34.82-.83,1.57-1.46,2.2-.63.63-1.38,1.13-2.2,1.46-.82.34-1.71.5-2.59.49ZM18,13.5c-.59-.01-1.19.09-1.74.31-.55.22-1.05.55-1.47.97s-.75.92-.97,1.47c-.22.55-.33,1.14-.31,1.74-.01.59.09,1.19.31,1.74.22.55.55,1.05.97,1.47.42.42.92.75,1.47.97.55.22,1.14.33,1.74.32.59.01,1.19-.09,1.74-.32.55-.22,1.05-.55,1.47-.97.42-.42.75-.92.97-1.47.22-.55.33-1.14.32-1.74.01-.59-.09-1.19-.32-1.74-.22-.55-.55-1.05-.97-1.47-.42-.42-.92-.75-1.47-.97-.55-.22-1.14-.33-1.74-.31Z"/>
  <path class="cls-1" d="M32.97,12.42l-2.66-4.6c-.26-.45-.67-.8-1.16-.98-.49-.18-1.02-.19-1.52-.02l-2.74.93c-.47-.32-.97-.6-1.48-.85l-.57-2.83c-.1-.51-.38-.97-.78-1.3-.4-.33-.91-.51-1.43-.51h-5.31c-.52,0-1.02.18-1.43.51-.4.33-.68.79-.78,1.3l-.57,2.83c-.52.25-1.02.53-1.49.85l-2.72-.92c-.49-.17-1.03-.16-1.51.03-.49.18-.89.53-1.15.98l-2.65,4.6c-.26.45-.36.98-.27,1.49.08.51.34.98.73,1.32l2.17,1.91c-.02.28-.04.56-.04.85s.01.58.03.86l-2.16,1.9c-.39.34-.65.81-.74,1.32-.08.51.01,1.04.27,1.49l2.65,4.6c.26.45.67.8,1.16.98.49.18,1.02.19,1.52.03l2.74-.93c.47.32.96.6,1.48.85l.57,2.83c.1.51.38.97.78,1.3.4.33.91.51,1.43.51h4.91v-2.25h-4.91l-.8-3.99c-1.1-.41-2.13-1.01-3.03-1.77l-3.88,1.31-2.66-4.6,3.07-2.69c-.21-1.16-.21-2.35,0-3.52l-3.06-2.69,2.66-4.6,3.86,1.31c.91-.76,1.94-1.36,3.05-1.76l.8-3.99h5.31l.8,3.99c1.1.41,2.13,1.01,3.03,1.77l3.88-1.31,2.65,4.6-3.15,2.76,1.48,1.69,3.15-2.76c.39-.34.65-.81.74-1.32.08-.51-.01-1.04-.27-1.49Z"/>
  <path class="cls-1" d="M25.88,29.45l-2.91-2.91-1.59,1.59,4.5,4.5,7.88-7.88-1.59-1.59-6.29,6.29Z"/>
</svg>