<?xml version="1.0" encoding="utf-8"?>
<!-- Generator: Adobe Illustrator 28.2.0, SVG Export Plug-In . SVG Version: 6.00 Build 0)  -->
<svg width="36" height="36" version="1.1" id="Layer_1" xmlns="http://www.w3.org/2000/svg" xmlns:xlink="http://www.w3.org/1999/xlink" x="0px" y="0px"
	 viewBox="0 0 36 36" style="enable-background:new 0 0 36 36;" xml:space="preserve">
<style type="text/css">
	.st0{fill:#024DDF;}
</style>
<path class="st0" d="M31.4,16.2c1.1,0,1.5-1.4,0.7-2L18.7,4.4c-0.2-0.1-0.4-0.2-0.7-0.2s-0.5,0.1-0.7,0.2L3.9,14.2
	c-0.9,0.6-0.4,2,0.7,2h2.2v13.1H4.2c-0.2,0-0.3,0.1-0.3,0.3v1.8c0,0.2,0.1,0.3,0.3,0.3h27.6c0.2,0,0.3-0.1,0.3-0.3v-1.8
	c0-0.2-0.1-0.3-0.3-0.3h-2.5V16.2H31.4z M18,6.9l9.5,6.9H8.5L18,6.9z M9.3,16.2h4.1v13.1H9.3V16.2z M15.9,16.2H20v13.1h-4.1V16.2z
	 M26.7,29.4h-4.1V16.2h4.1V29.4z"/>
</svg>
