<?xml version="1.0" encoding="utf-8"?>
<!-- Generator: Adobe Illustrator 28.2.0, SVG Export Plug-In . SVG Version: 6.00 Build 0)  -->
<svg width="36" height="36" version="1.1" id="Layer_1" xmlns="http://www.w3.org/2000/svg" xmlns:xlink="http://www.w3.org/1999/xlink" x="0px" y="0px"
	 viewBox="0 0 36 36" style="enable-background:new 0 0 36 36;" xml:space="preserve">
<style type="text/css">
	.st0{clip-path:url(#SVGID_00000096760262400627423830000005443110254729726135_);}
	.st1{fill:#024DDF;}
</style>
<g>
	<defs>
		<rect id="SVGID_1_" width="36" height="36"/>
	</defs>
	<clipPath id="SVGID_00000043457755501108911680000015464194425953795980_">
		<use xlink:href="#SVGID_1_"  style="overflow:visible;"/>
	</clipPath>
	<g style="clip-path:url(#SVGID_00000043457755501108911680000015464194425953795980_);">
		<path class="st1" d="M33.7,17.3l-15-15C18.5,2.1,18.3,2,18,2c-0.3,0-0.5,0.1-0.7,0.3l-15,15C2.1,17.5,2,17.7,2.1,18
			c0,0.3,0.1,0.5,0.3,0.7c0.2,0.2,0.4,0.3,0.7,0.3c0.3,0,0.5-0.1,0.7-0.2L18,4.4l14.3,14.3c0.2,0.2,0.4,0.2,0.7,0.2
			c0.3,0,0.5-0.1,0.7-0.3c0.2-0.2,0.3-0.4,0.3-0.7C33.9,17.7,33.9,17.5,33.7,17.3L33.7,17.3z"/>
		<path class="st1" d="M28,32h-5V22H13v10H8V18l-2,2v12c0,0.5,0.2,1,0.6,1.4C7,33.8,7.5,34,8,34h7V24h6v10h7c0.5,0,1-0.2,1.4-0.6
			C29.8,33,30,32.5,30,32V19.8l-2-2V32z"/>
	</g>
</g>
</svg>
