<?xml version="1.0" encoding="UTF-8"?>
<svg id="Layer_1" data-name="Layer 1" xmlns="http://www.w3.org/2000/svg" width="48" height="48" viewBox="0 0 48 48">
  <defs>
    <style>
      .cls-1 {
        fill: #eece93;
        stroke-width: 0px;
      }
    </style>
  </defs>
  <path class="cls-1" d="M37.44,36.48H10.56c-1.63,0-2.88-1.25-2.88-2.88v-17.28c0-1.63,1.25-2.88,2.88-2.88h5.76c.19,0,.48-.19.58-.29l1.06-2.11c.38-.77,1.34-1.34,2.21-1.34h7.68c.86,0,1.82.58,2.21,1.34l1.06,2.11c.1.19.38.29.58.29h5.76c1.63,0,2.88,1.25,2.88,2.88v17.28c0,1.63-1.25,2.88-2.88,2.88ZM10.56,15.36c-.58,0-.96.38-.96.96v17.28c0,.58.38.96.96.96h26.88c.58,0,.96-.38.96-.96v-17.28c0-.58-.38-.96-.96-.96h-5.76c-.86,0-1.82-.58-2.21-1.34l-1.06-2.11c-.1-.19-.38-.38-.58-.38h-7.68c-.19,0-.48.19-.58.29l-1.06,2.11c-.38.86-1.34,1.44-2.21,1.44h-5.76Z"/>
  <path class="cls-1" d="M24,32.64c-4.8,0-8.64-3.84-8.64-8.64s3.84-8.64,8.64-8.64,8.64,3.84,8.64,8.64-3.84,8.64-8.64,8.64ZM24,17.28c-3.74,0-6.72,2.98-6.72,6.72s2.98,6.72,6.72,6.72,6.72-2.98,6.72-6.72-2.98-6.72-6.72-6.72Z"/>
  <path class="cls-1" d="M33.6,18.24c.53,0,.96-.43.96-.96s-.43-.96-.96-.96-.96.43-.96.96.43.96.96.96Z"/>
  <path class="cls-1" d="M11.52,11.52h3.84v.96h-3.84v-.96ZM24,20.16v-.96c-2.69,0-4.8,2.11-4.8,4.8h.96c0-2.11,1.73-3.84,3.84-3.84Z"/>
</svg>