<?xml version="1.0" encoding="utf-8"?>
<!-- Generator: Adobe Illustrator 28.2.0, SVG Export Plug-In . SVG Version: 6.00 Build 0)  -->
<svg width="48" height="48" version="1.1" id="Layer_1" xmlns="http://www.w3.org/2000/svg" xmlns:xlink="http://www.w3.org/1999/xlink" x="0px" y="0px"
	 viewBox="0 0 48 48" style="enable-background:new 0 0 48 48;" xml:space="preserve">
<style type="text/css">
	.st0{fill:#024DDF;}
</style>
<path class="st0" d="M37.4,36.5H10.6c-1.6,0-2.9-1.2-2.9-2.9V16.3c0-1.6,1.2-2.9,2.9-2.9h5.8c0.2,0,0.5-0.2,0.6-0.3L18,11
	c0.4-0.8,1.3-1.3,2.2-1.3h7.7c0.9,0,1.8,0.6,2.2,1.3l1.1,2.1c0.1,0.2,0.4,0.3,0.6,0.3h5.8c1.6,0,2.9,1.2,2.9,2.9v17.3
	C40.3,35.2,39.1,36.5,37.4,36.5z M10.6,15.4c-0.6,0-1,0.4-1,1v17.3c0,0.6,0.4,1,1,1h26.9c0.6,0,1-0.4,1-1V16.3c0-0.6-0.4-1-1-1h-5.8
	c-0.9,0-1.8-0.6-2.2-1.3l-1.1-2.1c-0.1-0.2-0.4-0.4-0.6-0.4h-7.7c-0.2,0-0.5,0.2-0.6,0.3l-1.1,2.1c-0.4,0.9-1.3,1.4-2.2,1.4H10.6z"
	/>
<path class="st0" d="M24,32.6c-4.8,0-8.6-3.8-8.6-8.6s3.8-8.6,8.6-8.6s8.6,3.8,8.6,8.6S28.8,32.6,24,32.6z M24,17.3
	c-3.7,0-6.7,3-6.7,6.7s3,6.7,6.7,6.7s6.7-3,6.7-6.7S27.7,17.3,24,17.3z"/>
<path class="st0" d="M33.6,18.2c0.5,0,1-0.4,1-1c0-0.5-0.4-1-1-1c-0.5,0-1,0.4-1,1C32.6,17.8,33.1,18.2,33.6,18.2z"/>
<path class="st0" d="M11.5,11.5h3.8v1h-3.8V11.5z M24,20.2v-1c-2.7,0-4.8,2.1-4.8,4.8h1C20.2,21.9,21.9,20.2,24,20.2z"/>
</svg>
