<?xml version="1.0" encoding="UTF-8"?>
<svg id="Layer_1" data-name="Layer 1" xmlns="http://www.w3.org/2000/svg" width="48" height="48" viewBox="0 0 48 48">
  <defs>
    <style>
      .cls-1 {
        fill: #eece93;
        stroke-width: 0px;
      }
    </style>
  </defs>
  <path class="cls-1" d="M24,40.8l-.77-.86c-.48-.48-11.71-13.73-11.71-21.7,0-6.91,5.57-12.48,12.48-12.48s12.48,5.57,12.48,12.48c0,7.97-11.23,21.22-11.71,21.79l-.77.77ZM24,7.68c-5.86,0-10.56,4.7-10.56,10.56,0,6.14,8.06,16.51,10.56,19.58,2.5-3.07,10.56-13.44,10.56-19.58s-4.7-10.56-10.56-10.56Z"/>
  <path class="cls-1" d="M24,23.04c-2.69,0-4.8-2.11-4.8-4.8s2.11-4.8,4.8-4.8,4.8,2.11,4.8,4.8-2.11,4.8-4.8,4.8ZM24,15.36c-1.63,0-2.88,1.25-2.88,2.88s1.25,2.88,2.88,2.88,2.88-1.25,2.88-2.88-1.25-2.88-2.88-2.88Z"/>
</svg>