<?xml version="1.0" encoding="utf-8"?>
<!-- Generator: Adobe Illustrator 28.2.0, SVG Export Plug-In . SVG Version: 6.00 Build 0)  -->
<svg width="48" height="48" version="1.1" id="Layer_1" xmlns="http://www.w3.org/2000/svg" xmlns:xlink="http://www.w3.org/1999/xlink" x="0px" y="0px"
	 viewBox="0 0 48 48" style="enable-background:new 0 0 48 48;" xml:space="preserve">
<style type="text/css">
	.st0{fill:#024DDF;}
</style>
<path class="st0" d="M24,40.8l-0.8-0.9c-0.5-0.5-11.7-13.7-11.7-21.7c0-6.9,5.6-12.5,12.5-12.5s12.5,5.6,12.5,12.5
	c0,8-11.2,21.2-11.7,21.8L24,40.8z M24,7.7c-5.9,0-10.6,4.7-10.6,10.6c0,6.1,8.1,16.5,10.6,19.6c2.5-3.1,10.6-13.4,10.6-19.6
	C34.6,12.4,29.9,7.7,24,7.7z"/>
<path class="st0" d="M24,23c-2.7,0-4.8-2.1-4.8-4.8s2.1-4.8,4.8-4.8s4.8,2.1,4.8,4.8S26.7,23,24,23z M24,15.4
	c-1.6,0-2.9,1.2-2.9,2.9s1.2,2.9,2.9,2.9s2.9-1.2,2.9-2.9S25.6,15.4,24,15.4z"/>
</svg>
