<?xml version="1.0" encoding="UTF-8"?>
<svg id="Layer_1" data-name="Layer 1" xmlns="http://www.w3.org/2000/svg" width="48" height="48" viewBox="0 0 48 48">
  <defs>
    <style>
      .cls-1 {
        fill: #eece93;
      }

      .cls-1, .cls-2 {
        stroke-width: 0px;
      }

      .cls-2 {
        fill: #fff;
      }
    </style>
  </defs>
  <path class="cls-2" d="M24,0h0c13.25,0,24,10.75,24,24h0c0,13.25-10.75,24-24,24h0C10.75,48,0,37.25,0,24h0C0,10.75,10.75,0,24,0Z"/>
  <path class="cls-1" d="M39.75,16.84h-10.33l9.29-11.73c.19-.25.02-.61-.3-.61h-17.98c-.13,0-.26.07-.32.19L7.97,25.66c-.15.25.03.56.32.56h8.18l-4.19,16.76c-.09.37.35.62.62.36l27.11-25.87c.24-.23.08-.64-.26-.64Z"/>
</svg>