<?xml version="1.0" encoding="utf-8"?>
<!-- Generator: Adobe Illustrator 28.2.0, SVG Export Plug-In . SVG Version: 6.00 Build 0)  -->
<svg width="48" height="48" version="1.1" id="Layer_1" xmlns="http://www.w3.org/2000/svg" xmlns:xlink="http://www.w3.org/1999/xlink" x="0px" y="0px"
	 viewBox="0 0 48 48" style="enable-background:new 0 0 48 48;" xml:space="preserve">
<style type="text/css">
	.st0{fill:#FFFFFF;}
	.st1{fill:#024DDF;}
</style>
<path class="st0" d="M24,0L24,0c13.3,0,24,10.7,24,24l0,0c0,13.3-10.7,24-24,24l0,0C10.7,48,0,37.3,0,24l0,0C0,10.7,10.7,0,24,0z"/>
<path class="st1" d="M39.8,16.8H29.4l9.3-11.7c0.2-0.2,0-0.6-0.3-0.6h-18c-0.1,0-0.3,0.1-0.3,0.2L8,25.7c-0.1,0.2,0,0.6,0.3,0.6h8.2
	L12.3,43c-0.1,0.4,0.4,0.6,0.6,0.4L40,17.5C40.3,17.3,40.1,16.8,39.8,16.8z"/>
</svg>
