<?xml version="1.0" encoding="UTF-8"?>
<svg id="Layer_1" data-name="Layer 1" xmlns="http://www.w3.org/2000/svg" width="64" height="64" viewBox="0 0 64 64">
  <defs>
    <style>
      .cls-1 {
        fill: #eece93;
        stroke-width: 0px;
      }

      .cls-2 {
        fill: none;
        stroke: #fff;
        stroke-linecap: round;
        stroke-linejoin: round;
        stroke-width: 4.57px;
      }
    </style>
  </defs>
  <path class="cls-1" d="M57.14,8H6.86c-2.52,0-4.57,2.05-4.57,4.57v38.86c0,2.52,2.05,4.57,4.57,4.57h50.29c2.52,0,4.57-2.05,4.57-4.57V12.57c0-2.52-2.05-4.57-4.57-4.57Z"/>
  <path class="cls-2" d="M57.14,8H6.86c-2.52,0-4.57,2.05-4.57,4.57v38.86c0,2.52,2.05,4.57,4.57,4.57h50.29c2.52,0,4.57-2.05,4.57-4.57V12.57c0-2.52-2.05-4.57-4.57-4.57Z"/>
  <path class="cls-2" d="M2.29,13.71l26.79,22.86c.82.68,1.86,1.06,2.93,1.06s2.1-.37,2.93-1.06l26.79-22.86"/>
</svg>