<?xml version="1.0" encoding="utf-8"?>
<!-- Generator: Adobe Illustrator 28.2.0, SVG Export Plug-In . SVG Version: 6.00 Build 0)  -->
<svg width="64" height="64" version="1.1" id="Layer_1" xmlns="http://www.w3.org/2000/svg" xmlns:xlink="http://www.w3.org/1999/xlink" x="0px" y="0px"
	 viewBox="0 0 64 64" style="enable-background:new 0 0 64 64;" xml:space="preserve">
<style type="text/css">
	.st0{fill:#024DDF;}
	.st1{fill:none;stroke:#FFFFFF;stroke-width:4.5714;stroke-linecap:round;stroke-linejoin:round;}
</style>
<path class="st0" d="M57.1,8H6.9c-2.5,0-4.6,2-4.6,4.6v38.9c0,2.5,2,4.6,4.6,4.6h50.3c2.5,0,4.6-2,4.6-4.6V12.6
	C61.7,10,59.7,8,57.1,8z"/>
<path class="st1" d="M57.1,8H6.9c-2.5,0-4.6,2-4.6,4.6v38.9c0,2.5,2,4.6,4.6,4.6h50.3c2.5,0,4.6-2,4.6-4.6V12.6
	C61.7,10,59.7,8,57.1,8z"/>
<path class="st1" d="M2.3,13.7l26.8,22.9c0.8,0.7,1.9,1.1,2.9,1.1c1.1,0,2.1-0.4,2.9-1.1l26.8-22.9"/>
</svg>
