<?xml version="1.0" encoding="utf-8"?>
<!-- Generator: Adobe Illustrator 28.2.0, SVG Export Plug-In . SVG Version: 6.00 Build 0)  -->
<svg width="244" height="278" version="1.1" id="Layer_1" xmlns="http://www.w3.org/2000/svg" xmlns:xlink="http://www.w3.org/1999/xlink" x="0px" y="0px"
	 viewBox="0 0 244 278" style="enable-background:new 0 0 244 278;" xml:space="preserve">
<style type="text/css">
	.st0{fill:#EBEBEB;}
	.st1{fill:#DBDBDB;}
	.st2{fill:#C7C7C7;}
	.st3{fill:#FFFFFF;}
	.st4{fill:#263238;}
	.st5{fill:#024DDF;}
	.st6{opacity:0.1;fill:#263238;enable-background:new    ;}
	.st7{opacity:0.1;enable-background:new    ;}
	.st8{fill:#37474F;}
	.st9{opacity:0.1;}
	.st10{fill:#A6A6A6;}
	.st11{fill:#C95F50;}
	.st12{fill:#455A64;}
	.st13{fill:#FF9BBC;}
	.st14{fill:#AD6359;}
	.st15{fill:#FB4A04;}
</style>
<path class="st0" d="M228.5,184l-7.9,0.2l-4,0.1c-1.3,0-2.7,0-4,0h-0.3V184l0-6.8v-0.3h0.3l8,0c2.7,0,5.3,0.1,8,0.1h0.1v0.2
	c0,1.1,0,2.3-0.1,3.4L228.5,184z M228.5,184l-0.1-3.4c0-1.1-0.1-2.2-0.1-3.4l0.2,0.2c-2.7,0-5.3,0.1-8,0.1l-8,0l0.3-0.3l0,6.8
	l-0.3-0.3c1.3,0,2.6,0,4,0l4,0.1L228.5,184z"/>
<path class="st0" d="M219.6,192.6l-7.9,0.2l-4,0.1c-1.3,0-2.7,0-4,0h-0.3v-0.3l0-6.8v-0.3h0.3l8,0c2.7,0,5.3,0.1,8,0.1h0.2v0.2
	c0,1.1-0.1,2.3-0.1,3.4L219.6,192.6z M219.6,192.6l-0.1-3.4c0-1.1-0.1-2.2-0.1-3.4l0.2,0.2c-2.7,0-5.3,0.1-8,0.1l-8,0l0.3-0.3l0,6.8
	l-0.3-0.3c1.3,0,2.6,0,4,0l4,0.1L219.6,192.6z"/>
<path class="st0" d="M237.5,192.6l-7.9,0.2l-4,0.1c-1.3,0-2.7,0-4.1,0h-0.3v-0.3l0-6.8v-0.3h0.3l8,0c2.7,0,5.3,0.1,8,0.1h0.2v0.2
	c0,1.1,0,2.3-0.1,3.4L237.5,192.6z M237.5,192.6l-0.1-3.4c0-1.1-0.1-2.2-0.1-3.4l0.2,0.2c-2.7,0-5.3,0.1-8,0.1l-8,0l0.3-0.3l0,6.8
	l-0.3-0.3c1.3,0,2.6,0,4,0l4,0.1L237.5,192.6z"/>
<path class="st0" d="M17,192.6L9,192.7l-4,0.1c-1.3,0-2.7,0-4,0H0.6v-0.3v-6.8v-0.3h0.3l8,0c2.7,0,5.3,0.1,8,0.1h0.2v0.2
	c0,1.1,0,2.3-0.1,3.4L17,192.6z M17,192.6l-0.1-3.4c0-1.1-0.1-2.2-0.1-3.4L17,186c-2.7,0-5.3,0.1-8,0.1l-8,0l0.3-0.3l0,6.8L1,192.3
	c1.3,0,2.6,0,4,0l4,0.1L17,192.6z"/>
<path class="st0" d="M34.8,192.6l-7.9,0.2l-4,0.1c-1.3,0-2.7,0-4.1,0h-0.3v-0.3l0-6.8v-0.3h0.3l8,0c2.7,0,5.3,0.1,8,0.1H35v0.2
	c0,1.1-0.1,2.3-0.1,3.4L34.8,192.6z M34.8,192.6l-0.1-3.4c0-1.1-0.1-2.2-0.1-3.4l0.2,0.2c-2.7,0-5.3,0.1-8,0.1l-8,0l0.3-0.3l0,6.8
	l-0.3-0.3c1.3,0,2.6,0,4,0l4,0.1L34.8,192.6z"/>
<path class="st0" d="M144.5,131.5l-7.9,0.2l-4,0.1c-1.3,0-2.7,0-4.1,0h-0.2v-0.3l0-6.8v-0.3h0.3l8,0c2.7,0,5.3,0.1,8,0.1h0.2v0.2
	c0,1.1-0.1,2.3-0.1,3.4L144.5,131.5z M144.5,131.5l-0.1-3.4c0-1.1-0.1-2.2-0.1-3.3l0.2,0.2c-2.7,0-5.3,0.1-8,0.1l-8,0l0.3-0.3l0,6.8
	l-0.3-0.3c1.3,0,2.6,0,4,0l4,0.1L144.5,131.5z"/>
<path class="st0" d="M135.6,140l-7.9,0.2l-4,0.1c-1.3,0-2.7,0-4.1,0h-0.3V140l0-6.8v-0.3h0.3l8,0c2.7,0,5.3,0.1,8,0.1h0.2v0.2
	c0,1.1-0.1,2.3-0.1,3.4L135.6,140z M135.6,140l-0.1-3.4c0-1.1-0.1-2.2-0.1-3.3l0.2,0.2c-2.7,0-5.3,0.1-8,0.1l-8,0l0.3-0.3v6.8
	l-0.3-0.3c1.3,0,2.6,0,4,0l4,0.1L135.6,140z"/>
<path class="st0" d="M153.5,140l-7.9,0.2l-4,0.1c-1.3,0-2.7,0-4,0h-0.3V140l0-6.8v-0.3h0.3l8,0c2.7,0,5.3,0.1,8,0.1h0.2v0.2
	c0,1.1-0.1,2.3-0.1,3.4L153.5,140z M153.5,140l-0.1-3.4c0-1.1-0.1-2.2-0.1-3.3l0.2,0.2c-2.7,0-5.3,0.1-8,0.1l-8,0l0.3-0.3l0,6.8
	l-0.3-0.3c1.3,0,2.6,0,4,0l4,0.1L153.5,140z"/>
<path class="st0" d="M227.6,37.7l-7.9,0.2l-4,0.1c-1.3,0-2.7,0-4,0h-0.3v-0.3l0-6.8v-0.3h0.3l8,0c2.7,0,5.3,0.1,8,0.1h0.2V31
	c0,1.1,0,2.3-0.1,3.4L227.6,37.7z M227.6,37.7l-0.1-3.4c0-1.1-0.1-2.2-0.1-3.4l0.2,0.2c-2.7,0-5.3,0.1-8,0.1l-8,0l0.3-0.3l0,6.8
	l-0.3-0.3c1.3,0,2.6,0,4,0l4,0.1L227.6,37.7z"/>
<path class="st0" d="M236.6,46.3l-7.9,0.2l-4,0.1c-1.3,0-2.7,0-4,0h-0.3v-0.3l0-6.8v-0.3h0.3l8,0c2.7,0,5.3,0.1,8,0.1h0.2v0.2
	c0,1.1,0,2.3-0.1,3.4L236.6,46.3z M236.6,46.3l-0.1-3.4c0-1.1-0.1-2.2-0.1-3.4l0.2,0.2c-2.7,0-5.3,0.1-8,0.1l-8,0l0.3-0.3l0,6.8
	l-0.3-0.3c1.3,0,2.6,0,4,0l4,0.1L236.6,46.3z"/>
<path class="st0" d="M17.9,37.7l-7.9,0.2l-4,0.1c-1.3,0-2.7,0-4,0H1.6v-0.3V31v-0.3h0.3l8,0c2.7,0,5.3,0.1,8,0.1H18V31
	c0,1.1,0,2.3-0.1,3.4L17.9,37.7z M17.9,37.7l-0.1-3.4c0-1.1-0.1-2.2-0.1-3.4l0.2,0.2c-2.7,0-5.3,0.1-8,0.1l-8,0L2.2,31v6.8l-0.3-0.2
	c1.3,0,2.6,0,4,0l4,0.1L17.9,37.7z"/>
<path class="st0" d="M225.3,169.1h-47.4v65.6h47.4V169.1z"/>
<path class="st1" d="M227.6,166.6h-52v2.4h52V166.6z"/>
<path class="st0" d="M244,166.6h-16.4v2.4H244V166.6z"/>
<path class="st1" d="M241.4,169.1h-16.1v65.6h16.1V169.1z"/>
<path class="st2" d="M220.2,199.5H183v-21.1h37.3V199.5z M183.1,199.3h37v-20.8h-37L183.1,199.3z"/>
<path class="st2" d="M203.6,184.6h-7.2v4.2h7.2V184.6z"/>
<path class="st2" d="M205.8,188.5h-7.4v-3.7h7.4L205.8,188.5z M198.6,188.3h7.1V185h-7.1L198.6,188.3z"/>
<path class="st2" d="M220.2,225.9H183v-21.1h37.3V225.9z M183.1,225.8h37V205h-37L183.1,225.8z"/>
<path class="st2" d="M203.6,211h-7.2v4.2h7.2V211z"/>
<path class="st2" d="M205.8,214.9h-7.4v-3.7h7.4L205.8,214.9z M198.6,214.8h7.1v-3.4h-7.1L198.6,214.8z"/>
<path class="st0" d="M75.6,44.4H42.5v40.2h33.1V44.4z"/>
<path class="st3" d="M71.8,48H46.2v32.9h25.6V48z"/>
<path class="st1" d="M47.2,48h-1v32.9h1V48z"/>
<path class="st1" d="M76.6,44.4h-1v40.2h1V44.4z"/>
<path class="st1" d="M60.8,52.6h-6v18h6V52.6z"/>
<path class="st0" d="M68.6,73.9H51.9v-9.4h16.7V73.9z M52.5,73.3h15.5v-8.2H52.5V73.3z"/>
<path class="st0" d="M36.2,86.9H3v40.2h33.1V86.9z"/>
<path class="st3" d="M32.4,90.5H6.8v32.9h25.6V90.5z"/>
<path class="st1" d="M7.8,90.5h-1v32.9h1V90.5z"/>
<path class="st1" d="M37.2,86.9h-1v40.2h1V86.9z"/>
<path class="st0" d="M22.3,99h-5.2v13.1h5.2V99z"/>
<path class="st1" d="M28,116.3H13.6v-9.6H28V116.3z M14.2,115.7h13.3v-8.4H14.2V115.7z"/>
<path class="st0" d="M35.4,64.9c-0.1-0.2-0.2-0.4-0.2-0.7c0-0.2,0.1-0.5,0.2-0.7l0.2-0.4c0.1-0.1,0.1-0.2,0.2-0.4
	c0.1-0.2,0.3-0.4,0.5-0.5c0.2-0.1,0.4-0.2,0.7-0.2l1.7,0l-0.2-5.4l-1.7,0c-0.2,0-0.5-0.1-0.7-0.2c-0.2-0.1-0.4-0.3-0.5-0.5
	c-0.1-0.2-0.3-0.5-0.4-0.7c-0.1-0.2-0.2-0.4-0.2-0.7c0-0.2,0-0.5,0.2-0.7l0.8-1.5L31,49.9l-0.8,1.5c-0.1,0.2-0.3,0.4-0.5,0.5
	C29.5,52,29.3,52,29.1,52c-0.3,0-0.5,0-0.8,0c-0.2,0-0.5,0-0.7-0.1s-0.4-0.3-0.5-0.5L26.2,50l-4.7,2.9l0.9,1.4
	c0.1,0.2,0.2,0.4,0.2,0.7c0,0.2-0.1,0.5-0.2,0.7L22.2,56L22,56.4c-0.1,0.2-0.3,0.4-0.5,0.5c-0.2,0.1-0.4,0.2-0.7,0.2l-1.7,0l0.2,5.4
	l1.7-0.1c0.2,0,0.5,0.1,0.7,0.2c0.2,0.1,0.4,0.3,0.5,0.5c0.1,0.2,0.3,0.5,0.4,0.7c0.1,0.2,0.2,0.4,0.2,0.7c0,0.2,0,0.5-0.1,0.7
	L22,66.8l4.8,2.6l0.8-1.5c0.1-0.2,0.3-0.4,0.5-0.5c0.2-0.1,0.5-0.2,0.7-0.2c0.3,0,0.5,0,0.8,0c0.2,0,0.5,0,0.7,0.1
	c0.2,0.1,0.4,0.3,0.5,0.5l0.9,1.4l4.6-2.9L35.4,64.9z M26.8,63.5c-0.8-0.4-1.4-1.1-1.8-1.8c-0.4-0.8-0.6-1.7-0.5-2.5
	c0.1-0.9,0.4-1.7,1-2.4c0.6-0.7,1.3-1.2,2.2-1.4c0.8-0.3,1.8-0.3,2.6,0c0.8,0.3,1.6,0.8,2.2,1.4c0.6,0.7,0.9,1.5,1,2.4
	c0.1,0.9-0.1,1.8-0.5,2.5c-0.6,1-1.5,1.8-2.7,2.2C29.1,64.2,27.8,64.1,26.8,63.5z"/>
<path class="st0" d="M18.9,41.8c-0.1-0.1-0.3-0.2-0.3-0.4c-0.1-0.1-0.1-0.3-0.1-0.5c0-0.1,0-0.2,0-0.3c0-0.1,0-0.2,0-0.3
	c0-0.2,0-0.3,0.1-0.5c0.1-0.1,0.2-0.3,0.3-0.4l1-0.6L18,35.6l-1,0.6c-0.1,0.1-0.3,0.1-0.5,0.1c-0.2,0-0.3-0.1-0.5-0.2
	c-0.2-0.1-0.3-0.2-0.5-0.3c-0.2-0.1-0.3-0.2-0.4-0.3c-0.1-0.1-0.1-0.3-0.1-0.5v-1.1h-3.8v1.1c0,0.2,0,0.3-0.1,0.5
	c-0.1,0.1-0.2,0.3-0.4,0.3c-0.2,0.1-0.3,0.2-0.5,0.3c-0.1,0.1-0.3,0.1-0.5,0.2c-0.2,0-0.3,0-0.5-0.1l-1-0.6L6.4,39l1,0.6
	c0.1,0.1,0.3,0.2,0.3,0.4c0.1,0.1,0.1,0.3,0.1,0.5c0,0.1,0,0.2,0,0.3c0,0.1,0,0.2,0,0.3c0,0.2,0,0.3-0.1,0.5
	c-0.1,0.1-0.2,0.3-0.3,0.4l-1,0.6l1.9,3.3l1-0.6C9.4,45,9.6,45,9.8,45c0.2,0,0.3,0.1,0.5,0.2c0.2,0.1,0.3,0.2,0.5,0.3
	c0.1,0.1,0.3,0.2,0.4,0.3c0.1,0.1,0.1,0.3,0.1,0.5v1.2h3.8v-1.2c0-0.2,0-0.3,0.1-0.5c0.1-0.1,0.2-0.3,0.4-0.3
	c0.2-0.1,0.3-0.2,0.5-0.3c0.1-0.1,0.3-0.1,0.5-0.2c0.2,0,0.3,0,0.5,0.1l1,0.6l1.9-3.3L18.9,41.8z M13.1,43.8c-0.6,0-1.2-0.2-1.7-0.5
	c-0.5-0.3-0.9-0.8-1.2-1.4c-0.2-0.6-0.3-1.2-0.2-1.8c0.1-0.6,0.4-1.2,0.9-1.6c0.4-0.4,1-0.7,1.6-0.9c0.6-0.1,1.2-0.1,1.8,0.2
	c0.6,0.2,1.1,0.6,1.4,1.2c0.3,0.5,0.5,1.1,0.5,1.7c0,0.4-0.1,0.8-0.2,1.2c-0.2,0.4-0.4,0.7-0.7,1c-0.3,0.3-0.6,0.5-1,0.7
	C14,43.7,13.6,43.8,13.1,43.8z"/>
<path class="st0" d="M231,114.8c-0.1-0.1-0.3-0.2-0.3-0.4c-0.1-0.1-0.1-0.3-0.1-0.5c0-0.1,0-0.2,0-0.3c0-0.1,0-0.2,0-0.3
	c0-0.2,0-0.3,0.1-0.5c0.1-0.1,0.2-0.3,0.3-0.4l1-0.6l-1.9-3.3l-1,0.6c-0.1,0.1-0.3,0.1-0.5,0.1c-0.2,0-0.3-0.1-0.5-0.2
	c-0.2-0.1-0.3-0.2-0.5-0.3c-0.2-0.1-0.3-0.2-0.4-0.3c-0.1-0.1-0.1-0.3-0.1-0.5V107h-3.8v1.2c0,0.2,0,0.3-0.1,0.5
	c-0.1,0.1-0.2,0.3-0.4,0.3c-0.2,0.1-0.3,0.2-0.5,0.3c-0.1,0.1-0.3,0.1-0.5,0.2c-0.2,0-0.3,0-0.5-0.1l-1-0.6l-1.9,3.3l1,0.6
	c0.1,0.1,0.3,0.2,0.3,0.4c0.1,0.1,0.1,0.3,0.1,0.5c0,0.1,0,0.2,0,0.3s0,0.2,0,0.3c0,0.2,0,0.3-0.1,0.5c-0.1,0.2-0.2,0.3-0.3,0.4
	l-1,0.6l1.9,3.3l1-0.6c0.1-0.1,0.3-0.1,0.5-0.1c0.2,0,0.3,0.1,0.5,0.2c0.2,0.1,0.3,0.2,0.5,0.3c0.2,0.1,0.3,0.2,0.4,0.3
	c0.1,0.1,0.1,0.3,0.1,0.5v1.2h3.8v-1.2c0-0.2,0-0.3,0.1-0.5c0.1-0.1,0.2-0.3,0.4-0.3c0.2-0.1,0.3-0.2,0.5-0.3
	c0.1-0.1,0.3-0.1,0.5-0.2c0.2,0,0.3,0,0.5,0.1l1,0.6l1.9-3.3L231,114.8z M225.3,116.8c-0.6,0-1.2-0.2-1.7-0.5
	c-0.5-0.3-0.9-0.8-1.2-1.4c-0.2-0.6-0.3-1.2-0.2-1.8c0.1-0.6,0.4-1.2,0.9-1.6c0.4-0.4,1-0.7,1.6-0.9c0.6-0.1,1.2-0.1,1.8,0.2
	c0.6,0.2,1.1,0.6,1.4,1.2c0.3,0.5,0.5,1.1,0.5,1.7c0,0.8-0.3,1.6-0.9,2.2C226.9,116.5,226.1,116.8,225.3,116.8z"/>
<path class="st2" d="M179.8,0h-0.6v32.4h0.6V0z"/>
<path class="st0" d="M199.5,51.7l-1.6,3.5h-36.9l-1.6-3.5l15.7-10.9h8.7L199.5,51.7z"/>
<path class="st1" d="M184.9,30.4l-1.1,10.5h-8.7L174,30.4H184.9z"/>
<path class="st1" d="M199.5,51.7l-1.6,3.5h-36.9l-1.6-3.5H199.5z"/>
<path class="st2" d="M216.7,0h-0.6v61.2h0.6V0z"/>
<path class="st0" d="M236.5,80.5l-1.6,3.5H198l-1.6-3.5l15.7-10.9h8.7L236.5,80.5z"/>
<path class="st1" d="M221.9,59.2l-1.1,10.5h-8.7L211,59.2H221.9z"/>
<path class="st1" d="M236.5,80.6l-1.6,3.5H198l-1.6-3.5H236.5z"/>
<path class="st0" d="M119.2,278c65.5,0,118.7-5.2,118.7-11.6s-53.1-11.6-118.7-11.6c-65.5,0-118.7,5.2-118.7,11.6
	S53.7,278,119.2,278z"/>
<path class="st4" d="M0,234.7l30.5-0.2l30.5,0l61-0.1l61,0.1l30.5,0.1l30.5,0.2l-30.5,0.1l-30.5,0.1l-61,0.1l-61-0.1l-30.5-0.1
	L0,234.7z"/>
<path class="st5" d="M23.9,199.8c0,0-9.5-2.2-14.7-7C4,188,1.1,179.4,1.1,179.4c3.6,0.7,7.2,1.6,10.7,2.8c1.3,1.3,2.4,2.9,3.2,4.6
	c0.1-1.1,0.1-2.2,0-3.3c1.2,0.5,2.4,1.2,3.4,2.1C22.7,189.3,23.9,199.8,23.9,199.8z"/>
<path class="st4" d="M7,183.6c-1.3-0.9-2.6-1.8-3.9-2.7c0,0,0,0,0,0c0,0,0,0,0,0c0,0,0,0,0,0c0,0,0,0,0,0c0,0,0,0,0,0c0,0,0,0,0,0
	c0,0,0,0,0,0c0,0,0,0,0,0c2.5,1.5,4.9,3,7.2,4.7c0.8,0.6,1.6,1.2,2.4,1.8l-0.2-0.3c-0.3-0.5-0.6-1-0.9-1.4c-0.6-0.9-1.3-1.8-2-2.7
	c0,0,0-0.1,0,0c0.7,0.9,1.5,1.7,2.2,2.6c0.3,0.4,0.6,0.9,0.9,1.3c0.2,0.2,0.3,0.5,0.4,0.7l0.1,0.2c1.2,1,2.4,2,3.6,3
	c0.7,0.7,1.4,1.3,2.1,2c-0.4-1.1-0.7-2.3-1.1-3.5c0,0,0-0.1,0.1,0c0.4,1.2,0.9,2.4,1.2,3.6c0.7,0.8,1.4,1.6,2.1,2.5l0-0.2
	c-0.1-0.5-0.2-0.9-0.3-1.3c-0.2-0.9-0.5-1.7-0.8-2.6c-0.5-1.8-1.4-3.4-2.6-4.8c0,0,0-0.1,0,0c1.8,2.2,3,4.8,3.6,7.6
	c0.1,0.4,0.2,0.8,0.3,1.2c0,0.2,0.1,0.4,0.1,0.7c0.3,0.4,0.6,0.8,0.8,1.2c1.6,2.5,3,5.1,4,7.9c1.2,3.1,2.2,6.3,3,9.5c0,0,0,0,0,0
	c0,0,0,0,0,0s0,0,0,0c0,0,0,0,0,0c-1.9-5.6-3.8-11.2-7-16.2c-0.7-1-1.4-2.1-2.2-3c-1.6-0.1-3.1-0.4-4.6-0.9
	c-1.6-0.5-3.2-1.3-4.6-2.2c-0.8-0.5-1.6-1.2-2.4-1.8c0,0,0,0,0,0c0,0,0,0,0,0c0,0,0,0,0,0c0,0,0,0,0,0c0,0,0,0,0,0c0,0,0,0,0,0
	c0,0,0,0,0,0c0,0,0,0,0,0c1.3,1.1,2.8,2,4.4,2.6c1.5,0.7,3.1,1.2,4.8,1.6c0.7,0.2,1.4,0.3,2.1,0.4c-0.9-1.1-1.8-2.1-2.8-3.1
	c-0.3-0.3-0.7-0.6-1-0.9c-1.1-0.8-2.3-1.4-3.5-2c-1.6-0.8-3.1-1.6-4.6-2.3c-0.9-0.4-1.7-0.9-2.6-1.3c0,0,0-0.1,0-0.1
	c1.6,0.8,3.2,1.5,4.7,2.2c1.5,0.7,3,1.4,4.4,2.2l0.2,0.1c-1.3-1.1-2.6-2.2-4-3.2C9.6,185.4,8.3,184.5,7,183.6z"/>
<path class="st4" d="M7.5,188.5c0.8,0.3,1.6,0.6,2.3,1c0.8,0.4,1.5,0.8,2.3,1.2c0,0,0,0.1,0,0.1c-0.8-0.4-1.5-0.7-2.3-1.1
	C9.1,189.3,8.3,188.9,7.5,188.5C7.5,188.5,7.5,188.5,7.5,188.5z"/>
<path class="st5" d="M54.9,151.8c-1.8,2.3-2.7,5-2.8,7.9c0,0.9,0.1,2,0.2,3.4c-2.4,1.4-4.5,3.2-6.2,5.3c1.9-1.1,4.1-1.6,6.3-1.5
	c0,1-0.2,1.9-0.4,2.9c-1.4,0-2.8,0.3-4,0.8c1.2,0,2.5,0.2,3.6,0.7c-1.7,5.4-6.7,10.9-20.7,13.3c-1.5-6.6-0.6-13.6,2.5-19.6
	C37.5,156.8,54.9,151.8,54.9,151.8z"/>
<path class="st4" d="M26,207.7c0.2-2.3,0.6-4.6,0.9-6.9c0.7-4.6,1.6-9.1,2.8-13.6c0.5-2.1,1.2-4.2,2-6.2c0-0.4-0.1-0.7-0.1-1.1
	c0-0.4,0-0.9,0-1.3c0-0.9,0.1-1.8,0.1-2.7c0.1-1.8,0.4-3.5,0.9-5.2c0.3-1,0.6-2,0.8-3c0,0,0.1,0,0.1,0c-0.5,1.7-0.8,3.5-1,5.2
	c-0.2,1.7-0.4,3.5-0.5,5.2c0,0.5,0,1,0,1.4c0,0.2,0,0.4,0,0.6c0.7-1.7,1.5-3.3,2.3-4.8c1.4-2.5,3-4.9,4.8-7.1c0-0.3,0-0.5,0.1-0.8
	c0.1-0.3,0.1-0.6,0.2-0.9c0.1-0.6,0.3-1.3,0.5-1.9c0.4-1.3,0.8-2.5,1.2-3.7c0,0,0,0,0,0c0,0,0,0,0,0s0,0,0,0c0,0,0,0,0,0
	c-0.4,1.2-0.6,2.5-0.9,3.8c-0.1,0.6-0.3,1.2-0.4,1.9c-0.1,0.3-0.1,0.6-0.2,0.9c0,0,0,0,0,0.1c0.6-0.7,1.1-1.4,1.7-2.1
	c2.7-3.1,5.6-6,8.5-8.9c0.4-0.4,0.7-0.7,1.1-1l0,0c-2.8,2.9-5.6,5.9-8.2,9c-0.6,0.7-1.2,1.5-1.8,2.2l0.9-0.6c0.8-0.5,1.6-1,2.5-1.5
	c0.8-0.5,1.7-0.9,2.6-1.4c0.9-0.4,1.8-0.8,2.7-1.3c0,0,0.1,0,0,0.1c-0.9,0.4-1.7,0.9-2.5,1.4c-0.9,0.5-1.7,1-2.5,1.5
	c-0.8,0.5-1.6,1-2.5,1.6c-0.7,0.4-1.3,0.9-2.1,1.3c-1.6,2.1-3.1,4.2-4.5,6.5c-0.8,1.4-1.6,2.9-2.3,4.4c0.2-0.1,0.3-0.1,0.5-0.2
	l1.3-0.6l2.5-1.1c1.6-0.7,3.1-1.3,4.7-2.1c0.9-0.4,1.7-0.9,2.5-1.4c0,0,0.1,0,0,0.1c-2.9,2-6,3.4-9.2,4.8l-1.4,0.6
	c-0.4,0.2-0.8,0.4-1.1,0.5c-0.9,2.1-1.7,4.3-2.4,6.5c-1.2,4.4-2.3,8.9-3,13.5c-0.9,4.6-1.4,9.1-1.8,13.8c0,0.6-0.1,1.1-0.2,1.7
	c0,0,0,0.1-0.1,0.1c0,0-0.1,0.1-0.1,0.1c0,0-0.1,0-0.1-0.1c0,0-0.1-0.1-0.1-0.1C25.5,212.4,25.8,210,26,207.7z"/>
<path class="st4" d="M34.5,169.2c0.3-1.4,0.6-2.8,1-4.2c0,0,0.1,0,0.1,0c-0.4,1.4-0.6,2.7-0.9,4.1c-0.3,1.4-0.5,2.8-0.7,4.2h0
	C34.1,172,34.3,170.6,34.5,169.2z"/>
<path class="st4" d="M40.5,173.1c1-0.6,2-1.2,3-1.7c0.5-0.3,1-0.5,1.5-0.8c0.5-0.2,1.1-0.5,1.6-0.7c0,0,0.1,0,0,0.1
	c-0.5,0.3-1,0.6-1.5,0.8c-0.5,0.3-1,0.6-1.5,0.8c-1,0.5-2,1.2-3.1,1.6c0,0,0,0-0.1,0C40.5,173.2,40.5,173.2,40.5,173.1
	C40.5,173.2,40.5,173.1,40.5,173.1C40.5,173.1,40.5,173.1,40.5,173.1z"/>
<path class="st6" d="M23.8,183.3c0,0-8.8-2.1-12.8-8c-3.9-5.6-5.1-15.3-5.2-16.1c0.2,0.8,2,9.2,8,13.1
	C18.3,175.2,22.7,177.7,23.8,183.3z"/>
<path class="st4" d="M15.6,168c1.6,1.4,2.7,3.3,3.2,5.4C18.2,171.4,17.1,169.6,15.6,168C15.6,168.1,15.6,168,15.6,168z"/>
<path class="st5" d="M23.8,183.3c0,0-8.8-2.1-12.8-8c-3.9-5.6-5.1-15.3-5.2-16.1c0,0,0,0,0-0.1c0,0,4.2,6,8.7,7.5
	C18.8,168.1,25,173.5,23.8,183.3z"/>
<path class="st4" d="M7.2,162.4c0.8,1.6,1.7,3.2,2.7,4.7c1,1.4,2.3,2.7,3.6,3.7c1.2,0.9,2.5,1.8,3.7,2.7v0c-0.2-0.3-0.5-0.7-0.7-1
	c-0.5-0.6-1.1-1.3-1.6-1.9c-1.1-1.2-2.2-2.4-3.2-3.6c-0.5-0.7-1-1.5-1.4-2.3c0,0,0-0.1,0.1,0c1.4,3,4.3,4.9,6.3,7.4
	c0.3,0.4,0.6,0.7,0.8,1.1c0.2,0.3,0.4,0.6,0.5,0.9c1.1,0.9,2.1,1.9,3,3c-0.1-0.6-0.2-1.2-0.4-1.7c-0.2-0.8-0.5-1.5-0.9-2.2
	c0,0,0,0,0,0c0,0,0,0,0,0c0,0,0,0,0,0s0,0,0,0c0.4,0.7,0.8,1.4,1,2.2c0.2,0.6,0.3,1.3,0.3,1.9c0.4,0.6,0.8,1.2,1.2,1.9
	c0-0.2-0.1-0.4-0.1-0.6c-0.2-0.9-0.4-1.8-0.6-2.6c-0.4-1.8-1.1-3.4-2.1-5c0,0,0,0,0,0c0,0,0,0,0,0c0,0,0,0,0,0c0,0,0,0,0,0
	c0,0,0,0,0,0c0,0,0,0,0,0c0,0,0,0,0,0c0,0,0,0,0,0c1,1.5,1.8,3.1,2.4,4.8c0.3,0.9,0.5,1.7,0.7,2.6c0.1,0.4,0.2,0.9,0.3,1.3
	c0,0.2,0.1,0.5,0.1,0.7c0.9,1.9,1.6,3.9,2,6c0.9,3.7,1.5,7.4,1.9,11.1c0.5,3.9,0.7,7.9,0.6,11.8c0,0.5,0,1-0.1,1.5
	c0,0.1-0.2,0.1-0.2,0c-0.1-2-0.1-3.9-0.3-5.9c-0.1-2-0.3-3.9-0.5-5.9c-0.4-3.8-1-7.6-1.8-11.4c-0.7-3.2-1.6-6.5-3.4-9.3
	c-0.9-1.4-1.9-2.7-3.2-3.8c-1.2-1.1-2.6-2.1-3.9-3.1c-1.3-1-2.6-2.1-3.6-3.4c-1.1-1.4-2-2.9-2.8-4.5C7.6,163.2,7.4,162.8,7.2,162.4
	C7.2,162.4,7.2,162.4,7.2,162.4z"/>
<path class="st4" d="M8.8,163.7c0.6,1.2,1.2,2.3,2,3.4c0,0,0,0,0,0C9.9,166,9.3,164.9,8.8,163.7C8.7,163.7,8.7,163.6,8.8,163.7z"/>
<path class="st5" d="M56.1,179.4c0,0,0.1,12.5-7.3,16.1c-7.5,3.6-11.5,0.6-16.6,1.8c0.2-0.3,3.8-5.5,9.6-7
	C47.7,188.9,54.3,184.6,56.1,179.4z"/>
<path class="st7" d="M56.1,179.4c0,0,0.1,12.5-7.3,16.1c-7.5,3.6-11.5,0.6-16.6,1.8c2.7-1.3,5.6-2.1,8.5-2.5
	C45.4,194.2,54.4,191.1,56.1,179.4z"/>
<path class="st4" d="M31.7,197.6c0.9-0.8,1.9-1.5,3-2l0.5-0.2c0.1-0.1,0.2-0.2,0.3-0.3c0.2-0.2,0.5-0.5,0.7-0.7
	c0.5-0.4,1-0.8,1.5-1.1c1.2-0.7,2.6-1.2,3.9-1.9c0,0,0.1,0,0,0.1c-0.6,0.3-1.2,0.7-1.8,1c-0.6,0.4-1.2,0.7-1.8,1.1
	c-0.5,0.3-1,0.7-1.5,1.1c-0.1,0.1-0.3,0.2-0.4,0.4c0.8-0.3,1.7-0.5,2.5-0.7c1.4-0.3,2.8-0.5,4.1-0.8c0.7-0.1,1.3-0.3,2-0.5
	c0.6-0.5,1.2-1,1.8-1.5c0.7-0.7,1.4-1.4,2-2.1c0,0,0.1,0,0.1,0c-0.9,1.2-1.9,2.4-3.1,3.4c0.3-0.1,0.6-0.3,1-0.4
	c2.6-1.2,4.8-3,6.4-5.3c0,0,0,0,0,0c0,0,0,0,0,0c0,0,0,0,0,0c0,0,0,0,0,0c0,0,0,0,0,0c0,0,0,0,0,0c0,0,0,0,0,0c0,0,0,0,0,0
	c-1.4,2-3.1,3.7-5.2,5c-1,0.6-2.1,1.2-3.3,1.5c-1.3,0.4-2.7,0.7-4.1,1c-1.3,0.2-2.7,0.5-4,0.9c-1.2,0.4-2.3,1-3.3,1.7
	c-1.9,1.5-3.4,3.4-4.5,5.6c-1.3,2.9-2.2,6-2.5,9.2c0,0.1-0.2,0.1-0.2,0C26.2,206.7,27.6,201.2,31.7,197.6z"/>
<path class="st4" d="M40.4,193.5c0.4-0.6,0.9-1.1,1.5-1.4c0.7-0.4,1.3-0.9,1.8-1.5c0,0,0.1,0,0.1,0c-0.4,0.6-1,1.1-1.6,1.4
	C41.5,192.4,40.9,192.9,40.4,193.5L40.4,193.5z"/>
<path class="st8" d="M36.4,206.8l-0.3,6.9l-1,21H19.3l-1-21l-0.3-6.9H36.4z"/>
<path class="st4" d="M36.4,206.8l-0.3,6.9H18.2l-0.3-6.9H36.4z"/>
<path class="st8" d="M37.5,203.9H16.8v6.6h20.7V203.9z"/>
<path class="st5" d="M145.4,31.7H95.9v65.8h49.6V31.7z"/>
<g class="st9">
	<path d="M145.4,31.7H95.9v65.8h49.6V31.7z"/>
</g>
<path class="st5" d="M146.8,31.7H97.2v65.8h49.6V31.7z"/>
<path class="st0" d="M143.8,34.8l-43.8,0.4l0.6,59.3l43.8-0.4L143.8,34.8z"/>
<path class="st1" d="M101.2,34.1l-1.3,59.3l43.8,0.9l1.3-59.3L101.2,34.1z"/>
<path class="st3" d="M143.6,34.6H99.9v59.3h43.8V34.6z"/>
<path class="st0" d="M138.6,48.5h-33.8V49h33.8V48.5z"/>
<path class="st0" d="M138.6,50.4h-33.8v0.5h33.8V50.4z"/>
<path class="st0" d="M138.6,52.2h-33.8v0.5h33.8V52.2z"/>
<path class="st0" d="M138.6,54.1h-33.8v0.5h33.8V54.1z"/>
<path class="st0" d="M138.6,56h-33.8v0.5h33.8V56z"/>
<path class="st0" d="M138.6,57.8h-33.8v0.5h33.8V57.8z"/>
<path class="st0" d="M138.6,59.7h-33.8v0.5h33.8V59.7z"/>
<path class="st0" d="M138.6,61.6h-33.8v0.5h33.8V61.6z"/>
<path class="st0" d="M138.6,63.5h-33.8v0.5h33.8V63.5z"/>
<path class="st0" d="M117.2,65.3h-12.3v0.5h12.3V65.3z"/>
<path class="st0" d="M138.6,69.1h-33.8v0.5h33.8V69.1z"/>
<path class="st0" d="M138.6,71h-33.8v0.5h33.8V71z"/>
<path class="st0" d="M138.6,72.8h-33.8v0.5h33.8V72.8z"/>
<path class="st0" d="M138.6,74.7h-33.8v0.5h33.8V74.7z"/>
<path class="st0" d="M138.6,76.6h-33.8V77h33.8V76.6z"/>
<path class="st0" d="M138.6,78.4h-33.8v0.5h33.8V78.4z"/>
<path class="st0" d="M125.6,80.3h-20.7v0.5h20.7V80.3z"/>
<path class="st0" d="M138.6,87.5h-14.8V88h14.8V87.5z"/>
<path class="st8" d="M112.1,43.3c0-0.2,0-0.3,0.1-0.5c0.1-0.2,0.1-0.3,0.2-0.4c0.1-0.1,0.2-0.2,0.4-0.3c0.2-0.1,0.4-0.1,0.5-0.1
	c0.2,0,0.4,0,0.6,0.2c0.2,0.1,0.3,0.2,0.4,0.4l-0.4,0.3c0-0.1-0.1-0.1-0.1-0.2c0,0-0.1-0.1-0.2-0.1c-0.1,0-0.1-0.1-0.2-0.1
	c-0.1,0-0.1,0-0.2,0c-0.1,0-0.2,0-0.3,0.1c-0.1,0.1-0.2,0.1-0.2,0.2c-0.1,0.1-0.1,0.2-0.1,0.3c0,0.1,0,0.2,0,0.3
	c0,0.1,0,0.2,0.1,0.3c0,0.1,0.1,0.2,0.2,0.3c0.1,0.1,0.1,0.1,0.2,0.2c0.1,0,0.2,0.1,0.3,0.1h0.2c0.1,0,0.1,0,0.2-0.1
	c0.1-0.1,0.2-0.2,0.3-0.3l0.4,0.2c0,0.1-0.1,0.2-0.2,0.3c-0.1,0.1-0.2,0.1-0.3,0.2c-0.1,0.1-0.2,0.1-0.3,0.1c-0.1,0-0.2,0-0.3,0
	c-0.2,0-0.3,0-0.5-0.1c-0.2-0.1-0.3-0.2-0.4-0.3c-0.1-0.1-0.2-0.3-0.3-0.4C112.1,43.7,112,43.5,112.1,43.3z"/>
<path class="st8" d="M115.8,44.7c-0.2,0-0.4,0-0.5-0.1c-0.1-0.1-0.3-0.2-0.4-0.3c-0.2-0.2-0.3-0.6-0.3-0.9c0-0.2,0-0.3,0.1-0.5
	c0.1-0.2,0.2-0.3,0.3-0.4c0.1-0.1,0.2-0.2,0.4-0.3c0.2-0.1,0.3-0.1,0.5-0.1c0.2,0,0.4,0,0.5,0.1c0.1,0.1,0.3,0.2,0.4,0.3
	c0.1,0.1,0.2,0.3,0.3,0.4c0.1,0.2,0.1,0.3,0.1,0.5c0,0.2,0,0.3-0.1,0.5c-0.1,0.2-0.1,0.3-0.3,0.4c-0.1,0.1-0.2,0.2-0.4,0.3
	C116.1,44.6,115.9,44.7,115.8,44.7z M115,43.3c0,0.1,0,0.2,0.1,0.3c0,0.1,0.1,0.2,0.1,0.3c0.1,0.1,0.1,0.1,0.2,0.2
	c0.1,0,0.2,0.1,0.3,0.1c0.1,0,0.2,0,0.3-0.1c0.1,0,0.2-0.1,0.2-0.2c0.1-0.1,0.1-0.2,0.1-0.3c0-0.1,0.1-0.2,0.1-0.3
	c0-0.1,0-0.2-0.1-0.3c0-0.1-0.1-0.2-0.2-0.3c-0.1-0.1-0.1-0.1-0.2-0.2c-0.1,0-0.2-0.1-0.3-0.1c-0.1,0-0.2,0-0.3,0.1
	c-0.1,0-0.2,0.1-0.2,0.2C115.1,42.9,115,43.1,115,43.3L115,43.3z"/>
<path class="st8" d="M117.9,43v1.7h-0.5v-2.6h0.4l1.3,1.7v-1.7h0.5v2.6h-0.4L117.9,43z"/>
<path class="st8" d="M122.1,42.5h-0.8v2.1h-0.5v-2.1H120v-0.4h2.1V42.5z"/>
<path class="st8" d="M122.4,44.6v-2.6h1.1c0.1,0,0.2,0,0.3,0.1c0.1,0,0.2,0.1,0.3,0.2c0.1,0.1,0.1,0.2,0.2,0.3
	c0,0.1,0.1,0.2,0.1,0.3c0,0.2,0,0.3-0.1,0.5c-0.1,0.1-0.2,0.2-0.3,0.3l0.6,1H124l-0.5-0.9h-0.5v0.9H122.4z M122.9,43.3h0.6
	c0,0,0.1,0,0.1,0c0,0,0.1-0.1,0.1-0.1c0,0,0.1-0.1,0.1-0.1c0-0.1,0-0.1,0-0.2c0-0.1,0-0.1,0-0.2c0,0,0-0.1-0.1-0.1
	c0,0-0.1-0.1-0.1-0.1c0,0-0.1,0-0.1,0h-0.6L122.9,43.3z"/>
<path class="st8" d="M125.5,42.1h0.4l1,2.6h-0.5l-0.2-0.6h-0.9l-0.2,0.6h-0.5L125.5,42.1z M126.1,43.6l-0.4-1l-0.4,1H126.1z"/>
<path class="st8" d="M127,43.3c0-0.2,0-0.3,0.1-0.5c0.1-0.2,0.1-0.3,0.2-0.4c0.1-0.1,0.2-0.2,0.4-0.3c0.2-0.1,0.4-0.1,0.5-0.1
	c0.2,0,0.4,0,0.6,0.2c0.2,0.1,0.3,0.2,0.4,0.4l-0.4,0.3c0-0.1-0.1-0.1-0.1-0.2c0,0-0.1-0.1-0.2-0.1c-0.1,0-0.1-0.1-0.2-0.1h-0.2
	c-0.1,0-0.2,0-0.3,0.1c-0.1,0.1-0.2,0.1-0.2,0.2c-0.1,0.1-0.1,0.2-0.1,0.3c0,0.1,0,0.2,0,0.3c0,0.1,0,0.2,0.1,0.3
	c0,0.1,0.1,0.2,0.2,0.3c0.1,0.1,0.1,0.1,0.2,0.2c0.1,0,0.2,0.1,0.3,0.1h0.2c0.1,0,0.1,0,0.2-0.1c0.1,0,0.1-0.1,0.2-0.1
	c0-0.1,0.1-0.1,0.1-0.2l0.4,0.2c0,0.1-0.1,0.2-0.2,0.3c-0.1,0.1-0.2,0.1-0.3,0.2c-0.1,0.1-0.2,0.1-0.3,0.1c-0.1,0-0.2,0-0.3,0
	c-0.2,0-0.3,0-0.5-0.1c-0.2-0.1-0.3-0.2-0.4-0.3c-0.1-0.1-0.2-0.3-0.3-0.4C127,43.7,127,43.5,127,43.3z"/>
<path class="st8" d="M131.5,42.5h-0.8v2.1h-0.5v-2.1h-0.8v-0.4h2.1L131.5,42.5z"/>
<path class="st4" d="M123.3,86.1c0.4-0.3,0.8-0.5,1.1-0.7c0.4-0.2,0.8-0.4,1.2-0.6c0.1,0,0.1,0,0.2,0c0,0,0.1,0,0.1,0
	c0,0,0.1,0,0.1,0.1c0.1,0.1,0.1,0.2,0.1,0.4c0,0.2,0,0.4-0.1,0.7c-0.1,0.4-0.2,0.9-0.3,1.3c-0.2,0.9-0.5,1.7-0.9,2.5
	c-0.1,0.2-0.2,0.4-0.3,0.6c0,0.1-0.1,0.1-0.1,0.1c0,0-0.1,0-0.1,0c0,0,0,0,0,0c0,0,0,0,0,0l0,0c-0.1-0.1-0.1-0.2-0.1-0.4
	c0-0.5,0.1-0.9,0.2-1.3c0.1-0.4,0.3-0.9,0.5-1.3c0.2-0.4,0.5-0.8,0.8-1.1c0.2-0.2,0.4-0.3,0.6-0.3c0.1,0,0.2,0,0.4,0
	c0.1,0.1,0.2,0.1,0.2,0.3c0.1,0.1,0.1,0.2,0.2,0.3c0,0,0.1,0.1,0.1,0.1c0,0,0.1,0,0.1,0c0.2-0.1,0.4-0.2,0.6-0.3l0.3-0.2
	c0,0,0.1-0.1,0.1-0.1c0,0,0.1,0,0.1,0c0,0,0.1,0,0.1,0c0.1,0.1,0.1,0.2,0.1,0.3c0,0,0,0.1,0.1,0.1c0,0,0.1,0,0.1,0
	c0.2-0.1,0.3-0.3,0.5-0.4c0.2-0.2,0.3-0.3,0.4-0.5c0.3-0.3,0.6-0.7,0.9-1c0.2-0.2,0.3-0.3,0.5-0.5c0.1-0.1,0.2-0.2,0.3-0.2
	c0,0,0.1-0.1,0.2-0.1c0,0,0.1,0,0.1,0c0,0,0,0,0.1,0c0,0,0,0,0,0c0.1,0.1,0.1,0.2,0,0.4c0,0.1,0,0.2-0.1,0.3c0,0.2-0.1,0.4-0.2,0.7
	c-0.1,0.4-0.3,0.8-0.5,1.2c-0.1,0.1-0.1,0.2-0.2,0.3c0,0-0.1,0-0.1,0.1c0,0-0.1,0-0.1,0c-0.1,0-0.1,0-0.2,0
	c-0.1-0.1-0.2-0.1-0.3-0.2c-0.1-0.1-0.1-0.2-0.2-0.3c0-0.1,0-0.1,0-0.2c0,0,0-0.1,0.1-0.1c0,0,0.1,0,0.1,0c0.1,0,0.2,0,0.3,0.1
	c0.2,0.1,0.4,0.2,0.6,0.3c0.2,0.1,0.4,0.2,0.6,0.3c0.1,0,0.2,0.1,0.3,0.1l0.2,0c0,0,0.1,0,0.1,0c0.2-0.1,0.3-0.3,0.4-0.5
	c0.1-0.1,0.2-0.2,0.3-0.2c0.1,0,0.1,0,0.1,0c0,0,0,0.1,0,0.1c0,0.1,0,0.1,0,0.2c0,0.1,0,0.2,0,0.2c0,0,0.2,0,0.3,0
	c0.2-0.1,0.4-0.2,0.6-0.3c0.1-0.1,0.2-0.1,0.3-0.2c0.1-0.1,0.2-0.1,0.4-0.1c0.2,0.1,0.4,0.2,0.6,0.4c0.1,0.1,0.2,0.1,0.2,0.2
	c0,0,0,0,0,0c0,0,0,0,0,0l0.1-0.1c0.2-0.1,0.3-0.3,0.5-0.4c0.3-0.3,0.6-0.6,0.9-1c0.1-0.2,0.2-0.4,0.2-0.6c0-0.2-0.2-0.3-0.4-0.3
	c-0.4-0.1-0.9-0.1-1.3,0c-0.2,0-0.4,0.1-0.6,0.2c-0.1,0-0.2,0.1-0.3,0.2c-0.1,0.1-0.2,0.1-0.1,0.2c0,0.1,0.1,0.2,0.2,0.2
	c0.1,0,0.2,0.1,0.3,0.1c0.2,0.1,0.4,0.1,0.6,0.2c0.9,0.2,1.8,0.2,2.7,0.3c-0.9,0-1.8,0-2.7-0.2c-0.2,0-0.4-0.1-0.6-0.2
	c-0.1,0-0.2-0.1-0.3-0.1c-0.1,0-0.1-0.1-0.2-0.1c0,0-0.1-0.1-0.1-0.2c0-0.1,0-0.1,0-0.2c0-0.1,0.1-0.1,0.1-0.1
	c0.1-0.1,0.2-0.1,0.3-0.2c0.2-0.1,0.4-0.2,0.7-0.2c0.4-0.1,0.9-0.1,1.4,0c0.1,0,0.2,0.1,0.3,0.1c0.1,0,0.1,0.1,0.1,0.1
	c0,0.1,0.1,0.1,0.1,0.2c0,0.2-0.1,0.5-0.2,0.7c-0.2,0.4-0.5,0.7-0.9,1c-0.2,0.2-0.3,0.3-0.5,0.4c-0.1,0-0.1,0.1-0.2,0.1
	c0,0-0.1,0-0.1,0c0,0-0.1,0-0.1,0c-0.1-0.1-0.2-0.1-0.3-0.2c-0.1-0.2-0.3-0.3-0.5-0.4c-0.2,0-0.4,0.1-0.5,0.3
	c-0.2,0.1-0.4,0.3-0.6,0.3c-0.1,0-0.1,0-0.2,0c-0.1,0-0.1,0-0.2,0c0,0-0.1-0.1-0.1-0.1c0,0,0-0.1,0-0.1c0-0.1,0-0.1,0-0.2
	c0,0,0-0.1,0-0.1c-0.1,0-0.2,0.1-0.2,0.1c-0.2,0.1-0.3,0.4-0.5,0.5c-0.1,0-0.1,0-0.2,0c-0.1,0-0.1,0-0.2,0c-0.1,0-0.2-0.1-0.3-0.1
	l-0.6-0.3c-0.2-0.1-0.4-0.2-0.6-0.3c-0.1,0-0.2-0.1-0.3-0.1c-0.1,0-0.1,0.1-0.1,0.2c0,0.1,0.1,0.2,0.1,0.3c0.1,0.1,0.1,0.1,0.2,0.2
	c0,0,0.1,0,0.1,0c0,0,0.1,0,0.1,0c0.1-0.1,0.1-0.2,0.2-0.2c0.2-0.4,0.4-0.8,0.5-1.2c0.1-0.2,0.1-0.4,0.2-0.6c0-0.1,0-0.2,0.1-0.3
	c0-0.1,0-0.2,0-0.3c0-0.1-0.2,0-0.2,0.1c-0.1,0.1-0.2,0.1-0.3,0.2c-0.2,0.2-0.3,0.3-0.5,0.5c-0.3,0.3-0.6,0.7-0.9,1l-0.4,0.5
	c-0.1,0.2-0.3,0.3-0.5,0.4c-0.1,0-0.1,0-0.2,0c-0.1,0-0.1-0.1-0.1-0.1c0-0.1,0-0.2-0.1-0.3c-0.1-0.1-0.1,0-0.1,0l-0.1,0.1l-0.3,0.2
	c-0.2,0.2-0.4,0.3-0.6,0.3c-0.1,0-0.1,0-0.2,0c-0.1,0-0.1-0.1-0.2-0.1c-0.1-0.1-0.1-0.2-0.2-0.3c-0.1-0.1-0.1-0.2-0.2-0.2
	c-0.1,0-0.2,0-0.3,0c-0.2,0-0.4,0.1-0.6,0.3c-0.3,0.3-0.6,0.7-0.8,1.1c-0.2,0.4-0.4,0.8-0.5,1.2c-0.1,0.4-0.2,0.9-0.2,1.3
	c0,0.1,0,0.2,0.1,0.3c0,0,0.1-0.1,0.1-0.1c0.1-0.2,0.2-0.4,0.3-0.6c0.4-0.8,0.7-1.7,0.9-2.5c0.1-0.4,0.2-0.9,0.3-1.3
	c0-0.2,0.1-0.4,0.1-0.7c0-0.1,0-0.2-0.1-0.3c0,0,0,0-0.1,0c0,0,0,0-0.1,0c0,0-0.1,0-0.2,0c-0.4,0.1-0.8,0.3-1.2,0.5
	C124.1,85.7,123.7,85.9,123.3,86.1L123.3,86.1z"/>
<path class="st5" d="M109.1,91.2c-0.7,0-1.4-0.2-2-0.5c-0.6-0.3-1.2-0.8-1.6-1.3c-0.4-0.6-0.7-1.2-0.8-1.9c-0.1-0.7-0.1-1.4,0.1-2
	c0.2-0.7,0.6-1.3,1-1.8c0.5-0.5,1.1-0.9,1.7-1.1c0.7-0.2,1.4-0.3,2-0.2c0.7,0.1,1.3,0.3,1.9,0.7c0.5,0.3,0.9,0.7,1.2,1.2
	c0.3,0.5,0.5,1,0.7,1.6c0.1,0.6,0.1,1.2,0,1.7c-0.1,0.6-0.3,1.1-0.7,1.6c-0.3,0.5-0.7,0.9-1.2,1.2c-0.5,0.3-1,0.5-1.6,0.7
	C109.7,91.1,109.4,91.2,109.1,91.2z M109.1,82.6c-0.3,0-0.5,0-0.8,0.1c-1.1,0.2-2,0.8-2.6,1.7c-0.6,0.9-0.9,1.9-0.7,3
	c0.1,1.1,0.7,2,1.5,2.7c0.8,0.7,1.9,1,3,0.9c1.1-0.1,2.1-0.6,2.8-1.4c0.7-0.8,1.1-1.9,1-2.9c0-1.1-0.5-2.1-1.3-2.8
	C111.2,83,110.2,82.6,109.1,82.6z"/>
<path class="st5" d="M109.1,90.1c-0.6,0-1.2-0.2-1.7-0.5c-0.5-0.3-0.9-0.8-1.2-1.3c-0.3-0.5-0.4-1.1-0.4-1.8c0-0.6,0.2-1.2,0.6-1.7
	c0.3-0.5,0.7-0.8,1.2-1.1c0.5-0.3,1-0.4,1.6-0.4c0.6,0,1.1,0.1,1.6,0.4c0.5,0.3,0.9,0.6,1.2,1.1c0.3,0.5,0.5,1,0.5,1.5
	c0.1,0.6,0,1.1-0.2,1.6c-0.2,0.5-0.6,1-1,1.3c-0.4,0.3-0.9,0.6-1.5,0.7C109.6,90.1,109.3,90.1,109.1,90.1z M109.1,83.7
	c-0.2,0-0.4,0-0.6,0.1c-0.8,0.1-1.5,0.6-1.9,1.2c-0.5,0.6-0.7,1.4-0.5,2.2c0.1,0.8,0.5,1.5,1.1,2c0.6,0.5,1.4,0.7,2.2,0.7
	c0.8-0.1,1.5-0.4,2-1c0.5-0.6,0.8-1.4,0.8-2.1c0-0.8-0.4-1.5-0.9-2.1C110.7,84,109.9,83.7,109.1,83.7z"/>
<path class="st5" d="M112,85.4l-4.1,0.8l0.1,0.3l4.1-0.8L112,85.4z"/>
<path class="st5" d="M110.3,87.2l-4.1,0.8l0.1,0.3l4.1-0.8L110.3,87.2z"/>
<path class="st2" d="M132.5,30.5H111V37h21.5V30.5z"/>
<path class="st2" d="M128.3,26.9H115l-0.6,3.6h14.7L128.3,26.9z M121.7,29.4c-0.2,0-0.3,0-0.4-0.1c-0.1-0.1-0.2-0.2-0.3-0.4
	c-0.1-0.1-0.1-0.3,0-0.5c0-0.2,0.1-0.3,0.2-0.4c0.1-0.1,0.2-0.2,0.4-0.2c0.2,0,0.3,0,0.5,0c0.1,0.1,0.3,0.2,0.4,0.3
	c0.1,0.1,0.1,0.3,0.1,0.4c0,0.2-0.1,0.4-0.2,0.6C122.1,29.4,121.9,29.4,121.7,29.4z"/>
<path class="st10" d="M129.1,30.5h-14.7l0.1-0.8h14.4L129.1,30.5z"/>
<path class="st11" d="M130,273.7c1.3,0.4,39.3-0.1,40.7-1c0.6-0.4,0.8-5.9,0.9-12.6v-0.2c0-1.4,0-2.8,0-4.2c0-0.2,0-0.4,0-0.6
	l-1.8-19.7l-25.4,0.3l2.5,19.5l0,0.8l0.2,4v0.4c0,0-14.5,6.7-15.9,7.9C129.7,269.4,128.6,273.3,130,273.7z"/>
<path class="st0" d="M130,273.7c1.3,0.4,39.3-0.1,40.7-1c0.6-0.4,0.8-5.9,0.9-12.6v-0.2c0-1.4,0-2.8,0-4.2c0-0.2,0-0.4,0-0.6
	l-24.7,0.1l0,0.8l0.2,4v0.4c0,0-14.5,6.7-15.9,7.9C129.7,269.4,128.6,273.3,130,273.7z"/>
<path class="st10" d="M130,273.7c0.7,0.2,11,0.2,21.1,0c2,0,4-0.1,6-0.1c7.2-0.2,13.1-0.5,13.7-0.9c0.6-0.4,0.8-5.7,0.9-12.3
	c0-0.1,0-0.2,0-0.3c0-0.1,0-0.1,0-0.2h0l-24.5,0v0.4c0,0-14.5,6.7-15.9,7.9C129.7,269.4,128.6,273.3,130,273.7z"/>
<path class="st4" d="M130.4,272.2c6.4-0.2,32.2-0.6,38.6-0.4c0.1,0,0.1,0,0,0c-6.3,0.4-32.2,0.5-38.6,0.4
	C130.2,272.3,130.2,272.2,130.4,272.2z"/>
<path class="st4" d="M144.4,260.1c2.5-0.5,5.6-0.2,7.5,1.6c0.1,0.1,0,0.2-0.1,0.2c-2.4-0.7-4.9-1.2-7.4-1.4c0,0,0,0-0.1,0
	c0,0,0,0-0.1,0s0,0,0-0.1c0,0,0,0,0-0.1c0,0,0,0,0-0.1c0,0,0,0,0-0.1C144.3,260.1,144.3,260.1,144.4,260.1
	C144.3,260.1,144.4,260.1,144.4,260.1z"/>
<path class="st4" d="M142.6,261.2c2.5-0.5,5.6-0.2,7.5,1.6c0.1,0.1,0,0.2-0.1,0.2c-2.4-0.7-4.9-1.2-7.4-1.4c0,0-0.1,0-0.1,0
	c0,0-0.1-0.1-0.1-0.1c0,0,0-0.1,0-0.1C142.5,261.2,142.5,261.2,142.6,261.2z"/>
<path class="st4" d="M140.8,262.3c2.5-0.5,5.6-0.2,7.6,1.6c0.1,0.1,0,0.2-0.1,0.2c-2.4-0.7-4.9-1.2-7.4-1.4c0,0-0.1,0-0.1,0
	c0,0,0-0.1-0.1-0.1c0,0,0-0.1,0-0.1C140.7,262.3,140.7,262.3,140.8,262.3z"/>
<path class="st4" d="M151,273.7c2,0,4-0.1,6-0.1c7.2-0.2,13.1-0.5,13.7-0.9c0.6-0.4,0.8-5.7,0.9-12.3c0-0.1,0-0.2,0-0.3
	c0-0.1,0-0.1,0-0.2h0C168.2,262.3,156.4,270.1,151,273.7z"/>
<path class="st4" d="M145.4,260.1h27.3c0,0-5.5-63.9-5.3-65c0.3-1.4,1.9-7.9,4-16.3c0.7-2.6,1.4-5.5,2.2-8.4
	c2-7.9,4.3-16.6,6.2-24.2c2.9-11.3,5.2-20.1,5.2-20.1H162c0,0-2.7,8.6-6.1,19.7c-5.5,18.1-13,43-13.7,49.1
	C141,204.6,145.4,260.1,145.4,260.1z"/>
<path class="st8" d="M146.7,255.4c4.2-0.1,3-0.1,7.2-0.2c2,0,15.5-0.1,17.4,0.2c0,0,0,0,0,0c0,0,0,0,0,0c0,0,0,0,0,0c0,0,0,0,0,0
	c-1.9,0.3-15.3,0.2-17.4,0.2c-4.2,0-3-0.1-7.2-0.2c0,0,0,0,0,0C146.6,255.5,146.6,255.5,146.7,255.4
	C146.6,255.4,146.6,255.4,146.7,255.4C146.6,255.4,146.6,255.4,146.7,255.4z"/>
<path class="st8" d="M162.3,191.1c0.9-4,2.2-7.8,3.4-11.7c2.4-7.9,4.8-15.8,7.2-23.6c1.2-3.9,2.4-7.9,3.6-11.8c0.6-2,1.2-4,1.8-6
	c0.6-1.9,1.3-3.9,1.9-5.8c0.2-0.8,0.3-0.4,0.1,0.7c-0.6,2-1.1,4.1-1.7,6.1c-1.2,4-2.4,8.1-3.6,12.1c-2.4,8-4.8,16-7.2,24
	c-1.2,4-2.4,8-3.6,12c-0.6,1.9-1.1,3.9-1.5,5.8c-0.3,2.1-0.4,4.1-0.2,6.2c0.3,4.2,0.7,8.4,1.1,12.5l1.2,12.6
	c0.8,8.3,1.5,16.6,2.3,25c0.1,1.1,0.2,2.1,0.3,3.2c0,0.4-0.5,0.3-0.5,0c-0.9-8.2-1.6-16.5-2.4-24.7l-2.3-24.6
	c-0.2-2.1-0.4-4.1-0.4-6.2C161.7,195,161.9,193,162.3,191.1z"/>
<path class="st8" d="M164.6,126c1.6,12.4,4.7,35.8,6.9,52.7c5.2-20.5,13.6-52.7,13.6-52.7H164.6z"/>
<path class="st11" d="M158.9,274.1c1.3,0.4,39.3,0.1,40.7-0.8c0.6-0.3,0.8-5.9,1-12.6v-0.2c0-1.4,0.1-2.8,0.1-4.2c0-0.2,0-0.4,0-0.6
	c0.1-9.7-0.6-19.7-0.6-19.7l-24.8,0.2l0.7,19.5v0.8l0.1,4v0.4c0,0-14.5,6.7-15.9,7.8C158.7,269.8,157.6,273.7,158.9,274.1z"/>
<path class="st0" d="M158.9,274.1c1.3,0.4,39.3,0.1,40.7-0.8c0.6-0.3,0.8-5.9,1-12.6v-0.2c0-1.4,0.1-2.8,0.1-4.2c0-0.2,0-0.4,0-0.6
	h-24.7v0.8l0.1,4v0.4c0,0-14.5,6.7-15.9,7.8C158.7,269.8,157.6,273.7,158.9,274.1z"/>
<path class="st10" d="M158.9,274.1c1.3,0.4,39.3,0.1,40.7-0.8c0.6-0.3,0.8-5.9,1-12.6v-0.2l-24.5,0v0.4c0,0-14.5,6.7-15.9,7.8
	C158.7,269.8,157.6,273.7,158.9,274.1z"/>
<path class="st4" d="M159.3,272.6c6.4-0.2,32.2-0.5,38.6-0.2c0.1,0,0.1,0,0,0c-6.3,0.4-32.2,0.4-38.6,0.3
	C159.2,272.7,159.2,272.6,159.3,272.6z"/>
<path class="st4" d="M173.4,260.5c2.5-0.5,5.6-0.1,7.5,1.6c0.1,0.1,0,0.2-0.1,0.2c-2.4-0.8-4.9-1.2-7.4-1.5c0,0,0,0-0.1,0
	c0,0,0,0-0.1,0c0,0,0,0,0,0c0,0,0,0,0-0.1c0,0,0,0,0-0.1c0,0,0,0,0-0.1C173.3,260.5,173.3,260.5,173.4,260.5
	C173.4,260.5,173.4,260.5,173.4,260.5z"/>
<path class="st4" d="M171.6,261.6c2.5-0.5,5.6-0.1,7.5,1.6c0.1,0.1,0,0.2-0.1,0.2c-2.4-0.8-4.9-1.2-7.4-1.5c0,0-0.1,0-0.1,0
	c0,0,0-0.1-0.1-0.1c0,0,0-0.1,0-0.1C171.5,261.6,171.5,261.6,171.6,261.6z"/>
<path class="st4" d="M169.8,262.7c2.5-0.5,5.6-0.1,7.5,1.6c0.1,0.1,0,0.2-0.1,0.2c-2.4-0.8-4.9-1.3-7.4-1.5c0,0-0.1,0-0.1,0
	c0,0,0-0.1-0.1-0.1c0,0,0-0.1,0-0.1C169.7,262.7,169.7,262.7,169.8,262.7z"/>
<path class="st4" d="M162.8,126c0,0,0.5,11.1,3.1,19.9c0.2,0.7,0.4,1.4,0.7,2.1c2.3,0.9,4.6,2.1,6.7,3.4c0,0,0.3,8.9,0.5,18.9
	c0.3,11.1,0.6,23.5,0.5,26.2c-0.2,9.8,1.2,64,1.2,64l27.3,0.1c0,0-4.9-60.5-4.9-64.1c0.1-5.8-1.3-31.4-2.4-50.1
	c-0.6-11.5-1.2-20.4-1.2-20.4H162.8z"/>
<path class="st8" d="M176.4,255.6c4.2-0.1,3-0.1,7.2-0.1c2,0,15.5-0.1,17.4,0.3c0,0,0,0,0,0s0,0,0,0s0,0,0,0c0,0,0,0,0,0
	c-1.9,0.3-15.3,0.1-17.4,0.1c-4.2-0.1-3-0.1-7.2-0.2c0,0,0,0,0,0C176.4,255.7,176.3,255.7,176.4,255.6
	C176.3,255.6,176.4,255.6,176.4,255.6C176.4,255.6,176.4,255.6,176.4,255.6z"/>
<path class="st8" d="M192,130c0.5,15.2,1,30.5,1.7,45.7c0.7,15.2,1.6,30.6,2.9,45.9c0.7,8.5,1.4,20.5,2.3,29c0,0.1-0.1,0.1-0.1,0
	c-2-15.1-3.1-33.8-4.1-49.1c-1-15.2-1.6-30.5-2.2-45.7c-0.3-8.6-0.5-17.3-0.8-25.9C191.8,129.9,192,129.9,192,130z"/>
<path class="st8" d="M165.3,147.4c2.7,1.1,5.3,2.5,7.8,4.1c0.1,0.1,0,0.2-0.1,0.2c-2.6-1.3-5.3-2.5-7.9-3.9c0,0-0.1-0.1-0.1-0.1
	c0,0,0-0.1,0-0.1c0,0,0.1-0.1,0.1-0.1C165.2,147.3,165.3,147.3,165.3,147.4z"/>
<path class="st8" d="M165.2,141.1c0.3,1.3,1.6,6.3,3.7,6c2.1-0.3,1.1-3.2,0.8-5.2c-0.5-4.1-0.8-8.1-0.7-12.2c0,0,0,0,0,0
	c0,0,0,0,0,0s0,0,0,0c0,0,0,0,0,0c-0.3,2.9-0.4,5.9-0.1,8.9c0.1,1.6,0.3,3.2,0.6,4.7c0.2,0.7,0.3,1.5,0.3,2.3
	c-0.1,0.6-0.3,1-0.7,1.1c-2.3,0.5-3.4-7-3.6-8.3c-0.3-2.9-0.4-5.9-0.4-8.8c0-0.1-0.2-0.1-0.2,0C164.4,133.4,164.6,137.3,165.2,141.1
	z"/>
<path class="st8" d="M168.4,147c0.2,0.5,0.4,1,0.5,1.4c0.1,0.4,0.3,0.8,0.6,1.2c0,0.1,0.2,0,0.2,0c0-0.4-0.1-0.9-0.2-1.3
	c-0.1-0.5-0.3-1-0.5-1.6c0-0.1-0.1-0.1-0.1-0.1c-0.1,0-0.1,0-0.2,0c-0.1,0-0.1,0.1-0.1,0.1C168.4,146.9,168.4,146.9,168.4,147z"/>
<path class="st11" d="M171.2,92.4c-0.3,4.2-2.8,24.1-6.9,28.4c-2.8,3-15.3,10.8-22.6,14.2c-1.9,0.9-7.7-14.1-5-15.4
	c3.4-1.6,16.3-8.8,18.4-10.3c2.1-1.5,6.4-12.2,11.1-19.5C168.7,86,171.5,87.9,171.2,92.4z"/>
<path class="st11" d="M143,134.3c-1.7,1-11.1,5.6-13.6,6.2c-2.5,0.5-9.8,1.6-10.4-0.3c-0.6-1.9,1.5-2.3,1.5-2.3s-3.1-0.1-3.6-2
	c-0.4-1.9,2.9-2.6,2.9-2.6s-3.2-0.3-3.5-2.3c-0.3-2,3.1-2,3.1-2s-3-0.1-2.5-1.9c0.5-2.1,6-1.2,8.7-2c0.6-0.2,12.2-4.5,12.2-4.5
	L143,134.3z"/>
<path class="st4" d="M119.1,129c4,0.6,5.8,0.2,9.5-1.4c0.1,0,0.1,0.1,0.1,0.1c-3.4,1.9-5.7,2.7-9.6,1.5
	C118.9,129.2,118.9,129,119.1,129z"/>
<path class="st4" d="M119.5,133.3c4.2,0.3,6.2-0.2,10.2-1.5c0.1,0,0.1,0.1,0,0.1c-3.8,1.7-6,2.5-10.2,1.6
	C119.3,133.4,119.3,133.2,119.5,133.3z"/>
<path class="st4" d="M120.7,137.8c4.1,0,6.3-0.4,10-2.2c0,0,0,0,0,0c0,0,0,0,0,0c0,0,0,0,0,0c0,0,0,0,0,0c0,0,0,0,0,0c0,0,0,0,0,0
	c0,0,0,0,0,0c0,0,0,0,0,0c-3.6,2.2-6.3,2.7-10,2.2C120.5,137.9,120.5,137.8,120.7,137.8z"/>
<path class="st11" d="M140.9,120.3c0,0-4.7-1.9-7-2.2c-2.3-0.4-11.1,1.4-10.9,3.3c0.3,2.5,5.7,2.5,8.3,2.2c0,0,0.8,5.8,4.6,6.7
	C139.8,131.1,140.9,120.3,140.9,120.3z"/>
<path class="st4" d="M123.4,122.1c2,2.1,5.4,1.4,7.9,1.3c0,0,0.1,0,0.1,0c0,0,0.1,0,0.1,0.1c0,0,0,0.1,0.1,0.1c0,0,0,0.1,0,0.1
	c0.5,2.4,1.9,5.7,4.3,6.7c0,0,0,0,0,0c0,0,0,0,0,0c0,0,0,0,0,0c0,0,0,0,0,0c0,0,0,0,0,0c0,0,0,0,0,0c0,0,0,0,0,0c0,0,0,0,0,0
	c-2.7-0.8-4.3-3.8-4.7-6.5C128.4,124.1,125,124.6,123.4,122.1C123.3,122.1,123.4,122.1,123.4,122.1z"/>
<path class="st12" d="M137.6,118.6l6.3,16.6c0,0,15.3-7.9,20.9-14.3c4.2-4.8,6.4-20.7,6.7-27.5c0.2-6.8-3-7.9-6.1-2.8
	c-3.2,5-10.1,17.8-10.4,18.2C154.6,109.3,137.6,118.6,137.6,118.6z"/>
<path class="st4" d="M146.9,131.7c-0.8-1.8-1.5-3.6-2.3-5.4c-0.7-1.8-1.4-3.6-2-5.4c-0.4-1.1-0.7-2.1-1.1-3.2c0,0,0-0.1,0.1,0
	c0.7,1.8,1.5,3.6,2.2,5.4c0.7,1.8,1.4,3.6,2.1,5.4C146.3,129.6,146.7,130.7,146.9,131.7C147,131.7,147,131.7,146.9,131.7z"/>
<path class="st4" d="M171.5,93.5c-0.2,6.8-2.5,22.7-6.7,27.5c-3.8,4.3-12,9.4-16.9,12.1L168,87.8C170.1,86.7,171.6,88.6,171.5,93.5z
	"/>
<path class="st0" d="M161.1,129.8c0.9,0.8,34.7,1.7,34.9,1.4c0.4-0.7-5.2-33.9-20.5-44.4c-2.7-1.9-6.3-0.7-8.1,0.7
	c-0.9,0.7-3.2,5.7-3.6,10.1C163.3,102.1,160.5,129.3,161.1,129.8z"/>
<path class="st12" d="M174.5,86.1c0,0-1.5,20.7-1.5,21.5c-0.1,0.8,1.4,23.5,1.4,23.5l22,1.1c0,0-1.9-9.2-2.7-11.6
	c-0.2-0.5-3.8-18.8-10.6-26.6C177,86.8,174.5,86.1,174.5,86.1z"/>
<path class="st12" d="M166.9,87.9c0,0-1.9,18.3-1.9,19.5c0,1.1-0.3,23.3-0.3,23.3l-4.7-1c0,0,1.4-14.4,1.5-15.6
	c0.1-1.3,1.8-14.7,2.2-17.3C164.3,92.7,166.9,87.9,166.9,87.9z"/>
<path class="st5" d="M169.6,109l-19.7,8.9l11.6,25.6l19.7-8.9L169.6,109z"/>
<path class="st10" d="M155.7,117.1l9.3-4.2l-1.3-2.8l-9.3,4.2L155.7,117.1z"/>
<path class="st10" d="M156.6,113.3l1.1-0.5l-0.6-1.3l2.8-1.3l0.6,1.3l1.1-0.5l-1.1-2.4l-5.1,2.3L156.6,113.3z"/>
<path class="st11" d="M179.8,89.1c6.7,7.1,21.7,26.6,18.5,31.1c-5.2,7.4-19,14.9-23.4,16.6c-1.9,0.7-10.2-12.7-8.5-14
	c2.1-1.6,17-8.3,16.8-9.6c-0.1-0.7-4.3-9.3-6.7-17.3C173.9,86.7,176.6,85.8,179.8,89.1z"/>
<path class="st11" d="M151.1,128.1c0,0.5,0.2,1,0.5,1.4c0.3,0.4,0.7,0.7,1.2,0.9c-0.5,0.7-0.7,1.6-0.6,2.4c0.2,1.5,2.7,1.8,2.7,1.8
	c-0.3,0.9-0.4,1.8-0.2,2.7c0.4,1.4,2.8,2.1,2.8,2.1c0.1,1,0.6,1.8,1.3,2.5c2,1.6,5.7,0.4,8.1-0.3s8.4-5.1,9.7-5.8l-4.7-15.3
	c0,0-11.6,0.3-14.3,1.6C155.2,123.1,151.1,126.1,151.1,128.1z"/>
<path class="st4" d="M152.8,130.1c2.1-1.7,4.6-2.7,7.1-3.9c0,0,0,0,0,0c0,0,0,0,0,0c0,0,0,0,0,0c0,0,0,0,0,0
	c-2.4,1.1-4.7,2.7-7.1,3.9c0,0,0,0,0,0C152.8,130.2,152.8,130.2,152.8,130.1C152.7,130.2,152.7,130.2,152.8,130.1
	C152.7,130.2,152.7,130.1,152.8,130.1z"/>
<path class="st4" d="M154.8,134.5c0.5-0.3,1.1-0.6,1.7-0.8c0.6-0.2,1.2-0.5,1.8-0.7c1.2-0.5,2.5-0.9,3.8-1.3c0.1,0,0.1,0.1,0,0.1
	c-1.2,0.5-2.5,0.9-3.7,1.4l-1.8,0.8c-0.6,0.3-1.1,0.5-1.7,0.7c0,0,0,0,0,0C154.8,134.6,154.8,134.6,154.8,134.5
	C154.8,134.5,154.8,134.5,154.8,134.5C154.8,134.5,154.8,134.5,154.8,134.5z"/>
<path class="st4" d="M157.4,139.4c0.5-0.3,1-0.5,1.5-0.7l1.7-0.6c1.1-0.4,2.3-0.8,3.4-1.3c0.1,0,0.1,0.1,0,0.1
	c-1.1,0.5-2.3,0.9-3.4,1.4L159,139C158.5,139.2,158,139.4,157.4,139.4L157.4,139.4z"/>
<path class="st12" d="M171.4,119.7l8.8,15.6c0,0,16.7-9.9,19-15.8c2-5.3-14.8-26.3-18.2-29.8c-3.4-3.6-6.4-3.9-5.3,2.6
	c1.1,6.5,7.1,20.6,7.1,20.7C182.8,113.2,171.4,119.7,171.4,119.7z"/>
<path class="st4" d="M179.5,125c-0.6-1.2-3.3-5.9-4.1-7c0,0-0.1,0-0.1,0c0.5,1.3,3,6,3.7,7.3c1.3,2.4,2.6,4.8,4.1,7c0,0,0,0,0,0
	c0,0,0,0,0,0c0,0,0,0,0,0c0,0,0,0,0,0c0,0,0,0,0,0c0,0,0,0,0,0s0,0,0,0c0,0,0,0,0,0C182.2,129.8,180.8,127.4,179.5,125z"/>
<path class="st4" d="M176.5,96.1C176.5,96.1,176.5,96.1,176.5,96.1c0.2,1.4,0.5,2.8,0.9,4.2c-0.3-0.7-0.6-1.4-0.9-2.1
	c0-0.1-0.1,0-0.1,0c0.3,0.9,0.7,1.9,1.2,2.7c0.2,0.8,4.7,11.5,4.9,12.1c-2,1-3.8,2.1-5.7,3.2c-0.9,0.5-1.9,1.1-2.8,1.6
	c-1,0.5-2,1.1-2.9,1.7c-0.1,0,0.2,0.3,0.2,0.4c0.1,0.1,0.1,0,0.1,0c0-0.1-0.1-0.1-0.1-0.2c0.5-0.2,2.4-1.3,2.8-1.6l2.9-1.6
	c1.9-1.1,5.9-3.4,5.9-3.4C182.9,112.7,178.4,102.9,176.5,96.1z"/>
<path class="st4" d="M182.3,134c1.1-0.8,2.3-1.6,3.4-2.4c1.1-0.8,2.3-1.6,3.4-2.4c1.1-0.8,2.2-1.7,3.3-2.5c1.1-0.9,2.2-1.7,3.2-2.6
	c-1,1-2,2-3,2.9c-1,0.9-2.1,1.8-3.2,2.6c-1.1,0.8-2.3,1.6-3.4,2.4C184.7,132.7,183.5,133.4,182.3,134z"/>
<path class="st11" d="M168.8,92.8c2,0.5,5.6-2.5,7-5c0.1-0.2-0.5-7.1-0.5-8.5c0-0.3-8.7,2-8.7,2c0.5,1.7,0.7,3.5,0.8,5.3
	C167.3,86.8,166.8,92.3,168.8,92.8z"/>
<path class="st4" d="M167.3,86.6c0,0,0,0.1,0,0.3c5-0.6,7.2-3.4,8.1-5.4c-0.1-1-0.1-1.8-0.1-2.1c0-0.3-8.7,2-8.7,2
	C167,83,167.3,84.8,167.3,86.6z"/>
<path class="st0" d="M167.3,87l2.2,5.1l6.3-6.7l1.9,2.1c0,0-6.1,10.5-6.1,10l-2.2-4.4l-3,3.1l0.1-7.8L167.3,87z"/>
<path class="st4" d="M166.1,92.5c0.1-1.3,0.1-2.6,0.2-3.8c0,0,0.1-0.1,0.1,0c0.3,1.2,0,6.1,0,7.3c0.1-0.1,2.8-2.8,2.8-2.7
	c0.5,0.7,2.1,3.9,2.2,4.2c1-1.7,4.6-7.7,5.8-9.3c0,0,0,0,0,0c0,0,0,0,0,0c0,0,0,0,0,0c0,0,0,0,0,0c0,0,0,0,0,0c0,0,0,0,0,0
	c0,0,0,0,0,0c0,0,0,0,0,0c-0.8,1.7-5.7,9.9-5.8,9.9c-0.8-1.5-1.6-3.1-2.3-4.7c-0.4,0.6-3.1,3.5-3.1,3.3
	C166,95.3,166,93.9,166.1,92.5z"/>
<path class="st11" d="M176.5,67.7c1.2,3,0.2,12-1.9,14.1c-3,3.1-8.1,3.7-10.8,0.1c-2.6-3.5-1.1-15.2,1.2-17.2
	C168.4,61.9,174.8,63.3,176.5,67.7z"/>
<path class="st4" d="M168.5,73.4C168.5,73.4,168.6,73.5,168.5,73.4c0,0.7,0,1.4,0.5,1.7c0,0,0,0,0,0C168.4,75,168.3,74,168.5,73.4z"
	/>
<path class="st4" d="M169.1,72.8c1,0,0.9,2.1,0,2C168.2,74.9,168.3,72.8,169.1,72.8z"/>
<path class="st4" d="M165,73.2C165,73.2,165,73.2,165,73.2c-0.1,0.7-0.2,1.4-0.8,1.6c0,0,0,0,0,0C165,74.8,165.1,73.8,165,73.2z"/>
<path class="st4" d="M164.5,72.5c-1-0.1-1.2,1.9-0.3,2C165.2,74.7,165.4,72.6,164.5,72.5z"/>
<path class="st4" d="M170,71.9c-0.3-0.1-0.5-0.2-0.8-0.3c-0.3-0.1-0.5-0.2-0.7-0.5c0-0.1-0.1-0.2,0-0.3c0-0.1,0.1-0.2,0.1-0.2
	c0.2-0.1,0.3-0.2,0.5-0.2c0.2,0,0.4,0,0.5,0.1c0.4,0.1,0.7,0.4,0.9,0.7c0,0.1,0.1,0.2,0,0.3c0,0.1,0,0.2-0.1,0.2
	c-0.1,0.1-0.1,0.1-0.2,0.1C170.2,71.9,170.1,71.9,170,71.9z"/>
<path class="st4" d="M163.8,71.5c0.3,0,0.6-0.1,0.8-0.2c0.3,0,0.6-0.1,0.8-0.3c0.1-0.1,0.1-0.2,0.1-0.3c0-0.1,0-0.2-0.1-0.3
	c-0.1-0.1-0.3-0.2-0.5-0.3c-0.2,0-0.4,0-0.6,0c-0.4,0.1-0.7,0.3-1,0.6c-0.1,0.1-0.1,0.2-0.1,0.2c0,0.1,0,0.2,0.1,0.3
	c0,0.1,0.1,0.1,0.2,0.2C163.6,71.4,163.7,71.5,163.8,71.5z"/>
<path class="st4" d="M166.5,78c0.3,0.3,0.6,0.6,1,0.8c0.2,0.1,0.5,0.1,0.7,0c0.5-0.1,0.5-0.6,0.4-1c-0.1-0.2-0.1-0.4-0.2-0.6
	C167.9,77.7,167.3,78,166.5,78z"/>
<path class="st13" d="M167.6,78.8c0.2,0.1,0.5,0.1,0.7,0c0.5-0.1,0.5-0.6,0.4-1c-0.3,0-0.5,0.1-0.7,0.3
	C167.8,78.3,167.7,78.6,167.6,78.8z"/>
<path class="st4" d="M175.8,74.7c-1.5,0-1.5-3.8-1.5-3.8s-2.4-0.4-3.6-3.5c0,0-3,2-5.5,1.6c-4-0.6-4-5.8-2.6-6.8
	c2.1-1.5,5.9,0.5,5.9,0.5s5.6-1.7,7.4,2.1c0.7,0,1.4,0.3,1.9,0.9c0.5,0.5,0.8,1.2,0.8,2C179,70.3,177,74.7,175.8,74.7z"/>
<path class="st4" d="M174.9,71.3c-1.2-0.2-2.2-0.7-3-1.5c-0.4-0.5-0.7-1-0.9-1.6c-0.2-0.6-0.2-1.2-0.1-1.8c0-0.1-0.1-0.1-0.1,0
	c-0.2,0.6-0.2,1.3,0,2c0.1,0.6,0.4,1.3,0.8,1.8c0.4,0.5,0.9,0.9,1.5,1.1c0.6,0.2,1.2,0.3,1.9,0.2C174.9,71.4,175,71.4,174.9,71.3z"
	/>
<path class="st4" d="M178.9,65.9c-0.8-1-2-1.1-3.2-1c-0.1,0-0.1,0.1,0,0.1c0.6,0,1.2,0.1,1.7,0.3c0.5,0.3,1,0.7,1.3,1.2
	c0.6,0.9,0.5,2.1,0.3,3.1c-0.4,2-1.5,3.8-3.1,5c0,0,0,0.1,0,0c0.9-0.6,1.7-1.4,2.3-2.4c0.6-0.9,1-2,1.2-3.1
	C179.6,68.1,179.6,66.8,178.9,65.9z"/>
<path class="st4" d="M168.7,62.8c-0.5-0.8-1.3-1.4-2.2-1.6c-1.1-0.3-2.3-0.1-3.3,0.4c-0.4,0.2-0.7,0.6-1,1c-0.2,0.4-0.4,0.8-0.4,1.3
	c0,1.1,0.4,2.1,1.1,2.9c0,0,0.1,0,0,0c-0.6-0.8-0.9-1.7-0.9-2.7c0-0.5,0.1-0.9,0.4-1.3c0.2-0.4,0.6-0.7,1-0.9
	C165.1,61.2,167.5,61.2,168.7,62.8C168.7,62.9,168.7,62.9,168.7,62.8z"/>
<path class="st11" d="M175,74.9c0,0,1.9-3,3.2-2.3s0,4.9-1.5,5.5c-0.2,0.1-0.4,0.2-0.6,0.2c-0.2,0-0.4,0-0.6-0.1
	c-0.2-0.1-0.4-0.2-0.5-0.3c-0.2-0.1-0.3-0.3-0.4-0.5L175,74.9z"/>
<path class="st4" d="M177.8,73.8C177.8,73.8,177.9,73.8,177.8,73.8c-0.5,0.3-0.9,0.7-1.2,1.1c-0.3,0.4-0.6,0.9-0.7,1.5
	c0.1-0.1,0.1-0.2,0.2-0.3c0.1-0.1,0.2-0.1,0.3-0.2s0.2,0,0.4,0c0.1,0,0.2,0.1,0.3,0.2v0.1c-0.2-0.1-0.4,0-0.6,0
	c-0.2,0.1-0.3,0.2-0.5,0.4c-0.2,0.3-0.3,0.6-0.5,0.9c0,0.1-0.2,0.1-0.2-0.1C175.4,76,176.4,74,177.8,73.8z"/>
<path class="st4" d="M89,105.9l-4.2-0.1c-1.1-2.4-1.4-5.1-0.9-7.7c0.1-0.6-1.5,2.8-1.2,7.6c-4.4-0.1-10.4-0.3-15.6-0.5
	c0-2-0.1-3.9-0.1-3.9c-0.2,1.3-0.6,2.6-1,3.9l-2.1-0.1c0.2-2.9,0.2-5.8,0-8.7c-0.5,3-1.6,5.9-3,8.6c-3.3-0.2-5.5-0.3-5.3-0.5
	c5.3-5.5,1.8-9,3.5-13.9c2-6,7.3-6.7,7.3-11.2c0.1-3.7-0.1-10.4,4.7-11.6c1.3-1.2,3-1.9,4.7-2.2c1.8-0.2,3.5,0,5.1,0.8
	c7.3,3.2,3.8,14.5,4.1,16.8c0.6,3.4,2.1,4.6,3.1,8.4c1,3.8-0.9,6.3-1.2,8.9C86.7,103.1,89.8,105.9,89,105.9z"/>
<path class="st4" d="M55.6,103.8c0.7-1,1.3-2,1.8-3.2c0.4-1.1,0.4-2.3,0.2-3.5c-0.2-1.2-0.3-2.4-0.4-3.7c-0.1-1.3,0.1-2.6,0.6-3.8
	c0.5-1.2,1.2-2.3,2.2-3.2c0.9-0.8,1.9-1.6,3-2.3c1-0.6,1.9-1.4,2.7-2.3c0.8-0.9,1.3-2,1.5-3.2c0,1.3-0.4,2.5-1.1,3.5
	c-0.8,1-1.7,1.9-2.7,2.6c-1,0.7-1.9,1.5-2.8,2.3c-0.8,0.8-1.5,1.8-1.9,2.9c-0.4,1.1-0.6,2.3-0.5,3.4c0,1.2,0.2,2.4,0.3,3.6
	c0,0.6,0,1.3,0,1.9c-0.1,0.6-0.2,1.3-0.5,1.9C57.2,101.9,56.5,102.9,55.6,103.8z"/>
<path class="st4" d="M85,70.8c0.4,1.5,0.7,2.9,0.8,4.5c0.1,1.5,0.2,3,0.2,4.5l0,2.3c0,0.7,0.1,1.4,0.2,2.2c0.4,1.4,1,2.7,1.8,3.9
	c0.4,0.7,0.8,1.3,1.1,2c0.3,0.7,0.6,1.5,0.7,2.3c0.1,0.8,0.2,1.5,0.2,2.3c0,0.8-0.1,1.6-0.2,2.3c-0.2,0.8-0.4,1.5-0.6,2.2
	c-0.2,0.7-0.4,1.4-0.5,2.1c-0.1,0.7,0.1,1.5,0.3,2.1c0.3,0.7,0.7,1.3,1.3,1.8c-0.6-0.4-1.2-1-1.5-1.7c-0.4-0.7-0.6-1.5-0.6-2.2
	c0-0.8,0.1-1.5,0.3-2.3c0.2-0.8,0.4-1.5,0.5-2.2c0.2-1.4,0.2-2.9-0.1-4.3c-0.2-0.7-0.4-1.4-0.7-2c-0.3-0.7-0.7-1.3-1.1-1.9
	c-0.4-0.6-0.8-1.3-1.1-2c-0.3-0.7-0.6-1.5-0.8-2.2c-0.1-0.8-0.2-1.6-0.2-2.3c0-0.8,0-1.5,0-2.3c0-1.5,0.1-3,0.1-4.5
	C85.3,73.8,85.2,72.3,85,70.8z"/>
<path class="st14" d="M69.1,91.4c-8.4,5.4-23.3,21.1-21.9,25.2c2.8,8.2,13.9,19.1,16.8,21.2c1.7,1.2,14-10,12.4-11.5
	c-1.9-1.8-13.5-11.5-13.6-12.5c-0.1-0.8,5.8-9.4,10-16.7C77.8,88.7,73.1,88.9,69.1,91.4z"/>
<path class="st14" d="M61.5,134.3c1,2.1,2.2,4.1,3.5,6c1.1,1.5,4.3,5.7,6,4.7c1.2-0.7-0.4-3.4-1.5-5.3c-0.6-1-0.9-2.7-0.2-3.1
	c1.2-0.6,2.6,2.1,3.4,4c1.5,3.8,3,9.6,5.8,9.5c1.1,0,1.1-1.6,0.7-3.4c0.9,2.5,2.1,4.9,3.3,4.9c0.7,0,1-0.4,1.2-1.1
	c0.1,0.3,0.4,0.5,0.6,0.7c0.3,0.2,0.6,0.2,0.9,0.2c1-0.2,1.5-1.3,1.5-2.7c0.1,0.1,0.3,0.1,0.4,0.1c0.1,0,0.3,0,0.4-0.1
	c2.7-0.9,0.7-11-1-13.2c-5.1-6.3-12.1-10.9-12.1-10.9C70.4,124.8,61.4,134.3,61.5,134.3z"/>
<path class="st4" d="M75.1,135.7c1.3,1.4,2.3,3,2.9,4.8c0.7,2.1,0.8,4.4,1.2,6.6c0,0,0,0,0,0c0,0,0,0,0,0c0,0,0,0,0,0c0,0,0,0,0,0
	c-0.2-1.1-0.5-2.1-0.7-3.2c-0.2-1.1-0.4-2.1-0.7-3.1C77.3,138.9,76.3,137.2,75.1,135.7C75.1,135.7,75.1,135.7,75.1,135.7z"/>
<path class="st4" d="M78.3,134c1.4,1.7,2.5,3.5,3.5,5.4c1,2.1,1.2,4.5,1.5,6.9c0.1,1.4,0.3,2.8,0.3,4.2c0,0.1-0.1,0.1-0.1,0
	c-0.2-2.4-0.5-4.8-0.9-7.1c-0.3-2.2-1.1-4.3-2.2-6.2C79.8,136,79,135,78.3,134C78.3,134,78.3,133.9,78.3,134z"/>
<path class="st4" d="M81.9,133c1.3,1.6,2.5,2.9,3.2,4.9c0.8,2.3,1.2,4.6,1.4,7c0.1,1.3,0.2,2.6,0.2,3.9c0,0.1-0.1,0.1-0.1,0
	c-0.2-2.9-0.5-5.7-1.1-8.6c-0.2-1.4-0.7-2.7-1.3-3.9C83.6,135.2,82.8,134.1,81.9,133C81.9,133,81.9,133,81.9,133z"/>
<path class="st5" d="M73.6,123.6l-12.1,14c0,0-15.5-16.4-14.9-21.9c0.6-5.6,14.1-19.4,21.6-24.1c7.5-4.7,8.4-0.4,5.3,5.6
	c-3.1,6-10.1,16.7-10,16.9C63.6,114.4,73.6,123.6,73.6,123.6z"/>
<path class="st7" d="M73.4,97.2c-3.1,6-10.1,16.7-10,16.9c0.2,0.3,10.1,9.5,10.1,9.5l-12.1,14c0,0-7.5-7.9-11.9-14.7l20-32.2
	C75.7,87.4,76.3,91.6,73.4,97.2z"/>
<path class="st4" d="M65.1,128.1c0.9-0.9,1.7-1.9,2.6-2.8c0.4-0.5,0.8-0.9,1.2-1.4c0.4-0.5,0.9-1,1.3-1.5c0,0,0,0,0,0c0,0,0,0,0,0
	c0,0,0,0,0,0c0,0,0,0,0,0c-0.5,0.4-1,0.9-1.4,1.4c-0.5,0.4-0.9,0.9-1.3,1.3c-0.9,0.9-1.8,1.8-2.7,2.7c-1.7,1.8-3.4,3.7-5.1,5.6
	c0,0,0,0,0,0c0,0,0,0,0,0c0,0,0,0,0,0c0,0,0,0,0,0C61.5,131.7,63.3,129.9,65.1,128.1z"/>
<path class="st14" d="M115.9,272.5c-1.3,0.4-38.4-0.9-39.8-1.8c-0.5-0.4-0.7-5.8-0.6-12.3v-0.2c0-1.3,0-2.7,0-4.1c0-0.2,0-0.4,0-0.6
	c0.1-9.4,0.5-19.2,0.5-19.2l24.5,0.6L99.8,254l0,0.8l-0.2,3.9v0.4c0,0,14,6.8,15.4,8C116.3,268.3,117.3,272.1,115.9,272.5z"/>
<path class="st15" d="M105.6,261.7c-0.1,0-0.1-0.1-0.1-0.1L105.6,261.7z"/>
<path class="st4" d="M75.6,261.6c0,5,0.2,8.8,0.6,9.1c1.4,0.9,38.4,2.2,39.8,1.8c1.3-0.4,0.3-4.1-1.1-5.3c-0.6-0.5-3.6-2.1-6.7-3.7
	C111.6,266.2,110.9,269,75.6,261.6z"/>
<path class="st8" d="M62.5,126.3c0,0,12.9,64.8,13.8,69.6c0.2,0.8-3.4,61.3-3.4,61.3l28.5,0.7c0,0,0.4-55.9-0.5-63.2
	c-1.2-9.6-15.8-68.4-15.8-68.4L62.5,126.3z"/>
<path class="st4" d="M75.2,251.1c4.1,0.1,2.9,0,7,0.1c2,0,15.1,0.4,17,0.8c0,0,0,0.1,0,0.1c-1.9,0.2-15-0.3-17-0.4
	c-4.1-0.2-2.9-0.2-7-0.4c0,0,0,0,0,0c0,0,0,0,0,0C75.2,251.2,75.1,251.2,75.2,251.1C75.1,251.2,75.1,251.2,75.2,251.1
	C75.1,251.2,75.1,251.2,75.2,251.1C75.1,251.1,75.2,251.1,75.2,251.1C75.2,251.1,75.2,251.1,75.2,251.1
	C75.2,251.1,75.2,251.1,75.2,251.1z"/>
<path class="st4" d="M79.7,196.1c-0.3-3.6-1.1-7.1-1.8-10.6c-0.7-3.5-1.4-7.2-2.1-10.8c-1.4-7.1-2.7-14.3-4-21.4
	c-1.5-8.1-3.8-15.9-5.4-24c0-0.2-0.3-0.1-0.3,0.1c2.5,14.3,5.9,28.4,8.6,42.6l2.1,10.8c0.7,3.5,1.4,7,2,10.5
	c0.3,1.8,0.4,3.7,0.4,5.5c0,1.7-1.5,45.5-1.7,49.6c0,0.1,0.1,0.1,0.1,0C78.5,241.3,80,199.6,79.7,196.1z"/>
<path class="st4" d="M82.5,126.3l-8,59.7c-3.8-19.4-11.9-59.7-11.9-59.7H82.5z"/>
<path class="st14" d="M72.9,274.1c-1.3,0.3-38.3-2.8-39.6-3.8c-0.5-0.4-0.4-5.8,0-12.3c0-0.1,4.9-24.1,4.9-24.1l24.7,2l-5.8,24
	c0,0,13.6,7.5,14.9,8.8C73.4,270,74.2,273.8,72.9,274.1z"/>
<path class="st4" d="M33.3,270.3c1.3,1,38.3,4.1,39.6,3.8c1.3-0.3,0.5-4.1-0.8-5.4c-0.7-0.7-5.1-3.2-9-5.4c4.6,3.1,10.5,8.7-30-1.6
	C32.9,266.4,32.8,270,33.3,270.3z"/>
<path class="st15" d="M63.1,262.8c-0.1,0-0.1-0.1-0.1-0.1L63.1,262.8z"/>
<path class="st8" d="M59,258.9l-27.2-3.2c0,0,14-54,14.6-56.3c1-3.5,3.1-31.8,5.3-49.3c0,0-4-9.5,3.5-23.8h30c0,0-2,13.6-5.4,22.3
	c0,0,0.6-0.5-3.4,1.7c0,0-2.5,44.5-4.3,52.9C70.5,210.1,59,258.9,59,258.9z"/>
<path class="st4" d="M34.5,250.2c4.1,0.4,2.9,0.2,7,0.6c2,0.2,15,1.6,16.9,2.1c0,0,0,0.1,0,0.1c-1.9,0.1-14.9-1.5-16.9-1.7
	c-4-0.5-2.9-0.4-6.9-0.9c0,0,0,0,0,0c0,0,0,0,0,0C34.4,250.3,34.4,250.3,34.5,250.2C34.4,250.3,34.4,250.3,34.5,250.2
	C34.4,250.3,34.4,250.2,34.5,250.2C34.4,250.2,34.4,250.2,34.5,250.2C34.4,250.2,34.4,250.2,34.5,250.2
	C34.4,250.2,34.5,250.2,34.5,250.2z"/>
<path class="st4" d="M80.9,147.9c-2.7,1-5.3,2.2-7.8,3.6c0,0,0,0,0,0.1c0,0,0,0,0,0.1c0,0,0,0,0,0c0,0,0,0,0.1,0
	c2.6-1.1,5.3-2.2,7.9-3.5c0,0,0-0.1,0.1-0.1c0,0,0-0.1,0-0.1c0,0,0-0.1-0.1-0.1C80.9,148,80.9,147.9,80.9,147.9z"/>
<path class="st4" d="M81.7,129.9c0-0.1-0.2-0.1-0.2,0c0,2.9-0.1,5.9-0.4,8.8c-0.1,1.4-1.2,8.9-3.6,8.3c-0.4-0.1-0.6-0.5-0.7-1.1
	c0-0.8,0.1-1.5,0.3-2.3c0.3-1.6,0.5-3.1,0.6-4.7c0.3-2.9,0.2-5.9-0.1-8.9c0,0,0,0,0,0c0,0,0,0,0,0c0,0,0,0,0,0c0,0,0,0,0,0
	c0.1,4.1-0.1,8.2-0.7,12.2c-0.3,1.9-1.3,4.9,0.8,5.2c2,0.3,3.4-4.6,3.7-6C81.9,137.6,82.1,133.8,81.7,129.9z"/>
<path class="st4" d="M77.6,147.2c-0.2,0.5-0.4,1-0.5,1.5c-0.2,0.4-0.2,0.9-0.2,1.3c0,0.1,0.1,0.1,0.2,0c0.2-0.4,0.4-0.8,0.5-1.2
	c0.2-0.5,0.4-1,0.5-1.4c0-0.1,0-0.1,0-0.2c0-0.1-0.1-0.1-0.1-0.1c-0.1,0-0.1,0-0.2,0C77.7,147.1,77.6,147.1,77.6,147.2z"/>
<path class="st4" d="M57.1,127.7c-1.7,2.8-2.8,5.9-3.3,9.1c-0.5,3.2-0.4,6.5,0.3,9.7c0.4,1.9,0.6,3.8,0.4,5.7
	c-0.1,2-0.4,3.9-0.6,5.8l-1.3,11.4c-0.8,7.6-2.4,19.4-3.4,27c-0.5,3.7-10.9,50.6-11.2,51.5c0,0,0,0,0,0c0,0,0,0,0,0c0,0,0,0,0,0
	c0,0,0,0,0,0c2.5-7.2,10.6-45.3,11.8-52.6c0.6-3.7,1-7.5,1.4-11.3c0.4-3.8,0.9-7.6,1.3-11.4c0.4-3.8,0.9-7.6,1.3-11.3
	c0.2-1.9,0.4-3.8,0.6-5.7c0.3-1.8,0.4-3.7,0.4-5.5c-0.1-1.8-0.4-3.6-0.8-5.4c-0.3-1.7-0.4-3.3-0.3-5c0.1-3.3,0.9-6.6,2.3-9.7
	c0.3-0.8,0.5-1.5,0.9-2.2C57.4,127.6,57.2,127.5,57.1,127.7z"/>
<path class="st4" d="M66,129c-0.5,1.3-1,2.5-1.6,3.7c-0.5,1.1-1.1,2.2-2,3c-0.9,0.7-1.9,1.3-3,1.5c-0.6,0.2-1.3,0.3-2,0.4
	c-0.7,0.1-1.3,0.2-2,0.4c0,0-0.1,0-0.1,0c0,0,0,0.1,0,0.1s0,0.1,0,0.1c0,0,0,0,0.1,0c0.7,0.1,1.4,0.1,2.2,0.1c0.7,0,1.4-0.1,2.1-0.3
	c1.2-0.3,2.4-0.9,3.3-1.7c0.9-0.9,1.6-2.1,2-3.3c0.5-1.3,0.9-2.7,1.2-4.1C66.2,128.9,66,128.9,66,129z"/>
<path class="st4" d="M76.3,150.3c0-0.1-0.2-0.1-0.2,0c-0.2,1-0.6,5.3-0.7,6.4c-0.2,2.2-0.4,4.3-0.5,6.5c-0.3,4.3-0.9,19.9-1,21.1
	c0,0.1,0.1,0.1,0.1,0c0.1-1.1,0.8-11.6,1-13.8c0.3-4.3,0.7-8.6,0.9-13C76.1,156.4,76.4,151.5,76.3,150.3z"/>
<path class="st4" d="M79.7,148.5C79.8,148.5,79.7,148.5,79.7,148.5C79.7,148.5,79.7,148.5,79.7,148.5z M80.9,147.9
	c-2.7,1-5.3,2.2-7.8,3.6c0,0,0,0,0,0.1c0,0,0,0,0,0.1c0,0,0,0,0,0c0,0,0,0,0.1,0c2.6-1.1,5.3-2.2,7.9-3.5c0,0,0-0.1,0.1-0.1
	c0,0,0-0.1,0-0.1c0,0,0-0.1-0.1-0.1C80.9,148,80.9,147.9,80.9,147.9z M81.7,129.9c0-0.1-0.2-0.1-0.2,0c0,2.9-0.1,5.9-0.4,8.8
	c-0.1,1.4-1.2,8.9-3.6,8.3c-0.4-0.1-0.6-0.5-0.7-1.1c0-0.8,0.1-1.5,0.3-2.3c0.3-1.6,0.5-3.1,0.6-4.7c0.3-2.9,0.2-5.9-0.1-8.9
	c0,0,0,0,0,0c0,0,0,0,0,0s0,0,0,0c0,0,0,0,0,0c0.1,4.1-0.1,8.2-0.7,12.2c-0.3,1.9-1.3,4.9,0.8,5.2c2,0.3,3.4-4.6,3.7-6
	C81.9,137.6,82.1,133.8,81.7,129.9z M77.6,147.2c-0.2,0.5-0.4,1-0.5,1.5c-0.1,0.4-0.2,0.9-0.2,1.3c0,0.1,0.1,0.1,0.2,0
	c0.2-0.4,0.4-0.8,0.5-1.2c0.2-0.5,0.4-1,0.5-1.4c0-0.1,0-0.1,0-0.2c0-0.1-0.1-0.1-0.1-0.1c-0.1,0-0.1,0-0.2,0
	C77.7,147.1,77.6,147.1,77.6,147.2L77.6,147.2z M66,129c-0.5,1.3-1,2.5-1.6,3.7c-0.5,1.1-1.1,2.2-2,3c-0.9,0.7-1.9,1.3-3,1.5
	c-0.6,0.2-1.3,0.3-2,0.4c-0.7,0.1-1.3,0.2-2,0.4c0,0-0.1,0-0.1,0s0,0.1,0,0.1s0,0.1,0,0.1c0,0,0,0,0.1,0c0.7,0.1,1.4,0.1,2.2,0.1
	c0.7,0,1.4-0.1,2.1-0.3c1.2-0.3,2.4-0.9,3.3-1.7c0.9-0.9,1.6-2.1,2-3.3c0.5-1.3,0.9-2.7,1.2-4.1C66.2,128.9,66,128.9,66,129L66,129z
	 M76.3,150.3c0-0.1-0.2-0.1-0.2,0c-0.2,1-0.6,5.3-0.7,6.4c-0.2,2.2-0.4,4.3-0.5,6.5c-0.3,4.3-0.9,19.9-1,21.1c0,0.1,0.1,0.1,0.1,0
	c0.1-1.1,0.8-11.6,1-13.8c0.3-4.3,0.7-8.6,0.9-13C76.1,156.4,76.4,151.5,76.3,150.3L76.3,150.3z"/>
<path class="st5" d="M84.9,116.7l0.4,9.5H55.1c0,0,4.2-25.1,12.5-33.8c4.1-4.3,8.9-3.9,11.9-0.8c0.8,0.8,7.4,11.1,8.3,15.7
	C88.6,111.6,84.9,116.7,84.9,116.7z"/>
<path class="st4" d="M76.5,92.9c1,2,1.9,4,2.8,6c0.9,2,1.7,4.1,2.5,6.2c0.4,1,0.7,2.1,0.9,3.2c0.1,0.6,0.2,1.1,0.2,1.7
	c0,0.6-0.1,1.1-0.2,1.7c-0.2,1.1-0.6,2.2-1.1,3.2c-0.5,1-1.1,2-1.8,2.9l0.1-0.2c0,1.4-0.1,2.8-0.2,4.2c-0.1,1.4-0.2,2.8-0.3,4.2
	c0-1.4-0.1-2.8-0.1-4.2c0-1.4,0-2.8,0-4.2v-0.1l0.1-0.1c1.3-1.7,2.2-3.7,2.7-5.8c0.5-2.1-0.2-4.2-0.9-6.3s-1.5-4.1-2.3-6.2
	C78.2,97,77.4,94.9,76.5,92.9z"/>
<path class="st4" d="M82.6,101.7c0,0.1,0,0.3-0.1,0.4c-0.1,0.1-0.2,0.2-0.3,0.2c-0.1,0-0.1,0-0.2,0c-0.1,0-0.1-0.1-0.2-0.1
	c0,0-0.1-0.1-0.1-0.2s0-0.1,0-0.2c0-0.1,0-0.3,0.1-0.4c0.1-0.1,0.2-0.2,0.3-0.2c0.1,0,0.1,0,0.2,0c0.1,0,0.1,0.1,0.2,0.1
	c0,0,0.1,0.1,0.1,0.2C82.6,101.6,82.6,101.7,82.6,101.7z"/>
<path class="st4" d="M84.3,107.6c0,0.1,0,0.3-0.1,0.4c-0.1,0.1-0.2,0.2-0.3,0.2c-0.1,0-0.1,0-0.2,0c-0.1,0-0.1-0.1-0.2-0.1
	c0,0-0.1-0.1-0.1-0.2c0-0.1,0-0.1,0-0.2c0-0.1,0-0.3,0.1-0.4c0.1-0.1,0.2-0.2,0.3-0.2c0.1,0,0.1,0,0.2,0c0.1,0,0.1,0.1,0.2,0.1
	c0,0,0.1,0.1,0.1,0.2C84.3,107.5,84.3,107.5,84.3,107.6z"/>
<path class="st4" d="M83.8,113.5c0,0.1,0,0.3-0.1,0.4c-0.1,0.1-0.2,0.2-0.3,0.2c-0.1,0-0.1,0-0.2,0c-0.1,0-0.1-0.1-0.2-0.1
	c0,0-0.1-0.1-0.1-0.2c0-0.1,0-0.1,0-0.2c0-0.1,0-0.3,0.1-0.4c0.1-0.1,0.2-0.2,0.3-0.2c0.1,0,0.1,0,0.2,0c0.1,0,0.1,0.1,0.2,0.1
	c0,0,0.1,0.1,0.1,0.2C83.8,113.3,83.8,113.4,83.8,113.5z"/>
<path class="st4" d="M81.6,118.1c0,0.1,0,0.3-0.1,0.4c-0.1,0.1-0.2,0.2-0.3,0.2c-0.1,0-0.1,0-0.2,0c-0.1,0-0.1-0.1-0.2-0.1
	c0,0-0.1-0.1-0.1-0.2c0-0.1,0-0.1,0-0.2c0-0.1,0-0.3,0.1-0.4c0.1-0.1,0.2-0.2,0.3-0.2c0.1,0,0.1,0,0.2,0s0.1,0.1,0.2,0.1
	c0,0,0.1,0.1,0.1,0.2C81.6,118,81.6,118,81.6,118.1z"/>
<path class="st4" d="M81.6,123.5c0,0.1,0,0.3-0.1,0.4c-0.1,0.1-0.2,0.2-0.3,0.2c-0.1,0-0.1,0-0.2,0s-0.1-0.1-0.2-0.1
	c0,0-0.1-0.1-0.1-0.2c0-0.1,0-0.1,0-0.2c0-0.1,0-0.3,0.1-0.4c0.1-0.1,0.2-0.2,0.3-0.2c0.1,0,0.1,0,0.2,0s0.1,0.1,0.2,0.1
	c0,0,0.1,0.1,0.1,0.2C81.6,123.3,81.6,123.4,81.6,123.5z"/>
<path class="st14" d="M72.6,90.7c0.2,0.6,3.1,4.4,5.8,4.2c0.9-0.1,0.8-4.9,0.8-4.9l0.1-0.4l1-5.1l-6-3.6l-0.9-0.5
	c0,0-0.2,1.4-0.4,3.2l0,0.2c0,0.1,0,0.2,0,0.3c0,0.3-0.1,0.5-0.1,0.8c0,0.3,0,0.4-0.1,0.6c0,0.2,0,0.4-0.1,0.6
	C72.5,87.7,72.5,89.2,72.6,90.7z"/>
<path class="st4" d="M73,83.6c0.5,1.4,1.4,2.7,2.5,3.7c1.1,1,2.4,1.8,3.8,2.3l1-5.1l-6-3.6l-0.9-0.5C73.4,80.5,73.2,81.8,73,83.6z"
	/>
<path class="st14" d="M87.6,77.3c0.7,9-4.7,10.4-6.6,10.6c-1.8,0.1-7.8,0.3-9.4-8.6S74,67.2,78,66.7C82,66.2,86.9,68.2,87.6,77.3z"
	/>
<path class="st4" d="M86.2,75.6c-0.2,0-0.4-0.1-0.6-0.1c-0.2,0-0.4-0.1-0.6-0.2c0-0.1-0.1-0.1-0.1-0.2c0-0.1,0-0.1,0.1-0.2
	c0.1-0.1,0.2-0.2,0.4-0.2c0.1,0,0.3,0,0.4,0c0.3,0,0.6,0.1,0.8,0.4c0,0.1,0.1,0.1,0.1,0.2c0,0.1,0,0.1,0,0.2c0,0.1-0.1,0.1-0.1,0.1
	C86.4,75.6,86.3,75.7,86.2,75.6z"/>
<path class="st4" d="M80.1,75.9c0.2,0,0.4-0.1,0.6-0.2c0.2,0,0.4-0.1,0.6-0.3c0-0.1,0.1-0.1,0.1-0.2c0-0.1,0-0.1-0.1-0.2
	c-0.1-0.1-0.2-0.1-0.4-0.2c-0.1,0-0.3,0-0.4,0c-0.3,0.1-0.5,0.2-0.7,0.5c0,0.1-0.1,0.1,0,0.2c0,0.1,0,0.1,0.1,0.2
	c0,0.1,0.1,0.1,0.1,0.1C80,75.9,80.1,75.9,80.1,75.9z"/>
<path class="st4" d="M81.6,77.6C81.6,77.6,81.6,77.6,81.6,77.6c0,0.7,0,1.4-0.5,1.7c0,0,0,0,0,0C81.8,79.1,81.8,78.1,81.6,77.6z"/>
<path class="st4" d="M81,77c-1,0-0.9,2,0.1,2C82,78.9,81.8,76.9,81,77z"/>
<path class="st4" d="M80.6,77.1c-0.2,0.1-0.3,0.3-0.5,0.4c-0.2,0-0.4-0.2-0.6-0.4c0,0,0,0,0,0c0,0.4,0.2,0.8,0.6,0.8
	c0.4,0,0.6-0.3,0.7-0.7C80.7,77.1,80.7,77.1,80.6,77.1z"/>
<path class="st4" d="M85,77C85,77,85.1,77.1,85,77c0,0.7,0.2,1.4,0.8,1.6v0C85.1,78.6,85,77.6,85,77z"/>
<path class="st4" d="M85.6,76.4c1-0.1,1.2,1.9,0.3,2C84.9,78.5,84.7,76.5,85.6,76.4z"/>
<path class="st4" d="M86,76.4c0.2,0.1,0.3,0.3,0.5,0.3c0.2,0,0.4-0.2,0.5-0.5c0,0,0,0,0,0c0,0.4,0,0.8-0.4,0.9
	c-0.4,0.1-0.6-0.2-0.7-0.6C85.9,76.5,85.9,76.4,86,76.4z"/>
<path class="st4" d="M84.4,80.4c0,0,0.2,0.9,0.2,1.4c0,0-0.1,0.1-0.2,0.1c-0.4,0.1-0.8,0.1-1.1,0c-0.4-0.1-0.7-0.3-1-0.6
	c0,0,0-0.1,0.1-0.1c0.6,0.3,1.3,0.5,1.9,0.4c0-0.1-0.4-1.6-0.3-1.6c0.3,0,0.7,0.1,1,0.2c-0.4-1.9-1-3.8-1.4-5.7c0,0,0,0,0,0
	c0,0,0,0,0,0c0,0,0,0,0,0c0,0,0,0,0,0c0.8,2,1.4,4,1.7,6C85.5,80.7,84.5,80.5,84.4,80.4z"/>
<path class="st4" d="M71.7,79.9c0.6-0.3,1.1-0.7,1.5-1.2c0.4-0.5,0.6-1.1,0.7-1.8c1.6-0.6,3-1.7,4.1-3c-0.1,0.2-0.6,1.5-0.8,2.2
	c5.8-0.9,7.7-5.2,7.7-5.2c1.1,1,1.9,2.3,2.4,3.7c0,0,0.2-3.5-1.6-5.9c-0.6-0.8-1.3-1.5-2.2-2c-0.9-0.4-1.9-0.6-2.9-0.6
	c-1.4-0.4-2.9-0.4-4.3,0c-1.4,0.4-2.7,1.1-3.7,2.2C68.6,72.3,71.7,79.9,71.7,79.9z"/>
<path class="st4" d="M81.5,75.3c-0.9,0.5-1.9,0.8-3,1c1.6-0.4,3.1-1.2,4.3-2.4c0.5-0.5,0.9-1.1,1.3-1.7c0.4-0.7,0.7-1.4,0.8-2.2
	c0-0.1,0.1,0,0.1,0c0,0.8-0.2,1.5-0.5,2.2c-0.3,0.7-0.8,1.3-1.3,1.9C82.7,74.6,82.2,75,81.5,75.3"/>
<path class="st14" d="M73.3,79.2c0,0-1.9-2.8-3.2-2.2c-1.3,0.7,0.1,4.8,1.6,5.4c0.2,0.1,0.4,0.1,0.6,0.1c0.2,0,0.4,0,0.6-0.1
	c0.2-0.1,0.4-0.2,0.5-0.3c0.1-0.1,0.3-0.3,0.3-0.5L73.3,79.2z"/>
<path class="st3" d="M72.7,82.1c0,0.1,0,0.2-0.1,0.2c0,0.1-0.1,0.1-0.2,0.1s-0.2,0-0.2,0c-0.1,0-0.1-0.1-0.2-0.1
	c-0.1-0.1-0.1-0.1-0.1-0.2c0-0.1,0-0.2,0-0.2s0.1-0.1,0.2-0.2c0.1,0,0.1-0.1,0.2,0c0.1,0,0.2,0.1,0.3,0.1
	C72.6,81.9,72.7,82,72.7,82.1z"/>
<path class="st0" d="M79.2,90.5l-1.8,4.1l-5-5.3l-1.5,1.7c0,0,4.8,8.4,4.9,8l1.8-3.5l2.4,2.5L80,91.7L79.2,90.5z"/>
<path class="st4" d="M80.2,94.8c0-1-0.1-2.1-0.2-3.1c0,0-0.1-0.1-0.1,0c-0.2,1,0,4.9,0,5.9c-0.1-0.1-2.2-2.2-2.3-2.2
	c-0.4,0.6-1.7,3.1-1.8,3.4c-0.8-1.3-3.7-6.2-4.6-7.5c0,0,0,0,0,0c0,0,0,0,0,0c0,0,0,0,0,0s0,0,0,0c0.7,1.4,4.6,7.9,4.6,7.9
	c0.7-1.2,1.3-2.5,1.9-3.7c0.8,1,1.6,1.9,2.5,2.7C80.2,97.1,80.2,96,80.2,94.8z"/>
<path class="st14" d="M66.9,100.8c2,12.2,4.3,27.2,7.6,29.8c5.1,4,19.7,7.6,25.1,8c2.3,0.2,6-17.2,3.6-17.4
	c-5.1-0.3-16.2-0.7-17.4-1.6c-1.2-0.9-6.8-12.1-11.3-20.9C69.2,88.3,65.8,93.8,66.9,100.8z"/>
<path class="st14" d="M100.2,121.1c0,0,6.8,0.2,11.2,0.9c2.4,0.4,6.6,1.7,8.2,2.8c2.5,1.6,11.8,10.1,9.8,12.4
	c-1.8,2.1-8.9-6.2-8.9-6.2s7.9,7.7,5.3,9.8c-2.6,2.1-9.4-8.3-9.4-8.3s8,8.1,4.9,9.9c-2.3,1.3-9-7.8-9-7.8s6.8,7,4.5,8.5
	c-2.6,1.6-9.3-6.4-9.3-6.4c-6.5,2.7-10.6,2.2-13.5,0.9C94,137.7,98,126,100.2,121.1z"/>
<path class="st4" d="M118,128.2c1,0.9,1.9,1.7,2.8,2.7c0.9,1,1.7,1.9,2.5,3c1.1,1.3,2,2.8,2.7,4.3c-1.5-2.6-4.6-6.1-5.5-7
	C119.7,130.2,118.8,129.2,118,128.2C117.9,128.2,118,128.2,118,128.2z"/>
<path class="st4" d="M114.5,131.3c1.6,0.9,5.1,4.6,6.7,7.3c0.1,0.1,0,0.1-0.1,0C120,137.4,115.6,132.6,114.5,131.3
	C114.4,131.4,114.5,131.3,114.5,131.3z"/>
<path class="st4" d="M111,133.5c2,1.6,3.7,3.5,5,5.8c0.1,0.1,0,0.1-0.1,0C114.2,137.3,113,135.8,111,133.5
	C110.9,133.5,110.9,133.5,111,133.5C110.9,133.5,110.9,133.5,111,133.5C110.9,133.5,111,133.5,111,133.5
	C111,133.5,111,133.5,111,133.5z"/>
<path class="st5" d="M99.4,120.6c0,0-6.2,18.8-6.4,18.5c-0.3-0.3-15.9-4.5-19.4-8.2c-3.4-3.8-6.7-25.5-7.1-31.9
	c-0.4-6.5,3.4-8.7,7.6-1.4c4.2,7.3,11.6,21.2,12.1,21.5C86.8,119.4,99.4,120.6,99.4,120.6z"/>
<path class="st4" d="M89.4,136.3c0.6-2,1.3-3.9,1.9-5.8c0.7-1.9,1.4-3.8,2.1-5.7c0.4-1.1,0.9-2.2,1.3-3.3c0,0,0.1,0,0.1,0
	c-0.7,1.9-1.3,3.9-2,5.8c-0.7,1.9-1.4,3.8-2.1,5.7C90.3,134.1,89.9,135.2,89.4,136.3C89.4,136.4,89.3,136.3,89.4,136.3z"/>
<path class="st4" d="M78.4,133.7c-1.7-0.7-3.2-1.7-4.5-3c-1.4-1.6-1.8-3.8-2.4-5.8c-1.2-4.4-2.1-8.8-3-13.2c-0.5-2.5-0.9-5-1.3-7.6
	c0,0,0,0,0,0c0.2,1.9,0.4,3.9,0.7,5.8c-0.3-1.1-0.5-2.1-0.8-3.2c0,0,0,0,0,0c0,0,0,0,0,0c0,0,0,0,0,0c0,0,0,0,0,0c0,0,0,0,0,0
	c0,0,0,0,0,0c0,0,0,0,0,0c0,0,0,0,0,0c0.3,1.4,0.6,2.7,1,4c0.4,2.4,0.8,4.8,1.3,7.1c0.5,2.3,1,4.5,1.6,6.8c0.3,1.1,0.6,2.2,0.9,3.3
	c0.3,0.9,0.7,1.8,1.3,2.5C74.5,132.2,76.5,132.9,78.4,133.7C78.4,133.8,78.4,133.7,78.4,133.7z"/>
<path class="st4" d="M91.9,119.7c-1.5-0.2-5.1-0.5-5.4-0.8c-0.3-0.3-0.5-0.6-0.7-1l-1.1-2c-1.4-2.6-2.9-5.2-4.4-7.8
	c-0.4-1-0.7-2-1.2-3c0,0-0.1,0-0.1,0c0.3,0.8,0.6,1.6,0.9,2.4c-0.9-1.5-1.8-2.9-2.7-4.4c0,0-0.1,0,0,0c1.5,2.9,3.1,5.8,4.7,8.7
	c0.8,1.4,1.6,2.9,2.4,4.3c0.4,0.7,0.8,1.4,1.2,2.2c0.1,0.3,0.3,0.5,0.5,0.7c0.2,0.2,0.5,0.3,0.7,0.4C87.6,119.5,91,119.8,91.9,119.7
	C92,119.8,92,119.8,91.9,119.7z"/>
<path class="st3" d="M214.1,55.8c-0.2,2.4-1.2,4.7-2.7,6.7c-1.5,1.9-3.5,3.4-5.8,4.3c-2.3,0.9-4.8,1.1-7.2,0.6
	c-2.4-0.5-4.6-1.6-6.4-3.2l-6.6,1l3.3-5.7c-0.8-1.8-1.1-3.8-0.9-5.8c0.1-2,0.7-3.9,1.7-5.7c1-1.7,2.4-3.2,4-4.3s3.5-1.9,5.5-2.1
	c2-0.3,4-0.1,5.9,0.5c1.9,0.6,3.6,1.6,5.1,3c1.4,1.4,2.5,3.1,3.2,5C214.1,51.8,214.3,53.8,214.1,55.8L214.1,55.8z"/>
<path class="st4" d="M214.1,55.8c-0.3,2.4-1.2,4.7-2.7,6.7c-0.4,0.5-0.8,0.9-1.2,1.4c-0.4,0.4-0.9,0.8-1.4,1.2c-1,0.7-2,1.3-3.2,1.8
	c-1.1,0.4-2.3,0.7-3.5,0.8c-0.6,0.1-1.2,0.1-1.8,0c-0.6,0-1.2-0.1-1.8-0.2c-2.4-0.4-4.7-1.6-6.5-3.2l0.2,0l-6.6,1.1l-0.5,0.1
	l0.2-0.4l3.3-5.7v0.2c-1-2.4-1.2-4.9-0.8-7.4c0.5-2.5,1.6-4.8,3.4-6.7c1.7-1.9,4-3.2,6.4-3.8c2.5-0.6,5.1-0.5,7.5,0.2
	c1.9,0.6,3.6,1.7,5.1,3.1c1.4,1.4,2.5,3.1,3.2,5C214.1,51.8,214.3,53.8,214.1,55.8z M214.1,55.8c0.3-3-0.4-6-2.1-8.5
	c-1.7-2.5-4.1-4.4-7-5.3c-1.9-0.6-3.9-0.7-5.9-0.4c-2,0.3-3.8,1-5.4,2.1c-1.6,1.1-2.9,2.6-3.9,4.3c-1,1.7-1.5,3.6-1.7,5.6
	c-0.1,2,0.2,3.9,0.9,5.7l0,0.1l-0.1,0.1l-3.3,5.7l-0.2-0.3l6.6-0.9h0.1l0.1,0.1c1.8,1.6,3.9,2.8,6.3,3.2c0.6,0.1,1.2,0.2,1.8,0.2
	c0.6,0,1.2,0,1.8,0c1.2-0.1,2.4-0.4,3.5-0.8c1.1-0.4,2.2-1,3.2-1.7c0.5-0.4,1-0.7,1.4-1.2c0.4-0.4,0.8-0.9,1.2-1.4
	C212.9,60.5,213.9,58.2,214.1,55.8z"/>
<path class="st5" d="M199.5,61.9l-5.6-5.7l1.9-1.9l3.3,3.3l6.8-10.7l2.2,1.4L199.5,61.9z"/>
</svg>
