<?xml version="1.0" encoding="UTF-8"?>
<svg id="Layer_1" data-name="Layer 1" xmlns="http://www.w3.org/2000/svg" width="244" height="278" viewBox="0 0 244 278">
  <defs>
    <style>
      .cls-1 {
        opacity: .88;
      }

      .cls-2 {
        fill: #ad6359;
      }

      .cls-2, .cls-3, .cls-4, .cls-5, .cls-6, .cls-7, .cls-8, .cls-9, .cls-10, .cls-11, .cls-12, .cls-13, .cls-14, .cls-15, .cls-16 {
        stroke-width: 0px;
      }

      .cls-3 {
        fill: #37474f;
      }

      .cls-4 {
        fill: #ff9bbc;
      }

      .cls-5 {
        fill: #eece93;
      }

      .cls-6 {
        fill: #c7c7c7;
      }

      .cls-7 {
        fill: #fb4a04;
      }

      .cls-8 {
        fill: #fff;
      }

      .cls-9 {
        fill: #c95f50;
      }

      .cls-10, .cls-15 {
        fill: #263238;
      }

      .cls-11 {
        fill: #a6a6a6;
      }

      .cls-12 {
        fill: #dbdbdb;
      }

      .cls-13 {
        fill: #ebebeb;
      }

      .cls-14 {
        fill: #455a64;
      }

      .cls-15, .cls-16 {
        isolation: isolate;
        opacity: .1;
      }
    </style>
  </defs>
  <path class="cls-13" d="M228.54,184.02l-7.94.17-4.03.07c-1.34.03-2.7,0-4.05.04h-.27v-.27l-.04-6.79v-.3h.3l8.01.04c2.67,0,5.34.07,8.01.1h.15v.17c0,1.15-.05,2.29-.08,3.42l-.07,3.36ZM228.54,184.02l-.08-3.42c-.03-1.12-.07-2.24-.08-3.35l.16.17c-2.67.03-5.34.1-8.01.1l-8.01.04.3-.3-.04,6.77-.27-.27c1.32,0,2.64,0,3.96.03l3.98.07,8.08.16Z"/>
  <path class="cls-13" d="M219.62,192.56l-7.94.17-4.03.07c-1.34,0-2.7,0-4.05.04h-.27v-.27l-.04-6.77v-.3h.3l8.01.04c2.67,0,5.34.07,8.01.1h.16v.16c0,1.15-.05,2.29-.08,3.42l-.07,3.35ZM219.62,192.56l-.08-3.42c-.03-1.12-.07-2.24-.09-3.35l.17.17c-2.67.03-5.34.1-8.01.1l-8.01.04.3-.3v6.77s-.28-.27-.28-.27c1.32,0,2.64,0,3.96.03l3.98.07,8.06.16Z"/>
  <path class="cls-13" d="M237.48,192.56l-7.94.17-4.03.07c-1.35,0-2.7,0-4.05.04h-.27v-.27l-.03-6.77v-.3h.3l8.01.04c2.67,0,5.34.07,8.01.1h.17v.16c0,1.15-.05,2.29-.08,3.42l-.1,3.35ZM237.48,192.56l-.08-3.42c-.03-1.12-.07-2.24-.08-3.35l.16.17c-2.67.03-5.34.1-8.01.1l-8.01.04.3-.3-.03,6.77-.27-.27c1.32,0,2.64,0,3.96.03l3.98.07,8.07.16Z"/>
  <path class="cls-13" d="M16.97,192.56l-7.94.17-4.03.07c-1.34,0-2.7,0-4.05.04h-.31v-7.34h.3l8.01.04c2.67,0,5.34.07,8.01.1h.16v.16c0,1.15-.05,2.29-.08,3.42l-.07,3.35ZM16.97,192.56l-.08-3.42c0-1.12-.07-2.24-.08-3.35l.16.17c-2.67.03-5.34.1-8.01.1l-8.01.04.3-.3-.04,6.77-.27-.27c1.32,0,2.64,0,3.96.03l3.98.07,8.08.16Z"/>
  <path class="cls-13" d="M34.81,192.56l-7.94.17-4.03.07c-1.35,0-2.7,0-4.05.04h-.27v-.27l-.04-6.77v-.3h.3l8.01.04c2.67,0,5.34.07,8.01.1h.17v.16c0,1.15-.05,2.29-.08,3.42l-.08,3.35ZM34.81,192.56l-.08-3.42c0-1.12-.07-2.24-.08-3.35l.16.17c-2.67.03-5.34.1-8.01.1l-8.01.04.3-.3-.03,6.77-.27-.27c1.32,0,2.64,0,3.96.03l3.98.07,8.08.16Z"/>
  <path class="cls-13" d="M144.54,131.46l-7.94.16-4.03.07h-4.3v-.27l-.04-6.77v-.31h.3l8.01.04c2.67,0,5.34.07,8.01.1h.17v.16c0,1.14-.05,2.29-.08,3.42l-.11,3.39ZM144.54,131.46l-.08-3.42c0-1.13-.07-2.24-.08-3.35l.16.16c-2.67,0-5.34.1-8.01.1l-8.01.04.3-.3-.03,6.77-.27-.27h3.96l3.98.07,8.08.2Z"/>
  <path class="cls-13" d="M135.61,139.99l-7.94.16-4.03.07c-1.35,0-2.7,0-4.05.03h-.27v-.27l-.04-6.77v-.31h.3l8.01.04c2.67,0,5.34.07,8.01.1h.17v.16c0,1.14-.05,2.29-.08,3.42l-.09,3.36ZM135.61,139.99l-.08-3.42c0-1.12-.07-2.24-.08-3.34l.16.16c-2.67.03-5.33.1-8.01.1l-8.01.04.3-.3v6.77l-.27-.27c1.32,0,2.64,0,3.96.03l3.98.07,8.04.17Z"/>
  <path class="cls-13" d="M153.48,139.99l-7.94.16-4.03.07c-1.35,0-2.7,0-4.05.03h-.27v-.27l-.03-6.77v-.31h.31l8.01.04c2.67,0,5.34.07,8.01.1h.16v.16c0,1.14-.05,2.29-.08,3.42l-.09,3.36ZM153.48,139.99l-.09-3.42c0-1.12-.07-2.24-.08-3.34l.17.16c-2.67.03-5.34.1-8.01.1l-8.01.04.3-.3-.04,6.77-.27-.27c1.32,0,2.63,0,3.96.03l3.98.07,8.08.17Z"/>
  <path class="cls-13" d="M227.62,37.73l-7.94.17-4.03.07c-1.34,0-2.7,0-4.05.04h-.27v-.27l-.03-6.77v-.3h.3l8.01.04c2.67,0,5.34.07,8.01.1h.16v.16c0,1.15-.05,2.29-.08,3.42l-.08,3.35ZM227.62,37.73l-.09-3.42c0-1.13-.07-2.24-.08-3.35l.16.16c-2.67,0-5.34.1-8.01.1l-8.01.04.3-.3-.04,6.77-.27-.27c1.32,0,2.64,0,3.96.04l3.98.07,8.08.17Z"/>
  <path class="cls-13" d="M236.55,46.27l-7.94.17-4.03.07c-1.34.03-2.7,0-4.05.03h-.27v-.27l-.05-6.76v-.3h.3l8.01.04c2.67,0,5.34.07,8.01.1h.17v.16c0,1.15-.05,2.29-.08,3.42l-.08,3.35ZM236.55,46.27l-.08-3.42c-.03-1.13-.07-2.24-.08-3.35l.16.16c-2.67.03-5.34.1-8.01.1l-8.01.04.3-.3v6.77s-.28-.27-.28-.27c1.32,0,2.64,0,3.96.04l3.98.07,8.06.17Z"/>
  <path class="cls-13" d="M17.87,37.74l-7.94.17-4.03.07c-1.34,0-2.7,0-4.05.04h-.27v-7.34h.27l8.01.04c2.67,0,5.34.07,8.01.1h.17v.16c0,1.15-.05,2.29-.08,3.42l-.09,3.35ZM17.87,37.74l-.08-3.42c0-1.13-.07-2.24-.08-3.35l.16.16c-2.67.04-5.34.1-8.01.1l-8.01.04.3-.3v6.77l-.3-.24h3.96l3.98.07,8.08.17Z"/>
  <path class="cls-13" d="M225.3,169.08h-47.44v65.65h47.44v-65.65Z"/>
  <path class="cls-12" d="M227.6,166.64h-52.03v2.44h52.03v-2.44Z"/>
  <path class="cls-13" d="M243.96,166.64h-16.36v2.44h16.36v-2.44Z"/>
  <path class="cls-12" d="M241.37,169.08h-16.07v65.65h16.07v-65.65Z"/>
  <path class="cls-6" d="M220.22,199.48h-37.27v-21.07h37.27v21.07ZM183.12,199.33h36.95v-20.77h-36.97v20.77Z"/>
  <path class="cls-6" d="M203.63,184.57h-7.25v4.17h7.25v-4.17Z"/>
  <path class="cls-6" d="M205.85,188.5h-7.4v-3.69h7.4v3.69ZM198.59,188.35h7.11v-3.39h-7.1v3.39Z"/>
  <path class="cls-6" d="M220.22,225.91h-37.27v-21.08h37.27v21.08ZM183.12,225.76h36.95v-20.77h-36.97v20.77Z"/>
  <path class="cls-6" d="M203.63,211h-7.25v4.17h7.25v-4.17Z"/>
  <path class="cls-6" d="M205.85,214.93h-7.4v-3.69h7.4v3.69ZM198.59,214.78h7.11v-3.39h-7.1v3.39Z"/>
  <path class="cls-13" d="M75.6,44.38h-33.14v40.2h33.14v-40.2Z"/>
  <path class="cls-8" d="M71.81,48.05h-25.57v32.86h25.57v-32.86Z"/>
  <path class="cls-12" d="M47.24,48.05h-1v32.86h1v-32.86Z"/>
  <path class="cls-12" d="M76.59,44.38h-1v40.2h1v-40.2Z"/>
  <path class="cls-12" d="M60.84,52.58h-6.03v17.96h6.03v-17.96Z"/>
  <path class="cls-13" d="M68.55,73.91h-16.68v-9.4h16.68v9.4ZM52.48,73.3h15.47v-8.19h-15.47v8.19Z"/>
  <path class="cls-13" d="M36.19,86.85H3.04v40.2h33.14v-40.2Z"/>
  <path class="cls-8" d="M32.4,90.52H6.83v32.86h25.57v-32.86Z"/>
  <path class="cls-12" d="M7.83,90.52h-1v32.86h1v-32.86Z"/>
  <path class="cls-12" d="M37.18,86.85h-1v40.2h1v-40.2Z"/>
  <path class="cls-13" d="M22.3,99.02h-5.17v13.06h5.17v-13.06Z"/>
  <path class="cls-12" d="M28.04,116.26h-14.48v-9.61h14.48v9.61ZM14.17,115.65h13.27v-8.4h-13.27v8.4Z"/>
  <path class="cls-13" d="M35.4,64.91c-.13-.2-.19-.44-.19-.68s.07-.48.19-.68l.2-.35c.07-.12.13-.23.18-.36.1-.22.26-.41.46-.54.2-.13.43-.21.67-.22l1.68-.05-.17-5.44-1.68.05c-.24,0-.48-.05-.68-.17-.21-.12-.38-.3-.49-.51-.13-.24-.27-.47-.43-.69-.14-.2-.22-.43-.24-.67-.01-.24.04-.48.15-.69l.79-1.47-4.84-2.58-.79,1.47c-.11.21-.27.38-.47.51-.2.12-.43.19-.66.19-.27-.02-.54-.02-.81,0-.24.02-.48-.03-.69-.13s-.39-.27-.52-.47l-.88-1.42-4.66,2.88.91,1.43c.12.2.19.44.19.67s-.07.47-.19.67l-.2.35-.18.36c-.1.22-.26.41-.46.54-.2.13-.43.21-.67.22l-1.68.05.17,5.44,1.68-.05c.24,0,.48.06.68.18.21.12.38.3.49.51.13.24.27.47.43.7.14.2.22.43.24.66.02.24-.03.48-.14.69l-.79,1.47,4.84,2.58.79-1.47c.12-.22.29-.4.51-.52.21-.12.46-.18.7-.16.27,0,.54,0,.81-.03.24-.02.48.03.69.13.21.11.39.27.52.47l.88,1.42,4.63-2.88-.96-1.4ZM26.79,63.54c-.78-.42-1.42-1.06-1.83-1.84-.42-.78-.59-1.67-.5-2.55.09-.88.44-1.71,1-2.4.56-.68,1.32-1.18,2.16-1.44.85-.25,1.75-.25,2.6,0,.85.26,1.6.76,2.15,1.45.56.69.9,1.52.98,2.4.08.88-.1,1.77-.52,2.54-.56,1.04-1.52,1.82-2.65,2.16-1.13.34-2.36.22-3.4-.34Z"/>
  <path class="cls-13" d="M18.92,41.79c-.14-.09-.26-.21-.34-.36-.08-.15-.12-.32-.11-.48v-.57c0-.17.03-.33.11-.48.08-.15.2-.27.34-.36l1.02-.6-1.91-3.31-1.02.6c-.15.08-.31.12-.48.12-.17,0-.33-.06-.47-.15-.16-.1-.32-.2-.49-.28-.15-.08-.28-.2-.37-.34-.09-.15-.13-.32-.13-.49v-1.15h-3.82v1.15c0,.17-.05.33-.14.47-.09.14-.21.26-.36.33-.17.08-.33.18-.5.28-.14.09-.3.15-.47.15-.17,0-.33-.03-.48-.12l-1.02-.6-1.91,3.35,1.02.6c.14.09.26.21.34.36.08.15.11.32.1.48v.56c.01.17-.03.34-.1.48-.08.15-.2.27-.34.36l-1.02.6,1.91,3.31,1.01-.6c.15-.08.31-.13.48-.12.17,0,.33.06.47.15.16.11.32.2.5.28.15.08.28.19.36.34.09.14.14.31.14.48v1.17h3.82v-1.18c0-.17.05-.33.14-.48.09-.14.22-.26.37-.33.17-.09.34-.18.5-.28.14-.09.3-.15.47-.15.17,0,.33.04.48.12l1.02.6,1.91-3.31-1.02-.6ZM13.15,43.8c-.62,0-1.23-.18-1.74-.53-.52-.34-.92-.83-1.15-1.41-.24-.57-.3-1.2-.18-1.81.12-.61.42-1.17.86-1.6.44-.44,1-.74,1.6-.86.61-.12,1.24-.06,1.81.18.57.24,1.06.64,1.41,1.15.34.52.53,1.12.53,1.74,0,.41-.08.82-.24,1.2-.16.38-.39.73-.68,1.02-.29.29-.64.52-1.02.68-.38.16-.79.24-1.2.24Z"/>
  <path class="cls-13" d="M231.03,114.82c-.14-.09-.26-.21-.34-.36-.08-.15-.11-.32-.1-.49v-.56c-.01-.17.02-.33.1-.48.08-.15.2-.27.34-.36l1.02-.61-1.91-3.31-1.02.6c-.15.08-.31.13-.48.12-.17,0-.33-.06-.47-.15-.16-.1-.33-.2-.5-.29-.15-.08-.28-.19-.36-.33-.09-.14-.14-.31-.14-.47v-1.17h-3.82v1.17c0,.17-.05.33-.14.48-.09.14-.22.26-.37.33-.17.09-.33.18-.49.29-.14.09-.31.15-.47.15-.17,0-.34-.04-.48-.12l-1.02-.6-1.91,3.31,1.02.61c.14.09.26.21.34.36.08.15.11.31.1.48v.56c.01.17-.02.34-.1.49-.08.15-.2.27-.34.36l-1.02.6,1.91,3.31,1.02-.61c.15-.08.31-.12.48-.12.17,0,.33.06.47.15.16.1.33.19.5.28.15.07.28.19.37.33.09.14.14.31.14.47v1.17h3.82v-1.17c0-.17.05-.33.14-.47.09-.14.21-.26.36-.33.17-.09.34-.18.5-.28.14-.09.3-.15.47-.15.17,0,.34.03.48.12l1.01.61,1.91-3.31-1.02-.6ZM225.26,116.82c-.62,0-1.23-.18-1.74-.53-.51-.34-.92-.83-1.15-1.41-.24-.57-.3-1.2-.18-1.81.12-.61.42-1.17.86-1.61.44-.44,1-.74,1.6-.86.61-.12,1.24-.06,1.81.18.57.24,1.06.64,1.41,1.15.34.51.53,1.12.53,1.74,0,.83-.33,1.63-.92,2.21-.59.59-1.38.92-2.21.92Z"/>
  <path class="cls-6" d="M179.78,0h-.61v32.43h.61V0Z"/>
  <path class="cls-13" d="M199.52,51.74l-1.62,3.54h-36.86l-1.61-3.54,15.69-10.86h8.69l15.7,10.86Z"/>
  <path class="cls-12" d="M184.91,30.42l-1.09,10.46h-8.69l-1.09-10.46h10.87Z"/>
  <path class="cls-12" d="M199.52,51.75l-1.61,3.54h-36.86l-1.61-3.54h40.08Z"/>
  <path class="cls-6" d="M216.72,0h-.6v61.23h.6V0Z"/>
  <path class="cls-13" d="M236.46,80.55l-1.61,3.54h-36.86l-1.6-3.54,15.69-10.86h8.69l15.69,10.86Z"/>
  <path class="cls-12" d="M221.86,59.23l-1.09,10.46h-8.69l-1.09-10.46h10.87Z"/>
  <path class="cls-12" d="M236.46,80.55l-1.62,3.54h-36.86l-1.61-3.54h40.08Z"/>
  <path class="cls-13" d="M119.2,278c65.53,0,118.66-5.2,118.66-11.62s-53.12-11.62-118.66-11.62S.54,259.96.54,266.38s53.12,11.62,118.66,11.62Z"/>
  <path class="cls-10" d="M0,234.73l30.49-.15,30.49-.05,60.99-.1,60.99.1,30.49.05,30.5.15-30.5.15-30.49.05-60.99.1-60.99-.1-30.49-.05-30.49-.15Z"/>
  <path class="cls-5" d="M23.94,199.77s-9.53-2.16-14.75-6.97c-5.22-4.81-8.14-13.42-8.14-13.42,3.62.7,7.19,1.63,10.68,2.81,1.31,1.34,2.4,2.88,3.23,4.57.08-1.09.08-2.18,0-3.27,1.22.53,2.36,1.22,3.39,2.06,4.35,3.79,5.58,14.23,5.58,14.23Z"/>
  <path class="cls-10" d="M7,183.56c-1.29-.88-2.62-1.77-3.94-2.7,0,0-.02-.01-.02-.02,0,0,0-.02-.01-.03,0,0,0-.02,0-.03,0,0,0-.02.01-.03,0,0,.01-.01.02-.02,0,0,.02,0,.03-.01,0,0,.02,0,.03,0,0,0,.02,0,.03.01,2.46,1.47,4.88,3.02,7.22,4.68.82.57,1.61,1.17,2.42,1.77l-.16-.28c-.28-.48-.6-.95-.89-1.42-.59-.95-1.27-1.84-2.01-2.68,0-.03,0-.07.05-.04.74.85,1.48,1.7,2.15,2.61.33.43.6.88.91,1.34.15.24.29.48.43.72l.14.24c1.21.97,2.42,1.98,3.57,3.03.71.66,1.39,1.34,2.05,2.04-.37-1.15-.69-2.32-1.12-3.45,0-.04.05-.05.06,0,.42,1.21.87,2.38,1.21,3.63.73.81,1.43,1.62,2.09,2.46l-.04-.15c-.11-.45-.22-.9-.34-1.34-.24-.86-.49-1.72-.78-2.57-.54-1.76-1.41-3.4-2.56-4.84,0-.03,0-.07.05-.04,1.78,2.23,3.02,4.83,3.63,7.62.1.4.2.81.29,1.21.05.22.11.44.15.66.28.39.57.78.84,1.21,1.62,2.48,2.97,5.13,4.03,7.9,1.18,3.11,2.19,6.29,3.02,9.51,0,.01-.01.02-.02.03,0,0-.02.01-.03.01s-.02,0-.03-.01c0,0-.02-.01-.02-.03-1.86-5.57-3.76-11.23-6.95-16.21-.67-1.04-1.4-2.06-2.18-3.03-1.58-.1-3.13-.41-4.63-.92-1.64-.55-3.2-1.3-4.65-2.24-.83-.54-1.6-1.17-2.38-1.82,0,0-.01,0-.01,0,0,0,0,0,0-.01,0,0,0-.01,0-.02,0,0,0-.01,0-.02,0,0,0,0,.01-.01,0,0,.01,0,.02,0,0,0,.01,0,.02,0,0,0,0,0,.01.01,1.33,1.07,2.8,1.96,4.37,2.64,1.54.71,3.15,1.25,4.8,1.61.7.16,1.42.27,2.13.36-.88-1.08-1.82-2.12-2.81-3.11-.33-.32-.66-.6-.99-.94-1.1-.77-2.26-1.45-3.48-2.01-1.56-.76-3.1-1.55-4.64-2.34-.88-.44-1.74-.89-2.62-1.32-.04,0,0-.07.04-.05,1.57.76,3.15,1.46,4.74,2.18,1.48.68,2.99,1.37,4.42,2.17l.18.11c-1.29-1.12-2.63-2.2-3.99-3.22-1.27-.96-2.56-1.89-3.86-2.79Z"/>
  <path class="cls-10" d="M7.54,188.48c.77.34,1.56.64,2.33,1,.77.36,1.54.8,2.28,1.21.04,0,0,.07,0,.05-.76-.36-1.52-.71-2.28-1.08-.76-.38-1.53-.8-2.32-1.15-.07.01-.05-.05-.01-.03Z"/>
  <path class="cls-5" d="M54.87,151.77c-1.75,2.28-2.74,5.05-2.81,7.92-.04.85.1,2.04.2,3.44-2.39,1.37-4.51,3.17-6.25,5.3,1.91-1.1,4.09-1.61,6.28-1.49-.05.96-.17,1.91-.36,2.85-1.39,0-2.76.27-4.04.8,1.25-.01,2.48.23,3.63.73-1.69,5.4-6.74,10.95-20.68,13.31-1.49-6.63-.62-13.57,2.46-19.63,4.19-8.22,21.56-13.23,21.56-13.23Z"/>
  <path class="cls-10" d="M26.05,207.72c.24-2.31.55-4.61.9-6.9.71-4.59,1.65-9.14,2.81-13.64.54-2.11,1.22-4.18,2.01-6.21-.04-.37-.06-.74-.05-1.12v-1.34c0-.89.05-1.78.13-2.67.14-1.76.43-3.51.86-5.23.25-.99.55-1.97.84-2.95,0-.04.07,0,.06,0-.46,1.71-.8,3.46-1.03,5.21-.25,1.74-.4,3.48-.47,5.23v2.04c.68-1.66,1.47-3.28,2.35-4.84,1.41-2.49,3.01-4.88,4.77-7.14,0-.26.04-.53.11-.78.07-.31.13-.6.21-.93.15-.63.3-1.27.47-1.9.35-1.26.8-2.48,1.21-3.73,0,0,0-.02,0-.02,0,0,.01,0,.02,0s.02,0,.02,0c0,0,0,.01,0,.02-.37,1.21-.6,2.51-.9,3.77-.14.6-.28,1.21-.41,1.86-.07.31-.14.6-.2.94,0,.02,0,.05,0,.07.56-.71,1.14-1.41,1.72-2.1,2.66-3.12,5.58-6,8.52-8.86.36-.35.73-.7,1.09-1.04l.04.04c-2.81,2.93-5.56,5.89-8.18,8.99-.62.74-1.23,1.48-1.81,2.24l.95-.6c.81-.53,1.63-1.05,2.47-1.52.84-.47,1.7-.94,2.57-1.37.87-.43,1.84-.8,2.71-1.31.04,0,.07.04.03.05-.88.41-1.73.88-2.54,1.41-.85.5-1.7,1.01-2.53,1.54-.83.53-1.65,1.04-2.46,1.56-.68.44-1.35.92-2.05,1.33-1.62,2.07-3.11,4.24-4.46,6.5-.84,1.42-1.61,2.88-2.3,4.38.16-.08.33-.15.5-.22l1.28-.57,2.47-1.08c1.56-.68,3.15-1.3,4.68-2.05.86-.41,1.7-.87,2.5-1.39.04,0,.07.03.04.05-2.86,1.97-6.05,3.36-9.22,4.76l-1.37.6c-.38.16-.75.35-1.14.5-.94,2.09-1.73,4.25-2.36,6.46-1.25,4.44-2.26,8.93-3.02,13.48-.88,4.59-1.42,9.15-1.84,13.75-.05.57-.1,1.14-.17,1.72,0,.05-.02.1-.05.13-.03.03-.08.05-.13.05s-.09-.02-.13-.05c-.03-.03-.05-.08-.05-.13.03-2.34.27-4.68.53-7Z"/>
  <path class="cls-10" d="M34.52,169.24c.25-1.42.6-2.8,1.01-4.19,0-.04.07,0,.07,0-.36,1.36-.6,2.75-.87,4.13-.26,1.39-.49,2.82-.69,4.23h-.04c.09-1.4.26-2.8.51-4.18Z"/>
  <path class="cls-10" d="M40.52,173.08c.97-.64,1.98-1.21,3.02-1.71.51-.26,1.02-.51,1.54-.76.51-.25,1.08-.47,1.6-.74.04,0,.07.04.04.05-.51.26-1,.57-1.49.84-.5.27-1.03.57-1.55.85-1.02.55-2.02,1.16-3.09,1.6-.02,0-.04,0-.05,0-.02,0-.03-.02-.04-.04,0-.02,0-.04,0-.05,0-.02.01-.03.03-.04Z"/>
  <path class="cls-15" d="M23.76,183.29s-8.81-2.12-12.84-8.03c-3.87-5.65-5.11-15.27-5.21-16.12.16.78,1.98,9.19,7.98,13.11,4.57,3,9.01,5.47,10.07,11.04Z"/>
  <path class="cls-10" d="M15.62,168.05c1.57,1.44,2.7,3.3,3.25,5.35-.65-2.01-1.77-3.83-3.27-5.31-.05-.02-.01-.07.02-.04Z"/>
  <path class="cls-5" d="M23.76,183.29s-8.81-2.12-12.84-8.03c-3.87-5.65-5.11-15.27-5.21-16.12,0-.02,0-.04,0-.05,0,0,4.23,6.01,8.67,7.54,4.43,1.53,10.65,6.84,9.38,16.67Z"/>
  <path class="cls-10" d="M7.24,162.39c.79,1.62,1.7,3.18,2.72,4.66,1.03,1.41,2.25,2.66,3.63,3.73,1.21.95,2.46,1.81,3.67,2.75v-.04c-.23-.34-.47-.66-.73-.99-.5-.65-1.05-1.26-1.61-1.86-1.09-1.21-2.21-2.35-3.19-3.63-.55-.71-1.02-1.48-1.42-2.29,0-.04.04-.06.06,0,1.43,2.98,4.29,4.89,6.32,7.4.29.36.57.73.82,1.11.2.28.37.58.51.9,1.12.89,2.13,1.9,3.02,3.02-.08-.58-.2-1.15-.36-1.71-.2-.78-.52-1.53-.93-2.23,0,0,0-.02,0-.02,0,0,0-.02.01-.02,0,0,.02,0,.02,0s.02,0,.02.01c.43.7.77,1.44,1.03,2.21.18.62.29,1.26.32,1.9.44.59.85,1.21,1.21,1.85-.04-.19-.07-.38-.11-.56-.18-.88-.37-1.75-.6-2.62-.42-1.76-1.14-3.44-2.12-4.96,0,0,0,0,0-.01,0,0,0,0,0-.01,0,0,0,0,0-.01,0,0,0,0,0,0,0,0,0,0,.01,0,0,0,0,0,.01,0,0,0,0,0,.01,0,0,0,0,0,0,0,1.01,1.49,1.8,3.12,2.35,4.84.28.87.5,1.74.7,2.63.1.43.18.87.27,1.3.04.23.09.46.13.69.88,1.92,1.56,3.92,2.03,5.98.87,3.67,1.5,7.39,1.88,11.14.46,3.93.66,7.88.6,11.83,0,.5-.04.99-.06,1.49,0,.13-.2.15-.21,0-.08-1.96-.14-3.91-.25-5.87-.11-1.95-.28-3.91-.5-5.86-.4-3.83-1-7.63-1.81-11.4-.71-3.22-1.65-6.47-3.41-9.29-.87-1.4-1.94-2.68-3.18-3.78-1.21-1.11-2.59-2.08-3.89-3.11-1.34-.99-2.56-2.14-3.64-3.42-1.08-1.42-2.02-2.95-2.81-4.55-.21-.4-.42-.8-.6-1.21-.04-.01.01-.05.03-.01Z"/>
  <path class="cls-10" d="M8.76,163.69c.58,1.19,1.24,2.33,1.97,3.44,0,0,0,.05-.04,0-.76-1.09-1.42-2.24-1.98-3.44-.02-.01.04-.03.06,0Z"/>
  <path class="cls-5" d="M56.1,179.38s.14,12.52-7.35,16.14c-7.49,3.62-11.49.6-16.59,1.81.2-.3,3.83-5.52,9.61-6.96,5.95-1.49,12.53-5.78,14.33-11Z"/>
  <path class="cls-16" d="M56.1,179.38s.14,12.52-7.35,16.14c-7.49,3.62-11.49.6-16.59,1.81,2.69-1.28,5.56-2.13,8.52-2.51,4.72-.57,13.74-3.67,15.42-15.44Z"/>
  <path class="cls-10" d="M31.67,197.55c.89-.81,1.89-1.49,2.98-2.02l.49-.21c.08-.1.16-.2.25-.29.22-.23.46-.46.7-.66.47-.41.97-.77,1.51-1.09,1.25-.73,2.6-1.21,3.87-1.92.04,0,.07.04.03.06-.6.33-1.21.69-1.84,1.04-.64.35-1.21.68-1.78,1.05-.52.33-1.02.7-1.48,1.11-.13.11-.25.23-.38.36.83-.28,1.67-.5,2.53-.67,1.37-.28,2.76-.47,4.13-.76.67-.15,1.34-.33,1.99-.54.6-.5,1.21-1,1.81-1.54.72-.65,1.38-1.37,1.96-2.15,0-.04.08,0,.05.03-.9,1.23-1.93,2.37-3.07,3.39.32-.12.64-.25.96-.39,2.57-1.15,4.78-2.99,6.38-5.31,0,0,0,0,0,0,0,0,0,0,.01,0,0,0,0,0,.01,0,0,0,0,0,.01,0,0,0,0,0,0,0,0,0,0,0,0,.01,0,0,0,0,0,.01,0,0,0,0,0,.01-1.36,1.99-3.12,3.67-5.16,4.95-1.03.64-2.12,1.16-3.27,1.54-1.33.41-2.68.73-4.05.96-1.34.22-2.67.53-3.97.94-1.19.4-2.32.99-3.33,1.75-1.91,1.48-3.44,3.39-4.49,5.57-1.35,2.89-2.19,5.99-2.5,9.16,0,.13-.22.13-.22,0,.38-5.27,1.78-10.75,5.84-14.4Z"/>
  <path class="cls-10" d="M40.36,193.47c.39-.58.92-1.06,1.54-1.4.7-.37,1.32-.89,1.81-1.52,0,0,.08,0,.05.04-.45.57-1,1.06-1.62,1.45-.68.36-1.28.86-1.77,1.46l-.02-.02Z"/>
  <path class="cls-3" d="M36.39,206.8l-.34,6.88-1.05,21.04h-15.71l-1.05-21.04-.34-6.88h18.48Z"/>
  <path class="cls-10" d="M36.39,206.8l-.34,6.88h-17.8l-.34-6.88h18.48Z"/>
  <path class="cls-3" d="M37.49,203.92h-20.68v6.57h20.68v-6.57Z"/>
  <path class="cls-7" d="M145.45,31.65h-49.57v65.85h49.57V31.65Z"/>
  <g class="cls-1">
    <path class="cls-5" d="M145.45,31.65h-49.57v65.85h49.57V31.65Z"/>
  </g>
  <path class="cls-5" d="M146.8,31.65h-49.57v65.85h49.57V31.65Z"/>
  <path class="cls-13" d="M143.84,34.77l-43.77.44.59,59.32,43.77-.44-.59-59.32Z"/>
  <path class="cls-12" d="M101.19,34.1l-1.28,59.31,43.75.95,1.28-59.31-43.75-.95Z"/>
  <path class="cls-8" d="M143.62,34.56h-43.76v59.32h43.76v-59.32Z"/>
  <path class="cls-13" d="M138.62,48.48h-33.76v.48h33.76v-.48Z"/>
  <path class="cls-13" d="M138.62,50.35h-33.76v.48h33.76v-.48Z"/>
  <path class="cls-13" d="M138.62,52.23h-33.76v.48h33.76v-.48Z"/>
  <path class="cls-13" d="M138.62,54.1h-33.76v.48h33.76v-.48Z"/>
  <path class="cls-13" d="M138.62,55.97h-33.76v.48h33.76v-.48Z"/>
  <path class="cls-13" d="M138.62,57.84h-33.76v.48h33.76v-.48Z"/>
  <path class="cls-13" d="M138.62,59.72h-33.76v.48h33.76v-.48Z"/>
  <path class="cls-13" d="M138.62,61.59h-33.76v.48h33.76v-.48Z"/>
  <path class="cls-13" d="M138.62,63.46h-33.76v.48h33.76v-.48Z"/>
  <path class="cls-13" d="M117.18,65.34h-12.32v.48h12.32v-.48Z"/>
  <path class="cls-13" d="M138.62,69.08h-33.76v.48h33.76v-.48Z"/>
  <path class="cls-13" d="M138.62,70.95h-33.76v.48h33.76v-.48Z"/>
  <path class="cls-13" d="M138.62,72.82h-33.76v.48h33.76v-.48Z"/>
  <path class="cls-13" d="M138.62,74.7h-33.76v.48h33.76v-.48Z"/>
  <path class="cls-13" d="M138.62,76.57h-33.76v.48h33.76v-.48Z"/>
  <path class="cls-13" d="M138.62,78.44h-33.76v.48h33.76v-.48Z"/>
  <path class="cls-13" d="M125.56,80.32h-20.7v.48h20.7v-.48Z"/>
  <path class="cls-13" d="M138.62,87.53h-14.81v.48h14.81v-.48Z"/>
  <path class="cls-3" d="M112.05,43.33c0-.16.03-.32.08-.47.06-.15.14-.29.25-.41.11-.12.25-.22.4-.3.17-.07.35-.11.54-.11.21,0,.42.05.61.15.16.1.3.24.39.41l-.38.26c-.03-.07-.07-.13-.13-.18-.04-.05-.09-.09-.15-.12-.06-.03-.11-.05-.18-.07-.06,0-.12,0-.18,0-.11,0-.22.02-.33.07-.09.05-.17.12-.23.2-.06.08-.11.18-.14.28-.03.1-.05.2-.05.3,0,.11.02.23.05.33.03.1.09.19.15.28.07.08.15.14.24.19.1.05.2.07.31.07h.18c.06-.01.12-.04.18-.07.12-.07.22-.17.28-.3l.4.24c-.04.1-.1.18-.18.25-.08.07-.16.14-.25.19-.1.05-.2.09-.31.12-.11.03-.21.04-.32.04-.18,0-.35-.04-.5-.12-.15-.07-.29-.18-.39-.3-.11-.12-.2-.27-.26-.42-.06-.17-.09-.34-.08-.52Z"/>
  <path class="cls-3" d="M115.77,44.65c-.18,0-.35-.04-.51-.11-.15-.08-.28-.18-.4-.3-.22-.25-.34-.57-.35-.9,0-.17.03-.34.1-.5.06-.15.15-.3.27-.42.11-.12.25-.22.4-.28.16-.07.33-.11.51-.11.18,0,.35.04.51.11.15.07.28.17.39.3.11.13.19.27.25.42.06.15.09.31.09.48,0,.17-.03.34-.1.49-.06.16-.15.3-.26.42-.11.12-.25.22-.4.28-.16.07-.33.11-.5.11ZM115.02,43.35c0,.11.02.22.05.32.03.1.08.2.15.28.06.08.14.15.24.19.1.05.21.07.31.07.11,0,.22-.02.32-.08.09-.05.17-.11.23-.19.07-.08.12-.18.15-.28.04-.1.05-.21.05-.31s-.02-.22-.05-.32c-.03-.1-.08-.2-.15-.28-.06-.08-.14-.15-.24-.19-.1-.05-.21-.07-.31-.07-.11,0-.22.02-.32.07-.09.05-.17.11-.24.19-.13.17-.2.39-.19.6h0Z"/>
  <path class="cls-3" d="M117.91,42.98v1.65h-.5v-2.58h.39l1.34,1.69v-1.69h.5v2.57h-.4l-1.32-1.65Z"/>
  <path class="cls-3" d="M122.11,42.5h-.82v2.14h-.5v-2.14h-.83v-.44h2.15v.44Z"/>
  <path class="cls-3" d="M122.43,44.64v-2.58h1.14c.11,0,.22.02.33.07.1.05.19.12.26.2.07.08.13.17.18.27.04.1.06.21.06.31,0,.16-.04.32-.13.45-.08.13-.2.24-.34.3l.6.97h-.56l-.53-.87h-.49v.87h-.51ZM122.93,43.33h.61s.09-.01.13-.04c.04-.02.08-.05.1-.09.03-.04.05-.08.07-.13,0-.05,0-.11,0-.16,0-.06,0-.12-.03-.17-.02-.05-.04-.09-.07-.13-.03-.04-.07-.06-.11-.08-.04-.01-.08-.01-.13,0h-.61l.04.8Z"/>
  <path class="cls-3" d="M125.53,42.06h.45l.97,2.58h-.5l-.24-.64h-.9l-.24.64h-.51l.96-2.58ZM126.14,43.64l-.36-1.02-.37,1.02h.73Z"/>
  <path class="cls-3" d="M126.99,43.33c0-.16.03-.32.08-.47.06-.15.14-.29.25-.41.11-.12.25-.22.4-.3.17-.07.35-.11.54-.11.21,0,.42.05.61.15.16.1.3.24.39.41l-.39.26c-.03-.07-.07-.13-.12-.18-.04-.05-.1-.09-.16-.12-.06-.03-.11-.05-.18-.07h-.17c-.12,0-.23.02-.33.07-.09.05-.17.12-.23.2-.06.08-.11.18-.14.28-.03.1-.05.2-.05.3,0,.11.02.23.05.33.03.1.09.2.16.28.07.08.15.14.24.19.1.05.2.07.31.07h.18c.06-.02.12-.04.18-.07.06-.03.11-.07.16-.12.05-.05.09-.11.11-.18l.41.24c-.04.1-.1.18-.18.25-.08.07-.16.14-.25.19-.1.05-.2.09-.31.11-.11.03-.21.04-.32.04-.18,0-.35-.04-.5-.12-.15-.07-.28-.18-.39-.3-.11-.13-.2-.27-.26-.42-.06-.17-.09-.34-.08-.52Z"/>
  <path class="cls-3" d="M131.54,42.5h-.85v2.14h-.5v-2.14h-.82v-.44h2.15l.02.44Z"/>
  <path class="cls-10" d="M123.35,86.14c.37-.25.75-.49,1.14-.71.38-.23.79-.42,1.21-.56.06-.01.11-.02.17-.03.03,0,.07,0,.1,0,.03.01.06.03.08.06.06.11.08.23.08.35,0,.23-.03.45-.07.67-.08.44-.19.88-.31,1.31-.24.86-.54,1.71-.89,2.53-.09.21-.2.41-.32.6-.03.05-.08.1-.12.14-.03.03-.07.05-.11.05-.01,0-.03,0-.04,0-.01,0-.03-.01-.04-.03l-.04-.04c-.06-.11-.1-.24-.1-.36.01-.45.09-.9.24-1.33.13-.43.3-.85.51-1.25.19-.41.46-.79.79-1.1.17-.15.38-.25.61-.29.11-.03.24-.03.35,0,.11.06.19.14.25.25.05.1.11.19.19.27.03.04.07.07.12.08.05.02.1.02.15,0,.21-.08.4-.19.56-.33l.27-.2s.1-.06.15-.09c.03-.02.06-.03.09-.03s.07.01.09.03c.08.11.07.22.11.32.01.05.04.09.09.12.04.03.09.04.15.03.18-.12.35-.26.49-.43.15-.16.3-.33.45-.5.29-.34.57-.68.88-1.02.15-.16.3-.33.46-.48.08-.08.17-.15.26-.22.05-.04.1-.07.15-.09.03,0,.06,0,.1,0,.02,0,.04,0,.06.02.02.01.03.03.04.04.05.11.07.23.05.35-.01.11-.03.23-.05.34-.05.22-.11.44-.18.65-.14.43-.32.85-.54,1.24-.06.1-.13.2-.21.28-.02.03-.06.05-.09.06-.03.01-.07.02-.11.02-.06,0-.12-.02-.18-.05-.11-.05-.21-.13-.29-.23-.08-.1-.13-.21-.16-.32-.03-.07-.03-.14,0-.21.02-.04.05-.07.08-.08.04-.01.08-.01.12,0,.12.01.23.04.34.08.22.08.42.17.61.26.18.09.41.18.6.26.1.04.2.08.31.11l.15.04s.08,0,.12,0c.17-.08.28-.3.45-.46.09-.1.21-.16.34-.18.05,0,.1.01.14.04.03.04.05.09.04.14,0,.06-.01.12-.03.18,0,.1-.04.23,0,.23h.26c.21-.06.4-.16.56-.3.09-.07.19-.13.28-.19.11-.08.24-.11.38-.09.22.09.42.23.57.42.07.08.16.14.24.21.01,0,.03,0,.04,0,.01,0,.03,0,.04,0l.13-.08c.17-.13.34-.28.51-.42.32-.3.61-.64.86-1,.13-.18.21-.39.22-.6,0-.2-.21-.29-.42-.32-.43-.08-.88-.08-1.31,0-.22.04-.43.1-.64.18-.1.04-.19.09-.28.16-.08.06-.16.15-.13.22.04.09.12.16.21.19.1.05.21.08.31.13.21.07.42.13.64.19.88.16,1.77.25,2.66.25-.9.02-1.8-.04-2.68-.19-.22-.05-.43-.11-.65-.18-.1-.04-.21-.07-.31-.12-.06-.02-.11-.06-.16-.1-.05-.04-.08-.1-.11-.15,0-.06,0-.13.03-.19.03-.06.07-.11.13-.14.09-.07.19-.13.3-.17.21-.09.43-.15.65-.2.45-.09.9-.11,1.35-.04.12.02.23.06.34.11.06.04.1.08.14.14.03.06.05.12.06.19,0,.24-.09.47-.23.67-.25.38-.55.72-.88,1.03-.16.16-.34.31-.52.44-.05.04-.1.07-.16.1-.04.01-.08.02-.12,0-.04,0-.08-.02-.11-.05-.1-.07-.19-.14-.27-.23-.13-.16-.3-.29-.49-.37-.17,0-.36.13-.54.25-.18.14-.39.25-.61.32-.06.03-.13.04-.2.04s-.13-.01-.2-.04c-.03-.03-.06-.06-.07-.1-.01-.04-.02-.08-.01-.12,0-.06.02-.12.04-.18.01-.05.03-.1.03-.15-.09.02-.18.06-.24.13-.15.15-.25.36-.49.48-.06.03-.13.05-.2.04-.06,0-.12-.02-.18-.04-.11-.03-.22-.07-.32-.11l-.61-.27c-.2-.09-.4-.18-.6-.26-.1-.04-.2-.06-.3-.07-.07,0-.11.05-.1.15.03.1.07.19.14.27.06.08.15.14.24.19.04.02.09.03.14.04.03,0,.06,0,.1-.05.07-.07.14-.16.19-.25.22-.38.4-.79.54-1.21.07-.21.13-.42.18-.6.03-.11.05-.22.06-.33.03-.1.03-.2,0-.3-.03-.06-.16,0-.24.07-.09.07-.17.14-.25.21-.16.15-.31.31-.46.48-.3.33-.61.67-.89,1.01l-.45.5c-.15.17-.32.32-.52.44-.06.01-.12,0-.18-.03-.05-.03-.09-.08-.11-.14-.04-.1-.04-.24-.1-.3-.06-.07-.08,0-.13,0l-.14.08-.27.21c-.18.15-.38.27-.61.34-.06.01-.12.01-.18,0-.06-.02-.11-.05-.16-.1-.07-.09-.14-.18-.2-.28-.06-.09-.11-.19-.21-.22-.1-.03-.21-.03-.31,0-.21.04-.41.14-.57.28-.32.31-.57.67-.76,1.08-.2.39-.36.79-.48,1.21-.14.42-.21.86-.22,1.3,0,.1.02.19.07.28.04-.04.07-.07.1-.11.11-.2.22-.4.31-.6.36-.82.66-1.65.91-2.51.13-.43.24-.86.32-1.3.04-.22.07-.43.08-.65,0-.1-.02-.21-.06-.3-.01-.02-.03-.03-.05-.03-.02,0-.04,0-.06,0-.05,0-.1,0-.16.03-.42.13-.83.3-1.21.52-.39.21-.77.44-1.15.68l.04-.02Z"/>
  <path class="cls-5" d="M109.14,91.17c-.69,0-1.38-.16-2-.47-.62-.31-1.16-.76-1.57-1.32-.41-.56-.69-1.2-.81-1.89-.12-.68-.07-1.38.13-2.05.2-.66.56-1.27,1.04-1.77.48-.5,1.07-.88,1.72-1.11.65-.23,1.35-.3,2.04-.22.69.09,1.34.34,1.92.73.48.32.9.74,1.22,1.22.32.49.54,1.03.65,1.6.11.57.11,1.16,0,1.73-.11.57-.34,1.11-.67,1.59-.32.48-.74.9-1.23,1.22-.49.32-1.03.54-1.6.65-.28.05-.56.08-.85.08ZM109.14,82.62c-.27,0-.53.02-.79.07-1.05.2-1.99.8-2.62,1.67-.63.87-.89,1.95-.74,3.01.15,1.06.7,2.03,1.54,2.69.84.67,1.9.98,2.97.89,1.07-.1,2.06-.6,2.76-1.41.71-.81,1.07-1.86,1.03-2.93-.05-1.07-.5-2.08-1.28-2.83-.77-.74-1.8-1.16-2.88-1.16Z"/>
  <path class="cls-5" d="M109.13,90.13c-.61,0-1.21-.17-1.73-.48-.52-.31-.95-.76-1.23-1.3-.28-.54-.42-1.14-.39-1.75.03-.61.23-1.2.57-1.7.31-.46.73-.84,1.21-1.1.49-.26,1.03-.39,1.59-.39.55,0,1.1.14,1.59.4.49.26.9.64,1.21,1.1.31.46.49.99.54,1.54.05.55-.03,1.11-.25,1.62-.21.51-.55.96-.98,1.31-.43.35-.94.59-1.48.69-.21.04-.43.06-.65.06ZM109.13,83.71c-.2,0-.4.02-.6.05-.77.15-1.46.59-1.92,1.23-.46.64-.65,1.43-.54,2.21.11.78.51,1.49,1.13,1.98.62.49,1.4.72,2.18.65.78-.07,1.51-.44,2.03-1.03.52-.59.79-1.36.76-2.15-.03-.79-.36-1.53-.93-2.08-.57-.55-1.32-.86-2.11-.87Z"/>
  <path class="cls-5" d="M112,85.4l-4.14.81.06.3,4.14-.81-.06-.3Z"/>
  <path class="cls-5" d="M110.33,87.18l-4.14.81.06.3,4.14-.81-.06-.3Z"/>
  <path class="cls-6" d="M132.49,30.45h-21.5v6.55h21.5v-6.55Z"/>
  <path class="cls-6" d="M128.31,26.87h-13.34l-.61,3.58h14.72l-.77-3.58ZM121.74,29.45c-.15,0-.31-.05-.44-.13-.13-.09-.23-.21-.29-.35-.06-.14-.08-.3-.05-.45.03-.15.11-.29.22-.4.11-.11.25-.18.4-.22.15-.03.31-.01.45.04.14.06.27.16.35.29.09.13.13.28.13.44,0,.21-.08.41-.23.56-.15.15-.35.23-.56.23Z"/>
  <path class="cls-11" d="M129.1,30.45h-14.72l.13-.8h14.41l.17.8Z"/>
  <path class="cls-9" d="M129.96,273.72c1.33.43,39.32-.06,40.73-1,.55-.35.8-5.88.91-12.58v-.21c0-1.38.04-2.8.05-4.24v-.6l-1.84-19.69-25.41.25,2.51,19.51.03.77.15,4.03v.42s-14.45,6.69-15.92,7.86c-1.46,1.17-2.55,5.05-1.21,5.47Z"/>
  <path class="cls-13" d="M129.96,273.72c1.33.43,39.32-.06,40.73-1,.55-.35.81-5.88.91-12.58v-.21c0-1.38.04-2.8.05-4.24v-.6l-24.73.07.03.77.15,4.03v.42s-14.45,6.69-15.92,7.86c-1.46,1.17-2.56,5.05-1.22,5.47Z"/>
  <path class="cls-11" d="M129.96,273.71c.68.22,11,.2,21.08,0,2.03-.04,4.05-.08,5.96-.14,7.19-.19,13.13-.49,13.69-.85.56-.36.79-5.72.9-12.3v-.5h-.03l-24.47.05v.42s-14.45,6.68-15.91,7.86c-1.46,1.18-2.55,5.03-1.22,5.46Z"/>
  <path class="cls-10" d="M130.37,272.24c6.4-.24,32.23-.61,38.57-.36.05,0,.05.04,0,.04-6.34.38-32.17.53-38.57.42-.13,0-.13-.1,0-.1Z"/>
  <path class="cls-10" d="M144.38,260.11c2.51-.51,5.6-.16,7.54,1.61.07.07,0,.18-.1.15-2.42-.74-4.91-1.23-7.43-1.45-.02,0-.04,0-.06-.01-.02,0-.04-.02-.05-.03s-.03-.03-.04-.05c0-.02-.01-.04-.01-.06,0-.02,0-.04,0-.06,0-.02.02-.04.03-.05.01-.02.03-.03.05-.04.02,0,.04-.01.06-.01Z"/>
  <path class="cls-10" d="M142.57,261.2c2.52-.51,5.6-.16,7.55,1.61.07.07,0,.18-.11.15-2.42-.74-4.9-1.23-7.42-1.45-.04,0-.08-.01-.11-.04-.03-.03-.05-.07-.05-.11,0-.04.01-.08.04-.11.03-.03.07-.05.11-.05Z"/>
  <path class="cls-10" d="M140.77,262.32c2.52-.5,5.6-.16,7.55,1.61.07.07,0,.17-.11.15-2.42-.74-4.9-1.23-7.42-1.45-.04,0-.08-.01-.11-.04-.03-.03-.05-.07-.05-.11,0-.04.01-.08.04-.11.03-.03.07-.05.11-.05Z"/>
  <path class="cls-10" d="M151.04,273.7c2.03-.04,4.05-.08,5.96-.14,7.19-.19,13.13-.49,13.69-.85.56-.36.79-5.72.9-12.3v-.5h-.03c-3.36,2.35-15.15,10.22-20.52,13.78Z"/>
  <path class="cls-10" d="M145.44,260.05h27.34s-5.5-63.87-5.29-64.98c.28-1.43,1.89-7.89,4.04-16.33.67-2.64,1.4-5.47,2.15-8.41,2.04-7.95,4.29-16.63,6.24-24.2,2.94-11.32,5.23-20.11,5.23-20.11h-23.17s-2.7,8.56-6.1,19.7c-5.55,18.1-12.96,43.01-13.69,49.06-1.18,9.8,3.25,65.28,3.25,65.28Z"/>
  <path class="cls-3" d="M146.65,255.39c4.17-.09,2.98-.12,7.15-.16,2.04,0,15.48-.13,17.38.18.01,0,.02,0,.03.01,0,0,.01.02.01.03,0,.01,0,.02-.01.03s-.02.01-.03.01c-1.9.31-15.34.2-17.38.18-4.17-.04-2.98-.08-7.15-.16-.02,0-.03,0-.04-.02-.01-.01-.02-.03-.02-.04s0-.03.02-.04c.01-.01.03-.02.04-.02Z"/>
  <path class="cls-3" d="M162.35,191.15c.9-3.96,2.24-7.83,3.4-11.7,2.37-7.89,4.76-15.77,7.16-23.64,1.21-3.94,2.42-7.88,3.63-11.81.61-1.99,1.22-3.97,1.85-5.96.6-1.94,1.3-3.86,1.85-5.82.22-.79.35-.36.06.65-.6,2.04-1.15,4.08-1.74,6.12-1.18,4.03-2.37,8.07-3.56,12.1-2.37,8.01-4.76,16.02-7.17,24.01-1.21,4.01-2.42,8.02-3.63,12.04-.62,1.91-1.12,3.86-1.49,5.83-.32,2.06-.4,4.15-.24,6.23.26,4.19.74,8.36,1.13,12.53l1.16,12.55c.77,8.32,1.53,16.65,2.29,24.97.09,1.06.19,2.11.27,3.17,0,.35-.51.33-.54,0-.9-8.23-1.59-16.48-2.37-24.73l-2.3-24.61c-.19-2.06-.41-4.12-.41-6.19,0-1.93.23-3.85.66-5.74Z"/>
  <path class="cls-3" d="M164.62,126.03c1.61,12.44,4.68,35.78,6.91,52.71,5.23-20.51,13.63-52.71,13.63-52.71h-20.54Z"/>
  <path class="cls-9" d="M158.93,274.08c1.33.44,39.32.09,40.73-.85.55-.34.82-5.89.96-12.58v-.2c0-1.39.05-2.81.06-4.23v-.61c.08-9.68-.61-19.7-.61-19.7l-24.8.16.7,19.51v.77l.14,4.04v.42s-14.47,6.65-15.94,7.83c-1.48,1.17-2.57,5.01-1.24,5.44Z"/>
  <path class="cls-13" d="M158.93,274.08c1.33.44,39.32.09,40.73-.85.55-.34.82-5.89.96-12.58v-.2c0-1.39.05-2.81.06-4.23v-.61h-24.74v.77l.14,4.04v.42s-14.47,6.65-15.95,7.83c-1.48,1.17-2.55,4.99-1.22,5.42Z"/>
  <path class="cls-11" d="M158.93,274.08c1.33.44,39.32.09,40.73-.85.55-.34.82-5.89.96-12.58v-.21l-24.5-.05v.42s-14.47,6.65-15.94,7.83c-1.48,1.17-2.58,5.01-1.25,5.44Z"/>
  <path class="cls-10" d="M159.34,272.6c6.4-.22,32.23-.48,38.57-.21.05,0,.05.04,0,.04-6.33.36-32.17.42-38.57.28-.13,0-.13-.1,0-.11Z"/>
  <path class="cls-10" d="M173.4,260.49c2.52-.5,5.6-.14,7.54,1.64.07.07,0,.17-.11.15-2.41-.75-4.9-1.25-7.42-1.48-.02,0-.04,0-.06,0-.02,0-.04-.02-.05-.03-.02-.01-.03-.03-.04-.05,0-.02-.01-.04-.02-.06,0-.02,0-.04,0-.06,0-.02.02-.04.03-.05.01-.02.03-.03.05-.04.02,0,.04-.02.06-.02Z"/>
  <path class="cls-10" d="M171.59,261.61c2.51-.5,5.6-.14,7.54,1.64.07.07,0,.17-.1.15-2.41-.75-4.9-1.25-7.42-1.48-.04,0-.08-.01-.11-.04-.03-.03-.05-.07-.05-.11,0-.04.01-.08.04-.11.03-.03.07-.05.11-.05Z"/>
  <path class="cls-10" d="M169.78,262.72c2.51-.5,5.6-.14,7.54,1.64.08.07,0,.18-.1.15-2.41-.76-4.9-1.25-7.42-1.48-.04,0-.08-.01-.11-.04-.03-.03-.05-.07-.05-.11,0-.04.01-.08.04-.11.03-.03.07-.05.11-.05Z"/>
  <path class="cls-10" d="M162.75,126.03s.53,11.09,3.07,19.87c.21.73.42,1.44.66,2.12,2.33.94,4.57,2.09,6.68,3.43,0,0,.27,8.92.53,18.87.3,11.12.6,23.52.54,26.16-.23,9.85,1.21,63.97,1.21,63.97l27.33.11s-4.94-60.45-4.91-64.06c.05-5.79-1.32-31.41-2.39-50.1-.65-11.49-1.21-20.39-1.21-20.39h-31.53Z"/>
  <path class="cls-3" d="M176.39,255.59c4.17-.07,2.98-.1,7.15-.13,2.04,0,15.48-.07,17.38.26.01,0,.02,0,.03.01s.01.02.01.03,0,.02-.01.03c0,0-.02.01-.03.01-1.91.31-15.34.13-17.38.1-4.17-.05-2.98-.09-7.15-.19-.01,0-.02-.01-.03-.03,0-.01-.01-.02-.01-.04s0-.03.01-.04c0-.01.02-.02.03-.02Z"/>
  <path class="cls-3" d="M192.02,129.99c.5,15.25,1.03,30.51,1.72,45.75.68,15.24,1.6,30.59,2.88,45.85.71,8.52,1.39,20.52,2.31,29.03,0,.06-.09.08-.09,0-1.99-15.12-3.1-33.83-4.08-49.06-.98-15.23-1.65-30.48-2.17-45.72-.29-8.63-.51-17.25-.77-25.88,0-.11.19-.1.19.02Z"/>
  <path class="cls-3" d="M165.34,147.36c2.72,1.13,5.33,2.5,7.81,4.09.1.06,0,.22-.08.16-2.64-1.28-5.33-2.52-7.89-3.94-.04-.02-.07-.06-.09-.1-.01-.04,0-.09.01-.14.02-.04.06-.07.1-.09.04-.01.09-.01.14.01Z"/>
  <path class="cls-3" d="M165.24,141.1c.25,1.34,1.6,6.26,3.67,5.95,2.07-.3,1.06-3.24.76-5.18-.55-4.05-.78-8.14-.71-12.23,0-.02-.01-.03-.03-.04-.01,0-.03-.02-.05-.02s-.03,0-.05.02c-.01,0-.02.02-.03.04-.34,2.94-.37,5.91-.1,8.86.13,1.58.35,3.16.6,4.73.2.75.3,1.52.32,2.29-.07.61-.27.99-.66,1.08-2.35.54-3.44-6.95-3.56-8.31-.29-2.92-.44-5.85-.44-8.79,0-.1-.16-.08-.16,0-.36,3.87-.21,7.77.43,11.6Z"/>
  <path class="cls-3" d="M168.41,146.99c.16.48.36.96.53,1.44.12.43.31.84.55,1.21.04.06.15.05.16,0,0-.43-.06-.87-.22-1.28-.14-.53-.32-1.05-.53-1.55-.03-.06-.08-.1-.14-.13-.06-.02-.13-.02-.19,0-.06.02-.11.07-.14.12-.03.06-.04.12-.03.19Z"/>
  <path class="cls-9" d="M171.22,92.39c-.25,4.23-2.78,24.1-6.89,28.43-2.82,2.98-15.27,10.85-22.58,14.2-1.93.89-7.69-14.14-5.04-15.43,3.36-1.62,16.33-8.81,18.43-10.33,2.09-1.52,6.4-12.16,11.13-19.45,2.41-3.76,5.19-1.87,4.95,2.58Z"/>
  <path class="cls-9" d="M143,134.34c-1.69.96-11.12,5.63-13.62,6.16-2.49.53-9.77,1.55-10.37-.31-.6-1.86,1.5-2.34,1.5-2.34,0,0-3.14-.06-3.57-1.99-.44-1.93,2.87-2.55,2.87-2.55,0,0-3.22-.3-3.52-2.26-.3-1.96,3.13-2.03,3.13-2.03,0,0-2.96-.13-2.52-1.85.53-2.06,5.95-1.21,8.66-2,.61-.18,12.19-4.55,12.19-4.55l5.26,13.71Z"/>
  <path class="cls-10" d="M119.12,129.04c3.99.6,5.84.2,9.5-1.38.07-.03.13.07.06.11-3.44,1.87-5.69,2.73-9.6,1.46-.19-.07-.15-.22.04-.19Z"/>
  <path class="cls-10" d="M119.49,133.25c4.2.28,6.21-.15,10.16-1.52.06,0,.1.07.04.1-3.76,1.67-6.02,2.48-10.18,1.64-.19-.04-.21-.23-.02-.22Z"/>
  <path class="cls-10" d="M120.71,137.78c4.09,0,6.32-.4,9.97-2.23,0,0,.02,0,.03,0,0,0,.02,0,.03,0,0,0,.02,0,.03.01,0,0,.01.01.02.02,0,0,0,.02,0,.03,0,0,0,.02,0,.03,0,0,0,.02-.01.03,0,0-.01.01-.02.02-3.55,2.23-6.33,2.73-10.04,2.23-.25-.04-.27-.13-.01-.13Z"/>
  <path class="cls-9" d="M140.87,120.32s-4.71-1.86-6.96-2.23c-2.25-.36-11.12,1.38-10.86,3.31.34,2.5,5.67,2.51,8.28,2.17,0,0,.79,5.79,4.6,6.65,3.82.86,4.94-9.91,4.94-9.91Z"/>
  <path class="cls-10" d="M123.38,122.06c1.96,2.06,5.35,1.39,7.91,1.25.04,0,.07,0,.11.01.04.01.07.04.09.06.02.03.04.06.05.1,0,.04,0,.07,0,.11.5,2.42,1.89,5.66,4.27,6.65,0,0,.01,0,.02.01,0,0,0,.01.01.02,0,0,0,.01,0,.02,0,0,0,.01,0,.02,0,0,0,.01-.01.02,0,0-.01.01-.02.01,0,0-.01,0-.02,0,0,0-.01,0-.02,0-2.7-.75-4.34-3.83-4.71-6.5-2.61.19-6.05.7-7.7-1.81-.01,0,0,0,.02,0Z"/>
  <path class="cls-14" d="M137.63,118.64l6.32,16.64s15.33-7.95,20.86-14.28c4.17-4.78,6.45-20.71,6.65-27.5.21-6.8-2.95-7.86-6.11-2.85-3.16,5.01-10.1,17.8-10.42,18.22-.32.42-17.29,9.78-17.29,9.78Z"/>
  <path class="cls-10" d="M146.94,131.7c-.84-1.76-1.54-3.6-2.26-5.41-.72-1.81-1.38-3.63-2.03-5.44-.37-1.06-.71-2.12-1.1-3.18,0-.04.05-.06.06,0,.7,1.82,1.47,3.63,2.19,5.44.72,1.82,1.4,3.63,2.08,5.44.39,1.05.8,2.09,1.14,3.15,0,0-.06.03-.08-.01Z"/>
  <path class="cls-10" d="M171.47,93.49c-.22,6.8-2.49,22.72-6.65,27.5-3.75,4.3-12.03,9.35-16.94,12.14l20.15-45.33c2.04-1.1,3.6.85,3.44,5.69Z"/>
  <path class="cls-13" d="M161.09,129.79c.9.75,34.75,1.68,34.91,1.43.42-.69-5.22-33.87-20.54-44.36-2.7-1.85-6.26-.66-8.08.72-.91.69-3.18,5.75-3.63,10.11-.45,4.37-3.23,31.62-2.66,32.1Z"/>
  <path class="cls-14" d="M174.45,86.09s-1.45,20.7-1.51,21.54c-.06.84,1.4,23.51,1.4,23.51l22.03,1.14s-1.87-9.2-2.65-11.57c-.18-.54-3.83-18.75-10.57-26.65-6.19-7.27-8.7-7.98-8.7-7.98Z"/>
  <path class="cls-14" d="M166.86,87.92s-1.89,18.3-1.88,19.45c.01,1.15-.31,23.31-.31,23.31l-4.69-1.05s1.42-14.39,1.54-15.65c.12-1.26,1.82-14.71,2.19-17.25.6-4.01,3.14-8.82,3.14-8.82Z"/>
  <path class="cls-5" d="M169.63,108.99l-19.68,8.91,11.6,25.63,19.68-8.91-11.6-25.63Z"/>
  <path class="cls-11" d="M155.73,117.1l9.33-4.23-1.28-2.82-9.32,4.23,1.28,2.82Z"/>
  <path class="cls-11" d="M156.57,113.31l1.15-.52-.59-1.31,2.79-1.26.59,1.3,1.15-.52-1.08-2.37-5.1,2.32,1.09,2.36Z"/>
  <path class="cls-9" d="M179.82,89.11c6.7,7.05,21.71,26.56,18.54,31.07-5.22,7.4-19.01,14.93-23.39,16.59-1.91.72-10.24-12.7-8.52-14.02,2.06-1.62,17.04-8.31,16.83-9.62-.12-.74-4.31-9.34-6.65-17.26-2.7-9.19,0-10.11,3.19-6.76Z"/>
  <path class="cls-9" d="M151.08,128.09c0,.51.16,1,.46,1.42.29.42.71.73,1.18.91-.48.71-.69,1.57-.6,2.42.23,1.51,2.7,1.82,2.7,1.82-.34.85-.42,1.78-.23,2.68.36,1.42,2.81,2.07,2.81,2.07.12.96.57,1.84,1.28,2.49,1.97,1.65,5.7.43,8.09-.32s8.43-5.1,9.68-5.81l-4.68-15.32s-11.63.33-14.31,1.6c-2.27,1.09-6.31,4.1-6.38,6.05Z"/>
  <path class="cls-10" d="M152.75,130.14c2.12-1.72,4.63-2.72,7.08-3.86.01,0,.02,0,.03,0,0,0,.02.01.02.02,0,.01,0,.02,0,.03,0,.01,0,.02-.02.03-2.45,1.11-4.65,2.68-7.05,3.88-.01,0-.03,0-.04,0-.01,0-.02-.01-.03-.03,0-.01-.01-.03,0-.04,0-.01,0-.03.02-.04Z"/>
  <path class="cls-10" d="M154.79,134.45c.52-.35,1.08-.62,1.67-.82.6-.25,1.21-.48,1.81-.71,1.24-.46,2.49-.88,3.75-1.28.05,0,.1.07.04.08-1.21.46-2.46.93-3.68,1.44l-1.81.77c-.55.29-1.14.51-1.74.67-.02,0-.04-.01-.05-.02-.01-.01-.02-.03-.03-.05,0-.02,0-.04,0-.05s.02-.03.03-.04Z"/>
  <path class="cls-10" d="M157.44,139.4c.47-.31.99-.53,1.54-.65l1.71-.6c1.13-.4,2.26-.81,3.38-1.25.05,0,.1.06.04.08-1.14.45-2.26.93-3.4,1.37l-1.68.65c-.49.24-1.02.4-1.57.45l-.02-.05Z"/>
  <path class="cls-14" d="M171.36,119.73l8.8,15.57s16.73-9.95,18.97-15.79c2.01-5.26-14.83-26.29-18.23-29.85-3.4-3.56-6.39-3.87-5.26,2.64,1.13,6.51,7.11,20.57,7.13,20.74.02.18-11.42,6.68-11.42,6.68Z"/>
  <path class="cls-10" d="M179.53,124.99c-.65-1.21-3.29-5.89-4.07-6.97,0-.03-.08,0-.07.04.5,1.25,3.02,6.05,3.68,7.26,1.3,2.37,2.57,4.78,4.09,7.03,0,0,0,.01.01.02,0,0,.01,0,.02,0,0,0,.01,0,.02,0,0,0,.01,0,.02,0,0,0,.01,0,.02-.01,0,0,0-.01,0-.02s0-.01,0-.02c0,0,0-.01,0-.02-1.08-2.53-2.43-4.92-3.73-7.31Z"/>
  <path class="cls-10" d="M176.54,96.11s-.09,0-.08,0c.29,1.4.6,2.79,1,4.17-.31-.7-.6-1.4-.91-2.11,0-.05-.09,0-.08.04.3.95.69,1.86,1.17,2.73.24.83,4.68,11.49,4.92,12.1-2.01.98-3.75,2.1-5.7,3.19-.95.53-1.9,1.08-2.84,1.63-1,.51-1.96,1.08-2.89,1.7-.05.04.16.28.25.4.08.12.13.04.1,0-.03-.06-.05-.12-.07-.18.48-.19,2.37-1.28,2.85-1.55l2.86-1.6c1.94-1.09,5.95-3.35,5.94-3.38-.13-.57-4.66-10.32-6.52-17.13Z"/>
  <path class="cls-10" d="M182.3,133.98c1.15-.78,2.29-1.56,3.42-2.36,1.12-.8,2.26-1.59,3.36-2.42,1.1-.83,2.21-1.66,3.3-2.51,1.09-.85,2.15-1.74,3.24-2.6-.96,1.01-1.97,1.96-3.02,2.87-1.05.91-2.14,1.77-3.25,2.61-1.11.84-2.26,1.62-3.44,2.36-1.16.75-2.37,1.43-3.6,2.06Z"/>
  <path class="cls-9" d="M168.8,92.78c2.03.51,5.57-2.55,6.98-5.04.09-.18-.53-7.08-.51-8.47,0-.28-8.71,1.99-8.71,1.99.47,1.73.73,3.52.76,5.32-.03.2-.51,5.71,1.48,6.21Z"/>
  <path class="cls-10" d="M167.3,86.57v.27c4.98-.56,7.15-3.38,8.08-5.44-.07-.96-.12-1.77-.11-2.15,0-.28-8.71,1.98-8.71,1.98.46,1.74.71,3.53.74,5.34Z"/>
  <path class="cls-13" d="M167.27,87.03l2.16,5.11,6.29-6.65,1.85,2.06s-6.08,10.46-6.13,10l-2.2-4.39-3.02,3.15.11-7.76.95-1.51Z"/>
  <path class="cls-10" d="M166.06,92.47c.06-1.28.08-2.57.21-3.85,0-.04.08-.07.09,0,.28,1.21,0,6.13.04,7.3.13-.13,2.79-2.77,2.82-2.73.48.7,2.09,3.9,2.2,4.19.96-1.66,4.65-7.71,5.79-9.28,0,0,0-.01.01-.01,0,0,0,0,.02,0,0,0,.01,0,.02,0,0,0,.01,0,.02,0,0,0,.01,0,.01.01,0,0,0,.01,0,.02,0,0,0,.01,0,.02,0,0,0,.01,0,.02-.84,1.75-5.72,9.89-5.79,9.87-.85-1.51-1.62-3.07-2.3-4.66-.45.57-3.13,3.54-3.15,3.35-.07-1.41-.06-2.82.02-4.23Z"/>
  <path class="cls-9" d="M176.52,67.75c1.15,3.02.18,11.97-1.86,14.11-2.96,3.09-8.12,3.74-10.83.11-2.62-3.51-1.14-15.19,1.17-17.16,3.4-2.93,9.81-1.52,11.53,2.94Z"/>
  <path class="cls-10" d="M168.52,73.42s.04.03.04.06c-.07.6-.05,1.36.5,1.62,0,0,0,.04,0,0-.7-.1-.71-1.1-.54-1.68Z"/>
  <path class="cls-10" d="M169.14,72.81c1.02,0,.93,2.05,0,2.04-.93,0-.85-2.06,0-2.04Z"/>
  <path class="cls-10" d="M165.04,73.19s-.05,0-.05.05c0,.6-.13,1.36-.71,1.54,0,0,0,.04,0,0,.71-.02.85-.99.76-1.6Z"/>
  <path class="cls-10" d="M164.51,72.52c-1.02-.12-1.21,1.91-.25,2.03.96.12,1.1-1.92.25-2.03Z"/>
  <path class="cls-10" d="M170.01,71.92c-.27-.08-.51-.21-.78-.31-.29-.07-.55-.24-.73-.48-.04-.09-.06-.18-.04-.28.02-.09.07-.18.14-.24.16-.11.34-.17.53-.18.19,0,.38.03.55.12.37.12.69.38.88.72.04.08.05.17.04.26-.01.09-.05.17-.1.24-.06.07-.13.12-.22.14-.09.03-.18.03-.26,0Z"/>
  <path class="cls-10" d="M163.76,71.45c.28-.04.55-.1.82-.17.3-.02.58-.14.8-.34.06-.08.09-.17.09-.26s-.03-.19-.09-.26c-.14-.13-.31-.23-.5-.27-.19-.04-.38-.04-.56.02-.38.06-.74.25-.99.55-.05.07-.09.16-.09.25,0,.09.01.18.06.26.04.08.11.14.19.18.08.04.17.06.26.05Z"/>
  <path class="cls-10" d="M166.55,78.03c.27.35.62.62,1.02.8.22.09.47.1.7.04.5-.13.52-.6.43-.99-.05-.21-.13-.41-.22-.6-.55.45-1.22.71-1.93.76Z"/>
  <path class="cls-4" d="M167.59,78.84c.22.09.47.1.7.04.5-.13.52-.6.43-.99-.27.01-.52.11-.73.28-.21.17-.35.41-.4.67Z"/>
  <path class="cls-10" d="M175.83,74.71c-1.54-.05-1.49-3.8-1.49-3.8,0,0-2.35-.36-3.59-3.54,0,0-2.96,1.98-5.5,1.58-3.98-.6-4.02-5.75-2.56-6.84,2.06-1.54,5.86.51,5.86.51,0,0,5.61-1.74,7.41,2.05.73.03,1.43.34,1.94.86.52.52.81,1.22.83,1.96.25,2.79-1.76,7.25-2.9,7.21Z"/>
  <path class="cls-10" d="M174.89,71.34c-1.15-.16-2.21-.7-3.02-1.53-.43-.45-.74-1-.91-1.6-.17-.6-.2-1.23-.08-1.84,0-.07-.08-.08-.1,0-.16.64-.18,1.31-.05,1.95.13.65.4,1.26.79,1.79.39.5.91.89,1.5,1.13.59.24,1.23.32,1.86.23.08-.03.09-.09.02-.13Z"/>
  <path class="cls-10" d="M178.89,65.86c-.8-.96-2-1.08-3.17-1.01-.07,0-.06.11,0,.1.58-.04,1.17.08,1.69.35.52.26.96.67,1.28,1.16.6.91.52,2.09.31,3.12-.4,1.99-1.52,3.77-3.15,4.98,0,0,0,.07.03.04.93-.62,1.72-1.42,2.33-2.36.61-.94,1.02-1.99,1.21-3.09.17-1.1.22-2.41-.52-3.3Z"/>
  <path class="cls-10" d="M168.7,62.81c-.52-.79-1.31-1.36-2.22-1.6-1.11-.27-2.27-.12-3.27.42-.4.23-.73.56-.96.96-.23.4-.35.85-.35,1.31.03,1.06.43,2.08,1.12,2.89,0,0,.05,0,.04,0-.57-.77-.89-1.71-.9-2.67,0-.45.13-.89.37-1.28.24-.38.58-.69.99-.89,1.6-.77,3.98-.71,5.09.91.05.05.14,0,.1-.05Z"/>
  <path class="cls-9" d="M175.04,74.91s1.86-2.98,3.2-2.33.05,4.88-1.45,5.53c-.19.1-.39.15-.6.17-.21.01-.42-.01-.62-.08-.2-.07-.38-.18-.54-.32-.16-.14-.28-.31-.37-.5l.38-2.47Z"/>
  <path class="cls-10" d="M177.84,73.8s.03,0,0,.04c-.48.27-.9.64-1.22,1.08-.33.44-.56.95-.68,1.48.06-.11.14-.21.23-.29.1-.08.21-.13.33-.16s.25-.03.37,0c.12.02.24.08.34.15v.06c-.19-.05-.4-.04-.58.03-.19.07-.35.2-.46.36-.18.28-.34.57-.46.88-.04.1-.22.05-.19-.05-.11-1.4.85-3.37,2.32-3.57Z"/>
  <path class="cls-10" d="M89.02,105.91l-4.16-.1c-1.1-2.4-1.43-5.09-.94-7.69.1-.6-1.49,2.78-1.17,7.63-4.39-.11-10.36-.27-15.56-.45,0-2.04-.09-3.93-.09-3.93-.23,1.33-.58,2.63-1.05,3.9l-2.07-.08c.17-2.89.19-5.79.04-8.68-.53,3-1.55,5.89-3.02,8.55-3.31-.15-5.48-.31-5.33-.46,5.29-5.49,1.78-8.97,3.46-13.95,2.01-5.97,7.26-6.65,7.34-11.22.07-3.71-.06-10.44,4.68-11.64,1.33-1.17,2.97-1.93,4.72-2.18,1.75-.25,3.54.03,5.14.79,7.26,3.19,3.75,14.45,4.14,16.8.55,3.35,2.07,4.6,3.06,8.43.99,3.84-.86,6.34-1.21,8.92-.35,2.58,2.84,5.39,2.01,5.35Z"/>
  <path class="cls-10" d="M55.57,103.76c.74-.96,1.33-2.03,1.77-3.16.36-1.12.41-2.32.16-3.47-.2-1.22-.35-2.45-.42-3.68-.07-1.29.11-2.58.55-3.79.47-1.21,1.21-2.3,2.15-3.18.92-.84,1.92-1.6,2.96-2.27,1.01-.64,1.94-1.42,2.75-2.3.78-.93,1.3-2.05,1.49-3.24-.01,1.26-.41,2.48-1.13,3.51-.76,1-1.66,1.88-2.67,2.61-.97.71-1.89,1.48-2.76,2.31-.82.82-1.46,1.8-1.88,2.89-.38,1.1-.55,2.26-.51,3.43,0,1.21.17,2.42.27,3.63.05.63.05,1.26,0,1.89-.06.65-.23,1.28-.51,1.86-.55,1.11-1.3,2.11-2.2,2.96Z"/>
  <path class="cls-10" d="M84.99,70.85c.44,1.45.7,2.95.79,4.46.11,1.51.15,3.02.18,4.52l.05,2.25c0,.72.08,1.44.23,2.15.36,1.41.98,2.73,1.81,3.92.41.65.78,1.34,1.11,2.04.32.72.56,1.48.71,2.25.13.77.2,1.54.21,2.32.02.78-.07,1.57-.24,2.33-.17.76-.42,1.48-.64,2.19-.22.7-.37,1.42-.45,2.15-.06.73.06,1.47.34,2.15.28.68.72,1.28,1.28,1.76-.65-.43-1.18-1.02-1.54-1.7-.37-.69-.55-1.45-.55-2.23.03-.77.13-1.54.31-2.29.17-.75.39-1.46.51-2.18.22-1.44.17-2.9-.13-4.32-.15-.7-.38-1.38-.67-2.04-.32-.66-.67-1.3-1.07-1.92-.41-.65-.79-1.31-1.14-2-.35-.71-.6-1.46-.76-2.24-.14-.77-.2-1.55-.18-2.33,0-.76,0-1.51.04-2.27.04-1.5.11-3.02.11-4.5.05-1.5-.04-3-.29-4.48Z"/>
  <path class="cls-2" d="M69.07,91.45c-8.37,5.37-23.25,21.11-21.87,25.18,2.79,8.2,13.86,19.11,16.77,21.21,1.69,1.21,14.02-9.98,12.41-11.49-1.88-1.81-13.47-11.49-13.56-12.48-.06-.77,5.77-9.39,10.02-16.68,4.93-8.47.22-8.27-3.77-5.74Z"/>
  <path class="cls-2" d="M61.45,134.34c1.02,2.09,2.17,4.11,3.46,6.05,1.08,1.49,4.29,5.7,6.05,4.68,1.21-.7-.4-3.39-1.49-5.32-.6-1.02-.93-2.73-.25-3.08,1.21-.6,2.63,2.06,3.41,4.02,1.52,3.79,2.95,9.6,5.76,9.51,1.06,0,1.07-1.59.72-3.39.91,2.49,2.09,4.88,3.26,4.89.68,0,1.04-.42,1.21-1.11.14.28.36.51.64.66.27.15.59.22.9.2,1.05-.16,1.46-1.26,1.54-2.67.12.07.25.12.39.13.14.01.28-.01.4-.07,2.67-.9.74-11.01-.99-13.16-5.06-6.33-12.1-10.95-12.1-10.95-3.96.07-12.93,9.61-12.92,9.61Z"/>
  <path class="cls-10" d="M75.1,135.68c1.31,1.38,2.3,3.03,2.9,4.84.67,2.13.76,4.39,1.21,6.56,0,.01,0,.02-.02.02,0,0-.02,0-.03,0s-.02,0-.03,0c0,0-.01-.01-.02-.02-.18-1.07-.46-2.13-.68-3.2-.22-1.07-.39-2.1-.68-3.13-.5-1.87-1.42-3.6-2.69-5.06,0,0,.02-.02.04-.01Z"/>
  <path class="cls-10" d="M78.32,133.96c1.35,1.69,2.53,3.51,3.51,5.44,1,2.14,1.21,4.53,1.46,6.85.15,1.39.26,2.79.34,4.19,0,.05-.08.08-.09,0-.22-2.38-.52-4.76-.89-7.11-.33-2.19-1.09-4.3-2.23-6.21-.66-1.09-1.4-2.12-2.14-3.15-.01-.01.02-.04.03-.02Z"/>
  <path class="cls-10" d="M81.87,133.01c1.33,1.57,2.5,2.93,3.24,4.88.77,2.28,1.25,4.64,1.43,7.04.11,1.29.19,2.58.24,3.87,0,.05-.09.06-.1,0-.18-2.88-.55-5.74-1.09-8.57-.24-1.35-.69-2.66-1.33-3.87-.69-1.17-1.49-2.29-2.37-3.33,0,0-.02-.01-.02,0Z"/>
  <path class="cls-5" d="M73.6,123.59l-12.15,13.98s-15.5-16.38-14.91-21.94c.59-5.57,14.06-19.36,21.58-24.08,7.51-4.72,8.43-.37,5.3,5.63-3.13,6-10.12,16.68-9.96,16.94.16.26,10.14,9.48,10.14,9.48Z"/>
  <path class="cls-16" d="M73.42,97.18c-3.13,6-10.12,16.66-9.96,16.94.16.27,10.14,9.46,10.14,9.46l-12.15,13.98s-7.52-7.95-11.89-14.65l19.96-32.19c6.21-3.33,6.82.85,3.89,6.47Z"/>
  <path class="cls-10" d="M65.07,128.1c.88-.92,1.72-1.86,2.58-2.79.41-.45.83-.89,1.21-1.36.38-.47.9-.97,1.29-1.5,0,0,0-.02,0-.03,0-.01,0-.02-.01-.03,0,0-.02,0-.03,0,0,0-.02,0-.03.01-.5.41-.96.91-1.43,1.36-.47.45-.87.85-1.29,1.28-.9.9-1.81,1.82-2.66,2.72-1.74,1.82-3.42,3.73-5.09,5.64,0,0,0,.02,0,.03,0,0,0,.02.01.03,0,0,.02.01.03.01.01,0,.02,0,.03,0,1.84-1.76,3.64-3.54,5.38-5.37Z"/>
  <path class="cls-2" d="M115.95,272.48c-1.31.39-38.38-.85-39.76-1.81-.53-.35-.66-5.77-.6-12.31v-.2c0-1.35,0-2.74.04-4.14v-.61c.15-9.44.5-19.24.5-19.24l24.48.6-.82,19.19-.04.76-.23,3.94v.41s13.97,6.82,15.38,8.02c1.41,1.2,2.37,5,1.06,5.38Z"/>
  <path class="cls-7" d="M105.58,261.73c-.09-.03-.13-.05-.14-.08l.14.08Z"/>
  <path class="cls-10" d="M75.55,261.64c0,5,.19,8.76.6,9.07,1.38.94,38.45,2.19,39.76,1.82,1.31-.38.29-4.15-1.11-5.34-.6-.52-3.57-2.09-6.73-3.71,3.52,2.75,2.83,5.54-32.53-1.84Z"/>
  <path class="cls-3" d="M62.53,126.3s12.9,64.78,13.81,69.56c.15.77-3.41,61.32-3.41,61.32l28.48.7s.4-55.86-.48-63.15c-1.15-9.56-15.76-68.44-15.76-68.44h-22.64Z"/>
  <path class="cls-10" d="M75.2,251.11c4.08.05,2.91,0,6.99.08,2,.05,15.12.38,16.97.75.04,0,.04.08,0,.09-1.88.24-14.98-.32-16.98-.41-4.07-.17-2.9-.17-6.97-.39,0,0-.02,0-.02,0,0,0-.01,0-.02-.01,0,0-.01-.01-.01-.02,0,0,0-.01,0-.02s0-.02,0-.02c0,0,0-.01.01-.02,0,0,.01,0,.02-.01,0,0,.02,0,.02,0Z"/>
  <path class="cls-10" d="M79.68,196.07c-.29-3.57-1.11-7.11-1.77-10.62-.67-3.51-1.37-7.2-2.05-10.8-1.35-7.13-2.68-14.26-4.05-21.38-1.55-8.06-3.75-15.93-5.38-23.96-.04-.19-.31-.1-.28.08,2.52,14.29,5.88,28.36,8.58,42.63l2.05,10.8c.66,3.51,1.41,7.01,1.98,10.54.31,1.83.44,3.69.4,5.54-.05,1.74-1.55,45.46-1.75,49.55,0,.05.08.06.09,0,.96-7.19,2.46-48.85,2.18-52.39Z"/>
  <path class="cls-10" d="M82.46,126.3l-8.02,59.75c-3.83-19.36-11.88-59.75-11.88-59.75h19.9Z"/>
  <path class="cls-2" d="M72.87,274.09c-1.32.33-38.28-2.78-39.61-3.79-.51-.38-.38-5.79,0-12.32,0-.07,4.89-24.11,4.89-24.11l24.73,2-5.79,24.04s13.6,7.52,14.93,8.78c1.33,1.26,2.18,5.08.85,5.4Z"/>
  <path class="cls-10" d="M33.26,270.3c1.33,1.01,38.29,4.12,39.61,3.79,1.32-.33.5-4.13-.83-5.4-.74-.69-5.12-3.24-8.95-5.41,4.56,3.12,10.53,8.69-30.03-1.62-.21,4.78-.21,8.34.2,8.64Z"/>
  <path class="cls-7" d="M63.06,262.83c-.08-.04-.13-.06-.13-.08l.13.08Z"/>
  <path class="cls-3" d="M59.03,258.9l-27.22-3.22s13.99-53.95,14.62-56.26c.97-3.51,3.15-31.82,5.26-49.32,0,0-4-9.47,3.48-23.79h30.02s-2.01,13.62-5.44,22.26c0,0,.64-.49-3.41,1.74,0,0-2.49,44.46-4.3,52.88-1.51,6.91-13,55.71-13,55.71Z"/>
  <path class="cls-10" d="M34.47,250.21c4.06.38,2.9.21,6.96.63,1.98.21,15.03,1.57,16.85,2.09.04,0,.03.08,0,.08-1.89.1-14.91-1.5-16.89-1.74-4.05-.5-2.88-.4-6.92-.95,0,0-.02,0-.03,0,0,0-.02,0-.03-.01,0,0-.01-.01-.02-.02,0,0,0-.02,0-.03,0,0,0-.02,0-.03,0,0,.01-.02.02-.02,0,0,.02,0,.03,0,0,0,.02,0,.03,0Z"/>
  <path class="cls-10" d="M80.87,147.95c-2.7.98-5.32,2.2-7.81,3.63-.02.01-.03.03-.04.05,0,.02,0,.04,0,.06,0,.02.02.04.04.04.02,0,.04.01.06,0,2.63-1.13,5.32-2.21,7.86-3.48.03-.02.05-.06.06-.09,0-.04,0-.07,0-.11-.01-.03-.04-.06-.07-.08-.03-.02-.07-.03-.11-.03Z"/>
  <path class="cls-10" d="M81.7,129.88c0-.09-.17-.11-.17,0,0,2.94-.14,5.87-.44,8.79-.12,1.35-1.21,8.85-3.56,8.3-.39-.09-.6-.48-.65-1.07,0-.78.11-1.55.31-2.3.26-1.57.47-3.14.6-4.72.28-2.95.24-5.92-.1-8.86,0-.02-.01-.03-.03-.04-.01,0-.03-.02-.05-.02s-.03,0-.05.02c-.01.01-.02.03-.03.04.08,4.09-.14,8.18-.68,12.23-.3,1.95-1.28,4.88.76,5.18,2.04.3,3.42-4.6,3.67-5.95.64-3.83.77-7.73.41-11.6Z"/>
  <path class="cls-10" d="M77.59,147.17c-.21.5-.38,1.02-.53,1.55-.15.41-.22.85-.21,1.29,0,.09.11.09.16.04.24-.38.42-.8.54-1.24.18-.48.37-.96.53-1.45.03-.07.02-.14,0-.21-.03-.07-.08-.12-.15-.14-.07-.03-.14-.02-.21,0-.07.03-.12.08-.14.15Z"/>
  <path class="cls-10" d="M57.12,127.74c-1.68,2.79-2.79,5.88-3.29,9.1-.47,3.24-.37,6.54.31,9.74.4,1.87.55,3.79.44,5.71-.14,1.95-.41,3.9-.6,5.85l-1.31,11.45c-.85,7.6-2.36,19.42-3.36,27-.49,3.72-10.89,50.62-11.17,51.54,0,.01,0,.03.01.04,0,.01.02.02.03.02.01,0,.03,0,.04,0,.01,0,.02-.02.03-.03,2.47-7.2,10.6-45.28,11.77-52.63.6-3.74.99-7.52,1.42-11.29.43-3.77.87-7.63,1.29-11.44.43-3.82.86-7.55,1.28-11.33.21-1.91.42-3.82.6-5.73.26-1.82.39-3.65.4-5.49-.15-1.82-.42-3.62-.8-5.4-.26-1.65-.36-3.33-.28-5,.14-3.35.94-6.63,2.33-9.68.34-.75.53-1.53.94-2.24.17-.28.04-.38-.08-.18Z"/>
  <path class="cls-10" d="M65.97,129.01c-.48,1.27-1.03,2.52-1.61,3.74-.47,1.13-1.15,2.16-2,3.02-.88.74-1.91,1.27-3.02,1.54-.64.18-1.3.33-1.96.43-.68.07-1.34.2-2,.37-.03,0-.05.02-.07.05-.02.02-.03.05-.03.08s0,.06.03.08c.02.02.04.04.07.05.71.11,1.44.12,2.15.05.69-.04,1.38-.13,2.05-.28,1.24-.27,2.38-.85,3.33-1.69.92-.94,1.61-2.08,2.03-3.32.54-1.32.94-2.69,1.21-4.09.03-.11-.13-.14-.18-.04Z"/>
  <path class="cls-10" d="M76.32,150.28c0-.08-.15-.1-.17,0-.24,1.03-.64,5.31-.74,6.39-.21,2.17-.35,4.35-.51,6.52-.33,4.29-.93,19.91-.96,21.13,0,.07.11.07.13,0,.13-1.07.84-11.64,1-13.79.33-4.32.65-8.64.94-12.96.08-1.22.39-6.09.31-7.3Z"/>
  <path class="cls-10" d="M79.75,148.49s0,.03,0,.04c0-.01,0-.03,0-.04ZM80.87,147.95c-2.7.98-5.32,2.2-7.81,3.63-.02.01-.03.03-.04.05,0,.02,0,.04,0,.06,0,.02.02.04.04.04.02,0,.04.01.06,0,2.63-1.13,5.32-2.21,7.86-3.48.03-.02.05-.06.06-.09,0-.04,0-.07,0-.11-.01-.03-.04-.06-.07-.08-.03-.02-.07-.03-.11-.03ZM81.7,129.88c0-.09-.17-.11-.17,0,0,2.94-.14,5.87-.44,8.79-.12,1.35-1.21,8.85-3.56,8.3-.39-.09-.6-.48-.65-1.07,0-.78.11-1.55.31-2.3.26-1.57.47-3.14.6-4.72.28-2.95.24-5.92-.1-8.86,0-.02-.01-.03-.03-.04-.01,0-.03-.02-.05-.02s-.03,0-.05.02c-.01.01-.02.03-.03.04.08,4.09-.14,8.18-.68,12.23-.3,1.95-1.28,4.88.76,5.18,2.04.3,3.42-4.6,3.67-5.95.64-3.83.77-7.73.41-11.6ZM77.58,147.17c-.21.5-.38,1.02-.53,1.55-.15.42-.22.85-.2,1.29,0,.09.11.09.16.04.24-.38.42-.8.54-1.24.18-.48.37-.96.53-1.45.03-.07.02-.14,0-.21-.03-.07-.08-.12-.15-.14-.07-.03-.14-.02-.21,0-.07.03-.12.08-.14.15h-.01ZM65.96,129.02c-.48,1.27-1.03,2.52-1.61,3.75-.47,1.13-1.15,2.15-2,3.02-.88.74-1.91,1.27-3.02,1.54-.64.18-1.3.33-1.96.43-.68.07-1.34.2-2,.37-.03,0-.05.03-.07.05s-.03.05-.03.08,0,.06.03.08c.02.02.04.04.07.05.71.11,1.44.12,2.15.05.69-.03,1.38-.13,2.05-.28,1.24-.27,2.38-.85,3.33-1.69.92-.94,1.61-2.07,2.03-3.32.54-1.32.94-2.69,1.21-4.09.04-.12-.12-.15-.17-.05h0ZM76.31,150.29c0-.08-.15-.1-.17,0-.24,1.04-.64,5.31-.74,6.39-.21,2.17-.35,4.35-.51,6.52-.33,4.29-.93,19.91-.96,21.14,0,.07.11.07.13,0,.13-1.07.84-11.64,1-13.79.33-4.32.65-8.64.94-12.96.09-1.23.4-6.1.32-7.31h-.01Z"/>
  <path class="cls-5" d="M84.9,116.75l.42,9.51h-30.18s4.23-25.11,12.54-33.75c4.15-4.33,8.9-3.9,11.88-.76.76.8,7.42,11.08,8.29,15.73.76,4.14-2.95,9.27-2.95,9.27Z"/>
  <path class="cls-10" d="M76.53,92.88c.99,1.97,1.93,3.97,2.82,5.99.88,2.03,1.75,4.06,2.47,6.16.37,1.05.69,2.12.94,3.2.14.56.2,1.13.21,1.7,0,.57-.06,1.14-.17,1.7-.24,1.11-.62,2.18-1.13,3.19-.5,1.01-1.09,1.96-1.77,2.85l.06-.16c-.04,1.41-.14,2.81-.21,4.23-.07,1.42-.17,2.81-.28,4.24-.04-1.41-.06-2.82-.06-4.24v-4.31l.05-.08c1.32-1.72,2.24-3.72,2.72-5.83.53-2.11-.23-4.23-.9-6.32s-1.47-4.14-2.29-6.19c-.82-2.05-1.62-4.1-2.47-6.14Z"/>
  <path class="cls-10" d="M82.57,101.73c0,.13-.03.26-.12.36-.08.1-.2.17-.34.19-.06,0-.13,0-.19-.03-.06-.02-.11-.06-.16-.1-.05-.05-.08-.1-.11-.16s-.04-.12-.03-.19c-.01-.13.03-.26.11-.37.08-.1.2-.17.33-.19.06,0,.13,0,.19.03.06.02.12.06.16.1.05.04.08.1.11.16.02.06.04.12.04.19Z"/>
  <path class="cls-10" d="M84.26,107.6c0,.13-.03.26-.12.36-.08.1-.2.17-.34.19-.06,0-.13-.01-.19-.03-.06-.02-.11-.06-.16-.1-.05-.04-.08-.1-.11-.16-.02-.06-.04-.12-.04-.19,0-.13.03-.26.12-.36.08-.1.2-.17.34-.19.06,0,.13,0,.19.03.06.02.12.06.16.1.05.05.08.1.11.16.02.06.04.12.03.19Z"/>
  <path class="cls-10" d="M83.83,113.47c.01.13-.03.26-.11.36-.08.1-.2.17-.33.19-.06,0-.13,0-.19-.03-.06-.02-.11-.06-.16-.1-.05-.04-.08-.1-.11-.16-.02-.06-.04-.12-.04-.19-.01-.13.03-.26.11-.36.08-.1.2-.17.33-.19.06,0,.13,0,.19.03.06.02.12.06.16.1.05.05.08.1.11.16.02.06.03.12.03.19Z"/>
  <path class="cls-10" d="M81.64,118.1c0,.13-.03.26-.12.37-.08.1-.2.17-.34.19-.06,0-.13,0-.19-.03-.06-.02-.11-.06-.16-.11-.05-.04-.08-.1-.11-.16-.02-.06-.04-.12-.04-.19-.01-.13.03-.26.12-.37.08-.1.21-.17.34-.19.06,0,.13,0,.19.03s.11.06.16.1c.05.05.08.1.11.16.02.06.04.12.04.19Z"/>
  <path class="cls-10" d="M81.64,123.45c.01.13-.03.26-.11.36-.08.1-.2.17-.33.19-.06,0-.13,0-.19-.03s-.11-.06-.16-.1c-.05-.04-.08-.1-.11-.16-.02-.06-.04-.12-.04-.19-.01-.13.03-.26.11-.37.08-.1.2-.17.33-.19.06,0,.13,0,.19.03s.12.06.16.1c.05.05.08.1.11.16.02.06.03.12.03.19Z"/>
  <path class="cls-2" d="M72.56,90.74c.15.6,3.09,4.41,5.82,4.23.89-.07.76-4.93.76-4.93l.07-.36,1.01-5.06-5.99-3.63-.87-.48s-.19,1.4-.4,3.15l-.04.25c0,.1,0,.19-.04.28-.04.26-.07.53-.1.79-.02.27-.05.4-.07.6-.02.21-.04.42-.06.64-.14,1.5-.17,3.01-.11,4.51Z"/>
  <path class="cls-10" d="M72.96,83.59c.54,1.4,1.38,2.67,2.46,3.71,1.08,1.04,2.37,1.84,3.79,2.33l1.01-5.06-5.99-3.63-.86-.48s-.19,1.37-.4,3.12Z"/>
  <path class="cls-2" d="M87.61,77.28c.67,9.03-4.67,10.44-6.62,10.59-1.77.13-7.8.34-9.39-8.58-1.59-8.92,2.42-12.1,6.42-12.58,4-.48,8.92,1.54,9.59,10.57Z"/>
  <path class="cls-10" d="M86.24,75.64c-.22,0-.42-.05-.6-.08-.22,0-.43-.07-.6-.2-.05-.05-.08-.12-.08-.19,0-.07.01-.14.05-.2.1-.11.22-.19.36-.23.14-.04.28-.05.42-.02.29.02.57.15.77.36.05.05.07.12.08.19,0,.07,0,.14-.04.2-.03.06-.09.11-.15.14-.06.03-.13.04-.21.03Z"/>
  <path class="cls-10" d="M80.12,75.91c.2-.05.41-.1.6-.18.23-.03.44-.14.6-.3.04-.06.06-.13.05-.21,0-.07-.04-.14-.09-.19-.11-.09-.25-.15-.39-.17-.14-.02-.29,0-.42.05-.29.06-.54.23-.71.48-.03.06-.05.12-.05.18,0,.06.02.13.06.18.04.05.09.1.14.12.06.03.12.04.19.03Z"/>
  <path class="cls-10" d="M81.61,77.56s-.05.03-.04.05c.08.6.08,1.34-.46,1.6,0,0,0,.04,0,.04.68-.17.68-1.13.5-1.69Z"/>
  <path class="cls-10" d="M80.99,76.97c-1,.03-.87,2.04.06,2.01.93-.03.79-2.03-.06-2.01Z"/>
  <path class="cls-10" d="M80.6,77.1c-.16.13-.33.34-.53.37-.21.03-.44-.16-.6-.35,0,0-.04,0,0,.03,0,.38.19.77.6.8.41.03.6-.33.7-.73-.03-.07-.1-.17-.17-.12Z"/>
  <path class="cls-10" d="M85.05,77.03s.05.03.05.05c0,.6.14,1.34.71,1.51v.04c-.7-.05-.85-1-.76-1.6Z"/>
  <path class="cls-10" d="M85.56,76.36c1-.13,1.21,1.87.27,1.99-.94.12-1.11-1.88-.27-1.99Z"/>
  <path class="cls-10" d="M86,76.45c.16.09.34.27.53.26.19,0,.36-.24.48-.46h.04c.05.38-.04.79-.4.9-.36.11-.6-.21-.74-.57-.02-.05.02-.16.09-.13Z"/>
  <path class="cls-10" d="M84.36,80.37s.2.91.24,1.36c0,.04-.1.07-.25.08-.37.1-.76.09-1.12-.01-.37-.11-.7-.31-.96-.59-.04-.04,0-.09.06-.07.59.34,1.27.48,1.94.4,0-.13-.4-1.56-.33-1.57.34,0,.68.06,1.01.15-.36-1.92-1.03-3.77-1.36-5.7,0-.01,0-.03.01-.04,0-.01.02-.02.03-.02.01,0,.02,0,.04,0,.01,0,.02.01.03.02.77,1.95,1.35,3.98,1.72,6.05.04.26-.89.02-1.07-.06Z"/>
  <path class="cls-10" d="M71.71,79.93c.59-.26,1.1-.67,1.49-1.19.38-.52.63-1.13.7-1.77,1.6-.63,3.01-1.67,4.07-3.02-.07.18-.55,1.51-.82,2.18,5.77-.88,7.69-5.2,7.69-5.2,1.06,1.04,1.88,2.32,2.38,3.72,0,0,.16-3.51-1.57-5.93-.56-.84-1.33-1.51-2.23-1.96-.9-.44-1.91-.64-2.92-.56-1.4-.39-2.89-.4-4.3-.02-1.41.38-2.69,1.13-3.7,2.18-3.87,3.91-.8,11.58-.8,11.58Z"/>
  <path class="cls-10" d="M81.55,75.3c-.94.47-1.94.8-2.98.97,1.63-.39,3.12-1.23,4.3-2.42.5-.51.93-1.07,1.29-1.69.42-.66.7-1.39.83-2.16,0-.06.1-.05.09,0-.05.77-.23,1.53-.53,2.24-.33.69-.78,1.32-1.34,1.86-.5.47-1.06.86-1.67,1.17"/>
  <path class="cls-2" d="M73.3,79.24s-1.94-2.85-3.23-2.16c-1.29.69.14,4.8,1.64,5.38.19.09.39.14.6.14.21,0,.41-.03.6-.1.19-.07.37-.19.52-.33.15-.14.27-.32.35-.51l-.47-2.43Z"/>
  <path class="cls-8" d="M72.67,82.15c0,.08-.04.15-.09.21-.05.06-.12.11-.19.13s-.16.02-.23,0c-.08-.02-.14-.07-.19-.13-.05-.06-.08-.13-.09-.21,0-.08,0-.16.04-.23s.09-.13.16-.17c.07-.04.15-.05.23-.05.11.01.2.06.27.14.07.08.1.19.09.29Z"/>
  <path class="cls-13" d="M79.23,90.45l-1.77,4.1-5.03-5.33-1.49,1.65s4.84,8.4,4.9,8.03l1.77-3.53,2.42,2.52-.08-6.22-.73-1.22Z"/>
  <path class="cls-10" d="M80.18,94.82c-.05-1.03-.07-2.06-.16-3.08,0-.04-.06-.05-.07,0-.22.99,0,4.91-.05,5.86-.1-.11-2.24-2.23-2.26-2.19-.38.56-1.68,3.13-1.77,3.36-.77-1.34-3.71-6.19-4.63-7.46,0,0-.01,0-.02-.01,0,0-.02,0-.02,0,0,0-.01.01-.02.02s0,.02,0,.02c.67,1.4,4.58,7.94,4.64,7.92.68-1.21,1.3-2.46,1.85-3.73.78.95,1.62,1.85,2.52,2.69.06-1.13.06-2.27,0-3.41Z"/>
  <path class="cls-2" d="M66.94,100.84c1.96,12.21,4.32,27.22,7.56,29.79,5.05,4.04,19.72,7.6,25.13,8.01,2.25.17,6.01-17.21,3.59-17.37-5.14-.32-16.22-.68-17.41-1.57-1.19-.88-6.81-12.1-11.28-20.88-5.38-10.56-8.72-5.08-7.59,2.01Z"/>
  <path class="cls-2" d="M100.22,121.12s6.82.25,11.18.93c2.42.38,6.56,1.71,8.23,2.81,2.49,1.64,11.84,10.08,9.84,12.39-1.82,2.09-8.92-6.18-8.92-6.18,0,0,7.92,7.71,5.27,9.83-2.64,2.12-9.43-8.29-9.43-8.29,0,0,7.95,8.11,4.89,9.86-2.32,1.32-9.01-7.76-9.01-7.76,0,0,6.79,7.01,4.46,8.47-2.57,1.62-9.27-6.38-9.27-6.38-6.54,2.73-10.63,2.18-13.53.85,0,0,4-11.67,6.27-16.53Z"/>
  <path class="cls-10" d="M117.99,128.24c.96.87,1.94,1.75,2.83,2.7.88.96,1.73,1.94,2.52,2.98,1.06,1.33,1.96,2.77,2.69,4.31-1.49-2.63-4.6-6.1-5.48-7.05-.88-.95-1.71-1.95-2.6-2.9-.02-.04.04-.07.04-.04Z"/>
  <path class="cls-10" d="M114.48,131.34c1.57.91,5.11,4.64,6.65,7.26.06.11,0,.11-.08,0-1.09-1.25-5.44-6.05-6.6-7.26-.02.01.01-.01.03,0Z"/>
  <path class="cls-10" d="M110.99,133.48c2.02,1.58,3.71,3.54,4.99,5.76.07.11,0,.1-.11,0-1.62-1.95-2.88-3.49-4.93-5.7,0,0,0-.02,0-.03,0-.01,0-.02.01-.03,0,0,.01-.01.02-.01,0,0,.02,0,.03,0Z"/>
  <path class="cls-5" d="M99.42,120.56s-6.16,18.79-6.44,18.48c-.28-.31-15.94-4.48-19.36-8.24-3.42-3.76-6.65-25.46-7.1-31.95-.44-6.48,3.42-8.75,7.58-1.4,4.16,7.35,11.58,21.17,12.15,21.53.57.36,13.17,1.57,13.17,1.57Z"/>
  <path class="cls-10" d="M89.35,136.3c.56-1.97,1.26-3.91,1.94-5.84.68-1.93,1.4-3.82,2.15-5.7.43-1.09.9-2.17,1.32-3.27,0-.04.08,0,.07,0-.71,1.92-1.34,3.88-2.02,5.81-.68,1.93-1.39,3.82-2.1,5.72-.41,1.1-.81,2.21-1.27,3.29-.02.07-.1.04-.08-.01Z"/>
  <path class="cls-10" d="M78.35,133.68c-1.67-.72-3.18-1.74-4.47-3.02-1.43-1.56-1.81-3.78-2.36-5.77-1.21-4.36-2.13-8.75-2.99-13.18-.49-2.52-.9-5.04-1.31-7.58,0,0-.05,0-.04,0,.16,1.94.41,3.88.69,5.81-.28-1.05-.54-2.11-.83-3.15,0,0,0,0,0-.01,0,0,0,0,0,0,0,0,0,0,0,0,0,0,0,0-.01,0s0,0-.01,0c0,0,0,0,0,0,0,0,0,0,0,0,0,0,0,0,0,.01.26,1.36.6,2.69,1.01,4.01.37,2.4.81,4.78,1.31,7.14.49,2.28,1.03,4.54,1.63,6.78.29,1.1.6,2.21.93,3.29.27.93.71,1.79,1.31,2.55,1.35,1.63,3.28,2.36,5.15,3.21.05.05.08-.04.04-.07Z"/>
  <path class="cls-10" d="M91.93,119.73c-1.51-.22-5.11-.54-5.4-.81-.27-.3-.5-.64-.68-1l-1.13-2.04c-1.44-2.6-2.91-5.18-4.39-7.75-.38-.99-.73-1.99-1.16-2.96,0-.04-.08,0-.07,0,.27.8.6,1.58.88,2.36-.86-1.49-1.76-2.95-2.66-4.41,0,0-.05,0-.04,0,1.51,2.93,3.07,5.84,4.68,8.72.79,1.43,1.6,2.86,2.42,4.28.41.73.82,1.44,1.21,2.17.11.26.27.5.48.68.21.19.46.33.73.4.78.16,4.2.38,5.14.4.04.05.04-.01,0-.05Z"/>
  <path class="cls-8" d="M214.11,55.78c-.25,2.43-1.17,4.74-2.65,6.67-1.49,1.93-3.48,3.42-5.76,4.28-2.28.87-4.76,1.08-7.15.62-2.4-.46-4.61-1.58-6.41-3.23l-6.57.97,3.29-5.69c-.75-1.85-1.08-3.85-.94-5.84.13-1.99.72-3.93,1.71-5.66.99-1.73,2.37-3.22,4.02-4.34s3.54-1.85,5.52-2.14c1.98-.28,3.99-.11,5.9.5,1.9.61,3.64,1.65,5.08,3.03,1.44,1.38,2.55,3.08,3.24,4.95.69,1.88.94,3.88.74,5.87h0Z"/>
  <path class="cls-10" d="M214.11,55.78c-.26,2.42-1.18,4.72-2.65,6.65-.38.48-.78.94-1.21,1.37-.44.42-.9.81-1.39,1.17-.97.74-2.03,1.33-3.17,1.77-1.13.45-2.33.73-3.54.85-.6.05-1.21.07-1.82.04-.61-.02-1.22-.08-1.81-.19-2.43-.44-4.68-1.56-6.51-3.21l.16.05-6.57,1.05-.47.07.24-.42,3.27-5.7v.22c-.96-2.35-1.23-4.93-.78-7.43.46-2.5,1.62-4.82,3.35-6.68,1.73-1.86,3.96-3.19,6.43-3.82,2.46-.63,5.05-.55,7.47.25,1.9.65,3.63,1.71,5.07,3.11,1.43,1.39,2.54,3.1,3.22,4.98.68,1.88.93,3.89.73,5.88ZM214.11,55.78c.31-2.99-.43-6-2.08-8.51-1.65-2.51-4.12-4.38-6.99-5.28-1.89-.59-3.89-.74-5.85-.44-1.96.29-3.82,1.02-5.44,2.14-1.61,1.13-2.95,2.6-3.93,4.29-.97,1.7-1.54,3.61-1.67,5.57-.12,1.95.21,3.91.94,5.72l.05.11-.06.11-3.33,5.68-.24-.34,6.59-.93h.09l.07.06c1.76,1.65,3.94,2.77,6.3,3.25.59.12,1.18.19,1.78.21.6.05,1.21.05,1.82,0,1.2-.09,2.38-.35,3.51-.77,1.13-.41,2.2-.99,3.17-1.71.49-.36.95-.75,1.39-1.16.43-.43.84-.88,1.21-1.36,1.49-1.93,2.42-4.23,2.68-6.65Z"/>
  <path class="cls-5" d="M199.49,61.92l-5.62-5.69,1.89-1.86,3.29,3.32,6.82-10.69,2.23,1.43-8.6,13.49Z"/>
</svg>