<?xml version="1.0" encoding="UTF-8"?>
<svg id="Layer_1" data-name="Layer 1" xmlns="http://www.w3.org/2000/svg" width="800" height="749" viewBox="0 0 800 749">
  <defs>
    <style>
      .cls-1, .cls-2, .cls-3, .cls-4, .cls-5, .cls-6, .cls-7, .cls-8, .cls-9, .cls-10, .cls-11 {
        stroke-width: 0px;
      }

      .cls-2 {
        fill: #e0e0e0;
      }

      .cls-3 {
        fill: #eece93;
      }

      .cls-4 {
        fill: #f5f5f5;
      }

      .cls-12 {
        opacity: .3;
      }

      .cls-5 {
        fill: #fff;
      }

      .cls-6 {
        fill: #fafafa;
      }

      .cls-7 {
        fill: #263238;
      }

      .cls-8 {
        fill: #ebebeb;
      }

      .cls-9 {
        fill: #ffbe9d;
      }

      .cls-10 {
        fill: #eb996e;
      }

      .cls-11 {
        fill: #455a64;
      }
    </style>
  </defs>
  <path class="cls-8" d="M714.99,230.54c2.37-3.79,3.8-8.05,4.18-12.45.38-4.4-.31-8.83-2.01-12.94-1.7-4.11-4.36-7.78-7.78-10.74-3.42-2.96-7.51-5.12-11.94-6.32s-9.09-1.4-13.62-.59c-4.53.81-8.8,2.62-12.48,5.27-3.68,2.65-6.68,6.09-8.75,10.03-2.08,3.95-3.17,8.3-3.21,12.72v.13c0,2.17.52,4.01.73,6.41l3.07,27.54c.09.8.37,1.57.83,2.24.45.68,1.06,1.24,1.78,1.65.72.41,1.53.66,2.36.72.84.06,1.67-.06,2.45-.36l26.31-10.23c2.28-.74,4.51-1.61,6.69-2.6h.1c4.67-2.46,8.58-6.08,11.3-10.48ZM682.59,226.52c-2.24-1.29-4.03-3.18-5.15-5.45-1.12-2.26-1.51-4.79-1.13-7.27s1.52-4.79,3.27-6.65c1.75-1.86,4.04-3.17,6.57-3.78,2.53-.61,5.2-.48,7.65.36,2.46.84,4.6,2.37,6.15,4.38,1.55,2.01,2.45,4.42,2.58,6.92.13,2.5-.52,4.98-1.86,7.13-1.8,2.88-4.72,4.95-8.11,5.76-3.39.82-6.98.31-9.99-1.41Z"/>
  <path class="cls-4" d="M287.86,257.63l-65.13,13.92,45.98,198.03,65.13-13.92-45.98-198.03Z"/>
  <path class="cls-8" d="M287.86,257.65l-32.56,6.96,45.86,197.5,32.56-6.96-45.86-197.5Z"/>
  <path class="cls-4" d="M248.66,245.61l-23,4.92,4.51,19.44,23-4.92-4.51-19.44Z"/>
  <path class="cls-8" d="M248.66,245.62l-5.49,1.17,4.51,19.44,5.49-1.17-4.51-19.44Z"/>
  <path class="cls-2" d="M217.32,272.69l-.26-1.12,72.45-15.49.26,1.13"/>
  <path class="cls-6" d="M243.05,276.12l-5.51,1.18,2.59,11.15,5.51-1.18-2.59-11.15Z"/>
  <path class="cls-2" d="M260.89,288.66c0,.12-7.25,1.77-16.23,3.69-8.99,1.92-16.3,3.31-16.34,3.31s7.25-1.77,16.23-3.69c8.99-1.92,16.3-3.51,16.34-3.31Z"/>
  <path class="cls-2" d="M275.94,269.02l-5.51,1.18,2.59,11.15,5.51-1.18-2.59-11.15Z"/>
  <path class="cls-2" d="M293.74,281.56c0,.12-7.25,1.77-16.23,3.69-8.99,1.92-16.3,3.39-16.34,3.31-.03-.08,7.24-1.77,16.23-3.69,8.99-1.92,16.3-3.43,16.34-3.31Z"/>
  <path class="cls-2" d="M281.09,291.17l-5.51,1.18,2.59,11.15,5.51-1.18-2.59-11.15Z"/>
  <path class="cls-2" d="M298.88,303.71c0,.12-7.24,1.77-16.23,3.69-8.99,1.92-16.3,3.31-16.34,3.31s7.24-1.77,16.23-3.69c8.99-1.92,16.3-3.46,16.34-3.31Z"/>
  <path class="cls-2" d="M286.39,313.98l-5.51,1.18,2.59,11.15,5.51-1.18-2.59-11.15Z"/>
  <path class="cls-2" d="M304.17,326.52c0,.12-7.25,1.77-16.23,3.69-8.99,1.92-16.3,3.31-16.34,3.31s7.25-1.77,16.23-3.69c8.99-1.92,16.3-3.44,16.34-3.31Z"/>
  <path class="cls-2" d="M291.7,336.79l-5.51,1.18,2.59,11.15,5.51-1.18-2.59-11.15Z"/>
  <path class="cls-2" d="M309.47,349.33c0,.12-7.24,1.77-16.23,3.69-8.99,1.92-16.3,3.31-16.34,3.31s7.25-1.77,16.23-3.69c8.99-1.92,16.3-3.43,16.34-3.31Z"/>
  <path class="cls-2" d="M296.78,359.03l-5.51,1.18,2.59,11.15,5.51-1.18-2.59-11.15Z"/>
  <path class="cls-2" d="M314.61,371.42c0,.12-7.23,1.77-16.23,3.69-9,1.92-16.3,3.39-16.32,3.31-.02-.08,7.23-1.77,16.23-3.69,9.01-1.92,16.3-3.31,16.32-3.31Z"/>
  <path class="cls-2" d="M302.02,381.2l-5.5,1.18,2.59,11.15,5.51-1.18-2.59-11.15Z"/>
  <path class="cls-2" d="M307.18,403.8l-5.51,1.18,2.59,11.15,5.51-1.18-2.59-11.15Z"/>
  <path class="cls-2" d="M319.79,393.72c0,.12-7.25,1.77-16.23,3.71-8.99,1.94-16.3,3.31-16.34,3.31s7.25-1.77,16.23-3.69c8.99-1.92,16.3-3.44,16.34-3.33Z"/>
  <path class="cls-6" d="M248.33,298.55l-5.51,1.18,2.59,11.15,5.51-1.18-2.59-11.15Z"/>
  <path class="cls-2" d="M266.1,311.06c0,.12-7.23,1.77-16.23,3.69-9,1.92-16.3,3.39-16.32,3.31-.02-.08,7.23-1.77,16.23-3.69,9.01-1.92,16.3-3.43,16.32-3.31Z"/>
  <path class="cls-6" d="M253.55,321.02l-5.51,1.18,2.59,11.15,5.51-1.18-2.59-11.15Z"/>
  <path class="cls-2" d="M271.33,333.54c0,.12-7.24,1.77-16.23,3.71-8.99,1.94-16.3,3.31-16.34,3.31s7.24-1.77,16.23-3.69c8.99-1.92,16.3-3.51,16.34-3.33Z"/>
  <path class="cls-6" d="M258.76,343.51l-5.51,1.18,2.59,11.15,5.51-1.18-2.59-11.15Z"/>
  <path class="cls-2" d="M276.56,356.03c0,.12-7.25,1.77-16.23,3.69-8.99,1.92-16.3,3.31-16.34,3.31s7.25-1.77,16.23-3.69c8.99-1.92,16.3-3.44,16.34-3.31Z"/>
  <path class="cls-6" d="M263.95,366.03l-5.51,1.18,2.59,11.15,5.51-1.18-2.59-11.15Z"/>
  <path class="cls-2" d="M281.77,378.51c0,.12-7.23,1.77-16.21,3.69-8.99,1.92-16.32,3.31-16.34,3.31s7.23-1.77,16.23-3.69c9.01-1.92,16.3-3.43,16.32-3.31Z"/>
  <path class="cls-6" d="M269.23,388.45l-5.51,1.18,2.59,11.15,5.51-1.18-2.59-11.15Z"/>
  <path class="cls-2" d="M286.99,400.99c0,.12-7.24,1.77-16.23,3.69-8.99,1.92-16.3,3.39-16.32,3.31-.02-.08,7.23-1.77,16.22-3.69,8.99-1.92,16.3-3.43,16.34-3.31Z"/>
  <path class="cls-6" d="M274.44,410.94l-5.51,1.18,2.59,11.15,5.51-1.18-2.59-11.15Z"/>
  <path class="cls-8" d="M393.12,348.17l-96.95,8.91,12.25,122.71,96.95-8.91-12.24-122.71Z"/>
  <path class="cls-2" d="M393.12,348.15l-45.45,4.18,12.25,122.71,45.45-4.18-12.24-122.71Z"/>
  <path class="cls-4" d="M326.89,371.01l-8.72.8,2.03,20.32,8.72-.8-2.03-20.32Z"/>
  <path class="cls-4" d="M334.82,450.57l-8.72.8,2.03,20.32,8.72-.8-2.03-20.32Z"/>
  <path class="cls-4" d="M352.15,397.25c0,.23-11.49,1.47-25.7,2.78-14.22,1.31-25.76,2.18-25.88,1.95-.12-.23,11.49-1.47,25.7-2.78,14.21-1.31,25.86-2.18,25.88-1.95Z"/>
  <path class="cls-4" d="M330.88,411.08l-8.72.8,2.03,20.32,8.72-.8-2.03-20.32Z"/>
  <path class="cls-4" d="M356.15,437.32c0,.23-11.49,1.47-25.7,2.78-14.21,1.31-25.77,2.18-25.88,1.95-.1-.23,11.49-1.47,25.7-2.78,14.21-1.31,25.86-2.18,25.88-1.95Z"/>
  <path class="cls-4" d="M367.71,367.26l-8.72.8,2.03,20.32,8.72-.8-2.03-20.32Z"/>
  <path class="cls-4" d="M386.6,365.54l-8.72.8,2.03,20.32,8.72-.8-2.03-20.32Z"/>
  <path class="cls-4" d="M371.54,405.83l-8.72.8,2.03,20.32,8.72-.8-2.03-20.32Z"/>
  <path class="cls-4" d="M390.46,404.08l-8.72.8,2.03,20.32,8.72-.8-2.03-20.32Z"/>
  <path class="cls-4" d="M375.39,444.4l-8.72.8,2.03,20.32,8.72-.8-2.03-20.32Z"/>
  <path class="cls-4" d="M394.31,442.64l-8.72.8,2.03,20.32,8.72-.8-2.03-20.32Z"/>
  <path class="cls-2" d="M399.98,343.23l-111.53,10.25.44,4.43,111.53-10.25-.44-4.43Z"/>
  <path class="cls-8" d="M393.86,348.66c0,.23-21.61,2.4-48.3,4.85-26.69,2.45-48.42,4.27-48.44,4.04-.02-.23,21.63-2.4,48.3-4.85,26.67-2.45,48.42-4.27,48.44-4.04Z"/>
  <path class="cls-8" d="M308.09,483.35l-89.81,38.09-63.1-136.01,89.79-38.09,63.12,136.01Z"/>
  <path class="cls-2" d="M244.96,347.35l-44.9,19.04,62.72,136.19,44.9-19.04-62.72-136.19Z"/>
  <path class="cls-8" d="M184.78,340.84l-31.72,13.45,12.35,26.81,31.71-13.45-12.35-26.81Z"/>
  <path class="cls-2" d="M184.79,340.84l-7.56,3.2,12.35,26.81,7.56-3.21-12.35-26.81Z"/>
  <path class="cls-2" d="M246.88,344.69l-99.91,42.36.72,1.56,99.91-42.36-.72-1.56Z"/>
  <path class="cls-5" d="M185.86,386.39l-7.6,3.23,7.08,15.38,7.61-3.22-7.08-15.38Z"/>
  <path class="cls-2" d="M215.32,399.56c.09.17-9.92,4.57-22.3,9.82-12.39,5.25-22.43,9.4-22.6,9.24-.17-.16,9.92-4.55,22.32-9.82,12.4-5.26,22.51-9.47,22.58-9.24Z"/>
  <path class="cls-4" d="M231.16,367.19l-7.6,3.23,7.08,15.38,7.61-3.23-7.08-15.38Z"/>
  <path class="cls-8" d="M260.62,380.28c0,.17-9.92,4.55-22.32,9.82s-22.43,9.39-22.58,9.22c-.16-.17,9.92-4.55,22.32-9.82,12.4-5.26,22.49-9.38,22.58-9.22Z"/>
  <path class="cls-4" d="M245.22,397.71l-7.61,3.23,7.08,15.38,7.6-3.22-7.08-15.38Z"/>
  <path class="cls-8" d="M274.68,410.82c0,.17-9.92,4.55-22.32,9.82-12.4,5.26-22.43,9.38-22.58,9.22-.15-.17,9.92-4.55,22.32-9.82s22.51-9.39,22.58-9.22Z"/>
  <path class="cls-4" d="M259.72,429.19l-7.6,3.23,7.08,15.38,7.61-3.23-7.08-15.38Z"/>
  <path class="cls-8" d="M289.17,442.27c0,.17-9.92,4.55-22.32,9.82-12.4,5.26-22.51,9.39-22.58,9.22-.07-.17,9.92-4.55,22.32-9.82,12.4-5.26,22.49-9.39,22.58-9.22Z"/>
  <path class="cls-4" d="M274.18,460.65l-7.61,3.23,7.08,15.38,7.61-3.23-7.08-15.38Z"/>
  <path class="cls-8" d="M303.66,473.72c0,.17-9.92,4.57-22.32,9.82-12.4,5.25-22.51,9.39-22.58,9.24-.07-.15,9.92-4.57,22.32-9.82,12.4-5.25,22.5-9.4,22.58-9.24Z"/>
  <path class="cls-5" d="M200.15,417.39l-7.6,3.22,7.08,15.38,7.6-3.22-7.08-15.38Z"/>
  <path class="cls-2" d="M229.6,430.48c0,.16-9.92,4.55-22.32,9.82-12.4,5.26-22.43,9.39-22.58,9.24-.15-.15,9.92-4.57,22.32-9.82s22.51-9.4,22.58-9.24Z"/>
  <path class="cls-5" d="M214.41,448.41l-7.61,3.23,7.08,15.38,7.61-3.23-7.08-15.38Z"/>
  <path class="cls-2" d="M243.88,461.49c0,.17-9.92,4.55-22.32,9.82s-22.51,9.39-22.58,9.22c-.07-.17,9.92-4.55,22.3-9.82,12.39-5.26,22.51-9.38,22.6-9.22Z"/>
  <path class="cls-5" d="M228.7,479.42l-7.6,3.23,7.08,15.38,7.6-3.23-7.08-15.38Z"/>
  <path class="cls-2" d="M258.15,492.49c0,.17-9.9,4.55-22.3,9.82s-22.51,9.39-22.58,9.22c-.07-.17,9.9-4.55,22.31-9.82,12.4-5.26,22.51-9.45,22.58-9.22Z"/>
  <path class="cls-4" d="M632.29,451.36l-36.79,41.38c-.19.21-.33.46-.42.72-.09.27-.13.55-.1.82.02.28.1.55.23.8.13.25.31.47.54.65l90.61,74.07c.22.18.48.32.76.41.28.09.57.12.87.1.29-.02.58-.1.84-.23.26-.13.49-.31.68-.52l13.26-15.35c.29-.35.47-.78.5-1.22l1.81-27.26c.02-.33-.03-.65-.16-.96-.13-.3-.34-.57-.59-.78l-14.87-12.35c-.44-.37-.71-.89-.75-1.44-.04-.56.15-1.11.53-1.53l5.55-6.27c.19-.21.33-.45.43-.72.09-.26.12-.54.1-.82-.02-.28-.1-.55-.23-.79-.13-.25-.31-.47-.53-.65l-59.03-48.28c-.22-.2-.48-.35-.77-.44-.28-.09-.59-.13-.89-.11-.3.02-.59.1-.86.24-.27.14-.5.32-.69.54Z"/>
  <path class="cls-8" d="M688.68,517.34l-11.8,13.24c-.2.24-.3.55-.27.86.03.31.18.6.43.8l20.29,16.01c.18.14.39.23.62.26.23.03.46,0,.67-.08.21-.08.4-.22.53-.39.14-.17.22-.38.25-.6l2.48-20.76c.02-.2,0-.41-.08-.59-.08-.19-.2-.35-.36-.48l-10.9-8.42c-.13-.11-.28-.2-.45-.25-.16-.05-.34-.07-.51-.06-.17.02-.34.07-.49.15-.15.08-.28.19-.39.33Z"/>
  <path class="cls-4" d="M688.68,573.91l-97.52-79.75-2.56,2.88,97.52,79.75,2.56-2.89Z"/>
  <path class="cls-8" d="M622.39,521.66c-1.62,1.83-3.78,3.16-6.19,3.82-2.41.66-4.97.61-7.36-.13-2.39-.74-4.49-2.14-6.04-4.03-1.56-1.89-2.49-4.18-2.69-6.57s.34-4.8,1.57-6.9c1.22-2.1,3.07-3.81,5.3-4.9,2.23-1.1,4.76-1.53,7.24-1.25,2.49.28,4.84,1.26,6.75,2.82,1.27,1.04,2.31,2.3,3.07,3.72.76,1.42,1.22,2.97,1.35,4.57.13,1.59-.06,3.2-.58,4.72-.51,1.52-1.33,2.93-2.42,4.14Z"/>
  <path class="cls-6" d="M618.42,518.41c-.96,1.08-2.23,1.86-3.65,2.25-1.42.39-2.93.36-4.34-.07-1.41-.44-2.65-1.26-3.56-2.37s-1.47-2.46-1.59-3.87c-.12-1.41.2-2.83.92-4.07.72-1.24,1.81-2.24,3.12-2.89,1.32-.64,2.8-.9,4.27-.74,1.47.17,2.85.74,3.97,1.66,1.51,1.23,2.44,2.99,2.6,4.88.16,1.89-.47,3.77-1.75,5.22Z"/>
  <path class="cls-8" d="M656.37,545.38c-.24-.2,8.45-10.36,19.41-22.69,10.95-12.33,20.03-22.16,20.27-21.97.24.2-8.44,10.36-19.39,22.69-10.95,12.33-20.03,22.16-20.29,21.97Z"/>
  <path class="cls-8" d="M674.93,564.64c-1.63,1.83-3.78,3.16-6.2,3.81-2.41.65-4.97.61-7.36-.14-2.39-.74-4.49-2.15-6.04-4.04-1.55-1.89-2.49-4.18-2.69-6.58-.2-2.4.35-4.8,1.58-6.9,1.22-2.1,3.07-3.8,5.3-4.9s4.76-1.53,7.25-1.24c2.49.28,4.84,1.27,6.74,2.83,1.27,1.03,2.32,2.3,3.07,3.72.76,1.42,1.22,2.98,1.35,4.57.13,1.59-.07,3.2-.58,4.72-.52,1.52-1.34,2.93-2.42,4.14Z"/>
  <path class="cls-6" d="M670.97,561.4c-.96,1.07-2.23,1.85-3.65,2.23-1.42.38-2.92.35-4.32-.09-1.4-.44-2.63-1.26-3.55-2.37-.91-1.11-1.46-2.46-1.58-3.86-.11-1.41.21-2.82.93-4.05.72-1.23,1.8-2.23,3.11-2.88,1.31-.64,2.79-.9,4.26-.73,1.46.16,2.84.74,3.96,1.66.75.61,1.36,1.36,1.81,2.19.45.84.71,1.75.79,2.69.08.94-.04,1.88-.34,2.78-.3.9-.79,1.72-1.43,2.44Z"/>
  <path class="cls-8" d="M680.49,539.7c-.21.23-1.72-.71-3.45-2.1-1.72-1.39-2.93-2.72-2.73-2.95.21-.23,1.73.71,3.45,2.1,1.73,1.39,2.93,2.72,2.73,2.95Z"/>
  <path class="cls-4" d="M91.22,440.1c-2.77-3.53-6.36-6.4-10.48-8.38-4.12-1.98-8.66-3.03-13.26-3.05-4.61-.02-9.16.97-13.3,2.91-4.14,1.94-7.76,4.77-10.57,8.27-2.81,3.5-4.75,7.58-5.66,11.91s-.76,8.81.44,13.08c1.19,4.27,3.4,8.22,6.44,11.54,3.04,3.32,6.84,5.92,11.1,7.6h.14c2.09.83,4.07,1.04,6.45,1.77l27.77,7.56c.8.22,1.65.26,2.47.11.82-.15,1.6-.47,2.26-.95.67-.48,1.21-1.1,1.59-1.82.38-.72.57-1.5.58-2.31v-27.25c.13-2.31.13-4.63,0-6.94v-.1c-.66-5.08-2.72-9.91-5.97-13.97ZM75.26,467.43c-2.08,1.51-4.58,2.39-7.18,2.54-2.6.14-5.19-.45-7.44-1.72-2.25-1.27-4.05-3.14-5.19-5.4-1.14-2.25-1.55-4.78-1.19-7.25.36-2.48,1.48-4.8,3.21-6.67,1.73-1.87,4.01-3.2,6.53-3.83,2.52-.63,5.18-.53,7.65.3,2.46.82,4.61,2.33,6.19,4.32,2.11,2.68,3.02,6.05,2.54,9.37-.48,3.32-2.32,6.32-5.11,8.34Z"/>
  <path class="cls-8" d="M177.47,98.19c-1.8-5.76-4.96-11.04-9.23-15.44-4.27-4.4-9.55-7.79-15.41-9.91-5.86-2.12-12.16-2.92-18.39-2.32-6.23.59-12.24,2.56-17.56,5.74-5.31,3.18-9.79,7.5-13.08,12.62s-5.31,10.89-5.89,16.88c-.59,5.99.28,12.02,2.52,17.63,2.24,5.61,5.8,10.66,10.41,14.73l.15.12c2.26,1.99,4.68,3.18,7.37,5.16l31.71,22.21c.92.64,1.99,1.07,3.11,1.25,1.12.18,2.28.11,3.36-.22,1.09-.32,2.09-.88,2.91-1.63.82-.75,1.46-1.68,1.84-2.71l13.35-34.76c1.32-2.88,2.47-5.83,3.45-8.84v-.13c1.69-6.73,1.48-13.77-.62-20.39ZM143.54,125.78c-3.39.99-7.01.98-10.41,0-3.39-.99-6.4-2.92-8.65-5.56-2.25-2.63-3.63-5.84-3.97-9.23-.34-3.39.37-6.79,2.04-9.79,1.68-3,4.24-5.45,7.37-7.05,3.13-1.6,6.68-2.27,10.21-1.94,3.53.34,6.87,1.67,9.61,3.83,2.74,2.16,4.75,5.05,5.77,8.31,1.38,4.37.88,9.08-1.36,13.1-2.24,4.02-6.06,7.02-10.61,8.34Z"/>
  <path class="cls-8" d="M391.46,72.81c.81-5.59-7.43-10.21-13.63-10.69-2.95-.22-6.02.22-8.82-.73-6.05-2.02-8.49-9.53-14.4-11.93-4.42-1.79-9.5-.2-13.8,1.87-4.3,2.07-8.52,4.68-13.32,4.97-4.16.25-8.62-1.22-12.33.71-2.71,1.46-4.14,4.47-6.64,6.24-2.59,1.53-5.59,2.31-8.63,2.25-3.05-.06-6.08.41-8.95,1.41-2.76,1.21-5.05,4.02-4.49,6.89l105-.98Z"/>
  <path class="cls-4" d="M148.58,292.39c-.57-3.62-6.57-5.05-10.52-4.27-1.82.6-3.71.96-5.62,1.09-4.16-.2-7.09-4.45-11.23-4.97-3.09-.35-5.97,1.54-8.23,3.58-2.26,2.04-4.42,4.4-7.35,5.43-2.54.89-5.64.76-7.54,2.61-1.41,1.37-1.73,3.49-2.95,5.05-1.33,1.41-3.05,2.43-4.97,2.91-1.91.49-3.71,1.32-5.3,2.45-.78.58-1.35,1.38-1.62,2.29-.27.91-.22,1.89.14,2.77l65.19-18.95Z"/>
  <path class="cls-4" d="M638.05,352.4c1.43-4.67-4.97-9.6-10.18-10.76-2.48-.56-5.17-.56-7.4-1.65-4.88-2.47-5.95-9.15-10.66-11.9-3.45-2.07-8.06-1.34-11.99-.1-3.93,1.24-7.87,2.93-11.97,2.6-3.57-.3-7.23-2.1-10.59-.89-2.5.91-4.1,3.31-6.47,4.49-2.42,1-5.1,1.3-7.69.86-2.58-.43-5.23-.4-7.8.1-1.28.28-2.43.95-3.28,1.91-.85.96-1.36,2.15-1.45,3.41l89.48,11.95Z"/>
  <path class="cls-11" d="M566.86,721.76c-.29-3.86,3.09-7.28,6.81-8.94,3.73-1.66,7.92-2.22,11.75-3.71,1.52-.61,3.21-1.66,3.26-3.21,0-2.32-3.36-3.31-4.24-5.41-.93-2.43,1.72-4.68,2.79-7.07,2.38-5.41-3.55-10.88-9.32-13.09-5.76-2.22-12.63-3.81-15.3-9.1-.98-2.55-1.61-5.21-1.86-7.91-1.35-6.62-6.52-13.14-13.61-14.25-7.09-1.11-15.08,4.97-13.92,11.59.71,3.71,3.6,6.62,5.17,9.93,1.57,3.31,1.17,8.51-2.55,9.62-6.11,1.77-11.99-8.84-17.11-5.2,2.1,6.8,4.14,13.59,6.23,20.44-8.02,3.87-17.63-3.14-21.06-11.11-3.43-7.96-3.55-16.95-7.62-24.58-4.07-7.63-15.08-13.36-22.06-7.95-.35,9.83,13.33,13.8,19.39,21.77,4.36,5.74,3.73,15.08-2.74,18.72-6.47,3.64-16.58-2.7-14.14-9.39.88-2.32,2.92-4.25,3.14-6.75.24-3.08-2.5-5.58-5-7.57-3.9-3.15-7.8-6.24-11.7-9.34-2.4-2.18-5.22-3.86-8.31-4.97-8.04-2.22-16.06,3.97-20.32,10.78-4.26,6.8-6.62,14.9-12.51,20.54-8.43,8.28-24.44,8.79-32.36.12-7.92-8.67-3.9-24.83,7.8-28.06,4.43-1.16,10-1.06,12.35-4.77,4.07-6.62-7.57-14.9-3.55-21.52,3.07-5.08,11.23-2.77,17.16-4.49,5.93-1.72,9.19-7.35,12.68-12.2,3.48-4.85,8.85-9.67,14.9-8.41-.47-3.31-.93-7,.64-10.05,1.57-3.05,6-5.08,8.9-3.1-2.97,4.65.59,11.11,5.76,13.42,5.18,2.32,11.23,1.77,16.94,1.16s12.87-2.65,13.33-8.06c.17-1.77-.54-3.64.17-5.3,2.5-6.47,15.08,2.42,19.91-2.76,2.79-2.71-.29-7.52-4.19-8.41-3.9-.89-7.87.45-11.82.56-3.95.12-8.8-1.82-8.97-5.58-.17-3.76,4.19-6.36,4.66-9.93.76-6.19-10.35-7.8-14.2-2.76-3.85,5.03-2.5,11.93-1.35,18.06,1.16,6.12,1.81,13.37-2.97,17.68-2.04,2.93-7.33,1.39-9.07-1.66-1.74-3.05-1.4-6.85-1.73-10.33-.33-3.48-1.91-7.52-5.52-8.46-2.5-.66-5.17.5-7.74.83-10.13,1.16-17.16-11.27-13.97-20.44,3.19-9.17,12.33-15.13,21.25-19.86,6.52-3.43,14.61-6.62,21.06-3.14,3.02,1.66,5.18,4.35,8.09,6.02,5.18,2.86,11.47,1.82,17.34,1.92,9.3.24,18.23,3.53,25.31,9.32,2.62,2.27,5.05,6.03,3.02,8.74-2.03,2.72-8.54,3.48-7.43,6.85,6.9,2.15,15.06-2.88,15.82-9.67,1.68.72,3.13,1.85,4.21,3.28,1.07,1.43,1.73,3.12,1.9,4.88,7.4-7.12,21.6-6.07,27.6,2.17,1.62,2.15,2.79,4.75,5.18,6.24,2.38,1.49,6.4.71,6.69-1.89.05-.84-.11-1.67-.47-2.43-1.4-3.76-2.85-7.45-4.24-11.16,5.4-2.76,11.8,1.56,15.53,6.19,13.61,17.3,23.34,6.9,42.54,9.72,12.99,1.89,18.68,9.78,26.01,19.33,22.43,29.4,52.15,53.48,72.57,84.2,2.16,3.19,4.14,6.46,6,9.77-.34-.83-.64-1.66-1-2.48-7.98-19.95-17.92-39.13-29.67-57.29-2.5-3.86-5.07-7.68-7.68-11.44-1.64-2.32-3.33-4.68-5.02-6.95-2.14-2.98-4.42-5.86-6.69-8.72-1.73-2.33-3.61-4.58-5.47-6.8-1.28-1.54-2.62-3.1-3.95-4.64-1.33-1.54-2.91-3.48-4.54-5.2l-4.9-5.36c-.47-.55-.98-1.09-1.57-1.66-1.72-1.87-3.45-3.69-5.3-5.51-.12-.22-.3-.41-.52-.56-.47-.5-.98-.99-1.52-1.49-1.45-1.54-3.02-3.05-4.54-4.54-2.5-2.42-5.07-4.85-7.68-7.17-2.16-2.05-4.36-3.99-6.64-5.93-1.98-1.66-3.95-3.41-5.99-5.08-2.03-1.67-3.97-3.31-6-4.85-2.45-1.99-4.95-3.92-7.5-5.86-7.04-5.36-14.29-10.43-21.75-15.2-1.86-1.21-3.67-2.37-5.54-3.53s-3.78-2.33-5.64-3.43c-1.86-1.09-3.78-2.27-5.71-3.31-1.93-1.04-3.83-2.2-5.76-3.31-1.57-.89-3.07-1.66-4.66-2.5-.77-.46-1.56-.88-2.38-1.26-3.31-1.77-6.69-3.49-10.07-5.08-1.73-.83-3.36-1.65-5.17-2.43-2.14-1.06-4.36-2.05-6.57-2.98-.31-.18-.64-.33-.98-.45-1.98-.89-3.95-1.77-6-2.6-2.85-1.16-5.69-2.32-8.62-3.43-3.26-1.27-6.52-2.53-9.85-3.71-3.66-1.32-7.33-2.58-11.06-3.74-3.73-1.16-7.5-2.38-11.28-3.49-3.78-1.11-7.57-2.1-11.42-3.1-7.56-1.92-15.23-3.64-22.98-5.13-.14-.03-.28-.07-.41-.12-2.97-.55-5.93-1.09-8.9-1.54-.19-.06-.39-.1-.59-.12-1.28-.22-2.6-.43-3.95-.6-5.54-.89-11.11-1.66-16.77-2.22-.67-.11-1.35-.18-2.04-.22-1.62-.23-3.26-.33-4.95-.5-3.71-.33-7.43-.61-11.23-.83-3.8-.21-7.85-.45-11.82-.56-3.97-.11-8.26-.21-12.39-.21-10.94,0-21.76.46-32.48,1.37-2.55.17-5.06.4-7.56.66-2.5.26-5.18.56-7.87.89-2.69.33-5.18.66-7.8,1.04-2.62.38-5.17.78-7.8,1.23-2.21.33-4.49.71-6.69,1.16-5.47.99-10.88,2.09-16.23,3.31-2.5.55-5,1.16-7.5,1.82-2.5.66-5.02,1.27-7.45,1.94-4.14,1.11-8.16,2.32-12.16,3.53-3.26,1.06-6.57,2.1-9.76,3.16-.09,0-.17.04-.24.1-3.31,1.11-6.52,2.27-9.78,3.49l-.52.16c-2.97,1.09-5.93,2.25-8.85,3.43-3.67,1.42-7.28,2.98-10.83,4.52-3.02,1.33-5.99,2.65-8.9,4.04-2.92,1.39-6.28,2.98-9.37,4.52l-.35.18c-2.97,1.49-5.93,3.03-8.85,4.64-2.92,1.61-5.99,3.31-8.95,4.97-2.79,1.66-5.52,3.19-8.26,4.85-1.05.61-2.04,1.27-3.09,1.94-2.9,1.77-5.69,3.59-8.62,5.46-3.45,2.27-6.9,4.65-10.23,7.02-2.99,2.1-5.88,4.25-8.75,6.41-16.44,12.47-31.74,26.27-45.73,41.25-4.95,5.18-9.61,10.49-14.15,15.91-3.85,4.64-7.57,9.34-11.13,14.2.93-.12,1.88-.23,2.79-.28,5.18-.38,10.78-.21,15.53-2.38,4.36-2.04,7.45-5.74,11.4-8.39,10.13-6.85,26.72-8.13,29.45-19.61.93-3.86-.17-8.06,1.35-11.77,2.85-6.9,12.58-7.9,20.37-7.78,3.31,0,7.21.45,8.73,3.19,1.1,1.94.46,4.37-.36,6.42-4.9,13.02-14.33,24.03-26.7,31.15-10.13,5.86-23.34,10.38-26.13,21.32,1.4,3.71,8.5,3.43,9.07,7.3.41,3.08-3.78,4.68-5.29,7.45-2.21,4.04,2.86,8.96,7.69,8.72s8.85-3.53,12.39-6.62c10.59-9.34,21.72-19.4,25.55-32.64,1.72-5.48,2.22-11.88,6.9-15.53,5.54-4.32,15.44-1.32,17.25,5.25,4.59-2.43,11.75-4.25,14.13.28.83,1.66.59,3.48,1,5.18,1.5,7.07,11.7,10.28,12.75,17.4,1.21,8.28-9.9,12.5-18.58,13.77-7.85,1.16-15.71,2.32-23.56,3.53-3.46.24-6.81,1.26-9.78,2.98-2.79,1.99-4.54,5.74-2.91,8.67,1.19,1.48,2.56,2.83,4.09,3.99,6.52,6.17,1.16,18.94-8.04,19.22-3.14.12-6.23-.99-9.37-1.11-9.32-.38-16.7,7.4-21.13,15.2-4.43,7.8-7.74,16.68-15.18,21.98-12.08,8.56-32.66,6.62-38.47,19.73-2.33,5.3-1.12,11.26-.19,16.95.16.89.28,1.82.4,2.75h255.82c5.33-2.04,11.11-3.54,15.66-6.79,10.49-7.45,11.88-21.65,18.49-32.38,6.61-10.73,27.24-15.24,30.34-3.11,21.87-44.43,70.21,21.52,98.95,16.55,8.35-1.44,16.49-5.25,24.89-4.12,14.47,1.92,22.11,16.7,27.17,29.79h12.08c-1.38-4.6-1.31-9.67-4.12-13.57-3.36-4.5-10.26-7.13-10.73-12.68ZM371.76,524.53c-2.26,4.97-1.24,11.22-4.71,15.56-2.76,3.43-7.54,4.65-11.95,5.64l-27.81,6.27c-4.17.73-8.2,2.06-11.95,3.94-7.28,4.14-11.16,11.95-16.79,17.98-5.62,6.03-15.7,10.35-22.34,5.33-1.51-1.3-2.72-2.89-3.58-4.65-.86-1.77-1.33-3.68-1.4-5.63-.5-5.6.89-11.21,3.97-15.99,3.16-4.97,8-8.76,10.68-13.9,2.67-5.15,2.14-12.71-3.45-15.13-2.97-1.31-6.71-.79-9.35-2.63-4.74-3.31-1.35-11.16,4.16-13.14,5.5-1.99,11.63-.43,17.51-.08,21.3,1.29,36.98-11.95,53.01-22.96,12.47-8.56,39.02-18.67,53.48-9.93,5.74,3.49,8,12.46,2.59,16.4-2.43,1.76-5.78,2.15-8.04,4.11-2.71,2.35-3.09,6.19-4.64,9.35-3.98,8.18-15.63,11.16-19.37,19.47Z"/>
  <g class="cls-12">
    <path class="cls-1" d="M367.05,540.09c3.45-4.34,2.45-10.54,4.71-15.56,3.74-8.28,15.39-11.29,19.42-19.47,1.55-3.16,1.93-7,4.64-9.35,2.26-1.95,5.61-2.35,8.04-4.11,5.42-3.94,3.16-12.91-2.59-16.4-14.42-8.74-40.97,1.37-53.48,9.93-16.03,11.01-31.71,24.25-53.01,22.96-5.88-.35-11.99-1.89-17.51.08-5.52,1.97-8.9,9.82-4.16,13.14,2.64,1.84,6.38,1.32,9.35,2.63,5.5,2.42,6.06,9.93,3.45,15.13-2.61,5.2-7.52,9.01-10.68,13.9-3.08,4.78-4.47,10.39-3.97,15.99.07,1.95.55,3.86,1.4,5.63.86,1.77,2.07,3.35,3.58,4.65,6.64,4.97,16.73.71,22.34-5.33,5.61-6.04,9.5-13.84,16.78-17.98,3.76-1.88,7.79-3.21,11.95-3.94l27.81-6.27c4.36-.99,9.14-2.17,11.9-5.64Z"/>
    <path class="cls-1" d="M542.47,718.23c-8.4-1.12-16.54,2.68-24.89,4.12-28.74,4.97-77.07-61.05-98.95-16.55-3.05-12.08-23.74-7.53-30.34,3.2-6.61,10.73-8,24.93-18.49,32.38-4.55,3.31-10.35,4.75-15.66,6.79h215.51c-5.05-13.23-12.66-28.01-27.17-29.93Z"/>
    <path class="cls-1" d="M241.02,620.44c-1.05-7.12-11.25-10.33-12.75-17.4-.41-1.66-.17-3.59-1-5.18-2.38-4.54-9.54-2.72-14.13-.28-1.86-6.62-11.76-9.57-17.25-5.25-4.64,3.64-5.18,10.05-6.9,15.53-3.83,13.24-14.96,23.31-25.55,32.64-3.45,3.1-7.56,6.41-12.39,6.62-4.83.21-9.9-4.68-7.69-8.72,1.52-2.76,5.71-4.37,5.3-7.45-.57-3.87-7.68-3.59-9.07-7.3,2.79-10.94,16.01-15.46,26.13-21.32,12.37-7.13,21.8-18.13,26.7-31.15.83-2.05,1.47-4.49.36-6.42-1.52-2.75-5.42-3.19-8.73-3.19-7.8-.12-17.53.88-20.37,7.78-1.52,3.71-.41,7.91-1.35,11.77-2.73,11.49-19.32,12.76-29.45,19.61-3.95,2.65-7.04,6.36-11.4,8.39-4.71,2.17-10.25,2-15.52,2.38-.91,0-1.86.17-2.8.28-3.17,4.18-6.25,8.48-9.23,12.9-2.98,4.41-5.85,8.86-8.63,13.33-13.14,21.33-23.83,43.97-31.88,67.52-2.85,8.27-5.37,16.66-7.56,25.18-1.47,5.74-2.78,11.54-3.93,17.4h1.73c1.16-3.84,2.02-7.68,2.74-11.02.19-.84.36-1.65.53-2.43,1.93-8.28,4.78-17.07,11.59-22.66,6.81-5.59,18.75-6.19,24.05.73,3.78,4.97,2.92,11.77,1.93,17.84-.98,6.07-1.93,11.65-2.92,17.54h16.68c-.12-.93-.24-1.85-.4-2.75-.93-5.69-2.14-11.59.19-16.95,5.81-13.24,26.48-11.17,38.47-19.73,7.44-5.3,10.76-14.2,15.18-21.98,4.42-7.78,11.82-15.58,21.13-15.2,3.14.12,6.23,1.23,9.37,1.11,9.19-.28,14.56-13.04,8.04-19.22-1.53-1.16-2.9-2.5-4.09-3.99-1.62-2.93.12-6.62,2.91-8.67,2.97-1.72,6.32-2.74,9.78-2.98,7.85-1.21,15.71-2.37,23.56-3.53,8.68-1.26,19.79-5.53,18.58-13.77Z"/>
    <path class="cls-1" d="M757.08,718.61c-1.38-4.55-2.83-9.07-4.38-13.56-1.55-4.49-3.19-8.92-4.93-13.34-1.86-3.31-3.85-6.62-6-9.77-20.43-30.72-50.03-54.81-72.57-84.2-7.33-9.55-13.02-17.45-26.01-19.33-19.2-2.81-28.93,7.58-42.54-9.72-3.67-4.64-10.07-8.96-15.53-6.19,1.4,3.71,2.85,7.4,4.24,11.16.36.76.52,1.6.47,2.43-.29,2.6-4.36,3.31-6.69,1.89-2.33-1.42-3.45-4.09-5.17-6.24-6.05-8.28-20.25-9.29-27.6-2.17-.17-1.76-.83-3.44-1.9-4.88-1.07-1.43-2.53-2.57-4.21-3.28-.76,6.79-8.95,11.82-15.82,9.67-1.1-3.31,5.17-3.99,7.43-6.85,2.26-2.86-.4-6.47-3.02-8.74-7.08-5.8-16.02-9.09-25.32-9.34-5.86-.1-12.21.94-17.34-1.92-2.97-1.65-5.07-4.42-8.09-6.02-6.45-3.48-14.54-.28-21.06,3.15-8.92,4.7-18.11,10.61-21.25,19.86-3.14,9.25,3.85,21.52,13.97,20.44,2.55-.33,5.17-1.49,7.74-.83,3.61.94,5.17,4.97,5.52,8.46.35,3.49-.12,7.23,1.73,10.33,1.85,3.1,7.04,4.64,9.07,1.66,4.78-4.3,4.19-11.59,2.97-17.68-1.23-6.09-2.5-13.04,1.35-18.06,3.85-5.02,14.96-3.43,14.2,2.77-.46,3.64-4.83,6.29-4.66,9.93.17,3.64,5,5.74,8.97,5.58,3.97-.16,7.97-1.49,11.82-.56,3.85.93,6.99,5.69,4.19,8.41-4.83,5.18-17.41-3.71-19.91,2.77-.71,1.65,0,3.52-.17,5.3-.47,5.41-7.62,7.4-13.34,8.06-5.71.66-11.75,1.16-16.94-1.16-5.19-2.32-8.73-8.77-5.76-13.42-2.9-1.99-7.33,0-8.9,3.1-1.57,3.1-1.1,6.62-.64,10.05-6.05-1.26-11.47,3.59-14.9,8.41-3.43,4.82-6.8,10.49-12.68,12.2-5.88,1.7-14.09-.6-17.16,4.48-4.02,6.62,7.62,15.01,3.55,21.52-2.35,3.71-7.92,3.61-12.35,4.77-11.7,3.14-15.77,19.38-7.8,28.06,7.97,8.67,23.93,8.18,32.36-.12,5.88-5.69,8.26-13.69,12.51-20.54,4.24-6.85,12.28-12.99,20.32-10.78,3.09,1.1,5.92,2.79,8.31,4.97,3.9,3.09,7.8,6.19,11.7,9.34,2.5,1.99,5.18,4.49,5,7.56-.22,2.5-2.26,4.44-3.14,6.75-2.43,6.62,7.74,13.03,14.14,9.39,6.4-3.64,7.11-12.98,2.74-18.72-6.05-7.96-19.73-11.93-19.39-21.77,6.99-5.41,17.99.27,22.06,7.95,4.07,7.68,4.19,16.68,7.62,24.58,3.43,7.9,13.04,14.98,21.06,11.11-2.09-6.85-4.12-13.64-6.23-20.44,5.18-3.64,11.01,6.97,17.11,5.2,3.73-1.11,4.19-6.19,2.55-9.62-1.64-3.43-4.47-6.29-5.17-9.93-1.16-6.74,6.76-12.76,13.92-11.59,7.16,1.17,12.27,7.58,13.61,14.25.26,2.71.88,5.36,1.86,7.91,2.67,5.3,9.61,6.9,15.3,9.1,5.69,2.2,11.7,7.68,9.32,13.09-1.1,2.38-3.73,4.63-2.79,7.07.88,2.15,4.24,3.1,4.24,5.41,0,1.56-1.72,2.6-3.26,3.21-3.83,1.49-8.02,1.99-11.75,3.71-3.73,1.72-7.11,5.08-6.81,8.94.47,5.53,7.4,8.18,10.66,12.76,2.81,3.91,2.74,8.97,4.12,13.57h42.61c-1.54-2.95-3.05-5.88-4.61-8.82,3.45-2.77,8.9-1.66,12.46,1.11,2.59,2.27,4.85,4.87,6.73,7.71h125.51c-1.98-10.01-4.4-19.85-7.26-29.53Z"/>
  </g>
  <path class="cls-7" d="M391.18,505.07c1.55-3.16,1.93-7,4.64-9.35,2.26-1.95,5.61-2.35,8.04-4.11,5.42-3.94,3.16-12.91-2.59-16.4-14.42-8.74-40.97,1.37-53.48,9.93-16.03,11.01-31.71,24.25-53.01,22.96-5.88-.35-11.99-1.89-17.51.08-5.52,1.97-8.9,9.82-4.16,13.14,2.64,1.84,6.38,1.32,9.35,2.63,5.5,2.42,6.06,9.93,3.45,15.13-2.61,5.2-7.52,9.01-10.68,13.9-3.08,4.78-4.47,10.39-3.97,15.99.07,1.95.55,3.86,1.4,5.63.86,1.77,2.07,3.35,3.58,4.65,6.64,4.97,16.73.71,22.34-5.33,5.61-6.04,9.51-13.84,16.79-17.98,3.76-1.88,7.79-3.21,11.95-3.94l27.81-6.27c4.42-.99,9.19-2.22,11.95-5.64,3.45-4.34,2.45-10.54,4.71-15.56,3.69-8.31,15.34-11.29,19.37-19.47Z"/>
  <path class="cls-7" d="M542.47,718.23c-8.4-1.12-16.54,2.68-24.89,4.12-28.74,4.97-77.07-61.05-98.95-16.55-3.05-12.08-23.74-7.53-30.34,3.2-6.61,10.73-8,24.93-18.49,32.38-4.55,3.31-10.35,4.75-15.66,6.79h215.51c-5.05-13.23-12.66-28.01-27.17-29.93Z"/>
  <path class="cls-7" d="M752.68,705.06c-1.55-4.49-3.19-8.92-4.93-13.34-1.86-3.31-3.85-6.62-6-9.77-20.42-30.72-50.03-54.81-72.57-84.2-7.33-9.55-13.02-17.45-26.01-19.33-19.2-2.81-28.93,7.58-42.54-9.72-3.67-4.64-10.07-8.96-15.53-6.19,1.4,3.71,2.85,7.4,4.24,11.16.36.76.52,1.6.47,2.43-.29,2.6-4.36,3.31-6.69,1.89-2.33-1.42-3.45-4.09-5.18-6.24-6.05-8.28-20.25-9.29-27.6-2.17-.17-1.76-.83-3.44-1.9-4.88-1.07-1.43-2.53-2.57-4.21-3.28-.76,6.79-8.95,11.82-15.82,9.67-1.1-3.31,5.17-3.99,7.43-6.85,2.26-2.86-.4-6.47-3.02-8.74-7.08-5.8-16.02-9.09-25.32-9.34-5.86-.1-12.21.94-17.34-1.92-2.97-1.65-5.07-4.42-8.09-6.02-6.45-3.48-14.54-.28-21.06,3.15-8.92,4.7-18.11,10.61-21.25,19.86-3.14,9.25,3.85,21.52,13.97,20.44,2.55-.33,5.17-1.49,7.75-.83,3.6.94,5.17,4.97,5.52,8.46.35,3.49-.12,7.23,1.73,10.33,1.85,3.1,7.04,4.64,9.07,1.66,4.78-4.3,4.19-11.59,2.97-17.68-1.22-6.09-2.5-13.04,1.35-18.06,3.85-5.02,14.96-3.43,14.2,2.77-.47,3.64-4.83,6.29-4.66,9.93.17,3.64,5,5.74,8.97,5.58,3.97-.16,7.97-1.49,11.82-.56,3.85.93,6.99,5.69,4.19,8.41-4.83,5.18-17.41-3.71-19.91,2.77-.71,1.65,0,3.52-.17,5.3-.46,5.41-7.62,7.4-13.33,8.06s-11.75,1.16-16.94-1.16c-5.19-2.32-8.73-8.77-5.76-13.42-2.9-1.99-7.33,0-8.9,3.1-1.57,3.1-1.1,6.62-.64,10.05-6.05-1.26-11.47,3.59-14.9,8.41-3.43,4.82-6.8,10.49-12.68,12.2-5.88,1.7-14.09-.6-17.16,4.48-4.02,6.62,7.62,15.01,3.55,21.52-2.35,3.71-7.92,3.61-12.35,4.77-11.7,3.14-15.77,19.38-7.8,28.06,7.97,8.67,23.93,8.18,32.36-.12,5.88-5.69,8.26-13.69,12.51-20.54,4.24-6.85,12.28-12.99,20.32-10.78,3.09,1.1,5.92,2.79,8.31,4.97,3.9,3.09,7.8,6.19,11.7,9.34,2.5,1.99,5.18,4.49,5,7.56-.22,2.5-2.26,4.44-3.14,6.75-2.43,6.62,7.75,13.03,14.15,9.39,6.4-3.64,7.11-12.98,2.74-18.72-6.05-7.96-19.73-11.93-19.39-21.77,6.99-5.41,17.99.27,22.06,7.95,4.07,7.68,4.19,16.68,7.62,24.58,3.43,7.9,13.04,14.98,21.06,11.11-2.09-6.85-4.12-13.64-6.23-20.44,5.17-3.64,11.01,6.97,17.11,5.2,3.73-1.11,4.19-6.19,2.55-9.62-1.64-3.43-4.47-6.29-5.17-9.93-1.16-6.74,6.76-12.76,13.92-11.59,7.16,1.17,12.27,7.58,13.61,14.25.26,2.71.88,5.36,1.86,7.91,2.67,5.3,9.61,6.9,15.3,9.1,5.69,2.2,11.7,7.68,9.32,13.09-1.1,2.38-3.73,4.63-2.79,7.07.88,2.15,4.24,3.1,4.24,5.41,0,1.56-1.73,2.6-3.26,3.21-3.83,1.49-8.02,1.99-11.75,3.71-3.73,1.72-7.11,5.08-6.81,8.94.47,5.53,7.4,8.18,10.66,12.76,2.81,3.91,2.74,8.97,4.12,13.57h42.62c-1.53-2.95-3.05-5.88-4.61-8.82,3.45-2.77,8.9-1.66,12.46,1.11,2.59,2.27,4.85,4.87,6.73,7.71h125.51c-1.98-9.93-4.41-19.76-7.28-29.48-1.38-4.6-2.83-9.12-4.38-13.61Z"/>
  <path class="cls-11" d="M632.1,740.38c-3.55-2.72-9.02-3.87-12.46-1.11,1.55,2.95,3.07,5.88,4.61,8.82h14.58c-1.88-2.84-4.14-5.44-6.73-7.71Z"/>
  <path class="cls-7" d="M98.12,728.4c5.81-13.24,26.48-11.17,38.47-19.73,7.43-5.3,10.76-14.2,15.18-21.98,4.42-7.78,11.82-15.58,21.13-15.2,3.14.12,6.23,1.23,9.37,1.11,9.19-.28,14.56-13.04,8.04-19.22-1.53-1.16-2.9-2.5-4.09-3.99-1.62-2.93.12-6.62,2.92-8.67,2.97-1.72,6.32-2.74,9.78-2.98,7.85-1.21,15.72-2.37,23.56-3.53,8.62-1.27,19.79-5.53,18.58-13.77-1.05-7.12-11.25-10.33-12.75-17.4-.41-1.66-.17-3.59-1-5.18-2.38-4.54-9.54-2.72-14.13-.28-1.86-6.62-11.76-9.57-17.25-5.25-4.64,3.64-5.17,10.05-6.9,15.53-3.83,13.24-14.96,23.31-25.55,32.64-3.45,3.1-7.56,6.41-12.39,6.62-4.83.21-9.9-4.68-7.69-8.72,1.52-2.76,5.71-4.37,5.3-7.45-.57-3.87-7.68-3.59-9.07-7.3,2.79-10.94,16.01-15.46,26.13-21.32,12.37-7.13,21.8-18.13,26.7-31.15.83-2.05,1.47-4.49.36-6.42-1.52-2.75-5.42-3.19-8.73-3.19-7.8-.12-17.53.88-20.37,7.78-1.52,3.71-.41,7.91-1.35,11.77-2.73,11.49-19.32,12.76-29.45,19.61-3.95,2.65-7.04,6.36-11.4,8.39-4.71,2.17-10.25,2-15.53,2.38-.92,0-1.86.17-2.79.28-3.2,4.18-6.28,8.48-9.26,12.9-2.98,4.41-5.85,8.86-8.63,13.33-13.14,21.33-23.83,43.97-31.88,67.52-2.85,8.27-5.37,16.66-7.56,25.18-1.47,5.74-2.78,11.54-3.93,17.4h1.73c1.16-3.84,2.02-7.68,2.74-11.02.19-.84.36-1.65.53-2.43,1.93-8.28,4.78-17.07,11.59-22.66,6.81-5.59,18.75-6.19,24.05.73,3.78,4.97,2.92,11.77,1.93,17.84-.98,6.07-1.93,11.65-2.92,17.54h16.68c-.12-.93-.24-1.85-.4-2.75-.93-5.69-2.14-11.65.22-16.95Z"/>
  <path class="cls-11" d="M82.59,712.71c-5.3-6.97-17.25-6.31-24.03-.73-6.78,5.58-9.66,14.32-11.59,22.66-.17.76-.35,1.66-.53,2.43-.72,3.31-1.59,7.18-2.74,11.03h37.95c.97-5.86,1.94-11.71,2.92-17.55.95-6.08,1.81-12.88-1.97-17.84Z"/>
  <path class="cls-6" d="M317.58,687.3c.81-5.58-7.38-10.15-13.54-10.63-2.93-.23-5.97.2-8.75-.73-6.02-2.02-8.43-9.47-14.3-11.85-4.4-1.77-9.45-.2-13.71,1.85-4.26,2.05-8.47,4.65-13.21,4.97-4.14.25-8.62-1.23-12.26.71-2.69,1.44-4.11,4.44-6.59,6.19-2.59,1.53-5.58,2.31-8.62,2.25-3.03-.08-6.04.39-8.88,1.39-2.76,1.21-5.04,3.99-4.47,6.84l104.35-.99Z"/>
  <path class="cls-6" d="M344.42,647.59c.53-3.81-5.07-6.93-9.28-7.27-2.01.07-4.03-.1-6-.5-4.12-1.39-5.76-6.49-9.78-8.13-3.02-1.21-6.47-.13-9.38,1.27-2.92,1.41-5.81,3.18-9.06,3.39-2.85.17-5.92-.84-8.4.48-1.85.99-2.81,3.04-4.52,4.24-1.76,1.06-3.82,1.6-5.9,1.54-2.07-.04-4.14.28-6.09.96-.96.36-1.78,1.02-2.33,1.86-.55.84-.8,1.84-.72,2.83l71.47-.68Z"/>
  <path class="cls-7" d="M205.88,468.6s-.14.12-.45.3l-1.35.79-5.18,3-3.78,2.14-4.43,2.67c-3.16,1.95-6.9,4.05-10.7,6.62l-6.12,4.01c-2.12,1.41-4.24,2.98-6.5,4.54-4.52,3.1-9.13,6.62-14.04,10.39-9.64,7.6-19.92,16.35-30.1,26.15-9.51,9.31-18.52,19.08-27,29.27-3.81,4.75-7.5,9.2-10.68,13.59-1.6,2.17-3.21,4.24-4.66,6.29l-4.11,5.93c-2.69,3.72-4.85,7.27-6.9,10.33l-2.74,4.27-2.19,3.66-3.05,5.05c-.33.55-.6.98-.81,1.31-.21.33-.29.45-.31.43-.02-.02,0-.16.22-.46l.74-1.36,2.9-5.13c.66-1.12,1.36-2.35,2.12-3.71.76-1.36,1.72-2.76,2.69-4.32,1.95-3.08,4.07-6.62,6.73-10.41l4.07-5.96c1.43-2.07,3.04-4.14,4.62-6.32,3.16-4.4,6.9-8.89,10.63-13.67,16.81-20.5,35.99-39.1,57.17-55.45,4.93-3.69,9.57-7.27,14.13-10.33,2.26-1.56,4.4-3.13,6.54-4.52l6.18-3.96c3.9-2.6,7.59-4.67,10.78-6.62,1.6-.94,3.07-1.84,4.47-2.63l3.83-2.07,5.33-2.85,1.4-.71.55-.23Z"/>
  <path class="cls-7" d="M248.35,433.81c-.32.17-.66.29-1.02.36l-2.98.89c-1.29.36-2.88.81-4.71,1.41-1.83.6-3.93,1.18-6.21,1.97-4.57,1.51-9.95,3.49-15.85,5.88-5.9,2.38-12.25,5.28-18.79,8.59-6.54,3.31-12.54,6.84-17.92,10.15-5.38,3.31-10.07,6.62-13.94,9.35-1.95,1.37-3.66,2.7-5.17,3.84-1.52,1.14-2.79,2.12-3.85,2.96l-2.43,1.87c-.26.24-.56.45-.88.61.24-.27.5-.52.78-.74l2.31-2c1.02-.86,2.26-1.92,3.76-3.08,1.5-1.16,3.17-2.53,5.18-3.94,3.81-2.88,8.52-6.12,13.8-9.53,5.28-3.41,11.42-6.89,17.96-10.25,6.54-3.36,12.96-6.17,18.87-8.57,5.92-2.4,11.37-4.27,15.99-5.7,2.29-.78,4.4-1.34,6.24-1.87,1.85-.53,3.45-.96,4.76-1.27l3.04-.73c.35-.09.71-.15,1.07-.2Z"/>
  <path class="cls-3" d="M36.23,611.57c-3.17-1.53-6.66-2.34-10.2-2.37-3.55-.03-7.05.73-10.24,2.22-3.19,1.49-5.98,3.66-8.15,6.35-2.17,2.69-3.67,5.82-4.37,9.16-.7,3.33-.6,6.78.31,10.07.91,3.29,2.6,6.33,4.93,8.89,2.33,2.56,5.25,4.57,8.53,5.87,3.28,1.3,6.82,1.86,10.36,1.63,1.73-.12,3.17-.6,5.07-.89l21.86-3.82c.65-.1,1.27-.35,1.8-.72.53-.37.96-.86,1.26-1.42.3-.56.45-1.19.45-1.82,0-.63-.16-1.25-.47-1.81l-9.66-18.79c-.73-1.64-1.54-3.23-2.45-4.78-2.22-3.32-5.34-5.99-9.02-7.75ZM34.85,635.65c-.9,1.72-2.31,3.15-4.06,4.1-1.75.95-3.74,1.38-5.75,1.24-2-.14-3.91-.85-5.5-2.03-1.58-1.18-2.76-2.79-3.39-4.62-.63-1.83-.68-3.79-.15-5.65.53-1.86,1.63-3.52,3.15-4.78,1.52-1.26,3.39-2.05,5.38-2.29,1.99-.24,4.01.1,5.8.97,2.4,1.16,4.22,3.19,5.06,5.64.84,2.45.64,5.12-.56,7.42Z"/>
  <path class="cls-3" d="M597.5,464.83c1.76-2.95,2.79-6.25,3.01-9.64.22-3.39-.38-6.79-1.76-9.92-1.37-3.14-3.48-5.92-6.16-8.15-2.68-2.23-5.86-3.83-9.29-4.68-3.43-.86-7.02-.94-10.49-.25-3.47.69-6.72,2.14-9.52,4.23-2.79,2.1-5.04,4.78-6.57,7.84s-2.31,6.43-2.27,9.83v.1c0,1.65.45,3.08.66,4.97l2.81,21.14c.08.61.31,1.2.67,1.71.36.51.83.94,1.39,1.25.56.31,1.18.48,1.83.52.64.04,1.28-.07,1.88-.32l20.08-8.28c1.76-.61,3.49-1.31,5.17-2.1,3.56-1.97,6.52-4.82,8.56-8.24ZM572.51,462.21c-1.75-.95-3.16-2.38-4.06-4.1-.9-1.72-1.25-3.66-.99-5.58.25-1.91,1.09-3.71,2.4-5.17,1.32-1.46,3.05-2.5,4.99-3.01,1.94-.51,3.99-.45,5.89.16,1.9.61,3.58,1.76,4.8,3.28s1.96,3.37,2.09,5.29c.14,1.92-.33,3.84-1.33,5.51-1.33,2.23-3.54,3.86-6.12,4.54-2.59.68-5.35.34-7.68-.93Z"/>
  <path class="cls-3" d="M253.91,454.01c-1.21-1.7-2.82-3.11-4.69-4.13-1.87-1.01-3.96-1.59-6.11-1.7-2.15-.11-4.29.26-6.26,1.07-1.97.81-3.73,2.06-5.12,3.62-1.39,1.57-2.39,3.43-2.91,5.43-.52,2-.56,4.09-.1,6.1.46,2.02,1.39,3.9,2.73,5.52,1.34,1.61,3.05,2.91,4.99,3.78.95.43,1.86.58,2.97.96l12.76,4.11c.37.12.76.15,1.15.1.39-.05.76-.19,1.08-.4.32-.21.59-.49.78-.82.19-.33.3-.69.32-1.07l.6-12.7c.11-1.07.17-2.15.15-3.23-.15-2.38-.96-4.68-2.35-6.65ZM245.82,466.39c-1,.66-2.18,1.02-3.4,1.03-1.21.01-2.41-.32-3.43-.95-1.02-.63-1.82-1.55-2.3-2.62-.48-1.07-.62-2.25-.39-3.4s.79-2.2,1.64-3.04c.85-.83,1.93-1.41,3.12-1.65,1.19-.24,2.43-.14,3.55.29,1.13.43,2.1,1.18,2.78,2.14.46.64.78,1.36.95,2.11.17.76.18,1.54.03,2.3-.15.76-.45,1.49-.89,2.13-.44.65-1.01,1.21-1.67,1.65Z"/>
  <path class="cls-3" d="M430.88,655.3c0-2.06-.49-4.09-1.44-5.94-.95-1.85-2.33-3.46-4.04-4.71-1.7-1.25-3.69-2.11-5.79-2.51-2.11-.4-4.28-.33-6.35.21-2.07.54-3.99,1.53-5.6,2.89-1.61,1.36-2.87,3.07-3.68,4.97-.81,1.91-1.16,3.97-1,6.02.15,2.05.8,4.05,1.88,5.83.54.88,1.21,1.49,1.9,2.4l8.11,10.31c.23.3.54.55.89.72.35.17.73.26,1.12.26s.78-.09,1.12-.26c.35-.17.65-.41.88-.72l7.99-10.15c.73-.83,1.4-1.69,2.04-2.58,1.28-2.04,1.96-4.37,1.98-6.75ZM416.91,661.09c-1.22,0-2.41-.34-3.43-.99-1.01-.65-1.81-1.57-2.28-2.65-.47-1.08-.59-2.27-.36-3.41.24-1.15.82-2.2,1.68-3.03.86-.83,1.96-1.39,3.15-1.62s2.43-.11,3.56.33c1.13.45,2.09,1.2,2.77,2.18.68.97,1.04,2.11,1.04,3.28,0,1.56-.65,3.06-1.8,4.17-1.15,1.11-2.71,1.73-4.34,1.74Z"/>
  <path class="cls-3" d="M749.32,612.31c1.65-1.32,2.96-2.98,3.83-4.86s1.28-3.93,1.19-5.99-.67-4.07-1.69-5.88c-1.03-1.81-2.47-3.37-4.23-4.55-1.76-1.18-3.77-1.97-5.89-2.28s-4.29-.16-6.33.46c-2.05.62-3.92,1.68-5.47,3.1-1.55,1.42-2.74,3.17-3.47,5.1-.36.96-.43,1.85-.72,2.93l-3.07,12.58c-.09.36-.09.74,0,1.11.09.36.26.71.51.99.25.29.57.52.92.67.36.15.75.22,1.14.2l13.23-.6c1.12,0,2.25-.04,3.36-.15,2.46-.36,4.77-1.34,6.69-2.85ZM735.71,605.69c-.78-.9-1.27-1.99-1.4-3.15-.13-1.16.1-2.33.67-3.36.57-1.03,1.44-1.88,2.51-2.44,1.07-.56,2.29-.8,3.5-.69s2.36.56,3.31,1.29c.95.74,1.64,1.72,2,2.84.36,1.11.36,2.31.02,3.42-.35,1.12-1.03,2.11-1.97,2.86-1.25,1-2.85,1.48-4.47,1.34-1.62-.14-3.11-.88-4.16-2.07v-.03Z"/>
  <path class="cls-9" d="M377.68,165.43l78.66-22.08,10.64,25.67-91.32,14.4,2.02-17.99Z"/>
  <path class="cls-9" d="M377.68,165.43s-15.18.98-16.7,1.9-17.25,1.66-17.25,3.84.74,1.03,3.24,1.17c2.5.15,8.47-.73,8.54.3.07,1.03-18.39,3.84-18.97,4.6-.59.76-2.19,1.51.1,2.14,0,0-2.85,1.32-2.24,2.95.19.78.64,1.48,1.3,1.99.65.5,1.47.78,2.31.78,1.72-.15,15.37-.63,15.37-.63,0,0-15.09.73-15.03,2.17.07,1.44-.47,1.27,1.4,2.32,1.86,1.04,11.8,1.04,11.8,1.04l11.56-2.24s-8.11,3.81-9.11,5.33c-1,1.52-1.55,4.32,0,5.28,1.55.96,2.22-.41,3.45-1.66,1.23-1.24,11.16-5.86,12.96-7.13,1.79-1.27,10.66-9.43,10.66-9.43l-3.38-14.71Z"/>
  <path class="cls-7" d="M528.96,43.35c.53-.6,1.2-1.05,1.97-1.32,2.49-1.05,5.3-1.15,7.87-.28-1.44-1.93-2.48-4.11-3.07-6.42-.28-1.16-.25-2.38.1-3.52.35-1.15,1-2.18,1.9-3.02.99-.67,2.12-1.12,3.31-1.34,1.19-.22,2.41-.2,3.59.07,3.38.41,6.51,1.9,8.9,4.22,1.17,1.18,2.03,2.6,2.51,4.17.47,1.56.55,3.21.22,4.81l-6.9,5.18c-2,2.46-4.64,4.36-7.66,5.51-.65.34-1.38.51-2.12.48-.74-.03-1.45-.24-2.07-.63-.42-.44-.68-1-.76-1.59-.08-.59.04-1.19.33-1.72.61-1.06,1.45-1.98,2.47-2.7-2.58,1.13-5.41,1.63-8.25,1.46-.49.02-.98-.06-1.42-.25-.45-.19-.85-.47-1.16-.83-.18-.36-.26-.77-.21-1.17.05-.4.21-.78.47-1.1Z"/>
  <path class="cls-11" d="M536.4,28.92c0,.08,1.24.12,3.14.61,2.46.66,4.73,1.87,6.62,3.53,1.88,1.67,3.33,3.73,4.24,6.03.69,1.77.83,2.95.91,2.95.05-.28.05-.56,0-.84-.11-.75-.3-1.49-.55-2.2-.84-2.4-2.3-4.55-4.23-6.27-1.96-1.7-4.33-2.9-6.9-3.48-.77-.18-1.54-.29-2.33-.35-.3-.04-.61-.03-.92.03Z"/>
  <path class="cls-11" d="M549.09,44.77c.25-.58.61-1.11,1.07-1.56,1.53-2.05,3.65-3.61,6.11-4.5.22-.08.45-.11.68-.09.23.02.46.08.66.19.59.43.38,1.34-.1,1.89-.55.49-1.04,1.05-1.45,1.66l-3.71,3.71c-.34.46-.82.8-1.38.98-.28.09-.57.1-.85.04-.28-.06-.54-.19-.75-.39-.24-.26-.39-.58-.44-.92-.05-.34,0-.69.17-1Z"/>
  <path class="cls-7" d="M534.55,77.43c.98-5.77,2.47-11.45,4.47-16.97,2.01-5.54,5.42-10.52,9.94-14.48.69-.58,5.9-4.19,6.66-3.69.76.5-3.55,4.14-3.54,4.77-.05,6.08-2.04,12.01-5.69,16.98-3.41,4.87-7.38,9.36-11.83,13.39Z"/>
  <path class="cls-9" d="M520.29,102.48l24.96-44.86c6.9-13.06,20.6-20.08,34.02-13.09l1.41.84c5.77,3.44,9.98,8.83,11.79,15.12,1.81,6.28,1.09,12.99-2.01,18.78-6.09,11.34-12.99,23.85-16.82,29.61-7.88,11.85-21.53,6.29-21.53,6.29,0,0-4.92,8.28-7.02,11.79,0,0-1.92,1.03-13.8-5.28-11.89-6.31-11.01-19.2-11.01-19.2Z"/>
  <path class="cls-10" d="M552.11,115.17c-5.74-3.44-10.33-8.38-13.23-14.25,0,0-1.72,11.04,11.44,17.36l1.79-3.11Z"/>
  <path class="cls-7" d="M581.8,86.47c-.28.45-.73.78-1.25.91-.53.13-1.09.06-1.56-.2-.24-.12-.45-.28-.62-.47-.17-.2-.3-.42-.38-.67s-.1-.5-.08-.76.11-.5.23-.73c.28-.45.73-.78,1.26-.91.53-.13,1.09-.06,1.57.2.24.12.45.28.62.48.17.2.3.43.38.67.08.25.1.5.07.76-.03.25-.11.5-.24.73Z"/>
  <path class="cls-7" d="M584.87,82.2c-.36,0-1.09-1.66-3-2.81-1.91-1.16-3.92-1.04-3.98-1.39-.07-.35.45-.43,1.35-.5,1.21-.07,2.42.22,3.45.84.99.59,1.77,1.47,2.21,2.52.22.78.15,1.29-.02,1.34Z"/>
  <path class="cls-7" d="M563.74,76.92c-.14.22-.32.42-.53.57-.22.16-.46.27-.72.33-.26.06-.53.08-.8.04-.27-.04-.52-.12-.76-.25-.24-.12-.45-.27-.62-.47-.17-.2-.3-.42-.38-.67-.08-.24-.11-.5-.08-.76.03-.25.11-.5.24-.72.28-.45.73-.78,1.26-.91.53-.13,1.09-.06,1.57.2.24.12.45.28.62.48.17.2.3.43.38.67.08.25.1.5.07.76-.03.25-.11.5-.24.73Z"/>
  <path class="cls-7" d="M565.47,72.1c-.38,0-1.1-1.66-3.02-2.8-1.91-1.14-3.92-1.06-3.97-1.41-.05-.35.45-.43,1.33-.5,1.18-.06,2.36.24,3.36.84,1,.59,1.77,1.47,2.21,2.52.31.78.23,1.31.09,1.34Z"/>
  <path class="cls-7" d="M563,90.61c1.2.29,2.36.73,3.45,1.31.52.25,1.05.43,1.33.17.38-.48.58-1.06.57-1.66.28-1.4.57-2.87.88-4.42.61-3.82,1.55-7.59,2.79-11.27-.3,3.86-.92,7.69-1.85,11.45-.33,1.54-.64,3.01-.95,4.42-.06.75-.39,1.45-.93,1.99-.18.12-.38.2-.6.24-.21.03-.44.02-.64-.04-.32-.08-.62-.21-.9-.38-1.13-.47-2.19-1.07-3.16-1.8Z"/>
  <path class="cls-7" d="M569.19,67.96c-.55.31-2.12-1.24-4.38-2.6-2.26-1.36-4.38-2.09-4.38-2.7,0-.3.69-.51,1.73-.43,1.35.13,2.66.57,3.79,1.29,1.16.69,2.13,1.63,2.83,2.75.59.88.67,1.52.41,1.69Z"/>
  <path class="cls-7" d="M587.54,78.44c-.65.18-1.9-1.18-3.73-2.3-1.83-1.13-3.57-1.75-3.66-2.4,0-.31.5-.58,1.45-.56,1.24.08,2.43.48,3.45,1.16,1.05.64,1.9,1.55,2.45,2.63.41.78.35,1.32.03,1.47Z"/>
  <path class="cls-9" d="M540.56,67.07c-.16-.22-6.99-7.51-12.08.81-5.09,8.33,4.74,11.44,4.9,11.21.15-.23,7.18-12.02,7.18-12.02Z"/>
  <path class="cls-10" d="M532.69,74.47h-.54c-.45-.05-.86-.27-1.14-.61-.36-.65-.52-1.38-.49-2.11.04-.73.28-1.44.69-2.06.42-.73,1.01-1.36,1.73-1.84.23-.2.51-.35.8-.44.3-.09.61-.11.92-.06.2.06.37.17.49.34.12.16.18.36.16.56,0,.3-.19.43-.14.48.05.05.26,0,.4-.41.09-.23.09-.48,0-.71-.14-.3-.39-.54-.71-.68-.4-.13-.82-.16-1.24-.09-.41.07-.8.25-1.13.5-.81.51-1.46,1.21-1.91,2.04-.5.71-.76,1.55-.76,2.41s.27,1.7.76,2.41c.2.19.43.34.7.43s.54.13.82.11c.45-.08.6-.25.57-.26Z"/>
  <path class="cls-7" d="M592.88,62.55c1.85,0,.21-6.62-2.38-10.06-3.88-5.13-11.06-10.89-16.68-12.2-6.74-1.66-13.21-1.42-19.13,2.07-5.88,3.64-10.65,8.72-13.8,14.72-1.1,1.75-1.7,3.75-1.72,5.79.14,2.5,1.72,4.97.17,7.43-.61.9-.83,1.99-.6,3.05.64,2.5,3.45,2.04,5.29.98,3.85-2.23,6.37-6.03,8.75-9.7,1.85-2.52,3.25-5.32,4.16-8.28.4-1.66.48-3.31.97-4.97.2-.81.58-1.58,1.11-2.24.53-.66,1.21-1.21,1.98-1.6.36-.13.73-.23,1.1-.3,1.82-.35,3.71-.23,5.47.35,1.76.58,3.32,1.6,4.53,2.96,3.93,4.34,10.85,11.39,13.97,10.97,2.15-.14,4.25-.7,6.16-1.66l.65,2.68Z"/>
  <path class="cls-7" d="M574.95,39.41c2.86.48,5.6,1.51,8.05,3.01,2.45,1.51,4.56,3.46,6.21,5.76.91,1.2,1.55,2.56,1.9,4.01.34,1.45.37,2.94.09,4.4-.33,1.45-1.18,2.74-2.41,3.65-1.22.91-2.74,1.37-4.29,1.32h-.22c-4.43-.81-6.57-2.6-9.56-5.86-2.5-2.73-4.19-6.07-6.71-8.81-2.71-2.9-6.27-4.96-10.21-5.91,5.47-1.97,11.39-2.51,17.15-1.57Z"/>
  <path class="cls-11" d="M559.53,40.27s.48,0,1.35.15c1.22.2,2.39.61,3.45,1.21,1.57.88,2.95,2.05,4.05,3.44,1.36,1.72,2.55,3.54,3.57,5.46,1.04,1.93,2.22,3.79,3.54,5.56,1.1,1.45,2.47,2.69,4.04,3.67,1.05.65,2.22,1.11,3.45,1.36.33.07.66.11,1,.12h.36c-1.66-.22-3.25-.79-4.66-1.66-1.5-.99-2.81-2.23-3.86-3.66-1.28-1.77-2.43-3.61-3.45-5.53-1.02-1.95-2.24-3.79-3.64-5.51-1.15-1.41-2.59-2.59-4.23-3.46-1.11-.59-2.33-.96-3.59-1.09-.34-.03-.68-.03-1.02,0l-.36-.07Z"/>
  <path class="cls-11" d="M564.83,39.54c1.52.21,2.98.71,4.3,1.47,1.4.85,2.64,1.93,3.66,3.19,1.23,1.54,2.28,3.21,3.14,4.97.95,1.87,1.72,3.72,2.67,5.33.78,1.45,1.72,2.81,2.79,4.07.73.85,1.57,1.61,2.5,2.25.25.17.52.33.79.46.17.1.28.15.29.13-1.24-.87-2.36-1.9-3.33-3.05-1.02-1.27-1.91-2.62-2.66-4.06-.88-1.66-1.72-3.46-2.66-5.35-.85-1.82-1.93-3.53-3.21-5.1-1.07-1.28-2.36-2.37-3.83-3.21-.99-.56-2.08-.95-3.21-1.14-.31-.03-.62-.03-.93,0-.22-.02-.33,0-.33.02Z"/>
  <path class="cls-11" d="M549.46,45.34c-.12.23-.21.47-.24.73-.18.66-.31,1.33-.38,2-.52,4.51.52,9.05,2.97,12.93.36.58.77,1.14,1.22,1.66.31.38.5.58.53.56.04-.02-.6-.89-1.47-2.4-2.25-3.91-3.26-8.36-2.91-12.81.12-1.69.36-2.67.28-2.67Z"/>
  <path class="cls-11" d="M544.9,50.57c-.16.19-.28.4-.35.63-.23.6-.37,1.23-.43,1.87-.15,2.13.35,4.26,1.43,6.12,1.08,1.83,2.42,3.5,3.99,4.97.59.65,1.26,1.24,1.98,1.75-.52-.7-1.1-1.36-1.72-1.97-1.46-1.51-2.74-3.18-3.81-4.97-1.04-1.8-1.56-3.82-1.52-5.88.08-.85.22-1.7.43-2.53Z"/>
  <path class="cls-11" d="M586.79,47.99c.08.71.22,1.41.41,2.1.38,1.66.52,3.37.43,5.07-.12,1.69-.72,3.31-1.72,4.7-.47.54-.97,1.05-1.5,1.54.19-.06.37-.15.53-.26.46-.3.87-.67,1.22-1.08,1.1-1.38,1.75-3.05,1.86-4.78.12-1.75-.08-3.5-.59-5.18-.1-.73-.32-1.44-.65-2.1Z"/>
  <path class="cls-11" d="M590.48,55.27c-.47,1.43-1.23,2.77-2.23,3.92-1.11,1.07-2.42,1.92-3.86,2.52.48,0,.95-.1,1.38-.31,1.08-.42,2.05-1.06,2.83-1.89.79-.83,1.38-1.81,1.72-2.88.17-.43.22-.9.16-1.36Z"/>
  <path class="cls-7" d="M528.45,76.14c.1,0-.21.63-.4,1.56-.12.52-.06,1.06.17,1.54.17.26.39.48.67.64.27.16.58.25.9.27.32.01.65-.05.94-.17.3-.12.57-.3.78-.53.4-.37.67-.86.76-1.39.19-.93,0-1.56.09-1.66.09-.1.48.55.41,1.66-.04.65-.31,1.28-.76,1.77-.29.31-.64.56-1.04.72-.4.16-.83.24-1.26.22-.44-.02-.87-.16-1.24-.39-.37-.23-.67-.55-.87-.93-.28-.61-.31-1.29-.09-1.92.36-.96.86-1.42.91-1.39Z"/>
  <path class="cls-7" d="M526.91,72.29c0,.1-.4.23-.6.78-.12.29-.12.62,0,.91.09.16.22.31.37.41.16.11.34.18.53.21.37.05.75,0,1.08-.18.33-.17.59-.44.75-.77.28-.55.28-.96.38-.98.1-.02.31.43.1,1.16-.14.43-.41.81-.78,1.09-.24.18-.52.3-.82.36-.3.06-.61.05-.9-.02-.27-.04-.53-.15-.75-.31-.22-.16-.4-.37-.52-.61-.12-.24-.17-.5-.16-.77.01-.27.09-.53.22-.76.5-.7,1.14-.65,1.1-.55Z"/>
  <path class="cls-7" d="M529.69,66.46c0,.1-.43,0-1,.17-.34.1-.64.3-.85.59-.21.28-.31.62-.28.97.02.34.17.67.41.93.24.26.56.43.92.48.57.12.97,0,1,0s-.29.43-1.05.43c-.45,0-.89-.15-1.24-.43-.22-.18-.4-.39-.53-.64-.13-.25-.2-.51-.22-.79-.04-.49.12-.98.44-1.36.32-.38.78-.64,1.29-.71.81-.03,1.17.3,1.12.36Z"/>
  <path class="cls-7" d="M558.18,90.11c.29.17-.88,1.99-.1,4.25.78,2.27,2.95,3.31,2.79,3.54-.15.23-.69,0-1.55-.4-1.11-.66-1.93-1.68-2.35-2.86-.4-1.15-.33-2.4.21-3.49.38-.79.88-1.13,1-1.04Z"/>
  <path class="cls-11" d="M456.67,402.87l-10.59,27.54s30.4,14.6,30.1,20.26l-61.22-6.42,14.37-45.62,27.34,4.24Z"/>
  <path class="cls-5" d="M427.45,425.9c-.61.12-1.15.44-1.53.91-.38.47-.56,1.06-.52,1.65.09.58.42,1.11.91,1.48.49.36,1.1.53,1.72.48.65-.12,1.22-.46,1.62-.96.4-.5.59-1.13.54-1.76-.16-.6-.56-1.12-1.12-1.45-.55-.33-1.22-.44-1.85-.3"/>
  <path class="cls-5" d="M414.96,444.26l1.47-4.65,57.75,7.85s2.59,1.42,2.07,3.31l-61.29-6.5Z"/>
  <path class="cls-7" d="M446.13,430.8c0,.28-1.55.26-3.14,1.03-1.59.76-2.48,1.89-2.76,1.75-.28-.13.38-1.75,2.31-2.67,1.93-.91,3.67-.38,3.59-.11Z"/>
  <path class="cls-7" d="M452.67,434.17c0,.3-1.31.65-2.47,1.76-1.16,1.11-1.59,2.35-1.9,2.32-.31-.03-.29-1.65,1.17-3.05,1.47-1.39,3.21-1.29,3.19-1.03Z"/>
  <path class="cls-7" d="M455.51,441.95c-.28,0-.54-1.44.41-2.93.95-1.49,2.42-1.97,2.52-1.65.1.32-.86,1.01-1.62,2.24-.76,1.22-1.02,2.35-1.31,2.35Z"/>
  <path class="cls-7" d="M448.47,424.64c-.17.25-1.45-.41-3.14-.63-1.69-.21-3.09,0-3.19-.25-.1-.25,1.36-1.03,3.35-.74,1.98.28,3.17,1.37,2.98,1.62Z"/>
  <path class="cls-11" d="M264.24,345.06l-31.57,5.76s.81,32.61-4.52,35.01l-22.79-54.9,48.68-9.27,10.19,23.4Z"/>
  <path class="cls-5" d="M228.1,332.91c-.39-.47-.94-.78-1.55-.88-.61-.1-1.24.02-1.76.33-.5.35-.84.88-.94,1.46-.11.59.03,1.19.38,1.68.41.48.98.8,1.62.9.64.1,1.29-.02,1.83-.35.47-.42.76-.99.8-1.61.04-.62-.17-1.23-.58-1.7"/>
  <path class="cls-5" d="M205.37,330.92l4.88-.88,19.84,52.57s-.1,2.88-2,3.31l-22.72-55Z"/>
  <path class="cls-7" d="M232.36,351.03c-.29.1-.97-1.19-2.41-2.17-1.45-.98-2.92-1.24-2.9-1.52s1.73-.51,3.45.7c1.73,1.21,2.17,2.95,1.86,3Z"/>
  <path class="cls-7" d="M232.31,358.18c-.24.17-1.21-.83-2.76-1.27-1.55-.45-2.91-.25-3.02-.51-.1-.26,1.42-1.06,3.35-.45,1.93.61,2.69,2.1,2.43,2.24Z"/>
  <path class="cls-7" d="M226.5,364.22c-.17-.23,1.07-1.13,2.9-1.03,1.83.1,2.93,1.13,2.74,1.33-.19.2-1.31-.27-2.81-.33-1.5-.07-2.69.28-2.83.03Z"/>
  <path class="cls-7" d="M239.12,350.14c-.31,0-.29-1.42-.88-2.96-.59-1.54-1.48-2.6-1.28-2.81s1.59.66,2.26,2.48c.67,1.82.15,3.36-.1,3.29Z"/>
  <path class="cls-7" d="M401.24,163.31s-20.7,9.83-30.81,25.09c-10.11,15.26-38.85,90.16-38.85,90.16,0,0-11.83,7.15-13.66,12.46-1.83,5.31-80.83,30.04-80.83,30.04l7.74,30.13s95.57-19.86,101.93-25.46c6.37-5.6,63.29-69.95,63.29-69.95l42.06,69.52s-14.61,29.94-18.15,40.84c-3.54,10.89-16.63,47.77-16.63,47.77l34.42,2.33s31.48-65.22,39.43-77.8c7.95-12.58,6.9-20.69,4.02-28.06s-42.16-98.62-42.16-98.62l14.59-12.66-48.92-46.18-17.47,10.38Z"/>
  <path class="cls-11" d="M337.07,310.03c-.56-1.14-.97-2.33-1.23-3.56-.75-2.92-1.24-5.9-1.47-8.91-.35-3.98-.16-7.98.55-11.92h.26c-.14.53-.22.78-.28.78s0-.28,0-.83h.28c-.27,3.94-.27,7.89,0,11.83.22,2.97.64,5.92,1.24,8.84.31,1.23.53,2.49.64,3.76Z"/>
  <path class="cls-11" d="M335.78,308.95c-2.11-2.35-3.85-4.98-5.18-7.81-1.59-2.72-2.76-5.66-3.45-8.71.23-.08,1.73,3.81,4.12,8.36,2.4,4.55,4.71,8.03,4.5,8.16Z"/>
  <path class="cls-11" d="M474.56,324.38c-2.82-.71-5.71-1.07-8.62-1.06-2.87.26-5.69.89-8.38,1.85.64-.57,1.4-1.01,2.23-1.29,1.95-.78,4.02-1.23,6.12-1.34,2.11-.1,4.22.17,6.23.78.88.18,1.71.54,2.43,1.06Z"/>
  <path class="cls-11" d="M469.12,327.16c-.1.21-2.95-.98-6.68-1.34-3.73-.36-6.78.2-6.9,0,2.22-.72,4.58-.97,6.91-.73s4.58.95,6.6,2.1l.07-.03Z"/>
  <path class="cls-11" d="M426.39,236.35c-.71,1.26-1.54,2.46-2.49,3.58-1.62,2.14-3.97,4.97-6.67,8.13-2.71,3.16-5.28,5.83-7.18,7.73-.98,1.09-2.06,2.09-3.24,2.98.84-1.18,1.78-2.29,2.81-3.31l6.9-7.86,6.9-7.98c.89-1.16,1.89-2.25,2.97-3.26Z"/>
  <path class="cls-11" d="M336.29,287.09c.13-.37.29-.73.48-1.08.31-.7.86-1.65,1.47-3.05,1.28-2.65,3-6.52,4.93-11.39,1.93-4.87,4.04-10.73,6.24-17.28,2.21-6.55,4.55-13.79,7.3-21.3,2.55-7.08,5.56-14.01,9.01-20.74,2.82-5.5,6.15-10.74,9.94-15.68,2.55-3.33,5.38-6.44,8.47-9.32,1.07-1.04,2-1.74,2.61-2.25.3-.27.61-.52.95-.74-.25.31-.54.6-.85.86-.55.55-1.45,1.29-2.48,2.35-2.99,2.94-5.74,6.1-8.24,9.43-3.69,4.95-6.94,10.19-9.71,15.66-3.4,6.72-6.37,13.62-8.92,20.67-2.74,7.5-5.17,14.73-7.35,21.27-2.17,6.54-4.4,12.41-6.42,17.26-2.02,4.85-3.81,8.71-5.18,11.32-.65,1.32-1.24,2.3-1.62,2.98-.17.36-.37.7-.62,1.01Z"/>
  <path class="cls-11" d="M332.73,289.17c0,.23-1.48.65-3.09,1.65-1.6,1.01-2.62,2.2-2.81,2.07-.19-.13.6-1.66,2.36-2.71.49-.38,1.06-.67,1.66-.84.61-.17,1.24-.23,1.87-.17Z"/>
  <path class="cls-11" d="M325.62,295.28c-.23.18-.5.33-.78.45l-2.31,1.11c-2,.96-4.95,2.28-8.62,3.86-7.31,3.18-17.54,7.27-29.07,11.22-11.52,3.96-22.17,7-29.91,9-3.86.99-7,1.77-9.19,2.25l-2.52.53c-.29.07-.59.12-.9.15.27-.14.56-.24.86-.3l2.47-.68,9.14-2.48c7.69-2.12,18.27-5.26,29.77-9.2,11.51-3.94,21.75-7.96,29.1-10.99l8.62-3.64,2.38-.98c.3-.13.62-.23.95-.3Z"/>
  <path class="cls-11" d="M400,200.12c-.65.86-1.49,1.58-2.45,2.12-2.25,1.43-4.82,2.33-7.5,2.63-2.68.32-5.41.03-7.95-.84-1.02-.29-1.98-.78-2.79-1.44,0-.12,1.17.46,3.09.99,2.48.71,5.08.93,7.65.65,2.57-.29,5.05-1.07,7.3-2.3.85-.65,1.74-1.25,2.66-1.8Z"/>
  <path class="cls-11" d="M425.74,414.25c.04-.32.11-.64.21-.94.17-.7.41-1.57.71-2.67.64-2.3,1.62-5.63,2.9-9.72,2.55-8.18,6.38-19.38,11.2-31.55,4.81-12.17,9.76-22.99,13.52-30.72,1.88-3.87,3.45-6.98,4.57-9.1.55-1.01.98-1.8,1.31-2.45.14-.29.31-.57.52-.83-.09.31-.21.62-.36.91l-1.17,2.5c-1.07,2.25-2.54,5.38-4.35,9.19-3.62,7.78-8.45,18.62-13.28,30.77-4.83,12.15-8.73,23.32-11.42,31.45-1.29,3.99-2.36,7.27-3.12,9.63-.36,1.08-.64,1.94-.86,2.61-.08.32-.21.62-.36.91Z"/>
  <path class="cls-3" d="M541.45,114.01l-18.56-17.22s-17.92-.26-27.6,2.68c-9.68,2.95-109.49,71.18-109.49,71.18,13.35,5.12,25.08,16.55,36.12,30.61,9.32,10.61,12.45,26.37,26.01,31.17,2.88,1.01,13.16-1.9,13.16-1.9l2.36-10.26,81.2-74.35s3.69-21.37-3.21-31.9Z"/>
  <g class="cls-12">
    <path class="cls-1" d="M482.3,169.78c-10.58.36-20.95-2.85-29.33-9.05,12.54-6.26,23.41-15.13,34.17-23.94,8.14-6.62,21.61-17.69,32.38-24.7-21.96,2.61-53.34,12.36-72.45,23.17-16.42,9.34-31.48,21.63-49.85,26.65l-2.74-.17c.29,5.16,4.59,9.55,9.61,11.45,5.14,1.66,10.64,2.02,15.97,1.06,5.3-.96,10.65-1.63,16.02-2.02,8.21-.18,16.2,2.18,24.27,3.54,8.07,1.36,16.89,1.56,23.93-2.48.71-.41,1.45-.96,1.5-1.75.16-1.44-1.97-1.84-3.48-1.77Z"/>
  </g>
  <path class="cls-11" d="M524.2,159.09c-30.77,5.88-62.55,4.82-92.82-3.1l.81,10.35c15.66,3.51,31.46,7.02,47.54,7.63,16.08.61,32.67-1.9,46.58-9.72-.81-1.72-1.5-3.44-2.1-5.16Z"/>
  <g class="cls-12">
    <path class="cls-1" d="M510.07,169.91c-.59-13.8-.18-27.63,1.21-41.38l.33-1.39c-3.17,3.31-4.12,7.91-4.73,12.33-1.87,13.46-1.81,27.11.17,40.55l3.45-2.22c.03-.61-.36-5.13-.43-7.9Z"/>
  </g>
  <path class="cls-7" d="M537.16,107.28c-8.19-6.62-23.79-3.19-33.76.66l-7.35,14.63c9.82-2.95,26.43-13.11,35.86-9.17,9.44,3.94,12.76,12.18,14.99,21.85,1.12-5.07.8-10.34-.91-15.26-1.71-4.92-4.76-9.31-8.84-12.71Z"/>
  <path class="cls-11" d="M503.67,84.22c-8.62-5.84-19.63-5.15-29.86-4.09-19.82,2.05-33.07,11.22-53.48,17.88-12.7,3.99-23.32,12.52-29.64,23.82-7.66,14.17-6.59,27.26,3.33,40.17l3.45,3.18c3.53,3.3,7.98,5.54,12.81,6.45,4.83.91,9.84.45,14.41-1.32,26.31-10.35,42.95-27.01,69.86-43.04,7.87-4.69,15.89-9.93,18.2-19.42,1.09-4.36.8-8.93-.82-13.14-1.62-4.21-4.5-7.86-8.27-10.5Z"/>
  <path class="cls-7" d="M510.83,93.06c0,.47-.06.93-.16,1.39-.29,1.31-.74,2.58-1.33,3.79-2.4,4.37-5.79,8.18-9.92,11.12-13.18,10.02-26.95,19.31-41.25,27.81-8.35,4.96-16.51,9.47-24.01,13.36-3.76,1.95-7.35,3.74-10.75,5.4-3.12,1.58-6.34,2.98-9.63,4.2-4.78,1.89-10.02,2.43-15.11,1.56-1.36-.28-2.69-.72-3.95-1.29-.33-.15-.65-.32-.95-.51-.11-.05-.22-.12-.31-.2,1.69.75,3.46,1.31,5.28,1.65,5.02.73,10.15.11,14.82-1.8,3.26-1.25,6.43-2.68,9.52-4.27,3.36-1.66,6.9-3.48,10.68-5.45,7.47-3.92,15.52-8.41,23.94-13.41,14.29-8.49,28.1-17.68,41.4-27.54,4.11-2.86,7.52-6.53,10.01-10.78.78-1.6,1.35-3.29,1.71-5.03Z"/>
  <path class="cls-7" d="M454.75,137.92c-.21.12-6.59-9.14-14.23-20.67-7.64-11.54-13.7-21.02-13.49-21.15s6.59,9.14,14.25,20.69c7.66,11.55,13.68,21.01,13.47,21.14Z"/>
  <path class="cls-7" d="M448.04,127.75c-.64.3-1.18.76-1.57,1.32-.39.69-.82,1.36-1.29,2-.35.43-.82.74-1.36.91-.32.08-.65.09-.97.02-.32-.07-.62-.21-.87-.42-.28-.23-.48-.53-.57-.88-.03-.18-.02-.36.03-.54.05-.18.13-.34.25-.49.39-.4.9-.67,1.47-.78l2.35-.61c1.35-.33,2.19-.48,2.23-.36.03.12-.74.46-2.04.94l-2.29.79c-.9.23-1.48.76-.85,1.26.14.11.31.19.49.24.18.04.37.05.55.01.38-.11.72-.33.97-.63.57-.58.95-1.31,1.43-1.84.36-.46.85-.8,1.41-.98.41-.12.66-.03.66.02Z"/>
  <path class="cls-7" d="M484.39,463.54c0,2.28-.7,4.5-2.02,6.4-1.32,1.89-3.2,3.37-5.39,4.24-2.19.87-4.61,1.09-6.93.65-2.33-.45-4.46-1.55-6.14-3.16-1.67-1.61-2.81-3.67-3.27-5.9-.46-2.23-.21-4.55.7-6.65.91-2.1,2.46-3.89,4.44-5.15,1.98-1.26,4.3-1.92,6.67-1.91,3.17.01,6.21,1.23,8.44,3.39s3.49,5.08,3.49,8.12Z"/>
  <path class="cls-11" d="M483.2,463.54c-.09,0,0-.93-.5-2.48-.63-2.21-2.02-4.16-3.93-5.53-1.31-.93-2.83-1.56-4.43-1.84-1.94-.34-3.94-.15-5.77.55s-3.42,1.88-4.58,3.41c-1.31,1.71-2.02,3.77-2.02,5.89s.71,4.19,2.02,5.89c1.21,1.6,2.89,2.82,4.83,3.49,1.75.62,3.63.78,5.47.46,1.61-.28,3.12-.9,4.43-1.84,1.92-1.37,3.3-3.32,3.93-5.53.45-1.56.41-2.48.5-2.48.02.22.02.44,0,.66,0,.64-.07,1.28-.23,1.9-.54,2.34-1.92,4.41-3.9,5.88-1.36,1.03-2.96,1.72-4.66,2.04-1.61.3-3.27.26-4.86-.13-1.59-.39-3.08-1.11-4.34-2.11-1.27-1-2.29-2.26-2.99-3.69-.7-1.42-1.06-2.98-1.06-4.56s.36-3.13,1.06-4.56c.7-1.42,1.72-2.68,2.99-3.68,1.27-1,2.75-1.72,4.34-2.11,1.59-.39,3.25-.43,4.86-.13,1.7.31,3.3,1.01,4.66,2.04,1.98,1.46,3.35,3.54,3.9,5.88.16.62.23,1.26.23,1.9.04.22.06.44.05.66Z"/>
  <path class="cls-7" d="M321.05,467.53c0,2.28-.7,4.5-2.02,6.39-1.32,1.89-3.19,3.37-5.38,4.24-2.19.87-4.6,1.1-6.93.65s-4.46-1.54-6.14-3.15c-1.68-1.61-2.82-3.66-3.28-5.89-.46-2.23-.22-4.55.69-6.65.91-2.1,2.45-3.9,4.42-5.16s4.29-1.93,6.67-1.93c3.18,0,6.22,1.22,8.47,3.38,2.24,2.16,3.51,5.08,3.51,8.13Z"/>
  <path class="cls-11" d="M319.86,467.53s0-.93-.48-2.5c-.65-2.2-2.04-4.14-3.95-5.51-1.4-1-3.04-1.65-4.77-1.89-1.73-.24-3.49-.06-5.13.52-1.93.67-3.61,1.89-4.81,3.49-1.31,1.71-2.02,3.77-2.02,5.89s.71,4.19,2.02,5.89c.82,1.08,1.85,1.99,3.04,2.68,1.19.69,2.51,1.15,3.88,1.34,1.37.2,2.78.13,4.12-.2,1.35-.33,2.61-.91,3.72-1.71,1.91-1.38,3.3-3.32,3.95-5.53.43-1.56.4-2.48.48-2.48s0,.23,0,.66c0,.64-.09,1.28-.24,1.9-.54,2.33-1.92,4.41-3.9,5.88-1.36,1.02-2.95,1.72-4.64,2.04-2.2.41-4.48.18-6.54-.67-2.06-.85-3.8-2.28-5-4.1-1.2-1.82-1.79-3.94-1.71-6.09.08-2.15.85-4.23,2.18-5.95,1.29-1.71,3.1-3.01,5.17-3.72,1.88-.64,3.91-.78,5.87-.41,2.08.37,4.01,1.32,5.54,2.73,1.53,1.4,2.6,3.21,3.09,5.19.15.62.23,1.26.24,1.9-.07.43-.09.66-.12.66Z"/>
  <path class="cls-3" d="M510.18,460.97c-.09.28-3.35-.4-9.12-1.82l-4.8-1.23-5.76-1.27c-4.12-.89-8.78-2.09-14.04-2.98l-8.19-1.54c-2.85-.55-5.85-.91-8.94-1.41-6.16-1.04-12.82-1.65-19.79-2.5-15.17-1.43-30.42-2.04-45.66-1.82-15.27.37-30.5,1.57-45.63,3.61-6.9,1.08-13.56,1.99-19.68,3.31-3.05.61-6.04,1.09-8.87,1.74l-8.12,1.87c-5.18,1.09-9.82,2.47-13.9,3.51l-5.69,1.51-4.74,1.41c-5.71,1.65-8.94,2.45-9.04,2.17-.1-.28,2.9-1.65,8.47-3.76l4.64-1.77c1.73-.61,3.61-1.19,5.62-1.85,4.05-1.28,8.62-2.86,13.8-4.15l8.12-2.17c2.83-.73,5.83-1.31,8.92-2,6.14-1.44,12.82-2.5,19.82-3.69,30.52-4.74,61.59-5.34,92.29-1.8,7.05.91,13.8,1.65,19.96,2.93,3.1.56,6.12,1.03,8.99,1.65l8.21,1.84c5.17,1.09,9.9,2.52,14.01,3.62,2.04.58,3.95,1.09,5.69,1.65l4.71,1.65c5.76,1.8,8.83,3.01,8.73,3.29Z"/>
  <path class="cls-9" d="M567.16,258.75c.31.84,2.19,4.58,2.19,4.58l7,15.35.69,21.42c-.43.2-.91.29-1.38.28-.48-.01-.95-.13-1.37-.34-.42-.21-.79-.52-1.07-.89-.28-.37-.47-.8-.54-1.25-.61-3.35-.96-6.74-1.05-10.15l-10.59,13.03s-3.45-2.43-1.29-5.53l-4.4,2.27c-1.12-1.49-1.58-3.34-1.28-5.15.66-2.7,8.25-10.43,8.25-10.43l-13.25-.51s-2.28-1.65-.09-3.03c3.27-1.37,6.66-2.48,10.13-3.31-1.37-.32-2.66-.91-3.78-1.74-1.12-.83-2.04-1.88-2.71-3.07-1.32-2.72-1.86-5.72-1.57-8.71l16.11-2.81Z"/>
  <path class="cls-9" d="M516.54,150.45s8.71,57.12,8.8,60.86c.34,4.11.92,8.2,1.72,12.25,0,0-.26-.4,2.98,4.97,3.24,5.36,23.82,40.27,23.82,40.27l15.53-5.49s-16.04-45.5-17.46-52.44c-1.41-6.94,1.09-41.61-2.71-56.1-3.79-14.48-32.69-4.32-32.69-4.32Z"/>
  <path class="cls-3" d="M524.08,113.05c-.69.17-1.35.43-1.97.76-3.02,1.66-11.52,7.53-12.08,25.33-.76,22.36.47,38.62.47,38.62l43.13-3.31c-.21-.26-2.66-67.68-29.55-61.39Z"/>
  <path class="cls-7" d="M553.61,174.45c-.27.08-.55.12-.83.13l-2.4.26-8.97.81-30.91,2.53h-.43v-.43c-.29-4.62-.52-9.6-.62-14.75-.19-7.78-.12-15.19.21-21.93s1.1-12.9,3.45-17.61c1.66-3.78,4.49-6.97,8.11-9.15.99-.57,2.04-1.03,3.14-1.37.38-.12.76-.2,1.16-.25-1.43.5-2.81,1.14-4.11,1.9-3.46,2.24-6.15,5.41-7.73,9.12-2.14,4.64-2.88,10.69-3.12,17.4-.24,6.7-.33,14.12-.14,21.88.1,5.13.31,10.1.6,14.72l-.48-.38,30.91-2.22,9-.56,2.42-.12c.25-.02.5-.01.74.02Z"/>
  <path class="cls-7" d="M800,748.09c0,.23-179.09.43-399.98.43s-400.02-.2-400.02-.43,179.06-.43,400.02-.43,399.98.18,399.98.43Z"/>
</svg>