<?xml version="1.0" encoding="utf-8"?>
<!-- Generator: Adobe Illustrator 28.2.0, SVG Export Plug-In . SVG Version: 6.00 Build 0)  -->
<svg width="800" height="749" version="1.1" id="Layer_1" xmlns="http://www.w3.org/2000/svg" xmlns:xlink="http://www.w3.org/1999/xlink" x="0px" y="0px"
	 viewBox="0 0 800 749" style="enable-background:new 0 0 800 749;" xml:space="preserve">
<style type="text/css">
	.st0{fill:#EBEBEB;}
	.st1{fill:#F5F5F5;}
	.st2{fill:#E0E0E0;}
	.st3{fill:#FAFAFA;}
	.st4{fill:#FFFFFF;}
	.st5{fill:#455A64;}
	.st6{opacity:0.3;}
	.st7{fill:#263238;}
	.st8{fill:#024DDF;}
	.st9{fill:#FFBE9D;}
	.st10{fill:#EB996E;}
</style>
<path class="st0" d="M715,230.5c2.4-3.8,3.8-8,4.2-12.5c0.4-4.4-0.3-8.8-2-12.9c-1.7-4.1-4.4-7.8-7.8-10.7c-3.4-3-7.5-5.1-11.9-6.3
	s-9.1-1.4-13.6-0.6c-4.5,0.8-8.8,2.6-12.5,5.3c-3.7,2.7-6.7,6.1-8.8,10c-2.1,3.9-3.2,8.3-3.2,12.7v0.1c0,2.2,0.5,4,0.7,6.4l3.1,27.5
	c0.1,0.8,0.4,1.6,0.8,2.2c0.5,0.7,1.1,1.2,1.8,1.7c0.7,0.4,1.5,0.7,2.4,0.7c0.8,0.1,1.7-0.1,2.5-0.4l26.3-10.2
	c2.3-0.7,4.5-1.6,6.7-2.6h0.1C708.4,238.6,712.3,234.9,715,230.5z M682.6,226.5c-2.2-1.3-4-3.2-5.1-5.4c-1.1-2.3-1.5-4.8-1.1-7.3
	s1.5-4.8,3.3-6.6c1.8-1.9,4-3.2,6.6-3.8c2.5-0.6,5.2-0.5,7.7,0.4c2.5,0.8,4.6,2.4,6.2,4.4c1.6,2,2.5,4.4,2.6,6.9
	c0.1,2.5-0.5,5-1.9,7.1c-1.8,2.9-4.7,4.9-8.1,5.8C689.2,228.7,685.6,228.2,682.6,226.5z"/>
<path class="st1" d="M287.9,257.6l-65.1,13.9l46,198l65.1-13.9L287.9,257.6z"/>
<path class="st0" d="M287.9,257.6l-32.6,7l45.9,197.5l32.6-7L287.9,257.6z"/>
<path class="st1" d="M248.7,245.6l-23,4.9l4.5,19.4l23-4.9L248.7,245.6z"/>
<path class="st0" d="M248.7,245.6l-5.5,1.2l4.5,19.4l5.5-1.2L248.7,245.6z"/>
<path class="st2" d="M217.3,272.7l-0.3-1.1l72.5-15.5l0.3,1.1"/>
<path class="st3" d="M243.1,276.1l-5.5,1.2l2.6,11.1l5.5-1.2L243.1,276.1z"/>
<path class="st2" d="M260.9,288.7c0,0.1-7.2,1.8-16.2,3.7c-9,1.9-16.3,3.3-16.3,3.3c0,0,7.2-1.8,16.2-3.7
	C253.5,290.1,260.9,288.5,260.9,288.7z"/>
<path class="st2" d="M275.9,269l-5.5,1.2l2.6,11.1l5.5-1.2L275.9,269z"/>
<path class="st2" d="M293.7,281.6c0,0.1-7.2,1.8-16.2,3.7c-9,1.9-16.3,3.4-16.3,3.3c0-0.1,7.2-1.8,16.2-3.7
	C286.4,283,293.7,281.4,293.7,281.6z"/>
<path class="st2" d="M281.1,291.2l-5.5,1.2l2.6,11.1l5.5-1.2L281.1,291.2z"/>
<path class="st2" d="M298.9,303.7c0,0.1-7.2,1.8-16.2,3.7c-9,1.9-16.3,3.3-16.3,3.3c0,0,7.2-1.8,16.2-3.7
	C291.5,305.1,298.8,303.6,298.9,303.7z"/>
<path class="st2" d="M286.4,314l-5.5,1.2l2.6,11.1l5.5-1.2L286.4,314z"/>
<path class="st2" d="M304.2,326.5c0,0.1-7.2,1.8-16.2,3.7c-9,1.9-16.3,3.3-16.3,3.3c0,0,7.2-1.8,16.2-3.7
	C296.8,327.9,304.1,326.4,304.2,326.5z"/>
<path class="st2" d="M291.7,336.8l-5.5,1.2l2.6,11.1l5.5-1.2L291.7,336.8z"/>
<path class="st2" d="M309.5,349.3c0,0.1-7.2,1.8-16.2,3.7c-9,1.9-16.3,3.3-16.3,3.3c0,0,7.2-1.8,16.2-3.7
	C302.1,350.7,309.4,349.2,309.5,349.3z"/>
<path class="st2" d="M296.8,359l-5.5,1.2l2.6,11.1l5.5-1.2L296.8,359z"/>
<path class="st2" d="M314.6,371.4c0,0.1-7.2,1.8-16.2,3.7c-9,1.9-16.3,3.4-16.3,3.3c0-0.1,7.2-1.8,16.2-3.7
	C307.3,372.8,314.6,371.4,314.6,371.4z"/>
<path class="st2" d="M302,381.2l-5.5,1.2l2.6,11.1l5.5-1.2L302,381.2z"/>
<path class="st2" d="M307.2,403.8l-5.5,1.2l2.6,11.1l5.5-1.2L307.2,403.8z"/>
<path class="st2" d="M319.8,393.7c0,0.1-7.2,1.8-16.2,3.7c-9,1.9-16.3,3.3-16.3,3.3c0,0,7.2-1.8,16.2-3.7
	C312.4,395.1,319.8,393.6,319.8,393.7z"/>
<path class="st3" d="M248.3,298.5l-5.5,1.2l2.6,11.1l5.5-1.2L248.3,298.5z"/>
<path class="st2" d="M266.1,311.1c0,0.1-7.2,1.8-16.2,3.7c-9,1.9-16.3,3.4-16.3,3.3c0-0.1,7.2-1.8,16.2-3.7
	C258.8,312.4,266.1,310.9,266.1,311.1z"/>
<path class="st3" d="M253.5,321l-5.5,1.2l2.6,11.1l5.5-1.2L253.5,321z"/>
<path class="st2" d="M271.3,333.5c0,0.1-7.2,1.8-16.2,3.7c-9,1.9-16.3,3.3-16.3,3.3c0,0,7.2-1.8,16.2-3.7
	C264,334.9,271.3,333.4,271.3,333.5z"/>
<path class="st3" d="M258.8,343.5l-5.5,1.2l2.6,11.1l5.5-1.2L258.8,343.5z"/>
<path class="st2" d="M276.6,356c0,0.1-7.2,1.8-16.2,3.7c-9,1.9-16.3,3.3-16.3,3.3c0,0,7.2-1.8,16.2-3.7
	C269.2,357.4,276.5,355.9,276.6,356z"/>
<path class="st3" d="M263.9,366l-5.5,1.2l2.6,11.1l5.5-1.2L263.9,366z"/>
<path class="st2" d="M281.8,378.5c0,0.1-7.2,1.8-16.2,3.7c-9,1.9-16.3,3.3-16.3,3.3s7.2-1.8,16.2-3.7
	C274.5,379.9,281.8,378.4,281.8,378.5z"/>
<path class="st3" d="M269.2,388.4l-5.5,1.2l2.6,11.1l5.5-1.2L269.2,388.4z"/>
<path class="st2" d="M287,401c0,0.1-7.2,1.8-16.2,3.7c-9,1.9-16.3,3.4-16.3,3.3c0-0.1,7.2-1.8,16.2-3.7
	C279.6,402.4,287,400.9,287,401z"/>
<path class="st3" d="M274.4,410.9l-5.5,1.2l2.6,11.1l5.5-1.2L274.4,410.9z"/>
<path class="st0" d="M393.1,348.2l-97,8.9l12.2,122.7l97-8.9L393.1,348.2z"/>
<path class="st2" d="M393.1,348.2l-45.5,4.2L359.9,475l45.5-4.2L393.1,348.2z"/>
<path class="st1" d="M326.9,371l-8.7,0.8l2,20.3l8.7-0.8L326.9,371z"/>
<path class="st1" d="M334.8,450.6l-8.7,0.8l2,20.3l8.7-0.8L334.8,450.6z"/>
<path class="st1" d="M352.1,397.2c0,0.2-11.5,1.5-25.7,2.8c-14.2,1.3-25.8,2.2-25.9,2c-0.1-0.2,11.5-1.5,25.7-2.8
	C340.5,397.9,352.1,397,352.1,397.2z"/>
<path class="st1" d="M330.9,411.1l-8.7,0.8l2,20.3l8.7-0.8L330.9,411.1z"/>
<path class="st1" d="M356.1,437.3c0,0.2-11.5,1.5-25.7,2.8c-14.2,1.3-25.8,2.2-25.9,2c-0.1-0.2,11.5-1.5,25.7-2.8
	C344.5,438,356.1,437.1,356.1,437.3z"/>
<path class="st1" d="M367.7,367.3l-8.7,0.8l2,20.3l8.7-0.8L367.7,367.3z"/>
<path class="st1" d="M386.6,365.5l-8.7,0.8l2,20.3l8.7-0.8L386.6,365.5z"/>
<path class="st1" d="M371.5,405.8l-8.7,0.8l2,20.3l8.7-0.8L371.5,405.8z"/>
<path class="st1" d="M390.5,404.1l-8.7,0.8l2,20.3l8.7-0.8L390.5,404.1z"/>
<path class="st1" d="M375.4,444.4l-8.7,0.8l2,20.3l8.7-0.8L375.4,444.4z"/>
<path class="st1" d="M394.3,442.6l-8.7,0.8l2,20.3l8.7-0.8L394.3,442.6z"/>
<path class="st2" d="M400,343.2l-111.5,10.2l0.4,4.4l111.5-10.2L400,343.2z"/>
<path class="st0" d="M393.9,348.7c0,0.2-21.6,2.4-48.3,4.9c-26.7,2.4-48.4,4.3-48.4,4c0-0.2,21.6-2.4,48.3-4.9
	C372.1,350.3,393.8,348.4,393.9,348.7z"/>
<path class="st0" d="M308.1,483.4l-89.8,38.1l-63.1-136l89.8-38.1L308.1,483.4z"/>
<path class="st2" d="M245,347.4l-44.9,19l62.7,136.2l44.9-19L245,347.4z"/>
<path class="st0" d="M184.8,340.8l-31.7,13.4l12.3,26.8l31.7-13.4L184.8,340.8z"/>
<path class="st2" d="M184.8,340.8l-7.6,3.2l12.3,26.8l7.6-3.2L184.8,340.8z"/>
<path class="st2" d="M246.9,344.7L147,387l0.7,1.6l99.9-42.4L246.9,344.7z"/>
<path class="st4" d="M185.9,386.4l-7.6,3.2l7.1,15.4l7.6-3.2L185.9,386.4z"/>
<path class="st2" d="M215.3,399.6c0.1,0.2-9.9,4.6-22.3,9.8c-12.4,5.2-22.4,9.4-22.6,9.2c-0.2-0.2,9.9-4.6,22.3-9.8
	C205.1,403.5,215.2,399.3,215.3,399.6z"/>
<path class="st1" d="M231.2,367.2l-7.6,3.2l7.1,15.4l7.6-3.2L231.2,367.2z"/>
<path class="st0" d="M260.6,380.3c0,0.2-9.9,4.6-22.3,9.8s-22.4,9.4-22.6,9.2c-0.2-0.2,9.9-4.6,22.3-9.8
	C250.4,384.2,260.5,380.1,260.6,380.3z"/>
<path class="st1" d="M245.2,397.7l-7.6,3.2l7.1,15.4l7.6-3.2L245.2,397.7z"/>
<path class="st0" d="M274.7,410.8c0,0.2-9.9,4.6-22.3,9.8c-12.4,5.3-22.4,9.4-22.6,9.2c-0.2-0.2,9.9-4.6,22.3-9.8
	S274.6,410.7,274.7,410.8z"/>
<path class="st1" d="M259.7,429.2l-7.6,3.2l7.1,15.4l7.6-3.2L259.7,429.2z"/>
<path class="st0" d="M289.2,442.3c0,0.2-9.9,4.6-22.3,9.8c-12.4,5.3-22.5,9.4-22.6,9.2c-0.1-0.2,9.9-4.6,22.3-9.8
	C279,446.2,289.1,442.1,289.2,442.3z"/>
<path class="st1" d="M274.2,460.6l-7.6,3.2l7.1,15.4l7.6-3.2L274.2,460.6z"/>
<path class="st0" d="M303.7,473.7c0,0.2-9.9,4.6-22.3,9.8c-12.4,5.2-22.5,9.4-22.6,9.2c-0.1-0.1,9.9-4.6,22.3-9.8
	C293.5,477.7,303.6,473.6,303.7,473.7z"/>
<path class="st4" d="M200.2,417.4l-7.6,3.2l7.1,15.4l7.6-3.2L200.2,417.4z"/>
<path class="st2" d="M229.6,430.5c0,0.2-9.9,4.6-22.3,9.8c-12.4,5.3-22.4,9.4-22.6,9.2c-0.2-0.1,9.9-4.6,22.3-9.8
	S229.5,430.3,229.6,430.5z"/>
<path class="st4" d="M214.4,448.4l-7.6,3.2l7.1,15.4l7.6-3.2L214.4,448.4z"/>
<path class="st2" d="M243.9,461.5c0,0.2-9.9,4.6-22.3,9.8s-22.5,9.4-22.6,9.2c-0.1-0.2,9.9-4.6,22.3-9.8
	C233.7,465.4,243.8,461.3,243.9,461.5z"/>
<path class="st4" d="M228.7,479.4l-7.6,3.2l7.1,15.4l7.6-3.2L228.7,479.4z"/>
<path class="st2" d="M258.1,492.5c0,0.2-9.9,4.6-22.3,9.8s-22.5,9.4-22.6,9.2c-0.1-0.2,9.9-4.6,22.3-9.8
	C248,496.4,258.1,492.3,258.1,492.5z"/>
<path class="st1" d="M632.3,451.4l-36.8,41.4c-0.2,0.2-0.3,0.5-0.4,0.7c-0.1,0.3-0.1,0.5-0.1,0.8c0,0.3,0.1,0.6,0.2,0.8
	c0.1,0.2,0.3,0.5,0.5,0.7l90.6,74.1c0.2,0.2,0.5,0.3,0.8,0.4c0.3,0.1,0.6,0.1,0.9,0.1c0.3,0,0.6-0.1,0.8-0.2
	c0.3-0.1,0.5-0.3,0.7-0.5l13.3-15.3c0.3-0.3,0.5-0.8,0.5-1.2l1.8-27.3c0-0.3,0-0.7-0.2-1c-0.1-0.3-0.3-0.6-0.6-0.8l-14.9-12.3
	c-0.4-0.4-0.7-0.9-0.8-1.4c0-0.6,0.1-1.1,0.5-1.5l5.6-6.3c0.2-0.2,0.3-0.5,0.4-0.7c0.1-0.3,0.1-0.5,0.1-0.8c0-0.3-0.1-0.5-0.2-0.8
	c-0.1-0.2-0.3-0.5-0.5-0.6l-59-48.3c-0.2-0.2-0.5-0.3-0.8-0.4c-0.3-0.1-0.6-0.1-0.9-0.1c-0.3,0-0.6,0.1-0.9,0.2
	C632.7,450.9,632.5,451.1,632.3,451.4z"/>
<path class="st0" d="M688.7,517.3l-11.8,13.2c-0.2,0.2-0.3,0.5-0.3,0.9c0,0.3,0.2,0.6,0.4,0.8l20.3,16c0.2,0.1,0.4,0.2,0.6,0.3
	c0.2,0,0.5,0,0.7-0.1c0.2-0.1,0.4-0.2,0.5-0.4c0.1-0.2,0.2-0.4,0.3-0.6l2.5-20.8c0-0.2,0-0.4-0.1-0.6c-0.1-0.2-0.2-0.4-0.4-0.5
	l-10.9-8.4c-0.1-0.1-0.3-0.2-0.4-0.2c-0.2-0.1-0.3-0.1-0.5-0.1c-0.2,0-0.3,0.1-0.5,0.1C688.9,517.1,688.8,517.2,688.7,517.3z"/>
<path class="st1" d="M688.7,573.9l-97.5-79.8l-2.6,2.9l97.5,79.8L688.7,573.9z"/>
<path class="st0" d="M622.4,521.7c-1.6,1.8-3.8,3.2-6.2,3.8c-2.4,0.7-5,0.6-7.4-0.1c-2.4-0.7-4.5-2.1-6-4c-1.6-1.9-2.5-4.2-2.7-6.6
	s0.3-4.8,1.6-6.9c1.2-2.1,3.1-3.8,5.3-4.9c2.2-1.1,4.8-1.5,7.2-1.3c2.5,0.3,4.8,1.3,6.7,2.8c1.3,1,2.3,2.3,3.1,3.7
	c0.8,1.4,1.2,3,1.4,4.6c0.1,1.6-0.1,3.2-0.6,4.7C624.3,519,623.5,520.4,622.4,521.7z"/>
<path class="st3" d="M618.4,518.4c-1,1.1-2.2,1.9-3.6,2.3c-1.4,0.4-2.9,0.4-4.3-0.1c-1.4-0.4-2.6-1.3-3.6-2.4s-1.5-2.5-1.6-3.9
	c-0.1-1.4,0.2-2.8,0.9-4.1c0.7-1.2,1.8-2.2,3.1-2.9c1.3-0.6,2.8-0.9,4.3-0.7c1.5,0.2,2.9,0.7,4,1.7c1.5,1.2,2.4,3,2.6,4.9
	C620.3,515.1,619.7,517,618.4,518.4z"/>
<path class="st0" d="M656.4,545.4c-0.2-0.2,8.5-10.4,19.4-22.7c11-12.3,20-22.2,20.3-22c0.2,0.2-8.4,10.4-19.4,22.7
	C665.7,535.7,656.6,545.6,656.4,545.4z"/>
<path class="st0" d="M674.9,564.6c-1.6,1.8-3.8,3.2-6.2,3.8c-2.4,0.7-5,0.6-7.4-0.1c-2.4-0.7-4.5-2.1-6-4c-1.6-1.9-2.5-4.2-2.7-6.6
	c-0.2-2.4,0.4-4.8,1.6-6.9c1.2-2.1,3.1-3.8,5.3-4.9s4.8-1.5,7.2-1.2c2.5,0.3,4.8,1.3,6.7,2.8c1.3,1,2.3,2.3,3.1,3.7
	c0.8,1.4,1.2,3,1.3,4.6c0.1,1.6-0.1,3.2-0.6,4.7C676.8,562,676,563.4,674.9,564.6z"/>
<path class="st3" d="M671,561.4c-1,1.1-2.2,1.8-3.6,2.2c-1.4,0.4-2.9,0.4-4.3-0.1c-1.4-0.4-2.6-1.3-3.5-2.4
	c-0.9-1.1-1.5-2.5-1.6-3.9c-0.1-1.4,0.2-2.8,0.9-4.1c0.7-1.2,1.8-2.2,3.1-2.9c1.3-0.6,2.8-0.9,4.3-0.7c1.5,0.2,2.8,0.7,4,1.7
	c0.7,0.6,1.4,1.4,1.8,2.2c0.4,0.8,0.7,1.8,0.8,2.7c0.1,0.9,0,1.9-0.3,2.8C672.1,559.9,671.6,560.7,671,561.4z"/>
<path class="st0" d="M680.5,539.7c-0.2,0.2-1.7-0.7-3.5-2.1c-1.7-1.4-2.9-2.7-2.7-2.9c0.2-0.2,1.7,0.7,3.5,2.1
	C679.5,538.1,680.7,539.5,680.5,539.7z"/>
<path class="st1" d="M91.2,440.1c-2.8-3.5-6.4-6.4-10.5-8.4c-4.1-2-8.7-3-13.3-3.1c-4.6,0-9.2,1-13.3,2.9c-4.1,1.9-7.8,4.8-10.6,8.3
	c-2.8,3.5-4.8,7.6-5.7,11.9s-0.8,8.8,0.4,13.1c1.2,4.3,3.4,8.2,6.4,11.5c3,3.3,6.8,5.9,11.1,7.6h0.1c2.1,0.8,4.1,1,6.5,1.8l27.8,7.6
	c0.8,0.2,1.6,0.3,2.5,0.1c0.8-0.1,1.6-0.5,2.3-1c0.7-0.5,1.2-1.1,1.6-1.8c0.4-0.7,0.6-1.5,0.6-2.3v-27.2c0.1-2.3,0.1-4.6,0-6.9v-0.1
	C96.5,449,94.5,444.2,91.2,440.1z M75.3,467.4c-2.1,1.5-4.6,2.4-7.2,2.5c-2.6,0.1-5.2-0.5-7.4-1.7c-2.2-1.3-4.1-3.1-5.2-5.4
	c-1.1-2.3-1.5-4.8-1.2-7.3c0.4-2.5,1.5-4.8,3.2-6.7c1.7-1.9,4-3.2,6.5-3.8c2.5-0.6,5.2-0.5,7.6,0.3c2.5,0.8,4.6,2.3,6.2,4.3
	c2.1,2.7,3,6,2.5,9.4C79.9,462.4,78.1,465.4,75.3,467.4z"/>
<path class="st0" d="M177.5,98.2c-1.8-5.8-5-11-9.2-15.4c-4.3-4.4-9.5-7.8-15.4-9.9c-5.9-2.1-12.2-2.9-18.4-2.3
	c-6.2,0.6-12.2,2.6-17.6,5.7c-5.3,3.2-9.8,7.5-13.1,12.6s-5.3,10.9-5.9,16.9c-0.6,6,0.3,12,2.5,17.6c2.2,5.6,5.8,10.7,10.4,14.7
	l0.2,0.1c2.3,2,4.7,3.2,7.4,5.2l31.7,22.2c0.9,0.6,2,1.1,3.1,1.2c1.1,0.2,2.3,0.1,3.4-0.2c1.1-0.3,2.1-0.9,2.9-1.6
	c0.8-0.8,1.5-1.7,1.8-2.7l13.4-34.8c1.3-2.9,2.5-5.8,3.4-8.8v-0.1C179.8,111.9,179.6,104.8,177.5,98.2z M143.5,125.8
	c-3.4,1-7,1-10.4,0c-3.4-1-6.4-2.9-8.6-5.6c-2.2-2.6-3.6-5.8-4-9.2c-0.3-3.4,0.4-6.8,2-9.8c1.7-3,4.2-5.5,7.4-7.1
	c3.1-1.6,6.7-2.3,10.2-1.9c3.5,0.3,6.9,1.7,9.6,3.8c2.7,2.2,4.7,5.1,5.8,8.3c1.4,4.4,0.9,9.1-1.4,13.1
	C151.9,121.5,148.1,124.5,143.5,125.8z"/>
<path class="st0" d="M391.5,72.8c0.8-5.6-7.4-10.2-13.6-10.7c-2.9-0.2-6,0.2-8.8-0.7c-6.1-2-8.5-9.5-14.4-11.9
	c-4.4-1.8-9.5-0.2-13.8,1.9c-4.3,2.1-8.5,4.7-13.3,5c-4.2,0.2-8.6-1.2-12.3,0.7c-2.7,1.5-4.1,4.5-6.6,6.2c-2.6,1.5-5.6,2.3-8.6,2.3
	c-3-0.1-6.1,0.4-9,1.4c-2.8,1.2-5.1,4-4.5,6.9L391.5,72.8z"/>
<path class="st1" d="M148.6,292.4c-0.6-3.6-6.6-5-10.5-4.3c-1.8,0.6-3.7,1-5.6,1.1c-4.2-0.2-7.1-4.5-11.2-5c-3.1-0.3-6,1.5-8.2,3.6
	c-2.3,2-4.4,4.4-7.3,5.4c-2.5,0.9-5.6,0.8-7.5,2.6c-1.4,1.4-1.7,3.5-2.9,5c-1.3,1.4-3.1,2.4-5,2.9c-1.9,0.5-3.7,1.3-5.3,2.5
	c-0.8,0.6-1.4,1.4-1.6,2.3c-0.3,0.9-0.2,1.9,0.1,2.8L148.6,292.4z"/>
<path class="st1" d="M638.1,352.4c1.4-4.7-5-9.6-10.2-10.8c-2.5-0.6-5.2-0.6-7.4-1.7c-4.9-2.5-6-9.2-10.7-11.9
	c-3.5-2.1-8.1-1.3-12-0.1c-3.9,1.2-7.9,2.9-12,2.6c-3.6-0.3-7.2-2.1-10.6-0.9c-2.5,0.9-4.1,3.3-6.5,4.5c-2.4,1-5.1,1.3-7.7,0.9
	c-2.6-0.4-5.2-0.4-7.8,0.1c-1.3,0.3-2.4,1-3.3,1.9c-0.9,1-1.4,2.2-1.4,3.4L638.1,352.4z"/>
<path class="st5" d="M566.9,721.8c-0.3-3.9,3.1-7.3,6.8-8.9c3.7-1.7,7.9-2.2,11.7-3.7c1.5-0.6,3.2-1.7,3.3-3.2
	c0-2.3-3.4-3.3-4.2-5.4c-0.9-2.4,1.7-4.7,2.8-7.1c2.4-5.4-3.6-10.9-9.3-13.1c-5.8-2.2-12.6-3.8-15.3-9.1c-1-2.5-1.6-5.2-1.9-7.9
	c-1.3-6.6-6.5-13.1-13.6-14.3c-7.1-1.1-15.1,5-13.9,11.6c0.7,3.7,3.6,6.6,5.2,9.9c1.6,3.3,1.2,8.5-2.6,9.6c-6.1,1.8-12-8.8-17.1-5.2
	c2.1,6.8,4.1,13.6,6.2,20.4c-8,3.9-17.6-3.1-21.1-11.1c-3.4-8-3.6-17-7.6-24.6c-4.1-7.6-15.1-13.4-22.1-7.9
	c-0.3,9.8,13.3,13.8,19.4,21.8c4.4,5.7,3.7,15.1-2.7,18.7c-6.5,3.6-16.6-2.7-14.1-9.4c0.9-2.3,2.9-4.3,3.1-6.8
	c0.2-3.1-2.5-5.6-5-7.6c-3.9-3.1-7.8-6.2-11.7-9.3c-2.4-2.2-5.2-3.9-8.3-5c-8-2.2-16.1,4-20.3,10.8c-4.3,6.8-6.6,14.9-12.5,20.5
	c-8.4,8.3-24.4,8.8-32.4,0.1c-7.9-8.7-3.9-24.8,7.8-28.1c4.4-1.2,10-1.1,12.4-4.8c4.1-6.6-7.6-14.9-3.6-21.5
	c3.1-5.1,11.2-2.8,17.2-4.5c5.9-1.7,9.2-7.3,12.7-12.2c3.5-4.8,8.8-9.7,14.9-8.4c-0.5-3.3-0.9-7,0.6-10c1.6-3,6-5.1,8.9-3.1
	c-3,4.7,0.6,11.1,5.8,13.4c5.2,2.3,11.2,1.8,16.9,1.2s12.9-2.6,13.3-8.1c0.2-1.8-0.5-3.6,0.2-5.3c2.5-6.5,15.1,2.4,19.9-2.8
	c2.8-2.7-0.3-7.5-4.2-8.4c-3.9-0.9-7.9,0.4-11.8,0.6c-3.9,0.1-8.8-1.8-9-5.6c-0.2-3.8,4.2-6.4,4.7-9.9c0.8-6.2-10.4-7.8-14.2-2.8
	c-3.8,5-2.5,11.9-1.3,18.1c1.2,6.1,1.8,13.4-3,17.7c-2,2.9-7.3,1.4-9.1-1.7c-1.7-3-1.4-6.9-1.7-10.3c-0.3-3.5-1.9-7.5-5.5-8.5
	c-2.5-0.7-5.2,0.5-7.7,0.8c-10.1,1.2-17.2-11.3-14-20.4c3.2-9.2,12.3-15.1,21.3-19.9c6.5-3.4,14.6-6.6,21.1-3.1c3,1.7,5.2,4.4,8.1,6
	c5.2,2.9,11.5,1.8,17.3,1.9c9.3,0.2,18.2,3.5,25.3,9.3c2.6,2.3,5.1,6,3,8.7c-2,2.7-8.5,3.5-7.4,6.9c6.9,2.2,15.1-2.9,15.8-9.7
	c1.7,0.7,3.1,1.9,4.2,3.3c1.1,1.4,1.7,3.1,1.9,4.9c7.4-7.1,21.6-6.1,27.6,2.2c1.6,2.2,2.8,4.8,5.2,6.2c2.4,1.5,6.4,0.7,6.7-1.9
	c0.1-0.8-0.1-1.7-0.5-2.4c-1.4-3.8-2.8-7.4-4.2-11.2c5.4-2.8,11.8,1.6,15.5,6.2c13.6,17.3,23.3,6.9,42.5,9.7
	c13,1.9,18.7,9.8,26,19.3c22.4,29.4,52.1,53.5,72.6,84.2c2.2,3.2,4.1,6.5,6,9.8c-0.3-0.8-0.6-1.7-1-2.5c-8-20-17.9-39.1-29.7-57.3
	c-2.5-3.9-5.1-7.7-7.7-11.4c-1.6-2.3-3.3-4.7-5-7c-2.1-3-4.4-5.9-6.7-8.7c-1.7-2.3-3.6-4.6-5.5-6.8c-1.3-1.5-2.6-3.1-4-4.6
	c-1.3-1.5-2.9-3.5-4.5-5.2l-4.9-5.4c-0.5-0.5-1-1.1-1.6-1.7c-1.7-1.9-3.5-3.7-5.3-5.5c-0.1-0.2-0.3-0.4-0.5-0.6
	c-0.5-0.5-1-1-1.5-1.5c-1.4-1.5-3-3-4.5-4.5c-2.5-2.4-5.1-4.9-7.7-7.2c-2.2-2.1-4.4-4-6.6-5.9c-2-1.7-4-3.4-6-5.1
	c-2-1.7-4-3.3-6-4.9c-2.4-2-5-3.9-7.5-5.9c-7-5.4-14.3-10.4-21.8-15.2c-1.9-1.2-3.7-2.4-5.5-3.5s-3.8-2.3-5.6-3.4
	c-1.9-1.1-3.8-2.3-5.7-3.3c-1.9-1-3.8-2.2-5.8-3.3c-1.6-0.9-3.1-1.7-4.7-2.5c-0.8-0.5-1.6-0.9-2.4-1.3c-3.3-1.8-6.7-3.5-10.1-5.1
	c-1.7-0.8-3.4-1.7-5.2-2.4c-2.1-1.1-4.4-2.1-6.6-3c-0.3-0.2-0.6-0.3-1-0.4c-2-0.9-4-1.8-6-2.6c-2.8-1.2-5.7-2.3-8.6-3.4
	c-3.3-1.3-6.5-2.5-9.8-3.7c-3.7-1.3-7.3-2.6-11.1-3.7c-3.7-1.2-7.5-2.4-11.3-3.5c-3.8-1.1-7.6-2.1-11.4-3.1
	c-7.6-1.9-15.2-3.6-23-5.1c-0.1,0-0.3-0.1-0.4-0.1c-3-0.5-5.9-1.1-8.9-1.5c-0.2-0.1-0.4-0.1-0.6-0.1c-1.3-0.2-2.6-0.4-3.9-0.6
	c-5.5-0.9-11.1-1.7-16.8-2.2c-0.7-0.1-1.4-0.2-2-0.2c-1.6-0.2-3.3-0.3-5-0.5c-3.7-0.3-7.4-0.6-11.2-0.8c-3.8-0.2-7.8-0.4-11.8-0.6
	c-4-0.1-8.3-0.2-12.4-0.2c-10.9,0-21.8,0.5-32.5,1.4c-2.6,0.2-5.1,0.4-7.6,0.7c-2.5,0.3-5.2,0.6-7.9,0.9c-2.7,0.3-5.2,0.7-7.8,1
	c-2.6,0.4-5.2,0.8-7.8,1.2c-2.2,0.3-4.5,0.7-6.7,1.2c-5.5,1-10.9,2.1-16.2,3.3c-2.5,0.5-5,1.2-7.5,1.8c-2.5,0.7-5,1.3-7.5,1.9
	c-4.1,1.1-8.2,2.3-12.2,3.5c-3.3,1.1-6.6,2.1-9.8,3.2c-0.1,0-0.2,0-0.2,0.1c-3.3,1.1-6.5,2.3-9.8,3.5l-0.5,0.2
	c-3,1.1-5.9,2.3-8.9,3.4c-3.7,1.4-7.3,3-10.8,4.5c-3,1.3-6,2.6-8.9,4c-2.9,1.4-6.3,3-9.4,4.5l-0.3,0.2c-3,1.5-5.9,3-8.8,4.6
	c-2.9,1.6-6,3.3-9,5c-2.8,1.7-5.5,3.2-8.3,4.9c-1.1,0.6-2,1.3-3.1,1.9c-2.9,1.8-5.7,3.6-8.6,5.5c-3.4,2.3-6.9,4.7-10.2,7
	c-3,2.1-5.9,4.3-8.7,6.4c-16.4,12.5-31.7,26.3-45.7,41.2c-5,5.2-9.6,10.5-14.1,15.9c-3.8,4.6-7.6,9.3-11.1,14.2
	c0.9-0.1,1.9-0.2,2.8-0.3c5.2-0.4,10.8-0.2,15.5-2.4c4.4-2,7.5-5.7,11.4-8.4c10.1-6.9,26.7-8.1,29.4-19.6c0.9-3.9-0.2-8.1,1.3-11.8
	c2.8-6.9,12.6-7.9,20.4-7.8c3.3,0,7.2,0.4,8.7,3.2c1.1,1.9,0.5,4.4-0.4,6.4c-4.9,13-14.3,24-26.7,31.2
	c-10.1,5.9-23.3,10.4-26.1,21.3c1.4,3.7,8.5,3.4,9.1,7.3c0.4,3.1-3.8,4.7-5.3,7.4c-2.2,4,2.9,9,7.7,8.7s8.9-3.5,12.4-6.6
	c10.6-9.3,21.7-19.4,25.5-32.6c1.7-5.5,2.2-11.9,6.9-15.5c5.5-4.3,15.4-1.3,17.2,5.2c4.6-2.4,11.7-4.3,14.1,0.3
	c0.8,1.7,0.6,3.5,1,5.2c1.5,7.1,11.7,10.3,12.7,17.4c1.2,8.3-9.9,12.5-18.6,13.8c-7.8,1.2-15.7,2.3-23.6,3.5c-3.5,0.2-6.8,1.3-9.8,3
	c-2.8,2-4.5,5.7-2.9,8.7c1.2,1.5,2.6,2.8,4.1,4c6.5,6.2,1.2,18.9-8,19.2c-3.1,0.1-6.2-1-9.4-1.1c-9.3-0.4-16.7,7.4-21.1,15.2
	c-4.4,7.8-7.7,16.7-15.2,22c-12.1,8.6-32.7,6.6-38.5,19.7c-2.3,5.3-1.1,11.3-0.2,17c0.2,0.9,0.3,1.8,0.4,2.7h255.8
	c5.3-2,11.1-3.5,15.7-6.8c10.5-7.4,11.9-21.7,18.5-32.4c6.6-10.7,27.2-15.2,30.3-3.1c21.9-44.4,70.2,21.5,98.9,16.6
	c8.3-1.4,16.5-5.2,24.9-4.1c14.5,1.9,22.1,16.7,27.2,29.8h12.1c-1.4-4.6-1.3-9.7-4.1-13.6C574.2,729.9,567.3,727.3,566.9,721.8z
	 M371.8,524.5c-2.3,5-1.2,11.2-4.7,15.6c-2.8,3.4-7.5,4.7-12,5.6l-27.8,6.3c-4.2,0.7-8.2,2.1-12,3.9c-7.3,4.1-11.2,12-16.8,18
	c-5.6,6-15.7,10.3-22.3,5.3c-1.5-1.3-2.7-2.9-3.6-4.7c-0.9-1.8-1.3-3.7-1.4-5.6c-0.5-5.6,0.9-11.2,4-16c3.2-5,8-8.8,10.7-13.9
	c2.7-5.1,2.1-12.7-3.5-15.1c-3-1.3-6.7-0.8-9.3-2.6c-4.7-3.3-1.3-11.2,4.2-13.1c5.5-2,11.6-0.4,17.5-0.1c21.3,1.3,37-12,53-23
	c12.5-8.6,39-18.7,53.5-9.9c5.7,3.5,8,12.5,2.6,16.4c-2.4,1.8-5.8,2.2-8,4.1c-2.7,2.4-3.1,6.2-4.6,9.4
	C387.1,513.2,375.5,516.2,371.8,524.5z"/>
<g class="st6">
	<path d="M367,540.1c3.5-4.3,2.5-10.5,4.7-15.6c3.7-8.3,15.4-11.3,19.4-19.5c1.6-3.2,1.9-7,4.6-9.4c2.3-2,5.6-2.4,8-4.1
		c5.4-3.9,3.2-12.9-2.6-16.4c-14.4-8.7-41,1.4-53.5,9.9c-16,11-31.7,24.2-53,23c-5.9-0.3-12-1.9-17.5,0.1c-5.5,2-8.9,9.8-4.2,13.1
		c2.6,1.8,6.4,1.3,9.3,2.6c5.5,2.4,6.1,9.9,3.5,15.1c-2.6,5.2-7.5,9-10.7,13.9c-3.1,4.8-4.5,10.4-4,16c0.1,1.9,0.5,3.9,1.4,5.6
		c0.9,1.8,2.1,3.3,3.6,4.7c6.6,5,16.7,0.7,22.3-5.3c5.6-6,9.5-13.8,16.8-18c3.8-1.9,7.8-3.2,12-3.9l27.8-6.3
		C359.5,544.7,364.3,543.6,367,540.1z"/>
	<path d="M542.5,718.2c-8.4-1.1-16.5,2.7-24.9,4.1c-28.7,5-77.1-61-98.9-16.6c-3.1-12.1-23.7-7.5-30.3,3.2
		c-6.6,10.7-8,24.9-18.5,32.4c-4.6,3.3-10.4,4.8-15.7,6.8h215.5C564.6,734.9,557,720.2,542.5,718.2z"/>
	<path d="M241,620.4c-1.1-7.1-11.2-10.3-12.7-17.4c-0.4-1.7-0.2-3.6-1-5.2c-2.4-4.5-9.5-2.7-14.1-0.3c-1.9-6.6-11.8-9.6-17.2-5.2
		c-4.6,3.6-5.2,10-6.9,15.5c-3.8,13.2-15,23.3-25.5,32.6c-3.4,3.1-7.6,6.4-12.4,6.6c-4.8,0.2-9.9-4.7-7.7-8.7
		c1.5-2.8,5.7-4.4,5.3-7.4c-0.6-3.9-7.7-3.6-9.1-7.3c2.8-10.9,16-15.5,26.1-21.3c12.4-7.1,21.8-18.1,26.7-31.2
		c0.8-2.1,1.5-4.5,0.4-6.4c-1.5-2.7-5.4-3.2-8.7-3.2c-7.8-0.1-17.5,0.9-20.4,7.8c-1.5,3.7-0.4,7.9-1.3,11.8
		c-2.7,11.5-19.3,12.8-29.4,19.6c-4,2.6-7,6.4-11.4,8.4c-4.7,2.2-10.2,2-15.5,2.4c-0.9,0-1.9,0.2-2.8,0.3c-3.2,4.2-6.2,8.5-9.2,12.9
		c-3,4.4-5.9,8.9-8.6,13.3c-13.1,21.3-23.8,44-31.9,67.5c-2.9,8.3-5.4,16.7-7.6,25.2c-1.5,5.7-2.8,11.5-3.9,17.4h1.7
		c1.2-3.8,2-7.7,2.7-11c0.2-0.8,0.4-1.7,0.5-2.4c1.9-8.3,4.8-17.1,11.6-22.7c6.8-5.6,18.8-6.2,24,0.7c3.8,5,2.9,11.8,1.9,17.8
		c-1,6.1-1.9,11.7-2.9,17.5h16.7c-0.1-0.9-0.2-1.9-0.4-2.7c-0.9-5.7-2.1-11.6,0.2-17c5.8-13.2,26.5-11.2,38.5-19.7
		c7.4-5.3,10.8-14.2,15.2-22c4.4-7.8,11.8-15.6,21.1-15.2c3.1,0.1,6.2,1.2,9.4,1.1c9.2-0.3,14.6-13,8-19.2c-1.5-1.2-2.9-2.5-4.1-4
		c-1.6-2.9,0.1-6.6,2.9-8.7c3-1.7,6.3-2.7,9.8-3c7.8-1.2,15.7-2.4,23.6-3.5C231.1,633,242.2,628.7,241,620.4z"/>
	<path d="M757.1,718.6c-1.4-4.6-2.8-9.1-4.4-13.6c-1.6-4.5-3.2-8.9-4.9-13.3c-1.9-3.3-3.8-6.6-6-9.8c-20.4-30.7-50-54.8-72.6-84.2
		c-7.3-9.6-13-17.4-26-19.3c-19.2-2.8-28.9,7.6-42.5-9.7c-3.7-4.6-10.1-9-15.5-6.2c1.4,3.7,2.8,7.4,4.2,11.2
		c0.4,0.8,0.5,1.6,0.5,2.4c-0.3,2.6-4.4,3.3-6.7,1.9c-2.3-1.4-3.5-4.1-5.2-6.2c-6.1-8.3-20.3-9.3-27.6-2.2c-0.2-1.8-0.8-3.4-1.9-4.9
		c-1.1-1.4-2.5-2.6-4.2-3.3c-0.8,6.8-9,11.8-15.8,9.7c-1.1-3.3,5.2-4,7.4-6.9c2.3-2.9-0.4-6.5-3-8.7c-7.1-5.8-16-9.1-25.3-9.3
		c-5.9-0.1-12.2,0.9-17.3-1.9c-3-1.7-5.1-4.4-8.1-6c-6.5-3.5-14.5-0.3-21.1,3.1c-8.9,4.7-18.1,10.6-21.3,19.9
		c-3.1,9.3,3.8,21.5,14,20.4c2.6-0.3,5.2-1.5,7.7-0.8c3.6,0.9,5.2,5,5.5,8.5c0.3,3.5-0.1,7.2,1.7,10.3c1.8,3.1,7,4.6,9.1,1.7
		c4.8-4.3,4.2-11.6,3-17.7c-1.2-6.1-2.5-13,1.3-18.1c3.8-5,15-3.4,14.2,2.8c-0.5,3.6-4.8,6.3-4.7,9.9c0.2,3.6,5,5.7,9,5.6
		c4-0.2,8-1.5,11.8-0.6c3.8,0.9,7,5.7,4.2,8.4c-4.8,5.2-17.4-3.7-19.9,2.8c-0.7,1.7,0,3.5-0.2,5.3c-0.5,5.4-7.6,7.4-13.3,8.1
		c-5.7,0.7-11.7,1.2-16.9-1.2c-5.2-2.3-8.7-8.8-5.8-13.4c-2.9-2-7.3,0-8.9,3.1c-1.6,3.1-1.1,6.6-0.6,10c-6.1-1.3-11.5,3.6-14.9,8.4
		c-3.4,4.8-6.8,10.5-12.7,12.2c-5.9,1.7-14.1-0.6-17.2,4.5c-4,6.6,7.6,15,3.6,21.5c-2.3,3.7-7.9,3.6-12.4,4.8
		c-11.7,3.1-15.8,19.4-7.8,28.1c8,8.7,23.9,8.2,32.4-0.1c5.9-5.7,8.3-13.7,12.5-20.5c4.2-6.9,12.3-13,20.3-10.8
		c3.1,1.1,5.9,2.8,8.3,5c3.9,3.1,7.8,6.2,11.7,9.3c2.5,2,5.2,4.5,5,7.6c-0.2,2.5-2.3,4.4-3.1,6.8c-2.4,6.6,7.7,13,14.1,9.4
		c6.4-3.6,7.1-13,2.7-18.7c-6.1-8-19.7-11.9-19.4-21.8c7-5.4,18,0.3,22.1,7.9c4.1,7.7,4.2,16.7,7.6,24.6c3.4,7.9,13,15,21.1,11.1
		c-2.1-6.9-4.1-13.6-6.2-20.4c5.2-3.6,11,7,17.1,5.2c3.7-1.1,4.2-6.2,2.6-9.6c-1.6-3.4-4.5-6.3-5.2-9.9c-1.2-6.7,6.8-12.8,13.9-11.6
		c7.2,1.2,12.3,7.6,13.6,14.3c0.3,2.7,0.9,5.4,1.9,7.9c2.7,5.3,9.6,6.9,15.3,9.1c5.7,2.2,11.7,7.7,9.3,13.1
		c-1.1,2.4-3.7,4.6-2.8,7.1c0.9,2.2,4.2,3.1,4.2,5.4c0,1.6-1.7,2.6-3.3,3.2c-3.8,1.5-8,2-11.7,3.7c-3.7,1.7-7.1,5.1-6.8,8.9
		c0.5,5.5,7.4,8.2,10.7,12.8c2.8,3.9,2.7,9,4.1,13.6h42.6c-1.5-2.9-3.1-5.9-4.6-8.8c3.5-2.8,8.9-1.7,12.5,1.1
		c2.6,2.3,4.9,4.9,6.7,7.7h125.5C762.4,738.1,759.9,728.3,757.1,718.6z"/>
</g>
<path class="st7" d="M391.2,505.1c1.6-3.2,1.9-7,4.6-9.4c2.3-2,5.6-2.4,8-4.1c5.4-3.9,3.2-12.9-2.6-16.4c-14.4-8.7-41,1.4-53.5,9.9
	c-16,11-31.7,24.2-53,23c-5.9-0.3-12-1.9-17.5,0.1c-5.5,2-8.9,9.8-4.2,13.1c2.6,1.8,6.4,1.3,9.4,2.6c5.5,2.4,6.1,9.9,3.5,15.1
	c-2.6,5.2-7.5,9-10.7,13.9c-3.1,4.8-4.5,10.4-4,16c0.1,1.9,0.5,3.9,1.4,5.6c0.9,1.8,2.1,3.3,3.6,4.7c6.6,5,16.7,0.7,22.3-5.3
	c5.6-6,9.5-13.8,16.8-18c3.8-1.9,7.8-3.2,12-3.9l27.8-6.3c4.4-1,9.2-2.2,12-5.6c3.5-4.3,2.5-10.5,4.7-15.6
	C375.5,516.2,387.1,513.2,391.2,505.1z"/>
<path class="st7" d="M542.5,718.2c-8.4-1.1-16.5,2.7-24.9,4.1c-28.7,5-77.1-61-98.9-16.6c-3.1-12.1-23.7-7.5-30.3,3.2
	c-6.6,10.7-8,24.9-18.5,32.4c-4.6,3.3-10.4,4.8-15.7,6.8h215.5C564.6,734.9,557,720.2,542.5,718.2z"/>
<path class="st7" d="M752.7,705.1c-1.6-4.5-3.2-8.9-4.9-13.3c-1.9-3.3-3.8-6.6-6-9.8c-20.4-30.7-50-54.8-72.6-84.2
	c-7.3-9.6-13-17.4-26-19.3c-19.2-2.8-28.9,7.6-42.5-9.7c-3.7-4.6-10.1-9-15.5-6.2c1.4,3.7,2.8,7.4,4.2,11.2c0.4,0.8,0.5,1.6,0.5,2.4
	c-0.3,2.6-4.4,3.3-6.7,1.9c-2.3-1.4-3.5-4.1-5.2-6.2c-6.1-8.3-20.3-9.3-27.6-2.2c-0.2-1.8-0.8-3.4-1.9-4.9c-1.1-1.4-2.5-2.6-4.2-3.3
	c-0.8,6.8-9,11.8-15.8,9.7c-1.1-3.3,5.2-4,7.4-6.9c2.3-2.9-0.4-6.5-3-8.7c-7.1-5.8-16-9.1-25.3-9.3c-5.9-0.1-12.2,0.9-17.3-1.9
	c-3-1.7-5.1-4.4-8.1-6c-6.5-3.5-14.5-0.3-21.1,3.1c-8.9,4.7-18.1,10.6-21.3,19.9c-3.1,9.3,3.8,21.5,14,20.4c2.6-0.3,5.2-1.5,7.7-0.8
	c3.6,0.9,5.2,5,5.5,8.5c0.3,3.5-0.1,7.2,1.7,10.3c1.8,3.1,7,4.6,9.1,1.7c4.8-4.3,4.2-11.6,3-17.7c-1.2-6.1-2.5-13,1.3-18.1
	c3.8-5,15-3.4,14.2,2.8c-0.5,3.6-4.8,6.3-4.7,9.9c0.2,3.6,5,5.7,9,5.6c4-0.2,8-1.5,11.8-0.6c3.8,0.9,7,5.7,4.2,8.4
	c-4.8,5.2-17.4-3.7-19.9,2.8c-0.7,1.7,0,3.5-0.2,5.3c-0.5,5.4-7.6,7.4-13.3,8.1s-11.7,1.2-16.9-1.2c-5.2-2.3-8.7-8.8-5.8-13.4
	c-2.9-2-7.3,0-8.9,3.1c-1.6,3.1-1.1,6.6-0.6,10c-6.1-1.3-11.5,3.6-14.9,8.4c-3.4,4.8-6.8,10.5-12.7,12.2c-5.9,1.7-14.1-0.6-17.2,4.5
	c-4,6.6,7.6,15,3.6,21.5c-2.3,3.7-7.9,3.6-12.4,4.8c-11.7,3.1-15.8,19.4-7.8,28.1c8,8.7,23.9,8.2,32.4-0.1
	c5.9-5.7,8.3-13.7,12.5-20.5c4.2-6.9,12.3-13,20.3-10.8c3.1,1.1,5.9,2.8,8.3,5c3.9,3.1,7.8,6.2,11.7,9.3c2.5,2,5.2,4.5,5,7.6
	c-0.2,2.5-2.3,4.4-3.1,6.8c-2.4,6.6,7.7,13,14.1,9.4c6.4-3.6,7.1-13,2.7-18.7c-6.1-8-19.7-11.9-19.4-21.8c7-5.4,18,0.3,22.1,7.9
	c4.1,7.7,4.2,16.7,7.6,24.6c3.4,7.9,13,15,21.1,11.1c-2.1-6.9-4.1-13.6-6.2-20.4c5.2-3.6,11,7,17.1,5.2c3.7-1.1,4.2-6.2,2.6-9.6
	c-1.6-3.4-4.5-6.3-5.2-9.9c-1.2-6.7,6.8-12.8,13.9-11.6c7.2,1.2,12.3,7.6,13.6,14.3c0.3,2.7,0.9,5.4,1.9,7.9
	c2.7,5.3,9.6,6.9,15.3,9.1c5.7,2.2,11.7,7.7,9.3,13.1c-1.1,2.4-3.7,4.6-2.8,7.1c0.9,2.2,4.2,3.1,4.2,5.4c0,1.6-1.7,2.6-3.3,3.2
	c-3.8,1.5-8,2-11.7,3.7c-3.7,1.7-7.1,5.1-6.8,8.9c0.5,5.5,7.4,8.2,10.7,12.8c2.8,3.9,2.7,9,4.1,13.6h42.6c-1.5-2.9-3.1-5.9-4.6-8.8
	c3.5-2.8,8.9-1.7,12.5,1.1c2.6,2.3,4.9,4.9,6.7,7.7h125.5c-2-9.9-4.4-19.8-7.3-29.5C755.7,714.1,754.2,709.5,752.7,705.1z"/>
<path class="st5" d="M632.1,740.4c-3.6-2.7-9-3.9-12.5-1.1c1.6,2.9,3.1,5.9,4.6,8.8h14.6C637,745.2,634.7,742.7,632.1,740.4z"/>
<path class="st7" d="M98.1,728.4c5.8-13.2,26.5-11.2,38.5-19.7c7.4-5.3,10.8-14.2,15.2-22c4.4-7.8,11.8-15.6,21.1-15.2
	c3.1,0.1,6.2,1.2,9.4,1.1c9.2-0.3,14.6-13,8-19.2c-1.5-1.2-2.9-2.5-4.1-4c-1.6-2.9,0.1-6.6,2.9-8.7c3-1.7,6.3-2.7,9.8-3
	c7.8-1.2,15.7-2.4,23.6-3.5c8.6-1.3,19.8-5.5,18.6-13.8c-1.1-7.1-11.2-10.3-12.7-17.4c-0.4-1.7-0.2-3.6-1-5.2
	c-2.4-4.5-9.5-2.7-14.1-0.3c-1.9-6.6-11.8-9.6-17.3-5.2c-4.6,3.6-5.2,10-6.9,15.5c-3.8,13.2-15,23.3-25.5,32.6
	c-3.5,3.1-7.6,6.4-12.4,6.6c-4.8,0.2-9.9-4.7-7.7-8.7c1.5-2.8,5.7-4.4,5.3-7.4c-0.6-3.9-7.7-3.6-9.1-7.3c2.8-10.9,16-15.5,26.1-21.3
	c12.4-7.1,21.8-18.1,26.7-31.2c0.8-2.1,1.5-4.5,0.4-6.4c-1.5-2.7-5.4-3.2-8.7-3.2c-7.8-0.1-17.5,0.9-20.4,7.8
	c-1.5,3.7-0.4,7.9-1.3,11.8c-2.7,11.5-19.3,12.8-29.4,19.6c-3.9,2.6-7,6.4-11.4,8.4c-4.7,2.2-10.2,2-15.5,2.4
	c-0.9,0-1.9,0.2-2.8,0.3c-3.2,4.2-6.3,8.5-9.3,12.9c-3,4.4-5.9,8.9-8.6,13.3c-13.1,21.3-23.8,44-31.9,67.5
	c-2.9,8.3-5.4,16.7-7.6,25.2c-1.5,5.7-2.8,11.5-3.9,17.4h1.7c1.2-3.8,2-7.7,2.7-11c0.2-0.8,0.4-1.7,0.5-2.4
	c1.9-8.3,4.8-17.1,11.6-22.7c6.8-5.6,18.8-6.2,24,0.7c3.8,5,2.9,11.8,1.9,17.8c-1,6.1-1.9,11.7-2.9,17.5h16.7
	c-0.1-0.9-0.2-1.9-0.4-2.7C97,739.7,95.8,733.7,98.1,728.4z"/>
<path class="st5" d="M82.6,712.7c-5.3-7-17.3-6.3-24-0.7c-6.8,5.6-9.7,14.3-11.6,22.7c-0.2,0.8-0.3,1.7-0.5,2.4
	c-0.7,3.3-1.6,7.2-2.7,11h38c1-5.9,1.9-11.7,2.9-17.5C85.5,724.5,86.4,717.7,82.6,712.7z"/>
<path class="st3" d="M317.6,687.3c0.8-5.6-7.4-10.1-13.5-10.6c-2.9-0.2-6,0.2-8.7-0.7c-6-2-8.4-9.5-14.3-11.9
	c-4.4-1.8-9.5-0.2-13.7,1.9c-4.3,2.1-8.5,4.7-13.2,5c-4.1,0.2-8.6-1.2-12.3,0.7c-2.7,1.4-4.1,4.4-6.6,6.2c-2.6,1.5-5.6,2.3-8.6,2.3
	c-3-0.1-6,0.4-8.9,1.4c-2.8,1.2-5,4-4.5,6.8L317.6,687.3z"/>
<path class="st3" d="M344.4,647.6c0.5-3.8-5.1-6.9-9.3-7.3c-2,0.1-4-0.1-6-0.5c-4.1-1.4-5.8-6.5-9.8-8.1c-3-1.2-6.5-0.1-9.4,1.3
	c-2.9,1.4-5.8,3.2-9.1,3.4c-2.8,0.2-5.9-0.8-8.4,0.5c-1.8,1-2.8,3-4.5,4.2c-1.8,1.1-3.8,1.6-5.9,1.5c-2.1,0-4.1,0.3-6.1,1
	c-1,0.4-1.8,1-2.3,1.9c-0.5,0.8-0.8,1.8-0.7,2.8L344.4,647.6z"/>
<path class="st7" d="M205.9,468.6c0,0-0.1,0.1-0.4,0.3l-1.3,0.8l-5.2,3l-3.8,2.1l-4.4,2.7c-3.2,2-6.9,4.1-10.7,6.6l-6.1,4
	c-2.1,1.4-4.2,3-6.5,4.5c-4.5,3.1-9.1,6.6-14,10.4c-9.6,7.6-19.9,16.4-30.1,26.2c-9.5,9.3-18.5,19.1-27,29.3
	c-3.8,4.8-7.5,9.2-10.7,13.6c-1.6,2.2-3.2,4.2-4.7,6.3l-4.1,5.9c-2.7,3.7-4.8,7.3-6.9,10.3l-2.7,4.3l-2.2,3.7l-3.1,5
	c-0.3,0.5-0.6,1-0.8,1.3c-0.2,0.3-0.3,0.4-0.3,0.4c0,0,0-0.2,0.2-0.5l0.7-1.4l2.9-5.1c0.7-1.1,1.4-2.4,2.1-3.7
	c0.8-1.4,1.7-2.8,2.7-4.3c1.9-3.1,4.1-6.6,6.7-10.4l4.1-6c1.4-2.1,3-4.1,4.6-6.3c3.2-4.4,6.9-8.9,10.6-13.7
	c16.8-20.5,36-39.1,57.2-55.5c4.9-3.7,9.6-7.3,14.1-10.3c2.3-1.6,4.4-3.1,6.5-4.5l6.2-4c3.9-2.6,7.6-4.7,10.8-6.6
	c1.6-0.9,3.1-1.8,4.5-2.6l3.8-2.1l5.3-2.8l1.4-0.7L205.9,468.6z"/>
<path class="st7" d="M248.4,433.8c-0.3,0.2-0.7,0.3-1,0.4l-3,0.9c-1.3,0.4-2.9,0.8-4.7,1.4c-1.8,0.6-3.9,1.2-6.2,2
	c-4.6,1.5-10,3.5-15.9,5.9c-5.9,2.4-12.2,5.3-18.8,8.6c-6.5,3.3-12.5,6.8-17.9,10.1c-5.4,3.3-10.1,6.6-13.9,9.4
	c-1.9,1.4-3.7,2.7-5.2,3.8c-1.5,1.1-2.8,2.1-3.8,3l-2.4,1.9c-0.3,0.2-0.6,0.4-0.9,0.6c0.2-0.3,0.5-0.5,0.8-0.7l2.3-2
	c1-0.9,2.3-1.9,3.8-3.1c1.5-1.2,3.2-2.5,5.2-3.9c3.8-2.9,8.5-6.1,13.8-9.5c5.3-3.4,11.4-6.9,18-10.2c6.5-3.4,13-6.2,18.9-8.6
	c5.9-2.4,11.4-4.3,16-5.7c2.3-0.8,4.4-1.3,6.2-1.9c1.8-0.5,3.5-1,4.8-1.3l3-0.7C247.6,433.9,248,433.9,248.4,433.8z"/>
<path class="st8" d="M36.2,611.6c-3.2-1.5-6.7-2.3-10.2-2.4c-3.5,0-7,0.7-10.2,2.2c-3.2,1.5-6,3.7-8.1,6.3c-2.2,2.7-3.7,5.8-4.4,9.2
	c-0.7,3.3-0.6,6.8,0.3,10.1c0.9,3.3,2.6,6.3,4.9,8.9c2.3,2.6,5.3,4.6,8.5,5.9c3.3,1.3,6.8,1.9,10.4,1.6c1.7-0.1,3.2-0.6,5.1-0.9
	l21.9-3.8c0.7-0.1,1.3-0.3,1.8-0.7c0.5-0.4,1-0.9,1.3-1.4c0.3-0.6,0.4-1.2,0.4-1.8c0-0.6-0.2-1.3-0.5-1.8l-9.7-18.8
	c-0.7-1.6-1.5-3.2-2.4-4.8C43,616,39.9,613.3,36.2,611.6z M34.8,635.7c-0.9,1.7-2.3,3.1-4.1,4.1c-1.7,1-3.7,1.4-5.7,1.2
	c-2-0.1-3.9-0.8-5.5-2c-1.6-1.2-2.8-2.8-3.4-4.6c-0.6-1.8-0.7-3.8-0.1-5.7c0.5-1.9,1.6-3.5,3.2-4.8c1.5-1.3,3.4-2.1,5.4-2.3
	c2-0.2,4,0.1,5.8,1c2.4,1.2,4.2,3.2,5.1,5.6C36.2,630.7,36,633.3,34.8,635.7z"/>
<path class="st8" d="M597.5,464.8c1.8-2.9,2.8-6.2,3-9.6c0.2-3.4-0.4-6.8-1.8-9.9c-1.4-3.1-3.5-5.9-6.2-8.1
	c-2.7-2.2-5.9-3.8-9.3-4.7c-3.4-0.9-7-0.9-10.5-0.2c-3.5,0.7-6.7,2.1-9.5,4.2c-2.8,2.1-5,4.8-6.6,7.8s-2.3,6.4-2.3,9.8v0.1
	c0,1.7,0.4,3.1,0.7,5l2.8,21.1c0.1,0.6,0.3,1.2,0.7,1.7c0.4,0.5,0.8,0.9,1.4,1.2c0.6,0.3,1.2,0.5,1.8,0.5c0.6,0,1.3-0.1,1.9-0.3
	l20.1-8.3c1.8-0.6,3.5-1.3,5.2-2.1C592.5,471.1,595.5,468.3,597.5,464.8z M572.5,462.2c-1.7-1-3.2-2.4-4.1-4.1
	c-0.9-1.7-1.2-3.7-1-5.6c0.2-1.9,1.1-3.7,2.4-5.2c1.3-1.5,3.1-2.5,5-3c1.9-0.5,4-0.4,5.9,0.2c1.9,0.6,3.6,1.8,4.8,3.3s2,3.4,2.1,5.3
	c0.1,1.9-0.3,3.8-1.3,5.5c-1.3,2.2-3.5,3.9-6.1,4.5C577.6,463.8,574.8,463.5,572.5,462.2z"/>
<path class="st8" d="M253.9,454c-1.2-1.7-2.8-3.1-4.7-4.1c-1.9-1-4-1.6-6.1-1.7c-2.1-0.1-4.3,0.3-6.3,1.1c-2,0.8-3.7,2.1-5.1,3.6
	c-1.4,1.6-2.4,3.4-2.9,5.4c-0.5,2-0.6,4.1-0.1,6.1c0.5,2,1.4,3.9,2.7,5.5c1.3,1.6,3,2.9,5,3.8c0.9,0.4,1.9,0.6,3,1l12.8,4.1
	c0.4,0.1,0.8,0.2,1.2,0.1c0.4-0.1,0.8-0.2,1.1-0.4c0.3-0.2,0.6-0.5,0.8-0.8c0.2-0.3,0.3-0.7,0.3-1.1l0.6-12.7
	c0.1-1.1,0.2-2.1,0.2-3.2C256.1,458.3,255.3,456,253.9,454z M245.8,466.4c-1,0.7-2.2,1-3.4,1c-1.2,0-2.4-0.3-3.4-1
	c-1-0.6-1.8-1.5-2.3-2.6c-0.5-1.1-0.6-2.3-0.4-3.4s0.8-2.2,1.6-3c0.8-0.8,1.9-1.4,3.1-1.7c1.2-0.2,2.4-0.1,3.6,0.3
	c1.1,0.4,2.1,1.2,2.8,2.1c0.5,0.6,0.8,1.4,0.9,2.1c0.2,0.8,0.2,1.5,0,2.3c-0.1,0.8-0.4,1.5-0.9,2.1
	C247.1,465.4,246.5,465.9,245.8,466.4z"/>
<path class="st8" d="M430.9,655.3c0-2.1-0.5-4.1-1.4-5.9c-1-1.8-2.3-3.5-4-4.7c-1.7-1.3-3.7-2.1-5.8-2.5c-2.1-0.4-4.3-0.3-6.4,0.2
	c-2.1,0.5-4,1.5-5.6,2.9c-1.6,1.4-2.9,3.1-3.7,5c-0.8,1.9-1.2,4-1,6c0.2,2.1,0.8,4,1.9,5.8c0.5,0.9,1.2,1.5,1.9,2.4l8.1,10.3
	c0.2,0.3,0.5,0.5,0.9,0.7c0.3,0.2,0.7,0.3,1.1,0.3c0.4,0,0.8-0.1,1.1-0.3c0.3-0.2,0.7-0.4,0.9-0.7l8-10.1c0.7-0.8,1.4-1.7,2-2.6
	C430.2,660,430.9,657.7,430.9,655.3z M416.9,661.1c-1.2,0-2.4-0.3-3.4-1c-1-0.6-1.8-1.6-2.3-2.6c-0.5-1.1-0.6-2.3-0.4-3.4
	c0.2-1.1,0.8-2.2,1.7-3c0.9-0.8,2-1.4,3.2-1.6s2.4-0.1,3.6,0.3c1.1,0.4,2.1,1.2,2.8,2.2c0.7,1,1,2.1,1,3.3c0,1.6-0.6,3.1-1.8,4.2
	C420.1,660.5,418.5,661.1,416.9,661.1z"/>
<path class="st8" d="M749.3,612.3c1.7-1.3,3-3,3.8-4.9s1.3-3.9,1.2-6s-0.7-4.1-1.7-5.9c-1-1.8-2.5-3.4-4.2-4.5
	c-1.8-1.2-3.8-2-5.9-2.3s-4.3-0.2-6.3,0.5c-2,0.6-3.9,1.7-5.5,3.1c-1.6,1.4-2.7,3.2-3.5,5.1c-0.4,1-0.4,1.9-0.7,2.9l-3.1,12.6
	c-0.1,0.4-0.1,0.7,0,1.1c0.1,0.4,0.3,0.7,0.5,1c0.2,0.3,0.6,0.5,0.9,0.7c0.4,0.2,0.7,0.2,1.1,0.2l13.2-0.6c1.1,0,2.2,0,3.4-0.1
	C745.1,614.8,747.4,613.8,749.3,612.3z M735.7,605.7c-0.8-0.9-1.3-2-1.4-3.2c-0.1-1.2,0.1-2.3,0.7-3.4c0.6-1,1.4-1.9,2.5-2.4
	c1.1-0.6,2.3-0.8,3.5-0.7s2.4,0.6,3.3,1.3c0.9,0.7,1.6,1.7,2,2.8c0.4,1.1,0.4,2.3,0,3.4c-0.3,1.1-1,2.1-2,2.9
	c-1.2,1-2.9,1.5-4.5,1.3C738.2,607.7,736.8,606.9,735.7,605.7L735.7,605.7z"/>
<path class="st9" d="M377.7,165.4l78.7-22.1L467,169l-91.3,14.4L377.7,165.4z"/>
<path class="st9" d="M377.7,165.4c0,0-15.2,1-16.7,1.9s-17.2,1.7-17.2,3.8c0,2.2,0.7,1,3.2,1.2c2.5,0.1,8.5-0.7,8.5,0.3
	c0.1,1-18.4,3.8-19,4.6c-0.6,0.8-2.2,1.5,0.1,2.1c0,0-2.8,1.3-2.2,2.9c0.2,0.8,0.6,1.5,1.3,2c0.7,0.5,1.5,0.8,2.3,0.8
	c1.7-0.1,15.4-0.6,15.4-0.6s-15.1,0.7-15,2.2c0.1,1.4-0.5,1.3,1.4,2.3c1.9,1,11.8,1,11.8,1l11.6-2.2c0,0-8.1,3.8-9.1,5.3
	c-1,1.5-1.6,4.3,0,5.3c1.6,1,2.2-0.4,3.4-1.7c1.2-1.2,11.2-5.9,13-7.1c1.8-1.3,10.7-9.4,10.7-9.4L377.7,165.4z"/>
<path class="st7" d="M529,43.4c0.5-0.6,1.2-1.1,2-1.3c2.5-1,5.3-1.2,7.9-0.3c-1.4-1.9-2.5-4.1-3.1-6.4c-0.3-1.2-0.2-2.4,0.1-3.5
	c0.3-1.1,1-2.2,1.9-3c1-0.7,2.1-1.1,3.3-1.3c1.2-0.2,2.4-0.2,3.6,0.1c3.4,0.4,6.5,1.9,8.9,4.2c1.2,1.2,2,2.6,2.5,4.2
	c0.5,1.6,0.5,3.2,0.2,4.8l-6.9,5.2c-2,2.5-4.6,4.4-7.7,5.5c-0.6,0.3-1.4,0.5-2.1,0.5c-0.7,0-1.5-0.2-2.1-0.6c-0.4-0.4-0.7-1-0.8-1.6
	c-0.1-0.6,0-1.2,0.3-1.7c0.6-1.1,1.5-2,2.5-2.7c-2.6,1.1-5.4,1.6-8.2,1.5c-0.5,0-1-0.1-1.4-0.2c-0.4-0.2-0.8-0.5-1.2-0.8
	c-0.2-0.4-0.3-0.8-0.2-1.2C528.5,44,528.7,43.7,529,43.4z"/>
<path class="st5" d="M536.4,28.9c0,0.1,1.2,0.1,3.1,0.6c2.5,0.7,4.7,1.9,6.6,3.5c1.9,1.7,3.3,3.7,4.2,6c0.7,1.8,0.8,2.9,0.9,2.9
	c0-0.3,0-0.6,0-0.8c-0.1-0.7-0.3-1.5-0.6-2.2c-0.8-2.4-2.3-4.6-4.2-6.3c-2-1.7-4.3-2.9-6.9-3.5c-0.8-0.2-1.5-0.3-2.3-0.3
	C537,28.8,536.7,28.9,536.4,28.9z"/>
<path class="st5" d="M549.1,44.8c0.3-0.6,0.6-1.1,1.1-1.6c1.5-2,3.7-3.6,6.1-4.5c0.2-0.1,0.5-0.1,0.7-0.1c0.2,0,0.5,0.1,0.7,0.2
	c0.6,0.4,0.4,1.3-0.1,1.9c-0.6,0.5-1,1-1.4,1.7l-3.7,3.7c-0.3,0.5-0.8,0.8-1.4,1c-0.3,0.1-0.6,0.1-0.9,0c-0.3-0.1-0.5-0.2-0.8-0.4
	c-0.2-0.3-0.4-0.6-0.4-0.9C548.9,45.4,548.9,45.1,549.1,44.8z"/>
<path class="st7" d="M534.6,77.4c1-5.8,2.5-11.4,4.5-17c2-5.5,5.4-10.5,9.9-14.5c0.7-0.6,5.9-4.2,6.7-3.7c0.8,0.5-3.6,4.1-3.5,4.8
	c-0.1,6.1-2,12-5.7,17C543,68.9,539,73.4,534.6,77.4z"/>
<path class="st9" d="M520.3,102.5l25-44.9c6.9-13.1,20.6-20.1,34-13.1l1.4,0.8c5.8,3.4,10,8.8,11.8,15.1c1.8,6.3,1.1,13-2,18.8
	c-6.1,11.3-13,23.9-16.8,29.6c-7.9,11.9-21.5,6.3-21.5,6.3s-4.9,8.3-7,11.8c0,0-1.9,1-13.8-5.3C519.4,115.4,520.3,102.5,520.3,102.5
	z"/>
<path class="st10" d="M552.1,115.2c-5.7-3.4-10.3-8.4-13.2-14.3c0,0-1.7,11,11.4,17.4L552.1,115.2z"/>
<path class="st7" d="M581.8,86.5c-0.3,0.4-0.7,0.8-1.3,0.9c-0.5,0.1-1.1,0.1-1.6-0.2c-0.2-0.1-0.4-0.3-0.6-0.5
	c-0.2-0.2-0.3-0.4-0.4-0.7s-0.1-0.5-0.1-0.8s0.1-0.5,0.2-0.7c0.3-0.5,0.7-0.8,1.3-0.9c0.5-0.1,1.1-0.1,1.6,0.2
	c0.2,0.1,0.4,0.3,0.6,0.5c0.2,0.2,0.3,0.4,0.4,0.7c0.1,0.2,0.1,0.5,0.1,0.8C582,86,581.9,86.2,581.8,86.5z"/>
<path class="st7" d="M584.9,82.2c-0.4,0-1.1-1.7-3-2.8c-1.9-1.2-3.9-1-4-1.4c-0.1-0.3,0.4-0.4,1.3-0.5c1.2-0.1,2.4,0.2,3.5,0.8
	c1,0.6,1.8,1.5,2.2,2.5C585.1,81.6,585,82.2,584.9,82.2z"/>
<path class="st7" d="M563.7,76.9c-0.1,0.2-0.3,0.4-0.5,0.6c-0.2,0.2-0.5,0.3-0.7,0.3c-0.3,0.1-0.5,0.1-0.8,0c-0.3,0-0.5-0.1-0.8-0.3
	c-0.2-0.1-0.4-0.3-0.6-0.5c-0.2-0.2-0.3-0.4-0.4-0.7c-0.1-0.2-0.1-0.5-0.1-0.8c0-0.3,0.1-0.5,0.2-0.7c0.3-0.5,0.7-0.8,1.3-0.9
	c0.5-0.1,1.1-0.1,1.6,0.2c0.2,0.1,0.4,0.3,0.6,0.5c0.2,0.2,0.3,0.4,0.4,0.7c0.1,0.2,0.1,0.5,0.1,0.8C564,76.4,563.9,76.7,563.7,76.9
	z"/>
<path class="st7" d="M565.5,72.1c-0.4,0-1.1-1.7-3-2.8c-1.9-1.1-3.9-1.1-4-1.4c-0.1-0.3,0.4-0.4,1.3-0.5c1.2-0.1,2.4,0.2,3.4,0.8
	c1,0.6,1.8,1.5,2.2,2.5C565.7,71.5,565.6,72.1,565.5,72.1z"/>
<path class="st7" d="M563,90.6c1.2,0.3,2.4,0.7,3.5,1.3c0.5,0.2,1.1,0.4,1.3,0.2c0.4-0.5,0.6-1.1,0.6-1.7c0.3-1.4,0.6-2.9,0.9-4.4
	c0.6-3.8,1.5-7.6,2.8-11.3c-0.3,3.9-0.9,7.7-1.8,11.5c-0.3,1.5-0.6,3-0.9,4.4c-0.1,0.7-0.4,1.4-0.9,2c-0.2,0.1-0.4,0.2-0.6,0.2
	c-0.2,0-0.4,0-0.6,0c-0.3-0.1-0.6-0.2-0.9-0.4C565,91.9,564,91.3,563,90.6z"/>
<path class="st7" d="M569.2,68c-0.6,0.3-2.1-1.2-4.4-2.6c-2.3-1.4-4.4-2.1-4.4-2.7c0-0.3,0.7-0.5,1.7-0.4c1.4,0.1,2.7,0.6,3.8,1.3
	c1.2,0.7,2.1,1.6,2.8,2.7C569.4,67.2,569.5,67.8,569.2,68z"/>
<path class="st7" d="M587.5,78.4c-0.7,0.2-1.9-1.2-3.7-2.3c-1.8-1.1-3.6-1.8-3.7-2.4c0-0.3,0.5-0.6,1.4-0.6c1.2,0.1,2.4,0.5,3.4,1.2
	c1.1,0.6,1.9,1.6,2.5,2.6C587.9,77.7,587.9,78.3,587.5,78.4z"/>
<path class="st9" d="M540.6,67.1c-0.2-0.2-7-7.5-12.1,0.8c-5.1,8.3,4.7,11.4,4.9,11.2C533.5,78.9,540.6,67.1,540.6,67.1z"/>
<path class="st10" d="M532.7,74.5c0,0-0.2,0-0.5,0c-0.4-0.1-0.9-0.3-1.1-0.6c-0.4-0.7-0.5-1.4-0.5-2.1c0-0.7,0.3-1.4,0.7-2.1
	c0.4-0.7,1-1.4,1.7-1.8c0.2-0.2,0.5-0.4,0.8-0.4c0.3-0.1,0.6-0.1,0.9-0.1c0.2,0.1,0.4,0.2,0.5,0.3c0.1,0.2,0.2,0.4,0.2,0.6
	c0,0.3-0.2,0.4-0.1,0.5c0.1,0,0.3,0,0.4-0.4c0.1-0.2,0.1-0.5,0-0.7c-0.1-0.3-0.4-0.5-0.7-0.7c-0.4-0.1-0.8-0.2-1.2-0.1
	c-0.4,0.1-0.8,0.2-1.1,0.5c-0.8,0.5-1.5,1.2-1.9,2c-0.5,0.7-0.8,1.6-0.8,2.4c0,0.9,0.3,1.7,0.8,2.4c0.2,0.2,0.4,0.3,0.7,0.4
	s0.5,0.1,0.8,0.1C532.6,74.7,532.7,74.5,532.7,74.5z"/>
<path class="st7" d="M592.9,62.6c1.8,0,0.2-6.6-2.4-10.1c-3.9-5.1-11.1-10.9-16.7-12.2c-6.7-1.7-13.2-1.4-19.1,2.1
	c-5.9,3.6-10.6,8.7-13.8,14.7c-1.1,1.7-1.7,3.7-1.7,5.8c0.1,2.5,1.7,5,0.2,7.4c-0.6,0.9-0.8,2-0.6,3c0.6,2.5,3.4,2,5.3,1
	c3.8-2.2,6.4-6,8.7-9.7c1.8-2.5,3.3-5.3,4.2-8.3c0.4-1.7,0.5-3.3,1-5c0.2-0.8,0.6-1.6,1.1-2.2c0.5-0.7,1.2-1.2,2-1.6
	c0.4-0.1,0.7-0.2,1.1-0.3c1.8-0.4,3.7-0.2,5.5,0.3c1.8,0.6,3.3,1.6,4.5,3c3.9,4.3,10.8,11.4,14,11c2.1-0.1,4.2-0.7,6.2-1.7
	L592.9,62.6z"/>
<path class="st7" d="M575,39.4c2.9,0.5,5.6,1.5,8.1,3c2.4,1.5,4.6,3.5,6.2,5.8c0.9,1.2,1.6,2.6,1.9,4c0.3,1.4,0.4,2.9,0.1,4.4
	c-0.3,1.4-1.2,2.7-2.4,3.6c-1.2,0.9-2.7,1.4-4.3,1.3h-0.2c-4.4-0.8-6.6-2.6-9.6-5.9c-2.5-2.7-4.2-6.1-6.7-8.8
	c-2.7-2.9-6.3-5-10.2-5.9C563.3,39,569.2,38.5,575,39.4z"/>
<path class="st5" d="M559.5,40.3c0,0,0.5,0,1.3,0.1c1.2,0.2,2.4,0.6,3.5,1.2c1.6,0.9,3,2.1,4.1,3.4c1.4,1.7,2.6,3.5,3.6,5.5
	c1,1.9,2.2,3.8,3.5,5.6c1.1,1.4,2.5,2.7,4,3.7c1.1,0.7,2.2,1.1,3.5,1.4c0.3,0.1,0.7,0.1,1,0.1c0.2,0,0.4,0,0.4,0
	c-1.7-0.2-3.2-0.8-4.7-1.7c-1.5-1-2.8-2.2-3.9-3.7c-1.3-1.8-2.4-3.6-3.5-5.5c-1-1.9-2.2-3.8-3.6-5.5c-1.2-1.4-2.6-2.6-4.2-3.5
	c-1.1-0.6-2.3-1-3.6-1.1c-0.3,0-0.7,0-1,0L559.5,40.3z"/>
<path class="st5" d="M564.8,39.5c1.5,0.2,3,0.7,4.3,1.5c1.4,0.9,2.6,1.9,3.7,3.2c1.2,1.5,2.3,3.2,3.1,5c0.9,1.9,1.7,3.7,2.7,5.3
	c0.8,1.4,1.7,2.8,2.8,4.1c0.7,0.9,1.6,1.6,2.5,2.3c0.3,0.2,0.5,0.3,0.8,0.5c0.2,0.1,0.3,0.1,0.3,0.1c-1.2-0.9-2.4-1.9-3.3-3
	c-1-1.3-1.9-2.6-2.7-4.1c-0.9-1.7-1.7-3.5-2.7-5.3c-0.9-1.8-1.9-3.5-3.2-5.1c-1.1-1.3-2.4-2.4-3.8-3.2c-1-0.6-2.1-0.9-3.2-1.1
	c-0.3,0-0.6,0-0.9,0C564.9,39.5,564.8,39.5,564.8,39.5z"/>
<path class="st5" d="M549.5,45.3c-0.1,0.2-0.2,0.5-0.2,0.7c-0.2,0.7-0.3,1.3-0.4,2c-0.5,4.5,0.5,9.1,3,12.9c0.4,0.6,0.8,1.1,1.2,1.7
	c0.3,0.4,0.5,0.6,0.5,0.6c0,0-0.6-0.9-1.5-2.4c-2.2-3.9-3.3-8.4-2.9-12.8C549.3,46.3,549.5,45.3,549.5,45.3z"/>
<path class="st5" d="M544.9,50.6c-0.2,0.2-0.3,0.4-0.3,0.6c-0.2,0.6-0.4,1.2-0.4,1.9c-0.2,2.1,0.3,4.3,1.4,6.1c1.1,1.8,2.4,3.5,4,5
	c0.6,0.7,1.3,1.2,2,1.8c-0.5-0.7-1.1-1.4-1.7-2c-1.5-1.5-2.7-3.2-3.8-5c-1-1.8-1.6-3.8-1.5-5.9C544.6,52.2,544.7,51.4,544.9,50.6z"
	/>
<path class="st5" d="M586.8,48c0.1,0.7,0.2,1.4,0.4,2.1c0.4,1.7,0.5,3.4,0.4,5.1c-0.1,1.7-0.7,3.3-1.7,4.7c-0.5,0.5-1,1.1-1.5,1.5
	c0.2-0.1,0.4-0.1,0.5-0.3c0.5-0.3,0.9-0.7,1.2-1.1c1.1-1.4,1.7-3,1.9-4.8c0.1-1.7-0.1-3.5-0.6-5.2C587.3,49.4,587.1,48.6,586.8,48z"
	/>
<path class="st5" d="M590.5,55.3c-0.5,1.4-1.2,2.8-2.2,3.9c-1.1,1.1-2.4,1.9-3.9,2.5c0.5,0,1-0.1,1.4-0.3c1.1-0.4,2-1.1,2.8-1.9
	c0.8-0.8,1.4-1.8,1.7-2.9C590.5,56.2,590.5,55.7,590.5,55.3z"/>
<path class="st7" d="M528.4,76.1c0.1,0-0.2,0.6-0.4,1.6c-0.1,0.5-0.1,1.1,0.2,1.5c0.2,0.3,0.4,0.5,0.7,0.6c0.3,0.2,0.6,0.3,0.9,0.3
	c0.3,0,0.6,0,0.9-0.2c0.3-0.1,0.6-0.3,0.8-0.5c0.4-0.4,0.7-0.9,0.8-1.4c0.2-0.9,0-1.6,0.1-1.7c0.1-0.1,0.5,0.5,0.4,1.7
	c0,0.7-0.3,1.3-0.8,1.8c-0.3,0.3-0.6,0.6-1,0.7c-0.4,0.2-0.8,0.2-1.3,0.2c-0.4,0-0.9-0.2-1.2-0.4c-0.4-0.2-0.7-0.6-0.9-0.9
	c-0.3-0.6-0.3-1.3-0.1-1.9C527.9,76.6,528.4,76.1,528.4,76.1z"/>
<path class="st7" d="M526.9,72.3c0,0.1-0.4,0.2-0.6,0.8c-0.1,0.3-0.1,0.6,0,0.9c0.1,0.2,0.2,0.3,0.4,0.4c0.2,0.1,0.3,0.2,0.5,0.2
	c0.4,0.1,0.7,0,1.1-0.2c0.3-0.2,0.6-0.4,0.7-0.8c0.3-0.5,0.3-1,0.4-1c0.1,0,0.3,0.4,0.1,1.2c-0.1,0.4-0.4,0.8-0.8,1.1
	c-0.2,0.2-0.5,0.3-0.8,0.4c-0.3,0.1-0.6,0.1-0.9,0c-0.3,0-0.5-0.2-0.8-0.3c-0.2-0.2-0.4-0.4-0.5-0.6c-0.1-0.2-0.2-0.5-0.2-0.8
	c0-0.3,0.1-0.5,0.2-0.8C526.3,72.1,526.9,72.2,526.9,72.3z"/>
<path class="st7" d="M529.7,66.5c0,0.1-0.4,0-1,0.2c-0.3,0.1-0.6,0.3-0.9,0.6c-0.2,0.3-0.3,0.6-0.3,1c0,0.3,0.2,0.7,0.4,0.9
	c0.2,0.3,0.6,0.4,0.9,0.5c0.6,0.1,1,0,1,0c0,0-0.3,0.4-1.1,0.4c-0.5,0-0.9-0.2-1.2-0.4c-0.2-0.2-0.4-0.4-0.5-0.6
	c-0.1-0.2-0.2-0.5-0.2-0.8c0-0.5,0.1-1,0.4-1.4c0.3-0.4,0.8-0.6,1.3-0.7C529.4,66.1,529.7,66.4,529.7,66.5z"/>
<path class="st7" d="M558.2,90.1c0.3,0.2-0.9,2-0.1,4.3c0.8,2.3,2.9,3.3,2.8,3.5c-0.2,0.2-0.7,0-1.6-0.4c-1.1-0.7-1.9-1.7-2.3-2.9
	c-0.4-1.1-0.3-2.4,0.2-3.5C557.6,90.4,558.1,90,558.2,90.1z"/>
<path class="st5" d="M456.7,402.9l-10.6,27.5c0,0,30.4,14.6,30.1,20.3l-61.2-6.4l14.4-45.6L456.7,402.9z"/>
<path class="st4" d="M427.4,425.9c-0.6,0.1-1.2,0.4-1.5,0.9c-0.4,0.5-0.6,1.1-0.5,1.7c0.1,0.6,0.4,1.1,0.9,1.5
	c0.5,0.4,1.1,0.5,1.7,0.5c0.6-0.1,1.2-0.5,1.6-1c0.4-0.5,0.6-1.1,0.5-1.8c-0.2-0.6-0.6-1.1-1.1-1.4c-0.6-0.3-1.2-0.4-1.9-0.3"/>
<path class="st4" d="M415,444.3l1.5-4.7l57.8,7.8c0,0,2.6,1.4,2.1,3.3L415,444.3z"/>
<path class="st7" d="M446.1,430.8c0,0.3-1.6,0.3-3.1,1c-1.6,0.8-2.5,1.9-2.8,1.8c-0.3-0.1,0.4-1.8,2.3-2.7
	C444.5,430,446.2,430.5,446.1,430.8z"/>
<path class="st7" d="M452.7,434.2c0,0.3-1.3,0.6-2.5,1.8c-1.2,1.1-1.6,2.4-1.9,2.3c-0.3,0-0.3-1.7,1.2-3
	C450.9,433.8,452.7,433.9,452.7,434.2z"/>
<path class="st7" d="M455.5,442c-0.3,0-0.5-1.4,0.4-2.9c0.9-1.5,2.4-2,2.5-1.7c0.1,0.3-0.9,1-1.6,2.2
	C456.1,440.8,455.8,442,455.5,442z"/>
<path class="st7" d="M448.5,424.6c-0.2,0.2-1.4-0.4-3.1-0.6c-1.7-0.2-3.1,0-3.2-0.2c-0.1-0.2,1.4-1,3.3-0.7
	C447.5,423.3,448.7,424.4,448.5,424.6z"/>
<path class="st5" d="M264.2,345.1l-31.6,5.8c0,0,0.8,32.6-4.5,35l-22.8-54.9l48.7-9.3L264.2,345.1z"/>
<path class="st4" d="M228.1,332.9c-0.4-0.5-0.9-0.8-1.5-0.9c-0.6-0.1-1.2,0-1.8,0.3c-0.5,0.4-0.8,0.9-0.9,1.5
	c-0.1,0.6,0,1.2,0.4,1.7c0.4,0.5,1,0.8,1.6,0.9c0.6,0.1,1.3,0,1.8-0.4c0.5-0.4,0.8-1,0.8-1.6c0-0.6-0.2-1.2-0.6-1.7"/>
<path class="st4" d="M205.4,330.9l4.9-0.9l19.8,52.6c0,0-0.1,2.9-2,3.3L205.4,330.9z"/>
<path class="st7" d="M232.4,351c-0.3,0.1-1-1.2-2.4-2.2c-1.4-1-2.9-1.2-2.9-1.5s1.7-0.5,3.4,0.7C232.2,349.2,232.7,351,232.4,351z"
	/>
<path class="st7" d="M232.3,358.2c-0.2,0.2-1.2-0.8-2.8-1.3c-1.6-0.4-2.9-0.2-3-0.5c-0.1-0.3,1.4-1.1,3.3-0.4
	C231.8,356.6,232.6,358,232.3,358.2z"/>
<path class="st7" d="M226.5,364.2c-0.2-0.2,1.1-1.1,2.9-1c1.8,0.1,2.9,1.1,2.7,1.3c-0.2,0.2-1.3-0.3-2.8-0.3
	C227.8,364.1,226.6,364.5,226.5,364.2z"/>
<path class="st7" d="M239.1,350.1c-0.3,0-0.3-1.4-0.9-3c-0.6-1.5-1.5-2.6-1.3-2.8s1.6,0.7,2.3,2.5
	C239.9,348.7,239.4,350.2,239.1,350.1z"/>
<path class="st7" d="M401.2,163.3c0,0-20.7,9.8-30.8,25.1c-10.1,15.3-38.8,90.2-38.8,90.2s-11.8,7.2-13.7,12.5
	c-1.8,5.3-80.8,30-80.8,30l7.7,30.1c0,0,95.6-19.9,101.9-25.5c6.4-5.6,63.3-70,63.3-70l42.1,69.5c0,0-14.6,29.9-18.1,40.8
	c-3.5,10.9-16.6,47.8-16.6,47.8l34.4,2.3c0,0,31.5-65.2,39.4-77.8c8-12.6,6.9-20.7,4-28.1S453,211.8,453,211.8l14.6-12.7l-48.9-46.2
	L401.2,163.3z"/>
<path class="st5" d="M337.1,310c-0.6-1.1-1-2.3-1.2-3.6c-0.8-2.9-1.2-5.9-1.5-8.9c-0.3-4-0.2-8,0.6-11.9h0.3
	c-0.1,0.5-0.2,0.8-0.3,0.8c-0.1,0,0-0.3,0-0.8h0.3c-0.3,3.9-0.3,7.9,0,11.8c0.2,3,0.6,5.9,1.2,8.8C336.7,307.5,337,308.8,337.1,310z
	"/>
<path class="st5" d="M335.8,309c-2.1-2.4-3.8-5-5.2-7.8c-1.6-2.7-2.8-5.7-3.4-8.7c0.2-0.1,1.7,3.8,4.1,8.4
	C333.7,305.3,336,308.8,335.8,309z"/>
<path class="st5" d="M474.6,324.4c-2.8-0.7-5.7-1.1-8.6-1.1c-2.9,0.3-5.7,0.9-8.4,1.9c0.6-0.6,1.4-1,2.2-1.3c1.9-0.8,4-1.2,6.1-1.3
	c2.1-0.1,4.2,0.2,6.2,0.8C473,323.5,473.8,323.9,474.6,324.4z"/>
<path class="st5" d="M469.1,327.2c-0.1,0.2-2.9-1-6.7-1.3c-3.7-0.4-6.8,0.2-6.9,0c2.2-0.7,4.6-1,6.9-0.7S467,326,469.1,327.2
	L469.1,327.2z"/>
<path class="st5" d="M426.4,236.4c-0.7,1.3-1.5,2.5-2.5,3.6c-1.6,2.1-4,5-6.7,8.1c-2.7,3.2-5.3,5.8-7.2,7.7c-1,1.1-2.1,2.1-3.2,3
	c0.8-1.2,1.8-2.3,2.8-3.3l6.9-7.9l6.9-8C424.3,238.5,425.3,237.4,426.4,236.4z"/>
<path class="st5" d="M336.3,287.1c0.1-0.4,0.3-0.7,0.5-1.1c0.3-0.7,0.9-1.7,1.5-3c1.3-2.6,3-6.5,4.9-11.4c1.9-4.9,4-10.7,6.2-17.3
	c2.2-6.6,4.6-13.8,7.3-21.3c2.6-7.1,5.6-14,9-20.7c2.8-5.5,6.1-10.7,9.9-15.7c2.5-3.3,5.4-6.4,8.5-9.3c1.1-1,2-1.7,2.6-2.3
	c0.3-0.3,0.6-0.5,0.9-0.7c-0.3,0.3-0.5,0.6-0.8,0.9c-0.6,0.5-1.4,1.3-2.5,2.4c-3,2.9-5.7,6.1-8.2,9.4c-3.7,4.9-6.9,10.2-9.7,15.7
	c-3.4,6.7-6.4,13.6-8.9,20.7c-2.7,7.5-5.2,14.7-7.3,21.3c-2.2,6.5-4.4,12.4-6.4,17.3c-2,4.8-3.8,8.7-5.2,11.3
	c-0.7,1.3-1.2,2.3-1.6,3C336.7,286.4,336.5,286.8,336.3,287.1z"/>
<path class="st5" d="M332.7,289.2c0,0.2-1.5,0.6-3.1,1.7c-1.6,1-2.6,2.2-2.8,2.1c-0.2-0.1,0.6-1.7,2.4-2.7c0.5-0.4,1.1-0.7,1.7-0.8
	C331.5,289.2,332.1,289.1,332.7,289.2z"/>
<path class="st5" d="M325.6,295.3c-0.2,0.2-0.5,0.3-0.8,0.4l-2.3,1.1c-2,1-5,2.3-8.6,3.9c-7.3,3.2-17.5,7.3-29.1,11.2
	c-11.5,4-22.2,7-29.9,9c-3.9,1-7,1.8-9.2,2.3l-2.5,0.5c-0.3,0.1-0.6,0.1-0.9,0.1c0.3-0.1,0.6-0.2,0.9-0.3l2.5-0.7l9.1-2.5
	c7.7-2.1,18.3-5.3,29.8-9.2c11.5-3.9,21.8-8,29.1-11l8.6-3.6l2.4-1C325,295.4,325.3,295.3,325.6,295.3z"/>
<path class="st5" d="M400,200.1c-0.7,0.9-1.5,1.6-2.4,2.1c-2.3,1.4-4.8,2.3-7.5,2.6c-2.7,0.3-5.4,0-8-0.8c-1-0.3-2-0.8-2.8-1.4
	c0-0.1,1.2,0.5,3.1,1c2.5,0.7,5.1,0.9,7.7,0.6c2.6-0.3,5.1-1.1,7.3-2.3C398.2,201.3,399.1,200.7,400,200.1z"/>
<path class="st5" d="M425.7,414.2c0-0.3,0.1-0.6,0.2-0.9c0.2-0.7,0.4-1.6,0.7-2.7c0.6-2.3,1.6-5.6,2.9-9.7
	c2.6-8.2,6.4-19.4,11.2-31.5c4.8-12.2,9.8-23,13.5-30.7c1.9-3.9,3.4-7,4.6-9.1c0.6-1,1-1.8,1.3-2.4c0.1-0.3,0.3-0.6,0.5-0.8
	c-0.1,0.3-0.2,0.6-0.4,0.9l-1.2,2.5c-1.1,2.3-2.5,5.4-4.3,9.2c-3.6,7.8-8.5,18.6-13.3,30.8c-4.8,12.2-8.7,23.3-11.4,31.5
	c-1.3,4-2.4,7.3-3.1,9.6c-0.4,1.1-0.6,1.9-0.9,2.6C426,413.7,425.9,414,425.7,414.2z"/>
<path class="st8" d="M541.5,114l-18.6-17.2c0,0-17.9-0.3-27.6,2.7c-9.7,2.9-109.5,71.2-109.5,71.2c13.4,5.1,25.1,16.6,36.1,30.6
	c9.3,10.6,12.5,26.4,26,31.2c2.9,1,13.2-1.9,13.2-1.9l2.4-10.3l81.2-74.4C544.7,145.9,548.4,124.5,541.5,114z"/>
<g class="st6">
	<path d="M482.3,169.8c-10.6,0.4-20.9-2.8-29.3-9.1c12.5-6.3,23.4-15.1,34.2-23.9c8.1-6.6,21.6-17.7,32.4-24.7
		c-22,2.6-53.3,12.4-72.5,23.2c-16.4,9.3-31.5,21.6-49.9,26.7l-2.7-0.2c0.3,5.2,4.6,9.6,9.6,11.5c5.1,1.7,10.6,2,16,1.1
		c5.3-1,10.6-1.6,16-2c8.2-0.2,16.2,2.2,24.3,3.5c8.1,1.4,16.9,1.6,23.9-2.5c0.7-0.4,1.4-1,1.5-1.8
		C485.9,170.1,483.8,169.7,482.3,169.8z"/>
</g>
<path class="st5" d="M524.2,159.1c-30.8,5.9-62.6,4.8-92.8-3.1l0.8,10.3c15.7,3.5,31.5,7,47.5,7.6c16.1,0.6,32.7-1.9,46.6-9.7
	C525.5,162.5,524.8,160.8,524.2,159.1z"/>
<g class="st6">
	<path d="M510.1,169.9c-0.6-13.8-0.2-27.6,1.2-41.4l0.3-1.4c-3.2,3.3-4.1,7.9-4.7,12.3c-1.9,13.5-1.8,27.1,0.2,40.6l3.5-2.2
		C510.5,177.2,510.1,172.7,510.1,169.9z"/>
</g>
<path class="st7" d="M537.2,107.3c-8.2-6.6-23.8-3.2-33.8,0.7l-7.3,14.6c9.8-2.9,26.4-13.1,35.9-9.2c9.4,3.9,12.8,12.2,15,21.8
	c1.1-5.1,0.8-10.3-0.9-15.3C544.3,115.1,541.2,110.7,537.2,107.3z"/>
<path class="st5" d="M503.7,84.2c-8.6-5.8-19.6-5.1-29.9-4.1C454,82.2,440.7,91.4,420.3,98c-12.7,4-23.3,12.5-29.6,23.8
	c-7.7,14.2-6.6,27.3,3.3,40.2l3.4,3.2c3.5,3.3,8,5.5,12.8,6.5c4.8,0.9,9.8,0.5,14.4-1.3c26.3-10.3,43-27,69.9-43
	c7.9-4.7,15.9-9.9,18.2-19.4c1.1-4.4,0.8-8.9-0.8-13.1C510.3,90.5,507.5,86.9,503.7,84.2z"/>
<path class="st7" d="M510.8,93.1c0,0.5-0.1,0.9-0.2,1.4c-0.3,1.3-0.7,2.6-1.3,3.8c-2.4,4.4-5.8,8.2-9.9,11.1
	c-13.2,10-27,19.3-41.2,27.8c-8.3,5-16.5,9.5-24,13.4c-3.8,2-7.3,3.7-10.7,5.4c-3.1,1.6-6.3,3-9.6,4.2c-4.8,1.9-10,2.4-15.1,1.6
	c-1.4-0.3-2.7-0.7-4-1.3c-0.3-0.1-0.6-0.3-0.9-0.5c-0.1-0.1-0.2-0.1-0.3-0.2c1.7,0.8,3.5,1.3,5.3,1.7c5,0.7,10.1,0.1,14.8-1.8
	c3.3-1.3,6.4-2.7,9.5-4.3c3.4-1.7,6.9-3.5,10.7-5.4c7.5-3.9,15.5-8.4,23.9-13.4c14.3-8.5,28.1-17.7,41.4-27.5
	c4.1-2.9,7.5-6.5,10-10.8C509.9,96.5,510.5,94.8,510.8,93.1z"/>
<path class="st7" d="M454.8,137.9c-0.2,0.1-6.6-9.1-14.2-20.7c-7.6-11.5-13.7-21-13.5-21.2s6.6,9.1,14.2,20.7
	C448.9,128.3,455,137.8,454.8,137.9z"/>
<path class="st7" d="M448,127.8c-0.6,0.3-1.2,0.8-1.6,1.3c-0.4,0.7-0.8,1.4-1.3,2c-0.3,0.4-0.8,0.7-1.4,0.9c-0.3,0.1-0.7,0.1-1,0
	c-0.3-0.1-0.6-0.2-0.9-0.4c-0.3-0.2-0.5-0.5-0.6-0.9c0-0.2,0-0.4,0-0.5c0-0.2,0.1-0.3,0.2-0.5c0.4-0.4,0.9-0.7,1.5-0.8l2.3-0.6
	c1.3-0.3,2.2-0.5,2.2-0.4c0,0.1-0.7,0.5-2,0.9l-2.3,0.8c-0.9,0.2-1.5,0.8-0.8,1.3c0.1,0.1,0.3,0.2,0.5,0.2c0.2,0,0.4,0,0.5,0
	c0.4-0.1,0.7-0.3,1-0.6c0.6-0.6,0.9-1.3,1.4-1.8c0.4-0.5,0.9-0.8,1.4-1C447.8,127.6,448,127.7,448,127.8z"/>
<path class="st7" d="M484.4,463.5c0,2.3-0.7,4.5-2,6.4c-1.3,1.9-3.2,3.4-5.4,4.2c-2.2,0.9-4.6,1.1-6.9,0.6c-2.3-0.4-4.5-1.5-6.1-3.2
	c-1.7-1.6-2.8-3.7-3.3-5.9c-0.5-2.2-0.2-4.5,0.7-6.6c0.9-2.1,2.5-3.9,4.4-5.2c2-1.3,4.3-1.9,6.7-1.9c3.2,0,6.2,1.2,8.4,3.4
	S484.4,460.5,484.4,463.5z"/>
<path class="st5" d="M483.2,463.5c-0.1,0,0-0.9-0.5-2.5c-0.6-2.2-2-4.2-3.9-5.5c-1.3-0.9-2.8-1.6-4.4-1.8c-1.9-0.3-3.9-0.2-5.8,0.5
	s-3.4,1.9-4.6,3.4c-1.3,1.7-2,3.8-2,5.9c0,2.1,0.7,4.2,2,5.9c1.2,1.6,2.9,2.8,4.8,3.5c1.7,0.6,3.6,0.8,5.5,0.5
	c1.6-0.3,3.1-0.9,4.4-1.8c1.9-1.4,3.3-3.3,3.9-5.5C483.1,464.5,483.1,463.5,483.2,463.5c0,0.2,0,0.4-0.1,0.7c0,0.6-0.1,1.3-0.2,1.9
	c-0.5,2.3-1.9,4.4-3.9,5.9c-1.4,1-3,1.7-4.7,2c-1.6,0.3-3.3,0.3-4.9-0.1c-1.6-0.4-3.1-1.1-4.3-2.1c-1.3-1-2.3-2.3-3-3.7
	c-0.7-1.4-1.1-3-1.1-4.6c0-1.6,0.4-3.1,1.1-4.6c0.7-1.4,1.7-2.7,3-3.7c1.3-1,2.8-1.7,4.3-2.1c1.6-0.4,3.3-0.4,4.9-0.1
	c1.7,0.3,3.3,1,4.7,2c2,1.5,3.4,3.5,3.9,5.9c0.2,0.6,0.2,1.3,0.2,1.9C483.2,463.1,483.2,463.3,483.2,463.5z"/>
<path class="st7" d="M321,467.5c0,2.3-0.7,4.5-2,6.4c-1.3,1.9-3.2,3.4-5.4,4.2c-2.2,0.9-4.6,1.1-6.9,0.7s-4.5-1.5-6.1-3.2
	c-1.7-1.6-2.8-3.7-3.3-5.9c-0.5-2.2-0.2-4.5,0.7-6.6c0.9-2.1,2.4-3.9,4.4-5.2s4.3-1.9,6.7-1.9c3.2,0,6.2,1.2,8.5,3.4
	C319.8,461.6,321,464.5,321,467.5z"/>
<path class="st5" d="M319.9,467.5c0,0,0-0.9-0.5-2.5c-0.7-2.2-2-4.1-4-5.5c-1.4-1-3-1.7-4.8-1.9c-1.7-0.2-3.5-0.1-5.1,0.5
	c-1.9,0.7-3.6,1.9-4.8,3.5c-1.3,1.7-2,3.8-2,5.9s0.7,4.2,2,5.9c0.8,1.1,1.9,2,3,2.7c1.2,0.7,2.5,1.1,3.9,1.3
	c1.4,0.2,2.8,0.1,4.1-0.2c1.3-0.3,2.6-0.9,3.7-1.7c1.9-1.4,3.3-3.3,4-5.5C319.9,468.5,319.8,467.5,319.9,467.5
	c0.1,0,0.1,0.2,0.1,0.7c0,0.6-0.1,1.3-0.2,1.9c-0.5,2.3-1.9,4.4-3.9,5.9c-1.4,1-2.9,1.7-4.6,2c-2.2,0.4-4.5,0.2-6.5-0.7
	c-2.1-0.9-3.8-2.3-5-4.1c-1.2-1.8-1.8-3.9-1.7-6.1c0.1-2.1,0.8-4.2,2.2-6c1.3-1.7,3.1-3,5.2-3.7c1.9-0.6,3.9-0.8,5.9-0.4
	c2.1,0.4,4,1.3,5.5,2.7c1.5,1.4,2.6,3.2,3.1,5.2c0.2,0.6,0.2,1.3,0.2,1.9C319.9,467.3,319.9,467.5,319.9,467.5z"/>
<path class="st8" d="M510.2,461c-0.1,0.3-3.3-0.4-9.1-1.8l-4.8-1.2l-5.8-1.3c-4.1-0.9-8.8-2.1-14-3l-8.2-1.5
	c-2.8-0.5-5.8-0.9-8.9-1.4c-6.2-1-12.8-1.7-19.8-2.5c-15.2-1.4-30.4-2-45.7-1.8c-15.3,0.4-30.5,1.6-45.6,3.6
	c-6.9,1.1-13.6,2-19.7,3.3c-3.1,0.6-6,1.1-8.9,1.7l-8.1,1.9c-5.2,1.1-9.8,2.5-13.9,3.5L292,462l-4.7,1.4c-5.7,1.7-8.9,2.4-9,2.2
	c-0.1-0.3,2.9-1.7,8.5-3.8l4.6-1.8c1.7-0.6,3.6-1.2,5.6-1.9c4.1-1.3,8.6-2.9,13.8-4.2l8.1-2.2c2.8-0.7,5.8-1.3,8.9-2
	c6.1-1.4,12.8-2.5,19.8-3.7c30.5-4.7,61.6-5.3,92.3-1.8c7.1,0.9,13.8,1.7,20,2.9c3.1,0.6,6.1,1,9,1.7l8.2,1.8
	c5.2,1.1,9.9,2.5,14,3.6c2,0.6,4,1.1,5.7,1.7l4.7,1.7C507.2,459.5,510.3,460.7,510.2,461z"/>
<path class="st9" d="M567.2,258.8c0.3,0.8,2.2,4.6,2.2,4.6l7,15.3l0.7,21.4c-0.4,0.2-0.9,0.3-1.4,0.3c-0.5,0-0.9-0.1-1.4-0.3
	c-0.4-0.2-0.8-0.5-1.1-0.9c-0.3-0.4-0.5-0.8-0.5-1.3c-0.6-3.4-1-6.7-1.1-10.1l-10.6,13c0,0-3.5-2.4-1.3-5.5l-4.4,2.3
	c-1.1-1.5-1.6-3.3-1.3-5.1c0.7-2.7,8.2-10.4,8.2-10.4l-13.2-0.5c0,0-2.3-1.7-0.1-3c3.3-1.4,6.7-2.5,10.1-3.3
	c-1.4-0.3-2.7-0.9-3.8-1.7c-1.1-0.8-2-1.9-2.7-3.1c-1.3-2.7-1.9-5.7-1.6-8.7L567.2,258.8z"/>
<path class="st9" d="M516.5,150.4c0,0,8.7,57.1,8.8,60.9c0.3,4.1,0.9,8.2,1.7,12.2c0,0-0.3-0.4,3,5c3.2,5.4,23.8,40.3,23.8,40.3
	l15.5-5.5c0,0-16-45.5-17.5-52.4c-1.4-6.9,1.1-41.6-2.7-56.1C545.4,140.3,516.5,150.4,516.5,150.4z"/>
<path class="st8" d="M524.1,113.1c-0.7,0.2-1.3,0.4-2,0.8c-3,1.7-11.5,7.5-12.1,25.3c-0.8,22.4,0.5,38.6,0.5,38.6l43.1-3.3
	C553.4,174.2,551,106.8,524.1,113.1z"/>
<path class="st7" d="M553.6,174.4c-0.3,0.1-0.5,0.1-0.8,0.1l-2.4,0.3l-9,0.8l-30.9,2.5h-0.4v-0.4c-0.3-4.6-0.5-9.6-0.6-14.7
	c-0.2-7.8-0.1-15.2,0.2-21.9s1.1-12.9,3.4-17.6c1.7-3.8,4.5-7,8.1-9.2c1-0.6,2-1,3.1-1.4c0.4-0.1,0.8-0.2,1.2-0.2
	c-1.4,0.5-2.8,1.1-4.1,1.9c-3.5,2.2-6.1,5.4-7.7,9.1c-2.1,4.6-2.9,10.7-3.1,17.4c-0.2,6.7-0.3,14.1-0.1,21.9
	c0.1,5.1,0.3,10.1,0.6,14.7l-0.5-0.4l30.9-2.2l9-0.6l2.4-0.1C553.1,174.4,553.4,174.4,553.6,174.4z"/>
<path class="st7" d="M800,748.1c0,0.2-179.1,0.4-400,0.4S0,748.3,0,748.1c0-0.2,179.1-0.4,400-0.4S800,747.8,800,748.1z"/>
</svg>
